#N canvas 44 273 756 492 10;
#X obj 44 72 inlet;
#N canvas 393 389 524 300 range 0;
#X obj 60 64 r \$0-range;
#X msg 42 153 range 0 1;
#X msg 64 172 range 0 100;
#X obj 60 87 t b f f;
#X msg 118 159 range 0 7;
#X msg 221 175 range 0.01 100;
#X msg 202 224 range 2 20000;
#X obj 29 265 s \$0-depth-set;
#X msg 188 155 lin;
#X msg 102 140 log;
#X msg 327 135 label amplitude;
#X msg 342 153 label percent;
#X msg 359 174 label frequency;
#X msg 379 198 label index_7;
#X obj 148 269 s \$0-depth;
#X msg 389 218 label index_exp;
#X obj 303 40 > 2;
#X obj 62 119 sel 0 1 2 3 4 5;
#X obj 156 107 sel 0 1 2 3 4 5;
#X msg 378 246 label car_mod_ratio;
#X msg 185 199 range 0.01 140;
#X msg 42 199 range 0.125 17.625;
#X obj 307 71 s \$0-car_f-set;
#X connect 0 0 3 0;
#X connect 1 0 7 0;
#X connect 1 0 14 0;
#X connect 2 0 7 0;
#X connect 2 0 14 0;
#X connect 3 0 7 0;
#X connect 3 1 17 0;
#X connect 3 2 16 0;
#X connect 3 2 18 0;
#X connect 4 0 7 0;
#X connect 4 0 14 0;
#X connect 5 0 7 0;
#X connect 5 0 14 0;
#X connect 6 0 7 0;
#X connect 6 0 14 0;
#X connect 8 0 7 0;
#X connect 8 0 14 0;
#X connect 9 0 7 0;
#X connect 9 0 14 0;
#X connect 10 0 7 0;
#X connect 11 0 7 0;
#X connect 12 0 7 0;
#X connect 13 0 7 0;
#X connect 15 0 7 0;
#X connect 16 0 22 0;
#X connect 17 0 1 0;
#X connect 17 1 2 0;
#X connect 17 2 9 0;
#X connect 17 3 4 0;
#X connect 17 4 9 0;
#X connect 17 5 21 0;
#X connect 17 5 8 0;
#X connect 17 5 20 0;
#X connect 18 0 8 0;
#X connect 18 0 10 0;
#X connect 18 1 8 0;
#X connect 18 1 11 0;
#X connect 18 2 6 0;
#X connect 18 2 12 0;
#X connect 18 3 8 0;
#X connect 18 3 13 0;
#X connect 18 4 5 0;
#X connect 18 4 15 0;
#X connect 18 5 19 0;
#X connect 19 0 7 0;
#X connect 20 0 14 0;
#X connect 21 0 7 0;
#X restore 264 14 pd range;
#N canvas 27 250 576 566 automation 0;
#X obj 82 57 inlet;
#X obj 109 438 s \$0-attack-set;
#X obj 82 458 s \$0-attack;
#X obj 82 418 t f f;
#X obj 113 358 t f f;
#X obj 140 378 s \$0-decay-set;
#X obj 113 398 s \$0-decay;
#X obj 175 278 t f f;
#X obj 144 339 s \$0-sustain-set;
#X obj 202 298 s \$0-release-set;
#X obj 175 318 s \$0-release;
#X obj 361 213 outlet;
#X obj 237 198 t f f;
#X obj 264 218 s \$0-depth-set;
#X obj 237 238 s \$0-depth;
#X obj 268 177 s \$0-retrig-set;
#X obj 299 157 s \$0-invert-set;
#X obj 330 137 s \$0-range-set;
#X obj 206 258 s \$0-car_f-set;
#X obj 82 77 route a d s r carrier depth retrig invert range;
#X obj 71 109 route all;
#X obj 71 129 unpack f f f f f f f f f;
#X obj 229 453 s \$0-attack-num;
#X obj 260 393 s \$0-decay-num;
#X obj 264 354 s \$0-sustain-num;
#X obj 322 313 s \$0-release-num;
#X obj 384 233 s \$0-depth-num;
#X obj 450 152 s \$0-range;
#X obj 388 192 s \$0-retrig;
#X obj 326 273 s \$0-car_f;
#X obj 419 172 s \$0-invert;
#X connect 0 0 19 0;
#X connect 3 0 2 0;
#X connect 3 1 1 0;
#X connect 3 1 22 0;
#X connect 4 0 6 0;
#X connect 4 1 5 0;
#X connect 4 1 23 0;
#X connect 7 0 10 0;
#X connect 7 1 9 0;
#X connect 7 1 25 0;
#X connect 12 0 14 0;
#X connect 12 1 13 0;
#X connect 12 1 26 0;
#X connect 19 0 3 0;
#X connect 19 1 4 0;
#X connect 19 2 8 0;
#X connect 19 2 24 0;
#X connect 19 3 7 0;
#X connect 19 4 18 0;
#X connect 19 4 29 0;
#X connect 19 5 12 0;
#X connect 19 6 15 0;
#X connect 19 6 28 0;
#X connect 19 7 16 0;
#X connect 19 7 30 0;
#X connect 19 8 17 0;
#X connect 19 8 27 0;
#X connect 19 9 11 0;
#X connect 19 9 20 0;
#X connect 20 0 21 0;
#X connect 21 0 3 0;
#X connect 21 1 4 0;
#X connect 21 2 8 0;
#X connect 21 2 24 0;
#X connect 21 3 7 0;
#X connect 21 4 18 0;
#X connect 21 5 12 0;
#X connect 21 6 15 0;
#X connect 21 6 28 0;
#X connect 21 7 16 0;
#X connect 21 7 30 0;
#X connect 21 8 17 0;
#X connect 21 8 27 0;
#X restore 479 70 pd automation;
#X obj 479 50 inlet;
#X obj 598 231 r \$0-car_f;
#X obj 549 231 inlet~;
#X obj 598 271 sig~ 1;
#X obj 315 66 r \$0-attack-num;
#X obj 329 86 r \$0-decay-num;
#X obj 343 106 r \$0-sustain-num;
#X obj 358 146 r \$0-release-num;
#X obj 549 251 *~ 0;
#X obj 455 316 r \$0-depth-num;
#X obj 598 251 == 0;
#X obj 382 318 *~;
#X obj 382 296 *~ 1;
#X obj 549 295 +~;
#X obj 382 352 outlet~;
#X obj 381 262 *~ 1;
#X obj 430 172 r \$0-invert;
#N canvas 6 75 450 300 invert 0;
#X obj 127 103 -~;
#X obj 142 71 inlet~;
#X obj 126 190 outlet~;
#X obj 222 20 inlet;
#X obj 327 64 inlet;
#X obj 327 112 switch~;
#X obj 127 50 sig~ 0;
#X connect 0 0 2 0;
#X connect 1 0 0 1;
#X connect 3 0 6 0;
#X connect 4 0 5 0;
#X connect 6 0 0 0;
#X restore 287 267 pd invert;
#X obj 307 441 s \$0-invert-set;
#X msg 307 418 0;
#X obj 307 393 loadbang;
#N canvas 6 75 450 300 label 0;
#X obj 111 48 inlet;
#X obj 111 158 s \$0-invert-set;
#X msg 83 128 label pol+;
#X msg 151 128 label bias-;
#X msg 223 128 label pol-;
#X msg 294 129 label bias+;
#X obj 111 84 sel 0 1 2 3;
#X connect 0 0 6 0;
#X connect 2 0 1 0;
#X connect 3 0 1 0;
#X connect 4 0 1 0;
#X connect 5 0 1 0;
#X connect 6 0 2 0;
#X connect 6 1 3 0;
#X connect 6 2 4 0;
#X connect 6 3 5 0;
#X restore 447 212 pd label;
#X obj 526 171 outlet;
#N canvas 12 125 683 443 send_automation 0;
#X obj 30 9 r \$0-attack-num;
#X obj 79 29 r \$0-decay-num;
#X obj 128 49 r \$0-sustain-num;
#X obj 177 69 r \$0-release-num;
#X obj 265 117 r \$0-depth-num;
#X obj 338 175 r \$0-range;
#X obj 295 136 r \$0-retrig;
#X obj 243 97 r \$0-car_f;
#X obj 315 156 r \$0-invert;
#X text 423 244 automation routings:;
#X text 423 259 type index parameter value;
#X msg 30 30 a \$1;
#X msg 79 50 d \$1;
#X msg 128 70 s \$1;
#X msg 177 90 r \$1;
#X msg 199 157 carrier \$1;
#X msg 242 200 depth \$1;
#X msg 282 241 retrig \$1;
#X msg 326 282 invert \$1;
#X msg 358 328 range \$1;
#X obj 18 259 pack f f f f f f f f f;
#X obj 24 323 prepend all;
#X obj 51 158 t b f;
#X obj 89 158 t b f;
#X obj 127 158 t b f;
#X obj 101 208 t b f;
#X obj 139 208 t b f;
#X obj 177 208 t b f;
#X obj 199 233 t b f;
#X obj 237 233 t b f;
#X obj 30 360 outlet;
#X connect 0 0 11 0;
#X connect 0 0 20 0;
#X connect 1 0 12 0;
#X connect 1 0 22 0;
#X connect 2 0 13 0;
#X connect 2 0 23 0;
#X connect 3 0 14 0;
#X connect 3 0 24 0;
#X connect 4 0 16 0;
#X connect 4 0 26 0;
#X connect 5 0 19 0;
#X connect 5 0 29 0;
#X connect 6 0 17 0;
#X connect 6 0 27 0;
#X connect 7 0 15 0;
#X connect 7 0 25 0;
#X connect 8 0 18 0;
#X connect 8 0 28 0;
#X connect 11 0 30 0;
#X connect 12 0 30 0;
#X connect 13 0 30 0;
#X connect 14 0 30 0;
#X connect 15 0 30 0;
#X connect 16 0 30 0;
#X connect 17 0 30 0;
#X connect 18 0 30 0;
#X connect 19 0 30 0;
#X connect 20 0 21 0;
#X connect 21 0 30 0;
#X connect 22 0 20 0;
#X connect 22 1 20 1;
#X connect 23 0 20 0;
#X connect 23 1 20 2;
#X connect 24 0 20 0;
#X connect 24 1 20 3;
#X connect 25 0 20 0;
#X connect 25 1 20 4;
#X connect 26 0 20 0;
#X connect 26 1 20 5;
#X connect 27 0 20 0;
#X connect 27 1 20 6;
#X connect 28 0 20 0;
#X connect 28 1 20 7;
#X connect 29 0 20 0;
#X connect 29 1 20 8;
#X restore 526 150 pd send_automation;
#X obj 178 23 loadbang;
#X msg 181 65 0;
#X obj 175 93 s \$0-range-set;
#X msg 231 47 100;
#X obj 211 75 s \$0-sustain-set;
#X obj 666 245 pack f 10;
#X obj 666 268 line~;
#N canvas 25 140 1021 671 adsr 0;
#X obj 105 111 inlet;
#X text 101 86 trigger;
#X obj 105 139 sel 0;
#X obj 244 155 t b;
#X obj 166 289 pack 0 \$2;
#X obj 492 151 inlet;
#X obj 438 281 del \$2;
#X obj 458 429 line~;
#X obj 462 304 f \$4;
#X obj 501 379 pack 0 \$3;
#X obj 554 151 inlet;
#X obj 616 151 inlet;
#X obj 689 150 inlet;
#X msg 105 170 stop;
#X obj 612 306 pack 0 \$5;
#X obj 458 454 outlet~;
#X text 102 378 and pack with;
#X text 103 398 attack time;
#X text 31 126 if zero;
#X text 32 143 release;
#X text 12 160 and cancel;
#X text 43 177 decay;
#X text 284 272 on attack \, set a;
#X text 278 305 recall sustain value;
#X text 315 378 pack with decay time;
#X text 605 332 on release ramp;
#X text 606 349 back to zero;
#X obj 462 329 * 0.01;
#X text 47 567 Objects such as "f" and "pack" can be given dollar sign
arguments to initialize their contents from adsr's creation arguments.
Inlets are supplied to change them on the fly.;
#X text 13 2 ADSR ENVELOPE;
#X text 488 129 attack;
#X text 555 128 decay;
#X text 609 129 sustain;
#X text 686 129 release;
#X text 202 71 attack;
#X obj 204 92 moses;
#X obj 194 122 t b b;
#X msg 128 290 0;
#X text 20 273 optionally;
#X text 10 291 bash to zero;
#X text 25 246 ATTACK:;
#X text 49 477 When you send this patch a positive trigger it schedules
a line~ to do an attack and decay \, and if zero \, it starts the release
ramp.;
#X text 495 629 Updated for Pd version 0.37;
#X text 255 89 test for negative trigger;
#X text 253 113 if so \, zero;
#X text 254 129 the output;
#X text 278 165 in any case;
#X text 303 355 multiply by peak level;
#X text 280 286 delay for sustain;
#X text 276 328 convert from percent;
#X text 155 340 ... then;
#X text 103 359 recall peak level;
#X text 281 149 ... do this;
#X text 47 529 Negative triggers cause the output to jump to zero and
then attack (instead of attacking from the current location).;
#X text 208 1 Arguments: level \, attack time \, decay time \, sustain
level \, release time. A \, D \, and R are in msec and S is in percent.
This patch is used as an abstraction in various examples.;
#X obj 166 264 f 1;
#X obj 501 355 * 1;
#X connect 0 0 2 0;
#X connect 2 0 13 0;
#X connect 2 0 14 0;
#X connect 2 1 35 0;
#X connect 3 0 6 0;
#X connect 3 0 55 0;
#X connect 4 0 7 0;
#X connect 5 0 4 1;
#X connect 5 0 6 1;
#X connect 6 0 8 0;
#X connect 7 0 15 0;
#X connect 8 0 27 0;
#X connect 9 0 7 0;
#X connect 10 0 9 1;
#X connect 11 0 8 1;
#X connect 12 0 14 1;
#X connect 13 0 6 0;
#X connect 14 0 7 0;
#X connect 27 0 56 0;
#X connect 35 0 36 0;
#X connect 35 1 3 0;
#X connect 36 0 3 0;
#X connect 36 1 37 0;
#X connect 37 0 7 0;
#X connect 55 0 4 0;
#X connect 56 0 9 0;
#X restore 288 170 pd adsr;
#X floatatom 351 127 5 0 0 0 - - -;
#X obj 666 222 route fcar;
#X obj 125 203 cnv 15 146 98 empty empty empty 6 6 0 14 -132119 -260402
0;
#X obj 51 217 cnv 15 220 84 empty empty empty 6 6 0 14 -132119 -260402
0;
#X obj 203 220 nbx 6 12 0 1 0 0 \$0-depth-num \$0-depth empty 0 -8
1 10 -82198 -262118 -228737 1 256;
#X obj 58 220 hsl 141 12 0 1 0 0 \$0-depth \$0-depth-set amplitude
35 6 1 10 -82198 -258015 -261603 14000 1;
#X obj 203 236 nbx 6 12 0 99999 0 0 \$0-attack-num \$0-attack empty
0 -8 1 10 -17686 -262118 -228737 0 256;
#X obj 58 236 hsl 141 12 1 10000 1 0 \$0-attack \$0-attack-set attack
35 6 1 10 -17686 -258015 -261603 0 1;
#X obj 203 248 nbx 6 12 0 99999 0 0 \$0-decay-num \$0-decay empty 0
-8 1 10 -17686 -262118 -228737 0 256;
#X obj 58 248 hsl 141 12 1 7000 1 0 \$0-decay \$0-decay-set decay 35
6 1 10 -17686 -258015 -261603 0 1;
#X obj 203 260 nbx 5 12 0 100 0 0 \$0-sustain-num \$0-sustain empty
0 -8 1 10 -87301 -262118 -228737 100 256;
#X obj 58 260 hsl 141 12 0 100 0 0 \$0-sustain \$0-sustain-set sustain
35 6 1 10 -87301 -258015 -261603 14000 1;
#X obj 203 272 nbx 6 12 0 99999 0 0 \$0-release-num \$0-release empty
0 -8 1 10 -17686 -262118 -228737 0 256;
#X obj 58 272 hsl 141 12 1 10000 1 0 \$0-release \$0-release-set release
35 6 1 10 -17686 -258015 -261603 0 1;
#X obj 129 205 hradio 12 1 0 6 \$0-range \$0-range-set range 18 5 1
10 -86037 -262130 -262130 0;
#X obj 203 287 tgl 12 0 \$0-retrig \$0-retrig-set retrig 14 6 1 10
-86293 -262130 -262130 0 1;
#X obj 108 287 hradio 12 1 0 4 \$0-invert \$0-invert-set pol+ 52 6
1 10 -17749 -262130 -262130 0;
#X obj 436 432 s \$0-depth-set;
#X msg 433 410 1;
#X obj 666 288 *~;
#X obj 55 287 tgl 12 0 empty empty empty 16 6 1 10 -83269 -262130 -262130
0 987.767;
#X obj 55 287 tgl 12 0 \$0-car_f \$0-car_f-set car~ 16 6 1 10 -83269
-262130 -262130 0 1;
#X obj 336 243 > 1;
#X obj 307 245 > 2;
#X obj 437 233 sel 1;
#X msg 463 253 0;
#X msg 437 253 -1;
#X obj 437 273 sig~;
#X obj 402 228 < 2;
#X connect 0 0 34 0;
#X connect 2 0 36 0;
#X connect 3 0 2 0;
#X connect 4 0 11 1;
#X connect 4 0 13 0;
#X connect 4 0 54 1;
#X connect 5 0 11 0;
#X connect 6 0 16 1;
#X connect 7 0 34 1;
#X connect 8 0 34 2;
#X connect 9 0 34 3;
#X connect 9 0 35 0;
#X connect 10 0 34 4;
#X connect 11 0 16 0;
#X connect 12 0 15 1;
#X connect 13 0 6 0;
#X connect 14 0 17 0;
#X connect 15 0 14 0;
#X connect 16 0 14 1;
#X connect 18 0 15 0;
#X connect 19 0 24 0;
#X connect 19 0 57 0;
#X connect 19 0 58 0;
#X connect 19 0 59 0;
#X connect 19 0 63 0;
#X connect 20 0 15 0;
#X connect 22 0 21 0;
#X connect 23 0 22 0;
#X connect 23 0 53 0;
#X connect 26 0 25 0;
#X connect 27 0 28 0;
#X connect 27 0 30 0;
#X connect 28 0 29 0;
#X connect 30 0 31 0;
#X connect 32 0 33 0;
#X connect 33 0 54 0;
#X connect 34 0 20 0;
#X connect 34 0 18 0;
#X connect 36 0 32 0;
#X connect 53 0 52 0;
#X connect 54 0 16 1;
#X connect 57 0 20 2;
#X connect 58 0 20 1;
#X connect 59 0 61 0;
#X connect 59 1 60 0;
#X connect 60 0 62 0;
#X connect 61 0 62 0;
#X connect 62 0 15 0;
#X connect 63 0 18 1;
#X coords 0 -1 1 1 222 104 1 50 200;
