#N canvas 4 55 450 300 10;
#X obj 97 146 route 51 52 53 54 55 56;
#X msg 92 190 hpf \$1;
#X msg 111 212 lpf \$1;
#X msg 147 190 hq \$1;
#X msg 166 212 lq \$1;
#X msg 197 190 porta \$1;
#X msg 221 214 gang \$1;
#X obj 85 255 outlet;
#X obj 95 105 inlet;
#X connect 0 0 1 0;
#X connect 0 1 2 0;
#X connect 0 2 3 0;
#X connect 0 3 4 0;
#X connect 0 4 5 0;
#X connect 0 5 6 0;
#X connect 1 0 7 0;
#X connect 2 0 7 0;
#X connect 3 0 7 0;
#X connect 4 0 7 0;
#X connect 5 0 7 0;
#X connect 6 0 7 0;
#X connect 8 0 0 0;
