#N canvas 493 120 450 300 10;
#X obj 63 16 inlet;
#X obj 42 51 expr 60000/$f1;
#X floatatom 103 111 3 1 99 0 - - -;
#X floatatom 137 111 3 1 99 0 - - -;
#X text 91 110 /;
#X text 125 113 *;
#X obj 106 155 t b f;
#X obj 105 184 / 4;
#X obj 103 224 * 3;
#X obj 160 155 t b f;
#X obj 99 268 outlet;
#X msg 99 246 delay \$1;
#X msg 212 94 4;
#X msg 248 94 3;
#X obj 273 65 loadbang;
#X floatatom 58 111 5 0 0 0 - - -;
#X obj 173 17 inlet;
#X obj 223 17 inlet;
#X msg 287 179 dur \$1;
#X obj 287 201 outlet;
#X connect 0 0 1 0;
#X connect 1 0 15 0;
#X connect 2 0 6 0;
#X connect 3 0 9 0;
#X connect 6 0 7 0;
#X connect 6 1 7 1;
#X connect 7 0 8 0;
#X connect 8 0 11 0;
#X connect 9 0 8 0;
#X connect 9 1 8 1;
#X connect 11 0 10 0;
#X connect 12 0 2 0;
#X connect 13 0 3 0;
#X connect 14 0 13 0;
#X connect 14 0 12 0;
#X connect 15 0 7 0;
#X connect 15 0 18 0;
#X connect 16 0 2 0;
#X connect 17 0 3 0;
#X connect 18 0 19 0;
#X coords 0 -1 1 1 109 36 1 54 94;
