#N canvas 47 128 767 772 10;
#X obj 49 341 *~;
#X obj 308 340 *~;
#X obj 307 164 route freq;
#X obj 308 56 *;
#X obj 308 33 nbx 5 18 0.01 999 1 0 \$0-cmr_2-out \$0-cmr_2 CM-ratio
0 -8 0 16 -262144 -1 -1 2.002 256;
#X msg 308 77 freq \$1;
#X obj 49 57 *;
#X obj 49 34 nbx 5 18 0.036125 32 1 0 \$0-cmr_1-out \$0-cmr_1 CM-ratio
0 -8 0 16 -262144 -1 -1 1.5 256;
#X msg 49 78 freq \$1;
#X obj 335 56 t b f;
#X obj 76 57 t b f;
#X obj 49 98 sinosc~;
#X obj 64 233 eadsr_mod~;
#X msg 159 411 pitch \$1;
#X obj 159 376 nbx 5 18 12 136 0 0 empty \$0-pitchit pitch 0 -8 0 14
-262144 -1 -1 48 256;
#X obj 32 432 trisaw~;
#N canvas 0 0 450 300 init 0;
#X obj 41 69 loadbang;
#X msg 169 131 48;
#X obj 41 133 outlet;
#X obj 169 155 outlet;
#X msg 41 106 all 130.813 48 0 0 40 1 0 30 200 1;
#X obj 95 232 s \$0-cmr_1;
#X obj 191 231 s \$0-cmr_2;
#X msg 83 209 1.5;
#X msg 191 206 2.002;
#X connect 0 0 4 0;
#X connect 0 0 1 0;
#X connect 0 0 7 0;
#X connect 0 0 8 0;
#X connect 1 0 3 0;
#X connect 4 0 2 0;
#X connect 7 0 5 0;
#X connect 8 0 6 0;
#X restore 105 356 pd init;
#N canvas 30 119 450 300 init 0;
#X obj 71 145 loadbang;
#X obj 72 213 outlet;
#X msg 27 179 all 500 200 28 800 0 1 0 0 1;
#X obj 190 29 r \$0-init;
#X connect 0 0 2 0;
#X connect 2 0 1 0;
#X connect 3 0 2 0;
#X restore 223 214 pd init;
#X msg 307 185 fcar \$1;
#X obj 153 713 *~;
#X obj 28 639 moog_fl~;
#X obj 334 418 adsr_mod~;
#X obj 500 175 sadsrr~;
#X obj 564 99 s \$0-pitchit;
#X obj 548 155 r \$0-trigit;
#X obj 668 67 s \$0-trigit;
#X obj 64 212 r \$0-trigit;
#X obj 432 527 r \$0-trigit;
#X obj 334 397 r \$0-trigit;
#X obj 432 548 adsr_mod~;
#X obj 135 50 nbx 5 14 0 99999 0 0 \$0-glide_1-out \$0-glide_1 glide
0 -8 0 10 -262144 -1 -1 0 256;
#X msg 104 78 glide \$1;
#X obj 395 50 nbx 5 14 0 99999 0 0 \$0-glide_2-out \$0-glide_2 glide
0 -8 0 10 -262144 -1 -1 0 256;
#X msg 364 78 glide \$1;
#N canvas 0 0 450 300 init 0;
#X obj 259 200 outlet;
#X obj 221 81 loadbang;
#X msg 259 152 bip 0 \, freq 4;
#X connect 1 0 2 0;
#X connect 2 0 0 0;
#X restore 203 530 pd init;
#N canvas 28 210 471 187 init 0;
#X msg 60 85 all 0 0.5 4 0.85 13 0.3 330 1 910 0 1520 1 20 4;
#X obj 82 119 outlet;
#X text 76 65 st lev1 tim1 l2 t2 l3 t3 l4 t4 l5 t5 sc ln sus;
#X obj 49 36 loadbang;
#X obj 190 29 r \$0-init;
#X connect 0 0 1 0;
#X connect 3 0 0 0;
#X connect 4 0 0 0;
#X restore 622 155 pd init;
#X obj 471 157 s \$0-sin2;
#X obj 213 158 s \$0-sin1;
#X obj 365 613 s \$0-sin3;
#X obj 148 619 *~;
#X obj 563 63 route pitch gate;
#X obj 199 626 nbx 5 14 0.04 4 1 0 \$0-qmod-out \$0-qmod qmod 0 -8
0 10 -262144 -1 -1 0.04 256;
#X obj 234 341 s \$0-eg1;
#X obj 689 390 s \$0-eg2;
#X obj 504 527 s \$0-eg3;
#X obj 602 657 s \$0-eg4;
#X obj 221 503 s \$0-ts1;
#X obj 168 680 s \$0-fl1;
#X obj 148 213 r \$0-eg1-in;
#X obj 441 398 r \$0-eg3-in;
#X obj 672 155 r \$0-eg2-in;
#X obj 561 527 r \$0-eg4-in;
#X obj 32 411 r \$0-ts1-in;
#X obj 272 530 r \$0-sin3-in;
#X obj 167 653 r \$0-fl1-in;
#X obj 162 78 r \$0-sin1-in;
#X obj 422 78 r \$0-sin2-in;
#N canvas 107 242 813 304 receives 0;
#X obj 14 160 s \$0-sin1-in;
#X obj 96 160 s \$0-sin2-in;
#X obj 259 159 s \$0-eg1-in;
#X obj 333 159 s \$0-eg2-in;
#X obj 556 155 s \$0-ts1-in;
#X obj 406 158 s \$0-eg3-in;
#X obj 177 160 s \$0-sin3-in;
#X obj 481 155 s \$0-eg4-in;
#X obj 631 156 s \$0-fl1-in;
#X obj 75 -44 r \$0-sin1;
#X obj 137 -44 r \$0-sin2;
#X obj 263 -42 r \$0-eg1;
#X obj 330 -41 r \$0-eg2;
#X obj 400 -43 r \$0-eg3;
#X obj 537 -42 r \$0-ts1;
#X obj 199 -44 r \$0-sin3;
#X obj 466 -42 r \$0-eg4;
#X obj 607 -43 r \$0-fl1;
#X obj 111 64 outlet;
#X obj 87 96 inlet;
#X obj 75 11 prepend 1;
#X obj 137 0 prepend 2;
#X obj 199 10 prepend 3;
#X obj 137 -22 route all;
#X obj 75 -16 route all;
#X obj 199 -17 route all;
#X obj 263 3 prepend 4;
#X obj 263 -20 route all;
#X obj 330 -19 route all;
#X obj 330 4 prepend 5;
#X obj 400 -19 route all;
#X obj 400 4 prepend 6;
#X obj 466 -20 route all;
#X obj 466 3 prepend 7;
#X obj 537 4 prepend 8;
#X obj 537 -19 route all;
#X obj 607 -19 route all;
#X obj 607 4 prepend 9;
#X obj 674 4 prepend 10;
#N canvas 0 0 450 300 packsingles 0;
#X obj 83 106 r \$0-cmr_1-out;
#X obj 100 126 r \$0-cmr_2-out;
#X obj 193 106 r \$0-glide_1-out;
#X obj 210 126 r \$0-glide_2-out;
#X obj 100 157 t b f;
#X obj 193 161 t b f;
#X obj 238 163 t b f;
#X obj 296 183 t b f;
#X obj 280 151 r \$0-qmod-out;
#X obj 76 236 pack f f f f f;
#X obj 76 267 outlet;
#X connect 0 0 9 0;
#X connect 1 0 4 0;
#X connect 2 0 5 0;
#X connect 3 0 6 0;
#X connect 4 0 9 0;
#X connect 4 1 9 1;
#X connect 5 0 9 0;
#X connect 5 1 9 2;
#X connect 6 0 9 0;
#X connect 6 1 9 3;
#X connect 7 0 9 0;
#X connect 7 1 9 4;
#X connect 8 0 7 0;
#X connect 9 0 10 0;
#X restore 674 -17 pd packsingles;
#N canvas 0 0 450 300 unpacksingles 0;
#X obj 95 76 unpack f f f f f;
#X obj 100 238 s \$0-cmr_1;
#X obj 122 192 s \$0-cmr_2;
#X obj 143 160 s \$0-glide_1;
#X obj 162 122 s \$0-glide_2;
#X obj 186 96 s \$0-qmod;
#X obj 91 26 inlet;
#X obj 91 54 route all;
#X connect 0 0 1 0;
#X connect 0 1 2 0;
#X connect 0 2 3 0;
#X connect 0 3 4 0;
#X connect 0 4 5 0;
#X connect 6 0 7 0;
#X connect 7 0 0 0;
#X restore 704 157 pd unpacksingles;
#X obj 88 117 route 1 2 3 4 5 6 7 8 9 10;
#X connect 9 0 24 0;
#X connect 10 0 23 0;
#X connect 11 0 27 0;
#X connect 12 0 28 0;
#X connect 13 0 30 0;
#X connect 14 0 35 0;
#X connect 15 0 25 0;
#X connect 16 0 32 0;
#X connect 17 0 36 0;
#X connect 19 0 41 0;
#X connect 20 0 18 0;
#X connect 21 0 18 0;
#X connect 22 0 18 0;
#X connect 23 0 21 0;
#X connect 24 0 20 0;
#X connect 25 0 22 0;
#X connect 26 0 18 0;
#X connect 27 0 26 0;
#X connect 28 0 29 0;
#X connect 29 0 18 0;
#X connect 30 0 31 0;
#X connect 31 0 18 0;
#X connect 32 0 33 0;
#X connect 33 0 18 0;
#X connect 34 0 18 0;
#X connect 35 0 34 0;
#X connect 36 0 37 0;
#X connect 37 0 18 0;
#X connect 38 0 18 0;
#X connect 39 0 38 0;
#X connect 41 0 0 0;
#X connect 41 1 1 0;
#X connect 41 2 6 0;
#X connect 41 3 2 0;
#X connect 41 4 3 0;
#X connect 41 5 5 0;
#X connect 41 6 7 0;
#X connect 41 7 4 0;
#X connect 41 8 8 0;
#X connect 41 9 40 0;
#X restore 348 703 pd receives;
#N canvas 0 0 450 300 init 0;
#X obj 107 210 outlet;
#X msg 108 176 all 20 700 30 500 0 5000 0 0 2;
#X obj 117 139 loadbang;
#X obj 190 29 r \$0-init;
#X connect 1 0 0 0;
#X connect 2 0 1 0;
#X connect 3 0 1 0;
#X restore 515 397 pd init;
#N canvas 0 0 450 300 init 0;
#X obj 107 210 outlet;
#X obj 111 135 loadbang;
#X obj 190 29 r \$0-init;
#X msg 108 177 all 8 400 40 900 0 1 0 0 0;
#X connect 1 0 3 0;
#X connect 2 0 3 0;
#X connect 3 0 0 0;
#X restore 637 526 pd init;
#X obj 634 436 bng 15 250 50 0 empty empty empty 17 7 0 10 -262144
-1 -1;
#X obj 634 456 s \$0-init;
#X obj 428 689 modpatch 10;
#X obj 155 737 outlet~;
#X obj 560 32 inlet;
#N canvas 42 94 550 535 midi 0;
#X obj 86 134 swap;
#X floatatom 72 167 5 0 0 0 - - -;
#X floatatom 116 167 5 0 0 0 - - -;
#X obj 81 203 pack;
#X obj 258 128 notein;
#X floatatom 253 162 5 0 0 0 - - -;
#X floatatom 296 160 5 0 0 0 - - -;
#X obj 82 86 ctlin;
#X floatatom 83 276 5 0 0 0 - - -;
#X floatatom 84 335 5 0 0 0 - - -;
#X obj 83 256 + 1;
#X obj 83 295 / 4;
#X obj 84 315 pow 1.7;
#X obj 142 312 t b f;
#X obj 136 363 +;
#X obj 136 384 / 20;
#X floatatom 136 405 5 0 0 0 - - -;
#X obj 144 285 / 6;
#X floatatom 193 286 5 0 0 0 - - -;
#X floatatom 194 345 5 0 0 0 - - -;
#X obj 193 266 + 1;
#X obj 193 305 / 4;
#X obj 194 325 pow 1.7;
#X obj 193 246 route 11 12;
#X obj 252 322 t b f;
#X obj 246 373 +;
#X obj 246 394 / 20;
#X floatatom 246 415 5 0 0 0 - - -;
#X obj 254 295 / 6;
#X obj 246 435 s \$0-cmr_2;
#X obj 83 236 route 19 20;
#X obj 136 425 s \$0-cmr_1;
#X obj 291 270 / 32;
#X obj 292 298 s \$0-qmod;
#X obj 268 499 s \$0-eg3-in;
#X obj 376 358 log;
#X msg 378 333 12;
#X symbolatom 336 426 10 0 0 0 - - -;
#X floatatom 374 391 0 0 0 0 - - -;
#X floatatom 370 293 5 0 0 0 - - -;
#X obj 359 268 mtof;
#X msg 257 473 depth \$1;
#X obj 420 352 / 1.27;
#X obj 424 403 s \$0-eg1-in;
#X msg 422 375 depth \$1;
#X obj 294 226 route 27 28 4 3;
#X floatatom 457 223 5 0 0 0 - - -;
#X floatatom 458 282 5 0 0 0 - - -;
#X obj 457 203 + 1;
#X obj 458 262 pow 1.7;
#X obj 475 306 / 20;
#X floatatom 475 327 5 0 0 0 - - -;
#X obj 457 242 / 2;
#X msg 469 442 freq \$1;
#X obj 466 492 s \$0-sin3-in;
#X connect 0 0 1 0;
#X connect 0 1 2 0;
#X connect 1 0 3 0;
#X connect 2 0 3 1;
#X connect 3 0 23 0;
#X connect 3 0 30 0;
#X connect 4 0 5 0;
#X connect 4 1 6 0;
#X connect 7 0 0 0;
#X connect 7 1 0 1;
#X connect 8 0 11 0;
#X connect 9 0 14 0;
#X connect 10 0 8 0;
#X connect 11 0 12 0;
#X connect 12 0 9 0;
#X connect 13 0 14 0;
#X connect 13 1 14 1;
#X connect 14 0 15 0;
#X connect 15 0 16 0;
#X connect 16 0 31 0;
#X connect 17 0 13 0;
#X connect 18 0 21 0;
#X connect 19 0 25 0;
#X connect 20 0 18 0;
#X connect 21 0 22 0;
#X connect 22 0 19 0;
#X connect 23 0 20 0;
#X connect 23 1 28 0;
#X connect 23 2 45 0;
#X connect 24 0 25 0;
#X connect 24 1 25 1;
#X connect 25 0 26 0;
#X connect 26 0 27 0;
#X connect 27 0 29 0;
#X connect 28 0 24 0;
#X connect 30 0 10 0;
#X connect 30 1 17 0;
#X connect 32 0 33 0;
#X connect 35 0 38 0;
#X connect 36 0 35 0;
#X connect 39 0 41 0;
#X connect 40 0 39 0;
#X connect 41 0 34 0;
#X connect 42 0 44 0;
#X connect 44 0 43 0;
#X connect 45 0 32 0;
#X connect 45 1 40 0;
#X connect 45 2 42 0;
#X connect 45 3 48 0;
#X connect 46 0 52 0;
#X connect 47 0 50 0;
#X connect 48 0 46 0;
#X connect 49 0 47 0;
#X connect 50 0 51 0;
#X connect 51 0 53 0;
#X connect 52 0 49 0;
#X connect 53 0 54 0;
#X restore 632 19 pd midi;
#X obj 704 631 inlet;
#X msg 690 666 patch \$1;
#X obj 272 214 route lpfeg moog trisaw cm1 cm2 modeg;
#X obj 353 268 s \$0-cmr_1;
#X obj 385 244 s \$0-cmr_2;
#X obj 308 97 sinosc~;
#X obj 203 550 sinosc~;
#X connect 0 0 15 1;
#X connect 1 0 15 2;
#X connect 2 0 9 0;
#X connect 2 0 10 0;
#X connect 2 0 18 0;
#X connect 3 0 5 0;
#X connect 4 0 3 0;
#X connect 5 0 71 0;
#X connect 6 0 8 0;
#X connect 7 0 6 0;
#X connect 8 0 11 0;
#X connect 9 0 3 0;
#X connect 9 1 3 1;
#X connect 10 0 6 0;
#X connect 10 1 6 1;
#X connect 11 0 0 0;
#X connect 11 2 37 0;
#X connect 12 0 0 1;
#X connect 12 1 42 0;
#X connect 13 0 15 0;
#X connect 14 0 13 0;
#X connect 15 0 20 0;
#X connect 15 2 2 0;
#X connect 15 2 46 0;
#X connect 16 0 15 0;
#X connect 16 1 14 0;
#X connect 17 0 12 1;
#X connect 18 0 12 1;
#X connect 19 0 63 0;
#X connect 20 0 19 0;
#X connect 20 1 47 0;
#X connect 21 0 20 1;
#X connect 21 1 44 0;
#X connect 22 0 1 1;
#X connect 22 1 43 0;
#X connect 24 0 22 0;
#X connect 26 0 12 0;
#X connect 27 0 29 0;
#X connect 28 0 21 0;
#X connect 29 0 19 1;
#X connect 29 1 45 0;
#X connect 30 0 31 0;
#X connect 31 0 11 0;
#X connect 32 0 33 0;
#X connect 33 0 71 0;
#X connect 34 0 72 0;
#X connect 35 0 22 1;
#X connect 39 0 20 2;
#X connect 40 0 23 0;
#X connect 40 1 25 0;
#X connect 40 2 68 0;
#X connect 41 0 39 1;
#X connect 48 0 12 1;
#X connect 49 0 21 1;
#X connect 50 0 22 1;
#X connect 51 0 29 1;
#X connect 52 0 15 0;
#X connect 53 0 72 0;
#X connect 54 0 20 3;
#X connect 55 0 11 0;
#X connect 56 0 71 0;
#X connect 57 0 62 0;
#X connect 58 0 21 1;
#X connect 59 0 29 1;
#X connect 60 0 61 0;
#X connect 62 0 57 0;
#X connect 64 0 40 0;
#X connect 66 0 67 0;
#X connect 67 0 62 0;
#X connect 68 0 21 1;
#X connect 68 1 20 3;
#X connect 68 2 15 0;
#X connect 68 3 69 0;
#X connect 68 4 70 0;
#X connect 68 5 22 1;
#X connect 71 0 1 0;
#X connect 71 2 36 0;
#X connect 72 0 39 0;
#X connect 72 2 38 0;
