#N canvas 0 0 518 342 10;
#X obj 97 120 samplerate~;
#X obj 183 108 \$1;
#X obj 103 68 loadbang;
#X obj 103 91 t b b;
#X obj 99 162 / 2048;
#X obj 182 135 moses 0;
#X obj 220 47 inlet;
#X obj 222 70 t b f;
#X floatatom 337 186 5 0 0 0 - - -;
#X obj 45 139 inlet;
#X obj 74 229 pipe;
#X obj 72 302 outlet;
#X text 258 110 This is used for synchronising;
#X text 248 123 objects that produce sound instantaneously;
#X obj 29 185 route bang float symbol list;
#X obj 23 231 delay;
#X obj 113 224 t b a;
#X obj 118 274 symbol;
#X obj 177 274 list;
#X obj 115 250 delay;
#X obj 171 249 delay;
#X obj 171 224 t b a;
#X text 250 137 (e.g. synthesizers) with those that have;
#X text 245 152 1 DSP block delay inherent to their sound;
#X text 253 165 production (i.e. FFT-based generators);
#X text 235 232 Creation args: blocksize;
#X text 214 30 blocksize;
#X connect 0 0 4 0;
#X connect 1 0 5 0;
#X connect 2 0 3 0;
#X connect 3 0 0 0;
#X connect 3 1 1 0;
#X connect 4 0 8 0;
#X connect 4 0 10 1;
#X connect 4 0 15 1;
#X connect 5 1 4 1;
#X connect 6 0 7 0;
#X connect 7 0 0 0;
#X connect 7 1 1 0;
#X connect 9 0 14 0;
#X connect 10 0 11 0;
#X connect 14 0 15 0;
#X connect 14 1 10 0;
#X connect 14 2 16 0;
#X connect 14 3 21 0;
#X connect 15 0 11 0;
#X connect 16 0 19 0;
#X connect 16 1 17 1;
#X connect 17 0 11 0;
#X connect 18 0 11 0;
#X connect 19 0 17 0;
#X connect 20 0 18 0;
#X connect 21 0 20 0;
#X connect 21 1 18 1;
