#N canvas 0 0 450 300 10;
#X obj 359 73 route dur;
#X obj 247 138 samplerate~;
#X obj 212 140 \$1;
#X obj 192 103 t b b;
#X obj 217 173 /;
#X obj 286 47 inlet;
#X obj 387 41 inlet;
#X obj 159 145 -;
#X obj 194 72 loadbang;
#X obj 97 181 pipe;
#X obj 97 247 outlet;
#X obj 97 77 inlet;
#X connect 0 0 7 0;
#X connect 1 0 4 1;
#X connect 2 0 4 0;
#X connect 3 0 2 0;
#X connect 3 1 1 0;
#X connect 4 0 7 1;
#X connect 5 0 4 0;
#X connect 6 0 0 0;
#X connect 7 0 9 1;
#X connect 8 0 3 0;
#X connect 9 0 10 0;
#X connect 11 0 9 0;
