#N canvas 332 82 1027 577 10;
#X declare -lib creb;
#X obj 522 17 declare -lib creb;
#X obj 94 328 blosc~ syncsaw;
#X obj 53 131 mtof;
#X obj 201 117 eadsr~;
#X msg 177 63 start;
#X msg 224 63 stop;
#X obj 201 187 *~ 1;
#X obj 225 142 sel 0 1;
#X msg 225 164 1;
#X msg 255 164 -1;
#X obj 196 244 *~ 1;
#X obj 424 720 eadsr~;
#X obj 141 307 +~;
#X obj 94 307 +~;
#X obj 221 223 == 0;
#X obj 195 270 *~;
#X obj 56 80 t b f;
#X obj 55 53 sel -1500;
#X obj 24 106 s \$0-keyOff;
#X obj 268 231 f;
#X obj 242 317 *~ 0;
#X obj 241 294 +~;
#X obj 333 135 r \$0-sync_eg_inv-num;
#X obj 301 176 f;
#X obj 88 130 s \$0-keyOn;
#X obj 299 109 r \$0-keyOn;
#X obj 266 208 r \$0-keyOn;
#X obj 242 265 *~;
#X obj 345 211 r \$0-sync_eg_depth-freq;
#X obj 177 20 r \$0-keyOn;
#X obj 224 40 r \$0-keyOff;
#X obj 268 18 r \$0-sync_eg_attack-num;
#X obj 309 39 r \$0-sync_eg_decay-num;
#X obj 344 60 r \$0-sync_eg_sustain-num;
#X obj 386 81 r \$0-sync_eg_release-num;
#X obj 186 737 cyclone/svf~;
#X obj 594 102 cnv 15 186 147 empty empty filter 2 6 0 9 -232703 -45076
0;
#X obj 220 684 +~;
#X obj 320 629 pack f 5;
#X obj 320 609 r \$0-fc;
#X obj 320 649 line~;
#X obj 255 697 pack f 5;
#X obj 255 717 line~;
#X obj 255 677 r \$0-res;
#X obj 197 411 r \$0-fc_a-num;
#X obj 207 431 r \$0-fc_d-num;
#X obj 217 451 r \$0-fc_s-num;
#X obj 227 471 r \$0-fc_r-num;
#X obj 55 11 inlet;
#X obj 285 745 r \$0-type;
#X obj 201 771 == 0;
#X obj 186 792 *~;
#X obj 226 792 *~;
#X obj 266 792 *~;
#X obj 306 792 *~;
#X obj 241 771 == 1;
#X obj 281 771 == 2;
#X obj 321 771 == 3;
#X obj 275 840 *~;
#X obj 433 633 r \$0-amp_a-num;
#X obj 443 653 r \$0-amp_d-num;
#X obj 453 673 r \$0-amp_s-num;
#X obj 463 693 r \$0-amp_r-num;
#X obj 326 697 r \$0-lines;
#X obj 600 173 nbx 5 10 1.452 99999 1 0 \$0-fc_a-num \$0-fc_a empty
0 -8 0 8 -257147 -94418 -94418 10 256;
#X obj 625 183 nbx 5 10 1.452 14520 1 0 \$0-fc_d-num \$0-fc_d empty
0 -8 0 8 -257147 -94418 -94418 120 256;
#X obj 650 173 nbx 5 10 0 100 0 0 \$0-fc_s_pc-num \$0-fc_s_pc empty
0 -8 0 8 -257147 -94418 -94418 50 256;
#X obj 671 183 nbx 5 10 1.453 99999 1 0 \$0-fc_r-num \$0-fc_r empty
0 -8 0 8 -257147 -94418 -94418 1000 256;
#X obj 724 195 nbx 5 12 20 20000 1 0 \$0-freq \$0-freq-set f -7 6 0
10 -253051 -94418 -94418 20 256;
#X obj 671 195 nbx 4 12 16 135 0 0 \$0-fc_pitch \$0-fc_pitch-set p
-7 6 0 10 -257147 -94418 -94418 16 256;
#X obj 614 195 nbx 4 12 0 100 0 0 \$0-res_pc \$0-res_pc-set empty -36
6 0 10 -90649 -204800 -203904 20 256;
#X obj 614 195 nbx 4 12 0 1 0 0 \$0-res \$0-res-set res -18 6 0 10
-257147 -94418 -94418 0.2 256;
#X obj 603 209 hsl 169 12 0 110 0 0 \$0-fc_eg_depth \$0-fc_eg_depth-set
depth 87 6 0 10 -257147 -94418 -94418 0 1;
#X obj 713 221 nbx 6 12 -20000 20000 0 0 \$0-fc_eg_depth-num \$0-fc_eg_depth-sqr
empty -7 6 0 10 -253051 -94418 -94418 0 256;
#X obj 596 233 hradio 12 1 0 4 \$0-type \$0-type-set lpf 0 -6 0 10
-257147 -94418 -94418 0;
#X obj 647 233 nbx 5 12 0 99999 0 0 \$0-fc_porta \$0-fc_porta-set porta
0 -6 0 10 -257147 -94418 -94418 0 256;
#X obj 716 516 outlet;
#X obj 594 435 route patch file;
#X obj 594 496 s \$0-patch-set;
#X msg 728 470 patch \$1;
#N canvas 176 82 1068 492 automation 0;
#X obj 51 28 inlet;
#X obj 803 428 outlet;
#X obj 752 428 outlet;
#X obj 84 427 route all;
#X obj 854 428 outlet;
#X obj 214 311 t f f;
#X obj 241 331 s \$0-fc_a-set;
#X obj 214 350 s \$0-fc_a;
#X obj 296 153 s \$0-type-set;
#X obj 234 252 t f f;
#X obj 234 291 s \$0-fc_d;
#X obj 261 272 s \$0-fc_d-set;
#X obj 275 174 t f f;
#X obj 275 213 s \$0-fc_r;
#X obj 302 194 s \$0-fc_r-set;
#X obj 114 311 t f f;
#X obj 134 252 t f f;
#X obj 114 350 s \$0-amp_a;
#X obj 141 331 s \$0-amp_a-set;
#X obj 134 291 s \$0-amp_d;
#X obj 161 272 s \$0-amp_d-set;
#X obj 175 213 s \$0-amp_r;
#X obj 202 194 s \$0-amp_r-set;
#X obj 175 174 t f f;
#X obj 6 234 s \$0-freq-set;
#X obj 46 194 s \$0-fc_eg_depth-set;
#X obj 112 88 * 100;
#X obj 112 107 s \$0-res_pc-set;
#X obj 84 447 unpack f f f f f f f f f f f f f f;
#X obj 919 180 route lines;
#X obj 919 208 s \$0-lines;
#X obj 69 149 sqrt;
#X obj 26 214 s \$0-fc_pitch-set;
#X obj 255 232 s \$0-fc_s_pc-set;
#X obj 155 232 s \$0-amp_s_pc-set;
#X obj 316 133 s \$0-fc_porta-set;
#X obj 51 50 route ffreq fpitch fcdepth res aa ad as ar fa fd fs fr
type porta randpat on fcinv;
#X obj 381 231 s \$0-fc_eg_inv-set;
#X obj 611 112 s \$0-sync_eg_a-set;
#X obj 631 132 s \$0-sync_eg_d-set;
#X obj 609 90 log;
#X obj 646 90 log;
#X obj 667 153 s \$0-sync_eg_s_pc-set;
#X obj 699 174 log;
#X obj 699 196 s \$0-sync_eg_r-set;
#X obj 515 165 s \$0-sync_eg_inv-set;
#X obj 535 139 s \$0-syncp;
#X obj 493 115 s \$0-syncf;
#X obj 479 51 route sfreq spitch sinv sa sd ss sr sdepth;
#X obj 765 106 s \$0-sync_eg_depth-set;
#X obj 747 77 sqrt;
#X connect 0 0 36 0;
#X connect 3 0 28 0;
#X connect 5 0 7 0;
#X connect 5 1 6 0;
#X connect 9 0 10 0;
#X connect 9 1 11 0;
#X connect 12 0 13 0;
#X connect 12 1 14 0;
#X connect 15 0 17 0;
#X connect 15 1 18 0;
#X connect 16 0 19 0;
#X connect 16 1 20 0;
#X connect 23 0 21 0;
#X connect 23 1 22 0;
#X connect 26 0 27 0;
#X connect 28 0 24 0;
#X connect 28 1 32 0;
#X connect 28 3 26 0;
#X connect 28 4 15 0;
#X connect 28 5 16 0;
#X connect 28 6 34 0;
#X connect 28 7 23 0;
#X connect 28 8 5 0;
#X connect 28 9 9 0;
#X connect 28 10 33 0;
#X connect 28 11 12 0;
#X connect 28 12 8 0;
#X connect 28 13 35 0;
#X connect 29 0 30 0;
#X connect 29 1 2 0;
#X connect 31 0 25 0;
#X connect 36 0 24 0;
#X connect 36 1 32 0;
#X connect 36 2 31 0;
#X connect 36 3 26 0;
#X connect 36 4 15 0;
#X connect 36 5 16 0;
#X connect 36 6 34 0;
#X connect 36 7 23 0;
#X connect 36 8 5 0;
#X connect 36 9 9 0;
#X connect 36 10 33 0;
#X connect 36 11 12 0;
#X connect 36 12 8 0;
#X connect 36 13 35 0;
#X connect 36 14 1 0;
#X connect 36 15 4 0;
#X connect 36 16 37 0;
#X connect 36 17 48 0;
#X connect 40 0 38 0;
#X connect 41 0 39 0;
#X connect 43 0 44 0;
#X connect 48 0 47 0;
#X connect 48 1 46 0;
#X connect 48 2 45 0;
#X connect 48 3 40 0;
#X connect 48 4 41 0;
#X connect 48 5 42 0;
#X connect 48 6 43 0;
#X connect 48 7 50 0;
#X connect 48 8 29 0;
#X connect 50 0 49 0;
#X restore 594 410 pd automation;
#X obj 729 418 r \$0-patch-num;
#X obj 729 447 t b f b;
#X obj 603 113 hsl 169 12 0.373 11.512 0 0 \$0-fc_a_raw \$0-fc_a_raw-set
fc_attack 28 6 0 10 -257147 -94418 -94418 2910 1;
#X obj 603 128 hsl 169 12 0.373 11.512 0 0 \$0-fc_d_raw \$0-fc_d_raw-set
fc_decay 28 6 0 10 -257147 -94418 -94418 6658 1;
#X obj 603 143 hsl 169 12 0 100 0 0 \$0-fc_s_pc \$0-fc_s_pc-set fc_sustain
28 6 0 10 -257147 -94418 -94418 8400 1;
#X obj 603 158 hsl 169 12 0.373 11.512 0 0 \$0-fc_r_raw \$0-fc_r_raw-set
fc_release 28 6 0 10 -257147 -94418 -94418 9856 1;
#X obj 188 494 eadsr~;
#X msg 142 390 start;
#X msg 188 390 stop;
#X obj 142 349 r \$0-keyOn;
#X obj 188 369 r \$0-keyOff;
#X obj 373 609 r \$0-fc_porta;
#N canvas 1 82 545 501 fc_eg_process 0;
#X obj 46 54 r \$0-fc_a_raw;
#X obj 46 76 exp;
#X obj 46 98 s \$0-fc_a;
#X obj 46 146 exp;
#X obj 46 124 r \$0-fc_d_raw;
#X obj 46 168 s \$0-fc_d;
#X obj 45 216 * 0.01;
#X obj 45 238 s \$0-fc_s-num;
#X obj 45 194 r \$0-fc_s_pc-num;
#X obj 186 67 r \$0-res_pc;
#X obj 186 93 * 0.01;
#X obj 186 117 s \$0-res-set;
#X obj 292 132 r \$0-fc_eg_depth;
#X obj 292 192 s \$0-fc_eg_depth-sqr;
#X obj 292 172 pow 2;
#X obj 292 152 abs;
#X obj 292 72 mtof;
#X obj 292 112 s \$0-freq-set;
#X obj 398 52 r \$0-freq;
#X msg 292 92 set \$1;
#X obj 398 72 ftom;
#X msg 398 92 set \$1;
#X obj 447 90 s \$0-fc;
#X obj 46 286 exp;
#X obj 46 264 r \$0-fc_r_raw;
#X obj 46 308 s \$0-fc_r;
#N canvas 1 82 515 344 init 0;
#X obj 317 97 s \$0-porta-set;
#X obj 297 116 s \$0-type-set;
#X obj 70 119 s \$0-pitch-set;
#X obj 90 99 s \$0-fc_eg_depth-set;
#X obj 113 80 s \$0-res_pc-set;
#X msg 74 63 0;
#X msg 36 89 36;
#X msg 111 49 20;
#X msg 37 229 3;
#X msg 90 170 120;
#X msg 251 94 1000;
#X msg 92 232 10;
#X msg 273 74 0;
#X msg 314 66 50;
#X obj 218 27 loadbang;
#X obj 249 131 log;
#X obj 90 192 log;
#X obj 37 251 log;
#X obj 92 254 log;
#X obj 195 157 s \$0-amp_r_raw-set;
#X obj 326 195 s \$0-fc_s_pc-set;
#X obj 156 195 s \$0-amp_s_pc-set;
#X msg 148 144 50;
#X obj 162 235 s \$0-amp_d_raw-set;
#X obj 332 235 s \$0-fc_d_raw-set;
#X obj 142 294 s \$0-amp_a_raw-set;
#X obj 312 294 s \$0-fc_a_raw-set;
#X obj 363 157 s \$0-fc_r_raw-set;
#X connect 5 0 3 0;
#X connect 6 0 2 0;
#X connect 7 0 4 0;
#X connect 8 0 17 0;
#X connect 9 0 16 0;
#X connect 10 0 15 0;
#X connect 11 0 18 0;
#X connect 12 0 1 0;
#X connect 13 0 0 0;
#X connect 14 0 13 0;
#X connect 14 0 12 0;
#X connect 14 0 7 0;
#X connect 14 0 5 0;
#X connect 14 0 6 0;
#X connect 14 0 10 0;
#X connect 14 0 22 0;
#X connect 14 0 9 0;
#X connect 14 0 8 0;
#X connect 14 0 11 0;
#X connect 15 0 19 0;
#X connect 15 0 27 0;
#X connect 16 0 23 0;
#X connect 16 0 24 0;
#X connect 17 0 25 0;
#X connect 18 0 26 0;
#X connect 22 0 21 0;
#X connect 22 0 20 0;
#X restore 231 284 pd init;
#X obj 175 348 r \$0-type;
#X obj 177 430 s \$0-type-set;
#X obj 174 374 sel 0 1 2 3;
#X msg 125 401 label lpf;
#X msg 192 401 label hpf;
#X msg 255 401 label bpf;
#X msg 322 401 label brf;
#X obj 292 52 r \$0-fc_pitch;
#X obj 398 112 s \$0-fc_pitch-set;
#X connect 0 0 1 0;
#X connect 1 0 2 0;
#X connect 3 0 5 0;
#X connect 4 0 3 0;
#X connect 6 0 7 0;
#X connect 8 0 6 0;
#X connect 9 0 10 0;
#X connect 10 0 11 0;
#X connect 12 0 15 0;
#X connect 14 0 13 0;
#X connect 15 0 14 0;
#X connect 16 0 19 0;
#X connect 16 0 22 0;
#X connect 18 0 20 0;
#X connect 18 0 22 0;
#X connect 19 0 17 0;
#X connect 20 0 21 0;
#X connect 21 0 35 0;
#X connect 23 0 25 0;
#X connect 24 0 23 0;
#X connect 27 0 29 0;
#X connect 29 0 30 0;
#X connect 29 1 31 0;
#X connect 29 2 32 0;
#X connect 29 3 33 0;
#X connect 30 0 28 0;
#X connect 31 0 28 0;
#X connect 32 0 28 0;
#X connect 33 0 28 0;
#X connect 34 0 16 0;
#X restore 722 19 pd fc_eg_process;
#X obj 76 169 r \$0-porta;
#X obj 54 202 pack f 10;
#X obj 54 224 line~;
#X obj 55 33 route float;
#X obj 216 547 *~ 1;
#X obj 240 503 sel 0 1;
#X msg 240 524 1;
#X msg 270 524 -1;
#X obj 217 591 *~ 1;
#X obj 242 570 == 0;
#X obj 216 617 *~;
#X obj 289 578 f;
#X obj 260 644 *~ 0;
#X obj 260 624 +~;
#X obj 322 523 f;
#X obj 322 483 r \$0-keyOn;
#X obj 287 555 r \$0-keyOn;
#X obj 260 604 *~;
#X obj 340 503 r \$0-fc_eg_inv-num;
#X obj 366 558 r \$0-fc_eg_depth-num;
#X obj 720 176 tgl 14 0 \$0-fc_eg_inv \$0-fc_eg_inv-set invert 17 7
0 10 -257147 -94418 -94418 0 1;
#X obj 781 88 cnv 15 186 147 empty empty sync 2 6 0 9 -212543 -724
0;
#X obj 787 159 nbx 5 10 1.452 99999 1 0 \$0-sync_a-num \$0-sync_a empty
0 -8 0 8 -204731 -13778 -13778 2 256;
#X obj 812 169 nbx 5 10 1.452 14520 1 0 \$0-sync_d-num \$0-sync_d empty
0 -8 0 8 -204731 -13778 -13778 120 256;
#X obj 837 159 nbx 5 10 0 100 0 0 \$0-sync_s_pc-num \$0-sync_s_pc empty
0 -8 0 8 -204731 -13778 -13778 0 256;
#X obj 858 169 nbx 5 10 1.453 99999 1 0 \$0-sync_r-num \$0-sync_r empty
0 -8 0 8 -204731 -13778 -13778 1000 256;
#X obj 844 197 nbx 5 12 0.1 20000 1 0 \$0-syncf \$0-syncf-set f -7
6 0 10 -204667 -13778 -13778 65.4064 256;
#X obj 791 197 nbx 4 12 -77 135 0 0 \$0-syncp \$0-syncp-set p -7 6
0 10 -204731 -13778 -13778 36 256;
#X obj 790 182 hsl 169 12 0 110 0 0 \$0-sync_eg_depth \$0-sync_eg_depth-set
depth 87 6 0 10 -204731 -13778 -13778 0 1;
#X obj 900 194 nbx 6 12 -20000 20000 0 0 \$0-sync_eg_depth-num \$0-sync_eg_depth-sqr
empty -7 6 0 10 -204731 -13778 -13778 0 256;
#X obj 790 99 hsl 169 12 0.373 11.512 0 0 \$0-sync_eg_a_raw \$0-sync_eg_a_raw-set
sync_attack 28 6 0 10 -204731 -13778 -13778 483 1;
#X obj 790 129 hsl 169 12 0 100 0 0 \$0-sync_s_pc \$0-sync_s_pc-set
sync_sustain 28 6 0 10 -204731 -13778 -13778 0 1;
#X obj 907 162 tgl 14 0 \$0-sync_eg_inv \$0-sync_eg_inv-set invert
17 7 0 10 -204731 -13778 -13778 0 1;
#X obj 790 114 hsl 169 12 0.373 11.512 0 0 \$0-sync_eg_d_raw \$0-sync_eg_d_raw-set
sync_decay 28 6 0 10 -204731 -13778 -13778 6658 1;
#X obj 790 144 hsl 169 12 0.373 11.512 0 0 \$0-sync_eg_r_raw \$0-sync_eg_r_raw-set
sync_release 28 6 0 10 -204731 -13778 -13778 9856 1;
#N canvas 1 82 545 501 sync_eg_process 0;
#X obj 46 76 exp;
#X obj 46 146 exp;
#X obj 45 216 * 0.01;
#X obj 292 172 pow 2;
#X obj 292 152 abs;
#X obj 292 72 mtof;
#X msg 292 92 set \$1;
#X obj 398 72 ftom;
#X msg 398 92 set \$1;
#X obj 46 286 exp;
#N canvas 1 82 515 344 init 0;
#X msg 74 63 0;
#X msg 36 89 36;
#X msg 90 170 120;
#X msg 251 94 1000;
#X obj 218 27 loadbang;
#X obj 249 131 log;
#X obj 90 192 log;
#X obj 92 254 log;
#X msg 148 144 50;
#X obj 90 99 s \$0-sync_eg_depth-set;
#X obj 70 119 s \$0-syncp-set;
#X obj 243 157 s \$0-sync_eg_r_raw-set;
#X obj 206 195 s \$0-sync_eg_s_pc-set;
#X obj 212 235 s \$0-sync_eg_d_raw-set;
#X obj 192 294 s \$0-sync_eg_a_raw-set;
#X msg 92 232 2;
#X connect 0 0 9 0;
#X connect 1 0 10 0;
#X connect 2 0 6 0;
#X connect 3 0 5 0;
#X connect 4 0 0 0;
#X connect 4 0 1 0;
#X connect 4 0 3 0;
#X connect 4 0 8 0;
#X connect 4 0 2 0;
#X connect 4 0 15 0;
#X connect 5 0 11 0;
#X connect 6 0 13 0;
#X connect 7 0 14 0;
#X connect 8 0 12 0;
#X connect 15 0 7 0;
#X restore 231 284 pd init;
#X obj 46 98 s \$0-sync_a;
#X obj 46 167 s \$0-sync_d;
#X obj 45 238 s \$0-sync_s-num;
#X obj 46 308 s \$0-sync_r;
#X obj 292 112 s \$0-syncf-set;
#X obj 398 112 s \$0-syncp-set;
#X obj 292 132 r \$0-sync_eg_depth;
#X obj 292 192 s \$0-sync_eg_depth-sqr;
#X obj 292 52 r \$0-syncp;
#X obj 398 52 r \$0-syncf;
#X obj 447 91 s \$0-fsync;
#X obj 46 54 r \$0-sync_eg_a_raw;
#X obj 46 124 r \$0-sync_eg_d_raw;
#X obj 45 194 r \$0-sync_eg_s_pc-num;
#X obj 46 264 r \$0-sync_eg_r_raw;
#X connect 0 0 11 0;
#X connect 1 0 12 0;
#X connect 2 0 13 0;
#X connect 3 0 18 0;
#X connect 4 0 3 0;
#X connect 5 0 6 0;
#X connect 5 0 21 0;
#X connect 6 0 15 0;
#X connect 7 0 8 0;
#X connect 8 0 16 0;
#X connect 9 0 14 0;
#X connect 17 0 4 0;
#X connect 19 0 5 0;
#X connect 20 0 7 0;
#X connect 20 0 21 0;
#X connect 22 0 0 0;
#X connect 23 0 1 0;
#X connect 24 0 2 0;
#X connect 25 0 9 0;
#X restore 722 39 pd sync_eg_process;
#X obj 781 214 cnv 10 186 85 empty empty amp 2 6 0 9 -212223 -20 0
;
#X obj 787 285 nbx 5 10 1.452 99999 1 0 \$0-amp_a-num \$0-amp_a empty
0 -8 0 8 -204155 -13010 -13010 2 256;
#X obj 832 285 nbx 5 10 1.452 14520 1 0 \$0-amp_d-num \$0-amp_d empty
0 -8 0 8 -204155 -13010 -13010 120 256;
#X obj 877 285 nbx 5 10 0 100 0 0 \$0-amp_s_pc-num \$0-amp_s_pc empty
0 -8 0 8 -204155 -13010 -13010 50 256;
#X obj 922 285 nbx 5 10 1.453 99999 1 0 \$0-amp_r-num \$0-amp_r empty
0 -8 0 8 -204155 -13010 -13010 1000 256;
#X obj 790 225 hsl 169 12 0.373 11.512 0 0 \$0-amp_eg_a_raw \$0-amp_eg_a_raw-set
amp_attack 28 6 0 10 -203899 -13010 -13010 483 1;
#X obj 790 255 hsl 169 12 0 100 0 0 \$0-amp_s_pc \$0-amp_s_pc-set amp_sustain
28 6 0 10 -203899 -13010 -13010 8400 1;
#X obj 790 240 hsl 169 12 0.373 11.512 0 0 \$0-amp_eg_d_raw \$0-amp_eg_d_raw-set
amp_decay 28 6 0 10 -203899 -13010 -13010 6658 1;
#X obj 790 270 hsl 169 12 0.373 11.512 0 0 \$0-amp_eg_r_raw \$0-amp_eg_r_raw-set
amp_release 28 6 0 10 -204155 -13010 -13010 9856 1;
#N canvas 1 82 545 501 amp_eg_process 0;
#X obj 46 76 exp;
#X obj 46 146 exp;
#X obj 45 216 * 0.01;
#X obj 46 286 exp;
#N canvas 1 82 515 344 init 0;
#X msg 90 170 120;
#X msg 251 94 1000;
#X obj 218 27 loadbang;
#X obj 249 131 log;
#X obj 90 192 log;
#X obj 92 254 log;
#X msg 148 144 50;
#X msg 92 232 2;
#X obj 243 157 s \$0-amp_eg_r_raw-set;
#X obj 206 195 s \$0-amp_eg_s_pc-set;
#X obj 212 235 s \$0-amp_eg_d_raw-set;
#X obj 192 294 s \$0-amp_eg_a_raw-set;
#X connect 0 0 4 0;
#X connect 1 0 3 0;
#X connect 2 0 1 0;
#X connect 2 0 6 0;
#X connect 2 0 0 0;
#X connect 2 0 7 0;
#X connect 3 0 8 0;
#X connect 4 0 10 0;
#X connect 5 0 11 0;
#X connect 6 0 9 0;
#X connect 7 0 5 0;
#X restore 231 284 pd init;
#X obj 46 54 r \$0-amp_eg_a_raw;
#X obj 46 98 s \$0-amp_a;
#X obj 46 124 r \$0-amp_eg_d_raw;
#X obj 46 167 s \$0-amp_d;
#X obj 45 194 r \$0-amp_eg_s_pc-num;
#X obj 45 238 s \$0-amp_s-num;
#X obj 46 264 r \$0-amp_eg_r_raw;
#X obj 46 308 s \$0-amp_r;
#X connect 0 0 6 0;
#X connect 1 0 8 0;
#X connect 2 0 10 0;
#X connect 3 0 12 0;
#X connect 5 0 0 0;
#X connect 7 0 1 0;
#X connect 9 0 2 0;
#X connect 11 0 3 0;
#X restore 722 59 pd amp_eg_process;
#X obj 385 291 cnv 15 34 124 empty empty empty 20 12 0 14 -183672 -66577
0;
#X obj 388 301 nbx 3 12 0 999 0 0 empty empty empty -2 -6 0 7 -257472
-1109 -90133 0 256;
#X obj 388 325 nbx 3 12 1 75 0 0 \$0-patch-num \$0-patch-set select
0 -5 0 7 -17235 -261234 -17235 1 256;
#X obj 395 358 bng 12 250 50 0 \$0-store_patch \$0-store_patch-bng
store -3 -5 0 7 -17235 -262130 -17235;
#X obj 387 392 bng 10 250 50 0 \$0-patches_load \$0-patches_load-bng
load -1 -5 0 7 -2498 -262144 -13381;
#X obj 406 384 bng 10 250 50 0 \$0-patches_save \$0-patches_save-bng
save -4 16 0 7 -159809 -262144 -86277;
#X obj 388 301 nbx 3 12 0 999 0 0 \$0-patches-dummy \$0-patches-num
patches 0 -5 0 7 -17235 -203904 -17235 0 256;
#X obj 408 340 bng 8 250 50 0 \$0-store_plus \$0-store_plus-bng + -7
4 0 10 -17235 -198336 -17235;
#X obj 388 340 bng 8 250 50 0 \$0-store_minus \$0-store_minus-bng -
8 3 0 10 -17235 -257985 -17235;
#X obj 405 373 bng 8 250 50 0 \$0-replace_patch \$0-replace_patch-bng
ovw -15 4 0 7 -17235 -262130 -17235;
#X obj 407 405 bng 8 250 50 0 \$0-patches_resave \$0-patches_resave-bng
ovw -17 4 0 7 -159809 -262144 -86277;
#X obj 409 358 tgl 8 0 \$0-route_ovw \$0-route_ovw-set empty 17 7 0
10 -159809 -261234 -86277 0 1;
#X msg 521 613 start;
#X msg 567 613 stop;
#X obj 521 572 r \$0-keyOn;
#X obj 567 592 r \$0-keyOff;
#N canvas 1 82 936 658 patches 0;
#X obj 254 676 s \$0-type-set;
#X obj 234 696 s \$0-res_pc-set;
#X obj 457 716 s \$0-amp_r_raw-set;
#X obj 311 616 s \$0-fc_s_pc-set;
#X obj 437 736 s \$0-amp_s_pc-set;
#X obj 418 756 s \$0-amp_d_raw-set;
#X obj 292 636 s \$0-fc_d_raw-set;
#X obj 399 776 s \$0-amp_a_raw-set;
#X obj 273 656 s \$0-fc_a_raw-set;
#X obj 331 596 s \$0-fc_r_raw-set;
#X obj 209 716 s \$0-fc_eg_inv-set;
#X obj 187 736 s \$0-fc_eg_depth-set;
#X obj 167 756 s \$0-fc_porta-set;
#X obj 311 555 * 100;
#X obj 331 576 log;
#X obj 292 596 log;
#X obj 273 617 log;
#X obj 437 674 * 100;
#X obj 457 695 log;
#X obj 418 715 log;
#X obj 399 736 log;
#X obj 581 596 s \$0-sync_eg_r_raw-set;
#X obj 560 616 s \$0-sync_eg_s_pc-set;
#X obj 549 636 s \$0-sync_eg_d_raw-set;
#X obj 530 656 s \$0-sync_eg_a_raw-set;
#X obj 514 676 s \$0-syncp-set;
#X obj 491 696 s \$0-sync_eg_depth-set;
#X obj 581 555 log;
#X obj 560 575 * 100;
#X obj 549 595 log;
#X obj 530 615 log;
#X obj 187 370 msgfile;
#X obj 23 270 t b a;
#X obj 93 425 route patches;
#X msg 111 255 goto 0;
#X obj 39 314 + 1;
#X obj 23 331 f;
#X msg 23 352 replace patches \$1;
#X msg 74 316 this;
#X obj 23 290 t b b b;
#X obj 274 263 r \$0-patches_load;
#X obj 274 290 openpanel;
#X msg 348 336 read \$1;
#X msg 304 336 goto 0;
#X msg 274 336 this;
#X obj 426 273 r \$0-patches_save;
#X obj 426 294 savepanel;
#X msg 426 336 write \$1;
#X obj 93 404 route list;
#X obj 274 317 t b b a b;
#X msg 351 313 clear;
#X obj 741 469 random;
#X obj 726 239 r \$0-store_plus;
#X obj 610 239 r \$0-store_minus;
#X obj 726 263 f;
#X obj 610 273 f;
#X obj 610 293 +;
#X obj 609 346 %;
#X obj 609 366 + 1;
#X obj 678 262 - 1;
#X obj 610 314 - 1;
#X obj 726 284 + 1;
#X obj 609 386 s \$0-patch-set;
#X obj 23 250 list trim;
#X obj 23 230 list prepend add;
#X obj 431 212 inlet;
#X obj 467 455 outlet;
#X obj 431 233 symbol;
#X obj 739 400 inlet;
#X obj 742 516 outlet;
#X obj 521 216 inlet;
#X obj 426 315 makesymbol %s.pat;
#X obj 373 392 t b f;
#X msg 388 416 goto \$1;
#X msg 353 415 this;
#X obj 266 450 spigot;
#X msg 310 449 0;
#X msg 311 432 1;
#X msg 566 479 range 1 \$1;
#X obj 266 467 s \$0-patches-num;
#X obj 566 496 s \$0-patch-set;
#X obj 88 41 r \$0-fc_porta;
#X obj 67 21 r \$0-fc_pitch;
#X obj 143 776 s \$0-fc_pitch-set;
#X obj 110 61 r fc_eg_depth-num;
#X obj 133 81 r \$0-fc_eg_inv;
#X obj 153 101 r \$0-res_pc-set;
#X obj 175 121 r \$0-type;
#X obj 230 10 r \$0-fc_a-num;
#X obj 250 30 r \$0-fc_d-num;
#X obj 292 70 r \$0-fc_r-num;
#X obj 629 577 s \$0-sync_eg_inv-set;
#X obj 186 494 unpack f f f f f f f f f f f f f f f f f f f f f;
#X obj 326 90 r \$0-amp_a-num;
#X obj 346 110 r \$0-amp_d-num;
#X obj 273 50 r \$0-fc_s_pc-num;
#X obj 273 96 * 0.01;
#X obj 368 130 r \$0-amp_s_pc-num;
#X obj 391 150 r \$0-amp_r-num;
#X obj 427 13 r \$0-sync_eg_depth-num;
#X obj 442 33 r \$0-syncp;
#X obj 565 144 r \$0-sync_eg_inv;
#X obj 136 188 pack f f f f f f f f f f f f f f f f f f f f f;
#X obj 94 151 f;
#X obj 22 116 r \$0-store_patch;
#X obj 547 125 r \$0-sync_eg_r-num;
#X obj 526 105 r \$0-sync_eg_s_pc-num;
#X obj 504 85 r \$0-sync_eg_d-num;
#X obj 485 65 r \$0-sync_eg_a-num;
#X obj 497 125 * 0.01;
#X connect 13 0 3 0;
#X connect 14 0 9 0;
#X connect 15 0 6 0;
#X connect 16 0 8 0;
#X connect 17 0 4 0;
#X connect 18 0 2 0;
#X connect 19 0 5 0;
#X connect 20 0 7 0;
#X connect 27 0 21 0;
#X connect 28 0 22 0;
#X connect 29 0 23 0;
#X connect 30 0 24 0;
#X connect 31 0 48 0;
#X connect 32 0 39 0;
#X connect 32 1 31 0;
#X connect 33 0 35 0;
#X connect 33 0 51 1;
#X connect 33 0 57 1;
#X connect 33 0 56 1;
#X connect 33 0 75 0;
#X connect 33 1 92 0;
#X connect 34 0 31 0;
#X connect 35 0 36 1;
#X connect 36 0 37 0;
#X connect 36 0 51 1;
#X connect 36 0 56 1;
#X connect 36 0 57 1;
#X connect 36 0 79 0;
#X connect 36 0 78 0;
#X connect 37 0 31 0;
#X connect 38 0 31 0;
#X connect 39 0 36 0;
#X connect 39 1 38 0;
#X connect 39 2 34 0;
#X connect 40 0 41 0;
#X connect 41 0 49 0;
#X connect 42 0 31 0;
#X connect 43 0 31 0;
#X connect 44 0 31 0;
#X connect 45 0 46 0;
#X connect 46 0 71 0;
#X connect 47 0 31 0;
#X connect 48 0 33 0;
#X connect 49 0 44 0;
#X connect 49 1 43 0;
#X connect 49 1 77 0;
#X connect 49 2 42 0;
#X connect 49 3 50 0;
#X connect 50 0 31 0;
#X connect 51 0 69 0;
#X connect 52 0 54 0;
#X connect 53 0 55 0;
#X connect 54 0 61 0;
#X connect 55 0 56 0;
#X connect 56 0 60 0;
#X connect 57 0 58 0;
#X connect 58 0 62 0;
#X connect 59 0 55 1;
#X connect 59 0 54 1;
#X connect 60 0 57 0;
#X connect 61 0 57 0;
#X connect 63 0 32 0;
#X connect 64 0 63 0;
#X connect 65 0 67 0;
#X connect 67 0 49 0;
#X connect 68 0 51 0;
#X connect 70 0 72 0;
#X connect 71 0 47 0;
#X connect 71 0 66 0;
#X connect 72 0 74 0;
#X connect 72 1 73 0;
#X connect 73 0 31 0;
#X connect 74 0 31 0;
#X connect 75 0 76 0;
#X connect 75 0 78 0;
#X connect 75 0 79 0;
#X connect 76 0 75 1;
#X connect 77 0 75 1;
#X connect 78 0 80 0;
#X connect 81 0 102 1;
#X connect 82 0 103 1;
#X connect 84 0 102 2;
#X connect 85 0 102 3;
#X connect 86 0 102 4;
#X connect 87 0 102 5;
#X connect 88 0 102 6;
#X connect 89 0 102 7;
#X connect 90 0 102 9;
#X connect 92 0 83 0;
#X connect 92 1 12 0;
#X connect 92 2 11 0;
#X connect 92 3 10 0;
#X connect 92 4 1 0;
#X connect 92 5 0 0;
#X connect 92 6 16 0;
#X connect 92 7 15 0;
#X connect 92 8 13 0;
#X connect 92 9 14 0;
#X connect 92 10 20 0;
#X connect 92 11 19 0;
#X connect 92 12 17 0;
#X connect 92 13 18 0;
#X connect 92 14 26 0;
#X connect 92 15 25 0;
#X connect 92 16 30 0;
#X connect 92 17 29 0;
#X connect 92 18 28 0;
#X connect 92 19 27 0;
#X connect 92 20 91 0;
#X connect 93 0 102 10;
#X connect 94 0 102 11;
#X connect 95 0 96 0;
#X connect 96 0 102 8;
#X connect 97 0 102 12;
#X connect 98 0 102 13;
#X connect 99 0 102 14;
#X connect 100 0 102 15;
#X connect 101 0 102 20;
#X connect 102 0 64 0;
#X connect 103 0 102 0;
#X connect 104 0 103 0;
#X connect 105 0 102 19;
#X connect 106 0 109 0;
#X connect 107 0 102 17;
#X connect 108 0 102 16;
#X connect 109 0 102 18;
#X restore 640 470 pd patches;
#X obj 594 250 cnv 15 187 22 empty empty empty 20 12 0 14 -183672 -66577
0;
#X obj 596 258 nbx 3 12 0 120 0 0 empty empty empty -2 -6 0 7 -257472
-1109 -90133 0 256;
#X obj 638 258 nbx 3 12 1 3 0 0 \$0-patch-num \$0-patch-set select
0 -5 0 7 -17235 -261234 -17235 1 256;
#X obj 683 258 bng 12 250 50 0 \$0-store_patch \$0-store_patch-bng
store -3 -5 0 7 -17235 -262130 -17235;
#X obj 704 253 bng 10 250 50 0 \$0-patches_load \$0-patches_load-bng
load -5 16 0 7 -2498 -262144 -13381;
#X obj 717 253 bng 10 250 50 0 \$0-patches_save \$0-patches_save-bng
save 0 16 0 7 -159809 -262144 -86277;
#X obj 596 258 nbx 3 12 0 120 0 0 \$0-patches-dummy \$0-patches-num
patches 0 -5 0 7 -17235 -203904 -17235 0 256;
#X obj 669 262 bng 8 250 50 0 \$0-store_plus \$0-store_plus-bng + 2
-4 0 7 -17235 -198336 -17235;
#X obj 627 262 bng 8 250 50 0 \$0-store_minus \$0-store_minus-bng -
1 -5 0 10 -17235 -257985 -17235;
#X obj 594 273 cnv 15 187 26 empty empty empty 20 12 0 14 -154680 -66577
0;
#X obj 603 278 tgl 15 0 \$0-on \$0-on-set on 17 7 0 10 -142523 -13330
-13330 1 1;
#X obj 461 265 r \$0-on;
#X obj 461 287 switch~;
#X obj 464 311 loadbang;
#X msg 464 333 1;
#X obj 464 355 s \$0-on-set;
#X obj 270 871 outlet~;
#N canvas 220 82 1092 525 auto_out 0;
#X obj 15 432 outlet;
#X obj 130 386 inlet;
#X obj 14 48 change;
#X obj 82 68 change;
#X obj 223 109 change;
#X obj 274 130 change;
#X obj 338 150 change;
#X obj 388 170 change;
#X obj 438 190 change;
#X obj 487 210 change;
#X obj 536 230 change;
#X obj 191 62 change;
#X obj 15 397 spigot;
#X obj 130 407 prepend file;
#X obj 584 38 inlet;
#X obj 668 36 inlet;
#X msg 585 69 1;
#X msg 663 68 0;
#X obj 509 34 loadbang;
#X obj 105 120 t b f;
#X obj 149 165 t b f;
#X obj 186 200 t b f;
#X obj 240 214 t b f;
#X obj 299 222 t b f;
#X obj 364 253 t b f;
#X obj 410 274 t b f;
#X obj 455 299 t b f;
#X obj 505 318 t b f;
#X obj 191 41 r \$0-fc_eg_depth-num;
#X msg 151 103 depth \$1;
#X obj 223 89 r \$0-res;
#X msg 223 130 res \$1;
#X obj 274 109 r \$0-amp_a-num;
#X msg 274 150 aa \$1;
#X obj 337 129 r \$0-amp_d-num;
#X msg 338 170 ad \$1;
#X obj 388 150 r \$0-amp_s-num;
#X msg 388 190 as \$1;
#X obj 438 170 r \$0-amp_r-num;
#X msg 438 210 ar \$1;
#X obj 487 190 r \$0-fc_a-num;
#X msg 487 230 fa \$1;
#X obj 536 210 r \$0-fc_d-num;
#X msg 536 250 fd \$1;
#X obj 586 250 change;
#X obj 555 338 t b f;
#X obj 636 270 change;
#X obj 605 340 t b f;
#X obj 586 230 r \$0-fc_s-num;
#X obj 636 250 r \$0-fc_r-num;
#X msg 586 270 fs \$1;
#X msg 636 290 fr \$1;
#X obj 686 290 change;
#X obj 649 336 t b f;
#X obj 736 310 change;
#X obj 699 338 t b f;
#X obj 686 270 r \$0-type;
#X obj 736 290 r \$0-porta;
#X msg 686 310 type \$1;
#X msg 736 330 porta \$1;
#X obj 14 8 r \$0-freq;
#X msg 14 68 freq \$1;
#X msg 82 88 pitch \$1;
#X obj 14 28 route set;
#X obj 82 48 route set;
#X obj 82 28 r \$0-fc_pitch;
#X obj 359 22 r \$0-fc_eg_inv;
#X obj 359 44 change;
#X msg 359 64 fcinv \$1;
#X obj 464 76 r \$0-syncf;
#X obj 464 98 change;
#X msg 464 120 sfreq \$1;
#X obj 543 118 change;
#X obj 543 96 r \$0-syncp;
#X msg 543 140 spitch \$1;
#X obj 636 93 r \$0-sync_eg_depth-num;
#X obj 892 107 r \$0-sync_eg_r-num;
#X obj 853 84 r \$0-sync_eg_s_pc-num;
#X obj 830 59 r \$0-sync_eg_d-num;
#X obj 803 38 r \$0-sync_eg_a-num;
#X obj 927 134 r \$0-sync_eg_inv;
#X obj 636 115 change;
#X msg 636 137 sdepth;
#X obj 803 78 change;
#X obj 835 104 change;
#X obj 858 128 change;
#X obj 890 155 change;
#X obj 928 181 change;
#X msg 754 116 sa \$1;
#X msg 778 152 sd \$1;
#X msg 812 181 ss \$1;
#X msg 836 210 sr \$1;
#X msg 867 241 sinv \$1;
#X obj 302 464 pack f f f f f f f f f f f f f f f f f f f f f f f;
#X obj 302 485 list prepend all;
#X obj 302 507 list trim;
#X obj 528 394 t b f;
#X obj 573 395 t b f;
#X obj 619 386 t b f;
#X obj 664 391 t b f;
#X obj 714 390 t b f;
#X obj 764 390 t b f;
#X obj 814 392 t b f;
#X obj 858 388 t b f;
#X obj 908 390 t b f;
#X connect 1 0 13 0;
#X connect 2 0 61 0;
#X connect 2 0 93 0;
#X connect 3 0 62 0;
#X connect 3 0 19 0;
#X connect 4 0 31 0;
#X connect 4 0 21 0;
#X connect 5 0 33 0;
#X connect 5 0 22 0;
#X connect 6 0 35 0;
#X connect 6 0 23 0;
#X connect 7 0 37 0;
#X connect 7 0 24 0;
#X connect 8 0 39 0;
#X connect 8 0 25 0;
#X connect 9 0 41 0;
#X connect 9 0 26 0;
#X connect 10 0 43 0;
#X connect 10 0 27 0;
#X connect 11 0 29 0;
#X connect 11 0 20 0;
#X connect 12 0 0 0;
#X connect 13 0 0 0;
#X connect 14 0 16 0;
#X connect 15 0 17 0;
#X connect 16 0 12 1;
#X connect 17 0 12 1;
#X connect 18 0 16 0;
#X connect 19 0 93 0;
#X connect 19 1 93 1;
#X connect 20 0 93 0;
#X connect 20 1 93 2;
#X connect 21 0 93 0;
#X connect 21 1 93 3;
#X connect 22 0 93 0;
#X connect 22 1 93 4;
#X connect 23 0 93 0;
#X connect 23 1 93 5;
#X connect 24 0 93 0;
#X connect 24 1 93 6;
#X connect 25 0 93 0;
#X connect 25 1 93 7;
#X connect 26 0 93 0;
#X connect 26 1 93 8;
#X connect 27 0 93 0;
#X connect 27 1 93 9;
#X connect 28 0 11 0;
#X connect 29 0 12 0;
#X connect 30 0 4 0;
#X connect 31 0 12 0;
#X connect 32 0 5 0;
#X connect 33 0 12 0;
#X connect 34 0 6 0;
#X connect 35 0 12 0;
#X connect 36 0 7 0;
#X connect 37 0 12 0;
#X connect 38 0 8 0;
#X connect 39 0 12 0;
#X connect 40 0 9 0;
#X connect 41 0 12 0;
#X connect 42 0 10 0;
#X connect 43 0 12 0;
#X connect 44 0 50 0;
#X connect 44 0 45 0;
#X connect 45 0 93 0;
#X connect 45 1 93 10;
#X connect 46 0 51 0;
#X connect 46 0 47 0;
#X connect 47 0 93 0;
#X connect 47 1 93 11;
#X connect 48 0 44 0;
#X connect 49 0 46 0;
#X connect 50 0 12 0;
#X connect 51 0 12 0;
#X connect 52 0 58 0;
#X connect 52 0 53 0;
#X connect 53 0 93 0;
#X connect 53 1 93 12;
#X connect 54 0 59 0;
#X connect 54 0 55 0;
#X connect 55 0 93 0;
#X connect 55 1 93 13;
#X connect 56 0 52 0;
#X connect 57 0 54 0;
#X connect 58 0 12 0;
#X connect 59 0 12 0;
#X connect 60 0 63 0;
#X connect 61 0 12 0;
#X connect 62 0 12 0;
#X connect 63 0 2 0;
#X connect 63 1 2 0;
#X connect 64 1 3 0;
#X connect 65 0 64 0;
#X connect 66 0 67 0;
#X connect 67 0 68 0;
#X connect 67 0 96 0;
#X connect 68 0 12 0;
#X connect 69 0 70 0;
#X connect 70 0 71 0;
#X connect 70 0 97 0;
#X connect 71 0 12 0;
#X connect 72 0 74 0;
#X connect 72 0 98 0;
#X connect 73 0 72 0;
#X connect 74 0 12 0;
#X connect 75 0 81 0;
#X connect 76 0 86 0;
#X connect 77 0 85 0;
#X connect 78 0 84 0;
#X connect 79 0 83 0;
#X connect 80 0 87 0;
#X connect 81 0 82 0;
#X connect 81 0 99 0;
#X connect 82 0 12 0;
#X connect 83 0 88 0;
#X connect 83 0 100 0;
#X connect 84 0 89 0;
#X connect 84 0 101 0;
#X connect 85 0 90 0;
#X connect 85 0 102 0;
#X connect 86 0 91 0;
#X connect 86 0 103 0;
#X connect 87 0 92 0;
#X connect 87 0 104 0;
#X connect 88 0 12 0;
#X connect 89 0 12 0;
#X connect 90 0 12 0;
#X connect 91 0 12 0;
#X connect 92 0 12 0;
#X connect 93 0 94 0;
#X connect 94 0 95 0;
#X connect 95 0 12 0;
#X connect 96 0 93 0;
#X connect 96 1 93 14;
#X connect 97 0 93 0;
#X connect 97 1 93 15;
#X connect 98 0 93 0;
#X connect 98 1 93 16;
#X connect 99 0 93 0;
#X connect 99 1 93 17;
#X connect 100 0 93 0;
#X connect 100 1 93 18;
#X connect 101 0 93 0;
#X connect 101 1 93 19;
#X connect 102 0 93 0;
#X connect 102 1 93 20;
#X connect 103 0 93 0;
#X connect 103 1 93 21;
#X connect 104 0 93 0;
#X connect 104 1 93 22;
#X restore 716 495 pd auto_out;
#X connect 1 0 35 0;
#X connect 2 0 95 0;
#X connect 3 0 6 0;
#X connect 4 0 3 0;
#X connect 5 0 3 0;
#X connect 6 0 10 0;
#X connect 6 0 27 0;
#X connect 7 0 8 0;
#X connect 7 1 9 0;
#X connect 8 0 6 1;
#X connect 9 0 6 1;
#X connect 10 0 15 0;
#X connect 11 0 58 1;
#X connect 12 0 1 1;
#X connect 13 0 1 0;
#X connect 14 0 10 1;
#X connect 15 0 12 0;
#X connect 16 0 24 0;
#X connect 16 1 2 0;
#X connect 17 0 18 0;
#X connect 17 1 16 0;
#X connect 19 0 15 1;
#X connect 19 0 21 1;
#X connect 19 0 27 1;
#X connect 20 0 12 0;
#X connect 21 0 20 0;
#X connect 22 0 23 1;
#X connect 23 0 7 0;
#X connect 23 0 14 0;
#X connect 23 0 20 1;
#X connect 25 0 23 0;
#X connect 26 0 19 0;
#X connect 27 0 21 0;
#X connect 28 0 19 1;
#X connect 29 0 4 0;
#X connect 30 0 5 0;
#X connect 31 0 3 1;
#X connect 32 0 3 2;
#X connect 33 0 3 3;
#X connect 34 0 3 4;
#X connect 35 0 51 0;
#X connect 35 1 52 0;
#X connect 35 2 53 0;
#X connect 35 3 54 0;
#X connect 37 0 35 1;
#X connect 38 0 40 0;
#X connect 39 0 38 0;
#X connect 40 0 37 1;
#X connect 41 0 42 0;
#X connect 42 0 35 2;
#X connect 43 0 41 0;
#X connect 44 0 87 1;
#X connect 45 0 87 2;
#X connect 46 0 87 3;
#X connect 47 0 87 4;
#X connect 48 0 97 0;
#X connect 49 0 50 0;
#X connect 49 0 55 0;
#X connect 49 0 56 0;
#X connect 49 0 57 0;
#X connect 50 0 51 1;
#X connect 51 0 58 0;
#X connect 52 0 58 0;
#X connect 53 0 58 0;
#X connect 54 0 58 0;
#X connect 55 0 52 1;
#X connect 56 0 53 1;
#X connect 57 0 54 1;
#X connect 58 0 173 0;
#X connect 59 0 11 1;
#X connect 60 0 11 2;
#X connect 61 0 11 3;
#X connect 62 0 11 4;
#X connect 63 0 41 1;
#X connect 77 0 78 0;
#X connect 77 1 156 0;
#X connect 79 0 77 0;
#X connect 80 0 77 0;
#X connect 80 1 156 2;
#X connect 81 0 82 0;
#X connect 82 0 174 0;
#X connect 82 1 156 1;
#X connect 82 2 174 2;
#X connect 87 0 98 0;
#X connect 88 0 87 0;
#X connect 89 0 87 0;
#X connect 90 0 88 0;
#X connect 91 0 89 0;
#X connect 92 0 38 1;
#X connect 94 0 95 1;
#X connect 95 0 96 0;
#X connect 96 0 13 0;
#X connect 96 0 12 1;
#X connect 97 0 17 0;
#X connect 97 1 80 0;
#X connect 98 0 102 0;
#X connect 98 0 111 0;
#X connect 99 0 100 0;
#X connect 99 1 101 0;
#X connect 100 0 98 1;
#X connect 101 0 98 1;
#X connect 102 0 104 0;
#X connect 103 0 102 1;
#X connect 104 0 37 0;
#X connect 105 0 104 1;
#X connect 105 0 107 1;
#X connect 105 0 111 1;
#X connect 106 0 37 0;
#X connect 107 0 106 0;
#X connect 108 0 99 0;
#X connect 108 0 103 0;
#X connect 108 0 106 1;
#X connect 109 0 108 0;
#X connect 110 0 105 0;
#X connect 111 0 107 0;
#X connect 112 0 108 1;
#X connect 113 0 105 1;
#X connect 152 0 11 0;
#X connect 153 0 11 0;
#X connect 154 0 152 0;
#X connect 155 0 153 0;
#X connect 156 0 174 1;
#X connect 156 1 79 0;
#X connect 168 0 169 0;
#X connect 170 0 171 0;
#X connect 171 0 172 0;
#X connect 174 0 76 0;
#X coords 0 -1 1 1 375 217 1 593 85;
