#N canvas 1 117 1272 651 10;
#X declare -lib zexy;
#X declare -lib creb;
#X obj 1027 534 declare -lib zexy;
#X obj 1027 554 declare -lib creb;
#X obj 131 224 ead~;
#X obj 390 400 ead~;
#X floatatom 142 165 5 0 0 0 - - -, f 5;
#X floatatom 179 165 5 0 0 0 - - -, f 5;
#X obj 87 103 inlet;
#X floatatom 306 164 5 0 0 0 - - -, f 5;
#X floatatom 343 164 5 0 0 0 - - -, f 5;
#X text 159 124 feg;
#X text 311 114 aeg;
#X obj 131 244 *~;
#X obj 131 286 +~;
#X obj 131 306 osc~;
#X obj 131 326 *~;
#X obj 969 217 switch~;
#X floatatom 216 165 5 0 0 0 - - -, f 5;
#X floatatom 252 138 5 0 0 0 - - -, f 5;
#X obj 62 119 bng 15 250 50 0 empty empty empty 0 -6 0 8 -262144 -1
-1;
#X text 126 108 a d depth offset;
#X text 298 103 a d level;
#X obj 98 182 t b b;
#X obj 439 348 +;
#X obj 438 220 moses 0;
#X obj 439 314 +;
#X obj 439 331 *;
#X obj 518 348 +;
#X obj 518 314 +;
#X obj 518 331 *;
#X obj 590 348 +;
#X obj 590 314 +;
#X obj 590 331 *;
#X obj 662 348 +;
#X obj 662 314 +;
#X obj 662 331 *;
#X obj 643 212 moses 0;
#X obj 438 200 * 100;
#X obj 643 192 * 100;
#X obj 439 280 / 10000;
#X obj 518 280 / 10000;
#X obj 590 280 / 10000;
#X obj 662 280 / 10000;
#X obj 662 263 random 100;
#X obj 590 263 random 100;
#X obj 518 263 random 100;
#X obj 439 263 random 100;
#X msg 706 128 5 0 2 0;
#X obj 482 236 moses 10001;
#X obj 658 229 moses 10001;
#X obj 512 201 moses -1.01;
#X obj 688 193 moses -1.01;
#X obj 572 236 moses 0.01;
#X obj 748 227 moses 0.01;
#X msg 609 128 100 -1 20 0;
#X text 447 109 ferr% fbias(-1<x<0) aerr% abias;
#X obj 706 111 loadbang;
#X obj 601 415 cnv 15 233 176 empty empty empty 15 6 0 10 -195008 -1109
0;
#X text 730 318 efa6df 590051;
#N canvas 194 86 1172 669 patches 0;
#X obj 36 33 r \$0-sinclick_af-num;
#X obj 50 52 r \$0-sinclick_df-num;
#X obj 204 33 r \$0-sinclick_eg-num;
#X obj 216 53 r \$0-sinclick_off-num;
#X obj 364 12 r \$0-sinclick_aa-num;
#X obj 378 31 r \$0-sinclick_da-num;
#X obj 401 52 r \$0-sinclick_vol-num;
#X obj 556 26 r \$0-sinclick_fr-num;
#X obj 571 47 r \$0-sinclick_fbias-num;
#X obj 734 24 r \$0-sinclick_ar-num;
#X obj 750 44 r \$0-sinclick_abias-num;
#X obj 24 140 f;
#X obj 21 97 r \$0-store_patch;
#X obj 22 199 prepend add;
#X obj 19 232 t b a;
#X obj 89 321 msgfile;
#X obj 356 382 spigot;
#X msg 400 381 0;
#X msg 401 364 1;
#X msg 172 289 add patches 0;
#X obj 169 251 loadbang;
#X obj 80 551 route patches;
#X msg 106 238 goto 0;
#X obj 34 297 + 1;
#X obj 18 314 f;
#X msg 18 367 replace patches \$1;
#X msg 69 288 this;
#X obj 18 262 t b b b;
#X obj 173 108 r \$0-sinclick_eg_pol;
#X msg 573 327 range 1 \$1;
#X obj 346 217 t b f;
#X msg 361 241 goto \$1;
#X msg 326 240 this;
#X obj 453 251 r \$0-patches_load;
#X obj 453 268 openpanel;
#X msg 527 302 read \$1;
#X msg 483 302 goto 0;
#X msg 453 302 this;
#X obj 633 181 r \$0-patches_save;
#X obj 633 209 savepanel;
#X msg 630 282 write \$1;
#X obj 65 453 s \$0-sinclick_af-set;
#X obj 79 472 s \$0-sinclick_df-set;
#X obj 233 453 s \$0-sinclick_eg-set;
#X obj 245 473 s \$0-sinclick_off-set;
#X obj 393 432 s \$0-sinclick_aa-set;
#X obj 407 451 s \$0-sinclick_da-set;
#X obj 565 424 s \$0-sinclick_vol-set;
#X obj 550 446 s \$0-sinclick_fr-set;
#X obj 600 467 s \$0-sinclick_fbias-set;
#X obj 763 444 s \$0-sinclick_ar-set;
#X obj 795 408 s \$0-sinclick_abias-set;
#X obj 202 528 s \$0-sinclick_eg_pol-set;
#X obj 566 402 spigot;
#X obj 603 376 tgl 15 0 empty \$0-patch_vol_set empty 0 -6 0 8 -262144
-1 -1 1 1;
#X msg 226 222 print;
#X obj 81 521 route list;
#X obj 453 285 t b b a b;
#X msg 469 362 clear;
#X obj 322 172 r \$0-patches_clear;
#X obj 279 197 t b b;
#X obj 782 68 r \$0-sinclick_aeg_ahmod-num;
#X obj 815 85 r \$0-sinclick_aeg_dhmod-num;
#X obj 868 119 r \$0-harmonic_level;
#X obj 847 102 r \$0-harmonic-num;
#X obj 674 588 s \$0-harmonic_level-set;
#X obj 880 264 outlet;
#X obj 563 173 inlet;
#X obj 563 210 symbol;
#X obj 620 566 s \$0-harmonic-set;
#X obj 543 521 s \$0-sinclick_aeg_ahmod-set;
#X obj 569 539 s \$0-sinclick_aeg_dhmod-set;
#X obj 887 136 r \$0-sinclick_slew-num;
#X obj 421 542 s \$0-sinclick_slew-set;
#X obj 969 198 inlet;
#X obj 964 239 random;
#X obj 958 270 outlet;
#X obj 22 165 pack f f f f f f f f f f f f f f f f f f;
#X obj 269 328 unpack f f f f f f f f f f f f f f f f f f;
#X obj 899 157 r \$0-sinclick_offslew-num;
#X obj 913 573 s \$0-sinclick_offslew-set;
#X obj 242 264 s \$0-sinclick_df-set-mod;
#X obj 264 283 s \$0-sinclick_da-set-mod;
#X obj 129 195 packel 2;
#X obj 147 215 packel 7;
#X obj 272 301 s \$0-sinclick_dhmod-set-mod;
#X obj 201 195 packel 14;
#X obj 356 399 s \$0-patches-num;
#X obj 573 344 s \$0-patch-set;
#X obj 788 192 inlet;
#X obj 632 238 makesymbol %s.pat;
#X obj 125 491 s \$0-sinclick_af-num;
#X obj 139 510 s \$0-sinclick_df-num;
#X obj 223 546 s \$0-sinclick_eg_pol;
#X obj 293 491 s \$0-sinclick_eg-num;
#X obj 305 511 s \$0-sinclick_off-num;
#X obj 453 470 s \$0-sinclick_aa-num;
#X obj 467 489 s \$0-sinclick_da-num;
#X obj 408 568 s \$0-sinclick_vol-num;
#X obj 326 598 s \$0-sinclick_aeg_ahmod-num;
#X obj 473 628 s \$0-sinclick_slew-num;
#X obj 383 647 s \$0-harmonic_level-num;
#X obj 530 601 s \$0-harmonic-num;
#X obj 303 615 s \$0-sinclick_aeg_dhmod-num;
#X obj 919 595 s \$0-sinclick_offslew-num;
#X obj 823 482 s \$0-sinclick_ar-num;
#X obj 839 502 s \$0-sinclick_abias-num;
#X obj 150 616 s \$0-sinclick_fr-num;
#X obj 200 637 s \$0-sinclick_fbias-num;
#X connect 0 0 11 1;
#X connect 1 0 77 1;
#X connect 2 0 77 2;
#X connect 3 0 77 3;
#X connect 4 0 77 5;
#X connect 5 0 77 6;
#X connect 6 0 77 7;
#X connect 7 0 77 8;
#X connect 8 0 77 9;
#X connect 9 0 77 10;
#X connect 10 0 77 11;
#X connect 11 0 77 0;
#X connect 12 0 11 0;
#X connect 13 0 14 0;
#X connect 14 0 27 0;
#X connect 14 1 15 0;
#X connect 15 0 56 0;
#X connect 16 0 17 0;
#X connect 16 0 29 0;
#X connect 16 0 87 0;
#X connect 17 0 16 1;
#X connect 18 0 16 1;
#X connect 19 0 15 0;
#X connect 20 0 19 0;
#X connect 21 0 23 0;
#X connect 21 0 16 0;
#X connect 21 0 75 1;
#X connect 21 1 78 0;
#X connect 22 0 15 0;
#X connect 23 0 24 1;
#X connect 24 0 25 0;
#X connect 24 0 29 0;
#X connect 24 0 75 1;
#X connect 24 0 87 0;
#X connect 25 0 15 0;
#X connect 26 0 15 0;
#X connect 27 0 24 0;
#X connect 27 1 26 0;
#X connect 27 2 22 0;
#X connect 28 0 77 4;
#X connect 29 0 88 0;
#X connect 30 0 32 0;
#X connect 30 1 31 0;
#X connect 31 0 15 0;
#X connect 32 0 15 0;
#X connect 33 0 34 0;
#X connect 34 0 57 0;
#X connect 34 0 66 0;
#X connect 35 0 15 0;
#X connect 36 0 15 0;
#X connect 37 0 15 0;
#X connect 38 0 39 0;
#X connect 39 0 90 0;
#X connect 40 0 15 0;
#X connect 53 0 47 0;
#X connect 53 0 98 0;
#X connect 54 0 53 1;
#X connect 55 0 15 0;
#X connect 56 0 21 0;
#X connect 57 0 37 0;
#X connect 57 1 36 0;
#X connect 57 1 18 0;
#X connect 57 2 35 0;
#X connect 57 3 58 0;
#X connect 58 0 15 0;
#X connect 59 0 60 0;
#X connect 60 0 19 0;
#X connect 60 1 58 0;
#X connect 61 0 77 12;
#X connect 62 0 77 13;
#X connect 63 0 77 15;
#X connect 64 0 77 14;
#X connect 67 0 68 0;
#X connect 68 0 57 0;
#X connect 72 0 77 16;
#X connect 74 0 75 0;
#X connect 75 0 76 0;
#X connect 77 0 13 0;
#X connect 77 0 83 0;
#X connect 77 0 84 0;
#X connect 77 0 86 0;
#X connect 78 0 41 0;
#X connect 78 0 91 0;
#X connect 78 1 42 0;
#X connect 78 1 81 0;
#X connect 78 1 92 0;
#X connect 78 2 43 0;
#X connect 78 2 94 0;
#X connect 78 3 44 0;
#X connect 78 3 95 0;
#X connect 78 4 52 0;
#X connect 78 4 93 0;
#X connect 78 5 45 0;
#X connect 78 5 96 0;
#X connect 78 6 46 0;
#X connect 78 6 82 0;
#X connect 78 6 97 0;
#X connect 78 7 53 0;
#X connect 78 8 48 0;
#X connect 78 8 107 0;
#X connect 78 9 49 0;
#X connect 78 9 108 0;
#X connect 78 10 50 0;
#X connect 78 10 105 0;
#X connect 78 11 51 0;
#X connect 78 11 106 0;
#X connect 78 12 70 0;
#X connect 78 12 99 0;
#X connect 78 13 71 0;
#X connect 78 13 85 0;
#X connect 78 13 103 0;
#X connect 78 14 69 0;
#X connect 78 14 102 0;
#X connect 78 15 65 0;
#X connect 78 15 101 0;
#X connect 78 16 73 0;
#X connect 78 17 80 0;
#X connect 78 17 104 0;
#X connect 79 0 77 17;
#X connect 83 0 81 0;
#X connect 84 0 82 0;
#X connect 86 0 85 0;
#X connect 89 0 30 0;
#X connect 90 0 40 0;
#X connect 90 0 66 0;
#X restore 852 216 pd patches;
#X obj 126 34 r \$0-sinclick_af-num;
#X obj 140 53 r \$0-sinclick_df-num;
#X obj 293 31 r \$0-sinclick_eg-num;
#X obj 306 54 r \$0-sinclick_off-num;
#X obj 307 71 mtof;
#X obj 454 13 r \$0-sinclick_aa-num;
#X obj 468 32 r \$0-sinclick_da-num;
#X obj 491 52 r \$0-sinclick_vol-num;
#X obj 491 69 dbtorms;
#X obj 646 27 r \$0-sinclick_fr-num;
#X obj 667 60 r \$0-sinclick_fbias-num;
#X obj 824 25 r \$0-sinclick_ar-num;
#X obj 838 60 r \$0-sinclick_abias-num;
#X floatatom 646 44 5 0 0 0 - - -, f 5;
#X floatatom 667 77 5 0 0 0 - - -, f 5;
#X floatatom 824 42 5 0 0 0 - - -, f 5;
#X floatatom 838 77 5 0 0 0 - - -, f 5;
#X obj 1066 373 t b f;
#X obj 1093 403 sel 0 1;
#X msg 1096 428 -1;
#X msg 1124 428 1;
#X obj 1062 456 * 1;
#X obj 1046 305 r \$0-sinclick_eg;
#X obj 1064 481 s \$0-sinclick_eg-pm;
#X obj 1023 27 inlet;
#X obj 1073 342 r \$0-sinclick_eg_pol;
#X floatatom 1149 374 5 0 0 0 - - -, f 5;
#X msg 605 192 -1;
#X msg 604 215 0;
#X msg 783 254 -1;
#X msg 782 277 0;
#X obj 975 173 r \$0-patch_on;
#X floatatom 678 372 5 0 0 0 - - -, f 5;
#X floatatom 605 370 5 0 0 0 - - -, f 5;
#X obj 83 152 sel 1;
#X obj 238 340 *~;
#X obj 240 318 osc~;
#X obj 342 342 ead~;
#X obj 381 310 * 1;
#X obj 352 310 * 1;
#X obj 210 470 pack f 10;
#X obj 239 298 *~;
#X obj 210 490 line~;
#X obj 180 377 *~ 0.05;
#X obj 237 213 r \$0-sinclick_aeg_ahmod-num;
#X obj 237 236 r \$0-sinclick_aeg_dhmod-num;
#X obj 211 397 r \$0-harmonic_level;
#X obj 209 425 r \$0-harmonic-num;
#X obj 267 449 r \$0-slew-num;
#N canvas 3 50 454 436 init 0;
#X obj 111 116 s \$0-sinclick_abias-set;
#X obj 95 136 s \$0-sinclick_fbias-set;
#X msg 105 72 1;
#X obj 105 55 loadbang;
#X obj 121 96 s \$0-patch_vol_set_on;
#X obj 127 176 s \$0-sinclick_eg_pol-set;
#X obj 98 237 s \$0-harmonic_level-set;
#X msg 123 209 0.05;
#X obj 73 292 s \$0-sinclick_aeg_dhmod-set;
#X obj 105 309 s \$0-harmonic-set;
#X obj 40 275 s \$0-sinclick_aeg_ahmod-set;
#X msg 41 250 0.7;
#X msg 63 221 0.9;
#X msg 143 254 2;
#X obj 258 355 s \$0-slew-set;
#X msg 263 321 10;
#X obj 219 62 s \$0-sinclick_vol-set;
#X msg 217 37 100;
#X obj 272 110 s \$0-hp-set;
#X connect 2 0 0 0;
#X connect 2 0 1 0;
#X connect 2 0 4 0;
#X connect 2 0 5 0;
#X connect 2 0 18 0;
#X connect 3 0 2 0;
#X connect 3 0 7 0;
#X connect 3 0 11 0;
#X connect 3 0 12 0;
#X connect 3 0 13 0;
#X connect 3 0 15 0;
#X connect 3 0 17 0;
#X connect 7 0 6 0;
#X connect 11 0 10 0;
#X connect 12 0 8 0;
#X connect 13 0 9 0;
#X connect 15 0 14 0;
#X connect 17 0 16 0;
#X restore 857 152 pd init;
#X obj 891 333 outlet;
#N canvas 28 99 1308 738 automation 0;
#X obj 46 342 s \$0-sinclick_af-set;
#X obj 60 361 s \$0-sinclick_df-set;
#X obj 214 342 s \$0-sinclick_eg-set;
#X obj 226 362 s \$0-sinclick_off-set;
#X obj 374 321 s \$0-sinclick_aa-set;
#X obj 388 340 s \$0-sinclick_da-set;
#X obj 411 361 s \$0-sinclick_vol-set;
#X obj 566 335 s \$0-sinclick_fr-set;
#X obj 581 356 s \$0-sinclick_fbias-set;
#X obj 744 333 s \$0-sinclick_ar-set;
#X obj 760 353 s \$0-sinclick_abias-set;
#X obj 183 417 s \$0-sinclick_eg_pol-set;
#X obj 791 252 s \$0-sinclick_aeg_ahmod-set;
#X obj 824 269 s \$0-sinclick_aeg_dhmod-set;
#X obj 856 286 s \$0-harmonic-set;
#X obj 973 339 s \$0-slew-set;
#X obj 684 500 s \$0-harmonic_level-set;
#X obj 768 182 t f f;
#X obj 683 159 t f f;
#X obj 638 155 t f f;
#X obj 592 155 t f f;
#X obj 158 99 inlet;
#X obj 780 158 outlet;
#X obj 861 156 s \$0-sinclick_offslew-set;
#X obj 1023 156 s \$0-dmodify;
#X obj 159 158 route af df feg pitch fpol aa da vol frand fbias arand
abias;
#X obj 569 411 s \$0-sinclick_aeg_ahmod;
#X obj 602 428 s \$0-sinclick_aeg_dhmod;
#X obj 634 445 s \$0-harmonic;
#X obj 670 465 s \$0-slew;
#X obj 1019 118 outlet;
#X obj 591 82 route ahmod dhmod harm hlev hslew randpat porta dmodify
on hp;
#X obj 1119 159 s \$0-hp-set;
#X obj 963 83 route dmod;
#X connect 17 0 29 0;
#X connect 17 1 15 0;
#X connect 18 0 28 0;
#X connect 18 1 14 0;
#X connect 19 0 27 0;
#X connect 19 1 13 0;
#X connect 20 0 26 0;
#X connect 20 1 12 0;
#X connect 21 0 25 0;
#X connect 25 0 0 0;
#X connect 25 1 1 0;
#X connect 25 2 2 0;
#X connect 25 3 3 0;
#X connect 25 4 11 0;
#X connect 25 5 4 0;
#X connect 25 6 5 0;
#X connect 25 7 6 0;
#X connect 25 8 7 0;
#X connect 25 9 8 0;
#X connect 25 10 9 0;
#X connect 25 11 10 0;
#X connect 25 12 31 0;
#X connect 31 0 20 0;
#X connect 31 1 19 0;
#X connect 31 2 18 0;
#X connect 31 3 16 0;
#X connect 31 4 17 0;
#X connect 31 5 22 0;
#X connect 31 6 23 0;
#X connect 31 7 24 0;
#X connect 31 8 30 0;
#X connect 31 9 32 0;
#X connect 31 10 33 0;
#X connect 33 0 24 0;
#X restore 932 128 pd automation;
#X obj 1020 53 route patch file;
#X obj 1094 239 s \$0-patch_on-set;
#X obj 161 448 t b f;
#X obj 169 474 * 0;
#X obj 249 183 line~;
#X obj 248 161 pack f 0;
#X obj 311 140 r \$0-sinclick_offslew-num;
#X obj 412 482 r \$0-sinclick_df-set-mod;
#X obj 423 504 r \$0-sinclick_da-set-mod;
#X obj 408 560 * 800;
#X obj 280 556 * 800;
#X obj 369 454 r \$0-dmodify;
#X obj 354 486 / 100;
#X obj 282 589 s \$0-sinclick_df-set;
#X obj 408 589 s \$0-sinclick_da-set;
#X obj 417 527 r \$0-sinclick_dhmod-set-mod;
#X obj 471 609 s \$0-sinclick_aeg_dhmod-set;
#X obj 484 559 * 1;
#X obj 116 80 t b f;
#X obj 159 80 s \$0-sinclick_off-set;
#X obj 58 80 moses 2;
#X obj 683 403 cnv 15 151 187 empty empty empty 15 6 0 10 -195008 -1109
0;
#X obj 603 427 vsl 12 121 0.01 1000 1 0 \$0-sinclick_af \$0-sinclick_af-set
fa 1 7 0 8 -227964 -90133 -355 0 0;
#X obj 603 554 nbx 5 10 0.001 10000 1 0 \$0-sinclick_af-num \$0-sinclick_af
empty 0 -6 0 8 -227964 -62784 -355 0.001 256;
#X obj 618 427 vsl 12 121 0.01 1000 1 0 \$0-sinclick_df \$0-sinclick_df-set
d 3 7 0 8 -227964 -90133 -355 0 0;
#X obj 603 567 nbx 5 10 0.001 10000 1 0 \$0-sinclick_df-num \$0-sinclick_df
empty 0 -6 0 8 -227964 -62784 -355 0.001 256;
#X obj 664 427 vsl 12 121 0.1 10000 1 0 \$0-sinclick_eg \$0-sinclick_eg-set
eg 1 7 0 8 -244344 -90133 -90133 0 0;
#X obj 649 554 nbx 5 10 -10000 10000 0 0 \$0-sinclick_eg-num \$0-sinclick_eg-pm
empty 0 -6 0 8 -244344 -62784 -90133 0 256;
#X obj 679 427 vsl 12 121 7 127 0 0 \$0-sinclick_off \$0-sinclick_off-set
os 1 7 0 8 -244344 -90133 -90133 0 0;
#X obj 649 567 nbx 5 10 0.001 10000 1 0 \$0-sinclick_off-num \$0-sinclick_off
empty 0 -6 0 8 -244344 -62784 -355 0.001 256;
#X obj 649 433 tgl 12 0 \$0-sinclick_eg_pol \$0-sinclick_eg_pol-set
pol 0 -5 0 7 -244344 -90133 -90133 1 1;
#X obj 695 427 vsl 12 121 0.01 1000 1 0 \$0-sinclick_aa \$0-sinclick_aa-set
aa 1 7 0 8 -212096 -355 -355 0 0;
#X obj 695 554 nbx 5 10 0.001 10000 1 0 \$0-sinclick_aa-num \$0-sinclick_aa
empty 0 -6 0 8 -212096 -355 -355 0.001 256;
#X obj 710 427 vsl 12 121 0.01 1000 1 0 \$0-sinclick_da \$0-sinclick_da-set
d 3 7 0 8 -212096 -355 -355 0 0;
#X obj 695 567 nbx 5 10 0.001 10000 1 0 \$0-sinclick_da-num \$0-sinclick_da
empty 0 -6 0 8 -212096 -355 -355 0.001 256;
#X obj 779 579 nbx 3 10 0 150 0 0 \$0-sinclick_vol-num \$0-sinclick_vol-set
vol 31 6 0 8 -261689 -258699 -143491 100 256;
#X obj 633 427 vsl 12 101 0 100 0 0 \$0-sinclick_fr \$0-sinclick_fr-set
rand -5 -7 0 8 -227964 -90133 -355 0 0;
#X obj 603 580 nbx 5 10 0 100 0 0 \$0-sinclick_fr-num \$0-sinclick_fr
empty 0 -6 0 8 -227964 -62784 -355 0 256;
#X obj 649 459 vsl 12 81 -1 0 0 0 \$0-sinclick_fbias \$0-sinclick_fbias-set
bias -7 90 0 8 -244344 -90133 -90133 8000 0;
#X obj 649 580 nbx 5 10 -1 0 0 0 \$0-sinclick_fbias-num \$0-sinclick_fbias
empty 0 -6 0 8 -244344 -62784 -355 0 256;
#X obj 725 427 vsl 12 101 0 100 0 0 \$0-sinclick_ar \$0-sinclick_ar-set
rand -4 -7 0 8 -212096 -355 -355 0 0;
#X obj 695 580 nbx 5 10 0 100 0 0 \$0-sinclick_ar-num \$0-sinclick_ar
empty 0 -6 0 8 -212096 -355 -355 0 256;
#X obj 740 447 vsl 12 81 -1 0 0 0 \$0-sinclick_abias \$0-sinclick_abias-set
bias -3 89 0 8 -212096 -355 -355 8000 0;
#X obj 724 541 nbx 4 10 -1 0 0 0 \$0-sinclick_abias-num \$0-sinclick_abias
empty 0 -6 0 8 -212096 -355 -355 0 256;
#X obj 769 579 tgl 10 0 \$0-patch_vol_set \$0-patch_vol_set_on patch
-26 5 0 8 -261689 -143491 -143491 1 1;
#X obj 976 532 bng 9 250 50 0 \$0-patches_clear \$0-patches_clear-bng
clear -6 -6 0 6 -257472 -62784 -90133;
#X obj 765 499 vsl 12 41 0.05 20 1 0 \$0-sinclick_aeg_ahmod \$0-sinclick_aeg_ahmod-set
a- -3 49 0 8 -163823 -42246 -42246 1762 0;
#X obj 780 499 vsl 12 41 0.05 20 1 0 \$0-sinclick_aeg_dhmod \$0-sinclick_aeg_dhmod-set
d-mod -8 49 0 8 -163823 -42246 -42246 1930 0;
#X obj 741 554 nbx 4 10 0.01 1000 0 0 \$0-sinclick_aeg_ahmod-num \$0-sinclick_aeg_ahmod
empty 0 -6 0 8 -163823 -355 -355 0.7 256;
#X obj 779 554 nbx 4 10 0.01 1000 1 0 \$0-sinclick_aeg_dhmod-num \$0-sinclick_aeg_dhmod
empty 0 -6 0 8 -163823 -42246 -42246 0.9 256;
#X obj 761 415 vsl 12 31 1 16 0 0 \$0-harmonic \$0-harmonic-set harm
-7 39 0 8 -208870 -42246 -42246 200 0;
#X obj 776 415 vsl 12 41 10 10000 1 0 \$0-sinclick_slew \$0-sinclick_slew-set
slew -3 49 0 8 -192484 -42246 -42246 0 0;
#X obj 757 470 nbx 4 10 0.01 1000 0 0 \$0-harmonic-num \$0-harmonic
empty 0 -6 0 8 -204771 -355 -355 2 256;
#X obj 757 483 nbx 4 10 1 100000 1 0 \$0-sinclick_slew-num \$0-sinclick_slew
empty 0 -6 0 8 -200673 -42246 -42246 1 256;
#X obj 779 566 nbx 4 10 0.01 1 1 0 \$0-harmonic_level \$0-harmonic_level-set
hlevel -32 6 0 8 -176101 -42246 -42246 0.05 256;
#X obj 690 411 nbx 3 10 1 999 1 0 \$0-sinclick_offslew-num \$0-sinclick_offslew-set
porta 0 -4 0 8 -244344 -90133 -90133 1 256;
#X obj 800 441 cnv 15 34 104 empty empty empty 20 12 0 14 -183672 -66577
0;
#X obj 803 451 nbx 3 12 0 120 0 0 empty empty empty -2 -6 0 7 -257472
-1109 -90133 0 256;
#X obj 803 475 nbx 3 12 1 15 0 0 \$0-patch-num \$0-patch-set select
0 -5 0 7 -17235 -261234 -17235 1 256;
#X obj 810 509 bng 12 250 50 0 \$0-store_patch \$0-store_patch-bng
store -3 -5 0 7 -17235 -262130 -17235;
#X obj 802 533 bng 10 250 50 0 \$0-patches_load \$0-patches_load-bng
load -1 -5 0 7 -2498 -262144 -13381;
#X obj 821 525 bng 10 250 50 0 \$0-patches_save \$0-patches_save-bng
save -4 16 0 7 -159809 -262144 -86277;
#X obj 803 451 nbx 3 12 0 120 0 0 \$0-patches-dummy \$0-patches-num
patches 0 -5 0 7 -17235 -203904 -17235 0 256;
#X obj 823 490 bng 8 250 50 0 \$0-store_plus \$0-store_plus-bng + -7
4 0 10 -17235 -198336 -17235;
#X obj 803 490 bng 8 250 50 0 \$0-store_minus \$0-store_minus-bng -
8 3 0 10 -17235 -257985 -17235;
#X obj 818 422 tgl 15 0 \$0-patch_on \$0-patch_on-set on -13 7 0 10
-233017 -90133 -90133 0 1;
#X obj 803 409 tgl 12 0 \$0-hp \$0-hp-set hp -13 6 0 10 -233017 -13330
-13330 1 1;
#X floatatom 429 428 5 0 0 0 - - -, f 5;
#N canvas 6 75 803 539 automation_out 0;
#X obj 441 -215 r \$0-sinclick_aeg_ahmod-num;
#X obj 474 -198 r \$0-sinclick_aeg_dhmod-num;
#X obj 506 -181 r \$0-harmonic-num;
#X obj 542 -161 r \$0-slew-num;
#X obj 50 -407 r \$0-sinclick_af-num;
#X obj 64 -388 r \$0-sinclick_df-num;
#X obj 82 -368 r \$0-sinclick_off-num;
#X obj 95 -348 r \$0-sinclick_eg-num;
#X obj 111 -328 r \$0-sinclick_eg_pol-num;
#X obj 132 -308 r \$0-sinclick_aa-num;
#X obj 146 -289 r \$0-sinclick_da-num;
#X obj 169 -268 r \$0-sinclick_vol-num;
#X obj 191 -247 r \$0-sinclick_fr-num;
#X obj 206 -226 r \$0-sinclick_fbias-num;
#X obj 223 -206 r \$0-sinclick_ar-num;
#X obj 239 -186 r \$0-sinclick_abias-num;
#X obj 556 -126 r \$0-harmonic_level-num;
#X obj 586 -100 r \$0-sinclick_offslew-num;
#X msg 15 -347 af \$1;
#X obj 14 -241 inlet;
#X obj 18 -198 prepend file;
#X obj 73 11 spigot;
#X obj 72 53 outlet;
#X msg 35 -303 df \$1;
#X msg 59 -259 pitch \$1;
#X msg 82 -221 feg \$1;
#X obj 15 -366 change;
#X obj 35 -323 change;
#X obj 59 -279 change;
#X obj 82 -240 change;
#X obj 130 -240 change;
#X msg 130 -221 aa \$1;
#X obj 149 -201 change;
#X msg 149 -182 da \$1;
#X obj 172 -161 change;
#X msg 172 -141 vol \$1;
#X obj 193 -118 change;
#X obj 215 -79 change;
#X msg 193 -98 frand \$1;
#X msg 215 -59 fbias \$1;
#X obj 249 -118 change;
#X obj 271 -79 change;
#X msg 249 -98 arand \$1;
#X msg 271 -59 abias \$1;
#X obj 318 -120 change;
#X obj 340 -81 change;
#X obj 374 -120 change;
#X obj 396 -81 change;
#X msg 318 -100 ahmod \$1;
#X msg 340 -61 dhmod \$1;
#X msg 374 -100 harm \$1;
#X msg 396 -61 hlev \$1;
#X obj 431 -120 change;
#X obj 453 -81 change;
#X msg 431 -100 hslew \$1;
#X msg 453 -61 porta \$1;
#X msg 401 -314 1;
#X msg 462 -313 0;
#X obj 344 -344 loadbang;
#X obj 392 -390 inlet;
#X obj 462 -384 inlet;
#X obj 392 -22 r \$0-patch-num;
#X msg 392 41 patch \$1;
#X obj 567 -42 change;
#X obj 573 -67 r \$0-hp;
#X msg 567 -22 hp \$1;
#X msg 101 -200 fpol \$1;
#X obj 391 8 change;
#X msg 455 59 patches \$1;
#X obj 455 39 r \$0-patches-num;
#X connect 0 0 44 0;
#X connect 1 0 45 0;
#X connect 2 0 46 0;
#X connect 3 0 52 0;
#X connect 4 0 26 0;
#X connect 5 0 27 0;
#X connect 6 0 28 0;
#X connect 7 0 29 0;
#X connect 8 0 66 0;
#X connect 9 0 30 0;
#X connect 10 0 32 0;
#X connect 11 0 34 0;
#X connect 12 0 36 0;
#X connect 13 0 37 0;
#X connect 14 0 40 0;
#X connect 15 0 41 0;
#X connect 16 0 47 0;
#X connect 17 0 53 0;
#X connect 18 0 21 0;
#X connect 19 0 20 0;
#X connect 20 0 22 0;
#X connect 21 0 22 0;
#X connect 23 0 21 0;
#X connect 24 0 21 0;
#X connect 25 0 21 0;
#X connect 26 0 18 0;
#X connect 27 0 23 0;
#X connect 28 0 24 0;
#X connect 29 0 25 0;
#X connect 30 0 31 0;
#X connect 31 0 21 0;
#X connect 32 0 33 0;
#X connect 33 0 21 0;
#X connect 34 0 35 0;
#X connect 35 0 21 0;
#X connect 36 0 38 0;
#X connect 37 0 39 0;
#X connect 38 0 21 0;
#X connect 39 0 21 0;
#X connect 40 0 42 0;
#X connect 41 0 43 0;
#X connect 42 0 21 0;
#X connect 43 0 21 0;
#X connect 44 0 48 0;
#X connect 45 0 49 0;
#X connect 46 0 50 0;
#X connect 47 0 51 0;
#X connect 48 0 21 0;
#X connect 49 0 21 0;
#X connect 50 0 21 0;
#X connect 51 0 21 0;
#X connect 52 0 54 0;
#X connect 53 0 55 0;
#X connect 54 0 21 0;
#X connect 55 0 21 0;
#X connect 56 0 21 1;
#X connect 57 0 21 1;
#X connect 58 0 56 0;
#X connect 59 0 56 0;
#X connect 60 0 57 0;
#X connect 61 0 67 0;
#X connect 62 0 22 0;
#X connect 63 0 65 0;
#X connect 64 0 63 0;
#X connect 65 0 21 0;
#X connect 66 0 21 0;
#X connect 67 0 62 0;
#X connect 68 0 22 0;
#X connect 69 0 68 0;
#X restore 916 258 pd automation_out;
#X obj 1048 133 r \$0-patch-num;
#X obj 1047 154 t b f b;
#X obj 130 265 +~;
#X obj 1096 188 inlet~;
#X obj 74 486 outlet~;
#X obj 97 449 hip~ 18;
#X obj 63 428 *~ 0;
#X obj 97 428 *~ 1;
#X obj 169 346 r \$0-hp;
#X obj 111 391 == 0;
#X obj 1057 100 s \$0-patch-set;
#X obj 473 127 pack f 30;
#X obj 473 148 line~;
#X obj 131 346 *~;
#X obj 85 126 route bang;
#X connect 2 0 11 0;
#X connect 3 0 14 1;
#X connect 4 0 22 1;
#X connect 4 0 25 1;
#X connect 5 0 28 1;
#X connect 5 0 26 1;
#X connect 6 0 194 0;
#X connect 7 0 31 1;
#X connect 7 0 29 1;
#X connect 8 0 34 1;
#X connect 8 0 32 1;
#X connect 11 0 182 0;
#X connect 12 0 13 0;
#X connect 12 0 100 0;
#X connect 13 0 14 0;
#X connect 13 0 94 0;
#X connect 14 0 193 0;
#X connect 16 0 11 1;
#X connect 17 0 116 0;
#X connect 18 0 21 0;
#X connect 21 0 2 0;
#X connect 21 0 3 0;
#X connect 21 0 96 0;
#X connect 21 1 42 0;
#X connect 21 1 43 0;
#X connect 21 1 44 0;
#X connect 21 1 45 0;
#X connect 22 0 2 1;
#X connect 23 1 47 0;
#X connect 24 0 25 0;
#X connect 25 0 22 0;
#X connect 26 0 2 2;
#X connect 27 0 28 0;
#X connect 28 0 26 0;
#X connect 29 0 3 1;
#X connect 29 0 92 0;
#X connect 29 0 98 0;
#X connect 30 0 31 0;
#X connect 31 0 29 0;
#X connect 32 0 3 2;
#X connect 32 0 91 0;
#X connect 32 0 97 0;
#X connect 33 0 34 0;
#X connect 34 0 32 0;
#X connect 35 1 48 0;
#X connect 36 0 23 0;
#X connect 37 0 35 0;
#X connect 38 0 24 0;
#X connect 39 0 27 0;
#X connect 40 0 30 0;
#X connect 41 0 33 0;
#X connect 42 0 41 0;
#X connect 43 0 40 0;
#X connect 44 0 39 0;
#X connect 45 0 38 0;
#X connect 47 0 44 1;
#X connect 47 0 45 1;
#X connect 48 0 43 1;
#X connect 48 0 42 1;
#X connect 49 0 86 0;
#X connect 49 1 51 0;
#X connect 50 0 88 0;
#X connect 50 1 52 0;
#X connect 51 0 24 1;
#X connect 51 0 27 1;
#X connect 51 1 87 0;
#X connect 52 0 33 1;
#X connect 52 0 30 1;
#X connect 52 1 89 0;
#X connect 55 0 46 0;
#X connect 58 0 179 0;
#X connect 58 1 190 0;
#X connect 59 0 4 0;
#X connect 60 0 5 0;
#X connect 61 0 16 0;
#X connect 62 0 63 0;
#X connect 63 0 17 0;
#X connect 64 0 7 0;
#X connect 65 0 8 0;
#X connect 66 0 67 0;
#X connect 67 0 113 0;
#X connect 67 0 191 0;
#X connect 68 0 72 0;
#X connect 69 0 73 0;
#X connect 70 0 74 0;
#X connect 71 0 75 0;
#X connect 72 0 36 0;
#X connect 73 0 49 0;
#X connect 74 0 37 0;
#X connect 75 0 50 0;
#X connect 76 0 80 0;
#X connect 76 1 77 0;
#X connect 77 0 78 0;
#X connect 77 1 79 0;
#X connect 78 0 80 1;
#X connect 79 0 80 1;
#X connect 80 0 82 0;
#X connect 81 0 80 0;
#X connect 83 0 111 0;
#X connect 84 0 76 0;
#X connect 84 0 85 0;
#X connect 86 0 27 1;
#X connect 86 0 24 1;
#X connect 87 0 27 1;
#X connect 87 0 24 1;
#X connect 88 0 33 1;
#X connect 88 0 30 1;
#X connect 89 0 33 1;
#X connect 89 0 30 1;
#X connect 90 0 15 0;
#X connect 93 0 21 0;
#X connect 93 1 131 0;
#X connect 94 0 102 0;
#X connect 95 0 94 0;
#X connect 96 0 94 1;
#X connect 97 0 96 2;
#X connect 98 0 96 1;
#X connect 99 0 101 0;
#X connect 100 0 95 0;
#X connect 101 0 100 1;
#X connect 102 0 187 0;
#X connect 102 0 186 0;
#X connect 103 0 98 1;
#X connect 104 0 97 1;
#X connect 105 0 114 0;
#X connect 106 0 99 0;
#X connect 107 0 99 1;
#X connect 110 0 58 2;
#X connect 110 1 112 0;
#X connect 111 0 190 0;
#X connect 111 1 58 0;
#X connect 111 2 110 0;
#X connect 113 0 114 0;
#X connect 113 1 114 1;
#X connect 114 0 102 1;
#X connect 115 0 12 1;
#X connect 116 0 115 0;
#X connect 117 0 116 1;
#X connect 118 0 121 1;
#X connect 119 0 120 1;
#X connect 120 0 125 0;
#X connect 121 0 124 0;
#X connect 122 0 123 0;
#X connect 123 0 121 0;
#X connect 123 0 120 0;
#X connect 123 0 128 0;
#X connect 126 0 128 1;
#X connect 128 0 127 0;
#X connect 129 0 21 0;
#X connect 129 1 130 0;
#X connect 131 1 129 0;
#X connect 178 0 123 0;
#X connect 179 0 109 0;
#X connect 180 0 181 0;
#X connect 181 0 179 1;
#X connect 181 1 58 1;
#X connect 181 2 179 2;
#X connect 182 0 12 0;
#X connect 183 0 182 1;
#X connect 185 0 184 0;
#X connect 186 0 184 0;
#X connect 187 0 185 0;
#X connect 188 0 189 0;
#X connect 188 0 187 1;
#X connect 189 0 186 1;
#X connect 191 0 192 0;
#X connect 192 0 193 1;
#X connect 193 0 187 0;
#X connect 193 0 186 0;
#X connect 194 0 21 0;
#X connect 194 1 93 0;
#X coords 0 -1 1 1 235 194 1 600 400;
