#N canvas 23 117 1316 651 10;
#X declare -lib zexy;
#X declare -lib creb;
#X obj 839 341 declare -lib zexy;
#X obj 839 361 declare -lib creb;
#X obj 131 224 ead~;
#X obj 390 400 ead~;
#X floatatom 142 165 5 0 0 0 - - -, f 5;
#X floatatom 179 165 5 0 0 0 - - -, f 5;
#X obj 87 103 inlet;
#X floatatom 306 164 5 0 0 0 - - -, f 5;
#X floatatom 343 164 5 0 0 0 - - -, f 5;
#X text 159 124 feg;
#X text 311 114 aeg;
#X obj 131 244 *~;
#X obj 131 286 +~;
#X obj 131 306 osc~;
#X obj 131 326 *~;
#X obj 937 176 switch~;
#X floatatom 216 165 5 0 0 0 - - -, f 5;
#X floatatom 252 138 5 0 0 0 - - -, f 5;
#X obj 62 119 bng 15 250 50 0 empty empty empty 0 -6 0 8 -262144 -1
-1;
#X text 126 108 a d depth offset;
#X floatatom 385 164 5 0 0 0 - - -, f 5;
#X obj 131 346 *~ 1;
#X text 298 103 a d level;
#X obj 98 182 t b b;
#X obj 439 348 +;
#X obj 438 220 moses 0;
#X obj 439 314 +;
#X obj 439 331 *;
#X obj 518 348 +;
#X obj 518 314 +;
#X obj 518 331 *;
#X obj 590 348 +;
#X obj 590 314 +;
#X obj 590 331 *;
#X obj 662 348 +;
#X obj 662 314 +;
#X obj 662 331 *;
#X obj 643 212 moses 0;
#X obj 438 200 * 100;
#X obj 643 192 * 100;
#X obj 439 280 / 10000;
#X obj 518 280 / 10000;
#X obj 590 280 / 10000;
#X obj 662 280 / 10000;
#X obj 662 263 random 100;
#X obj 590 263 random 100;
#X obj 518 263 random 100;
#X obj 439 263 random 100;
#X msg 706 128 5 0 2 0;
#X obj 482 236 moses 10001;
#X obj 658 229 moses 10001;
#X obj 512 201 moses -1.01;
#X obj 688 193 moses -1.01;
#X obj 572 236 moses 0.01;
#X obj 748 227 moses 0.01;
#X msg 609 128 100 -1 20 0;
#X text 447 109 ferr% fbias(-1<x<0) aerr% abias;
#X obj 706 111 loadbang;
#X text 730 318 efa6df 590051;
#X obj 307 71 mtof;
#X obj 491 69 dbtorms;
#X floatatom 646 44 5 0 0 0 - - -, f 5;
#X floatatom 667 77 5 0 0 0 - - -, f 5;
#X floatatom 824 42 5 0 0 0 - - -, f 5;
#X floatatom 838 77 5 0 0 0 - - -, f 5;
#X obj 1066 373 t b f;
#X obj 1093 403 sel 0 1;
#X msg 1096 428 -1;
#X msg 1124 428 1;
#X obj 1062 456 * 1;
#X obj 1046 305 r \$0-sinclick_eg;
#X obj 1064 481 s \$0-sinclick_eg-pm;
#X obj 1023 27 inlet;
#X obj 1023 84 s \$0-sinclick_patch-set;
#X obj 1073 342 r \$0-sinclick_eg_pol;
#X floatatom 1149 374 5 0 0 0 - - -, f 5;
#X msg 605 192 -1;
#X msg 604 215 0;
#X msg 783 254 -1;
#X msg 782 277 0;
#X obj 943 132 r \$0-patch_on;
#X floatatom 678 372 5 0 0 0 - - -, f 5;
#X floatatom 605 370 5 0 0 0 - - -, f 5;
#X obj 91 140 sel 1;
#X obj 238 340 *~;
#X obj 240 318 osc~;
#X obj 342 342 ead~;
#X obj 381 310 * 1;
#X obj 352 310 * 1;
#X obj 210 470 pack f 10;
#X obj 239 298 *~;
#X obj 210 490 line~;
#X obj 180 377 *~ 0.05;
#X obj 211 397 r \$0-harmonic_level;
#X obj 209 425 r \$0-harmonic-num;
#X obj 267 449 r \$0-slew-num;
#X obj 1023 53 route patch file;
#X obj 161 448 t b f;
#X obj 169 474 * 0;
#X obj 249 183 line~;
#X obj 248 161 pack f 0;
#X obj 412 482 r \$0-sinclick_df-set-mod;
#X obj 423 504 r \$0-sinclick_da-set-mod;
#X obj 408 560 * 800;
#X obj 280 556 * 800;
#X obj 369 454 r \$0-dmodify;
#X obj 354 486 / 100;
#X obj 417 527 r \$0-sinclick_dhmod-set-mod;
#X obj 484 559 * 1;
#X obj 116 80 t b f;
#X obj 58 80 moses 2;
#X obj 976 532 bng 9 250 50 0 \$0-patches_clear \$0-patches_clear-bng
clear -6 -6 0 6 -257472 -62784 -90133;
#X obj 800 441 cnv 15 34 104 empty empty empty 20 12 0 14 -183672 -66577
0;
#X obj 803 451 nbx 3 12 0 120 0 0 empty empty empty -2 -6 0 7 -257472
-1109 -90133 0 256;
#X obj 803 475 nbx 3 12 1 12 0 0 \$0-patch-num \$0-patch-set select
0 -5 0 7 -17235 -261234 -17235 1 256;
#X obj 803 451 nbx 3 12 0 120 0 0 \$0-patches-dummy \$0-patches-num
patches 0 -5 0 7 -17235 -203904 -17235 0 256;
#X obj 823 490 bng 8 250 50 0 \$0-store_plus \$0-store_plus-bng + -7
4 0 10 -17235 -198336 -17235;
#X obj 803 490 bng 8 250 50 0 \$0-store_minus \$0-store_minus-bng -
8 3 0 10 -17235 -257985 -17235;
#X floatatom 429 428 5 0 0 0 - - -, f 5;
#X obj 1552 429 r \$0-patch-num;
#X obj 130 265 +~;
#X obj 1096 188 inlet~;
#X obj 74 486 outlet~;
#X obj 97 449 hip~ 18;
#X obj 63 428 *~ 0;
#X obj 97 428 *~ 1;
#X obj 169 346 r \$0-hp;
#X obj 111 391 == 0;
#X obj 838 60 r \$0-sinclick_abias;
#X obj 824 25 r \$0-sinclick_ar;
#X obj 667 60 r \$0-sinclick_fbias;
#X obj 646 27 r \$0-sinclick_fr;
#X obj 491 52 r \$0-sinclick_vol;
#X obj 468 32 r \$0-sinclick_da;
#X obj 454 13 r \$0-sinclick_aa;
#X obj 306 54 r \$0-sinclick_off;
#X obj 293 31 r \$0-sinclick_eg;
#X obj 126 34 r \$0-sinclick_af;
#X obj 140 53 r \$0-sinclick_df;
#X obj 159 80 s \$0-sinclick_off;
#X obj 237 213 r \$0-sinclick_aeg_ahmod;
#X obj 237 236 r \$0-sinclick_aeg_dhmod;
#X obj 311 140 r \$0-sinclick_offslew;
#X obj 282 589 s \$0-sinclick_df;
#X obj 408 589 s \$0-sinclick_da;
#X obj 471 609 s \$0-sinclick_aeg_dhmod;
#X obj 1782 228 s \$0-harmonic_level-set;
#X obj 1906 142 s \$0-dmodify;
#X obj 1218 84 route af df feg pitch fpol aa da vol frand fbias arand
abias;
#X obj 1667 139 s \$0-sinclick_aeg_ahmod;
#X obj 1700 156 s \$0-sinclick_aeg_dhmod;
#X obj 1732 173 s \$0-harmonic;
#X obj 1768 193 s \$0-slew;
#X obj 1667 106 route ahmod dhmod harm hlev hslew randpat porta dmodify
on hp;
#X obj 1217 107 s \$0-sinclick_af;
#X obj 1231 126 s \$0-sinclick_df;
#X obj 1270 149 s \$0-sinclick_eg;
#X obj 1282 169 s \$0-sinclick_off;
#X obj 1327 191 s \$0-sinclick_eg_pol;
#X obj 1369 114 s \$0-sinclick_aa;
#X obj 1383 133 s \$0-sinclick_da;
#X obj 1421 153 s \$0-sinclick_vol;
#X obj 1466 173 s \$0-sinclick_fr;
#X obj 1507 194 s \$0-sinclick_fbias;
#X obj 1520 112 s \$0-sinclick_ar;
#X obj 1536 132 s \$0-sinclick_abias;
#X obj 1872 184 s \$0-sinclick_offslew;
#X obj 1987 141 s \$0-hp;
#X obj 1945 163 s \$0-patch_on;
#X obj 1234 370 f;
#X obj 1231 327 r \$0-store_patch;
#X obj 1232 429 prepend add;
#X obj 1229 462 t b a;
#X obj 1299 551 msgfile;
#X obj 1566 612 spigot;
#X msg 1610 611 0;
#X msg 1611 594 1;
#X msg 1382 519 add patches 0;
#X obj 1379 481 loadbang;
#X obj 1290 781 route patches;
#X msg 1316 468 goto 0;
#X obj 1244 527 + 1;
#X obj 1228 544 f;
#X msg 1228 597 replace patches \$1;
#X msg 1279 518 this;
#X obj 1228 492 t b b b;
#X obj 1383 338 r \$0-sinclick_eg_pol;
#X msg 1783 557 range 1 \$1;
#X obj 1556 447 t b f;
#X msg 1571 471 goto \$1;
#X msg 1536 470 this;
#X obj 1663 481 r \$0-patches_load;
#X obj 1663 498 openpanel;
#X msg 1737 532 read \$1;
#X msg 1693 532 goto 0;
#X msg 1663 532 this;
#X obj 1843 411 r \$0-patches_save;
#X obj 1843 439 savepanel;
#X obj 1842 468 makesymbol %s.txt;
#X msg 1840 512 write \$1;
#X msg 1436 452 print;
#X obj 1291 751 route list;
#X obj 1663 515 t b b a b;
#X msg 1679 592 clear;
#X obj 1492 405 r \$0-patches_clear;
#X obj 1489 427 t b b;
#X obj 2078 349 r \$0-harmonic_level;
#X obj 1702 431 symbol;
#X obj 2006 480 random;
#X obj 1232 395 pack f f f f f f f f f f f f f f f f f f;
#X obj 1479 558 unpack f f f f f f f f f f f f f f f f f f;
#X obj 1450 490 s \$0-sinclick_df-set-mod;
#X obj 1472 509 s \$0-sinclick_da-set-mod;
#X obj 1339 425 packel 2;
#X obj 1357 445 packel 7;
#X obj 1480 527 s \$0-sinclick_dhmod-set-mod;
#X obj 1411 425 packel 14;
#X obj 1566 629 s \$0-patches-num;
#X obj 1783 574 s \$0-patch-set;
#X obj 1246 263 r \$0-sinclick_af;
#X obj 1260 282 r \$0-sinclick_df;
#X obj 1414 263 r \$0-sinclick_eg;
#X obj 1426 283 r \$0-sinclick_off;
#X obj 1574 242 r \$0-sinclick_aa;
#X obj 1588 261 r \$0-sinclick_da;
#X obj 1611 282 r \$0-sinclick_vol;
#X obj 1766 256 r \$0-sinclick_fr;
#X obj 1781 277 r \$0-sinclick_fbias;
#X obj 1944 254 r \$0-sinclick_ar;
#X obj 1960 274 r \$0-sinclick_abias;
#X obj 1992 298 r \$0-sinclick_aeg_ahmod;
#X obj 2025 315 r \$0-sinclick_aeg_dhmod;
#X obj 2057 332 r \$0-harmonic;
#X obj 2097 366 r \$0-sinclick_slew;
#X obj 2109 387 r \$0-sinclick_offslew;
#X obj 1289 702 s \$0-sinclick_df;
#X obj 1275 683 s \$0-sinclick_af;
#X obj 1443 683 s \$0-sinclick_eg;
#X obj 1455 703 s \$0-sinclick_off;
#X obj 1412 758 s \$0-sinclick_eg_pol;
#X obj 1603 662 s \$0-sinclick_aa;
#X obj 1617 681 s \$0-sinclick_da;
#X obj 1640 702 s \$0-sinclick_vol;
#X obj 1795 676 s \$0-sinclick_fr;
#X obj 1810 697 s \$0-sinclick_fbias;
#X obj 1973 674 s \$0-sinclick_ar;
#X obj 1989 694 s \$0-sinclick_abias;
#X obj 1818 609 s \$0-sinclick_offslew;
#X obj 1888 832 s \$0-harmonic_level;
#X obj 1899 806 s \$0-sinclick_slew;
#X obj 1863 786 s \$0-harmonic;
#X obj 1831 769 s \$0-sinclick_aeg_dhmod;
#X obj 1798 752 s \$0-sinclick_aeg_ahmod;
#X obj 1939 563 s \$0-patch-num;
#X obj 762 664 s \$0-sinclick_abias-set;
#X obj 746 684 s \$0-sinclick_fbias-set;
#X msg 756 620 1;
#X obj 756 603 loadbang;
#X obj 772 644 s \$0-patch_vol_set_on;
#X obj 778 724 s \$0-sinclick_eg_pol-set;
#X obj 749 785 s \$0-harmonic_level-set;
#X msg 774 757 0.05;
#X obj 724 840 s \$0-sinclick_aeg_dhmod-set;
#X obj 756 857 s \$0-harmonic-set;
#X obj 691 823 s \$0-sinclick_aeg_ahmod-set;
#X msg 692 798 0.7;
#X msg 714 769 0.9;
#X msg 794 802 2;
#X obj 909 903 s \$0-slew-set;
#X msg 914 869 10;
#X obj 870 610 s \$0-sinclick_vol-set;
#X msg 868 585 100;
#X obj 923 658 s \$0-hp-set;
#X connect 2 0 11 0;
#X connect 3 0 14 1;
#X connect 4 0 24 1;
#X connect 4 0 27 1;
#X connect 5 0 30 1;
#X connect 5 0 28 1;
#X connect 6 0 83 0;
#X connect 7 0 33 1;
#X connect 7 0 31 1;
#X connect 8 0 36 1;
#X connect 8 0 34 1;
#X connect 11 0 120 0;
#X connect 12 0 13 0;
#X connect 12 0 90 0;
#X connect 13 0 14 0;
#X connect 13 0 84 0;
#X connect 14 0 21 0;
#X connect 16 0 11 1;
#X connect 17 0 100 0;
#X connect 18 0 23 0;
#X connect 20 0 21 1;
#X connect 21 0 125 0;
#X connect 21 0 124 0;
#X connect 23 0 2 0;
#X connect 23 0 3 0;
#X connect 23 0 86 0;
#X connect 23 1 44 0;
#X connect 23 1 45 0;
#X connect 23 1 46 0;
#X connect 23 1 47 0;
#X connect 24 0 2 1;
#X connect 25 1 49 0;
#X connect 26 0 27 0;
#X connect 27 0 24 0;
#X connect 28 0 2 2;
#X connect 29 0 30 0;
#X connect 30 0 28 0;
#X connect 31 0 3 1;
#X connect 31 0 82 0;
#X connect 31 0 88 0;
#X connect 32 0 33 0;
#X connect 33 0 31 0;
#X connect 34 0 3 2;
#X connect 34 0 81 0;
#X connect 34 0 87 0;
#X connect 35 0 36 0;
#X connect 36 0 34 0;
#X connect 37 1 50 0;
#X connect 38 0 25 0;
#X connect 39 0 37 0;
#X connect 40 0 26 0;
#X connect 41 0 29 0;
#X connect 42 0 32 0;
#X connect 43 0 35 0;
#X connect 44 0 43 0;
#X connect 45 0 42 0;
#X connect 46 0 41 0;
#X connect 47 0 40 0;
#X connect 49 0 46 1;
#X connect 49 0 47 1;
#X connect 50 0 45 1;
#X connect 50 0 44 1;
#X connect 51 0 76 0;
#X connect 51 1 53 0;
#X connect 52 0 78 0;
#X connect 52 1 54 0;
#X connect 53 0 26 1;
#X connect 53 0 29 1;
#X connect 53 1 77 0;
#X connect 54 0 35 1;
#X connect 54 0 32 1;
#X connect 54 1 79 0;
#X connect 57 0 48 0;
#X connect 59 0 17 0;
#X connect 60 0 20 0;
#X connect 60 0 97 0;
#X connect 61 0 38 0;
#X connect 62 0 51 0;
#X connect 63 0 39 0;
#X connect 64 0 52 0;
#X connect 65 0 69 0;
#X connect 65 1 66 0;
#X connect 66 0 67 0;
#X connect 66 1 68 0;
#X connect 67 0 69 1;
#X connect 68 0 69 1;
#X connect 69 0 71 0;
#X connect 70 0 69 0;
#X connect 72 0 96 0;
#X connect 74 0 65 0;
#X connect 74 0 75 0;
#X connect 76 0 29 1;
#X connect 76 0 26 1;
#X connect 77 0 29 1;
#X connect 77 0 26 1;
#X connect 78 0 35 1;
#X connect 78 0 32 1;
#X connect 79 0 35 1;
#X connect 79 0 32 1;
#X connect 80 0 15 0;
#X connect 83 0 23 0;
#X connect 83 1 110 0;
#X connect 84 0 92 0;
#X connect 85 0 84 0;
#X connect 86 0 84 1;
#X connect 87 0 86 2;
#X connect 88 0 86 1;
#X connect 89 0 91 0;
#X connect 90 0 85 0;
#X connect 91 0 90 1;
#X connect 92 0 125 0;
#X connect 92 0 124 0;
#X connect 93 0 98 0;
#X connect 94 0 89 0;
#X connect 95 0 89 1;
#X connect 96 0 73 0;
#X connect 96 1 207 0;
#X connect 96 2 148 0;
#X connect 97 0 98 0;
#X connect 97 1 98 1;
#X connect 98 0 92 1;
#X connect 99 0 12 1;
#X connect 100 0 99 0;
#X connect 101 0 104 1;
#X connect 102 0 103 1;
#X connect 103 0 144 0;
#X connect 104 0 143 0;
#X connect 105 0 106 0;
#X connect 106 0 104 0;
#X connect 106 0 103 0;
#X connect 106 0 108 0;
#X connect 107 0 108 1;
#X connect 108 0 145 0;
#X connect 109 0 23 0;
#X connect 109 1 139 0;
#X connect 110 1 109 0;
#X connect 118 0 106 0;
#X connect 119 0 188 0;
#X connect 120 0 12 0;
#X connect 121 0 120 1;
#X connect 123 0 122 0;
#X connect 124 0 122 0;
#X connect 125 0 123 0;
#X connect 126 0 127 0;
#X connect 126 0 125 1;
#X connect 127 0 124 1;
#X connect 128 0 64 0;
#X connect 129 0 63 0;
#X connect 130 0 62 0;
#X connect 131 0 61 0;
#X connect 132 0 60 0;
#X connect 133 0 8 0;
#X connect 134 0 7 0;
#X connect 135 0 59 0;
#X connect 136 0 16 0;
#X connect 137 0 4 0;
#X connect 138 0 5 0;
#X connect 140 0 88 1;
#X connect 141 0 87 1;
#X connect 142 0 100 1;
#X connect 148 0 154 0;
#X connect 148 1 155 0;
#X connect 148 2 156 0;
#X connect 148 3 157 0;
#X connect 148 4 158 0;
#X connect 148 5 159 0;
#X connect 148 6 160 0;
#X connect 148 7 161 0;
#X connect 148 8 162 0;
#X connect 148 9 163 0;
#X connect 148 10 164 0;
#X connect 148 11 165 0;
#X connect 148 12 153 0;
#X connect 153 0 149 0;
#X connect 153 1 150 0;
#X connect 153 2 151 0;
#X connect 153 3 146 0;
#X connect 153 4 152 0;
#X connect 153 5 208 0;
#X connect 153 6 166 0;
#X connect 153 7 147 0;
#X connect 153 8 168 0;
#X connect 153 9 167 0;
#X connect 169 0 209 0;
#X connect 170 0 169 0;
#X connect 171 0 172 0;
#X connect 172 0 185 0;
#X connect 172 1 173 0;
#X connect 173 0 201 0;
#X connect 174 0 175 0;
#X connect 174 0 187 0;
#X connect 174 0 217 0;
#X connect 175 0 174 1;
#X connect 176 0 174 1;
#X connect 177 0 173 0;
#X connect 178 0 177 0;
#X connect 179 0 181 0;
#X connect 179 0 174 0;
#X connect 179 0 208 1;
#X connect 179 1 210 0;
#X connect 180 0 173 0;
#X connect 181 0 182 1;
#X connect 182 0 183 0;
#X connect 182 0 187 0;
#X connect 182 0 208 1;
#X connect 182 0 217 0;
#X connect 183 0 173 0;
#X connect 184 0 173 0;
#X connect 185 0 182 0;
#X connect 185 1 184 0;
#X connect 185 2 180 0;
#X connect 186 0 209 4;
#X connect 187 0 218 0;
#X connect 188 0 190 0;
#X connect 188 1 189 0;
#X connect 189 0 173 0;
#X connect 190 0 173 0;
#X connect 191 0 192 0;
#X connect 192 0 202 0;
#X connect 193 0 173 0;
#X connect 194 0 173 0;
#X connect 195 0 173 0;
#X connect 196 0 197 0;
#X connect 197 0 198 0;
#X connect 198 0 199 0;
#X connect 199 0 173 0;
#X connect 200 0 173 0;
#X connect 201 0 179 0;
#X connect 202 0 195 0;
#X connect 202 1 194 0;
#X connect 202 1 176 0;
#X connect 202 2 193 0;
#X connect 202 3 203 0;
#X connect 203 0 173 0;
#X connect 204 0 205 0;
#X connect 205 0 177 0;
#X connect 205 1 203 0;
#X connect 206 0 209 15;
#X connect 207 0 202 0;
#X connect 208 0 253 0;
#X connect 209 0 171 0;
#X connect 209 0 213 0;
#X connect 209 0 214 0;
#X connect 209 0 216 0;
#X connect 210 0 236 0;
#X connect 210 1 211 0;
#X connect 210 1 235 0;
#X connect 210 2 237 0;
#X connect 210 3 238 0;
#X connect 210 4 239 0;
#X connect 210 5 240 0;
#X connect 210 6 212 0;
#X connect 210 6 241 0;
#X connect 210 7 242 0;
#X connect 210 8 243 0;
#X connect 210 9 244 0;
#X connect 210 10 245 0;
#X connect 210 11 246 0;
#X connect 210 12 252 0;
#X connect 210 13 215 0;
#X connect 210 13 251 0;
#X connect 210 14 250 0;
#X connect 210 15 248 0;
#X connect 210 16 249 0;
#X connect 210 17 247 0;
#X connect 213 0 211 0;
#X connect 214 0 212 0;
#X connect 216 0 215 0;
#X connect 219 0 169 1;
#X connect 220 0 209 1;
#X connect 221 0 209 2;
#X connect 222 0 209 3;
#X connect 223 0 209 5;
#X connect 224 0 209 6;
#X connect 225 0 209 7;
#X connect 226 0 209 8;
#X connect 227 0 209 9;
#X connect 228 0 209 10;
#X connect 229 0 209 11;
#X connect 230 0 209 12;
#X connect 231 0 209 13;
#X connect 232 0 209 14;
#X connect 233 0 209 16;
#X connect 234 0 209 17;
#X connect 256 0 254 0;
#X connect 256 0 255 0;
#X connect 256 0 258 0;
#X connect 256 0 259 0;
#X connect 256 0 272 0;
#X connect 257 0 256 0;
#X connect 257 0 261 0;
#X connect 257 0 265 0;
#X connect 257 0 266 0;
#X connect 257 0 267 0;
#X connect 257 0 269 0;
#X connect 257 0 271 0;
#X connect 261 0 260 0;
#X connect 265 0 264 0;
#X connect 266 0 262 0;
#X connect 267 0 263 0;
#X connect 269 0 268 0;
#X connect 271 0 270 0;
#X coords 0 0 1 1 235 194 0;
