#N canvas 51 156 1315 573 10;
#X declare -lib iem_tab;
#X declare -lib zexy;
#X obj 609 348 declare -lib iem_tab;
#X obj 598 450 declare -lib zexy;
#X floatatom 116 181 0 0 0 0 - - -;
#X obj 116 289 +~ 1;
#X obj 160 430 *~;
#X obj 311 249 line~;
#X floatatom 311 189 0 0 0 0 - - -;
#X obj 311 229 pack 0 100;
#X obj 160 311 +~;
#X obj 311 278 samphold~;
#X obj 116 250 samphold~;
#X obj 116 225 sig~;
#X obj 116 270 *~;
#X floatatom 20 56 0 0 0 0 - - -;
#X obj 20 37 loadbang;
#X obj 289 374 -~ 0.5;
#X obj 289 394 *~ 0.5;
#X obj 289 414 cos~;
#X obj 20 75 expr pow(2 \, $f1/1200);
#X obj 20 95 pack f 20;
#X obj 20 115 line~;
#X obj 21 196 /~;
#X obj 189 1 inlet;
#X obj 308 151 *;
#X obj 116 200 * 44.1;
#X obj 38 174 *~ 0.001;
#X obj 311 209 * 44.1;
#X obj 160 454 outlet~;
#X msg 355 209 0;
#X obj 160 337 +~ 0;
#X obj 549 259 * 44.1;
#X obj 282 92 abs;
#X obj 893 63 cnv 15 191 84 empty empty empty 20 12 0 14 -158649 -29201
0;
#N canvas 51 294 761 546 automation 0;
#X obj 142 63 inlet;
#X text 168 126 win;
#X text 258 125 delay;
#X text 325 128 feedback;
#X text 397 127 mix;
#X obj 107 298 t f f;
#X msg 101 180 0;
#X msg 53 254 46;
#X msg 57 222 1;
#X obj 39 152 loadbang;
#X msg 50 328 200;
#X obj 107 394 i;
#X obj 357 230 outlet;
#X obj 129 340 s \$0-pish_pf-set;
#X obj 107 416 s \$0-pish_pc-set;
#X obj 122 320 wrap -0.499999 0.5;
#X obj 453 186 outlet;
#X obj 376 401 s \$0-patch-set;
#X msg 555 191 1;
#X obj 555 164 loadbang;
#X obj 430 218 s \$0-on-set;
#X obj 305 299 s \$0-win-set;
#X obj 239 271 s \$0-stretch-set;
#X msg 173 234 1;
#X obj 179 263 t f f;
#X obj 151 290 s \$0-stretch;
#X obj 149 209 t b b;
#X msg 146 165 5;
#X obj 420 160 s \$0-stretch-pre-set;
#X obj 535 82 t f f;
#X obj 562 102 s \$0-off-set;
#X obj 535 122 s \$0-off;
#X obj 616 242 s \$0-porta-set;
#X obj 141 82 route trans win stretch patch file on randpat pc pf spre
off meth;
#X obj 629 149 s \$0-method-set;
#X obj 617 200 route porta revchunk;
#X obj 648 277 s \$0-revchunk-set;
#X connect 0 0 33 0;
#X connect 5 0 11 0;
#X connect 5 1 15 0;
#X connect 6 0 5 0;
#X connect 7 0 21 0;
#X connect 9 0 7 0;
#X connect 9 0 8 0;
#X connect 9 0 6 0;
#X connect 9 0 10 0;
#X connect 9 0 26 0;
#X connect 11 0 14 0;
#X connect 15 0 13 0;
#X connect 18 0 20 0;
#X connect 19 0 18 0;
#X connect 23 0 24 0;
#X connect 24 0 25 0;
#X connect 24 1 22 0;
#X connect 26 0 23 0;
#X connect 26 1 27 0;
#X connect 27 0 28 0;
#X connect 29 0 31 0;
#X connect 29 1 30 0;
#X connect 33 0 5 0;
#X connect 33 1 21 0;
#X connect 33 2 24 0;
#X connect 33 3 17 0;
#X connect 33 4 12 0;
#X connect 33 5 20 0;
#X connect 33 6 16 0;
#X connect 33 7 14 0;
#X connect 33 8 13 0;
#X connect 33 9 28 0;
#X connect 33 10 29 0;
#X connect 33 11 34 0;
#X connect 33 12 35 0;
#X connect 35 0 32 0;
#X connect 35 1 36 0;
#X restore 813 229 pd automation;
#N canvas 83 127 831 643 patches 0;
#X obj 21 140 f;
#X obj 21 14 r \$0-store_patch;
#X obj 18 222 prepend add;
#X obj 18 242 t b a;
#X obj 91 319 msgfile;
#X obj 356 382 spigot;
#X msg 400 381 0;
#X msg 401 364 1;
#X msg 172 289 add patches 0;
#X obj 169 251 loadbang;
#X obj 182 353 route patches;
#X msg 106 238 goto 0;
#X obj 34 297 + 1;
#X obj 18 314 f;
#X msg 18 367 replace patches \$1;
#X msg 69 288 this;
#X obj 18 262 t b b b;
#X msg 573 327 range 1 \$1;
#X obj 346 217 t b f;
#X msg 361 241 goto \$1;
#X msg 326 240 this;
#X obj 453 251 r \$0-patches_load;
#X obj 453 268 openpanel;
#X msg 527 302 read \$1;
#X msg 483 302 goto 0;
#X msg 453 302 this;
#X obj 633 181 r \$0-patches_save;
#X obj 633 209 savepanel;
#X obj 632 238 makesymbol %s.txt;
#X msg 628 262 write \$1;
#X obj 182 334 route list;
#X obj 281 171 r \$0-patches_clear;
#X obj 279 197 t b b;
#X msg 359 278 clear;
#X obj 453 285 t b b a b;
#X obj 36 33 r \$0-pish-pf;
#X obj 50 52 r \$0-pish-pc;
#X obj 41 529 s \$0-pish-pf-set;
#X obj 82 510 s \$0-pish-pc-set;
#X obj 559 175 inlet;
#X obj 566 482 outlet;
#X obj 528 214 symbol;
#X obj 440 83 r \$0-pish_plus;
#X obj 440 127 + 1;
#X obj 402 128 - 1;
#X obj 402 103 f;
#X obj 402 63 r \$0-pish_minus;
#X obj 440 103 f;
#X obj 425 154 % 1;
#X obj 631 409 random;
#X obj 687 482 outlet;
#X obj 724 136 inlet;
#X obj 425 174 s \$0-patch-set;
#X obj 324 410 s \$0-patches-num;
#X obj 573 344 s \$0-patch-set;
#X obj 348 194 inlet;
#X obj 67 89 r \$0-stretch-num;
#X obj 87 123 r \$0-stretch-pre;
#X obj 260 507 s \$0-line_prob-set;
#X obj 282 486 s \$0-stretch-pre-set;
#X obj 250 528 s \$0-stretch-set;
#X obj 213 568 s \$0-win-set;
#X obj 186 589 s \$0-win;
#X obj 223 548 s \$0-stretch;
#X obj 223 508 t f f;
#X obj 186 508 t f f;
#X obj 110 145 r \$0-off-num;
#X obj 441 478 s \$0-off-set;
#X obj 414 458 t f f;
#X obj 414 498 s \$0-off;
#X obj 133 166 r \$0-porta;
#X obj 309 461 s \$0-porta-set;
#X obj 18 202 pack f f f f f f f f f;
#X obj 179 421 unpack f f f f f f f f f;
#X obj 458 435 s \$0-edge_out-set;
#X obj 77 106 r \$0-method;
#X obj 58 72 r \$0-win;
#X obj 164 187 r \$0-revchunk;
#X connect 0 0 72 0;
#X connect 1 0 0 0;
#X connect 2 0 3 0;
#X connect 3 0 16 0;
#X connect 3 1 4 0;
#X connect 4 0 30 0;
#X connect 5 0 6 0;
#X connect 5 0 17 0;
#X connect 5 0 53 0;
#X connect 6 0 5 1;
#X connect 7 0 5 1;
#X connect 8 0 4 0;
#X connect 9 0 8 0;
#X connect 10 0 12 0;
#X connect 10 0 5 0;
#X connect 10 0 48 1;
#X connect 10 0 49 1;
#X connect 10 1 73 0;
#X connect 11 0 4 0;
#X connect 12 0 13 1;
#X connect 13 0 14 0;
#X connect 13 0 17 0;
#X connect 13 0 48 1;
#X connect 13 0 49 1;
#X connect 13 0 53 0;
#X connect 14 0 4 0;
#X connect 15 0 4 0;
#X connect 16 0 13 0;
#X connect 16 1 15 0;
#X connect 16 2 11 0;
#X connect 17 0 54 0;
#X connect 18 0 20 0;
#X connect 18 1 19 0;
#X connect 19 0 4 0;
#X connect 20 0 4 0;
#X connect 21 0 22 0;
#X connect 22 0 34 0;
#X connect 22 0 40 0;
#X connect 23 0 4 0;
#X connect 24 0 4 0;
#X connect 25 0 4 0;
#X connect 26 0 27 0;
#X connect 27 0 28 0;
#X connect 28 0 29 0;
#X connect 28 0 40 0;
#X connect 29 0 4 0;
#X connect 30 0 10 0;
#X connect 31 0 32 0;
#X connect 32 0 8 0;
#X connect 32 1 33 0;
#X connect 33 0 4 0;
#X connect 34 0 25 0;
#X connect 34 1 24 0;
#X connect 34 1 7 0;
#X connect 34 2 23 0;
#X connect 34 3 33 0;
#X connect 35 0 0 1;
#X connect 36 0 72 1;
#X connect 39 0 41 0;
#X connect 41 0 34 0;
#X connect 42 0 47 0;
#X connect 43 0 48 0;
#X connect 44 0 48 0;
#X connect 45 0 44 0;
#X connect 46 0 45 0;
#X connect 47 0 43 0;
#X connect 48 0 52 0;
#X connect 49 0 50 0;
#X connect 51 0 49 0;
#X connect 55 0 18 0;
#X connect 55 0 45 1;
#X connect 55 0 47 1;
#X connect 56 0 72 3;
#X connect 57 0 72 5;
#X connect 64 0 63 0;
#X connect 64 1 60 0;
#X connect 65 0 62 0;
#X connect 65 1 61 0;
#X connect 66 0 72 6;
#X connect 68 0 69 0;
#X connect 68 1 67 0;
#X connect 70 0 72 7;
#X connect 72 0 2 0;
#X connect 73 0 37 0;
#X connect 73 1 38 0;
#X connect 73 2 65 0;
#X connect 73 3 64 0;
#X connect 73 4 58 0;
#X connect 73 5 59 0;
#X connect 73 6 68 0;
#X connect 73 7 71 0;
#X connect 73 8 74 0;
#X connect 75 0 72 4;
#X connect 76 0 72 2;
#X connect 77 0 72 8;
#X restore 825 291 pd patches;
#X obj 835 349 outlet;
#X obj 813 209 inlet;
#X msg 892 291 patch \$1;
#N canvas 6 75 767 703 auto_out 0;
#X obj 36 33 r \$0-pish-pf;
#X obj 50 52 r \$0-pish-pc;
#X obj 65 590 outlet;
#X obj 531 185 inlet;
#X obj 668 316 inlet;
#X obj 63 93 change;
#X obj 112 113 change;
#X obj 168 133 change;
#X obj 217 154 change;
#X obj 531 246 prepend file;
#X obj 42 115 change;
#X obj 12 139 change;
#X msg 569 341 patch \$1;
#X msg 71 170 win \$1;
#X obj 630 317 inlet;
#X msg 669 340 0;
#X msg 633 340 1;
#X obj 93 529 spigot 1;
#X msg 31 195 pc \$1;
#X msg 20 235 pf \$1;
#X obj 559 306 inlet;
#X obj 63 72 r \$0-win-num;
#X obj 112 92 r \$0-stretch-num;
#X msg 92 140 stretch \$1;
#X obj 168 112 r \$0-off-num;
#X msg 162 171 off \$1;
#X obj 217 133 r \$0-method;
#X msg 195 198 method \$1;
#X obj 233 227 r \$0-tablen;
#X msg 224 256 tablen \$1;
#X msg 273 295 playlen \$1;
#X obj 338 227 *;
#X obj 331 196 t b f;
#X obj 641 286 loadbang;
#X connect 0 0 11 0;
#X connect 1 0 10 0;
#X connect 3 0 9 0;
#X connect 4 0 15 0;
#X connect 5 0 13 0;
#X connect 6 0 23 0;
#X connect 6 0 32 0;
#X connect 7 0 25 0;
#X connect 8 0 27 0;
#X connect 9 0 2 0;
#X connect 10 0 18 0;
#X connect 11 0 19 0;
#X connect 12 0 2 0;
#X connect 13 0 17 0;
#X connect 14 0 16 0;
#X connect 15 0 17 1;
#X connect 16 0 17 1;
#X connect 17 0 2 0;
#X connect 18 0 17 0;
#X connect 19 0 17 0;
#X connect 20 0 12 0;
#X connect 21 0 5 0;
#X connect 22 0 6 0;
#X connect 23 0 17 0;
#X connect 24 0 7 0;
#X connect 25 0 17 0;
#X connect 26 0 8 0;
#X connect 27 0 17 0;
#X connect 28 0 31 0;
#X connect 28 0 29 0;
#X connect 29 0 17 0;
#X connect 30 0 17 0;
#X connect 31 0 30 0;
#X connect 32 0 31 0;
#X connect 32 1 31 1;
#X connect 33 0 16 0;
#X restore 833 322 pd auto_out;
#X obj 906 237 r \$0-patch-num;
#X obj 907 261 t b f b;
#X obj 801 78 cnv 15 283 106 empty empty empty 20 12 0 14 -158649 -29201
0;
#X obj 801 161 cnv 15 141 23 empty empty empty 20 12 0 14 -183672 -66577
0;
#X obj 803 170 nbx 3 12 0 120 0 0 empty empty empty -2 -6 0 7 -257472
-1109 -90133 0 256;
#X obj 845 170 nbx 3 12 1 2 0 0 \$0-patch-num \$0-patch-set select
0 -5 0 7 -17235 -261234 -17235 1 256;
#X obj 890 170 bng 12 250 50 0 \$0-store_patch \$0-store_patch-bng
store -3 -5 0 7 -17235 -262130 -17235;
#X obj 911 164 bng 10 250 50 0 \$0-patches_load \$0-patches_load-bng
load -5 16 0 7 -2498 -262144 -13381;
#X obj 924 164 bng 10 250 50 0 \$0-patches_save \$0-patches_save-bng
save 0 16 0 7 -159809 -262144 -86277;
#X obj 803 170 nbx 3 12 0 120 0 0 \$0-patches-dummy \$0-patches-num
patches 0 -5 0 7 -17235 -203904 -17235 0 256;
#X obj 876 174 bng 8 250 50 0 \$0-store_plus \$0-store_plus-bng + 2
-4 0 7 -17235 -198336 -17235;
#X obj 834 174 bng 8 250 50 0 \$0-store_minus \$0-store_minus-bng -
1 -5 0 10 -17235 -257985 -17235;
#X obj 899 67 hsl 181 12 -1 1 0 1 \$0-pish_pf \$0-pish_pf-set pitch_fine
24 6 0 8 -208384 -1109 -1109 9000 1;
#X obj 803 81 nbx 7 12 -127 127 0 0 \$0-pish_p \$0-pish_p-set empty
0 -8 0 10 -204288 -13330 -13330 0 256;
#X obj 879 81 hsl 201 12 -100 100 0 0 \$0-pish_pc \$0-pish_pc-set pitch_coarse
20 6 0 8 -204288 -1109 -1109 10000 1;
#X obj 894 435 +;
#X obj 858 411 t b f;
#X obj 858 391 r \$0-pish_pf;
#X obj 894 411 r \$0-pish_pc;
#X obj 894 455 s \$0-pish_p-set;
#X obj 1032 409 s \$0-pish_pc-set;
#X obj 996 389 s \$0-pish_pf-set;
#X msg 1014 362 0;
#X obj 1012 340 loadbang;
#X obj 81 19 r \$0-pish_p;
#X obj 81 39 * 100;
#X obj 803 95 nbx 5 12 1e-07 16384 0 0 \$0-win-num \$0-win empty 0
-8 0 10 -204288 -13330 -13330 46 256;
#X obj 861 95 hsl 219 12 0.04 16384 1 0 \$0-win \$0-win-set window_ms
26 6 0 8 -204288 -1109 -1109 11889 1;
#X obj 116 162 r \$0-win-num;
#X obj 803 109 hradio 10 1 0 12 \$0-stretch-pre \$0-stretch-pre-set
preset 123 5 0 8 -1109 -204288 -1109 5;
#X obj 861 121 hsl 219 12 0.03125 32 1 0 \$0-stretch \$0-stretch-set
stretch 26 6 0 8 -204288 -1109 -1109 10900 1;
#X obj 803 121 nbx 5 12 1e-07 16384 0 0 \$0-stretch-num \$0-stretch
empty 0 -8 0 10 -204288 -13330 -13330 1 256;
#X floatatom 1039 149 7 0 0 0 ms #0-tablen #0-tablen-num, f 7;
#X obj 331 111 r \$0-stretch-num;
#X symbolatom 1009 167 12 0 0 0 sample #0-tab_lbl -, f 12;
#X obj 948 151 tgl 13 0 \$0-on \$0-on-set on 17 7 0 10 -191407 -259265
-86853 1 1;
#X obj 1116 115 r \$0-on;
#N canvas 0 0 450 300 preset 0;
#X msg 134 199 0.125;
#X msg 173 199 0.25;
#X msg 206 199 0.5;
#X msg 272 199 1;
#X msg 299 199 2;
#X msg 326 199 3;
#X msg 353 199 4;
#X msg 380 200 8;
#X msg 233 199 0.666;
#X obj 196 282 s \$0-stretch-set;
#X msg 83 199 0.06125;
#X obj 145 100 r \$0-stretch-pre;
#X obj 145 120 sel 0 1 2 3 4 5 6 7 8 9 10 11;
#X msg 404 200 16;
#X msg 430 200 32;
#X connect 0 0 9 0;
#X connect 1 0 9 0;
#X connect 2 0 9 0;
#X connect 3 0 9 0;
#X connect 4 0 9 0;
#X connect 5 0 9 0;
#X connect 6 0 9 0;
#X connect 7 0 9 0;
#X connect 8 0 9 0;
#X connect 10 0 9 0;
#X connect 11 0 12 0;
#X connect 12 0 10 0;
#X connect 12 1 0 0;
#X connect 12 2 1 0;
#X connect 12 3 2 0;
#X connect 12 4 8 0;
#X connect 12 5 3 0;
#X connect 12 6 4 0;
#X connect 12 7 5 0;
#X connect 12 8 6 0;
#X connect 12 9 7 0;
#X connect 12 10 13 0;
#X connect 12 11 14 0;
#X connect 13 0 9 0;
#X connect 14 0 9 0;
#X restore 999 237 pd preset;
#X obj 803 135 nbx 5 12 0 16384 0 0 \$0-off-num \$0-off empty 0 -8
0 10 -204288 -13330 -13330 0 256;
#X obj 861 135 hsl 219 12 0.04 16384 1 0 \$0-off \$0-off-set offset_ms
26 6 0 8 -204288 -1109 -1109 0 1;
#X obj 549 238 r \$0-off-num;
#X obj 803 149 nbx 4 10 0 100 0 0 \$0-porta \$0-porta-set porta 37
5 0 8 -204288 -1109 -1109 0 256;
#X obj 88 108 r \$0-porta;
#X obj 282 67 f;
#X msg 512 195 trans \$1;
#X obj 1090 300 table \$0-dummy 10;
#X obj 305 46 t b f;
#X obj 1104 78 tgl 12 0 \$0-method \$0-method-set meth 15 6 0 10 -262144
-1 -1 0 1;
#X obj 160 381 +~ 0;
#N canvas 360 185 1000 600 methods 0;
#X obj 386 291 makesymbol chunk_%s_%s;
#X obj 284 339 t b a;
#X msg 774 375 set \$1;
#X obj 301 458 s \$0-tablen;
#X obj 774 396 s \$0-tab_lbl;
#X obj 531 101 makesymbol s32-%s-%s;
#X msg 312 375 set \$1;
#X obj 301 437 / 44.1;
#X obj 304 397 tab_get_size \$0-dummy;
#X obj 189 71 spigot;
#X obj 222 53 tgl 15 0 empty empty empty 17 7 0 10 -262144 -1 -1 0
1;
#X obj 474 129 unpack;
#X obj 593 197 makefilename sizes-32-%d;
#X obj 474 171 swap;
#X obj 584 237 tabread sizes-32-1;
#X msg 593 217 set \$1;
#X obj 520 167 spigot;
#X obj 242 58 == 0;
#X obj 287 62 r \$0-method;
#X obj 553 148 tgl 15 0 empty empty empty 17 7 0 10 -262144 -1 -1 0
1;
#X obj 553 128 == 0;
#X obj 553 44 r \$0-method;
#X obj 474 109 spigot;
#X obj 507 91 tgl 15 0 empty empty empty 17 7 0 10 -262144 -1 -1 0
1;
#X obj 507 71 == 1;
#X obj 694 144 makesymbol s32-%s-%s;
#X obj 188 107 spigot;
#X obj 231 107 tgl 15 0 empty empty empty 17 7 0 10 -262144 -1 -1 0
1;
#X obj 248 85 == 1;
#X obj 132 134 unpack;
#X obj 147 156 swap;
#X obj 176 134 makefilename chunk_sizes-%d;
#X msg 274 217 set \$1;
#X obj 140 221 tabread chunk_sizes-1;
#X msg 206 159 set \$1;
#X obj 188 195 makesymbol chunk_%s_%s;
#X obj 431 228 makefilename input%d;
#X obj 399 47 unpack f f f;
#X msg 122 290 0;
#X obj 402 93 samplerate~;
#X obj 402 115 * 0.001;
#X obj 490 23 r \$0-on;
#X obj 490 43 sel 1;
#X obj 404 138 * 44.1;
#X obj 352 138 * 44.1;
#X obj 354 192 s \$0-sampup;
#X obj 94 463 outlet;
#X obj 156 463 outlet;
#X obj 97 19 inlet;
#X obj 135 19 route rechunk s32 pchunk;
#X connect 0 0 1 0;
#X connect 1 0 8 0;
#X connect 1 1 2 0;
#X connect 1 1 6 0;
#X connect 2 0 4 0;
#X connect 5 0 16 0;
#X connect 6 0 8 0;
#X connect 7 0 3 0;
#X connect 8 0 7 0;
#X connect 9 0 0 0;
#X connect 10 0 9 1;
#X connect 11 0 13 0;
#X connect 11 1 13 1;
#X connect 12 0 15 0;
#X connect 13 0 14 0;
#X connect 13 1 12 0;
#X connect 14 0 7 0;
#X connect 14 0 38 0;
#X connect 15 0 14 0;
#X connect 16 0 1 0;
#X connect 17 0 10 0;
#X connect 18 0 17 0;
#X connect 18 0 28 0;
#X connect 19 0 16 1;
#X connect 20 0 19 0;
#X connect 21 0 20 0;
#X connect 21 0 24 0;
#X connect 22 0 11 0;
#X connect 22 0 25 0;
#X connect 23 0 22 1;
#X connect 24 0 23 0;
#X connect 25 0 2 0;
#X connect 26 0 29 0;
#X connect 26 0 35 0;
#X connect 27 0 26 1;
#X connect 28 0 27 0;
#X connect 29 0 30 0;
#X connect 29 1 30 1;
#X connect 30 0 33 0;
#X connect 30 1 31 0;
#X connect 31 0 34 0;
#X connect 32 0 4 0;
#X connect 33 0 7 0;
#X connect 33 0 38 0;
#X connect 34 0 33 0;
#X connect 35 0 32 0;
#X connect 36 0 2 0;
#X connect 37 0 44 0;
#X connect 37 1 43 0;
#X connect 37 1 3 0;
#X connect 37 2 36 0;
#X connect 38 0 46 0;
#X connect 39 0 40 0;
#X connect 40 0 43 1;
#X connect 40 0 44 1;
#X connect 40 0 45 0;
#X connect 41 0 42 0;
#X connect 42 0 39 0;
#X connect 43 0 47 0;
#X connect 44 0 46 0;
#X connect 48 0 49 0;
#X connect 49 0 26 0;
#X connect 49 0 9 0;
#X connect 49 1 22 0;
#X connect 49 1 5 0;
#X connect 49 2 37 0;
#X restore 672 243 pd methods;
#X obj 189 21 route odur note;
#X obj 287 21 sel 1;
#X obj 249 330 r \$0-tab_lbl;
#X obj 209 157 r \$0-sampup;
#X obj 1116 135 switch~ 1 1 1;
#X obj 21 222 phasor~;
#X obj 21 280 *~ 1;
#X obj 21 248 -~ 0;
#X obj 967 109 tgl 10 0 \$0-revchunk \$0-revchunk-set reverse_chunks
13 5 0 10 -204288 -1109 -1109 0 1;
#X obj 185 75 r \$0-revchunk;
#X obj 185 94 sel 0 1;
#X msg 185 113 0;
#X msg 185 132 1;
#X msg 207 113 1;
#X msg 207 132 -1;
#X obj 282 112 t f f;
#X floatatom 549 304 5 0 0 0 - - -, f 5;
#X msg 369 21 note 0;
#X obj 159 408 tabread4~ chunk_1_1;
#X connect 2 0 24 0;
#X connect 2 0 25 0;
#X connect 3 0 8 0;
#X connect 4 0 27 0;
#X connect 5 0 9 0;
#X connect 6 0 26 0;
#X connect 7 0 5 0;
#X connect 8 0 29 0;
#X connect 9 0 8 1;
#X connect 10 0 12 0;
#X connect 11 0 10 0;
#X connect 12 0 3 0;
#X connect 13 0 18 0;
#X connect 14 0 13 0;
#X connect 15 0 16 0;
#X connect 16 0 17 0;
#X connect 17 0 4 1;
#X connect 18 0 19 0;
#X connect 19 0 20 0;
#X connect 20 0 21 0;
#X connect 21 0 94 0;
#X connect 22 0 89 0;
#X connect 23 0 7 1;
#X connect 24 0 11 0;
#X connect 25 0 21 1;
#X connect 26 0 7 0;
#X connect 28 0 5 0;
#X connect 29 0 87 0;
#X connect 30 0 29 1;
#X connect 30 0 105 0;
#X connect 31 0 104 0;
#X connect 33 0 34 1;
#X connect 33 1 34 2;
#X connect 34 0 38 0;
#X connect 34 1 37 0;
#X connect 36 0 33 0;
#X connect 36 0 88 0;
#X connect 37 0 33 0;
#X connect 38 0 35 0;
#X connect 39 0 40 0;
#X connect 40 0 38 2;
#X connect 40 1 34 0;
#X connect 40 1 38 1;
#X connect 40 2 38 3;
#X connect 54 0 58 0;
#X connect 55 0 54 0;
#X connect 55 1 54 1;
#X connect 56 0 55 0;
#X connect 57 0 54 0;
#X connect 61 0 60 0;
#X connect 61 0 59 0;
#X connect 62 0 61 0;
#X connect 63 0 64 0;
#X connect 64 0 13 0;
#X connect 67 0 2 0;
#X connect 72 0 23 1;
#X connect 75 0 93 0;
#X connect 79 0 30 0;
#X connect 81 0 19 1;
#X connect 82 0 31 0;
#X connect 83 0 33 0;
#X connect 85 0 82 0;
#X connect 85 1 83 0;
#X connect 87 0 107 0;
#X connect 88 0 87 1;
#X connect 88 1 82 1;
#X connect 89 0 82 0;
#X connect 89 1 85 0;
#X connect 89 2 90 0;
#X connect 90 0 82 0;
#X connect 91 0 107 0;
#X connect 92 0 26 1;
#X connect 92 0 24 1;
#X connect 94 0 96 0;
#X connect 95 0 10 1;
#X connect 95 0 12 1;
#X connect 95 0 9 1;
#X connect 95 0 15 0;
#X connect 96 0 95 0;
#X connect 98 0 99 0;
#X connect 99 0 100 0;
#X connect 99 0 101 0;
#X connect 99 1 102 0;
#X connect 99 1 103 0;
#X connect 100 0 96 1;
#X connect 101 0 95 1;
#X connect 102 0 96 1;
#X connect 103 0 95 1;
#X connect 104 0 6 0;
#X connect 104 1 23 0;
#X connect 104 1 28 0;
#X connect 106 0 89 0;
#X connect 107 0 4 0;
#X coords 0 -1 1 1 285 127 1 800 60;
