#N canvas 16 116 1192 669 10;
#X declare -lib zexy;
#X declare -lib creb;
#X obj 217 381 declare -lib zexy;
#X obj 215 406 declare -lib creb;
#X obj 80 224 ead~;
#X obj 231 222 ead~;
#X obj 29 44 inlet;
#X text 93 115 feg;
#X text 260 103 aeg;
#X obj 80 244 *~;
#X obj 80 266 +~;
#X obj 80 306 osc~;
#X obj 80 326 *~;
#X obj 982 252 switch~;
#X obj 79 451 outlet~;
#X floatatom 165 165 5 0 0 0 - - -, f 5;
#X floatatom 202 165 5 0 0 0 - - -, f 5;
#X obj 25 183 bng 15 250 50 0 empty empty empty 0 -6 0 8 -262144 -1
-1;
#X text 60 99 a d depth offset;
#X text 247 92 a d level;
#X obj 47 182 t b b;
#X obj 388 348 +;
#X obj 387 220 moses 0;
#X obj 388 314 +;
#X obj 388 331 *;
#X obj 467 348 +;
#X obj 467 314 +;
#X obj 467 331 *;
#X obj 539 348 +;
#X obj 539 314 +;
#X obj 539 331 *;
#X obj 611 348 +;
#X obj 611 314 +;
#X obj 611 331 *;
#X obj 592 212 moses 0;
#X obj 495 158 unpack f f f f;
#X obj 387 200 * 100;
#X obj 592 192 * 100;
#X obj 388 280 / 10000;
#X obj 467 280 / 10000;
#X obj 539 280 / 10000;
#X obj 611 280 / 10000;
#X obj 611 263 random 100;
#X obj 539 263 random 100;
#X obj 467 263 random 100;
#X obj 388 263 random 100;
#X msg 655 128 5 0 2 0;
#X obj 431 236 moses 10001;
#X obj 607 229 moses 10001;
#X obj 461 201 moses -1.01;
#X obj 637 193 moses -1.01;
#X obj 521 236 moses 0.01;
#X obj 697 227 moses 0.01;
#X msg 558 128 100 -1 20 0;
#X text 396 109 ferr% fbias(-1<x<0) aerr% abias;
#X obj 655 111 loadbang;
#X obj 601 416 cnv 15 196 178 empty empty empty 6 6 0 10 -207168 -45076
0;
#X obj 777 168 s \$0-sinclick_abias-set;
#X obj 761 188 s \$0-sinclick_fbias-set;
#X msg 771 124 1;
#X obj 771 107 loadbang;
#N canvas 12 120 1027 655 patches 0;
#X obj 36 33 r \$0-sinclick_af-num;
#X obj 50 52 r \$0-sinclick_df-num;
#X obj 204 33 r \$0-sinclick_eg-num;
#X obj 216 53 r \$0-sinclick_off-num;
#X obj 364 12 r \$0-sinclick_aa-num;
#X obj 378 31 r \$0-sinclick_da-num;
#X obj 401 52 r \$0-sinclick_vol-num;
#X obj 556 26 r \$0-sinclick_fr-num;
#X obj 571 47 r \$0-sinclick_fbias-num;
#X obj 704 24 r \$0-sinclick_ar-num;
#X obj 720 44 r \$0-sinclick_abias-num;
#X obj 24 140 f;
#X obj 21 97 r \$0-store_patch;
#X obj 22 199 prepend add;
#X obj 19 232 t b a;
#X obj 89 321 msgfile;
#X obj 411 544 spigot;
#X msg 455 545 0;
#X msg 455 528 1;
#X msg 172 289 add patches 0;
#X obj 169 251 loadbang;
#X obj 80 551 route patches;
#X msg 106 238 goto 0;
#X obj 34 297 + 1;
#X obj 18 314 f;
#X msg 18 367 replace patches \$1;
#X msg 69 288 this;
#X obj 18 262 t b b b;
#X obj 173 108 r \$0-sinclick_eg_pol;
#X msg 545 548 range 1 \$1;
#X obj 346 217 t b f;
#X msg 361 241 goto \$1;
#X msg 326 240 this;
#X obj 453 251 r \$0-patches_load;
#X obj 453 268 openpanel;
#X msg 527 302 read \$1;
#X msg 483 302 goto 0;
#X msg 453 302 this;
#X obj 633 181 r \$0-patches_save;
#X obj 633 209 savepanel;
#X msg 630 282 write \$1;
#X obj 80 466 s \$0-sinclick_af-set;
#X obj 94 485 s \$0-sinclick_df-set;
#X obj 233 453 s \$0-sinclick_eg-set;
#X obj 245 473 s \$0-sinclick_off-set;
#X obj 393 432 s \$0-sinclick_aa-set;
#X obj 407 451 s \$0-sinclick_da-set;
#X obj 430 472 s \$0-sinclick_vol-set;
#X obj 585 446 s \$0-sinclick_fr-set;
#X obj 600 467 s \$0-sinclick_fbias-set;
#X obj 703 444 s \$0-sinclick_ar-set;
#X obj 719 464 s \$0-sinclick_abias-set;
#X obj 202 528 s \$0-sinclick_eg_pol-set;
#X obj 566 402 spigot;
#X obj 603 376 tgl 15 0 empty \$0-patch_vol_set empty 0 -6 0 8 -262144
-1 -1 1 1;
#X msg 226 222 print;
#X obj 81 521 route list;
#X obj 453 285 t b b a b;
#X msg 469 362 clear;
#X obj 281 171 r \$0-patches_clear;
#X obj 279 197 t b b;
#X obj 753 125 inlet;
#X obj 731 355 outlet;
#X obj 753 170 symbol;
#X obj 830 165 inlet;
#X obj 830 409 random;
#X obj 830 501 outlet;
#X obj 655 522 s \$0-sinclick_offslew-set;
#X obj 24 172 pack f f f f f f f f f f f f f;
#X obj 218 344 unpack f f f f f f f f f f f f f;
#X obj 725 74 r \$0-sinclick_offslew-num;
#X obj 497 159 packel 2;
#X obj 557 160 packel 7;
#X obj 425 227 s \$0-sinclick_df-set-mod;
#X obj 482 209 s \$0-sinclick_da-set-mod;
#X obj 411 561 s \$0-patches-num;
#X obj 545 565 s \$0-patch-set;
#X obj 241 261 r \$0-store_plus;
#X obj 338 261 r \$0-store_minus;
#N canvas 3 50 450 300 plumin 0;
#X obj 127 97 f;
#X obj 169 97 f;
#X obj 119 119 + 1;
#X obj 165 119 - 1;
#X obj 226 35 inlet;
#X obj 153 32 inlet;
#X obj 72 31 inlet;
#X obj 141 147 - 1;
#X obj 323 61 inlet;
#X obj 214 180 %;
#X obj 140 207 + 1;
#X obj 120 256 outlet;
#X obj 105 171 moses 0;
#X obj 92 221 f;
#X obj 87 193 b;
#X connect 0 0 2 0;
#X connect 1 0 3 0;
#X connect 2 0 7 0;
#X connect 3 0 7 0;
#X connect 4 0 1 1;
#X connect 4 0 0 1;
#X connect 5 0 1 0;
#X connect 6 0 0 0;
#X connect 7 0 12 0;
#X connect 8 0 9 1;
#X connect 8 0 13 1;
#X connect 9 0 10 0;
#X connect 10 0 11 0;
#X connect 12 0 14 0;
#X connect 12 1 9 0;
#X connect 13 0 11 0;
#X connect 14 0 13 0;
#X restore 292 288 pd plumin;
#X obj 262 315 s \$0-patch-set;
#X obj 796 129 inlet;
#X obj 632 238 makesymbol %s.pat;
#X msg 850 286 write /media/sda2/Data/puredata/edsabs/metastudio-0.5/datasets/click.pat
;
#X obj 850 212 r \$0-resave;
#X msg 861 263 set write \$1;
#X obj 30 426 s \$0-sinclick_af;
#X obj 44 445 s \$0-sinclick_df;
#X obj 149 393 t f f;
#X obj 194 394 t f f;
#X obj 309 373 t f f;
#X obj 354 374 t f f;
#X obj 250 406 s \$0-sinclick_aa;
#X obj 264 425 s \$0-sinclick_da;
#X connect 0 0 11 1;
#X connect 1 0 68 1;
#X connect 2 0 68 2;
#X connect 3 0 68 3;
#X connect 4 0 68 5;
#X connect 5 0 68 6;
#X connect 6 0 68 7;
#X connect 7 0 68 8;
#X connect 8 0 68 9;
#X connect 9 0 68 10;
#X connect 10 0 68 11;
#X connect 11 0 68 0;
#X connect 12 0 11 0;
#X connect 13 0 14 0;
#X connect 14 0 27 0;
#X connect 14 1 15 0;
#X connect 15 0 56 0;
#X connect 16 0 17 0;
#X connect 16 0 29 0;
#X connect 16 0 75 0;
#X connect 16 0 79 3;
#X connect 17 0 16 1;
#X connect 18 0 16 1;
#X connect 19 0 15 0;
#X connect 20 0 19 0;
#X connect 21 0 23 0;
#X connect 21 0 16 0;
#X connect 21 0 65 1;
#X connect 21 1 69 0;
#X connect 22 0 15 0;
#X connect 23 0 24 1;
#X connect 24 0 25 0;
#X connect 24 0 29 0;
#X connect 24 0 65 1;
#X connect 24 0 75 0;
#X connect 25 0 15 0;
#X connect 26 0 15 0;
#X connect 27 0 24 0;
#X connect 27 1 26 0;
#X connect 27 2 22 0;
#X connect 28 0 68 4;
#X connect 29 0 76 0;
#X connect 30 0 32 0;
#X connect 30 1 31 0;
#X connect 30 1 79 2;
#X connect 31 0 15 0;
#X connect 32 0 15 0;
#X connect 33 0 34 0;
#X connect 34 0 57 0;
#X connect 34 0 62 0;
#X connect 34 0 85 0;
#X connect 35 0 15 0;
#X connect 36 0 15 0;
#X connect 37 0 15 0;
#X connect 38 0 39 0;
#X connect 39 0 82 0;
#X connect 40 0 15 0;
#X connect 53 0 47 0;
#X connect 54 0 53 1;
#X connect 55 0 15 0;
#X connect 56 0 21 0;
#X connect 57 0 37 0;
#X connect 57 1 36 0;
#X connect 57 1 18 0;
#X connect 57 2 35 0;
#X connect 57 3 58 0;
#X connect 58 0 15 0;
#X connect 59 0 60 0;
#X connect 60 0 19 0;
#X connect 60 1 58 0;
#X connect 61 0 63 0;
#X connect 63 0 57 0;
#X connect 63 0 85 0;
#X connect 64 0 65 0;
#X connect 65 0 66 0;
#X connect 68 0 13 0;
#X connect 68 0 71 0;
#X connect 68 0 72 0;
#X connect 69 0 88 0;
#X connect 69 1 73 0;
#X connect 69 1 89 0;
#X connect 69 2 43 0;
#X connect 69 3 44 0;
#X connect 69 4 52 0;
#X connect 69 5 90 0;
#X connect 69 6 74 0;
#X connect 69 6 91 0;
#X connect 69 7 53 0;
#X connect 69 8 48 0;
#X connect 69 9 49 0;
#X connect 69 10 50 0;
#X connect 69 11 51 0;
#X connect 69 12 67 0;
#X connect 70 0 68 12;
#X connect 71 0 73 0;
#X connect 72 0 74 0;
#X connect 77 0 79 0;
#X connect 78 0 79 1;
#X connect 79 0 80 0;
#X connect 81 0 30 0;
#X connect 82 0 40 0;
#X connect 82 0 62 0;
#X connect 82 0 85 0;
#X connect 83 0 15 0;
#X connect 84 0 83 0;
#X connect 85 0 83 0;
#X connect 88 0 86 0;
#X connect 88 1 41 0;
#X connect 89 0 87 0;
#X connect 89 1 42 0;
#X connect 90 0 92 0;
#X connect 90 1 45 0;
#X connect 91 0 93 0;
#X connect 91 1 46 0;
#X restore 1029 89 pd patches;
#X obj 242 288 r \$0-sinclick_af-num;
#X obj 256 307 r \$0-sinclick_df-num;
#X obj 165 36 r \$0-sinclick_eg-num;
#X obj 202 59 r \$0-sinclick_off-num;
#X obj 202 76 mtof;
#X obj 662 307 r \$0-sinclick_aa-num;
#X obj 676 326 r \$0-sinclick_da-num;
#X obj 126 255 r \$0-sinclick_vol-num;
#X obj 126 272 dbtorms;
#X obj 387 34 r \$0-sinclick_fr-num;
#X obj 461 63 r \$0-sinclick_fbias-num;
#X obj 593 31 r \$0-sinclick_ar-num;
#X obj 787 60 r \$0-sinclick_abias-num;
#X obj 866 358 t b f;
#X obj 893 388 sel 0 1;
#X msg 896 413 -1;
#X msg 924 413 1;
#X obj 862 441 * 1;
#X obj 846 290 r \$0-sinclick_eg;
#X obj 864 466 s \$0-sinclick_eg-pm;
#X obj 972 27 inlet;
#X obj 787 148 s \$0-patch_vol_set_on;
#X obj 873 327 r \$0-sinclick_eg_pol;
#X obj 793 228 s \$0-sinclick_eg_pol-set;
#X msg 554 192 -1;
#X msg 553 215 0;
#X msg 732 254 -1;
#X msg 731 277 0;
#X obj 981 182 r \$0-patch_on;
#X obj 45 128 sel 1;
#X obj 1078 191 outlet;
#N canvas 124 136 1108 592 automation 0;
#X obj 46 342 s \$0-sinclick_af-set;
#X obj 60 361 s \$0-sinclick_df-set;
#X obj 214 342 s \$0-sinclick_eg-set;
#X obj 226 362 s \$0-sinclick_off-set;
#X obj 336 303 s \$0-sinclick_aa-set;
#X obj 388 340 s \$0-sinclick_da-set;
#X obj 411 361 s \$0-sinclick_vol-set;
#X obj 548 336 s \$0-sinclick_fr-set;
#X obj 581 356 s \$0-sinclick_fbias-set;
#X obj 586 310 s \$0-sinclick_ar-set;
#X obj 604 291 s \$0-sinclick_abias-set;
#X obj 269 278 s \$0-sinclick_eg_pol-set;
#X obj 161 37 inlet;
#X obj 571 215 outlet;
#X obj 644 219 s \$0-sinclick_offslew-set;
#X obj 666 171 outlet;
#X obj 776 160 s \$0-hp-set;
#X obj 592 116 s \$0-dmodify;
#X obj 674 339 s \$0-sinclick_offslew-num;
#X obj 806 280 s \$0-hp;
#X obj 906 472 s \$0-sinclick_af-num;
#X obj 920 491 s \$0-sinclick_df-num;
#X obj 1074 472 s \$0-sinclick_eg-num;
#X obj 1086 492 s \$0-sinclick_off-num;
#X obj 1129 408 s \$0-sinclick_eg_pol;
#X obj 1196 433 s \$0-sinclick_aa-num;
#X obj 1248 470 s \$0-sinclick_da-num;
#X obj 1271 491 s \$0-sinclick_vol;
#X obj 1441 486 s \$0-sinclick_fbias-num;
#X obj 1408 466 s \$0-sinclick_fr-num;
#X obj 1446 440 s \$0-sinclick_ar-num;
#X obj 1464 421 s \$0-sinclick_abias-num;
#X obj 1456 375 s \$0-sinclick_offslew-num;
#X obj 1466 336 s \$0-hp;
#X obj 181 65 t a a;
#X obj 158 108 route af df feg pitch fpol aa da vol frand fbias arand
abias randpat porta on hp dmodify;
#X obj 510 75 route dmod;
#X obj 1465 275 s \$0-patch_vol_set_on;
#X obj 1471 306 s \$0-resave-bng;
#X obj 988 118 route af df feg pitch fpol aa da vol frand fbias arand
abias randpat porta on hp resave patvol block;
#X obj 1433 187 s \$0-blocksize-set;
#X obj 1433 167 moses 2;
#X connect 12 0 34 0;
#X connect 34 0 35 0;
#X connect 34 1 39 0;
#X connect 35 0 0 0;
#X connect 35 1 1 0;
#X connect 35 2 2 0;
#X connect 35 3 3 0;
#X connect 35 4 11 0;
#X connect 35 5 4 0;
#X connect 35 6 5 0;
#X connect 35 7 6 0;
#X connect 35 8 7 0;
#X connect 35 9 8 0;
#X connect 35 10 9 0;
#X connect 35 11 10 0;
#X connect 35 12 13 0;
#X connect 35 13 14 0;
#X connect 35 13 18 0;
#X connect 35 14 15 0;
#X connect 35 15 16 0;
#X connect 35 15 19 0;
#X connect 35 16 17 0;
#X connect 35 17 36 0;
#X connect 36 0 17 0;
#X connect 39 0 20 0;
#X connect 39 1 21 0;
#X connect 39 2 22 0;
#X connect 39 3 23 0;
#X connect 39 4 24 0;
#X connect 39 5 25 0;
#X connect 39 6 26 0;
#X connect 39 7 27 0;
#X connect 39 8 29 0;
#X connect 39 9 28 0;
#X connect 39 10 30 0;
#X connect 39 11 31 0;
#X connect 39 13 32 0;
#X connect 39 15 33 0;
#X connect 39 16 38 0;
#X connect 39 17 37 0;
#X connect 39 18 41 0;
#X connect 41 0 40 0;
#X restore 892 114 pd automation;
#X obj 974 50 route patch file;
#X obj 928 156 s \$0-patch_on-set;
#X obj 98 405 hip~ 18;
#X obj 194 202 line~;
#X obj 197 182 pack f 0;
#X obj 242 119 r \$0-sinclick_offslew-num;
#X obj 676 403 cnv 15 121 188 empty \$0-voicenum empty 100 9 0 16 -207168
-45076 0;
#X obj 605 429 vsl 12 121 0.01 1000 1 0 \$0-sinclick_af \$0-sinclick_af-set
fa 1 7 0 8 -227964 -90133 -355 0 0;
#X obj 605 556 nbx 5 10 0.001 10000 1 0 \$0-sinclick_af-num \$0-sinclick_af
empty 0 -6 0 8 -227964 -62784 -355 0.001 256;
#X obj 620 429 vsl 12 121 0.01 1000 1 0 \$0-sinclick_df \$0-sinclick_df-set
d 3 7 0 8 -227964 -90133 -355 0 0;
#X obj 605 569 nbx 5 10 0.001 10000 1 0 \$0-sinclick_df-num \$0-sinclick_df
empty 0 -6 0 8 -227964 -62784 -355 0.001 256;
#X obj 666 429 vsl 12 121 0.1 10000 1 0 \$0-sinclick_eg \$0-sinclick_eg-set
eg 1 7 0 8 -244344 -90133 -90133 0 0;
#X obj 651 556 nbx 5 10 -10000 10000 0 0 \$0-sinclick_eg-num \$0-sinclick_eg-pm
empty 0 -6 0 8 -244344 -62784 -90133 0 256;
#X obj 681 429 vsl 12 121 7 127 0 0 \$0-sinclick_off \$0-sinclick_off-set
os 1 7 0 8 -244344 -90133 -90133 0 0;
#X obj 651 569 nbx 5 10 0.001 10000 1 0 \$0-sinclick_off-num \$0-sinclick_off
empty 0 -6 0 8 -244344 -62784 -355 0.001 256;
#X obj 651 436 tgl 12 0 \$0-sinclick_eg_pol \$0-sinclick_eg_pol-set
pol -1 -6 0 8 -244344 -90133 -90133 1 1;
#X obj 697 429 vsl 12 121 0.01 1000 1 0 \$0-sinclick_aa \$0-sinclick_aa-set
aa 1 7 0 8 -212096 -355 -355 0 0;
#X obj 697 556 nbx 5 10 0.001 10000 1 0 \$0-sinclick_aa-num \$0-sinclick_aa
empty 0 -6 0 8 -212096 -355 -355 0.001 256;
#X obj 712 429 vsl 12 121 0.01 1000 1 0 \$0-sinclick_da \$0-sinclick_da-set
d 4 7 0 8 -212096 -355 -355 0 0;
#X obj 697 569 nbx 5 10 0.001 10000 1 0 \$0-sinclick_da-num \$0-sinclick_da
empty 0 -6 0 8 -212096 -355 -355 0.001 256;
#X obj 743 582 nbx 3 10 0 150 0 0 \$0-sinclick_vol-num \$0-sinclick_vol-set
vol 32 5 0 8 -261689 -62784 -143491 100 256;
#X obj 635 429 vsl 12 101 0 100 0 0 \$0-sinclick_fr \$0-sinclick_fr-set
rand -5 -7 0 8 -227964 -90133 -355 0 0;
#X obj 605 582 nbx 5 10 0 100 0 0 \$0-sinclick_fr-num \$0-sinclick_fr
empty 0 -6 0 8 -227964 -62784 -355 0 256;
#X obj 651 460 vsl 12 81 -1 0 0 0 \$0-sinclick_fbias \$0-sinclick_fbias-set
bias -7 90 0 8 -244344 -90133 -90133 8000 0;
#X obj 651 582 nbx 5 10 -1 0 0 0 \$0-sinclick_fbias-num \$0-sinclick_fbias
empty 0 -6 0 8 -244344 -62784 -355 0 256;
#X obj 727 429 vsl 12 101 0 100 0 0 \$0-sinclick_ar \$0-sinclick_ar-set
rand -4 -7 0 8 -212096 -355 -355 0 0;
#X obj 697 582 nbx 5 10 0 100 0 0 \$0-sinclick_ar-num \$0-sinclick_ar
empty 0 -6 0 8 -212096 -355 -355 0 256;
#X obj 742 459 vsl 12 81 -1 0 0 0 \$0-sinclick_abias \$0-sinclick_abias-set
bias -4 91 0 8 -212096 -355 -355 8000 0;
#X obj 743 556 nbx 4 10 -1 0 0 0 \$0-sinclick_abias-num \$0-sinclick_abias
empty 0 -6 0 8 -212096 -355 -355 0 256;
#X obj 743 569 tgl 10 0 \$0-patch_vol_set \$0-patch_vol_set_on patchvol
13 5 0 8 -261689 -143491 -143491 1 1;
#X obj 763 426 tgl 15 0 \$0-patch_on \$0-patch_on-set on -13 7 0 10
-233017 -90133 -90133 0 1;
#X obj 686 414 nbx 3 10 1 999 1 0 \$0-sinclick_offslew-num \$0-sinclick_offslew-set
porta 1 -5 0 8 -244344 -90133 -90133 1 256;
#X obj 763 448 cnv 15 34 104 empty empty empty 20 12 0 14 -183672 -66577
0;
#X obj 766 458 nbx 3 12 0 120 0 0 empty empty empty -2 -6 0 7 -257472
-1109 -90133 0 256;
#X obj 766 482 nbx 3 12 1 16 0 0 \$0-patch-num \$0-patch-set select
0 -5 0 7 -17235 -261234 -17235 1 256;
#X obj 768 515 bng 12 250 50 0 \$0-store_patch \$0-store_patch-bng
store -3 -5 0 7 -17235 -262130 -17235;
#X obj 765 540 bng 10 250 50 0 \$0-patches_load \$0-patches_load-bng
load -1 -5 0 7 -2498 -262144 -13381;
#X obj 784 532 bng 10 250 50 0 \$0-patches_save \$0-patches_save-bng
save -4 16 0 7 -159809 -262144 -86277;
#X obj 766 458 nbx 3 12 0 120 0 0 \$0-patches-dummy \$0-patches-num
patches 0 -5 0 7 -17235 -203904 -17235 0 256;
#X obj 786 497 bng 8 250 50 0 \$0-store_plus \$0-store_plus-bng + -7
4 0 10 -17235 -198336 -17235;
#X obj 766 497 bng 8 250 50 0 \$0-store_minus \$0-store_minus-bng -
8 3 0 10 -17235 -257985 -17235;
#X obj 64 384 *~ 0;
#X obj 98 384 *~ 1;
#X obj 188 301 r \$0-hp;
#X obj 183 478 s \$0-hp-set;
#X obj 752 406 tgl 12 0 \$0-hp \$0-hp-set hp -13 6 0 10 -233017 -13330
-13330 1 1;
#X msg 183 458 1;
#X obj 112 347 == 0;
#X obj 183 438 loadbang;
#X msg 875 519 4 from left edge overlap;
#X msg 874 543 5 from top edge overlap;
#N canvas 520 379 863 469 send-automation 0;
#X obj 80 29 r \$0-sinclick_af-num;
#X obj 124 49 r \$0-sinclick_df-num;
#X obj 178 69 r \$0-sinclick_eg-num;
#X obj 228 89 r \$0-sinclick_off-num;
#X obj 288 109 r \$0-sinclick_aa-num;
#X obj 338 129 r \$0-sinclick_da-num;
#X obj 388 149 r \$0-sinclick_vol-num;
#X obj 444 171 r \$0-sinclick_fr-num;
#X obj 488 189 r \$0-sinclick_fbias-num;
#X obj 538 209 r \$0-sinclick_ar-num;
#X obj 588 229 r \$0-sinclick_abias-num;
#X obj 638 249 r \$0-sinclick_offslew-num;
#X obj 445 320 r \$0-patch-num;
#X obj 18 78 inlet;
#X msg 71 77 af \$1;
#X msg 123 102 df \$1;
#X msg 174 132 feg \$1;
#X msg 231 144 pitch \$1;
#X msg 295 162 aa \$1;
#X msg 337 176 da \$1;
#X msg 383 195 vol \$1;
#X msg 430 219 frand \$1;
#X msg 482 235 fbias \$1;
#X msg 525 260 arand \$1;
#X msg 591 279 abias \$1;
#X msg 652 307 porta \$1;
#X msg 445 364 patch \$1;
#X msg 677 359 pol \$1;
#X obj 714 312 r \$0-sinclick_eg_pol;
#X obj 711 172 r \$0-patch_on;
#X msg 711 192 on \$1;
#X obj 71 55 change;
#X obj 123 80 change;
#X obj 171 105 change;
#X obj 226 118 change;
#X obj 292 139 change;
#X obj 337 149 change;
#X obj 379 173 change;
#X obj 431 197 change;
#X obj 488 210 change;
#X obj 539 236 change;
#X obj 584 255 change;
#X obj 648 274 change;
#X obj 682 337 change;
#X obj 545 37 r \$0-hp;
#X msg 539 62 hp \$1;
#X obj 705 40 inlet;
#X obj 646 42 inlet;
#X obj 112 377 outlet;
#X obj 108 339 spigot;
#X msg 704 73 0;
#X msg 646 72 1;
#X obj 618 20 loadbang;
#X obj 459 341 change;
#X msg 265 399 patches \$1;
#X obj 265 379 r \$0-patches-num;
#X msg 20 139 file \$1;
#X connect 0 0 31 0;
#X connect 1 0 32 0;
#X connect 2 0 33 0;
#X connect 3 0 34 0;
#X connect 4 0 35 0;
#X connect 5 0 36 0;
#X connect 6 0 37 0;
#X connect 7 0 38 0;
#X connect 8 0 39 0;
#X connect 9 0 40 0;
#X connect 10 0 41 0;
#X connect 11 0 42 0;
#X connect 12 0 53 0;
#X connect 13 0 56 0;
#X connect 14 0 49 0;
#X connect 15 0 49 0;
#X connect 16 0 49 0;
#X connect 17 0 49 0;
#X connect 18 0 49 0;
#X connect 19 0 49 0;
#X connect 20 0 49 0;
#X connect 21 0 49 0;
#X connect 22 0 49 0;
#X connect 23 0 49 0;
#X connect 24 0 49 0;
#X connect 25 0 49 0;
#X connect 26 0 48 0;
#X connect 27 0 49 0;
#X connect 28 0 43 0;
#X connect 29 0 30 0;
#X connect 30 0 49 0;
#X connect 31 0 14 0;
#X connect 32 0 15 0;
#X connect 33 0 16 0;
#X connect 34 0 17 0;
#X connect 35 0 18 0;
#X connect 36 0 19 0;
#X connect 37 0 20 0;
#X connect 38 0 21 0;
#X connect 39 0 22 0;
#X connect 40 0 23 0;
#X connect 41 0 24 0;
#X connect 42 0 25 0;
#X connect 43 0 27 0;
#X connect 44 0 45 0;
#X connect 45 0 49 0;
#X connect 46 0 50 0;
#X connect 47 0 51 0;
#X connect 49 0 48 0;
#X connect 50 0 49 1;
#X connect 51 0 49 1;
#X connect 52 0 51 0;
#X connect 53 0 26 0;
#X connect 54 0 48 0;
#X connect 55 0 54 0;
#X connect 56 0 49 0;
#X restore 1056 157 pd send-automation;
#X obj 17 77 route bang;
#X obj 140 140 t b f;
#X obj 183 140 s \$0-sinclick_off-set;
#X obj 1112 265 inlet~;
#X obj 80 287 +~;
#X obj 1093 55 t b f b;
#X obj 1080 28 r \$0-patch-num;
#X obj 994 132 s \$0-patch-set;
#X obj 128 295 pack f 30;
#X obj 121 321 line~;
#X obj 80 346 *~;
#X obj 1007 422 s \$0-sinclick_vol-set;
#X msg 1008 395 100;
#X obj 1012 360 loadbang;
#X obj 402 522 * 800;
#X obj 274 522 * 800;
#X obj 363 440 r \$0-dmodify;
#X obj 348 472 / 100;
#X obj 274 541 s \$0-sinclick_df-set;
#X obj 402 541 s \$0-sinclick_da-set;
#X obj 406 468 r \$0-sinclick_df-set-mod;
#X obj 417 490 r \$0-sinclick_da-set-mod;
#X obj 86 129 moses 1;
#X obj 786 519 bng 8 250 50 0 \$0-resave \$0-resave-bng re 0 -6 0 7
-159809 -262144 -86277;
#X obj 781 414 vradio 10 1 0 2 \$0-blocksize \$0-blocksize-set block
-10 -5 0 8 -228856 -86277 -86277 0;
#X obj 1074 211 r \$0-blocksize;
#X msg 993 203 set 64;
#X msg 1006 225 set 1;
#X obj 1057 230 sel 0 1;
#X connect 2 0 7 0;
#X connect 3 0 10 1;
#X connect 4 0 144 0;
#X connect 7 0 8 0;
#X connect 8 0 148 0;
#X connect 9 0 10 0;
#X connect 10 0 154 0;
#X connect 13 0 7 1;
#X connect 14 0 96 0;
#X connect 15 0 18 0;
#X connect 18 0 2 0;
#X connect 18 0 3 0;
#X connect 18 1 40 0;
#X connect 18 1 41 0;
#X connect 18 1 42 0;
#X connect 18 1 43 0;
#X connect 19 0 2 1;
#X connect 20 1 45 0;
#X connect 21 0 22 0;
#X connect 22 0 19 0;
#X connect 23 0 2 2;
#X connect 24 0 25 0;
#X connect 25 0 23 0;
#X connect 26 0 3 1;
#X connect 27 0 28 0;
#X connect 28 0 26 0;
#X connect 29 0 3 2;
#X connect 30 0 31 0;
#X connect 31 0 29 0;
#X connect 32 1 46 0;
#X connect 33 0 34 0;
#X connect 33 1 47 0;
#X connect 33 2 35 0;
#X connect 33 3 48 0;
#X connect 34 0 20 0;
#X connect 35 0 32 0;
#X connect 36 0 21 0;
#X connect 37 0 24 0;
#X connect 38 0 27 0;
#X connect 39 0 30 0;
#X connect 40 0 39 0;
#X connect 41 0 38 0;
#X connect 42 0 37 0;
#X connect 43 0 36 0;
#X connect 44 0 33 0;
#X connect 45 0 42 1;
#X connect 45 0 43 1;
#X connect 46 0 41 1;
#X connect 46 0 40 1;
#X connect 47 0 84 0;
#X connect 47 1 49 0;
#X connect 48 0 86 0;
#X connect 48 1 50 0;
#X connect 49 0 21 1;
#X connect 49 0 24 1;
#X connect 49 1 85 0;
#X connect 50 0 30 1;
#X connect 50 0 27 1;
#X connect 50 1 87 0;
#X connect 51 0 33 0;
#X connect 53 0 44 0;
#X connect 57 0 55 0;
#X connect 57 0 56 0;
#X connect 57 0 81 0;
#X connect 57 0 83 0;
#X connect 58 0 57 0;
#X connect 59 0 143 0;
#X connect 59 1 151 0;
#X connect 60 0 22 1;
#X connect 60 0 19 1;
#X connect 61 0 25 1;
#X connect 61 0 23 1;
#X connect 62 0 13 0;
#X connect 63 0 64 0;
#X connect 64 0 14 0;
#X connect 65 0 28 1;
#X connect 65 0 26 1;
#X connect 66 0 31 1;
#X connect 66 0 29 1;
#X connect 67 0 68 0;
#X connect 68 0 152 0;
#X connect 69 0 34 0;
#X connect 70 0 47 0;
#X connect 71 0 35 0;
#X connect 72 0 48 0;
#X connect 73 0 77 0;
#X connect 73 1 74 0;
#X connect 74 0 75 0;
#X connect 74 1 76 0;
#X connect 75 0 77 1;
#X connect 76 0 77 1;
#X connect 77 0 79 0;
#X connect 78 0 77 0;
#X connect 80 0 92 0;
#X connect 82 0 73 0;
#X connect 84 0 24 1;
#X connect 84 0 21 1;
#X connect 85 0 24 1;
#X connect 85 0 21 1;
#X connect 86 0 30 1;
#X connect 86 0 27 1;
#X connect 87 0 30 1;
#X connect 87 0 27 1;
#X connect 88 0 11 0;
#X connect 89 0 18 0;
#X connect 89 1 166 0;
#X connect 91 0 59 2;
#X connect 91 1 93 0;
#X connect 92 0 151 0;
#X connect 92 1 59 0;
#X connect 92 2 91 0;
#X connect 94 0 12 0;
#X connect 95 0 8 1;
#X connect 96 0 95 0;
#X connect 97 0 96 1;
#X connect 133 0 12 0;
#X connect 134 0 94 0;
#X connect 135 0 139 0;
#X connect 135 0 134 1;
#X connect 138 0 136 0;
#X connect 139 0 133 1;
#X connect 140 0 138 0;
#X connect 143 0 90 0;
#X connect 144 0 18 0;
#X connect 144 1 89 0;
#X connect 145 0 18 0;
#X connect 145 1 146 0;
#X connect 147 0 148 1;
#X connect 148 0 9 0;
#X connect 149 0 143 1;
#X connect 149 1 59 1;
#X connect 149 2 143 2;
#X connect 150 0 149 0;
#X connect 152 0 153 0;
#X connect 153 0 154 1;
#X connect 154 0 134 0;
#X connect 154 0 133 0;
#X connect 156 0 155 0;
#X connect 157 0 156 0;
#X connect 158 0 163 0;
#X connect 159 0 162 0;
#X connect 160 0 161 0;
#X connect 161 0 159 0;
#X connect 161 0 158 0;
#X connect 164 0 159 1;
#X connect 165 0 158 1;
#X connect 166 1 145 0;
#X connect 169 0 172 0;
#X connect 170 0 11 0;
#X connect 171 0 11 0;
#X connect 172 0 170 0;
#X connect 172 1 171 0;
#X coords 0 -1 1 1 198 197 1 600 400;
