#N canvas 49 90 1274 668 10;
#X declare -lib zexy;
#X declare -lib creb;
#X obj 239 365 declare -lib zexy;
#X obj 237 390 declare -lib creb;
#X obj 80 224 ead~;
#X obj 133 262 ead~;
#X obj 29 44 inlet;
#X text 93 115 feg;
#X text 260 114 aeg;
#X obj 80 244 *~;
#X obj 80 266 +~;
#X obj 80 306 osc~;
#X obj 80 326 *~;
#X obj 982 191 switch~;
#X obj 79 451 outlet~;
#X obj 25 183 bng 15 250 50 0 empty empty empty 0 -6 0 8 -262144 -1
-1;
#X text 60 99 a d depth offset;
#X obj 80 346 *~ 1;
#X text 247 103 a d level;
#X obj 47 182 t b b;
#X obj 388 348 +;
#X obj 387 220 moses 0;
#X obj 388 314 +;
#X obj 388 331 *;
#X obj 467 348 +;
#X obj 467 314 +;
#X obj 467 331 *;
#X obj 539 348 +;
#X obj 539 314 +;
#X obj 539 331 *;
#X obj 611 348 +;
#X obj 611 314 +;
#X obj 611 331 *;
#X obj 592 212 moses 0;
#X obj 495 158 unpack f f f f;
#X obj 387 200 * 100;
#X obj 592 192 * 100;
#X obj 388 280 / 10000;
#X obj 467 280 / 10000;
#X obj 539 280 / 10000;
#X obj 611 280 / 10000;
#X obj 611 263 random 100;
#X obj 539 263 random 100;
#X obj 467 263 random 100;
#X obj 388 263 random 100;
#X msg 655 128 5 0 2 0;
#X obj 431 236 moses 10001;
#X obj 607 229 moses 10001;
#X obj 461 201 moses -1.01;
#X obj 637 193 moses -1.01;
#X obj 521 236 moses 0.01;
#X obj 697 227 moses 0.01;
#X msg 558 128 100 -1 20 0;
#X text 396 109 ferr% fbias(-1<x<0) aerr% abias;
#X obj 655 111 loadbang;
#X msg 801 124 1;
#X obj 801 107 loadbang;
#X obj 256 71 mtof;
#X obj 440 69 dbtorms;
#X obj 866 358 t b f;
#X obj 893 388 sel 0 1;
#X msg 896 413 -1;
#X msg 924 413 1;
#X obj 862 441 * 1;
#X obj 846 290 r \$0-sinclick_eg;
#X obj 857 473 s \$0-sinclick_eg-pm;
#X obj 972 27 inlet;
#X obj 817 148 s \$0-patch_vol_set_on;
#X obj 873 327 r \$0-sinclick_eg_pol;
#X msg 554 192 -1;
#X msg 553 215 0;
#X msg 732 254 -1;
#X msg 731 277 0;
#X obj 981 172 r \$0-patch_on;
#X obj 50 134 sel 1;
#X obj 992 59 route patch file;
#X obj 98 405 hip~ 18;
#X obj 194 202 line~;
#X obj 197 182 pack f 0;
#X obj 243 128 r \$0-sinclick_offslew-num;
#X obj 222 456 r \$0-sinclick_df-set-mod;
#X obj 410 453 r \$0-sinclick_da-set-mod;
#X obj 373 453 * 800;
#X obj 195 475 * 800;
#X obj 195 418 r \$0-dmodify;
#X obj 195 437 / 100;
#X obj 766 458 nbx 3 12 0 120 0 0 empty empty empty -2 -6 0 7 -257472
-1109 -90133 0 256;
#X obj 766 482 nbx 3 12 1 2 0 0 \$0-patch-num \$0-patch-set select
0 -5 0 7 -17235 -261234 -17235 1 256;
#X obj 766 458 nbx 3 12 0 120 0 0 \$0-patches-dummy \$0-patches-num
patches 0 -5 0 7 -17235 -203904 -17235 0 256;
#X obj 64 384 *~ 0;
#X obj 98 384 *~ 1;
#X obj 188 301 r \$0-hp;
#X msg 183 558 1;
#X obj 112 347 == 0;
#X obj 183 538 loadbang;
#X msg 694 336 4 from left edge overlap;
#X msg 693 360 5 from top edge overlap;
#X obj 17 77 route bang;
#X text 601 400 clicker~;
#X text 601 400 clicker~;
#X obj 137 72 r \$0-sinclick_af;
#X obj 314 78 r \$0-sinclick_df;
#X obj 242 31 r \$0-sinclick_eg;
#X obj 256 52 r \$0-sinclick_off;
#X obj 403 12 r \$0-sinclick_aa;
#X obj 417 31 r \$0-sinclick_da;
#X obj 440 50 r \$0-sinclick_vol;
#X obj 564 16 r \$0-sinclick_fr;
#X obj 593 44 r \$0-sinclick_fbias;
#X obj 754 17 r \$0-sinclick_ar;
#X obj 775 58 r \$0-sinclick_abias;
#X obj 807 168 s \$0-sinclick_abias;
#X obj 791 188 s \$0-sinclick_fbias;
#X obj 823 228 s \$0-sinclick_eg_pol;
#X obj 975 238 s \$0-patch_on;
#X msg 1040 214 1;
#X obj 1041 197 loadbang;
#X obj 183 578 s \$0-hp;
#X obj 373 472 s \$0-sinclick_da;
#X obj 195 494 s \$0-sinclick_df;
#X obj 1090 273 inlet~;
#X obj 79 286 +~;
#X obj 163 1 t b f;
#X obj 105 1 moses 2;
#X obj 206 1 s \$0-sinclick_off;
#X obj 1587 331 r \$0-patch-num;
#X obj 990 118 s \$0-patch-num;
#X obj 1717 127 s \$0-hp;
#X obj 1708 169 s \$0-sinclick_offslew;
#X obj 1538 102 s \$0-sinclick_abias;
#X obj 1544 125 s \$0-sinclick_ar;
#X obj 1534 161 s \$0-sinclick_fr;
#X obj 1537 143 s \$0-sinclick_fbias;
#X obj 1411 155 s \$0-sinclick_vol;
#X obj 1388 132 s \$0-sinclick_da;
#X obj 1359 110 s \$0-sinclick_aa;
#X obj 1340 90 s \$0-sinclick_eg_pol;
#X obj 1293 162 s \$0-sinclick_off;
#X obj 1281 142 s \$0-sinclick_eg;
#X obj 1248 119 s \$0-sinclick_df;
#X obj 1234 100 s \$0-sinclick_af;
#X obj 1722 108 s \$0-dmodify;
#X obj 1250 48 route af df feg pitch pol aa da vol frand fbias arand
abias randpat porta on hp dmodify;
#X obj 1709 149 s \$0-patch_on;
#X obj 1194 310 f;
#X obj 1191 267 r \$0-store_patch;
#X obj 1192 369 prepend add;
#X obj 1189 402 t b a;
#X obj 1259 491 msgfile;
#X obj 1526 552 spigot;
#X msg 1570 551 0;
#X msg 1571 534 1;
#X msg 1342 459 add patches 0;
#X obj 1339 421 loadbang;
#X obj 1261 635 route patches;
#X msg 1276 408 goto 0;
#X obj 1204 467 + 1;
#X obj 1188 484 f;
#X msg 1188 537 replace patches \$1;
#X msg 1239 458 this;
#X obj 1188 432 t b b b;
#X obj 1343 278 r \$0-sinclick_eg_pol;
#X msg 1743 497 range 1 \$1;
#X obj 1516 387 t b f;
#X msg 1531 411 goto \$1;
#X msg 1496 410 this;
#X obj 1623 421 r \$0-patches_load;
#X obj 1623 438 openpanel;
#X msg 1697 472 read \$1;
#X msg 1653 472 goto 0;
#X msg 1623 472 this;
#X obj 1803 351 r \$0-patches_save;
#X obj 1803 379 savepanel;
#X obj 1802 408 makesymbol %s.txt;
#X msg 1800 452 write \$1;
#X obj 1584 599 spigot;
#X obj 1634 597 tgl 15 0 empty \$0-patch_vol_set empty 0 -6 0 8 -262144
-1 -1 0 1;
#X msg 1396 392 print;
#X obj 1262 605 route list;
#X obj 1623 455 t b b a b;
#X msg 1639 532 clear;
#X obj 1451 341 r \$0-patches_clear;
#X obj 1449 367 t b b;
#X obj 1206 159 symbol;
#X obj 1990 536 random;
#X obj 1194 342 pack f f f f f f f f f f f f f;
#X obj 1388 514 unpack f f f f f f f f f f f f f;
#X obj 1526 569 s \$0-patches-num;
#X obj 1743 514 s \$0-patch-set;
#X obj 1306 561 s \$0-sinclick_af;
#X obj 1320 580 s \$0-sinclick_df;
#X obj 1403 623 s \$0-sinclick_eg;
#X obj 1415 643 s \$0-sinclick_off;
#X obj 1509 622 s \$0-sinclick_aa;
#X obj 1528 643 s \$0-sinclick_da;
#X obj 1616 622 s \$0-sinclick_vol;
#X obj 1439 603 s \$0-sinclick_eg_pol;
#X obj 1755 616 s \$0-sinclick_fr;
#X obj 1770 637 s \$0-sinclick_fbias;
#X obj 1743 550 s \$0-sinclick_ar;
#X obj 1759 570 s \$0-sinclick_abias;
#X obj 1747 589 s \$0-sinclick_offslew;
#X obj 1220 222 r \$0-sinclick_df;
#X obj 1206 203 r \$0-sinclick_af;
#X obj 1374 203 r \$0-sinclick_eg;
#X obj 1386 223 r \$0-sinclick_off;
#X obj 1534 182 r \$0-sinclick_aa;
#X obj 1548 201 r \$0-sinclick_da;
#X obj 1571 222 r \$0-sinclick_vol;
#X obj 1726 196 r \$0-sinclick_fr;
#X obj 1741 217 r \$0-sinclick_fbias;
#X obj 1749 237 r \$0-sinclick_ar;
#X obj 1765 257 r \$0-sinclick_abias;
#X obj 1775 279 r \$0-sinclick_offslew;
#X obj 1951 580 s \$0-patch-num;
#X connect 2 0 7 0;
#X connect 3 0 10 1;
#X connect 4 0 95 0;
#X connect 7 0 8 0;
#X connect 8 0 119 0;
#X connect 9 0 10 0;
#X connect 10 0 15 0;
#X connect 13 0 17 0;
#X connect 15 0 88 0;
#X connect 15 0 87 0;
#X connect 17 0 2 0;
#X connect 17 0 3 0;
#X connect 17 1 39 0;
#X connect 17 1 40 0;
#X connect 17 1 41 0;
#X connect 17 1 42 0;
#X connect 18 0 2 1;
#X connect 19 1 44 0;
#X connect 20 0 21 0;
#X connect 21 0 18 0;
#X connect 22 0 2 2;
#X connect 23 0 24 0;
#X connect 24 0 22 0;
#X connect 25 0 3 1;
#X connect 26 0 27 0;
#X connect 27 0 25 0;
#X connect 28 0 3 2;
#X connect 29 0 30 0;
#X connect 30 0 28 0;
#X connect 31 1 45 0;
#X connect 32 0 33 0;
#X connect 32 1 46 0;
#X connect 32 2 34 0;
#X connect 32 3 47 0;
#X connect 33 0 19 0;
#X connect 34 0 31 0;
#X connect 35 0 20 0;
#X connect 36 0 23 0;
#X connect 37 0 26 0;
#X connect 38 0 29 0;
#X connect 39 0 38 0;
#X connect 40 0 37 0;
#X connect 41 0 36 0;
#X connect 42 0 35 0;
#X connect 43 0 32 0;
#X connect 44 0 41 1;
#X connect 44 0 42 1;
#X connect 45 0 40 1;
#X connect 45 0 39 1;
#X connect 46 0 67 0;
#X connect 46 1 48 0;
#X connect 47 0 69 0;
#X connect 47 1 49 0;
#X connect 48 0 20 1;
#X connect 48 0 23 1;
#X connect 48 1 68 0;
#X connect 49 0 29 1;
#X connect 49 0 26 1;
#X connect 49 1 70 0;
#X connect 50 0 32 0;
#X connect 52 0 43 0;
#X connect 53 0 65 0;
#X connect 53 0 109 0;
#X connect 53 0 110 0;
#X connect 53 0 111 0;
#X connect 54 0 53 0;
#X connect 55 0 76 0;
#X connect 56 0 15 1;
#X connect 57 0 61 0;
#X connect 57 1 58 0;
#X connect 58 0 59 0;
#X connect 58 1 60 0;
#X connect 59 0 61 1;
#X connect 60 0 61 1;
#X connect 61 0 63 0;
#X connect 62 0 61 0;
#X connect 64 0 73 0;
#X connect 66 0 57 0;
#X connect 67 0 23 1;
#X connect 67 0 20 1;
#X connect 68 0 23 1;
#X connect 68 0 20 1;
#X connect 69 0 29 1;
#X connect 69 0 26 1;
#X connect 70 0 29 1;
#X connect 70 0 26 1;
#X connect 71 0 11 0;
#X connect 72 0 17 0;
#X connect 72 1 121 0;
#X connect 73 0 124 0;
#X connect 73 1 181 0;
#X connect 73 2 140 0;
#X connect 74 0 12 0;
#X connect 75 0 8 1;
#X connect 76 0 75 0;
#X connect 77 0 76 1;
#X connect 78 0 81 1;
#X connect 79 0 80 1;
#X connect 80 0 116 0;
#X connect 81 0 117 0;
#X connect 82 0 83 0;
#X connect 83 0 81 0;
#X connect 83 0 80 0;
#X connect 87 0 12 0;
#X connect 88 0 74 0;
#X connect 89 0 91 0;
#X connect 89 0 88 1;
#X connect 90 0 115 0;
#X connect 91 0 87 1;
#X connect 92 0 90 0;
#X connect 95 0 17 0;
#X connect 95 1 72 0;
#X connect 98 0 21 1;
#X connect 98 0 18 1;
#X connect 99 0 24 1;
#X connect 99 0 22 1;
#X connect 100 0 7 1;
#X connect 101 0 55 0;
#X connect 102 0 27 1;
#X connect 102 0 25 1;
#X connect 103 0 30 1;
#X connect 103 0 28 1;
#X connect 104 0 56 0;
#X connect 105 0 33 0;
#X connect 106 0 46 0;
#X connect 107 0 34 0;
#X connect 108 0 47 0;
#X connect 113 0 112 0;
#X connect 114 0 113 0;
#X connect 118 0 119 1;
#X connect 119 0 9 0;
#X connect 120 0 17 0;
#X connect 120 1 122 0;
#X connect 121 1 120 0;
#X connect 123 0 161 0;
#X connect 140 0 138 0;
#X connect 140 1 137 0;
#X connect 140 2 136 0;
#X connect 140 3 135 0;
#X connect 140 4 134 0;
#X connect 140 5 133 0;
#X connect 140 6 132 0;
#X connect 140 7 131 0;
#X connect 140 8 129 0;
#X connect 140 9 130 0;
#X connect 140 10 128 0;
#X connect 140 11 127 0;
#X connect 140 12 182 0;
#X connect 140 13 126 0;
#X connect 140 14 141 0;
#X connect 140 15 125 0;
#X connect 140 16 139 0;
#X connect 142 0 183 0;
#X connect 143 0 142 0;
#X connect 144 0 145 0;
#X connect 145 0 158 0;
#X connect 145 1 146 0;
#X connect 146 0 176 0;
#X connect 147 0 148 0;
#X connect 147 0 160 0;
#X connect 147 0 185 0;
#X connect 148 0 147 1;
#X connect 149 0 147 1;
#X connect 150 0 146 0;
#X connect 151 0 150 0;
#X connect 152 0 154 0;
#X connect 152 0 147 0;
#X connect 152 0 182 1;
#X connect 152 1 184 0;
#X connect 153 0 146 0;
#X connect 154 0 155 1;
#X connect 155 0 156 0;
#X connect 155 0 160 0;
#X connect 155 0 182 1;
#X connect 155 0 185 0;
#X connect 156 0 146 0;
#X connect 157 0 146 0;
#X connect 158 0 155 0;
#X connect 158 1 157 0;
#X connect 158 2 153 0;
#X connect 159 0 183 4;
#X connect 160 0 186 0;
#X connect 161 0 163 0;
#X connect 161 1 162 0;
#X connect 162 0 146 0;
#X connect 163 0 146 0;
#X connect 164 0 165 0;
#X connect 165 0 177 0;
#X connect 166 0 146 0;
#X connect 167 0 146 0;
#X connect 168 0 146 0;
#X connect 169 0 170 0;
#X connect 170 0 171 0;
#X connect 171 0 172 0;
#X connect 172 0 146 0;
#X connect 173 0 193 0;
#X connect 174 0 173 1;
#X connect 175 0 146 0;
#X connect 176 0 152 0;
#X connect 177 0 168 0;
#X connect 177 1 167 0;
#X connect 177 1 149 0;
#X connect 177 2 166 0;
#X connect 177 3 178 0;
#X connect 178 0 146 0;
#X connect 179 0 180 0;
#X connect 180 0 150 0;
#X connect 180 1 178 0;
#X connect 181 0 177 0;
#X connect 182 0 212 0;
#X connect 183 0 144 0;
#X connect 184 0 187 0;
#X connect 184 1 188 0;
#X connect 184 2 189 0;
#X connect 184 3 190 0;
#X connect 184 4 194 0;
#X connect 184 5 191 0;
#X connect 184 6 192 0;
#X connect 184 7 173 0;
#X connect 184 8 195 0;
#X connect 184 9 196 0;
#X connect 184 10 197 0;
#X connect 184 11 198 0;
#X connect 184 12 199 0;
#X connect 200 0 183 1;
#X connect 201 0 142 1;
#X connect 202 0 183 2;
#X connect 203 0 183 3;
#X connect 204 0 183 5;
#X connect 205 0 183 6;
#X connect 206 0 183 7;
#X connect 207 0 183 8;
#X connect 208 0 183 9;
#X connect 209 0 183 10;
#X connect 210 0 183 11;
#X connect 211 0 183 12;
#X coords 0 0 1 1 198 197 0;
