#N canvas 527 181 753 382 10;
#X obj 17 144 unpack f f f f f f f f;
#X obj 13 207 moses -1500;
#X obj 17 110 inlet;
#X obj 128 183 pack;
#X obj 173 183 pack;
#X msg 118 227 vol \$1;
#X obj 237 344 outlet;
#X msg 80 318 pitch \$1;
#X msg 175 271 patch \$1;
#X obj 25 173 moses 0;
#X msg 35 318 1;
#X obj 35 349 outlet;
#X obj 32 278 t b f;
#X msg 268 277 feg \$1;
#X obj 178 242 moses 1;
#X obj 238 164 != 0;
#X obj 278 164 != 0;
#X obj 236 183 ||;
#X obj 24 253 spigot 1;
#X obj 86 255 spigot;
#X obj 78 275 t b f;
#X obj 79 295 del 0;
#X obj 68 233 == 0;
#X msg 288 258 egx \$1;
#X msg 305 238 off+ \$1;
#X msg 315 293 porta \$1;
#X msg 327 276 rspect;
#X msg 347 256 noise \$1;
#X msg 373 234 warp \$1;
#X floatatom 460 384 5 0 0 0 - - -;
#X msg 400 285 fmf1 \$1;
#X msg 380 306 ftype \$1;
#X msg 420 266 fmf2 \$1;
#X msg 435 249 fmf3 \$1;
#X msg 458 314 ntype \$1;
#X msg 485 291 q \$1;
#X msg 238 294 dmod \$1;
#X obj 264 212 route 1 2 3 4 5 6 7 8 9 10 11 12 13 14;
#X obj 561 251 outlet;
#X connect 0 0 1 0;
#X connect 0 1 9 0;
#X connect 0 2 14 0;
#X connect 0 4 3 0;
#X connect 0 4 15 0;
#X connect 0 5 3 1;
#X connect 0 6 4 0;
#X connect 0 6 16 0;
#X connect 0 7 4 1;
#X connect 1 1 18 0;
#X connect 1 1 19 0;
#X connect 2 0 0 0;
#X connect 3 0 37 0;
#X connect 4 0 37 0;
#X connect 5 0 6 0;
#X connect 7 0 6 0;
#X connect 8 0 6 0;
#X connect 9 1 5 0;
#X connect 10 0 11 0;
#X connect 12 0 10 0;
#X connect 12 1 7 0;
#X connect 13 0 6 0;
#X connect 14 1 8 0;
#X connect 15 0 17 0;
#X connect 16 0 17 1;
#X connect 17 0 22 0;
#X connect 17 0 19 1;
#X connect 18 0 12 0;
#X connect 19 0 20 0;
#X connect 20 0 21 0;
#X connect 20 1 7 0;
#X connect 21 0 10 0;
#X connect 22 0 18 1;
#X connect 23 0 6 0;
#X connect 24 0 6 0;
#X connect 25 0 6 0;
#X connect 26 0 6 0;
#X connect 27 0 6 0;
#X connect 28 0 6 0;
#X connect 30 0 6 0;
#X connect 31 0 6 0;
#X connect 32 0 6 0;
#X connect 33 0 6 0;
#X connect 34 0 6 0;
#X connect 35 0 6 0;
#X connect 36 0 6 0;
#X connect 37 0 36 0;
#X connect 37 1 13 0;
#X connect 37 2 23 0;
#X connect 37 3 24 0;
#X connect 37 4 25 0;
#X connect 37 5 26 0;
#X connect 37 6 27 0;
#X connect 37 7 28 0;
#X connect 37 8 31 0;
#X connect 37 9 30 0;
#X connect 37 10 32 0;
#X connect 37 11 33 0;
#X connect 37 12 34 0;
#X connect 37 13 35 0;
#X connect 37 14 38 0;
