#N canvas 4 89 1272 627 10;
#X declare -lib creb;
#X declare -lib zexy;
#X declare -lib cyclone;
#X obj 466 15 declare -lib creb;
#X obj 466 35 declare -lib zexy;
#X obj 466 56 declare -lib cyclone;
#X obj 131 212 ead~;
#X obj 282 211 ead~;
#X obj 99 71 inlet;
#X obj 131 233 *~;
#X obj 131 255 +~;
#X obj 131 305 osc~;
#X obj 131 325 *~;
#X obj 1153 137 switch~;
#X obj 99 173 t b b;
#X obj 427 337 +;
#X obj 427 303 +;
#X obj 427 320 *;
#X obj 506 339 +;
#X obj 506 305 +;
#X obj 506 322 *;
#X obj 590 337 +;
#X obj 590 303 +;
#X obj 590 320 *;
#X obj 662 337 +;
#X obj 662 303 +;
#X obj 662 320 *;
#X obj 411 178 * 100;
#X obj 647 193 * 100;
#X obj 427 269 / 10000;
#X obj 506 269 / 10000;
#X obj 590 271 / 10000;
#X obj 662 269 / 10000;
#X obj 662 252 random 100;
#X obj 590 252 random 100;
#X obj 506 252 random 100;
#X obj 427 252 random 100;
#X obj 601 416 cnv 15 295 186 empty empty empty 6 6 0 10 -141872 -355
0;
#X text 730 307 efa6df 590051;
#X obj 500 143 r \$0-af-num;
#X obj 585 140 r \$0-df-num;
#X obj 251 119 r \$0-eg-num;
#X obj 280 154 r \$0-off-num;
#X obj 793 142 r \$0-aa-num;
#X obj 884 135 r \$0-da-num;
#X obj 370 112 r \$0-vol-num;
#X obj 370 131 dbtorms;
#X obj 412 156 r \$0-fr-num;
#X obj 508 196 r \$0-fbias-num;
#X obj 629 168 r \$0-ar-num;
#X obj 688 137 r \$0-abias-num;
#X obj 1130 347 t b f;
#X obj 1157 377 sel 0 1;
#X msg 1160 402 -1;
#X msg 1188 402 1;
#X obj 1126 430 * 1;
#X obj 1110 279 r \$0-eg;
#X obj 1128 455 s \$0-eg-pm;
#X obj 1137 316 r \$0-eg_pol;
#X obj 1153 116 r \$0-patch_on;
#X obj 750 360 bng 9 250 50 0 \$0-patches_clear \$0-patches_clear-bng
clear -6 -5 0 6 -257472 -62784 -90133;
#X obj 290 535 ead~;
#X obj 227 380 +;
#X obj 227 346 +;
#X obj 227 363 *;
#X obj 296 380 +;
#X obj 296 346 +;
#X obj 296 363 *;
#X obj 227 312 / 10000;
#X obj 296 312 / 10000;
#X obj 296 295 random 100;
#X obj 227 295 random 100;
#X obj 99 142 sel 1;
#X obj 158 671 *~;
#X obj 290 569 *~;
#X obj 293 638 +~;
#X obj 360 534 *;
#X obj 438 401 r \$0-filter;
#X obj 282 492 * 1;
#X obj 313 490 * 1;
#X obj 331 600 +;
#X obj 374 594 r \$0-filter_q-num;
#X obj 343 490 r \$0-eg_boost-num;
#X obj 335 556 r \$0-off_boost-num;
#X obj 296 437 r \$0-feg_amod-num;
#X obj 337 460 r \$0-feg_dmod-num;
#X obj 864 345 +;
#X obj 864 311 +;
#X obj 864 328 *;
#X obj 943 345 +;
#X obj 943 311 +;
#X obj 943 328 *;
#X obj 864 277 / 10000;
#X obj 943 277 / 10000;
#X obj 943 260 random 100;
#X obj 864 260 random 100;
#X obj 241 548 ead~;
#X obj 319 403 * 1;
#X obj 398 404 * 1;
#X obj 335 358 r \$0-aeg_amod-num;
#X obj 414 379 r \$0-aeg_dmod-num;
#X obj 242 155 mtof;
#X obj 331 617 mtof;
#X obj 374 636 sig~;
#X obj 466 528 s \$0-filter-info;
#X obj 335 576 t b f;
#X obj 346 514 t b f;
#X obj 784 350 bng 9 250 50 0 \$0-reset_patch \$0-reset_patch-bng reset
12 4 0 6 -62784 -257472 -90133;
#X obj 979 382 r \$0-reset_patch;
#X obj 34 623 outlet~;
#X obj 61 596 hip~ 18;
#X obj 180 234 line~;
#X obj 183 214 pack f 0;
#X obj 233 183 r \$0-offslew-num;
#X obj 691 402 cnv 15 205 200 empty empty empty 6 6 0 10 -141872 -355
0;
#X obj 605 438 vsl 12 121 0.01 1000 1 0 \$0-af \$0-af-set fa 1 7 0
8 -227964 -90133 -355 0 0;
#X obj 605 564 nbx 5 10 0.001 10000 1 0 \$0-af-num \$0-af empty 0 -6
0 8 -227964 -62784 -355 0.001 256;
#X obj 620 438 vsl 12 121 0.01 1000 1 0 \$0-df \$0-df-set d 4 7 0 8
-227964 -90133 -355 0 0;
#X obj 605 577 nbx 5 10 0.001 10000 1 0 \$0-df-num \$0-df empty 0 -6
0 8 -227964 -62784 -355 0.001 256;
#X obj 651 438 vsl 12 121 0.2 20000 1 0 \$0-eg \$0-eg-set eg 2 7 0
8 -244344 -90133 -90133 0 0;
#X obj 651 564 nbx 5 10 -20000 20000 0 0 \$0-eg-num \$0-eg-pm empty
0 -6 0 8 -244344 -62784 -90133 0 256;
#X obj 666 438 vsl 12 121 7 127 0 0 \$0-off \$0-off-set os 2 7 0 8
-244344 -90133 -90133 0 0;
#X obj 651 577 nbx 5 10 0.001 20000 1 0 \$0-off-num \$0-off empty 0
-6 0 8 -244344 -62784 -355 0.001 256;
#X obj 681 550 tgl 12 0 \$0-eg_pol \$0-eg_pol-set pol 0 -6 0 6 -244344
-90133 -90133 1 1;
#X obj 697 438 vsl 12 121 0.01 1000 1 0 \$0-aa \$0-aa-set aa 2 7 0
8 -212096 -355 -355 0 0;
#X obj 697 564 nbx 5 10 0.001 10000 1 0 \$0-aa-num \$0-aa empty 0 -6
0 8 -212096 -355 -355 0.001 256;
#X obj 712 438 vsl 12 121 0.01 1000 1 0 \$0-da \$0-da-set d 3 7 0 8
-212096 -355 -355 0 0;
#X obj 697 577 nbx 5 10 0.001 10000 1 0 \$0-da-num \$0-da empty 0 -6
0 8 -212096 -355 -355 0.001 256;
#X obj 821 590 nbx 3 10 0 150 0 0 \$0-vol-num \$0-vol-set vol 32 6
0 8 -261689 -62784 -143491 100 256;
#X obj 635 438 vsl 12 101 0 100 0 0 \$0-fr \$0-fr-set rnd -2 -7 0 8
-227964 -90133 -355 0 0;
#X obj 605 590 nbx 5 10 0 100 0 0 \$0-fr-num \$0-fr empty 0 -6 0 8
-227964 -62784 -355 0 256;
#X obj 681 438 vsl 12 81 -1 0 0 0 \$0-fbias \$0-fbias-set bias 1 -7
0 8 -244344 -90133 -90133 8000 0;
#X obj 651 590 nbx 5 10 -1 0 0 0 \$0-fbias-num \$0-fbias empty 0 -6
0 8 -244344 -62784 -355 0 256;
#X obj 727 438 vsl 12 101 0 100 0 0 \$0-ar \$0-ar-set rnd -2 -7 0 8
-212096 -355 -355 0 0;
#X obj 697 590 nbx 5 10 0 100 0 0 \$0-ar-num \$0-ar empty 0 -6 0 8
-212096 -355 -355 0 256;
#X obj 742 458 vsl 12 81 -1 0 0 0 \$0-abias \$0-abias-set bias -6 89
0 8 -212096 -355 -355 8000 0;
#X obj 743 564 nbx 4 10 -1 0 0 0 \$0-abias-num \$0-abias empty 0 -6
0 8 -212096 -355 -355 0 256;
#X obj 869 590 tgl 10 0 \$0-patch_vol_set \$0-patch_vol_set_on patch
-5 -6 0 7 -261689 -143491 -143491 1 1;
#X obj 878 538 tgl 15 0 \$0-patch_on \$0-patch_on-set on 2 -6 1 10
-233017 -90133 -90133 1 1;
#X obj 795 496 vsl 12 51 0 1 0 0 \$0-filter_q \$0-filter_q-set Q 2
-8 1 10 -163264 -355 -355 500 0;
#X obj 761 506 vsl 12 41 0.04 400 1 0 \$0-aeg_amod \$0-aeg_amod-set
a- -3 49 1 10 -163264 -355 -355 1398 0;
#X obj 776 506 vsl 12 41 0.04 400 1 0 \$0-aeg_dmod \$0-aeg_dmod-set
d-mod -6 49 1 10 -163264 -355 -355 1398 0;
#X obj 821 577 nbx 4 10 0 1 0 0 \$0-filter_q-num \$0-filter_q empty
0 -6 0 8 -163264 -355 -355 0.1 256;
#X obj 762 438 vsl 12 51 0.04 400 1 0 \$0-feg_amod \$0-feg_amod-set
filter 0 -8 0 8 -163264 -355 -355 1747 0;
#X obj 777 438 vsl 12 51 0.04 400 1 0 \$0-feg_dmod \$0-feg_dmod-set
amp -11 59 1 10 -163264 -355 -355 1747 0;
#X obj 795 429 vsl 12 49 0.04 400 1 0 \$0-eg_boost \$0-eg_boost-set
eg-off -4 -10 0 8 -163264 -355 -355 1678 0;
#X obj 810 429 vsl 12 49 -96 96 0 0 \$0-off_boost \$0-off_boost-set
boost -16 -19 0 8 -163264 -355 -355 2400 0;
#X obj 743 577 nbx 4 10 0.01 1000 0 0 \$0-feg_amod-num \$0-feg_amod
empty 0 -6 0 8 -163264 -355 -355 1 256;
#X obj 743 590 nbx 4 10 0.01 1000 0 0 \$0-feg_dmod-num \$0-feg_dmod
empty 0 -6 0 8 -163264 -355 -355 1 256;
#X obj 782 577 nbx 4 10 0.01 1000 0 0 \$0-aeg_amod-num \$0-aeg_amod
empty 0 -6 0 8 -163264 -355 -355 1 256;
#X obj 782 590 nbx 4 10 0.01 1000 1 0 \$0-aeg_dmod-num \$0-aeg_dmod
empty 0 -6 0 8 -163264 -355 -355 1 256;
#X obj 782 564 nbx 4 10 0.01 1000 0 0 \$0-eg_boost-num \$0-eg_boost
empty 0 -6 0 8 -163264 -355 -355 1 256;
#X obj 821 564 nbx 4 10 -96 96 0 0 \$0-off_boost-num \$0-off_boost
empty 0 -6 0 8 -163264 -355 -355 0 256;
#X obj 809 511 vradio 12 1 0 4 \$0-filter \$0-filter-set type 3 -21
0 8 -163264 -355 -355 0;
#X symbolatom 809 494 4 0 0 0 - #0-filter-info #0-finfo;
#X obj 827 416 nbx 3 10 0 100 0 0 \$0-noise_level-num \$0-noise_level-set
noise 0 -6 0 8 -4032 -13330 -13330 100 256;
#X obj 651 424 nbx 3 10 1 999 1 0 \$0-offslew-num \$0-offslew-set porta
0 -4 0 8 -244344 -90133 -90133 1 256;
#X obj 862 402 cnv 15 34 124 empty empty empty 20 12 0 14 -183672 -66577
0;
#X obj 865 412 nbx 3 12 0 999 0 0 empty empty empty -2 -6 0 7 -257472
-1109 -90133 0 256;
#X obj 865 436 nbx 3 12 1 159 0 0 \$0-patch-num \$0-patch-set select
0 -5 0 7 -17235 -261234 -17235 1 256;
#X obj 872 469 bng 12 250 50 0 \$0-store_patch \$0-store_patch-bng
store -3 -5 0 7 -17235 -262130 -17235;
#X obj 864 503 bng 10 250 50 0 \$0-patches_load \$0-patches_load-bng
load -1 -5 0 7 -2498 -262144 -13381;
#X obj 883 495 bng 10 250 50 0 \$0-patches_save \$0-patches_save-bng
save -4 16 0 7 -159809 -262144 -86277;
#X obj 865 412 nbx 3 12 0 999 0 0 \$0-patches-dummy \$0-patches-num
patches 0 -5 0 7 -17235 -203904 -17235 158 256;
#X obj 885 451 bng 8 250 50 0 \$0-store_plus \$0-store_plus-bng + -7
4 0 10 -17235 -198336 -17235;
#X obj 865 451 bng 8 250 50 0 \$0-store_minus \$0-store_minus-bng -
8 3 0 10 -17235 -257985 -17235;
#X obj 979 409 s \$0-patch-set;
#X obj 840 501 bng 12 250 50 0 \$0-rspect \$0-rspect-bng empty -1 -6
0 8 -262144 -262144 -262144;
#X obj 837 439 vradio 12 1 0 3 \$0-noise_type \$0-noise_type-set type
-4 -6 0 8 -4032 -13330 -13330 0;
#X symbolatom 837 475 3 0 0 0 - #0-noise_type-lbl #0-snlis;
#X obj 831 525 nbx 3 10 0.1 100 1 0 \$0-warp-num \$0-warp-set empty
4 -6 0 8 -262144 -262144 -262144 0.1 256;
#X obj 52 409 r \$0-hip;
#X obj 879 566 tgl 14 0 \$0-hip \$0-hip-set hpf -1 -6 1 10 -162280
-86853 -13381 1 1;
#X obj 28 459 *~ 0;
#X obj 78 456 *~ 1;
#X obj 47 432 == 0;
#X obj 1172 176 inlet~;
#X obj 131 279 +~;
#X obj 130 708 *~;
#X obj 92 552 *~;
#X obj 131 527 dbtorms;
#X obj 131 507 r \$0-noise_level-num;
#N canvas 811 244 532 300 noises 0;
#X obj 133 232 outlet~;
#N canvas 832 66 450 577 fmspect~ 0;
#X obj -171 166 osc~;
#X obj 23 186 osc~;
#X obj -160 67 r \$0-rspect_1;
#X obj -71 62 r \$0-rspect_2;
#X obj 37 65 r \$0-rspect_3;
#X obj 22 160 +~;
#X obj -72 180 osc~;
#X obj -73 154 +~;
#X obj -162 196 *~;
#X obj -116 153 * 4;
#X obj -25 148 * 4;
#X obj -74 208 *~;
#X obj 1 38 t b f;
#X obj 195 78 inlet;
#X obj 193 126 switch~;
#X obj -12 225 outlet~;
#X obj 8 11 r \$0-warp-num;
#X obj 86 172 f;
#X obj 85 142 r \$0-pquant;
#X obj 125 289 i;
#X obj 107 307 -;
#X obj 110 327 >= 0.5;
#X obj 104 349 == 0;
#X obj 71 368 spigot;
#X obj 137 349 spigot;
#X obj 137 368 + 1;
#X obj 90 399 i;
#X obj 188 349 f;
#X obj 221 350 f;
#X obj 86 210 t f f b f;
#X obj 188 368 /;
#X obj 221 369 /;
#X obj 104 437 *;
#X obj 78 437 *;
#X obj 78 418 mtof;
#X obj 78 475 s \$0-rspect_1;
#X obj 104 456 s \$0-rspect_2;
#X obj -12 437 s \$0-rspect_3;
#X obj 70 325 i;
#X obj 120 266 ftom;
#X obj 103 243 ftom;
#X obj 76 288 ftom;
#X obj 19 130 * 1;
#X obj 146 76 exp;
#X obj 146 57 * 0.057762;
#X obj 146 95 t b f;
#X obj -94 119 * 1;
#X obj -165 134 * 1;
#X obj 146 38 r \$0-fm_trans;
#X connect 0 0 8 0;
#X connect 1 0 15 0;
#X connect 2 0 27 1;
#X connect 2 0 47 0;
#X connect 3 0 28 1;
#X connect 3 0 46 0;
#X connect 4 0 17 1;
#X connect 4 0 42 0;
#X connect 5 0 1 0;
#X connect 6 0 11 0;
#X connect 7 0 6 0;
#X connect 8 0 7 0;
#X connect 9 0 8 1;
#X connect 10 0 11 1;
#X connect 11 0 5 0;
#X connect 12 0 9 0;
#X connect 12 0 10 0;
#X connect 12 1 10 1;
#X connect 12 1 9 1;
#X connect 13 0 14 0;
#X connect 16 0 12 0;
#X connect 17 0 29 0;
#X connect 18 0 17 0;
#X connect 19 0 20 1;
#X connect 20 0 21 0;
#X connect 21 0 22 0;
#X connect 21 0 24 1;
#X connect 22 0 23 1;
#X connect 23 0 26 0;
#X connect 24 0 25 0;
#X connect 25 0 26 0;
#X connect 26 0 34 0;
#X connect 27 0 30 0;
#X connect 28 0 31 0;
#X connect 29 0 41 0;
#X connect 29 1 40 0;
#X connect 29 2 28 0;
#X connect 29 2 27 0;
#X connect 29 3 30 1;
#X connect 29 3 31 1;
#X connect 29 3 39 0;
#X connect 30 0 33 1;
#X connect 31 0 32 1;
#X connect 32 0 36 0;
#X connect 33 0 35 0;
#X connect 34 0 32 0;
#X connect 34 0 33 0;
#X connect 34 0 37 0;
#X connect 38 0 23 0;
#X connect 38 0 24 0;
#X connect 39 0 19 0;
#X connect 40 0 20 0;
#X connect 41 0 38 0;
#X connect 42 0 5 1;
#X connect 42 0 10 0;
#X connect 43 0 45 0;
#X connect 44 0 43 0;
#X connect 45 0 42 0;
#X connect 45 0 46 0;
#X connect 45 0 47 0;
#X connect 45 1 42 1;
#X connect 45 1 46 1;
#X connect 45 1 47 1;
#X connect 46 0 9 0;
#X connect 46 0 7 1;
#X connect 47 0 0 0;
#X connect 48 0 44 0;
#X restore 197 168 pd fmspect~;
#X obj 78 91 == 0;
#X obj 161 93 == 1;
#X obj 244 94 == 2;
#N canvas 0 50 450 300 noise~ 0;
#X obj 59 117 noise~;
#X obj 199 96 inlet;
#X obj 200 131 switch~;
#X obj 70 155 outlet~;
#X connect 0 0 3 0;
#X connect 1 0 2 0;
#X restore 43 165 pd noise~;
#N canvas 0 50 450 300 pink~ 0;
#X obj 199 96 inlet;
#X obj 200 131 switch~;
#X obj 70 155 outlet~;
#X obj 59 117 pink~;
#X connect 0 0 1 0;
#X connect 3 0 2 0;
#X restore 114 166 pd pink~;
#N canvas 5 50 450 300 makerandomfm 0;
#X obj 162 79 t b b b;
#X obj 256 140 random 2e+06;
#X obj 256 164 / 100;
#X obj 170 143 random 2e+06;
#X obj 170 165 / 100;
#X obj 78 145 random 2e+06;
#X obj 77 176 / 100;
#X floatatom 256 205 0 0 0 0 - - -;
#X obj 274 239 s \$0-rspect_3;
#X obj 177 232 s \$0-rspect_2;
#X obj 72 239 s \$0-rspect_1;
#X floatatom 171 206 0 0 0 0 - - -;
#X floatatom 71 209 0 0 0 0 - - -;
#X obj 158 57 bng 15 250 50 0 empty empty empty 17 7 0 10 -262144 -1
-1;
#X obj 187 46 r \$0-rspect;
#X connect 0 0 5 0;
#X connect 0 1 3 0;
#X connect 0 2 1 0;
#X connect 1 0 2 0;
#X connect 2 0 7 0;
#X connect 3 0 4 0;
#X connect 4 0 11 0;
#X connect 5 0 6 0;
#X connect 6 0 12 0;
#X connect 7 0 8 0;
#X connect 11 0 9 0;
#X connect 12 0 10 0;
#X connect 13 0 0 0;
#X connect 14 0 0 0;
#X restore 238 144 pd makerandomfm;
#X obj 78 26 r \$0-noise_type;
#X msg 371 80 set FM;
#X obj 303 114 s \$0-noise_type-lbl;
#X obj 288 60 sel 0 1 2;
#X msg 287 80 set Wh;
#X msg 330 80 set Pi;
#X obj 259 232 s \$0-rspect-bng;
#X obj 360 233 s \$0-warp-set;
#X msg 259 195 color 0 0 0;
#X msg 352 195 color 17 27 27;
#X msg 278 172 label;
#X msg 321 172 label new;
#X msg 392 170 label warp;
#X connect 1 0 0 0;
#X connect 2 0 5 0;
#X connect 3 0 6 0;
#X connect 4 0 1 0;
#X connect 5 0 0 0;
#X connect 6 0 0 0;
#X connect 8 0 2 0;
#X connect 8 0 3 0;
#X connect 8 0 4 0;
#X connect 8 0 11 0;
#X connect 9 0 10 0;
#X connect 11 0 12 0;
#X connect 11 0 16 0;
#X connect 11 0 18 0;
#X connect 11 1 13 0;
#X connect 11 1 16 0;
#X connect 11 1 18 0;
#X connect 11 2 9 0;
#X connect 11 2 17 0;
#X connect 11 2 19 0;
#X connect 11 2 20 0;
#X connect 12 0 10 0;
#X connect 13 0 10 0;
#X connect 16 0 15 0;
#X connect 16 0 14 0;
#X connect 17 0 15 0;
#X connect 17 0 14 0;
#X connect 18 0 14 0;
#X connect 18 0 15 0;
#X connect 19 0 14 0;
#X connect 20 0 15 0;
#X restore 67 525 pd noises;
#X msg 230 68 pitch \$1;
#X obj 137 142 moses 1;
#X obj 270 662 clip~ -20000 20000;
#X obj 265 686 +~ 0;
#X obj 190 532 noise~;
#X obj 149 411 r \$0-filter;
#X obj 102 640 *~ 0;
#X obj 123 619 == 0;
#X obj 149 639 *~ 0;
#X obj 195 638 *~ 0;
#X obj 241 638 *~ 0;
#X obj 170 618 == 1;
#X obj 216 617 == 2;
#X obj 262 617 == 3;
#X msg 439 439 set lpf;
#X msg 454 459 set hpf;
#X msg 470 483 set bpf;
#X msg 486 506 set brf;
#X obj 438 418 sel 0 1 2 3;
#X obj 154 557 *~ 4e-05;
#X obj 374 619 * 1;
#X obj 698 408 hradio 12 1 0 3 \$0-osc_mute \$0-osc_mute-set 0dB 39
6 1 10 -244344 -90133 -90133 0;
#X obj 132 364 *~ 1;
#X obj 19 340 s \$0-osc_mute-set;
#X floatatom 1179 24 5 0 0 0 - - -;
#X obj 138 583 cyclone/svf~;
#X msg 1100 21 dmod \$1;
#X obj 826 547 bng 12 250 50 0 \$0-pquant \$0-pquant-bng pq 1 -6 0
8 -44926 -1109 -1109;
#X obj 882 484 bng 8 250 50 0 \$0-replace_patch \$0-replace_patch-bng
ovw -15 4 0 7 -17235 -262130 -17235;
#X obj 884 516 bng 8 250 50 0 \$0-patches_resave \$0-patches_resave-bng
ovw -17 4 0 7 -159809 -262144 -86277;
#X obj 1259 172 s \$0-af-set;
#X obj 1288 155 s \$0-df-set;
#X obj 1317 138 s \$0-eg-set;
#X obj 1346 121 s \$0-off-set;
#X obj 1405 87 s \$0-aa-set;
#X obj 1434 170 s \$0-da-set;
#X obj 1463 153 s \$0-vol-set;
#X obj 1493 136 s \$0-fr-set;
#X obj 1522 119 s \$0-fbias-set;
#X obj 1551 102 s \$0-ar-set;
#X obj 1580 85 s \$0-abias-set;
#X obj 1376 104 s \$0-eg_pol-set;
#X obj 1681 211 t f f;
#X obj 1671 85 t f f;
#X obj 1626 130 t f f;
#X obj 1095 41 inlet;
#X obj 1783 176 s \$0-filter-set;
#X obj 1873 103 s \$0-off_boost-set;
#X obj 1653 151 s \$0-aeg_amod-set;
#X obj 1698 106 s \$0-aeg_dmod-set;
#X obj 1708 232 s \$0-feg_amod-set;
#X obj 1764 195 s \$0-feg_dmod-set;
#X obj 1814 159 s \$0-filter_q-set;
#X obj 1890 86 s \$0-noise_level-set;
#X obj 1626 168 s \$0-aeg_amod;
#X obj 1671 123 s \$0-aeg_dmod;
#X obj 1681 249 s \$0-feg_amod;
#X obj 1737 212 s \$0-feg_dmod;
#X obj 1737 174 t f f;
#X obj 1862 123 s \$0-eg_boost-set;
#X obj 1827 86 t f f;
#X obj 1834 140 s \$0-eg_boost;
#X obj 2073 170 s \$0-offslew-set;
#X obj 2103 151 s \$0-dmodify;
#X obj 2133 132 s \$0-rspect-bng;
#X obj 2162 113 s \$0-noise_type-set;
#X obj 2192 226 s \$0-rspect_1;
#X obj 2222 207 s \$0-rspect_2;
#X obj 2281 169 s \$0-warp-set;
#X obj 1259 64 route af df feg pitch fpol aa da vol frand fbias arand
abias;
#X obj 2252 188 s \$0-rspect_3;
#X obj 2341 131 s \$0-hip-set;
#X obj 1626 64 route amod dmod famod fdmod ftype q egx off+ noise;
#X obj 2044 21 route randns;
#X obj 2044 41 random 3;
#X msg 2044 61 ntype \$1;
#X obj 1273 315 r \$0-af-num;
#X obj 1287 334 r \$0-df-num;
#X obj 1365 317 r \$0-eg-num;
#X obj 1371 339 r \$0-off-num;
#X obj 1387 380 r \$0-aa-num;
#X obj 1390 400 r \$0-da-num;
#X obj 1481 319 r \$0-vol-num;
#X obj 1486 338 r \$0-fr-num;
#X obj 1496 356 r \$0-fbias-num;
#X obj 1500 377 r \$0-ar-num;
#X obj 1507 396 r \$0-abias-num;
#X obj 1246 408 f;
#X obj 1244 353 r \$0-store_patch;
#X obj 1255 538 t b a;
#X obj 1326 603 msgfile;
#X msg 1603 674 0;
#X msg 1604 653 1;
#X msg 1409 571 add patches 0;
#X obj 1406 533 loadbang;
#X obj 1251 711 route patches;
#X msg 1350 582 goto 0;
#X obj 1255 596 f;
#X msg 1255 649 replace patches \$1;
#X msg 1304 579 this;
#X obj 1255 558 t b b b;
#X obj 1380 359 r \$0-eg_pol;
#X obj 1563 546 t b f;
#X msg 1578 570 goto \$1;
#X msg 1543 569 this;
#X obj 1690 533 r \$0-patches_load;
#X obj 1690 550 openpanel;
#X msg 1764 584 read \$1;
#X msg 1720 584 goto 0;
#X msg 1690 584 this;
#X obj 1870 463 r \$0-patches_save;
#X obj 1870 491 savepanel;
#X msg 1865 544 write \$1;
#X obj 1268 899 s \$0-af-set;
#X obj 1322 820 s \$0-eg-set;
#X obj 1351 799 s \$0-off-set;
#X obj 1424 739 s \$0-da-set;
#X obj 1451 719 s \$0-vol-set;
#X obj 1399 871 s \$0-fr-set;
#X obj 1417 852 s \$0-fbias-set;
#X obj 1438 832 s \$0-ar-set;
#X obj 1460 809 s \$0-abias-set;
#X obj 1374 780 s \$0-eg_pol-set;
#X obj 1469 695 spigot;
#X obj 1487 666 tgl 15 0 empty \$0-patch_vol_set empty 0 -6 0 8 -262144
-1 -1 1 1;
#X msg 1463 504 print;
#X obj 1252 681 route list;
#X obj 1690 567 t b b a b;
#X msg 1672 651 clear;
#X obj 1416 479 r \$0-patches_clear;
#X obj 1414 505 t b b;
#X obj 1575 318 r \$0-filter;
#X obj 1590 341 r \$0-filter_q-num;
#X obj 1600 364 r \$0-eg_boost-num;
#X obj 1618 384 r \$0-off_boost-num;
#X obj 1725 331 r \$0-feg_amod-num;
#X obj 1754 352 r \$0-feg_dmod-num;
#X obj 1683 281 r \$0-aeg_amod-num;
#X obj 1704 306 r \$0-aeg_dmod-num;
#X obj 1491 788 s \$0-filter-set;
#X obj 1529 745 s \$0-eg_boost-set;
#X obj 1553 724 s \$0-off_boost-set;
#X obj 1632 815 s \$0-aeg_amod-set;
#X obj 1647 794 s \$0-aeg_dmod-set;
#X obj 1666 772 s \$0-feg_amod-set;
#X obj 1685 751 s \$0-feg_dmod-set;
#X obj 1764 375 r \$0-noise_level-num;
#X obj 1771 892 s \$0-noise_level-set;
#X msg 1833 569 set \$1;
#X symbolatom 2001 581 10 0 0 0 - - -;
#X obj 1981 556 f;
#X obj 2024 559 del 50;
#X obj 1976 620 r \$0-sinclickr_update;
#X obj 2078 702 t b b b s;
#X obj 1952 583 f;
#X obj 2078 679 spigot;
#X obj 2158 680 r \$0-auto_update;
#X msg 2321 643 set \$1;
#X symbolatom 2321 689 10 0 0 0 - - -;
#X obj 2194 724 spigot;
#X msg 2247 712 1;
#X msg 2246 731 0;
#X obj 2246 623 b;
#X obj 2259 650 del 500;
#X obj 2195 751 s auto_update_sinoiseclickr~;
#X obj 2021 653 r auto_update_sinoiseclickr~;
#X obj 2015 493 symbol;
#X obj 1511 765 s \$0-filter_q-set;
#X obj 2347 524 random;
#X obj 2060 392 r \$0-offslew-num;
#X obj 1829 739 s \$0-offslew-set;
#X obj 2216 519 packel 2;
#X obj 2262 490 packel 7;
#X obj 2275 514 packel 18;
#X obj 2325 491 packel 20;
#X obj 2113 559 s \$0-df-set-mod;
#X obj 2122 584 s \$0-da-set-mod;
#X obj 2274 561 s \$0-damod-mod;
#X obj 2277 582 s \$0-dfmod-mod;
#X obj 1271 579 + 1;
#X obj 2067 774 s \$0-patch-set;
#X obj 1538 490 r \$0-patch-num;
#X obj 1572 516 t b f b;
#X obj 1797 398 r \$0-noise_type;
#X obj 1923 359 r \$0-rspect_1;
#X obj 1947 376 r \$0-rspect_2;
#X obj 1959 396 r \$0-rspect_3;
#X obj 1782 869 s \$0-noise_type-set;
#X obj 1828 763 s \$0-warp-set;
#X obj 2079 356 r \$0-warp-num;
#X obj 1793 840 s \$0-rspect_1;
#X obj 1809 812 s \$0-rspect_2;
#X obj 1827 792 s \$0-rspect_3;
#X obj 1813 691 s \$0-hip-set;
#X obj 2044 420 r \$0-hip;
#X obj 1869 520 makesymbol %s.pat;
#X obj 2138 426 r \$0-osc_mute;
#X obj 1791 657 s \$0-osc_mute-set;
#X msg 1907 659 0;
#X obj 1924 686 loadbang;
#X msg 1547 857 df \$1;
#X msg 1590 858 da \$1;
#X obj 1562 891 s \$0-dmodits;
#X obj 1123 592 packel 2;
#X obj 1185 587 packel 7;
#X obj 1236 475 spigot 1;
#X obj 1246 377 t b b;
#X msg 1276 406 1;
#X obj 1306 476 spigot;
#X obj 1267 293 r \$0-replace_patch;
#X obj 1318 377 t b b;
#X msg 1348 406 1;
#X msg 1288 385 0;
#X msg 1355 387 0;
#X msg 1997 518 set \$1;
#X symbolatom 2057 521 0 0 0 0 - - -;
#X obj 2068 495 r \$0-patches_resave;
#X obj 1652 473 r \$0-store_plus;
#X obj 1655 492 f;
#X obj 1768 500 f;
#X obj 1655 511 + 1;
#X obj 1800 509 - 1;
#X obj 1755 473 r \$0-store_minus;
#X obj 1801 528 moses 1;
#X obj 1694 504 moses;
#X msg 1734 512 1;
#X obj 1733 496 f;
#X obj 1842 510 f;
#X obj 1829 492 t b;
#X obj 2321 543 s \$0-patch-set;
#X msg 1956 962 0;
#X msg 1851 967 1;
#X obj 1889 939 loadbang;
#X obj 1428 1391 spigot;
#X obj 1428 1415 outlet;
#X obj 1366 943 r \$0-af-num;
#X obj 1407 963 r \$0-df-num;
#X obj 1446 983 r \$0-eg-num;
#X obj 1490 1003 r \$0-off-num;
#X obj 1596 1043 r \$0-aa-num;
#X obj 1635 1063 r \$0-da-num;
#X obj 1674 1083 r \$0-vol-num;
#X obj 1719 1103 r \$0-fr-num;
#X obj 1775 1123 r \$0-fbias-num;
#X obj 1831 1143 r \$0-ar-num;
#X obj 1888 1163 r \$0-abias-num;
#X obj 1547 1023 r \$0-eg_pol;
#X obj 1945 1183 r \$0-filter;
#X obj 2002 1203 r \$0-filter_q-num;
#X obj 2035 1223 r \$0-eg_boost-num;
#X obj 2080 1243 r \$0-off_boost-num;
#X obj 1692 971 r \$0-feg_amod-num;
#X obj 1748 991 r \$0-feg_dmod-num;
#X obj 1591 931 r \$0-aeg_amod-num;
#X obj 1642 951 r \$0-aeg_dmod-num;
#X obj 1803 1011 r \$0-noise_level-num;
#X obj 2116 1131 r \$0-offslew-num;
#X obj 1859 1031 r \$0-noise_type;
#X obj 1915 1051 r \$0-rspect_1;
#X obj 1965 1071 r \$0-rspect_2;
#X obj 2015 1091 r \$0-rspect_3;
#X obj 2065 1111 r \$0-warp-num;
#X msg 1366 963 af \$1;
#X msg 1407 983 df \$1;
#X msg 1446 1003 feg \$1;
#X msg 1490 1023 pitch \$1;
#X msg 1547 1043 fpol \$1;
#X msg 1596 1063 aa \$1;
#X msg 1635 1083 da \$1;
#X msg 1674 1103 vol \$1;
#X msg 1719 1123 frand \$1;
#X msg 1775 1143 fbias \$1;
#X msg 1831 1163 arand \$1;
#X msg 1888 1183 abias \$1;
#X msg 1945 1203 ftype \$1;
#X msg 2002 1223 q \$1;
#X msg 2080 1263 off+ \$1;
#X msg 1803 1031 noise \$1;
#X msg 1591 951 amod \$1;
#X msg 1642 971 dmod \$1;
#X msg 1692 991 famod \$1;
#X msg 1748 1011 fdmod \$1;
#X msg 1859 1051 ntype \$1;
#X msg 1915 1071 fmf1 \$1;
#X msg 1965 1091 fmf2 \$1;
#X msg 2015 1111 fmf3 \$1;
#X msg 2065 1131 warp \$1;
#X msg 2116 1151 porta \$1;
#X msg 2018 993 patch \$1;
#X obj 2173 1151 r \$0-hip;
#X msg 2173 1171 hip \$1;
#X msg 2035 1243 egx \$1;
#X obj 2018 968 change;
#X msg 2015 1369 patches \$1;
#X obj 2015 1349 r \$0-patches-num;
#X obj 2308 150 s \$0-patch_on-set;
#X obj 972 82 * 800;
#X obj 844 78 * 800;
#X obj 844 40 r \$0-dmodify;
#X obj 844 59 / 100;
#X obj 972 111 s \$0-da-set;
#X obj 846 111 s \$0-df-set;
#X obj 923 40 r \$0-df-set-mod;
#X obj 987 59 r \$0-da-set-mod;
#X obj 597 699 s \$0-abias-set;
#X obj 581 719 s \$0-fbias-set;
#X msg 607 654 1;
#X obj 607 637 loadbang;
#X obj 607 679 s \$0-patch_vol_set_on;
#X obj 613 759 s \$0-eg_pol-set;
#X obj 888 908 s \$0-filter-set;
#X obj 924 951 s \$0-eg_boost-set;
#X obj 937 972 s \$0-off_boost-set;
#X obj 982 819 s \$0-aeg_amod-set;
#X obj 1029 842 s \$0-aeg_dmod-set;
#X obj 1074 866 s \$0-feg_amod-set;
#X obj 1051 898 s \$0-feg_dmod-set;
#X msg 823 864 0.1;
#X msg 913 880 0;
#X msg 834 798 1;
#X obj 752 793 loadbang;
#X obj 899 931 s \$0-filter_q-set;
#X obj 719 893 s \$0-noise_level-set;
#X msg 719 865 100;
#X obj 639 893 s \$0-vol-set;
#X obj 868 738 s \$0-noise_type-set;
#X msg 863 714 0;
#X obj 933 780 s \$0-hip-set;
#X obj 939 678 s \$0-rspect;
#X obj 22 223 sel 0 1 2;
#X msg 20 246 1;
#X msg 48 248 0.5;
#X msg 72 248 0;
#X msg 12 274 label 0dB;
#X msg 24 295 label -6dB;
#X msg 44 314 label off;
#X obj 17 196 r \$0-osc_mute;
#X obj 841 549 nbx 3 10 -99 99 0 0 \$0-fm_trans \$0-fm_trans-set trans
0 -6 0 8 -4032 -13330 -13330 0 256;
#X obj 2044 81 route randpat porta dmodify rspect ntype fmf1 fmf2 fmf3
warp on hip pq fm_trans;
#X obj 2356 223 s \$0-fm_trans-set;
#X obj 2336 244 s \$0-pquant-bng;
#X obj 1261 442 pack f f f f f f f f f f f f f f f f f f f f f f f
f f f f f f f;
#X obj 1399 608 unpack f f f f f f f f f f f f f f f f f f f f f f
f f f f f f f f;
#X obj 1919 715 s \$0-fm_trans-set;
#X obj 1537 666 spigot 1;
#X obj 1706 451 r \$0-fm_trans;
#X msg 2442 601 set \$1;
#X msg 2442 622 datasets/clinok.pat;
#X obj 2494 537 t b a;
#X obj 2520 561 unpack s;
#X obj 2044 268 route patch file save;
#X obj 2442 655 symbol;
#X obj 66 103 route bang;
#X obj 2147 880 s \$0-patches-num;
#X obj 2147 857 + 1;
#X obj 2056 732 + 2;
#X msg 2068 756 range 1 \$1;
#X obj 886 469 tgl 8 0 \$0-route_ovw \$0-route_ovw-set empty 17 7 0
10 -159809 -261234 -86277 0 1;
#X obj 984 509 s \$0-patches_resave-bng;
#X obj 935 483 spigot;
#X obj 1019 456 r \$0-route_ovw;
#X obj 905 431 r \$0-store_patch;
#X obj 933 506 del 10;
#X obj 992 482 r \$0-replace_patch;
#X obj 2462 80 route patvol;
#X obj 2457 169 s \$0-patch_vol_set_on;
#X obj 1245 879 t f f;
#X obj 1245 919 s \$0-af;
#X obj 1289 849 s \$0-df-set;
#X obj 1289 871 s \$0-df;
#X obj 1278 826 t f f;
#X obj 1311 738 t f f;
#X obj 1371 759 s \$0-aa-set;
#X obj 1311 759 s \$0-aa;
#X obj 1364 739 s \$0-da;
#X obj 1401 705 t f f;
#X obj 1176 496 list prepend add;
#X obj 1301 498 list prepend replace;
#X obj 1225 517 list trim;
#X obj 1301 520 list trim;
#X obj 2125 964 list prepend file;
#X obj 2125 986 list trim;
#X connect 3 0 6 0;
#X connect 4 0 9 1;
#X connect 5 0 532 0;
#X connect 6 0 7 0;
#X connect 7 0 174 0;
#X connect 8 0 9 0;
#X connect 9 0 202 0;
#X connect 11 0 3 0;
#X connect 11 0 4 0;
#X connect 11 0 58 0;
#X connect 11 0 93 0;
#X connect 11 1 30 0;
#X connect 11 1 31 0;
#X connect 11 1 32 0;
#X connect 11 1 33 0;
#X connect 11 1 67 0;
#X connect 11 1 68 0;
#X connect 11 1 91 0;
#X connect 11 1 92 0;
#X connect 12 0 3 1;
#X connect 13 0 14 0;
#X connect 14 0 12 0;
#X connect 15 0 3 2;
#X connect 16 0 17 0;
#X connect 17 0 15 0;
#X connect 18 0 4 1;
#X connect 19 0 20 0;
#X connect 20 0 18 0;
#X connect 21 0 4 2;
#X connect 22 0 23 0;
#X connect 23 0 21 0;
#X connect 24 0 68 1;
#X connect 24 0 67 1;
#X connect 24 0 33 1;
#X connect 24 0 32 1;
#X connect 25 0 31 1;
#X connect 25 0 30 1;
#X connect 25 0 92 1;
#X connect 25 0 91 1;
#X connect 26 0 13 0;
#X connect 27 0 16 0;
#X connect 28 0 19 0;
#X connect 29 0 22 0;
#X connect 30 0 29 0;
#X connect 31 0 28 0;
#X connect 32 0 27 0;
#X connect 33 0 26 0;
#X connect 36 0 14 1;
#X connect 36 0 12 1;
#X connect 36 0 61 1;
#X connect 36 0 59 1;
#X connect 37 0 17 1;
#X connect 37 0 15 1;
#X connect 37 0 64 1;
#X connect 37 0 62 1;
#X connect 38 0 6 1;
#X connect 38 0 73 0;
#X connect 39 0 98 0;
#X connect 39 0 77 0;
#X connect 40 0 20 1;
#X connect 40 0 18 1;
#X connect 40 0 85 1;
#X connect 40 0 83 1;
#X connect 41 0 23 1;
#X connect 41 0 21 1;
#X connect 41 0 88 1;
#X connect 41 0 86 1;
#X connect 42 0 43 0;
#X connect 43 0 175 1;
#X connect 44 0 24 0;
#X connect 45 0 16 1;
#X connect 45 0 13 1;
#X connect 45 0 67 1;
#X connect 45 0 68 1;
#X connect 46 0 25 0;
#X connect 47 0 19 1;
#X connect 47 0 22 1;
#X connect 47 0 84 1;
#X connect 47 0 87 1;
#X connect 48 0 52 0;
#X connect 48 1 49 0;
#X connect 49 0 50 0;
#X connect 49 1 51 0;
#X connect 50 0 52 1;
#X connect 51 0 52 1;
#X connect 52 0 54 0;
#X connect 53 0 52 0;
#X connect 55 0 48 0;
#X connect 56 0 10 0;
#X connect 58 0 71 0;
#X connect 59 0 75 0;
#X connect 60 0 61 0;
#X connect 61 0 59 0;
#X connect 62 0 76 0;
#X connect 63 0 64 0;
#X connect 64 0 62 0;
#X connect 65 0 60 0;
#X connect 66 0 63 0;
#X connect 67 0 66 0;
#X connect 68 0 65 0;
#X connect 69 0 11 0;
#X connect 69 1 181 0;
#X connect 70 0 175 0;
#X connect 71 0 72 0;
#X connect 72 0 182 0;
#X connect 73 0 71 1;
#X connect 74 0 198 0;
#X connect 75 0 58 1;
#X connect 76 0 58 2;
#X connect 77 0 99 0;
#X connect 78 0 200 0;
#X connect 79 0 103 0;
#X connect 80 0 102 0;
#X connect 81 0 75 1;
#X connect 82 0 76 1;
#X connect 83 0 94 0;
#X connect 84 0 85 0;
#X connect 85 0 83 0;
#X connect 86 0 95 0;
#X connect 87 0 88 0;
#X connect 88 0 86 0;
#X connect 89 0 84 0;
#X connect 90 0 87 0;
#X connect 91 0 90 0;
#X connect 92 0 89 0;
#X connect 93 0 70 1;
#X connect 94 0 93 1;
#X connect 95 0 93 2;
#X connect 96 0 94 1;
#X connect 97 0 95 1;
#X connect 98 0 109 0;
#X connect 99 0 72 1;
#X connect 100 0 205 2;
#X connect 102 0 77 0;
#X connect 102 1 77 1;
#X connect 103 0 73 0;
#X connect 103 1 73 1;
#X connect 105 0 163 0;
#X connect 107 0 106 0;
#X connect 108 0 7 1;
#X connect 109 0 108 0;
#X connect 110 0 109 1;
#X connect 168 0 172 0;
#X connect 168 0 171 1;
#X connect 170 0 106 0;
#X connect 171 0 107 0;
#X connect 172 0 170 1;
#X connect 173 0 174 1;
#X connect 174 0 8 0;
#X connect 175 0 170 0;
#X connect 175 0 171 0;
#X connect 176 0 205 0;
#X connect 177 0 176 1;
#X connect 178 0 177 0;
#X connect 179 0 176 0;
#X connect 180 0 249 0;
#X connect 181 1 180 0;
#X connect 181 1 11 0;
#X connect 182 0 183 0;
#X connect 183 0 205 1;
#X connect 184 0 199 0;
#X connect 185 0 187 0;
#X connect 185 0 191 0;
#X connect 185 0 192 0;
#X connect 185 0 193 0;
#X connect 186 0 70 0;
#X connect 187 0 186 1;
#X connect 188 0 70 0;
#X connect 189 0 70 0;
#X connect 190 0 70 0;
#X connect 191 0 188 1;
#X connect 192 0 189 1;
#X connect 193 0 190 1;
#X connect 194 0 101 0;
#X connect 195 0 101 0;
#X connect 196 0 101 0;
#X connect 197 0 101 0;
#X connect 198 0 194 0;
#X connect 198 1 195 0;
#X connect 198 2 196 0;
#X connect 198 3 197 0;
#X connect 199 0 205 0;
#X connect 200 0 100 0;
#X connect 202 0 175 0;
#X connect 204 0 206 0;
#X connect 205 0 186 0;
#X connect 205 1 188 0;
#X connect 205 2 189 0;
#X connect 205 3 190 0;
#X connect 222 0 236 0;
#X connect 222 1 230 0;
#X connect 223 0 235 0;
#X connect 223 1 229 0;
#X connect 224 0 234 0;
#X connect 224 1 228 0;
#X connect 225 0 249 0;
#X connect 238 0 237 0;
#X connect 238 1 231 0;
#X connect 240 0 241 0;
#X connect 240 1 239 0;
#X connect 249 0 210 0;
#X connect 249 1 211 0;
#X connect 249 2 212 0;
#X connect 249 3 213 0;
#X connect 249 4 221 0;
#X connect 249 5 214 0;
#X connect 249 6 215 0;
#X connect 249 7 216 0;
#X connect 249 8 217 0;
#X connect 249 9 218 0;
#X connect 249 10 219 0;
#X connect 249 11 220 0;
#X connect 249 12 252 0;
#X connect 252 0 224 0;
#X connect 252 1 223 0;
#X connect 252 2 222 0;
#X connect 252 3 238 0;
#X connect 252 4 226 0;
#X connect 252 5 232 0;
#X connect 252 6 240 0;
#X connect 252 7 227 0;
#X connect 252 8 233 0;
#X connect 252 9 253 0;
#X connect 252 9 518 0;
#X connect 253 0 254 0;
#X connect 254 0 255 0;
#X connect 255 0 518 0;
#X connect 256 0 267 1;
#X connect 257 0 521 1;
#X connect 258 0 521 2;
#X connect 259 0 521 3;
#X connect 260 0 521 5;
#X connect 261 0 521 6;
#X connect 262 0 521 7;
#X connect 263 0 521 8;
#X connect 264 0 521 9;
#X connect 265 0 521 10;
#X connect 266 0 521 11;
#X connect 267 0 521 0;
#X connect 268 0 386 0;
#X connect 269 0 280 0;
#X connect 269 1 270 0;
#X connect 270 0 306 0;
#X connect 271 0 524 1;
#X connect 272 0 524 1;
#X connect 273 0 270 0;
#X connect 274 0 273 0;
#X connect 275 0 348 1;
#X connect 275 0 359 0;
#X connect 275 0 404 1;
#X connect 275 0 407 1;
#X connect 275 0 524 0;
#X connect 275 1 522 0;
#X connect 276 0 270 0;
#X connect 277 0 278 0;
#X connect 277 0 348 1;
#X connect 277 0 404 1;
#X connect 277 0 534 0;
#X connect 278 0 270 0;
#X connect 279 0 270 0;
#X connect 280 0 277 0;
#X connect 280 1 279 0;
#X connect 280 2 276 0;
#X connect 281 0 521 4;
#X connect 282 0 284 0;
#X connect 282 1 283 0;
#X connect 282 1 334 1;
#X connect 283 0 270 0;
#X connect 284 0 270 0;
#X connect 285 0 286 0;
#X connect 286 0 307 0;
#X connect 286 0 337 0;
#X connect 286 0 340 0;
#X connect 287 0 270 0;
#X connect 288 0 270 0;
#X connect 289 0 270 0;
#X connect 290 0 291 0;
#X connect 291 0 337 0;
#X connect 291 0 340 0;
#X connect 291 0 342 0;
#X connect 291 0 375 0;
#X connect 292 0 270 0;
#X connect 303 0 297 0;
#X connect 304 0 303 1;
#X connect 305 0 270 0;
#X connect 306 0 275 0;
#X connect 307 0 289 0;
#X connect 307 1 288 0;
#X connect 307 1 272 0;
#X connect 307 2 287 0;
#X connect 307 2 328 0;
#X connect 307 2 394 0;
#X connect 307 2 526 0;
#X connect 307 2 560 0;
#X connect 307 3 308 0;
#X connect 307 3 271 0;
#X connect 308 0 270 0;
#X connect 309 0 310 0;
#X connect 310 0 273 0;
#X connect 310 1 308 0;
#X connect 311 0 521 12;
#X connect 312 0 521 13;
#X connect 313 0 521 14;
#X connect 314 0 521 15;
#X connect 315 0 521 18;
#X connect 316 0 521 19;
#X connect 317 0 521 16;
#X connect 318 0 521 17;
#X connect 326 0 521 20;
#X connect 331 0 330 0;
#X connect 332 0 329 0;
#X connect 333 0 334 0;
#X connect 333 0 340 0;
#X connect 333 1 289 0;
#X connect 333 2 288 0;
#X connect 333 3 341 0;
#X connect 333 3 287 0;
#X connect 334 0 282 0;
#X connect 335 0 333 0;
#X connect 336 0 335 1;
#X connect 337 0 338 0;
#X connect 338 0 339 0;
#X connect 339 0 344 0;
#X connect 340 0 339 1;
#X connect 341 0 339 1;
#X connect 342 0 343 0;
#X connect 343 0 338 0;
#X connect 345 0 335 0;
#X connect 346 0 307 0;
#X connect 348 0 409 0;
#X connect 349 0 521 26;
#X connect 351 0 355 0;
#X connect 352 0 356 0;
#X connect 353 0 357 0;
#X connect 354 0 358 0;
#X connect 359 0 277 1;
#X connect 361 0 362 0;
#X connect 361 0 398 1;
#X connect 361 0 399 1;
#X connect 362 0 411 0;
#X connect 362 1 282 0;
#X connect 362 1 472 0;
#X connect 362 2 410 0;
#X connect 363 0 521 21;
#X connect 364 0 521 22;
#X connect 365 0 521 23;
#X connect 366 0 521 24;
#X connect 369 0 521 25;
#X connect 374 0 521 27;
#X connect 375 0 292 0;
#X connect 375 0 394 0;
#X connect 375 0 560 0;
#X connect 376 0 521 28;
#X connect 378 0 377 0;
#X connect 379 0 378 0;
#X connect 380 0 382 0;
#X connect 381 0 382 0;
#X connect 383 0 380 0;
#X connect 384 0 381 0;
#X connect 385 0 556 0;
#X connect 386 0 267 0;
#X connect 386 1 387 0;
#X connect 386 1 392 0;
#X connect 387 0 385 1;
#X connect 388 0 557 0;
#X connect 389 0 390 0;
#X connect 390 0 267 0;
#X connect 390 1 391 0;
#X connect 390 1 393 0;
#X connect 391 0 388 1;
#X connect 392 0 388 1;
#X connect 393 0 385 1;
#X connect 394 0 395 0;
#X connect 395 0 292 0;
#X connect 396 0 395 0;
#X connect 397 0 398 0;
#X connect 398 0 400 0;
#X connect 399 0 401 0;
#X connect 400 0 362 0;
#X connect 400 0 404 0;
#X connect 401 0 403 0;
#X connect 402 0 399 0;
#X connect 403 0 408 0;
#X connect 403 1 362 0;
#X connect 404 0 362 0;
#X connect 404 1 405 0;
#X connect 405 0 362 0;
#X connect 407 0 362 0;
#X connect 408 0 407 0;
#X connect 410 0 413 1;
#X connect 411 0 413 1;
#X connect 412 0 411 0;
#X connect 413 0 414 0;
#X connect 415 0 442 0;
#X connect 416 0 443 0;
#X connect 417 0 444 0;
#X connect 418 0 445 0;
#X connect 419 0 447 0;
#X connect 420 0 448 0;
#X connect 421 0 449 0;
#X connect 422 0 450 0;
#X connect 423 0 451 0;
#X connect 424 0 452 0;
#X connect 425 0 453 0;
#X connect 426 0 446 0;
#X connect 427 0 454 0;
#X connect 428 0 455 0;
#X connect 429 0 471 0;
#X connect 430 0 456 0;
#X connect 431 0 460 0;
#X connect 432 0 461 0;
#X connect 433 0 458 0;
#X connect 434 0 459 0;
#X connect 435 0 457 0;
#X connect 436 0 467 0;
#X connect 437 0 462 0;
#X connect 438 0 463 0;
#X connect 439 0 464 0;
#X connect 440 0 465 0;
#X connect 441 0 466 0;
#X connect 442 0 413 0;
#X connect 443 0 413 0;
#X connect 444 0 413 0;
#X connect 445 0 413 0;
#X connect 446 0 413 0;
#X connect 447 0 413 0;
#X connect 448 0 413 0;
#X connect 449 0 413 0;
#X connect 450 0 413 0;
#X connect 451 0 413 0;
#X connect 452 0 413 0;
#X connect 453 0 413 0;
#X connect 454 0 413 0;
#X connect 455 0 413 0;
#X connect 456 0 413 0;
#X connect 457 0 413 0;
#X connect 458 0 413 0;
#X connect 459 0 413 0;
#X connect 460 0 413 0;
#X connect 461 0 413 0;
#X connect 462 0 413 0;
#X connect 463 0 413 0;
#X connect 464 0 413 0;
#X connect 465 0 413 0;
#X connect 466 0 413 0;
#X connect 467 0 413 0;
#X connect 468 0 414 0;
#X connect 469 0 470 0;
#X connect 470 0 413 0;
#X connect 471 0 413 0;
#X connect 472 0 468 0;
#X connect 473 0 414 0;
#X connect 474 0 473 0;
#X connect 476 0 480 0;
#X connect 477 0 481 0;
#X connect 478 0 479 0;
#X connect 479 0 477 0;
#X connect 479 0 476 0;
#X connect 482 0 477 1;
#X connect 483 0 476 1;
#X connect 486 0 484 0;
#X connect 486 0 485 0;
#X connect 486 0 488 0;
#X connect 486 0 489 0;
#X connect 487 0 486 0;
#X connect 497 0 501 0;
#X connect 498 0 492 0;
#X connect 498 0 490 0;
#X connect 499 0 491 0;
#X connect 499 0 493 0;
#X connect 499 0 494 0;
#X connect 499 0 495 0;
#X connect 499 0 496 0;
#X connect 499 0 507 0;
#X connect 500 0 499 0;
#X connect 500 0 497 0;
#X connect 500 0 498 0;
#X connect 500 0 503 0;
#X connect 500 0 506 0;
#X connect 500 0 508 0;
#X connect 503 0 502 0;
#X connect 503 0 504 0;
#X connect 506 0 505 0;
#X connect 509 0 510 0;
#X connect 509 0 513 0;
#X connect 509 1 511 0;
#X connect 509 1 514 0;
#X connect 509 2 512 0;
#X connect 509 2 515 0;
#X connect 510 0 202 1;
#X connect 511 0 202 1;
#X connect 512 0 202 1;
#X connect 513 0 203 0;
#X connect 514 0 203 0;
#X connect 515 0 203 0;
#X connect 516 0 509 0;
#X connect 518 0 348 0;
#X connect 518 1 242 0;
#X connect 518 2 243 0;
#X connect 518 3 244 0;
#X connect 518 4 245 0;
#X connect 518 5 246 0;
#X connect 518 6 247 0;
#X connect 518 7 250 0;
#X connect 518 8 248 0;
#X connect 518 9 475 0;
#X connect 518 10 251 0;
#X connect 518 11 520 0;
#X connect 518 12 519 0;
#X connect 518 13 530 0;
#X connect 518 13 544 0;
#X connect 521 0 351 0;
#X connect 521 0 352 0;
#X connect 521 0 354 0;
#X connect 521 0 353 0;
#X connect 521 0 383 0;
#X connect 521 0 384 0;
#X connect 521 0 385 0;
#X connect 521 0 388 0;
#X connect 522 0 546 0;
#X connect 522 1 355 0;
#X connect 522 1 380 0;
#X connect 522 1 550 0;
#X connect 522 2 294 0;
#X connect 522 3 295 0;
#X connect 522 4 302 0;
#X connect 522 5 551 0;
#X connect 522 6 381 0;
#X connect 522 6 555 0;
#X connect 522 7 303 0;
#X connect 522 8 298 0;
#X connect 522 9 299 0;
#X connect 522 10 300 0;
#X connect 522 11 301 0;
#X connect 522 12 319 0;
#X connect 522 13 347 0;
#X connect 522 14 320 0;
#X connect 522 15 321 0;
#X connect 522 16 322 0;
#X connect 522 17 323 0;
#X connect 522 17 357 0;
#X connect 522 18 324 0;
#X connect 522 19 325 0;
#X connect 522 19 358 0;
#X connect 522 20 327 0;
#X connect 522 21 367 0;
#X connect 522 22 370 0;
#X connect 522 23 371 0;
#X connect 522 24 372 0;
#X connect 522 25 368 0;
#X connect 522 26 350 0;
#X connect 522 27 373 0;
#X connect 522 28 377 0;
#X connect 522 29 523 0;
#X connect 524 0 534 0;
#X connect 524 0 535 0;
#X connect 525 0 521 29;
#X connect 526 0 527 0;
#X connect 527 0 531 0;
#X connect 528 0 527 0;
#X connect 528 1 529 0;
#X connect 529 0 526 0;
#X connect 530 0 409 0;
#X connect 530 1 346 0;
#X connect 530 2 528 0;
#X connect 531 0 292 0;
#X connect 532 0 11 0;
#X connect 532 1 69 0;
#X connect 534 0 533 0;
#X connect 535 0 536 0;
#X connect 536 0 360 0;
#X connect 539 0 542 0;
#X connect 540 0 539 1;
#X connect 541 0 539 0;
#X connect 542 0 538 0;
#X connect 543 0 539 0;
#X connect 544 0 545 0;
#X connect 546 0 547 0;
#X connect 546 1 293 0;
#X connect 550 0 549 0;
#X connect 550 1 548 0;
#X connect 551 0 553 0;
#X connect 551 1 552 0;
#X connect 555 0 554 0;
#X connect 555 1 296 0;
#X connect 556 0 558 0;
#X connect 557 0 559 0;
#X connect 558 0 269 0;
#X connect 559 0 270 0;
#X connect 560 0 561 0;
#X connect 561 0 414 0;
#X coords 0 -1 1 1 297 206 1 600 399;
