#N canvas 15 82 1351 673 10;
#X declare -lib zexy;
#X declare -lib creb;
#X declare -lib cyclone;
#X obj 672 24 declare -lib zexy;
#X obj 670 49 declare -lib creb;
#X obj 669 72 declare -lib cyclone;
#X obj 131 212 ead~;
#X obj 282 211 ead~;
#X obj 76 86 inlet;
#X obj 131 233 *~;
#X obj 131 255 +~;
#X obj 131 305 osc~;
#X obj 131 325 *~;
#X obj 1165 79 switch~;
#X obj 62 108 bng 15 250 50 0 empty empty empty 0 -6 0 8 -262144 -1
-1;
#X obj 131 345 *~ 1;
#X obj 99 173 t b b;
#X obj 427 337 +;
#X obj 427 303 +;
#X obj 427 320 *;
#X obj 506 339 +;
#X obj 506 305 +;
#X obj 506 322 *;
#X obj 590 337 +;
#X obj 590 303 +;
#X obj 590 320 *;
#X obj 662 337 +;
#X obj 662 303 +;
#X obj 662 320 *;
#X obj 411 178 * 100;
#X obj 647 193 * 100;
#X obj 427 269 / 10000;
#X obj 506 269 / 10000;
#X obj 590 271 / 10000;
#X obj 662 269 / 10000;
#X obj 662 252 random 100;
#X obj 590 252 random 100;
#X obj 506 252 random 100;
#X obj 427 252 random 100;
#X text 730 307 efa6df 590051;
#X obj 500 143 r \$0-af-num;
#X obj 585 140 r \$0-df-num;
#X obj 251 119 r \$0-eg-num;
#X obj 280 154 r \$0-off-num;
#X obj 793 142 r \$0-aa-num;
#X obj 884 135 r \$0-da-num;
#X obj 370 114 r \$0-vol-num;
#X obj 370 131 dbtorms;
#X obj 412 156 r \$0-fr-num;
#X obj 508 196 r \$0-fbias-num;
#X obj 629 168 r \$0-ar-num;
#X obj 688 137 r \$0-abias-num;
#X obj 1130 347 t b f;
#X obj 1157 377 sel 0 1;
#X msg 1160 402 -1;
#X msg 1188 402 1;
#X obj 1126 430 * 1;
#X obj 1110 279 r \$0-eg;
#X obj 1137 316 r \$0-eg_pol;
#X obj 1165 58 r \$0-patch_on;
#X obj 952 455 bng 9 250 50 0 \$0-patches_clear \$0-patches_clear-bng
clear -6 -5 0 6 -257472 -62784 -90133;
#X obj 290 535 ead~;
#X obj 227 380 +;
#X obj 227 346 +;
#X obj 227 363 *;
#X obj 306 380 +;
#X obj 306 346 +;
#X obj 306 363 *;
#X obj 227 312 / 10000;
#X obj 306 312 / 10000;
#X obj 306 295 random 100;
#X obj 227 295 random 100;
#X obj 98 153 sel 1;
#X obj 137 718 *~;
#X obj 290 569 *~;
#X obj 357 538 *;
#X obj 282 492 * 1;
#X obj 345 484 * 1;
#X obj 331 600 +;
#X obj 386 564 r \$0-filter_q-num;
#X obj 395 506 r \$0-eg_boost-num;
#X obj 386 536 r \$0-off_boost-num;
#X obj 341 456 r \$0-feg_amod-num;
#X obj 379 484 r \$0-feg_dmod-num;
#X obj 864 345 +;
#X obj 864 311 +;
#X obj 864 328 *;
#X obj 943 345 +;
#X obj 943 311 +;
#X obj 943 328 *;
#X obj 864 277 / 10000;
#X obj 943 277 / 10000;
#X obj 943 260 random 100;
#X obj 864 260 random 100;
#X obj 241 548 ead~;
#X obj 319 403 * 1;
#X obj 398 404 * 1;
#X obj 335 358 r \$0-aeg_amod-num;
#X obj 414 379 r \$0-aeg_dmod-num;
#X obj 242 155 mtof;
#X obj 331 617 mtof;
#X obj 374 636 sig~;
#X obj 335 569 t b f;
#X obj 349 515 t b f;
#X obj 93 558 *~;
#X obj 132 533 dbtorms;
#X obj 132 513 r \$0-noise_level-num;
#X obj 927 395 bng 9 250 50 0 \$0-reset_patch \$0-reset_patch-bng reset
12 4 0 6 -62784 -257472 -90133;
#X obj 979 382 r \$0-reset_patch;
#X obj 34 623 outlet~;
#X obj 61 596 hip~ 18;
#X obj 180 234 line~;
#X obj 183 214 pack f 0;
#X obj 233 183 r \$0-offslew-num;
#N canvas 0 0 700 416 init 0;
#X obj 26 104 s \$0-abias-num;
#X obj 10 124 s \$0-fbias-num;
#X msg 40 62 1;
#X obj 36 42 loadbang;
#X obj 36 84 s \$0-patch_vol_set_on;
#X obj 42 164 s \$0-eg_pol-num;
#X obj 317 313 s \$0-filter-num;
#X obj 353 356 s \$0-eg_boost-num;
#X obj 366 377 s \$0-off_boost-num;
#X obj 411 224 s \$0-aeg_amod-num;
#X obj 458 247 s \$0-aeg_dmod-num;
#X obj 503 271 s \$0-feg_amod-num;
#X obj 480 303 s \$0-feg_dmod-num;
#X msg 252 269 0.1;
#X msg 342 285 0;
#X msg 263 203 1;
#X obj 181 198 loadbang;
#X obj 328 336 s \$0-filter_q-num;
#X obj 148 298 s \$0-noise_level-num;
#X msg 148 270 100;
#X obj 18 263 s \$0-vol-num;
#X obj 297 143 s \$0-noise_type-num;
#X msg 292 119 0;
#X obj 362 185 s \$0-hip-num;
#X obj 368 83 s \$0-rspect;
#X connect 2 0 0 0;
#X connect 2 0 1 0;
#X connect 2 0 4 0;
#X connect 2 0 5 0;
#X connect 3 0 2 0;
#X connect 13 0 17 0;
#X connect 14 0 8 0;
#X connect 14 0 6 0;
#X connect 15 0 7 0;
#X connect 15 0 9 0;
#X connect 15 0 10 0;
#X connect 15 0 11 0;
#X connect 15 0 12 0;
#X connect 15 0 23 0;
#X connect 16 0 15 0;
#X connect 16 0 13 0;
#X connect 16 0 14 0;
#X connect 16 0 19 0;
#X connect 16 0 22 0;
#X connect 16 0 24 0;
#X connect 19 0 18 0;
#X connect 19 0 20 0;
#X connect 22 0 21 0;
#X restore 408 41 pd init;
#X obj 869 589 tgl 10 0 \$0-patch_vol_set \$0-patch_vol_set_on patch
-5 -6 0 7 -261689 -143491 -143491 1 1;
#X obj 870 526 tgl 15 0 \$0-patch_on \$0-patch_on-set on 2 -6 0 10
-233017 -90133 -90133 0 1;
#X obj 872 470 bng 12 250 50 0 \$0-store_patch \$0-store_patch-bng
store -3 -5 0 7 -17235 -262130 -17235;
#X obj 864 494 bng 10 250 50 0 \$0-patches_load \$0-patches_load-bng
load -1 -5 0 7 -2498 -262144 -13381;
#X obj 883 486 bng 10 250 50 0 \$0-patches_save \$0-patches_save-bng
save -4 16 0 7 -159809 -262144 -86277;
#X obj 885 451 bng 8 250 50 0 \$0-store_plus \$0-store_plus-bng + -7
4 0 10 -17235 -198336 -17235;
#X obj 865 451 bng 8 250 50 0 \$0-store_minus \$0-store_minus-bng -
8 3 0 10 -17235 -257985 -17235;
#X obj 982 418 s \$0-patch-set;
#N canvas 836 244 532 300 noises 0;
#X obj 133 232 outlet~;
#N canvas 832 276 450 300 fmspect~ 0;
#X obj -171 166 osc~;
#X obj 23 186 osc~;
#X obj -178 115 r \$0-rspect_1;
#X obj -73 108 r \$0-rspect_2;
#X obj 24 115 r \$0-rspect_3;
#X obj 22 160 +~;
#X obj -72 180 osc~;
#X obj -73 154 +~;
#X obj -162 196 *~;
#X obj -116 153 * 4;
#X obj -25 148 * 4;
#X obj -74 208 *~;
#X obj 1 62 t b f;
#X obj 140 64 inlet;
#X obj 138 112 switch~;
#X obj -12 225 outlet~;
#X obj 8 35 r \$0-warp-num;
#X connect 0 0 8 0;
#X connect 1 0 15 0;
#X connect 2 0 0 0;
#X connect 3 0 7 1;
#X connect 3 0 9 0;
#X connect 4 0 5 1;
#X connect 4 0 10 0;
#X connect 5 0 1 0;
#X connect 6 0 11 0;
#X connect 7 0 6 0;
#X connect 8 0 7 0;
#X connect 9 0 8 1;
#X connect 10 0 11 1;
#X connect 11 0 5 0;
#X connect 12 0 9 0;
#X connect 12 0 10 0;
#X connect 12 1 10 1;
#X connect 12 1 9 1;
#X connect 13 0 14 0;
#X connect 16 0 12 0;
#X restore 197 168 pd fmspect~;
#X obj 78 91 == 0;
#X obj 161 93 == 1;
#X obj 244 94 == 2;
#N canvas 0 0 450 300 noise~ 0;
#X obj 59 117 noise~;
#X obj 199 96 inlet;
#X obj 200 131 switch~;
#X obj 70 155 outlet~;
#X connect 0 0 3 0;
#X connect 1 0 2 0;
#X restore 43 165 pd noise~;
#N canvas 0 0 450 300 pink~ 0;
#X obj 199 96 inlet;
#X obj 200 131 switch~;
#X obj 70 155 outlet~;
#X obj 59 117 pink~;
#X connect 0 0 1 0;
#X connect 3 0 2 0;
#X restore 114 166 pd pink~;
#N canvas 5 48 450 300 makerandomfm 0;
#X obj 162 79 t b b b;
#X obj 256 140 random 2e+06;
#X obj 256 164 / 100;
#X obj 170 143 random 2e+06;
#X obj 170 165 / 100;
#X obj 78 145 random 2e+06;
#X obj 77 176 / 100;
#X floatatom 256 205 0 0 0 0 - - -;
#X obj 274 239 s \$0-rspect_3;
#X obj 177 232 s \$0-rspect_2;
#X obj 72 239 s \$0-rspect_1;
#X floatatom 171 206 0 0 0 0 - - -;
#X floatatom 71 209 0 0 0 0 - - -;
#X obj 158 57 bng 15 250 50 0 empty empty empty 17 7 0 10 -262144 -1
-1;
#X obj 187 46 r \$0-rspect;
#X connect 0 0 5 0;
#X connect 0 1 3 0;
#X connect 0 2 1 0;
#X connect 1 0 2 0;
#X connect 2 0 7 0;
#X connect 3 0 4 0;
#X connect 4 0 11 0;
#X connect 5 0 6 0;
#X connect 6 0 12 0;
#X connect 7 0 8 0;
#X connect 11 0 9 0;
#X connect 12 0 10 0;
#X connect 13 0 0 0;
#X connect 14 0 0 0;
#X restore 238 144 pd makerandomfm;
#X obj 78 26 r \$0-noise_type;
#X msg 371 80 set FM;
#X obj 303 114 s \$0-noise_type-lbl;
#X obj 288 60 sel 0 1 2;
#X msg 287 80 set Wh;
#X msg 330 80 set Pi;
#X obj 259 232 s \$0-rspect-bng;
#X obj 360 233 s \$0-warp-num;
#X msg 259 195 color 0 0 0;
#X msg 352 195 color 17 27 27;
#X msg 278 172 label;
#X msg 321 172 label new;
#X msg 392 170 label warp;
#X connect 1 0 0 0;
#X connect 2 0 5 0;
#X connect 3 0 6 0;
#X connect 4 0 1 0;
#X connect 5 0 0 0;
#X connect 6 0 0 0;
#X connect 8 0 2 0;
#X connect 8 0 3 0;
#X connect 8 0 4 0;
#X connect 8 0 11 0;
#X connect 9 0 10 0;
#X connect 11 0 12 0;
#X connect 11 0 16 0;
#X connect 11 0 18 0;
#X connect 11 1 13 0;
#X connect 11 1 16 0;
#X connect 11 1 18 0;
#X connect 11 2 9 0;
#X connect 11 2 17 0;
#X connect 11 2 19 0;
#X connect 11 2 20 0;
#X connect 12 0 10 0;
#X connect 13 0 10 0;
#X connect 16 0 15 0;
#X connect 16 0 14 0;
#X connect 17 0 15 0;
#X connect 17 0 14 0;
#X connect 18 0 14 0;
#X connect 18 0 15 0;
#X connect 19 0 14 0;
#X connect 20 0 15 0;
#X restore 68 531 pd noises;
#X obj 52 409 r \$0-hip;
#X obj 871 558 tgl 14 0 \$0-hip \$0-hip-num hp 2 -6 0 10 -162280 -86853
-13381 1 1;
#X obj 28 459 *~ 0;
#X obj 78 456 *~ 1;
#X obj 47 432 == 0;
#X obj 1172 176 inlet~;
#X obj 131 279 +~;
#X obj 1128 455 s \$0-eg-num;
#X obj 791 384 cnv 15 34 104 empty empty empty 20 12 0 14 -183672 -66577
0;
#X obj 794 394 nbx 3 12 0 999 0 0 empty empty empty -2 -6 0 7 -257472
-1109 -90133 0 256;
#X obj 794 418 nbx 3 12 1 157 0 0 \$0-patch-num \$0-patch-set select
0 -5 0 7 -17235 -261234 -17235 1 256;
#X obj 794 394 nbx 3 12 0 999 0 0 \$0-patches-dummy \$0-patches-num
patches 0 -5 0 7 -17235 -203904 -17235 0 256;
#X obj 139 153 moses 1;
#X msg 172 108 pitch \$1;
#X obj 252 609 +~ 0;
#X obj 251 639 clip~ -20000 20000;
#X obj 154 631 +~ 0;
#X obj 202 573 noise~;
#X obj 74 694 *~ 0;
#X obj 95 673 == 0;
#X obj 121 693 *~ 0;
#X obj 167 692 *~ 0;
#X obj 213 692 *~ 0;
#X obj 142 672 == 1;
#X obj 188 671 == 2;
#X obj 234 671 == 3;
#X obj 157 454 r \$0-filter;
#X obj 167 598 *~ 4e-05;
#X obj 374 619 * 1;
#X obj 131 651 cyclone/svf~;
#X obj 672 480 r \$0-df-num-mod;
#X obj 683 502 r \$0-da-num-mod;
#X obj 668 558 * 800;
#X obj 540 554 * 800;
#X obj 629 452 r \$0-dmodify;
#X obj 614 484 / 100;
#X obj 542 587 s \$0-df-num;
#X obj 668 587 s \$0-da-num;
#X obj 623 559 * 1;
#X obj 677 524 r \$0-damod-mod;
#X obj 641 618 s \$0-aeg_dmod-num;
#X obj 583 509 moses 1;
#X obj 620 530 pow 2;
#X obj 703 565 * 1;
#X obj 711 544 r \$0-dfmod-mod;
#X obj 658 643 s \$0-feg_dmod-num;
#X obj 1259 172 s \$0-af-num;
#X obj 1288 155 s \$0-df-num;
#X obj 1346 121 s \$0-off-num;
#X obj 1405 87 s \$0-aa-num;
#X obj 1434 170 s \$0-da-num;
#X obj 1463 153 s \$0-vol-num;
#X obj 1493 136 s \$0-fr-num;
#X obj 1522 119 s \$0-fbias-num;
#X obj 1551 102 s \$0-ar-num;
#X obj 1580 85 s \$0-abias-num;
#X obj 1681 211 t f f;
#X obj 1671 85 t f f;
#X obj 1626 130 t f f;
#X obj 850 40 inlet;
#X obj 1873 103 s \$0-off_boost-num;
#X obj 1653 151 s \$0-aeg_amod-num;
#X obj 1698 106 s \$0-aeg_dmod-num;
#X obj 1708 232 s \$0-feg_amod-num;
#X obj 1764 195 s \$0-feg_dmod-num;
#X obj 1814 159 s \$0-filter_q-num;
#X obj 1890 86 s \$0-noise_level-num;
#X obj 1626 168 s \$0-aeg_amod;
#X obj 1671 123 s \$0-aeg_dmod;
#X obj 1681 249 s \$0-feg_amod;
#X obj 1737 212 s \$0-feg_dmod;
#X obj 1737 174 t f f;
#X obj 1862 123 s \$0-eg_boost-num;
#X obj 1827 86 t f f;
#X obj 1834 140 s \$0-eg_boost;
#X obj 2073 170 s \$0-offslew-num;
#X obj 2103 151 s \$0-dmodify;
#X obj 2133 132 s \$0-rspect-bng;
#X obj 2192 226 s \$0-rspect_1;
#X obj 2222 207 s \$0-rspect_2;
#X obj 2281 169 s \$0-warp-num;
#X obj 1259 64 route af df feg pitch fpol aa da vol frand fbias arand
abias;
#X obj 2252 188 s \$0-rspect_3;
#X obj 2044 81 route randpat porta dmodify rspect ntype fmf1 fmf2 fmf3
warp on hip;
#X obj 1626 64 route amod dmod famod fdmod ftype q egx off+ noise;
#X obj 2044 21 route randns;
#X obj 2044 41 random 3;
#X msg 2044 61 ntype \$1;
#X obj 1273 315 r \$0-af-num;
#X obj 1287 334 r \$0-df-num;
#X obj 1365 317 r \$0-eg-num;
#X obj 1371 339 r \$0-off-num;
#X obj 1387 380 r \$0-aa-num;
#X obj 1390 400 r \$0-da-num;
#X obj 1481 319 r \$0-vol-num;
#X obj 1486 338 r \$0-fr-num;
#X obj 1496 356 r \$0-fbias-num;
#X obj 1500 377 r \$0-ar-num;
#X obj 1507 396 r \$0-abias-num;
#X obj 1246 408 f;
#X obj 1244 353 r \$0-store_patch;
#X obj 1236 494 prepend add;
#X obj 1256 514 t b a;
#X obj 1326 603 msgfile;
#X obj 1559 671 spigot;
#X msg 1603 670 0;
#X msg 1604 653 1;
#X msg 1409 571 add patches 0;
#X obj 1406 533 loadbang;
#X obj 1251 711 route patches;
#X msg 1343 520 goto 0;
#X obj 1255 596 f;
#X msg 1255 649 replace patches \$1;
#X msg 1304 579 this;
#X obj 1255 558 t b b b;
#X obj 1380 359 r \$0-eg_pol;
#X obj 1559 688 s \$0-patches-num;
#X obj 1563 546 t b f;
#X msg 1578 570 goto \$1;
#X msg 1543 569 this;
#X obj 1690 533 r \$0-patches_load;
#X obj 1690 550 openpanel;
#X msg 1764 584 read \$1;
#X msg 1720 584 goto 0;
#X msg 1690 584 this;
#X obj 1870 463 r \$0-patches_save;
#X obj 1870 491 savepanel;
#X msg 1865 544 write \$1;
#X obj 1261 865 s \$0-af-num;
#X obj 1293 841 s \$0-df-num;
#X obj 1351 799 s \$0-off-num;
#X obj 1400 759 s \$0-aa-num;
#X obj 1430 737 s \$0-da-num;
#X obj 1451 719 s \$0-vol-num;
#X obj 1399 871 s \$0-fr-num;
#X obj 1417 852 s \$0-fbias-num;
#X obj 1438 832 s \$0-ar-num;
#X obj 1460 809 s \$0-abias-num;
#X obj 1469 695 spigot;
#X obj 1487 666 tgl 15 0 empty \$0-patch_vol_set empty 0 -6 0 8 -262144
-1 -1 1 1;
#X msg 1463 504 print;
#X obj 1252 681 route list;
#X obj 1690 567 t b b a b;
#X msg 1672 651 clear;
#X obj 1416 479 r \$0-patches_clear;
#X obj 1414 505 t b b;
#X obj 1575 318 r \$0-filter;
#X obj 1590 341 r \$0-filter_q-num;
#X obj 1600 364 r \$0-eg_boost-num;
#X obj 1618 384 r \$0-off_boost-num;
#X obj 1725 331 r \$0-feg_amod-num;
#X obj 1754 352 r \$0-feg_dmod-num;
#X obj 1683 281 r \$0-aeg_amod-num;
#X obj 1704 306 r \$0-aeg_dmod-num;
#X obj 1529 745 s \$0-eg_boost-num;
#X obj 1553 724 s \$0-off_boost-num;
#X obj 1632 815 s \$0-aeg_amod-num;
#X obj 1647 794 s \$0-aeg_dmod-num;
#X obj 1666 772 s \$0-feg_amod-num;
#X obj 1685 751 s \$0-feg_dmod-num;
#X obj 1764 375 r \$0-noise_level-num;
#X obj 1771 892 s \$0-noise_level-num;
#X msg 1833 569 set \$1;
#X symbolatom 2001 581 10 0 0 0 - - -, f 10;
#X obj 1981 556 f;
#X obj 2024 559 del 50;
#X obj 1976 620 r \$0-sinclickr_update;
#X obj 2078 702 t b b b s;
#X obj 1952 583 f;
#X obj 2078 679 spigot;
#X obj 2158 680 r \$0-auto_update;
#X msg 2321 643 set \$1;
#X symbolatom 2321 689 10 0 0 0 - - -, f 10;
#X obj 2194 724 spigot;
#X msg 2247 712 1;
#X msg 2246 731 0;
#X obj 2246 623 b;
#X obj 2259 650 del 500;
#X obj 2195 751 s auto_update_sinoiseclickr~;
#X obj 2021 653 r auto_update_sinoiseclickr~;
#X obj 2015 493 symbol;
#X obj 1511 765 s \$0-filter_q-num;
#X obj 2347 524 random;
#X floatatom 2372 811 5 0 0 0 - - -, f 5;
#X obj 2060 392 r \$0-offslew-num;
#X obj 1829 739 s \$0-offslew-num;
#X obj 2216 519 packel 2;
#X obj 2262 490 packel 7;
#X obj 2275 514 packel 18;
#X obj 2325 491 packel 20;
#X obj 2113 559 s \$0-df-num-mod;
#X obj 2122 584 s \$0-da-num-mod;
#X obj 2274 561 s \$0-damod-mod;
#X obj 2277 582 s \$0-dfmod-mod;
#X msg 1811 608 range 1 \$1;
#X obj 1271 579 + 1;
#X obj 1538 490 r \$0-patch-num;
#X obj 1572 516 t b f b;
#X obj 1797 398 r \$0-noise_type;
#X obj 1923 359 r \$0-rspect_1;
#X obj 1947 376 r \$0-rspect_2;
#X obj 1959 396 r \$0-rspect_3;
#X obj 1828 763 s \$0-warp-num;
#X obj 2079 356 r \$0-warp-num;
#X obj 1793 840 s \$0-rspect_1;
#X obj 1809 812 s \$0-rspect_2;
#X obj 1827 792 s \$0-rspect_3;
#X obj 2044 420 r \$0-hip;
#X obj 2170 299 r patchsinoi;
#X obj 1869 520 makesymbol %s.pat;
#X obj 1401 610 unpack f f f f f f f f f f f f f f f f f f f f f f
f f f f f f f;
#X obj 1261 442 pack f f f f f f f f f f f f f f f f f f f f f f f
f f f f f f;
#X obj 2138 426 r \$0-osc_mute;
#X obj 1791 657 s \$0-osc_mute-num;
#X msg 1907 659 0;
#X obj 1924 686 loadbang;
#X msg 1547 857 df \$1;
#X msg 1590 858 da \$1;
#X obj 1562 891 s \$0-dmodits;
#X obj 1123 592 packel 2;
#X obj 1185 587 packel 7;
#X obj 1236 475 spigot 1;
#X obj 1246 377 t b b;
#X msg 1276 406 1;
#X obj 1306 476 spigot;
#X obj 1310 495 prepend replace;
#X obj 1267 293 r \$0-replace_patch;
#X obj 1318 377 t b b;
#X msg 1348 406 1;
#X msg 1288 385 0;
#X msg 1355 387 0;
#X msg 1997 518 set \$1;
#X symbolatom 2057 521 10 0 0 0 - - -, f 10;
#X obj 2068 495 r \$0-patches_resave;
#X obj 1652 473 r \$0-store_plus;
#X obj 1655 492 f;
#X obj 1768 500 f;
#X obj 1655 511 + 1;
#X obj 1800 509 - 1;
#X obj 1755 473 r \$0-store_minus;
#X obj 1801 528 moses 1;
#X obj 1694 504 moses;
#X msg 1734 512 1;
#X obj 1733 496 f;
#X obj 1842 510 f;
#X obj 1829 492 t b;
#X obj 2321 543 s \$0-patch-num;
#X msg 1956 962 0;
#X msg 1851 967 1;
#X obj 1889 939 loadbang;
#X obj 1428 1391 spigot;
#X obj 1428 1415 outlet;
#X obj 1366 943 r \$0-af-num;
#X obj 1407 963 r \$0-df-num;
#X obj 1446 983 r \$0-eg-num;
#X obj 1490 1003 r \$0-off-num;
#X obj 1596 1043 r \$0-aa-num;
#X obj 1635 1063 r \$0-da-num;
#X obj 1674 1083 r \$0-vol-num;
#X obj 1719 1103 r \$0-fr-num;
#X obj 1775 1123 r \$0-fbias-num;
#X obj 1831 1143 r \$0-ar-num;
#X obj 1888 1163 r \$0-abias-num;
#X obj 1547 1023 r \$0-eg_pol;
#X obj 1945 1183 r \$0-filter;
#X obj 2002 1203 r \$0-filter_q-num;
#X obj 2035 1223 r \$0-eg_boost-num;
#X obj 2080 1243 r \$0-off_boost-num;
#X obj 1692 971 r \$0-feg_amod-num;
#X obj 1748 991 r \$0-feg_dmod-num;
#X obj 1591 931 r \$0-aeg_amod-num;
#X obj 1642 951 r \$0-aeg_dmod-num;
#X obj 1803 1011 r \$0-noise_level-num;
#X obj 2116 1131 r \$0-offslew-num;
#X obj 1859 1031 r \$0-noise_type;
#X obj 1915 1051 r \$0-rspect_1;
#X obj 1965 1071 r \$0-rspect_2;
#X obj 2015 1091 r \$0-rspect_3;
#X obj 2065 1111 r \$0-warp-num;
#X msg 1366 963 af \$1;
#X msg 1407 983 df \$1;
#X msg 1446 1003 feg \$1;
#X msg 1490 1023 pitch \$1;
#X msg 1547 1043 fpol \$1;
#X msg 1596 1063 aa \$1;
#X msg 1635 1083 da \$1;
#X msg 1674 1103 vol \$1;
#X msg 1719 1123 frand \$1;
#X msg 1775 1143 fbias \$1;
#X msg 1831 1163 arand \$1;
#X msg 1888 1183 abias \$1;
#X msg 1945 1203 ftype \$1;
#X msg 2002 1223 q \$1;
#X msg 2080 1263 off+ \$1;
#X msg 1803 1031 noise \$1;
#X msg 1591 951 amod \$1;
#X msg 1642 971 dmod \$1;
#X msg 1692 991 famod \$1;
#X msg 1748 1011 fdmod \$1;
#X msg 1859 1051 ntype \$1;
#X msg 1915 1071 fmf1 \$1;
#X msg 1965 1091 fmf2 \$1;
#X msg 2015 1111 fmf3 \$1;
#X msg 2065 1131 warp \$1;
#X msg 2116 1151 porta \$1;
#X msg 2018 993 patch \$1;
#X obj 2125 964 prepend file;
#X obj 2173 1151 r \$0-hip;
#X msg 2173 1171 hip \$1;
#X msg 2035 1243 egx \$1;
#X obj 2018 968 change;
#X msg 2015 1369 patches \$1;
#X obj 2015 1349 r \$0-patches-num;
#X obj 2044 268 route patch file;
#X obj 2308 150 s \$0-patch_on;
#X obj 2285 326 unpack f f f f f f f f f f f f f f f f f f f f f f
s f f f;
#X obj 2559 382 random 3;
#X obj 2274 429 pack f f f f f f f f f f f f f f f f f f f f f f f
f f f f 1;
#X obj 2565 357 b;
#X obj 2779 370 random 2e+06;
#X obj 2779 389 / 100;
#X obj 2700 370 random 2e+06;
#X obj 2700 389 / 100;
#X obj 2621 370 random 2e+06;
#X obj 2621 389 / 100;
#X obj 2858 370 random 30;
#X obj 2858 389 / 10;
#X obj 2639 349 t b;
#X obj 1322 820 s \$0-eg;
#X obj 1491 788 s \$0-filter;
#X obj 1374 780 s \$0-eg_pol;
#X obj 1782 869 s \$0-noise_type;
#X obj 1810 626 s \$0-patch-set;
#X obj 1317 138 s \$0-eg;
#X obj 1376 104 s \$0-eg_pol;
#X obj 1783 176 s \$0-filter;
#X obj 2162 113 s \$0-noise_type;
#X obj 2341 131 s \$0-hip;
#X obj 2431 107 route patvol;
#X obj 2430 135 s \$0-patch_vol_set;
#X obj 1813 691 s \$0-hip;
#X connect 3 0 6 0;
#X connect 4 0 9 1;
#X connect 5 0 69 0;
#X connect 6 0 7 0;
#X connect 7 0 127 0;
#X connect 8 0 9 0;
#X connect 9 0 12 0;
#X connect 11 0 13 0;
#X connect 12 0 123 0;
#X connect 12 0 124 0;
#X connect 13 0 3 0;
#X connect 13 0 4 0;
#X connect 13 0 58 0;
#X connect 13 0 91 0;
#X connect 13 1 32 0;
#X connect 13 1 33 0;
#X connect 13 1 34 0;
#X connect 13 1 35 0;
#X connect 13 1 67 0;
#X connect 13 1 68 0;
#X connect 13 1 89 0;
#X connect 13 1 90 0;
#X connect 14 0 3 1;
#X connect 15 0 16 0;
#X connect 16 0 14 0;
#X connect 17 0 3 2;
#X connect 18 0 19 0;
#X connect 19 0 17 0;
#X connect 20 0 4 1;
#X connect 21 0 22 0;
#X connect 22 0 20 0;
#X connect 23 0 4 2;
#X connect 24 0 25 0;
#X connect 25 0 23 0;
#X connect 26 0 68 1;
#X connect 26 0 67 1;
#X connect 26 0 35 1;
#X connect 26 0 34 1;
#X connect 27 0 33 1;
#X connect 27 0 32 1;
#X connect 27 0 90 1;
#X connect 27 0 89 1;
#X connect 28 0 15 0;
#X connect 29 0 18 0;
#X connect 30 0 21 0;
#X connect 31 0 24 0;
#X connect 32 0 31 0;
#X connect 33 0 30 0;
#X connect 34 0 29 0;
#X connect 35 0 28 0;
#X connect 37 0 16 1;
#X connect 37 0 14 1;
#X connect 37 0 61 1;
#X connect 37 0 59 1;
#X connect 38 0 19 1;
#X connect 38 0 17 1;
#X connect 38 0 64 1;
#X connect 38 0 62 1;
#X connect 39 0 6 1;
#X connect 39 0 72 0;
#X connect 40 0 96 0;
#X connect 40 0 75 0;
#X connect 41 0 22 1;
#X connect 41 0 20 1;
#X connect 41 0 83 1;
#X connect 41 0 81 1;
#X connect 42 0 25 1;
#X connect 42 0 23 1;
#X connect 42 0 86 1;
#X connect 42 0 84 1;
#X connect 43 0 44 0;
#X connect 44 0 12 1;
#X connect 45 0 26 0;
#X connect 46 0 18 1;
#X connect 46 0 15 1;
#X connect 46 0 67 1;
#X connect 46 0 68 1;
#X connect 47 0 27 0;
#X connect 48 0 21 1;
#X connect 48 0 24 1;
#X connect 48 0 82 1;
#X connect 48 0 85 1;
#X connect 49 0 53 0;
#X connect 49 1 50 0;
#X connect 50 0 51 0;
#X connect 50 1 52 0;
#X connect 51 0 53 1;
#X connect 52 0 53 1;
#X connect 53 0 128 0;
#X connect 54 0 53 0;
#X connect 55 0 49 0;
#X connect 56 0 10 0;
#X connect 58 0 71 0;
#X connect 59 0 73 0;
#X connect 60 0 61 0;
#X connect 61 0 59 0;
#X connect 62 0 74 0;
#X connect 63 0 64 0;
#X connect 64 0 62 0;
#X connect 65 0 60 0;
#X connect 66 0 63 0;
#X connect 67 0 66 0;
#X connect 68 0 65 0;
#X connect 69 0 13 0;
#X connect 69 1 133 0;
#X connect 70 0 12 0;
#X connect 71 0 135 0;
#X connect 72 0 71 1;
#X connect 73 0 58 1;
#X connect 74 0 58 2;
#X connect 75 0 97 0;
#X connect 76 0 149 0;
#X connect 77 0 100 0;
#X connect 78 0 99 0;
#X connect 79 0 73 1;
#X connect 80 0 74 1;
#X connect 81 0 92 0;
#X connect 82 0 83 0;
#X connect 83 0 81 0;
#X connect 84 0 93 0;
#X connect 85 0 86 0;
#X connect 86 0 84 0;
#X connect 87 0 82 0;
#X connect 88 0 85 0;
#X connect 89 0 88 0;
#X connect 90 0 87 0;
#X connect 91 0 70 1;
#X connect 92 0 91 1;
#X connect 93 0 91 2;
#X connect 94 0 92 1;
#X connect 95 0 93 1;
#X connect 96 0 109 0;
#X connect 97 0 135 1;
#X connect 98 0 150 2;
#X connect 99 0 75 0;
#X connect 99 1 75 1;
#X connect 100 0 72 0;
#X connect 100 1 72 1;
#X connect 101 0 150 0;
#X connect 102 0 101 1;
#X connect 103 0 102 0;
#X connect 105 0 119 0;
#X connect 107 0 106 0;
#X connect 108 0 7 1;
#X connect 109 0 108 0;
#X connect 110 0 109 1;
#X connect 120 0 101 0;
#X connect 121 0 125 0;
#X connect 121 0 124 1;
#X connect 123 0 106 0;
#X connect 124 0 107 0;
#X connect 125 0 123 1;
#X connect 126 0 127 1;
#X connect 127 0 8 0;
#X connect 133 1 13 0;
#X connect 133 1 134 0;
#X connect 134 0 202 0;
#X connect 135 0 136 0;
#X connect 136 0 137 0;
#X connect 137 0 150 1;
#X connect 138 0 148 0;
#X connect 139 0 70 0;
#X connect 140 0 139 1;
#X connect 141 0 70 0;
#X connect 142 0 70 0;
#X connect 143 0 70 0;
#X connect 144 0 141 1;
#X connect 145 0 142 1;
#X connect 146 0 143 1;
#X connect 147 0 140 0;
#X connect 147 0 144 0;
#X connect 147 0 145 0;
#X connect 147 0 146 0;
#X connect 148 0 150 0;
#X connect 149 0 98 0;
#X connect 150 0 139 0;
#X connect 150 1 141 0;
#X connect 150 2 142 0;
#X connect 150 3 143 0;
#X connect 151 0 154 1;
#X connect 152 0 153 1;
#X connect 153 0 158 0;
#X connect 154 0 157 0;
#X connect 155 0 156 0;
#X connect 156 0 154 0;
#X connect 156 0 153 0;
#X connect 156 0 162 0;
#X connect 159 0 161 0;
#X connect 160 0 159 1;
#X connect 162 0 159 0;
#X connect 162 0 164 0;
#X connect 162 1 163 0;
#X connect 163 0 159 0;
#X connect 163 0 164 0;
#X connect 164 0 166 0;
#X connect 165 0 164 1;
#X connect 177 0 190 0;
#X connect 177 1 184 0;
#X connect 178 0 189 0;
#X connect 178 1 183 0;
#X connect 179 0 188 0;
#X connect 179 1 182 0;
#X connect 180 0 202 0;
#X connect 192 0 191 0;
#X connect 192 1 185 0;
#X connect 194 0 195 0;
#X connect 194 1 193 0;
#X connect 202 0 167 0;
#X connect 202 1 168 0;
#X connect 202 2 454 0;
#X connect 202 3 169 0;
#X connect 202 4 455 0;
#X connect 202 5 170 0;
#X connect 202 6 171 0;
#X connect 202 7 172 0;
#X connect 202 8 173 0;
#X connect 202 9 174 0;
#X connect 202 10 175 0;
#X connect 202 11 176 0;
#X connect 202 12 205 0;
#X connect 204 0 303 0;
#X connect 204 1 196 0;
#X connect 204 2 197 0;
#X connect 204 3 198 0;
#X connect 204 4 457 0;
#X connect 204 5 199 0;
#X connect 204 6 200 0;
#X connect 204 7 203 0;
#X connect 204 8 201 0;
#X connect 204 9 435 0;
#X connect 204 10 458 0;
#X connect 204 11 434 0;
#X connect 204 11 459 0;
#X connect 205 0 179 0;
#X connect 205 1 178 0;
#X connect 205 2 177 0;
#X connect 205 3 192 0;
#X connect 205 4 456 0;
#X connect 205 5 186 0;
#X connect 205 6 194 0;
#X connect 205 7 181 0;
#X connect 205 8 187 0;
#X connect 205 9 204 0;
#X connect 205 9 206 0;
#X connect 206 0 207 0;
#X connect 207 0 208 0;
#X connect 208 0 204 0;
#X connect 209 0 220 1;
#X connect 210 0 332 1;
#X connect 211 0 332 2;
#X connect 212 0 332 3;
#X connect 213 0 332 5;
#X connect 214 0 332 6;
#X connect 215 0 332 7;
#X connect 216 0 332 8;
#X connect 217 0 332 9;
#X connect 218 0 332 10;
#X connect 219 0 332 11;
#X connect 220 0 332 0;
#X connect 221 0 343 0;
#X connect 222 0 223 0;
#X connect 223 0 235 0;
#X connect 223 1 224 0;
#X connect 224 0 262 0;
#X connect 225 0 226 0;
#X connect 225 0 237 0;
#X connect 225 0 315 0;
#X connect 226 0 225 1;
#X connect 227 0 225 1;
#X connect 228 0 224 0;
#X connect 229 0 228 0;
#X connect 230 0 225 0;
#X connect 230 0 303 1;
#X connect 230 0 316 0;
#X connect 230 0 362 1;
#X connect 230 0 365 1;
#X connect 230 1 331 0;
#X connect 231 0 224 0;
#X connect 232 0 233 0;
#X connect 232 0 237 0;
#X connect 232 0 303 1;
#X connect 232 0 362 1;
#X connect 233 0 224 0;
#X connect 234 0 224 0;
#X connect 235 0 232 0;
#X connect 235 1 234 0;
#X connect 235 2 231 0;
#X connect 236 0 332 4;
#X connect 238 0 240 0;
#X connect 238 1 239 0;
#X connect 238 1 289 1;
#X connect 239 0 224 0;
#X connect 240 0 224 0;
#X connect 241 0 242 0;
#X connect 242 0 263 0;
#X connect 242 0 292 0;
#X connect 242 0 295 0;
#X connect 243 0 224 0;
#X connect 244 0 224 0;
#X connect 245 0 224 0;
#X connect 246 0 247 0;
#X connect 247 0 292 0;
#X connect 247 0 295 0;
#X connect 247 0 297 0;
#X connect 247 0 330 0;
#X connect 248 0 224 0;
#X connect 259 0 254 0;
#X connect 260 0 259 1;
#X connect 261 0 224 0;
#X connect 262 0 230 0;
#X connect 263 0 245 0;
#X connect 263 1 244 0;
#X connect 263 1 227 0;
#X connect 263 2 243 0;
#X connect 263 2 283 0;
#X connect 263 2 352 0;
#X connect 263 2 427 0;
#X connect 263 3 264 0;
#X connect 264 0 224 0;
#X connect 265 0 266 0;
#X connect 266 0 228 0;
#X connect 266 1 264 0;
#X connect 267 0 332 12;
#X connect 268 0 332 13;
#X connect 269 0 332 14;
#X connect 270 0 332 15;
#X connect 271 0 332 18;
#X connect 272 0 332 19;
#X connect 273 0 332 16;
#X connect 274 0 332 17;
#X connect 281 0 332 20;
#X connect 286 0 285 0;
#X connect 287 0 284 0;
#X connect 288 0 289 0;
#X connect 288 0 295 0;
#X connect 288 1 245 0;
#X connect 288 2 244 0;
#X connect 288 3 296 0;
#X connect 288 3 243 0;
#X connect 289 0 238 0;
#X connect 290 0 288 0;
#X connect 291 0 290 1;
#X connect 292 0 293 0;
#X connect 293 0 294 0;
#X connect 294 0 299 0;
#X connect 295 0 294 1;
#X connect 296 0 294 1;
#X connect 297 0 298 0;
#X connect 298 0 293 0;
#X connect 300 0 290 0;
#X connect 301 0 263 0;
#X connect 303 0 304 0;
#X connect 303 0 367 0;
#X connect 305 0 332 26;
#X connect 307 0 311 0;
#X connect 308 0 312 0;
#X connect 309 0 313 0;
#X connect 310 0 314 0;
#X connect 315 0 453 0;
#X connect 316 0 232 1;
#X connect 317 0 318 0;
#X connect 317 0 356 1;
#X connect 317 0 357 1;
#X connect 318 0 369 0;
#X connect 318 1 238 0;
#X connect 318 1 431 0;
#X connect 318 2 368 0;
#X connect 319 0 332 21;
#X connect 320 0 332 22;
#X connect 321 0 332 23;
#X connect 322 0 332 24;
#X connect 324 0 332 25;
#X connect 328 0 332 27;
#X connect 329 0 436 0;
#X connect 330 0 248 0;
#X connect 330 0 352 0;
#X connect 330 0 427 0;
#X connect 331 0 249 0;
#X connect 331 1 250 0;
#X connect 331 1 311 0;
#X connect 331 1 337 0;
#X connect 331 2 449 0;
#X connect 331 3 251 0;
#X connect 331 4 451 0;
#X connect 331 5 252 0;
#X connect 331 6 253 0;
#X connect 331 6 338 0;
#X connect 331 7 259 0;
#X connect 331 8 255 0;
#X connect 331 9 256 0;
#X connect 331 10 257 0;
#X connect 331 11 258 0;
#X connect 331 12 450 0;
#X connect 331 13 302 0;
#X connect 331 14 275 0;
#X connect 331 15 276 0;
#X connect 331 16 277 0;
#X connect 331 17 278 0;
#X connect 331 17 313 0;
#X connect 331 18 279 0;
#X connect 331 19 280 0;
#X connect 331 19 314 0;
#X connect 331 20 282 0;
#X connect 331 21 452 0;
#X connect 331 22 325 0;
#X connect 331 23 326 0;
#X connect 331 24 327 0;
#X connect 331 25 323 0;
#X connect 331 26 306 0;
#X connect 331 27 461 0;
#X connect 331 28 334 0;
#X connect 332 0 307 0;
#X connect 332 0 308 0;
#X connect 332 0 310 0;
#X connect 332 0 309 0;
#X connect 332 0 340 0;
#X connect 332 0 341 0;
#X connect 332 0 342 0;
#X connect 332 0 345 0;
#X connect 333 0 332 28;
#X connect 335 0 334 0;
#X connect 336 0 335 0;
#X connect 337 0 339 0;
#X connect 338 0 339 0;
#X connect 340 0 337 0;
#X connect 341 0 338 0;
#X connect 342 0 222 0;
#X connect 343 0 220 0;
#X connect 343 1 344 0;
#X connect 343 1 350 0;
#X connect 344 0 342 1;
#X connect 345 0 346 0;
#X connect 346 0 224 0;
#X connect 347 0 348 0;
#X connect 348 0 220 0;
#X connect 348 1 349 0;
#X connect 348 1 351 0;
#X connect 349 0 345 1;
#X connect 350 0 345 1;
#X connect 351 0 342 1;
#X connect 352 0 353 0;
#X connect 353 0 248 0;
#X connect 354 0 353 0;
#X connect 355 0 356 0;
#X connect 356 0 358 0;
#X connect 357 0 359 0;
#X connect 358 0 318 0;
#X connect 358 0 362 0;
#X connect 359 0 361 0;
#X connect 360 0 357 0;
#X connect 361 0 366 0;
#X connect 361 1 318 0;
#X connect 362 0 318 0;
#X connect 362 1 363 0;
#X connect 363 0 318 0;
#X connect 365 0 318 0;
#X connect 366 0 365 0;
#X connect 368 0 371 1;
#X connect 369 0 371 1;
#X connect 370 0 369 0;
#X connect 371 0 372 0;
#X connect 373 0 400 0;
#X connect 374 0 401 0;
#X connect 375 0 402 0;
#X connect 376 0 403 0;
#X connect 377 0 405 0;
#X connect 378 0 406 0;
#X connect 379 0 407 0;
#X connect 380 0 408 0;
#X connect 381 0 409 0;
#X connect 382 0 410 0;
#X connect 383 0 411 0;
#X connect 384 0 404 0;
#X connect 385 0 412 0;
#X connect 386 0 413 0;
#X connect 387 0 430 0;
#X connect 388 0 414 0;
#X connect 389 0 418 0;
#X connect 390 0 419 0;
#X connect 391 0 416 0;
#X connect 392 0 417 0;
#X connect 393 0 415 0;
#X connect 394 0 425 0;
#X connect 395 0 420 0;
#X connect 396 0 421 0;
#X connect 397 0 422 0;
#X connect 398 0 423 0;
#X connect 399 0 424 0;
#X connect 400 0 371 0;
#X connect 401 0 371 0;
#X connect 402 0 371 0;
#X connect 403 0 371 0;
#X connect 404 0 371 0;
#X connect 405 0 371 0;
#X connect 406 0 371 0;
#X connect 407 0 371 0;
#X connect 408 0 371 0;
#X connect 409 0 371 0;
#X connect 410 0 371 0;
#X connect 411 0 371 0;
#X connect 412 0 371 0;
#X connect 413 0 371 0;
#X connect 414 0 371 0;
#X connect 415 0 371 0;
#X connect 416 0 371 0;
#X connect 417 0 371 0;
#X connect 418 0 371 0;
#X connect 419 0 371 0;
#X connect 420 0 371 0;
#X connect 421 0 371 0;
#X connect 422 0 371 0;
#X connect 423 0 371 0;
#X connect 424 0 371 0;
#X connect 425 0 371 0;
#X connect 426 0 372 0;
#X connect 427 0 372 0;
#X connect 428 0 429 0;
#X connect 429 0 371 0;
#X connect 430 0 371 0;
#X connect 431 0 426 0;
#X connect 432 0 372 0;
#X connect 433 0 432 0;
#X connect 434 0 367 0;
#X connect 434 1 301 0;
#X connect 436 0 438 0;
#X connect 436 1 438 1;
#X connect 436 2 438 2;
#X connect 436 3 438 3;
#X connect 436 4 438 4;
#X connect 436 5 438 5;
#X connect 436 6 438 6;
#X connect 436 7 438 7;
#X connect 436 8 438 8;
#X connect 436 9 438 9;
#X connect 436 10 438 10;
#X connect 436 11 438 11;
#X connect 436 12 438 12;
#X connect 436 13 438 13;
#X connect 436 14 438 14;
#X connect 436 15 438 15;
#X connect 436 16 438 16;
#X connect 436 17 438 17;
#X connect 436 18 438 18;
#X connect 436 19 438 19;
#X connect 436 20 438 20;
#X connect 436 24 439 0;
#X connect 436 24 448 0;
#X connect 436 25 438 26;
#X connect 437 0 438 21;
#X connect 438 0 222 0;
#X connect 439 0 437 0;
#X connect 440 0 441 0;
#X connect 441 0 438 24;
#X connect 442 0 443 0;
#X connect 443 0 438 23;
#X connect 444 0 445 0;
#X connect 445 0 438 22;
#X connect 446 0 447 0;
#X connect 447 0 438 25;
#X connect 448 0 444 0;
#X connect 448 0 442 0;
#X connect 448 0 440 0;
#X connect 448 0 446 0;
#X connect 459 0 460 0;
#X coords 0 0 1 1 297 206 0;
