#N canvas 131 110 408 300 10;
#X obj 19 30 inlet;
#X obj 75 157 % 4;
#X obj 75 106 - 1;
#X obj 81 205 sel 0;
#X obj 73 131 + 0;
#X floatatom 196 108 4 0 0 0 - - -;
#X text 213 109 %;
#X floatatom 166 108 4 0 9999 0 - - -;
#X msg 189 73 4;
#X obj 199 41 loadbang;
#X obj 147 108 tgl 15 0 empty empty empty 17 7 0 10 -262144 -1 -1 0
1;
#X obj 32 78 spigot;
#X obj 83 238 outlet;
#X text 183 109 +;
#X connect 0 0 11 0;
#X connect 1 0 3 0;
#X connect 2 0 4 0;
#X connect 3 0 12 0;
#X connect 4 0 1 0;
#X connect 5 0 1 1;
#X connect 7 0 4 1;
#X connect 8 0 5 0;
#X connect 9 0 8 0;
#X connect 10 0 11 1;
#X connect 11 0 2 0;
#X coords 0 -1 1 1 85 36 1 142 90;
