#N canvas 3 89 516 300 10;
#X obj 56 62 inlet~;
#X obj 42 272 outlet~;
#X obj 201 213 cnv 15 110 40 empty empty empty 10 12 0 16 -257985 -83269
0;
#X obj 206 230 nbx 6 18 0.002205 22050 1 0 \$0-frequency \$0-frequency-set
frequency 0 -8 0 14 -262130 -83269 -83269 22050 1025;
#X obj 292 31 inlet;
#X obj 292 71 s \$0-frequency-set;
#X obj 292 51 route freq on;
#X obj 331 96 s \$0-on-set;
#X obj 286 230 tgl 18 0 \$0-on \$0-on-set on 3 -8 0 12 -228856 -86277
-1 1 1;
#X msg 353 30 1;
#X obj 352 7 loadbang;
#N canvas 3 89 450 300 crusha~ 0;
#X obj 61 200 phasor~;
#X obj 43 227 samphold~;
#X obj 125 91 / 2;
#X obj 61 171 *;
#X obj 125 70 samplerate~;
#X obj 125 49 loadbang;
#X obj 25 72 r \$0-frequency;
#X obj 153 149 s \$0-frequency-set;
#X obj 61 128 /;
#X obj 324 180 * 1e-07;
#X obj 328 202 pack 0.00205 22050;
#X msg 329 229 range \$1 \$2;
#X obj 324 252 s \$0-frequency-set;
#X obj 316 132 t f f f;
#X obj 204 74 switch~;
#X obj 204 46 r \$0-on;
#X obj 43 29 inlet~;
#X obj 43 250 outlet~;
#X connect 0 0 1 1;
#X connect 1 0 17 0;
#X connect 2 0 3 1;
#X connect 2 0 8 1;
#X connect 2 0 13 0;
#X connect 3 0 0 0;
#X connect 4 0 2 0;
#X connect 5 0 4 0;
#X connect 6 0 8 0;
#X connect 8 0 3 0;
#X connect 9 0 10 0;
#X connect 10 0 11 0;
#X connect 11 0 12 0;
#X connect 13 0 7 0;
#X connect 13 1 9 0;
#X connect 13 2 10 1;
#X connect 15 0 14 0;
#X connect 16 0 1 0;
#X restore 53 128 pd crusha~;
#X obj 354 159 r \$0-on;
#X obj 354 181 sel 1 0;
#X msg 334 203 label on;
#X msg 395 203 label byp;
#X msg 335 233 label_pos 3 -8;
#X obj 375 275 s \$0-on-set;
#X msg 375 253 label_pos 0 -8;
#X obj 176 91 r \$0-on;
#X obj 176 114 == 0;
#X obj 152 142 *~;
#X connect 0 0 11 0;
#X connect 0 0 21 0;
#X connect 4 0 6 0;
#X connect 6 0 5 0;
#X connect 6 1 7 0;
#X connect 9 0 7 0;
#X connect 10 0 9 0;
#X connect 11 0 1 0;
#X connect 12 0 13 0;
#X connect 13 0 14 0;
#X connect 13 0 16 0;
#X connect 13 1 15 0;
#X connect 13 1 18 0;
#X connect 14 0 17 0;
#X connect 15 0 17 0;
#X connect 16 0 17 0;
#X connect 18 0 17 0;
#X connect 19 0 20 0;
#X connect 20 0 21 1;
#X connect 21 0 1 0;
#X coords 0 -1 1 1 112 56 1 200 200;
