#N canvas 3 114 1201 443 10;
#X declare -lib echocurve~ -lib zexy;
#X obj 190 103 cnv 15 100 60 empty empty empty 20 12 0 14 -134687 -66577
0;
#X obj 101 118 cnv 15 189 109 empty empty empty 20 12 0 14 -134687
-66577 0;
#X obj 421 225 echocurve~ 10000 10 2 1.5;
#X msg 511 154 durcurve \$1;
#X msg 511 174 ampcurve \$1;
#X msg 511 194 points \$1;
#X msg 418 175 clear;
#X obj 106 121 hsl 121 14 0.125 8 1 0 empty empty dur-curve 5 7 1 10
-114626 -13381 -13381 7170 1;
#X obj 233 121 nbx 5 14 0.01 100 1 0 \$0-durcurve empty empty 0 -8
1 10 -114626 -13381 -13381 1.5 256;
#X obj 103 37 loadbang;
#X msg 103 59 1.5;
#X obj 106 138 hsl 121 14 0.125 8 1 0 empty empty amp-curve 5 7 1 10
-114626 -13381 -13381 7170 1;
#X obj 233 138 nbx 5 14 0.01 100 1 0 \$0-ampcurve empty empty 0 -8
1 10 -114626 -13381 -13381 1.5 256;
#X obj 180 55 t f f;
#X obj 183 33 r \$0-durcurve-set;
#X obj 379 61 t f f;
#X obj 313 33 r \$0-ampcurve-set;
#X obj 656 76 r \$0-points;
#X obj 656 98 i;
#X obj 656 120 makefilename points=%s;
#X msg 656 142 label \$1;
#X obj 656 164 s \$0-points-set;
#X obj 106 172 hsl 121 14 1 121 0 0 \$0-points \$0-points-set points=10
5 7 1 10 -204773 -13381 -13381 900 1;
#X obj 106 155 hsl 179 14 10 10000 1 0 \$0-duration \$0-duration-set
duration=523.722 5 7 1 10 -159698 -13381 -13381 10200 1;
#X msg 826 142 label \$1;
#X obj 826 98 f;
#X obj 826 120 makefilename duration=%s;
#X obj 826 164 s \$0-duration-set;
#X obj 233 169 nbx 5 14 0.01 10000 0 0 \$0-duration-num \$0-duration
empty 0 -8 1 10 -159698 -13381 -13381 523.722 256;
#X obj 233 189 nbx 5 14 0 5000 0 0 \$0-dl2Time-num \$0-dl2Time empty
0 -8 1 10 -204800 -13381 -13381 0 256;
#X obj 371 255 delwrite~ \$0-dBuf 5000;
#X obj 811 338 vd~ \$0-dBuf;
#X obj 811 308 line~;
#X obj 811 284 pack f 10;
#X obj 492 89 r \$0-durcurve;
#X obj 502 109 r \$0-ampcurve;
#X obj 461 133 r \$0-duration-num;
#X obj 826 74 r \$0-duration-num;
#X msg 883 98 set \$1;
#X obj 616 276 *~;
#X obj 633 251 line~;
#X obj 633 229 pack f 10;
#X msg 53 56 10;
#X msg 32 83 500;
#X obj 106 189 hsl 121 14 1 5000 1 0 \$0-dl2Time \$0-dl2Time-set feedback_delay_time
5 7 1 10 -204800 -13381 -13381 0 1;
#X obj 233 206 nbx 5 14 0 100 0 0 \$0-fb-num \$0-fb empty 0 -8 1 10
-204800 -13381 -13381 0 256;
#X msg 949 244 set \$1;
#X obj 949 222 r \$0-dl2Time-num;
#X obj 949 266 s \$0-dl2Time-set;
#X obj 106 206 hsl 121 14 0 100 0 0 \$0-fb \$0-fb-set feedback_delay_dB
5 7 1 10 -204800 -13381 -13381 0 1;
#X obj 736 188 r \$0-fb-num;
#X obj 368 197 inlet~;
#X obj 396 320 outlet~;
#X obj 236 105 bng 12 250 50 0 \$0-clear \$0-clear-bng clear 15 6 0
10 -167901 -13381 -13381;
#X obj 1024 20 inlet;
#X obj 447 387 declare -lib echocurve~ -lib zexy;
#N canvas 3 94 962 552 patches 0;
#X obj 143 193 f;
#X obj 141 138 r \$0-store_patch;
#X obj 152 323 t b a;
#X obj 223 388 msgfile;
#X msg 500 459 0;
#X msg 501 438 1;
#X msg 306 356 add patches 0;
#X obj 303 318 loadbang;
#X obj 148 496 route patches;
#X msg 247 367 goto 0;
#X obj 152 381 f;
#X msg 152 434 replace patches \$1;
#X msg 201 364 this;
#X obj 152 343 t b b b;
#X obj 460 331 t b f;
#X msg 475 355 goto \$1;
#X msg 440 354 this;
#X obj 587 318 r \$0-patches_load;
#X obj 587 335 openpanel;
#X msg 661 369 read \$1;
#X msg 617 369 goto 0;
#X msg 587 369 this;
#X obj 767 248 r \$0-patches_save;
#X obj 767 276 savepanel;
#X msg 762 329 write \$1;
#X msg 360 289 print;
#X obj 149 466 route list;
#X obj 587 352 t b b a b;
#X msg 569 436 clear;
#X obj 313 264 r \$0-patches_clear;
#X obj 311 290 t b b;
#X msg 730 354 set \$1;
#X symbolatom 898 366 10 0 0 0 - - -;
#X obj 878 341 f;
#X obj 921 344 del 50;
#X obj 873 405 r \$0-sinclickr_update;
#X obj 975 487 t b b b s;
#X obj 849 368 f;
#X obj 975 464 spigot;
#X obj 1055 465 r \$0-auto_update;
#X msg 1218 428 set \$1;
#X symbolatom 1218 474 10 0 0 0 - - -;
#X obj 1091 509 spigot;
#X msg 1144 497 1;
#X msg 1143 516 0;
#X obj 1143 408 b;
#X obj 1156 435 del 500;
#X obj 1092 536 s auto_update_sinoiseclickr~;
#X obj 918 438 r auto_update_sinoiseclickr~;
#X obj 912 278 symbol;
#X obj 1244 309 random;
#X obj 1113 304 packel 2;
#X obj 1159 275 packel 7;
#X obj 1172 299 packel 18;
#X obj 1222 276 packel 20;
#X obj 1010 344 s \$0-df-set-mod;
#X obj 1019 369 s \$0-da-set-mod;
#X obj 1171 346 s \$0-damod-mod;
#X obj 1174 367 s \$0-dfmod-mod;
#X obj 168 364 + 1;
#X obj 964 559 s \$0-patch-set;
#X obj 435 275 r \$0-patch-num;
#X obj 469 301 t b f b;
#X obj 766 305 makesymbol %s.pat;
#X obj 133 260 spigot 1;
#X obj 143 162 t b b;
#X msg 173 191 1;
#X obj 203 261 spigot;
#X obj 233 69 r \$0-replace_patch;
#X obj 215 162 t b b;
#X msg 245 191 1;
#X msg 185 170 0;
#X msg 252 172 0;
#X msg 894 303 set \$1;
#X symbolatom 954 306 10 0 0 0 - - -;
#X obj 965 280 r \$0-patches_resave;
#X obj 549 258 r \$0-store_plus;
#X obj 552 277 f;
#X obj 665 285 f;
#X obj 552 296 + 1;
#X obj 697 294 - 1;
#X obj 652 258 r \$0-store_minus;
#X obj 698 313 moses 1;
#X obj 591 289 moses;
#X msg 631 297 1;
#X obj 630 281 f;
#X obj 739 295 f;
#X obj 726 277 t b;
#X obj 1218 328 s \$0-patch-set;
#X obj 434 451 spigot 1;
#X msg 1339 386 set \$1;
#X obj 1391 322 t b a;
#X obj 1417 346 unpack s;
#X obj 1339 440 symbol;
#X obj 1044 665 s \$0-patches-num;
#X obj 1044 642 + 1;
#X obj 953 517 + 2;
#X msg 965 541 range 1 \$1;
#X obj 73 281 list prepend add;
#X obj 198 283 list prepend replace;
#X obj 122 302 list trim;
#X obj 198 305 list trim;
#X obj 799 168 list prepend file;
#X obj 799 190 list trim;
#X obj 165 90 r \$0-fb-num;
#X obj 195 115 r \$0-dl2Time-num;
#X obj 257 91 r \$0-duration-num;
#X obj 319 119 r \$0-points;
#X obj 338 143 r \$0-durcurve-num;
#X obj 362 164 r \$0-ampcurve-num;
#X obj 158 230 pack f f f f f f;
#X obj 296 393 unpack f f f f f f;
#X obj 256 579 s \$0-fb;
#X obj 287 554 s \$0-dl2Time;
#X obj 327 481 s \$0-duration-set;
#X obj 646 606 s \$0-points-set;
#X obj 412 534 s \$0-durcurve-set;
#X obj 432 554 s \$0-ampcurve-set;
#X obj 574 170 outlet;
#X obj 939 19 inlet;
#X msg 1339 407;
#X obj 941 53 route patch file save randpat;
#X obj 543 482 route ampcurve durcurve duration points fbtime fb;
#X msg 624 114 ampcurve \$1;
#X msg 597 93 durcurve \$1;
#X msg 581 69 points \$1;
#X msg 565 43 duration \$1;
#X msg 517 17 fbtime \$1;
#X msg 450 27 fb \$1;
#X obj 623 580 t f f;
#X obj 606 628 s \$0-points;
#X connect 0 0 110 0;
#X connect 1 0 65 0;
#X connect 2 0 13 0;
#X connect 2 1 3 0;
#X connect 3 0 26 0;
#X connect 4 0 89 1;
#X connect 5 0 89 1;
#X connect 6 0 3 0;
#X connect 7 0 6 0;
#X connect 8 0 50 1;
#X connect 8 0 59 0;
#X connect 8 0 83 1;
#X connect 8 0 86 1;
#X connect 8 0 89 0;
#X connect 8 1 111 0;
#X connect 9 0 3 0;
#X connect 10 0 11 0;
#X connect 10 0 50 1;
#X connect 10 0 83 1;
#X connect 10 0 95 0;
#X connect 11 0 3 0;
#X connect 12 0 3 0;
#X connect 13 0 10 0;
#X connect 13 1 12 0;
#X connect 13 2 9 0;
#X connect 14 0 16 0;
#X connect 14 1 15 0;
#X connect 14 1 37 1;
#X connect 15 0 3 0;
#X connect 16 0 3 0;
#X connect 17 0 18 0;
#X connect 18 0 27 0;
#X connect 18 0 40 0;
#X connect 18 0 43 0;
#X connect 19 0 3 0;
#X connect 20 0 3 0;
#X connect 21 0 3 0;
#X connect 22 0 23 0;
#X connect 23 0 40 0;
#X connect 23 0 43 0;
#X connect 23 0 45 0;
#X connect 23 0 63 0;
#X connect 24 0 3 0;
#X connect 25 0 3 0;
#X connect 26 0 8 0;
#X connect 27 0 21 0;
#X connect 27 1 20 0;
#X connect 27 1 5 0;
#X connect 27 2 19 0;
#X connect 27 2 31 0;
#X connect 27 2 73 0;
#X connect 27 2 90 0;
#X connect 27 2 102 0;
#X connect 27 3 28 0;
#X connect 27 3 4 0;
#X connect 28 0 3 0;
#X connect 29 0 30 0;
#X connect 30 0 6 0;
#X connect 30 1 28 0;
#X connect 34 0 33 0;
#X connect 35 0 32 0;
#X connect 36 0 37 0;
#X connect 36 0 43 0;
#X connect 36 1 21 0;
#X connect 36 2 20 0;
#X connect 36 3 44 0;
#X connect 36 3 19 0;
#X connect 37 0 14 0;
#X connect 38 0 36 0;
#X connect 39 0 38 1;
#X connect 40 0 41 0;
#X connect 41 0 42 0;
#X connect 42 0 47 0;
#X connect 43 0 42 1;
#X connect 44 0 42 1;
#X connect 45 0 46 0;
#X connect 46 0 41 0;
#X connect 48 0 38 0;
#X connect 49 0 27 0;
#X connect 50 0 88 0;
#X connect 51 0 55 0;
#X connect 52 0 56 0;
#X connect 53 0 57 0;
#X connect 54 0 58 0;
#X connect 59 0 10 1;
#X connect 61 0 62 0;
#X connect 61 0 77 1;
#X connect 61 0 78 1;
#X connect 62 1 14 0;
#X connect 63 0 24 0;
#X connect 63 0 73 0;
#X connect 63 0 102 0;
#X connect 64 0 98 0;
#X connect 65 0 0 0;
#X connect 65 1 66 0;
#X connect 65 1 71 0;
#X connect 66 0 64 1;
#X connect 67 0 99 0;
#X connect 68 0 69 0;
#X connect 69 0 0 0;
#X connect 69 1 70 0;
#X connect 69 1 72 0;
#X connect 70 0 67 1;
#X connect 71 0 67 1;
#X connect 72 0 64 1;
#X connect 73 0 74 0;
#X connect 74 0 24 0;
#X connect 75 0 74 0;
#X connect 76 0 77 0;
#X connect 77 0 79 0;
#X connect 78 0 80 0;
#X connect 79 0 62 0;
#X connect 79 0 83 0;
#X connect 80 0 82 0;
#X connect 81 0 78 0;
#X connect 82 0 87 0;
#X connect 82 1 62 0;
#X connect 83 0 62 0;
#X connect 83 1 84 0;
#X connect 84 0 62 0;
#X connect 86 0 62 0;
#X connect 87 0 86 0;
#X connect 89 0 95 0;
#X connect 89 0 96 0;
#X connect 90 0 120 0;
#X connect 91 0 120 0;
#X connect 91 1 92 0;
#X connect 92 0 90 0;
#X connect 93 0 24 0;
#X connect 95 0 94 0;
#X connect 96 0 97 0;
#X connect 97 0 60 0;
#X connect 98 0 100 0;
#X connect 99 0 101 0;
#X connect 100 0 2 0;
#X connect 101 0 3 0;
#X connect 102 0 103 0;
#X connect 103 0 118 0;
#X connect 104 0 0 1;
#X connect 104 0 128 0;
#X connect 105 0 110 1;
#X connect 105 0 127 0;
#X connect 106 0 110 2;
#X connect 106 0 126 0;
#X connect 107 0 110 3;
#X connect 107 0 125 0;
#X connect 108 0 110 4;
#X connect 108 0 124 0;
#X connect 109 0 110 5;
#X connect 109 0 123 0;
#X connect 110 0 51 0;
#X connect 110 0 52 0;
#X connect 110 0 54 0;
#X connect 110 0 53 0;
#X connect 110 0 64 0;
#X connect 110 0 67 0;
#X connect 111 0 112 0;
#X connect 111 1 55 0;
#X connect 111 1 113 0;
#X connect 111 2 114 0;
#X connect 111 3 129 0;
#X connect 111 4 116 0;
#X connect 111 5 117 0;
#X connect 119 0 121 0;
#X connect 120 0 93 0;
#X connect 121 0 88 0;
#X connect 121 1 49 0;
#X connect 121 2 91 0;
#X connect 121 3 50 0;
#X connect 121 4 122 0;
#X connect 122 0 117 0;
#X connect 122 1 116 0;
#X connect 122 2 114 0;
#X connect 122 3 129 0;
#X connect 122 4 113 0;
#X connect 122 5 112 0;
#X connect 123 0 118 0;
#X connect 124 0 118 0;
#X connect 125 0 118 0;
#X connect 126 0 118 0;
#X connect 127 0 118 0;
#X connect 128 0 118 0;
#X connect 129 0 130 0;
#X connect 129 1 115 0;
#X restore 1023 123 pd patches;
#X obj 291 103 cnv 15 34 124 empty empty empty 20 12 0 14 -183672 -66577
0;
#X obj 294 113 nbx 3 12 0 999 0 0 empty empty empty -2 -6 0 7 -257472
-1109 -90133 0 256;
#X obj 294 137 nbx 3 12 1 75 0 0 \$0-patch-num \$0-patch-set select
0 -5 0 7 -17235 -261234 -17235 1 256;
#X obj 301 170 bng 12 250 50 0 \$0-store_patch \$0-store_patch-bng
store -3 -5 0 7 -17235 -262130 -17235;
#X obj 293 204 bng 10 250 50 0 \$0-patches_load \$0-patches_load-bng
load -1 -5 0 7 -2498 -262144 -13381;
#X obj 312 196 bng 10 250 50 0 \$0-patches_save \$0-patches_save-bng
save -4 16 0 7 -159809 -262144 -86277;
#X obj 294 113 nbx 3 12 0 999 0 0 \$0-patches-dummy \$0-patches-num
patches 0 -5 0 7 -17235 -203904 -17235 0 256;
#X obj 314 152 bng 8 250 50 0 \$0-store_plus \$0-store_plus-bng + -7
4 0 10 -17235 -198336 -17235;
#X obj 294 152 bng 8 250 50 0 \$0-store_minus \$0-store_minus-bng -
8 3 0 10 -17235 -257985 -17235;
#X obj 311 185 bng 8 250 50 0 \$0-replace_patch \$0-replace_patch-bng
ovw -15 4 0 7 -17235 -262130 -17235;
#X obj 313 217 bng 8 250 50 0 \$0-patches_resave \$0-patches_resave-bng
ovw -17 4 0 7 -159809 -262144 -86277;
#X obj 315 170 tgl 8 0 \$0-route_ovw \$0-route_ovw-set empty 17 7 0
10 -159809 -261234 -86277 0 1;
#X obj 782 236 s \$0-fb-set;
#X msg 794 209 set \$1;
#X obj 1023 145 outlet;
#X obj 393 109 r \$0-clear;
#X obj 1024 42 route clear;
#X obj 1024 64 s \$0-clear-bng;
#X text 485 32 uses the echocurve~ library \, available on Deken \,
by Joel Mathys;
#X obj 668 206 dbtorms;
#X connect 2 0 30 0;
#X connect 2 0 52 0;
#X connect 3 0 2 0;
#X connect 4 0 2 0;
#X connect 5 0 2 0;
#X connect 6 0 2 0;
#X connect 7 0 8 0;
#X connect 9 0 10 0;
#X connect 9 0 42 0;
#X connect 9 0 43 0;
#X connect 10 0 7 0;
#X connect 10 0 11 0;
#X connect 11 0 12 0;
#X connect 13 0 8 0;
#X connect 13 1 7 0;
#X connect 14 0 13 0;
#X connect 15 0 12 0;
#X connect 15 1 11 0;
#X connect 16 0 15 0;
#X connect 17 0 18 0;
#X connect 18 0 19 0;
#X connect 18 0 5 0;
#X connect 19 0 20 0;
#X connect 20 0 21 0;
#X connect 24 0 27 0;
#X connect 25 0 26 0;
#X connect 26 0 24 0;
#X connect 31 0 39 0;
#X connect 32 0 31 0;
#X connect 33 0 32 0;
#X connect 34 0 3 0;
#X connect 35 0 4 0;
#X connect 36 0 2 0;
#X connect 37 0 25 0;
#X connect 37 0 38 0;
#X connect 38 0 27 0;
#X connect 39 0 2 0;
#X connect 40 0 39 1;
#X connect 41 0 40 0;
#X connect 42 0 22 0;
#X connect 43 0 23 0;
#X connect 46 0 48 0;
#X connect 47 0 46 0;
#X connect 47 0 33 0;
#X connect 50 0 70 0;
#X connect 50 0 76 0;
#X connect 51 0 2 0;
#X connect 54 0 73 0;
#X connect 56 0 71 0;
#X connect 70 0 69 0;
#X connect 72 0 6 0;
#X connect 73 0 74 0;
#X connect 73 1 56 0;
#X connect 76 0 41 0;
#X coords 0 -1 1 1 226 130 1 100 100;
