#N canvas 116 190 1058 777 10;
#X obj 742 229 exp;
#X floatatom 742 205 0 0 0 0 - - -;
#X floatatom 742 254 0 0 0 0 - - -;
#X floatatom 742 143 0 0 0 0 - - -;
#X obj 742 162 * 0.001;
#X msg 745 105 0;
#X msg 673 114 5298.32;
#X msg 780 114 -5298.32;
#X msg 820 234 5.29832;
#X obj 344 119 phasor~;
#N canvas 6 59 450 300 random_polarity 0;
#X obj 74 155 samphold~;
#X obj 74 97 noise~;
#X obj 146 205 *~;
#X obj 161 159 *~ -1;
#X obj 161 184 +~ 1;
#X obj 131 92 inlet~;
#X obj 134 249 outlet~;
#X obj 272 78 inlet;
#X obj 272 97 switch~;
#X obj 74 128 blosc~ comparator;
#X obj 187 92 inlet~;
#X connect 0 0 2 0;
#X connect 1 0 9 0;
#X connect 2 0 6 0;
#X connect 3 0 4 0;
#X connect 4 0 2 1;
#X connect 5 0 3 0;
#X connect 7 0 8 0;
#X connect 9 0 0 0;
#X connect 10 0 0 1;
#X restore 205 224 pd random_polarity;
#N canvas 615 65 450 300 alternate_polarity 0;
#X obj 74 155 samphold~;
#X obj 146 205 *~;
#X obj 161 159 *~ -1;
#X obj 161 184 +~ 1;
#X obj 119 68 inlet~;
#X obj 134 249 outlet~;
#X obj 281 53 inlet;
#X obj 281 92 switch~;
#X obj 74 97 osc~;
#X obj 22 15 r \$0-freq-num;
#X obj 122 15 r \$0-go;
#X msg 122 36 0.5;
#X obj 169 68 inlet~;
#X connect 0 0 1 0;
#X connect 1 0 5 0;
#X connect 2 0 3 0;
#X connect 3 0 1 1;
#X connect 4 0 2 0;
#X connect 6 0 7 0;
#X connect 8 0 0 0;
#X connect 9 0 8 0;
#X connect 10 0 11 0;
#X connect 11 0 8 1;
#X connect 12 0 0 1;
#X restore 344 224 pd alternate_polarity;
#X obj 427 176 == 2;
#X obj 332 176 == 1;
#X obj 628 264 r \$0-pitch;
#X obj 628 284 mtof;
#X obj 628 304 expr 1000/$f1;
#X obj 691 444 s \$0-decay_ms;
#X obj 841 455 s \$0-release_ms;
#X obj 750 306 s \$0-frequency;
#X text 537 860 This one deals with audio frequency excitations.;
#X obj 580 152 r \$0-decay_level_pc;
#X obj 580 173 * 0.01;
#X obj 580 194 s \$0-decay_level;
#X obj 1772 157 inlet;
#X obj 359 28 r \$0-frequency;
#X msg 383 98 0;
#X obj 383 79 r \$0-go;
#N canvas 159 81 809 560 automation 0;
#X obj 76 48 inlet;
#X obj 151 234 s \$0-pitch;
#X obj 265 300 s \$0-excite_porta-set;
#X obj 291 279 s \$0-decay_cycles-set;
#X obj 311 261 s \$0-release_cycles-set;
#X obj 333 243 s \$0-decay_level_pc-set;
#X obj 353 225 s \$0-polarity-set;
#X obj 396 204 s \$0-wmult-set;
#X obj 60 319 s \$0-rspect-bng;
#X obj 89 300 s \$0-noise_type-set;
#X obj 208 356 s \$0-warp-set;
#X obj 406 341 s \$0-fm_trans-set;
#X obj 386 362 s \$0-pquant-bng;
#X obj 428 183 s \$0-noise_level-set;
#X obj 442 158 s \$0-attack_cycles-set;
#X obj 489 130 s \$0-shape-set;
#X obj 179 375 s \$0-rspect_3-set;
#X obj 149 394 s \$0-rspect_2-set;
#X obj 119 413 s \$0-rspect_1-set;
#X obj 708 127 outlet;
#X obj 76 69 route rspect ntype pitch fmf1 fmf2 fmf3 warp porta decay
release dlevel pol pq fm_trans wmult noise attack shape bias tail;
#X obj 519 259 s \$0-bias_level-set;
#X obj 545 232 s \$0-tail_ms-set;
#X connect 0 0 20 0;
#X connect 20 0 8 0;
#X connect 20 1 9 0;
#X connect 20 2 1 0;
#X connect 20 3 18 0;
#X connect 20 4 17 0;
#X connect 20 5 16 0;
#X connect 20 6 10 0;
#X connect 20 7 2 0;
#X connect 20 8 3 0;
#X connect 20 9 4 0;
#X connect 20 10 5 0;
#X connect 20 11 6 0;
#X connect 20 12 12 0;
#X connect 20 13 11 0;
#X connect 20 14 7 0;
#X connect 20 15 13 0;
#X connect 20 16 14 0;
#X connect 20 17 15 0;
#X connect 20 18 21 0;
#X connect 20 19 22 0;
#X connect 20 20 19 0;
#X restore 1772 212 pd automation;
#N canvas 7 61 450 300 event 0;
#X obj 35 52 route bang float;
#X obj 35 167 s \$0-go;
#X obj 81 146 t b f;
#X obj 108 165 s \$0-pitch;
#X obj 35 33 inlet;
#X obj 128 90 expr 1000/$f1;
#X obj 128 109 ftom;
#X obj 260 87 outlet;
#X obj 128 71 route ms set;
#X connect 0 0 1 0;
#X connect 0 1 2 0;
#X connect 0 2 8 0;
#X connect 2 0 1 0;
#X connect 2 1 3 0;
#X connect 4 0 0 0;
#X connect 5 0 6 0;
#X connect 6 0 2 0;
#X connect 8 0 5 0;
#X connect 8 1 3 0;
#X connect 8 2 7 0;
#X restore 1772 192 pd event;
#X obj 691 425 * 1;
#N canvas 11 69 607 413 initialize 0;
#X obj 60 182 samplerate~;
#X obj 57 238 s \$0-srate;
#X obj 151 234 s \$0-pitch;
#X obj 272 296 s \$0-excite_porta-set;
#X obj 295 276 s \$0-decay_cycles-set;
#X obj 318 256 s \$0-release_cycles-set;
#X obj 342 236 s \$0-decay_level_pc-set;
#X obj 364 216 s \$0-polarity-set;
#X obj 377 196 s \$0-eg_dir-set;
#X obj 404 171 s \$0-wmult-set;
#X msg 199 155 60;
#X msg 245 160 0;
#X obj 220 123 loadbang;
#X msg 285 158 6;
#X msg 306 177 9;
#X msg 324 202 50;
#X msg 334 144 0;
#X obj 106 294 s \$0-noise_type-set;
#X obj 236 316 s \$0-fm_trans-set;
#X msg 375 139 0;
#X obj 58 328 s \$0-shape-set;
#X msg 58 308 0;
#X obj 193 371 s \$0-lpf_out-set;
#X msg 402 325 100;
#X obj 402 347 s \$0-noise_level-set;
#X msg 193 349 100;
#X obj 258 343 s \$0-bias_level-set;
#X connect 0 0 1 0;
#X connect 10 0 2 0;
#X connect 11 0 3 0;
#X connect 11 0 17 0;
#X connect 11 0 18 0;
#X connect 11 0 26 0;
#X connect 12 0 10 0;
#X connect 12 0 11 0;
#X connect 12 0 0 0;
#X connect 12 0 13 0;
#X connect 12 0 14 0;
#X connect 12 0 15 0;
#X connect 12 0 16 0;
#X connect 12 0 19 0;
#X connect 12 0 21 0;
#X connect 12 0 25 0;
#X connect 12 0 23 0;
#X connect 13 0 4 0;
#X connect 14 0 5 0;
#X connect 15 0 6 0;
#X connect 16 0 7 0;
#X connect 16 0 8 0;
#X connect 19 0 9 0;
#X connect 21 0 20 0;
#X connect 23 0 24 0;
#X connect 25 0 22 0;
#X restore 189 109 pd initialize;
#X obj 371 48 r \$0-excite_porta;
#X obj 303 53 f;
#X obj 304 94 line~;
#X obj 303 73 pack f 2;
#X obj 302 12 r \$0-go;
#N canvas 5 57 573 300 VST 0;
#X text 52 41 instrument version:;
#X text 59 56 drag and drop interface for using samples from the pool
as excitation multipliers. The plugin must have an option for the excitation
multiplier that just plays the sample. Also \, there must be an option
to turn the envelope into a DSR or ASD envelope so it can be played
via MIDI with noteon and noteoff.;
#X text 55 138 fx version:;
#X text 57 155 Same as instrument version but with a buffer that is
continually accessed. Rather like Izotope's "Stutter Edit" plugin \,
so that the excitation gets sampled with each note from an audio channel.
;
#X restore 767 341 pd VST PLUGIN;
#X obj 847 414 t b f;
#X obj 847 394 r \$0-release_cycles;
#X obj 717 404 t b f;
#X obj 717 366 r \$0-decay_cycles;
#X obj 203 826 outlet~;
#X obj 284 174 == 0;
#X obj 168 225 *~;
#X obj 344 145 r \$0-polarity;
#N canvas 5 57 450 300 label 0;
#X obj 77 31 inlet;
#X obj 74 70 sel 0 1 2;
#X obj 56 201 s \$0-polarity-set;
#X msg 66 114 label + \, label_pos -10 6;
#X msg 99 136 label rnd \, label_pos -22 6;
#X msg 120 161 label +/- \, label_pos -22 6;
#X connect 0 0 1 0;
#X connect 1 0 3 0;
#X connect 1 1 4 0;
#X connect 1 2 5 0;
#X connect 3 0 2 0;
#X connect 4 0 2 0;
#X connect 5 0 2 0;
#X restore 470 169 pd label;
#X obj 1 163 cnv 15 110 72 empty empty empty 20 12 0 14 -212224 -66577
0;
#X obj 180 551 *~;
#X obj 220 498 vline~;
#X obj 565 425 * 1;
#X obj 581 404 t b f;
#X obj 581 366 r \$0-attack_cycles;
#X obj 565 444 s \$0-attack_ms;
#X obj 198 698 *~;
#X obj 177 755 *~ 1;
#X obj 346 676 r \$0-wmult;
#X obj 383 715 == 0;
#X obj 351 717 *~;
#X obj 223 721 *~ 1;
#X obj 262 701 == 1;
#X obj 3 219 tgl 15 0 \$0-wmult \$0-wmult-set mult 17 7 0 10 -262144
-1 -1 1 1;
#X obj 592 13 r \$0-wmult;
#X obj 592 33 sel 0 1;
#X msg 552 53 label mix;
#X obj 574 74 s \$0-wmult-set;
#X msg 626 53 label mult;
#X obj 49 219 nbx 3 14 1 100 0 0 \$0-lpf_out \$0-lpf_out-set lpf 38
6 0 10 -233024 -17 -17 100 256;
#X obj 3 181 nbx 3 10 0 100 0 0 \$0-noise_level-num \$0-noise_level-set
noise 0 -6 0 8 -4032 -13330 -13330 100 256;
#X obj 4 203 bng 12 250 50 0 \$0-rspect \$0-rspect-bng empty -1 -6
0 8 -262144 -262144 -262144;
#X symbolatom 72 177 3 0 0 0 - #0-noise_type-lbl #0-snlis;
#X obj 20 205 nbx 3 10 0.1 100 1 0 \$0-warp-num \$0-warp-set empty
4 -6 0 8 -262144 -262144 -262144 0.1 256;
#X obj 52 203 bng 12 250 50 0 \$0-pquant \$0-pquant-bng pq 1 -6 0 8
-262144 -262144 -262144;
#X obj 67 205 nbx 3 10 -99 99 0 0 \$0-fm_trans \$0-fm_trans-set trans
0 -6 0 8 -262144 -262144 -262144 0 256;
#N canvas 826 74 450 577 fmspect~ 0;
#X obj -171 166 osc~;
#X obj 23 186 osc~;
#X obj -160 67 r \$0-rspect_1;
#X obj -61 67 r \$0-rspect_2;
#X obj 37 65 r \$0-rspect_3;
#X obj 22 160 +~;
#X obj -72 180 osc~;
#X obj -73 154 +~;
#X obj -162 196 *~;
#X obj -116 153 * 4;
#X obj -25 148 * 4;
#X obj -74 208 *~;
#X obj 1 38 t b f;
#X obj 195 78 inlet;
#X obj 193 126 switch~;
#X obj -12 225 outlet~;
#X obj 8 11 r \$0-warp-num;
#X obj 86 172 f;
#X obj 85 142 r \$0-pquant;
#X obj 125 289 i;
#X obj 107 307 -;
#X obj 110 327 >= 0.5;
#X obj 104 349 == 0;
#X obj 71 368 spigot;
#X obj 137 349 spigot;
#X obj 137 368 + 1;
#X obj 90 399 i;
#X obj 188 349 f;
#X obj 221 350 f;
#X obj 86 210 t f f b f;
#X obj 188 368 /;
#X obj 221 369 /;
#X obj 104 437 *;
#X obj 78 437 *;
#X obj 78 418 mtof;
#X obj 70 325 i;
#X obj 120 266 ftom;
#X obj 103 243 ftom;
#X obj 76 288 ftom;
#X obj 19 130 * 1;
#X obj 146 76 exp;
#X obj 146 57 * 0.057762;
#X obj 146 95 t b f;
#X obj -94 119 * 1;
#X obj -165 134 * 1;
#X obj 146 38 r \$0-fm_trans;
#X obj -86 502 s \$0-rspect_3-set;
#X obj 104 456 s \$0-rspect_2-set;
#X obj 78 475 s \$0-rspect_1-set;
#X connect 0 0 8 0;
#X connect 1 0 15 0;
#X connect 2 0 27 1;
#X connect 2 0 44 0;
#X connect 3 0 28 1;
#X connect 3 0 43 0;
#X connect 4 0 17 1;
#X connect 4 0 39 0;
#X connect 5 0 1 0;
#X connect 6 0 11 0;
#X connect 7 0 6 0;
#X connect 8 0 7 0;
#X connect 9 0 8 1;
#X connect 10 0 11 1;
#X connect 11 0 5 0;
#X connect 12 0 9 0;
#X connect 12 0 10 0;
#X connect 12 1 10 1;
#X connect 12 1 9 1;
#X connect 13 0 14 0;
#X connect 16 0 12 0;
#X connect 17 0 29 0;
#X connect 18 0 17 0;
#X connect 19 0 20 1;
#X connect 20 0 21 0;
#X connect 21 0 22 0;
#X connect 21 0 24 1;
#X connect 22 0 23 1;
#X connect 23 0 26 0;
#X connect 24 0 25 0;
#X connect 25 0 26 0;
#X connect 26 0 34 0;
#X connect 27 0 30 0;
#X connect 28 0 31 0;
#X connect 29 0 38 0;
#X connect 29 1 37 0;
#X connect 29 2 28 0;
#X connect 29 2 27 0;
#X connect 29 3 30 1;
#X connect 29 3 31 1;
#X connect 29 3 36 0;
#X connect 30 0 33 1;
#X connect 31 0 32 1;
#X connect 32 0 47 0;
#X connect 33 0 48 0;
#X connect 34 0 32 0;
#X connect 34 0 33 0;
#X connect 34 0 46 0;
#X connect 35 0 23 0;
#X connect 35 0 24 0;
#X connect 36 0 19 0;
#X connect 37 0 20 0;
#X connect 38 0 35 0;
#X connect 39 0 5 1;
#X connect 39 0 10 0;
#X connect 40 0 42 0;
#X connect 41 0 40 0;
#X connect 42 0 39 0;
#X connect 42 0 43 0;
#X connect 42 0 44 0;
#X connect 42 1 39 1;
#X connect 42 1 43 1;
#X connect 42 1 44 1;
#X connect 43 0 9 0;
#X connect 43 0 7 1;
#X connect 44 0 0 0;
#X connect 45 0 41 0;
#X restore 424 557 pd fmspect~;
#X obj 367 517 == 0;
#X obj 450 519 == 1;
#X obj 533 520 == 2;
#N canvas 4 55 450 300 noise~ 0;
#X obj 59 117 noise~;
#X obj 199 96 inlet;
#X obj 200 131 switch~;
#X obj 70 155 outlet~;
#X connect 0 0 3 0;
#X connect 1 0 2 0;
#X restore 290 556 pd noise~;
#N canvas 4 55 450 300 pink~ 0;
#X obj 199 96 inlet;
#X obj 200 131 switch~;
#X obj 70 155 outlet~;
#X obj 59 117 pink~;
#X connect 0 0 1 0;
#X connect 3 0 2 0;
#X restore 361 557 pd pink~;
#N canvas 6 55 450 300 makerandomfm 0;
#X obj 162 79 t b b b;
#X obj 256 140 random 2e+06;
#X obj 256 164 / 100;
#X obj 170 143 random 2e+06;
#X obj 170 165 / 100;
#X obj 78 145 random 2e+06;
#X obj 77 176 / 100;
#X floatatom 256 205 0 0 0 0 - - -;
#X floatatom 171 206 0 0 0 0 - - -;
#X floatatom 71 209 0 0 0 0 - - -;
#X obj 158 57 bng 15 250 50 0 empty empty empty 17 7 0 10 -262144 -1
-1;
#X obj 187 46 r \$0-rspect;
#X obj 295 218 s \$0-rspect_3-set;
#X obj 37 242 s \$0-rspect_1-set;
#X obj 171 243 s \$0-rspect_2-set;
#X connect 0 0 5 0;
#X connect 0 1 3 0;
#X connect 0 2 1 0;
#X connect 1 0 2 0;
#X connect 2 0 7 0;
#X connect 3 0 4 0;
#X connect 4 0 8 0;
#X connect 5 0 6 0;
#X connect 6 0 9 0;
#X connect 7 0 12 0;
#X connect 8 0 14 0;
#X connect 9 0 13 0;
#X connect 10 0 0 0;
#X connect 11 0 0 0;
#X restore 527 570 pd makerandomfm;
#X obj 367 452 r \$0-noise_type;
#X msg 680 506 set FM;
#X obj 592 540 s \$0-noise_type-lbl;
#X obj 577 486 sel 0 1 2;
#X msg 576 506 set Wh;
#X msg 629 506 set Pi;
#X obj 548 658 s \$0-rspect-bng;
#X obj 661 659 s \$0-warp-set;
#X msg 548 621 color 0 0 0;
#X msg 641 621 color 17 27 27;
#X msg 567 598 label;
#X msg 610 598 label new;
#X msg 681 596 label warp;
#X obj 305 250 r \$0-attack_ms;
#X obj 287 284 f;
#X obj 248 255 r \$0-go;
#X obj 344 290 r \$0-decay_ms;
#X obj 331 270 r \$0-decay_level;
#X obj 384 310 r \$0-release_ms;
#X obj 338 310 t b f;
#X obj 352 331 +;
#X obj 203 802 lop~ 20000;
#X obj 203 780 lop~ 20000;
#X obj 407 746 r \$0-lpf_out;
#X obj 407 766 + 36;
#X obj 407 788 mtof;
#X obj 36 179 hradio 12 1 0 3 \$0-noise_type \$0-noise_type-set type
0 -8 0 8 -4032 -13330 -13330 0;
#X obj 270 628 *~;
#X obj 378 624 r \$0-noise_level-num;
#X obj 378 644 dbtorms;
#X obj 823 552 +;
#X obj 823 532 +;
#X obj 730 473 t b f;
#X obj 792 473 t b f;
#X obj 841 435 * 1;
#X obj 763 576 delay;
#X obj 763 532 r \$0-go;
#X obj 1 60 cnv 15 50 80 empty empty decay 4 8 0 14 -208441 -25617
0;
#X obj 4 87 nbx 3 14 1 999 0 0 \$0-decay_cycles \$0-decay_cycles-set
cycles 0 -8 0 12 -233024 -17 -17 1 256;
#X obj 4 104 nbx 3 14 0 100 0 0 \$0-decay_level_pc \$0-decay_level_pc-set
level 0 21 0 12 -233024 -17 -17 50 256;
#X obj 1 20 cnv 15 110 40 empty empty attack 4 8 0 14 -208317 -25438
0;
#X obj 5 47 nbx 3 14 0 999 0 0 \$0-attack_cycles \$0-attack_cycles-set
cycles 0 -8 0 12 -233024 -17 -17 0 256;
#X obj 52 30 cnv 15 59 99 empty empty release 2 8 0 14 -208435 -25607
0;
#X obj 56 56 nbx 3 14 0 999 0 0 \$0-release_cycles \$0-release_cycles-set
cycles 0 -8 0 12 -233024 -17 -17 0 256;
#X obj 52 8 cnv 15 59 24 empty empty empty 2 8 0 14 -204096 -25607
0;
#X obj 57 9 nbx 4 12 0.09 9999 1 0 \$0-excite_porta \$0-excite_porta-set
porta 14 17 0 10 -233024 -17 -17 0.09 256;
#X obj 858 560 r \$0-bias_level;
#X obj 827 616 r \$0-tail_ms;
#X obj 763 636 line~;
#X obj 763 616 pack f 5;
#X obj 840 580 f;
#X msg 763 596 0;
#X obj 178 594 +~;
#X obj 287 398 pack f f f f f f;
#X obj 408 333 r \$0-bias_level;
#X obj 407 354 t b f;
#X msg 407 376 1;
#X obj 407 398 -;
#X obj 303 361 *;
#X obj 301 335 t b f;
#X msg 255 425 0 \, \$6 \$1 \, \$2 \$3 \$1 \, 0 \$5 \$4;
#X obj 168 199 wfold~;
#X obj 1 133 cnv 15 110 29 empty empty empty 20 12 0 14 -1025 -200302
0;
#X obj 73 148 hradio 12 1 0 3 \$0-polarity \$0-polarity-set + -10 6
0 12 -200302 -1025 -200302 0;
#X obj 3 147 nbx 4 12 0.01 99.99 1 0 \$0-shape \$0-shape-set sawtri
0 -8 0 10 -204786 -13381 -204786 0.0171543 256;
#X obj 52 73 cnv 15 59 71 empty empty tail 2 8 0 14 -204462 -25607
0;
#X obj 56 99 nbx 4 14 0.01 1 1 0 \$0-bias_level \$0-bias_level-set
bias 0 -8 0 12 -233024 -17 -17 0.01 256;
#X obj 56 116 nbx 4 14 5 9999 1 0 \$0-tail_ms \$0-tail_ms-set len_ms
0 21 0 12 -233024 -17 -17 139.044 256;
#X obj 207 157 r \$0-shape;
#X obj 207 178 * 0.01;
#X obj 351 739 *~;
#X obj 223 743 hip~ 18;
#X msg 160 159 100;
#X obj 112 8 cnv 15 34 124 empty empty empty 20 12 0 14 -183672 -66577
0;
#X obj 115 18 nbx 3 12 0 999 0 0 empty empty empty -2 -6 0 7 -257472
-1109 -90133 0 256;
#X obj 115 42 nbx 3 12 1 2 0 0 \$0-patch-num \$0-patch-set select 0
-5 0 7 -17235 -261234 -17235 1 256;
#X obj 122 75 bng 12 250 50 0 \$0-store_patch \$0-store_patch-bng store
-3 -5 0 7 -17235 -262130 -17235;
#X obj 114 109 bng 10 250 50 0 \$0-patches_load \$0-patches_load-bng
load -1 -5 0 7 -2498 -262144 -13381;
#X obj 133 101 bng 10 250 50 0 \$0-patches_save \$0-patches_save-bng
save -4 16 0 7 -159809 -262144 -86277;
#X obj 115 18 nbx 3 12 0 999 0 0 \$0-patches-dummy \$0-patches-num
patches 0 -5 0 7 -17235 -203904 -17235 2 256;
#X obj 135 57 bng 8 250 50 0 \$0-store_plus \$0-store_plus-bng + -7
4 0 10 -17235 -198336 -17235;
#X obj 115 57 bng 8 250 50 0 \$0-store_minus \$0-store_minus-bng -
8 3 0 10 -17235 -257985 -17235;
#X obj 132 90 bng 8 250 50 0 \$0-replace_patch \$0-replace_patch-bng
ovw -15 4 0 7 -17235 -262130 -17235;
#X obj 134 122 bng 8 250 50 0 \$0-patches_resave \$0-patches_resave-bng
ovw -17 4 0 7 -159809 -262144 -86277;
#X obj 1246 408 f;
#X obj 1244 353 r \$0-store_patch;
#X obj 1236 494 prepend add;
#X obj 1256 514 t b a;
#X obj 1326 603 msgfile;
#X msg 1603 674 0;
#X msg 1604 653 1;
#X msg 1409 571 add patches 0;
#X obj 1406 533 loadbang;
#X obj 1251 711 route patches;
#X msg 1343 520 goto 0;
#X obj 1255 596 f;
#X msg 1255 649 replace patches \$1;
#X msg 1304 579 this;
#X obj 1255 558 t b b b;
#X obj 1563 546 t b f;
#X msg 1578 570 goto \$1;
#X msg 1543 569 this;
#X obj 1690 533 r \$0-patches_load;
#X obj 1690 550 openpanel;
#X msg 1764 584 read \$1;
#X msg 1720 584 goto 0;
#X msg 1690 584 this;
#X obj 1870 463 r \$0-patches_save;
#X obj 1870 491 savepanel;
#X msg 1865 544 write \$1;
#X obj 1681 778 s \$0-vol-set;
#X obj 1699 754 spigot;
#X obj 1717 725 tgl 15 0 empty \$0-patch_vol_set empty 0 -6 0 8 -262144
-1 -1 1 1;
#X msg 1463 504 print;
#X obj 1252 681 route list;
#X obj 1690 567 t b b a b;
#X msg 1672 651 clear;
#X obj 1416 479 r \$0-patches_clear;
#X obj 1414 505 t b b;
#X msg 1833 569 set \$1;
#X obj 2015 493 symbol;
#X obj 2166 523 random;
#X obj 1271 579 + 1;
#X obj 1982 689 s \$0-patch-set;
#X obj 1538 490 r \$0-patch-num;
#X obj 1572 516 t b f b;
#X obj 1869 520 makesymbol %s.pat;
#X obj 1236 475 spigot 1;
#X obj 1246 377 t b b;
#X msg 1276 406 1;
#X obj 1306 476 spigot;
#X obj 1310 495 prepend replace;
#X obj 1365 356 r \$0-replace_patch;
#X obj 1318 377 t b b;
#X msg 1348 406 1;
#X msg 1288 385 0;
#X msg 1355 387 0;
#X msg 1997 518 set \$1;
#X symbolatom 2057 521 10 0 0 0 - - -;
#X obj 2068 495 r \$0-patches_resave;
#X obj 1652 473 r \$0-store_plus;
#X obj 1655 492 f;
#X obj 1768 500 f;
#X obj 1655 511 + 1;
#X obj 1800 509 - 1;
#X obj 1755 473 r \$0-store_minus;
#X obj 1801 528 moses 1;
#X obj 1694 504 moses;
#X msg 1734 512 1;
#X obj 1733 496 f;
#X obj 1842 510 f;
#X obj 1829 492 t b;
#X obj 2140 542 s \$0-patch-set;
#X msg 2018 993 patch \$1;
#X obj 2125 964 prepend file;
#X obj 2018 968 change;
#X floatatom 1187 765 5 0 0 0 - - -;
#X obj 1537 666 spigot 1;
#X msg 2261 600 set \$1;
#X msg 2261 621 /media/sda2/Data/puredata/2012/HackneyWick/pat/clinok_fmnoise.pat
;
#X obj 2313 536 t b a;
#X obj 2339 560 unpack s;
#X obj 2261 654 symbol;
#X obj 2147 880 s \$0-patches-num;
#X obj 2147 857 + 1;
#X msg 1982 669 range 1 \$1;
#X obj 136 75 tgl 8 0 \$0-route_ovw \$0-route_ovw-set empty 17 7 0
10 -159809 -261234 -86277 0 1;
#X obj 1151 266 r \$0-noise_type;
#X obj 1069 323 r \$0-rspect_1;
#X obj 1099 304 r \$0-rspect_2;
#X obj 1129 285 r \$0-rspect_3;
#X obj 1043 342 r \$0-warp-num;
#X obj 1426 37 r \$0-excite_porta;
#X obj 1309 132 r \$0-decay_cycles;
#X obj 1262 170 r \$0-release_cycles;
#X obj 1286 151 r \$0-decay_level_pc;
#X obj 1357 94 r \$0-polarity;
#X obj 1479 56 r \$0-wmult;
#X obj 1015 361 r \$0-noise_level-num;
#X obj 1332 113 r \$0-attack_cycles;
#X obj 1381 75 r \$0-shape;
#X obj 1174 246 r \$0-fm_trans;
#X obj 1402 56 r \$0-pitch;
#X obj 1237 189 r \$0-bias_level;
#X obj 1217 208 r \$0-tail_ms;
#X obj 1198 227 r \$0-lpf_out;
#X obj 111 133 cnv 15 34 102 empty empty empty 20 12 0 14 -212224 -66577
0;
#X obj 100 179 nbx 5 10 0.02 20000 1 0 \$0-rspect_1 \$0-rspect_1-set
FM_freqs 0 -6 0 8 -262144 -262144 -262144 17231.8 256;
#X text 537 821 How to make it so the higher frequency excitations
are dealt with as pitch and the lower frequency dealt with as cycles/rhythm?
GUI issue...?;
#X obj 100 192 nbx 5 10 0.02 20000 1 0 \$0-rspect_2 \$0-rspect_2-set
empty 0 -6 0 8 -262144 -262144 -262144 16590.8 256;
#X obj 100 205 nbx 5 10 0.02 20000 1 0 \$0-rspect_3 \$0-rspect_3-set
carrier 10 17 0 8 -262144 -262144 -262144 19315 256;
#X obj 548 683 s \$0-pquant-bng;
#X obj 661 683 s \$0-fm_trans-set;
#X obj 549 715 s \$0-rspect_1-set;
#X obj 549 737 s \$0-rspect_2-set;
#X obj 549 758 s \$0-rspect_3-set;
#X obj 1448 18 r \$0-vol;
#X obj 114 154 nbx 3 10 0 150 0 0 \$0-sinclick_vol-num \$0-sinclick_vol-set
vol 0 -6 0 8 -261689 -62784 -143491 99 256;
#X obj 130 142 tgl 10 0 \$0-patch_vol_set \$0-patch_vol_set_on pat
0 -6 0 8 -261689 -143491 -143491 1 1;
#X obj 1150 917 s \$0-noise_level-set;
#X obj 1178 898 s \$0-warp-set;
#X obj 1204 879 s \$0-rspect_1-set;
#X obj 1234 860 s \$0-rspect_2-set;
#X obj 1264 841 s \$0-rspect_3-set;
#X obj 1286 822 s \$0-noise_type-set;
#X obj 1309 802 s \$0-fm_trans-set;
#X obj 1333 783 s \$0-lpf_out-set;
#X obj 1261 442 pack f f f f f f f f f f f f f f f f f f f f;
#X obj 1399 608 unpack f f f f f f f f f f f f f f f f f f f f;
#X obj 1753 757 s \$0-wmult-set;
#X obj 1481 788 s \$0-decay_cycles-set;
#X obj 1458 807 s \$0-decay_level_pc-set;
#X obj 1434 826 s \$0-release_cycles-set;
#X obj 1409 845 s \$0-bias_level-set;
#X obj 1389 864 s \$0-tail_ms-set;
#X obj 1622 818 s \$0-pitch;
#X obj 1646 799 s \$0-excite_porta-set;
#X obj 1601 837 s \$0-shape-set;
#X obj 1577 856 s \$0-polarity-set;
#X obj 1552 875 s \$0-attack_cycles-set;
#X obj 1772 267 route patch file save randpat;
#X obj 1982 649 + 1;
#X connect 0 0 2 0;
#X connect 1 0 0 0;
#X connect 3 0 4 0;
#X connect 4 0 1 0;
#X connect 5 0 3 0;
#X connect 6 0 3 0;
#X connect 7 0 3 0;
#X connect 9 0 142 0;
#X connect 9 0 10 1;
#X connect 9 0 11 1;
#X connect 10 0 48 0;
#X connect 11 0 48 0;
#X connect 12 0 11 2;
#X connect 13 0 10 2;
#X connect 14 0 15 0;
#X connect 15 0 16 0;
#X connect 15 0 19 0;
#X connect 16 0 30 0;
#X connect 16 0 50 0;
#X connect 16 0 115 0;
#X connect 21 0 22 0;
#X connect 22 0 23 0;
#X connect 24 0 29 0;
#X connect 25 0 33 0;
#X connect 26 0 9 1;
#X connect 27 0 26 0;
#X connect 28 0 301 0;
#X connect 29 0 28 0;
#X connect 30 0 17 0;
#X connect 30 0 113 0;
#X connect 32 0 35 1;
#X connect 33 0 35 0;
#X connect 34 0 9 0;
#X connect 35 0 34 0;
#X connect 36 0 33 0;
#X connect 38 0 115 0;
#X connect 38 1 115 1;
#X connect 39 0 38 0;
#X connect 40 0 30 0;
#X connect 40 1 30 1;
#X connect 41 0 40 0;
#X connect 43 0 44 1;
#X connect 44 0 48 0;
#X connect 45 0 12 0;
#X connect 45 0 13 0;
#X connect 45 0 43 0;
#X connect 45 0 46 0;
#X connect 48 0 133 0;
#X connect 49 0 48 1;
#X connect 50 0 53 0;
#X connect 50 0 112 0;
#X connect 51 0 50 0;
#X connect 51 1 50 1;
#X connect 52 0 51 0;
#X connect 54 0 59 0;
#X connect 55 0 103 0;
#X connect 56 0 57 0;
#X connect 56 0 60 0;
#X connect 57 0 58 1;
#X connect 57 0 55 1;
#X connect 58 0 151 0;
#X connect 59 0 152 0;
#X connect 60 0 59 1;
#X connect 62 0 63 0;
#X connect 63 0 64 0;
#X connect 63 1 66 0;
#X connect 64 0 65 0;
#X connect 66 0 65 0;
#X connect 74 0 108 0;
#X connect 75 0 78 0;
#X connect 76 0 79 0;
#X connect 77 0 74 0;
#X connect 78 0 108 0;
#X connect 79 0 108 0;
#X connect 81 0 75 0;
#X connect 81 0 76 0;
#X connect 81 0 77 0;
#X connect 81 0 84 0;
#X connect 82 0 83 0;
#X connect 84 0 85 0;
#X connect 84 0 89 0;
#X connect 84 0 91 0;
#X connect 84 1 86 0;
#X connect 84 1 89 0;
#X connect 84 1 91 0;
#X connect 84 2 82 0;
#X connect 84 2 90 0;
#X connect 84 2 92 0;
#X connect 84 2 93 0;
#X connect 85 0 83 0;
#X connect 86 0 83 0;
#X connect 89 0 88 0;
#X connect 89 0 87 0;
#X connect 89 0 273 0;
#X connect 89 0 272 0;
#X connect 89 0 274 0;
#X connect 89 0 275 0;
#X connect 89 0 276 0;
#X connect 90 0 88 0;
#X connect 90 0 87 0;
#X connect 90 0 273 0;
#X connect 90 0 272 0;
#X connect 90 0 274 0;
#X connect 90 0 275 0;
#X connect 90 0 276 0;
#X connect 91 0 87 0;
#X connect 91 0 88 0;
#X connect 92 0 87 0;
#X connect 93 0 88 0;
#X connect 94 0 95 1;
#X connect 94 0 101 0;
#X connect 95 0 134 0;
#X connect 96 0 95 0;
#X connect 97 0 100 0;
#X connect 97 0 134 2;
#X connect 98 0 140 0;
#X connect 99 0 134 4;
#X connect 100 0 101 0;
#X connect 100 1 101 1;
#X connect 101 0 134 3;
#X connect 102 0 42 0;
#X connect 103 0 102 0;
#X connect 104 0 105 0;
#X connect 105 0 106 0;
#X connect 106 0 103 1;
#X connect 106 0 102 1;
#X connect 108 0 54 1;
#X connect 108 0 58 0;
#X connect 109 0 110 0;
#X connect 110 0 108 1;
#X connect 111 0 116 1;
#X connect 112 0 111 0;
#X connect 113 0 112 0;
#X connect 113 1 112 1;
#X connect 114 0 112 0;
#X connect 114 1 111 1;
#X connect 115 0 18 0;
#X connect 115 0 114 0;
#X connect 116 0 132 0;
#X connect 117 0 116 0;
#X connect 117 0 131 0;
#X connect 127 0 131 1;
#X connect 128 0 130 1;
#X connect 129 0 133 1;
#X connect 129 0 151 1;
#X connect 130 0 129 0;
#X connect 131 0 129 0;
#X connect 132 0 130 0;
#X connect 133 0 54 0;
#X connect 133 0 55 0;
#X connect 134 0 141 0;
#X connect 135 0 136 0;
#X connect 136 0 137 0;
#X connect 136 1 138 1;
#X connect 137 0 138 0;
#X connect 138 0 134 5;
#X connect 138 0 139 0;
#X connect 139 0 134 1;
#X connect 140 0 139 0;
#X connect 140 1 139 1;
#X connect 141 0 49 0;
#X connect 142 0 44 0;
#X connect 142 0 10 0;
#X connect 142 0 11 0;
#X connect 149 0 150 0;
#X connect 150 0 142 1;
#X connect 151 0 103 0;
#X connect 152 0 103 0;
#X connect 153 0 142 1;
#X connect 165 0 288 0;
#X connect 166 0 209 0;
#X connect 167 0 168 0;
#X connect 168 0 179 0;
#X connect 168 1 169 0;
#X connect 169 0 195 0;
#X connect 170 0 238 1;
#X connect 171 0 238 1;
#X connect 172 0 169 0;
#X connect 173 0 172 0;
#X connect 174 0 202 1;
#X connect 174 0 203 0;
#X connect 174 0 228 1;
#X connect 174 0 231 1;
#X connect 174 0 237 0;
#X connect 174 0 238 0;
#X connect 174 1 289 0;
#X connect 175 0 169 0;
#X connect 176 0 177 0;
#X connect 176 0 202 1;
#X connect 176 0 228 1;
#X connect 176 0 245 0;
#X connect 177 0 169 0;
#X connect 178 0 169 0;
#X connect 179 0 176 0;
#X connect 179 1 178 0;
#X connect 179 2 175 0;
#X connect 180 0 182 0;
#X connect 180 1 181 0;
#X connect 181 0 169 0;
#X connect 182 0 169 0;
#X connect 183 0 184 0;
#X connect 184 0 196 0;
#X connect 185 0 169 0;
#X connect 186 0 169 0;
#X connect 187 0 169 0;
#X connect 188 0 189 0;
#X connect 189 0 207 0;
#X connect 190 0 169 0;
#X connect 192 0 191 0;
#X connect 193 0 192 1;
#X connect 194 0 169 0;
#X connect 195 0 174 0;
#X connect 196 0 187 0;
#X connect 196 1 186 0;
#X connect 196 1 171 0;
#X connect 196 2 185 0;
#X connect 196 2 200 0;
#X connect 196 2 218 0;
#X connect 196 2 235 0;
#X connect 196 2 239 0;
#X connect 196 3 197 0;
#X connect 196 3 170 0;
#X connect 197 0 169 0;
#X connect 198 0 199 0;
#X connect 199 0 172 0;
#X connect 199 1 197 0;
#X connect 201 0 196 0;
#X connect 202 0 233 0;
#X connect 203 0 176 1;
#X connect 205 0 206 0;
#X connect 205 0 222 1;
#X connect 205 0 223 1;
#X connect 206 1 180 0;
#X connect 206 1 236 0;
#X connect 207 0 190 0;
#X connect 207 0 218 0;
#X connect 207 0 235 0;
#X connect 208 0 167 0;
#X connect 209 0 165 0;
#X connect 209 1 210 0;
#X connect 209 1 216 0;
#X connect 210 0 208 1;
#X connect 211 0 212 0;
#X connect 212 0 169 0;
#X connect 213 0 214 0;
#X connect 214 0 165 0;
#X connect 214 1 215 0;
#X connect 214 1 217 0;
#X connect 215 0 211 1;
#X connect 216 0 211 1;
#X connect 217 0 208 1;
#X connect 218 0 219 0;
#X connect 219 0 190 0;
#X connect 220 0 219 0;
#X connect 221 0 222 0;
#X connect 222 0 224 0;
#X connect 223 0 225 0;
#X connect 224 0 206 0;
#X connect 224 0 228 0;
#X connect 225 0 227 0;
#X connect 226 0 223 0;
#X connect 227 0 232 0;
#X connect 227 1 206 0;
#X connect 228 0 206 0;
#X connect 228 1 229 0;
#X connect 229 0 206 0;
#X connect 231 0 206 0;
#X connect 232 0 231 0;
#X connect 236 0 234 0;
#X connect 238 0 245 0;
#X connect 238 0 302 0;
#X connect 239 0 240 0;
#X connect 240 0 243 0;
#X connect 241 0 240 0;
#X connect 241 1 242 0;
#X connect 242 0 239 0;
#X connect 243 0 190 0;
#X connect 245 0 244 0;
#X connect 246 0 204 0;
#X connect 248 0 288 5;
#X connect 249 0 288 2;
#X connect 250 0 288 3;
#X connect 251 0 288 4;
#X connect 252 0 288 1;
#X connect 253 0 288 17;
#X connect 254 0 288 12;
#X connect 255 0 288 10;
#X connect 256 0 288 11;
#X connect 257 0 288 14;
#X connect 258 0 288 19;
#X connect 259 0 165 1;
#X connect 260 0 288 13;
#X connect 261 0 288 15;
#X connect 262 0 288 6;
#X connect 263 0 288 16;
#X connect 264 0 288 9;
#X connect 265 0 288 8;
#X connect 266 0 288 7;
#X connect 277 0 288 18;
#X connect 288 0 208 0;
#X connect 288 0 211 0;
#X connect 289 0 280 0;
#X connect 289 1 281 0;
#X connect 289 2 282 0;
#X connect 289 3 283 0;
#X connect 289 4 284 0;
#X connect 289 5 285 0;
#X connect 289 6 286 0;
#X connect 289 7 287 0;
#X connect 289 8 295 0;
#X connect 289 9 294 0;
#X connect 289 10 293 0;
#X connect 289 11 292 0;
#X connect 289 12 291 0;
#X connect 289 13 300 0;
#X connect 289 14 299 0;
#X connect 289 15 298 0;
#X connect 289 16 296 0;
#X connect 289 17 297 0;
#X connect 289 18 192 0;
#X connect 289 19 290 0;
#X connect 301 0 233 0;
#X connect 301 1 201 0;
#X connect 301 2 241 0;
#X connect 301 3 202 0;
#X connect 302 0 246 0;
#X coords 0 -1 1 1 147 233 1 0 5;
