#N canvas 3 50 577 436 10;
#X obj 310 36 inlet~;
#X obj 310 137 *~;
#X obj 264 162 outlet~;
#X obj 419 138 *~;
#X obj 101 115 cnv 15 60 17 empty empty empty 20 12 0 14 -262131 -66577
0;
#X obj 111 117 hsl 41 14 0 1 0 0 \$0-xfade \$0-xfade-set empty 2 -8
0 10 -257472 -258699 -1109 2000 1;
#X obj 62 237 s \$0-1_in-set;
#X msg 91 210 1;
#X obj 90 189 loadbang;
#X obj 98 259 r \$0-xfade;
#X obj 325 116 r \$0-1_in_lev;
#X obj 434 117 r \$0-2_in_lev;
#X obj 74 397 s \$0-1_in_lev;
#X obj 165 397 s \$0-2_in_lev;
#X obj 134 307 * 5.63875;
#X obj 134 323 + 1;
#X obj 134 339 log;
#X obj 134 355 / 1.89292;
#X floatatom 134 371 0 0 0 0 - - -;
#N canvas 0 0 450 300 1- 0;
#X obj 93 24 inlet;
#X obj 94 58 t b f;
#X msg 88 93 1;
#X obj 88 161 outlet;
#X obj 88 129 -;
#X connect 0 0 1 0;
#X connect 1 0 2 0;
#X connect 1 1 4 1;
#X connect 2 0 4 0;
#X connect 4 0 3 0;
#X restore 98 278 pd 1-;
#X text 175 331 3dB equal power curve;
#X obj 74 307 * 5.63875;
#X obj 74 323 + 1;
#X obj 74 339 log;
#X obj 74 355 / 1.89292;
#X floatatom 74 371 0 0 0 0 - - -;
#X msg 204 209 0.5;
#X obj 226 236 s \$0-xfade-set;
#X obj 313 162 outlet~;
#X obj 465 26 inlet;
#X obj 437 67 s \$0-xfade-set;
#X obj 400 303 outlet;
#X connect 0 0 1 0;
#X connect 0 0 3 0;
#X connect 1 0 2 0;
#X connect 3 0 28 0;
#X connect 7 0 6 0;
#X connect 8 0 7 0;
#X connect 8 0 26 0;
#X connect 9 0 19 0;
#X connect 9 0 14 0;
#X connect 9 0 31 0;
#X connect 10 0 1 1;
#X connect 11 0 3 1;
#X connect 14 0 15 0;
#X connect 15 0 16 0;
#X connect 16 0 17 0;
#X connect 17 0 18 0;
#X connect 18 0 13 0;
#X connect 19 0 21 0;
#X connect 21 0 22 0;
#X connect 22 0 23 0;
#X connect 23 0 24 0;
#X connect 24 0 25 0;
#X connect 25 0 12 0;
#X connect 26 0 27 0;
#X connect 29 0 30 0;
#X coords 0 -1 1 1 62 35 1 100 100;
