#N canvas 1 82 450 300 10;
#X obj 110 112 osc~;
#X floatatom 213 68 5 0 5000 1 attack - -, f 5;
#X floatatom 213 84 5 0 5000 1 decay - -, f 5;
#X msg 203 16 1;
#X msg 266 14 40;
#X obj 317 15 loadbang;
#X obj 116 215 vline~;
#X obj 70 5 inlet;
#X obj 77 87 t b f;
#X msg 130 91 0;
#X msg 150 176 1 \$1 \, 0 \$2 \$1;
#X obj 97 249 *~;
#X obj 142 143 pack f f;
#X obj 98 280 outlet~;
#X obj 143 115 f;
#X obj 75 65 440;
#X obj 66 26 route bang;
#X obj 105 66 unpack;
#X obj 51 216 osc~;
#X obj 61 170 *~ 440;
#X obj 61 190 +~ 440;
#X connect 0 0 19 0;
#X connect 1 0 14 1;
#X connect 2 0 12 1;
#X connect 3 0 1 0;
#X connect 4 0 2 0;
#X connect 5 0 4 0;
#X connect 5 0 3 0;
#X connect 6 0 11 1;
#X connect 7 0 16 0;
#X connect 8 0 14 0;
#X connect 8 1 0 0;
#X connect 8 1 9 0;
#X connect 9 0 0 1;
#X connect 10 0 6 0;
#X connect 11 0 13 0;
#X connect 12 0 10 0;
#X connect 14 0 12 0;
#X connect 15 0 8 0;
#X connect 16 0 15 0;
#X connect 16 1 17 0;
#X connect 17 0 15 0;
#X connect 17 1 19 1;
#X connect 17 1 20 1;
#X connect 18 0 11 0;
#X connect 19 0 20 0;
#X connect 20 0 18 0;
#X coords 0 -1 1 1 85 53 1 210 50;
