#N canvas 441 189 876 558 10;
#X obj 60 399 freeverb~;
#X msg 159 46 roomsize \$1;
#X msg 159 68 damping \$1;
#X msg 159 90 width \$1;
#X msg 159 112 wet \$1;
#X msg 159 134 dry \$1;
#X msg 6 213 freeze \$1;
#X obj 54 39 r \$0-roomsize;
#X obj 49 70 r \$0-damping;
#X obj 47 99 r \$0-width;
#X obj 296 158 r \$0-balance;
#X obj 354 185 t b f;
#X obj 355 229 -;
#X obj 351 248 pow 0.5;
#X msg 353 205 1;
#X obj 285 249 pow 0.5;
#X floatatom 282 279 5 0 0 0 - - -;
#X floatatom 354 282 5 0 0 0 - - -;
#X obj 44 279 inlet~;
#X obj 144 284 inlet~;
#X obj 88 344 *~ 0;
#X obj 187 325 r \$0-mono;
#X obj 59 452 outlet~;
#X obj 125 450 outlet~;
#X obj 13 186 r \$0-freeze;
#X obj 441 115 cnv 15 141 104 empty empty empty 10 7 0 10 -228992 -62784
0;
#X obj 449 117 hsl 128 12 0 1 0 0 \$0-roomsize \$0-roomsize-set size
20 6 0 8 -228992 -62784 -355 9144 0;
#X obj 449 131 hsl 128 12 0 1 0 0 \$0-damping \$0-damping-set damp
20 6 0 8 -228992 -62784 -355 4826 0;
#X obj 449 145 hsl 128 12 0 1 0 0 \$0-width \$0-width-set wide 20 6
0 8 -228992 -62784 -355 8890 0;
#X obj 449 159 hsl 128 12 0 1 0 0 \$0-balance \$0-balance-set balance
20 6 0 8 -228992 -62784 -355 12700 0;
#X obj 446 174 tgl 14 0 \$0-freeze \$0-freeze-set freeze 18 7 0 8 -225280
-1109 -1109 0 1;
#X obj 497 174 tgl 14 0 \$0-mono \$0-mono-set mono_in 18 7 0 8 -225280
-1109 -1109 0 1;
#X obj 553 174 tgl 14 0 \$0-patch_on \$0-patch_on-set on 18 7 0 8 -195568
-258699 -143491 1 1;
#N canvas 502 169 789 643 patches 0;
#X obj 24 140 f;
#X obj 21 97 r \$0-store_patch;
#X obj 22 199 prepend add;
#X obj 19 232 t b a;
#X obj 91 319 msgfile;
#X obj 356 382 spigot;
#X msg 400 381 0;
#X msg 401 364 1;
#X msg 172 289 add patches 0;
#X obj 169 251 loadbang;
#X obj 76 436 route patches;
#X msg 106 238 goto 0;
#X obj 34 297 + 1;
#X obj 18 314 f;
#X msg 18 367 replace patches \$1;
#X msg 69 288 this;
#X obj 18 262 t b b b;
#X msg 573 327 range 1 \$1;
#X obj 346 217 t b f;
#X msg 361 241 goto \$1;
#X msg 326 240 this;
#X obj 453 251 r \$0-patches_load;
#X obj 453 268 openpanel;
#X msg 527 302 read \$1;
#X msg 483 302 goto 0;
#X msg 453 302 this;
#X obj 633 181 r \$0-patches_save;
#X obj 633 209 savepanel;
#X obj 632 238 makesymbol %s.txt;
#X msg 628 262 write \$1;
#X obj 80 406 route list;
#X obj 281 171 r \$0-patches_clear;
#X obj 279 197 t b b;
#X msg 359 278 clear;
#X obj 453 285 t b b a b;
#X obj 538 99 inlet;
#X obj 569 410 outlet;
#X obj 228 13 r \$0-roomsize;
#X obj 223 44 r \$0-damping;
#X obj 221 73 r \$0-width;
#X obj 219 99 r \$0-balance;
#X obj 268 132 r \$0-mono;
#X obj 24 172 pack f f f f f;
#X obj 218 344 unpack f f f f f;
#X obj 237 460 s \$0-roomsize-set;
#X obj 232 491 s \$0-damping-set;
#X obj 230 520 s \$0-width-set;
#X obj 228 546 s \$0-balance-set;
#X obj 277 579 s \$0-mono-set;
#X msg 277 282 print;
#X obj 512 209 symbol;
#X obj 348 194 r \$0-patch-num;
#X obj 324 410 s \$0-patches-num;
#X obj 573 344 s \$0-patch-set;
#X connect 0 0 42 0;
#X connect 1 0 0 0;
#X connect 2 0 3 0;
#X connect 3 0 16 0;
#X connect 3 1 4 0;
#X connect 4 0 30 0;
#X connect 5 0 6 0;
#X connect 5 0 17 0;
#X connect 5 0 52 0;
#X connect 6 0 5 1;
#X connect 7 0 5 1;
#X connect 8 0 4 0;
#X connect 9 0 8 0;
#X connect 10 0 12 0;
#X connect 10 0 5 0;
#X connect 10 1 43 0;
#X connect 11 0 4 0;
#X connect 12 0 13 1;
#X connect 13 0 14 0;
#X connect 13 0 17 0;
#X connect 13 0 52 0;
#X connect 14 0 4 0;
#X connect 15 0 4 0;
#X connect 16 0 13 0;
#X connect 16 1 15 0;
#X connect 16 2 11 0;
#X connect 17 0 53 0;
#X connect 18 0 20 0;
#X connect 18 1 19 0;
#X connect 19 0 4 0;
#X connect 20 0 4 0;
#X connect 21 0 22 0;
#X connect 22 0 34 0;
#X connect 22 0 36 0;
#X connect 23 0 4 0;
#X connect 24 0 4 0;
#X connect 25 0 4 0;
#X connect 26 0 27 0;
#X connect 27 0 28 0;
#X connect 28 0 29 0;
#X connect 28 0 36 0;
#X connect 29 0 4 0;
#X connect 30 0 10 0;
#X connect 31 0 32 0;
#X connect 32 0 8 0;
#X connect 32 1 33 0;
#X connect 33 0 4 0;
#X connect 34 0 25 0;
#X connect 34 1 24 0;
#X connect 34 1 7 0;
#X connect 34 2 23 0;
#X connect 34 3 33 0;
#X connect 35 0 50 0;
#X connect 37 0 0 1;
#X connect 38 0 42 1;
#X connect 39 0 42 2;
#X connect 40 0 42 3;
#X connect 41 0 42 4;
#X connect 42 0 2 0;
#X connect 43 0 44 0;
#X connect 43 1 45 0;
#X connect 43 2 46 0;
#X connect 43 3 47 0;
#X connect 43 4 48 0;
#X connect 49 0 4 0;
#X connect 50 0 34 0;
#X connect 51 0 18 0;
#X restore 659 412 pd patches;
#X obj 662 277 r \$0-patch_on;
#X obj 664 302 switch~;
#X obj 734 500 outlet;
#X obj 713 364 s \$0-patch_on-set;
#X obj 271 13 inlet;
#X obj 348 74 s \$0-roomsize-set;
#X obj 477 73 s \$0-damping-set;
#X obj 596 90 s \$0-width-set;
#X obj 706 85 s \$0-balance-set;
#X msg 661 53 0.72;
#X msg 704 51 0.38;
#X msg 748 51 0.7;
#X msg 791 50 1;
#X obj 659 29 loadbang;
#X obj 598 112 s \$0-freeze-set;
#X obj 698 107 s \$0-mono-set;
#X obj 274 369 env~;
#X obj 275 399 spigot;
#X msg 310 357 1;
#X msg 390 402 0;
#X obj 269 438 < 30;
#X obj 276 465 sel 1;
#X obj 441 193 cnv 15 141 23 empty empty empty 20 12 0 14 -183672 -66577
0;
#X obj 443 202 nbx 3 12 0 120 0 0 empty empty empty -2 -6 0 7 -257472
-1109 -90133 0 256;
#X obj 485 202 nbx 3 12 1 2 0 0 \$0-patch-num \$0-patch-set select
0 -5 0 7 -17235 -261234 -17235 1 256;
#X obj 530 202 bng 12 250 50 0 \$0-store_patch \$0-store_patch-bng
store -3 -5 0 7 -17235 -262130 -17235;
#X obj 551 197 bng 10 250 50 0 \$0-patches_load \$0-patches_load-bng
load -5 16 0 7 -2498 -262144 -13381;
#X obj 564 197 bng 10 250 50 0 \$0-patches_save \$0-patches_save-bng
save 0 16 0 7 -159809 -262144 -86277;
#X obj 443 202 nbx 3 12 0 120 0 0 \$0-patches-dummy \$0-patches-num
patches 0 -5 0 7 -17235 -203904 -17235 0 256;
#X obj 516 206 bng 8 250 50 0 \$0-store_plus \$0-store_plus-bng + 2
-4 0 7 -17235 -198336 -17235;
#X obj 474 206 bng 8 250 50 0 \$0-store_minus \$0-store_minus-bng -
1 -5 0 10 -17235 -257985 -17235;
#X obj 643 229 s \$0-patch-set;
#X obj 471 337 dbtorms;
#X floatatom 470 311 5 0 0 0 - - -;
#X floatatom 476 368 0 0 0 0 - - -;
#X obj 79 220 noise~;
#X text 81 204 SALT the denormal bug!;
#X obj 79 241 *~ 3.58489e-05;
#X obj 271 36 route roomsize damping width balance mono freeze stop
patch file on size damp wide mix;
#X connect 0 0 22 0;
#X connect 0 0 50 0;
#X connect 0 1 23 0;
#X connect 1 0 0 0;
#X connect 2 0 0 0;
#X connect 3 0 0 0;
#X connect 4 0 0 0;
#X connect 5 0 0 0;
#X connect 6 0 0 0;
#X connect 7 0 1 0;
#X connect 8 0 2 0;
#X connect 9 0 3 0;
#X connect 10 0 11 0;
#X connect 10 0 15 0;
#X connect 11 0 14 0;
#X connect 11 1 12 1;
#X connect 12 0 13 0;
#X connect 13 0 17 0;
#X connect 14 0 12 0;
#X connect 15 0 16 0;
#X connect 16 0 4 0;
#X connect 17 0 5 0;
#X connect 18 0 20 0;
#X connect 18 0 0 0;
#X connect 19 0 0 1;
#X connect 20 0 0 1;
#X connect 21 0 20 1;
#X connect 24 0 6 0;
#X connect 33 0 36 0;
#X connect 34 0 35 0;
#X connect 38 0 72 0;
#X connect 43 0 39 0;
#X connect 44 0 40 0;
#X connect 45 0 41 0;
#X connect 46 0 42 0;
#X connect 47 0 43 0;
#X connect 47 0 44 0;
#X connect 47 0 45 0;
#X connect 47 0 46 0;
#X connect 50 0 51 0;
#X connect 51 0 54 0;
#X connect 52 0 51 1;
#X connect 53 0 51 1;
#X connect 53 0 37 0;
#X connect 54 0 55 0;
#X connect 55 0 53 0;
#X connect 66 0 68 0;
#X connect 67 0 66 0;
#X connect 69 0 71 0;
#X connect 71 0 0 0;
#X connect 71 0 0 1;
#X connect 72 0 39 0;
#X connect 72 1 40 0;
#X connect 72 2 41 0;
#X connect 72 3 42 0;
#X connect 72 4 49 0;
#X connect 72 5 48 0;
#X connect 72 6 53 0;
#X connect 72 7 65 0;
#X connect 72 8 33 0;
#X connect 72 9 37 0;
#X connect 72 10 39 0;
#X connect 72 11 40 0;
#X connect 72 12 41 0;
#X connect 72 13 42 0;
#X coords 0 -1 1 1 143 122 1 440 100;
