#N canvas 166 61 674 390 10;
#X obj 51 223 pitchshift~;
#X obj 31 70 cnv 15 260 50 empty empty empty 20 12 0 14 -204786 -66577
0;
#X obj 31 14 cnv 15 400 50 empty empty pitchshift~ 10 18 0 18 -232576
-45076 0;
#X obj 51 125 tester~;
#X text 364 208 V;
#X text 56 196 audio;
#X text 56 206 inlet;
#X text 364 200 |;
#X text 234 178 automation and patching;
#X text 364 190 |;
#X obj 50 343 dac~;
#X text 365 337 V;
#X text 365 329 |;
#X text 365 319 |;
#X text 213 345 automation and patching out;
#X text 438 14 nogui version =;
#X text 33 88 SIGNAL: audio in;
#X text 33 102 CONTROL: message tagged control parameters;
#X text 33 70 Metastudio FX have two or more inlets:;
#X msg 442 34 \; pd dsp 1;
#X obj 297 70 cnv 15 260 60 empty empty empty 20 12 0 14 -203904 -66577
0;
#X obj 381 226 cnv 15 260 94 empty empty empty 20 12 0 14 -204786 -66577
0;
#X text 383 254 CONTROL: message tagged control parameters;
#X text 383 226 Metastudio FX have two outlets;
#X text 383 240 SIGNAL: audio out;
#X text 384 267 All manipulations of the GUI \, patch file;
#X text 385 279 locations and patch changes are sent out;
#X text 386 291 of the second outlet so that they may be;
#X text 424 187 (C) 2009 Edward Kelly;
#X text 417 202 GNU/GPL license enclosed;
#X text 442 172 METASTUDIO 0.3;
#X text 385 303 recorded.;
#X obj 533 14 pish~;
#X text 41 43 ...is a granular pitch shifter with feedback and filters.
;
#X obj 197 126 cnv 15 360 40 empty empty empty 20 12 0 14 -203904 -66577
0;
#X text 200 127 For a list of control parameters for this;
#X text 200 141 unit \, click on this subpatch -->;
#N canvas 3 50 649 353 control 0;
#X obj 211 295 outlet;
#X msg 315 159 porta \$1;
#X floatatom 47 126 5 -60 60 0 - - -;
#X floatatom 94 127 5 0 0 0 - - -;
#X obj 94 147 / 100;
#X msg 258 159 fb \$1;
#X floatatom 180 139 5 1 16384 0 - - -;
#X floatatom 258 139 5 0 127 0 - - -;
#X floatatom 315 139 5 0 2000 0 - - -;
#X text 43 109 coarse;
#X text 98 110 fine;
#X text 246 122 feedback;
#X text 303 122 portamento;
#X msg 381 159 hpf \$1;
#X floatatom 381 138 5 20 2000 0 - - -;
#X floatatom 436 138 5 200 20000 0 - - -;
#X msg 436 159 lpf \$1;
#X text 372 111 highpass;
#X text 368 121 frequency;
#X text 428 121 frequency;
#X text 432 111 lowpass;
#X msg 554 158 on \$1;
#X obj 554 139 tgl 15 0 empty empty empty 17 7 0 10 -262144 -1 -1 0
1;
#X text 547 122 on/off;
#X msg 501 158 mix \$1;
#X floatatom 501 137 5 0 100 0 - - -;
#X text 496 110 dry/wet;
#X text 506 121 mix*;
#X msg 188 67 patch \$1;
#X msg 249 67 randpat;
#X text 63 50 load a patches file;
#X text 177 20 recall a;
#X text 185 30 patch;
#X text 254 40 random;
#X text 257 50 patch;
#X floatatom 188 47 5 1 9 0 - - -;
#X msg 46 216 trans \$1;
#X text 46 99 pitch;
#X obj 46 196 +;
#X text 96 98 pitch;
#X obj 57 172 t b f;
#X msg 180 159 win \$1;
#X text 170 121 window (ms);
#X msg 50 67 file datasets/pish.pat;
#X connect 1 0 0 0;
#X connect 2 0 38 0;
#X connect 3 0 4 0;
#X connect 4 0 40 0;
#X connect 5 0 0 0;
#X connect 6 0 41 0;
#X connect 7 0 5 0;
#X connect 8 0 1 0;
#X connect 13 0 0 0;
#X connect 14 0 13 0;
#X connect 15 0 16 0;
#X connect 16 0 0 0;
#X connect 21 0 0 0;
#X connect 22 0 21 0;
#X connect 24 0 0 0;
#X connect 25 0 24 0;
#X connect 28 0 0 0;
#X connect 29 0 0 0;
#X connect 35 0 28 0;
#X connect 36 0 0 0;
#X connect 38 0 36 0;
#X connect 40 0 38 0;
#X connect 40 1 38 1;
#X connect 41 0 0 0;
#X connect 43 0 0 0;
#X restore 399 144 pd control parameters;
#X text 299 70 Message tagged control parameters;
#X text 299 83 Any of the fx parameters may be altered by;
#X text 298 96 sending the object a message followed by a;
#X msg 457 114 delay 250;
#X text 298 109 value in the second inlet:;
#X obj 385 338 print pitchshift;
#X connect 0 0 10 0;
#X connect 0 0 10 1;
#X connect 0 1 43 0;
#X connect 3 0 0 0;
#X connect 37 0 0 1;
#X connect 41 0 0 1;
