#N canvas 57 106 664 425 10;
#X obj 41 100 cnv 15 260 50 empty empty empty 20 12 0 14 -204786 -66577
0;
#X obj 41 -26 cnv 15 400 120 empty empty tabmask~ 10 18 0 18 -232576
-45076 0;
#X obj 61 155 tester~;
#X text 374 224 V;
#X text 69 212 audio;
#X text 69 222 inlet;
#X text 374 216 |;
#X text 244 194 automation and patching;
#X text 374 206 |;
#X obj 50 375 dac~;
#X text 373 387 V;
#X text 373 379 |;
#X text 373 369 |;
#X text 221 395 automation and patching out;
#X text 448 44 nogui version =;
#X text 43 118 SIGNAL: audio in;
#X text 43 132 CONTROL: message tagged control parameters;
#X text 43 100 Metastudio FX have two or more inlets:;
#X msg 452 64 \; pd dsp 1;
#X obj 307 100 cnv 15 260 60 empty empty empty 20 12 0 14 -203904 -66577
0;
#X obj 391 256 cnv 15 260 94 empty empty empty 20 12 0 14 -204786 -66577
0;
#X text 393 284 CONTROL: message tagged control parameters;
#X text 393 256 Metastudio FX have two outlets;
#X text 393 270 SIGNAL: audio out;
#X text 394 297 All manipulations of the GUI \, patch file;
#X text 395 309 locations and patch changes are sent out;
#X text 396 321 of the second outlet so that they may be;
#X text 434 220 (C) 2009 Edward Kelly;
#X text 427 235 GNU/GPL license enclosed;
#X text 452 205 METASTUDIO 0.3;
#X text 395 333 recorded.;
#X obj 207 156 cnv 15 360 40 empty empty empty 20 12 0 14 -203904 -66577
0;
#X text 210 157 For a list of control parameters for this;
#X text 210 171 unit \, click on this subpatch -->;
#N canvas 3 50 649 353 control 0;
#X obj 211 295 outlet;
#X msg 188 67 patch \$1;
#X msg 249 67 randpat;
#X text 63 50 load a patches file;
#X text 177 20 recall a;
#X text 185 30 patch;
#X text 254 40 random;
#X text 257 50 patch;
#X floatatom 188 47 5 1 9 0 - - -;
#X msg 50 67 file datasets/pish.pat;
#N canvas 681 0 688 494 automation 0;
#X obj 162 299 s \$0-on_set;
#X obj 39 399 s \$0-peaks_basic-set;
#X obj 63 379 s \$0-phase_basic-set;
#X obj 88 359 s \$0-peaks_mod-set;
#X obj 112 339 s \$0-phase_mod-set;
#X obj 137 319 s \$0-negs-set;
#X obj 186 279 s \$0-drunk_walk_1-set;
#X obj 211 259 s \$0-drunk_walk_2-set;
#X obj 236 239 s \$0-phase_walk_1-set;
#X obj 260 219 s \$0-phase_walk_2-set;
#X obj 279 200 s \$0-time-set;
#X obj 302 176 s \$0-t_rand-set;
#X obj 444 195 s \$0-pb_scope-set;
#X obj 461 175 s \$0-pm_scope-set;
#X obj 474 155 s \$0-phb_scope-set;
#X obj 491 135 s \$0-phm_scope-set;
#X obj 48 49 inlet;
#X obj 42 79 route peaks phase mpeaks mphase negs on pbmod pmmod phbmod
phmmod time trand pbscope pmscope phbscope phmscope winsize overlaps
;
#X obj 415 227 outlet;
#X obj 455 103 s \$0-winsize-set;
#X obj 481 71 s \$0-overlaps-set;
#X connect 16 0 17 0;
#X connect 17 0 1 0;
#X connect 17 1 2 0;
#X connect 17 2 3 0;
#X connect 17 3 4 0;
#X connect 17 4 5 0;
#X connect 17 5 0 0;
#X connect 17 6 6 0;
#X connect 17 7 7 0;
#X connect 17 8 8 0;
#X connect 17 9 9 0;
#X connect 17 10 10 0;
#X connect 17 11 11 0;
#X connect 17 12 12 0;
#X connect 17 13 13 0;
#X connect 17 14 14 0;
#X connect 17 15 15 0;
#X connect 17 16 19 0;
#X connect 17 17 20 0;
#X connect 17 18 18 0;
#X restore 436 73 pd automation;
#X msg 56 171 peaks \$1;
#X msg 122 170 phase \$1;
#X msg 186 170 mpeaks \$1;
#X msg 254 170 mphase \$1;
#X msg 322 168 negs \$1;
#X msg 324 65 on \$1;
#X obj 324 46 tgl 15 0 empty empty empty 17 7 0 10 -262144 -1 -1 0
1;
#X msg 378 168 pbmod \$1;
#X msg 440 168 pmmod \$1;
#X msg 500 162 phbmod \$1;
#X msg 571 162 phmmod \$1;
#X msg 366 226 time \$1;
#X msg 426 227 trand \$1;
#X msg 491 226 pdscope \$1;
#X msg 456 264 pmscope \$1;
#X msg 538 263 phbscope \$1;
#X msg 454 305 phmscope \$1;
#X msg 536 306 winsize \$1;
#X msg 522 286 overlaps \$1;
#X floatatom 56 152 5 0 64 2 mask_peaks - -;
#X msg 413 0;
#X floatatom 122 110 5 0 100 2 mask_phase - -;
#X obj 122 130 / 100;
#X floatatom 122 150 5 0 0 0 - - -;
#X floatatom 186 152 5 0 64 2 mask_peaks* - -;
#X text 186 124 "modulator";
#X connect 1 0 0 0;
#X connect 2 0 0 0;
#X connect 8 0 1 0;
#X connect 9 0 0 0;
#X connect 11 0 0 0;
#X connect 12 0 0 0;
#X connect 13 0 0 0;
#X connect 17 0 16 0;
#X connect 30 0 11 0;
#X connect 32 0 33 0;
#X connect 33 0 34 0;
#X connect 34 0 12 0;
#X connect 35 0 13 0;
#X restore 409 174 pd control parameters;
#X text 309 100 Message tagged control parameters;
#X text 309 113 Any of the fx parameters may be altered by;
#X text 308 126 sending the object a message followed by a;
#X text 308 139 value in the second inlet:;
#X obj 61 240 tabmask~ 1024 4;
#X obj 395 380 print tabmask;
#X text 51 0 ...is an fft sinemask "phaser"-like effect.;
#X msg 467 144 peaks 12;
#X text 54 13 A spectral analysis of the input is multiplied by a sine
wave \, so that spectral peaks are imposed on the sound.;
#X text 53 36 A drunk walk effect may then be applied to the number
of peaks \, or the phase of the multiplication.;
#X text 52 60 There is also a second sinusoid that is multiplied by
the first \, so that more complex filament-like spectral peaks result.
;
#X connect 2 0 39 0;
#X connect 34 0 39 1;
#X connect 39 0 9 0;
#X connect 39 0 9 1;
#X connect 39 1 40 0;
#X connect 42 0 39 1;
