#N canvas 250 181 634 518 10;
#X declare -lib vasp;
#X obj 31 109 cnv 15 270 64 empty empty empty 20 12 0 14 -204786 -66577
0;
#X obj 31 9 cnv 15 400 95 empty empty sampler~ 10 14 0 18 -232576 -45076
0;
#X text 275 262 V;
#X text 448 23 nogui version =;
#X text 33 141 CONTROL: message tagged control parameters;
#X msg 446 73 \; pd dsp 1;
#X obj 307 109 cnv 15 260 80 empty empty empty 20 12 0 14 -203904 -66577
0;
#X text 309 109 Message tagged control parameters;
#X text 308 140 sending the object a message followed by a;
#X text 308 153 value in the second inlet:;
#X obj 207 178 cnv 15 360 40 empty empty empty 20 12 0 14 -203904 -66577
0;
#X text 210 179 For a list of control parameters for this;
#X text 210 193 unit \, click on this subpatch -->;
#N canvas 167 205 839 462 control 0;
#X obj 211 295 outlet;
#X floatatom 46 141 5 0 2000 0 - - -;
#X floatatom 86 140 5 0 0 0 - - -;
#X floatatom 312 138 5 -100 100 0 - - -;
#X floatatom 374 138 5 1 32 0 - - -;
#X floatatom 440 137 5 1 4 0 - - -;
#X floatatom 496 99 5 0 1000 0 - - -;
#X floatatom 129 118 5 0 100 0 - - -;
#X obj 616 138 tgl 15 0 empty empty empty 17 7 0 10 -262144 -1 -1 0
1;
#X msg 188 67 patch \$1;
#X msg 249 67 randpat;
#X text 63 50 load a patches file;
#X text 177 20 recall a;
#X text 185 30 patch;
#X text 254 40 random;
#X text 257 50 patch;
#X floatatom 188 47 5 1 9 0 - - -;
#X text 47 113 amp;
#X text 44 123 attack;
#X text 88 111 amp;
#X text 84 123 decay;
#X msg 312 158 pitch \$1;
#X text 131 91 amp;
#X obj 272 127 tgl 15 0 empty empty empty 17 7 0 10 -262144 -1 -1 0
1;
#X obj 557 139 tgl 15 0 empty empty empty 17 7 0 10 -262144 -1 -1 0
1;
#X obj 28 28 loadbang;
#X msg 46 161 a \$1;
#X msg 86 160 d \$1;
#X obj 129 138 / 100;
#X msg 129 159 s \$1;
#X text 122 102 sustain;
#X floatatom 222 139 5 0 0 0 - - -;
#X text 224 110 amp;
#X floatatom 175 138 5 0 100 0 - - -;
#X text 176 98 amp;
#X text 167 109 sustain;
#X msg 165 159 s_pc \$1;
#X text 166 120 percent*;
#X text 220 122 release;
#X msg 222 159 r \$1;
#X msg 27 264 eg 20 500 50 800;
#X msg 260 159 loop \$1;
#X text 310 121 pitch;
#X msg 374 158 sample \$1;
#X msg 440 158 bank \$1;
#X msg 496 158 offset \$1;
#X text 493 72 sample;
#X text 493 83 offset;
#X obj 496 118 * 100;
#X text 540 121 direction;
#X msg 557 158 dir \$1;
#X floatatom 496 139 5 0 0 0 - - -;
#X floatatom 668 99 5 0 1000 0 - - -;
#X obj 668 118 * 100;
#X floatatom 668 139 5 0 0 0 - - -;
#X text 658 83 duration**;
#X text 26 246 amplitude envelope***;
#X text 369 121 sample****;
#X text 580 107 alternate*****;
#X msg 616 157 alt \$1;
#X text 265 109 loop*****;
#X msg 668 158 dur \$1;
#X text 441 260 *sustain can either be absolute (0-1) or in percent
;
#X text 442 274 **if duration = 0 then there is no release portion
to the envelope \, and the sample plays to the end \, or continues
forever if looping is enabled. Otherwise the amplitude envelope goes
into its release phase after dur;
#X text 442 319 ***the settings for the amplitude envelope can be set
all at once \, in which case sustain is specified in percent;
#X text 442 344 ****samples are called from the samplebox abstractions
in the io folder. the naming convention is s32-(bank)-(sample);
#X text 442 370 *****alternate looping will alternate the direction
of looping forwards \, backwards \, forwards \, backwards.....;
#X text 430 121 samplebox;
#X msg 21 67 file datasets/sampler.pat;
#X connect 1 0 26 0;
#X connect 2 0 27 0;
#X connect 3 0 21 0;
#X connect 4 0 43 0;
#X connect 5 0 44 0;
#X connect 6 0 48 0;
#X connect 7 0 28 0;
#X connect 8 0 59 0;
#X connect 9 0 0 0;
#X connect 10 0 0 0;
#X connect 16 0 9 0;
#X connect 21 0 0 0;
#X connect 23 0 41 0;
#X connect 24 0 50 0;
#X connect 25 0 68 0;
#X connect 26 0 0 0;
#X connect 27 0 0 0;
#X connect 28 0 29 0;
#X connect 29 0 0 0;
#X connect 31 0 39 0;
#X connect 33 0 36 0;
#X connect 36 0 0 0;
#X connect 39 0 0 0;
#X connect 40 0 0 0;
#X connect 41 0 0 0;
#X connect 43 0 0 0;
#X connect 44 0 0 0;
#X connect 45 0 0 0;
#X connect 48 0 51 0;
#X connect 50 0 0 0;
#X connect 51 0 45 0;
#X connect 52 0 53 0;
#X connect 53 0 54 0;
#X connect 54 0 61 0;
#X connect 59 0 0 0;
#X connect 61 0 0 0;
#X connect 68 0 0 0;
#X restore 430 196 pd control parameters;
#X text 135 262 V;
#X text 135 254 |;
#X text 135 244 |;
#X floatatom 33 239 5 0 0 0 - - -;
#X obj 33 200 tgl 15 0 empty empty empty 17 7 0 10 -262144 -1 -1 0
1;
#X text 275 254 |;
#X text 309 126 Any of the parameters may be altered by;
#X obj 126 406 dac~;
#X obj 321 269 cnv 15 260 118 empty empty empty 20 12 0 14 -204786
-66577 0;
#X text 323 297 CONTROL: message tagged control parameters;
#X text 323 283 SIGNAL: audio out;
#X text 324 310 All manipulations of the GUI \, patch file;
#X text 325 322 locations and patch changes are sent out;
#X text 326 334 of the second outlet so that they may be;
#X text 325 346 recorded.;
#X floatatom 102 199 5 2 130 0 - - -;
#X text 204 412 V;
#X text 204 404 |;
#X text 204 394 |;
#X text 128 421 automation and patching out;
#X obj 545 23 samplevoice~;
#X text 33 109 Metastudio Poly voices have two inlets.;
#X text 323 270 Metastudio polyvox have three outlets;
#X text 325 359 CONTROL: poly thru - notelist to next;
#X text 325 371 sampler~ in a polyphonic chain;
#X text 247 242 automation;
#X text 92 233 notelist and patch;
#N canvas 10 71 450 300 newmelody 0;
#X obj 60 53 metro 421;
#X obj 60 21 inlet;
#X obj 60 89 random 8;
#X obj 51 121 sel 0 1 2 3 4 5 6 7;
#X msg 38 166 60;
#X msg 64 163 62;
#X msg 95 160 64;
#X msg 153 163 67;
#X msg 184 161 69;
#X msg 219 161 71;
#X msg 252 160 77;
#X msg 122 160 65;
#X obj 54 199 outlet;
#X obj 155 17 inlet;
#X connect 0 0 2 0;
#X connect 1 0 0 0;
#X connect 2 0 3 0;
#X connect 3 0 4 0;
#X connect 3 1 5 0;
#X connect 3 2 6 0;
#X connect 3 3 11 0;
#X connect 3 4 7 0;
#X connect 3 5 8 0;
#X connect 3 6 9 0;
#X connect 3 7 10 0;
#X connect 4 0 12 0;
#X connect 5 0 12 0;
#X connect 6 0 12 0;
#X connect 7 0 12 0;
#X connect 8 0 12 0;
#X connect 9 0 12 0;
#X connect 10 0 12 0;
#X connect 11 0 12 0;
#X connect 13 0 0 1;
#X restore 33 219 pd newmelody;
#X obj 170 475 print sampler;
#X text 275 401 V;
#X text 275 393 |;
#X msg 469 177 pitch 72;
#X msg 469 158 sample 2 \, bank 1;
#N canvas 25 140 805 640 polyphonic_sampler 0;
#X obj 17 128 cnv 15 380 90 empty empty the_notelist_itself 10 10 0
14 -262130 -83269 0;
#X obj 265 309 sampler~;
#X obj 17 35 cnv 15 380 90 empty empty polyphonic_sampler 10 14 0 18
-261682 -124165 0;
#X obj 265 248 notelist;
#X obj 285 582 dac~;
#X obj 271 452 mix5++;
#N canvas 5 48 450 300 init 0;
#X obj 96 191 outlet;
#X obj 130 117 loadbang;
#X msg 104 151 max \, p1 -45 \, p3 45;
#X connect 1 0 2 0;
#X connect 2 0 0 0;
#X restore 524 435 pd init;
#N canvas 5 48 450 300 samps 0;
#X obj 99 105 cup;
#X msg 206 89 1;
#X obj 249 60 loadbang;
#X obj 128 112 == 3;
#X obj 128 132 sel 1;
#X obj 128 152 del 0;
#X obj 64 45 inlet;
#X obj 95 226 outlet;
#X msg 89 189 sample \$1;
#X obj 53 79 spigot;
#X obj 142 76 spigot;
#X obj 223 207 tgl 25 0 \$0-count_samp \$0-count_samp-set COUNT -3
-6 0 10 -262144 -1 -1 1 1;
#X obj 179 30 r \$0-count_samp;
#X obj 176 52 == 0;
#X obj 318 52 sel 0 1;
#X msg 339 87 label COUNT;
#X msg 312 122 label RANDOM;
#X obj 208 115 random 3;
#X obj 187 150 + 1;
#X obj 314 166 s \$0-count_samp-set;
#X msg 279 105 1;
#X connect 0 0 3 0;
#X connect 0 0 8 0;
#X connect 1 0 0 0;
#X connect 2 0 1 0;
#X connect 2 0 20 0;
#X connect 3 0 4 0;
#X connect 4 0 5 0;
#X connect 5 0 1 0;
#X connect 6 0 9 0;
#X connect 6 0 10 0;
#X connect 8 0 7 0;
#X connect 9 0 0 0;
#X connect 10 0 17 0;
#X connect 12 0 13 0;
#X connect 12 0 9 1;
#X connect 12 0 14 0;
#X connect 13 0 10 1;
#X connect 14 0 16 0;
#X connect 14 1 15 0;
#X connect 15 0 19 0;
#X connect 16 0 19 0;
#X connect 17 0 18 0;
#X connect 18 0 8 0;
#X connect 20 0 19 0;
#X coords 0 -1 1 1 50 48 2 210 190;
#X restore 680 225 pd samps;
#X obj 566 218 t f b;
#X floatatom 566 172 5 0 0 0 - - -;
#X obj 566 133 tgl 15 0 empty empty empty 17 7 0 10 -262144 -1 -1 0
1;
#X floatatom 635 132 5 2 130 0 - - -;
#N canvas 10 71 450 300 newmelody 0;
#X obj 60 53 metro 421;
#X obj 60 21 inlet;
#X obj 60 89 random 8;
#X obj 51 121 sel 0 1 2 3 4 5 6 7;
#X msg 38 166 60;
#X msg 64 163 62;
#X msg 95 160 64;
#X msg 153 163 67;
#X msg 184 161 69;
#X msg 219 161 71;
#X msg 252 160 77;
#X msg 122 160 65;
#X obj 54 199 outlet;
#X obj 155 17 inlet;
#X connect 0 0 2 0;
#X connect 1 0 0 0;
#X connect 2 0 3 0;
#X connect 3 0 4 0;
#X connect 3 1 5 0;
#X connect 3 2 6 0;
#X connect 3 3 11 0;
#X connect 3 4 7 0;
#X connect 3 5 8 0;
#X connect 3 6 9 0;
#X connect 3 7 10 0;
#X connect 4 0 12 0;
#X connect 5 0 12 0;
#X connect 6 0 12 0;
#X connect 7 0 12 0;
#X connect 8 0 12 0;
#X connect 9 0 12 0;
#X connect 10 0 12 0;
#X connect 11 0 12 0;
#X connect 13 0 0 1;
#X restore 566 152 pd newmelody;
#X text 29 58 sampler~ and samplevoice~ units may be chained together
\, and when poly mode is on the samplers act as one polyphonic unit.
The [notelist] abstraction may be used to set parameters globally \,
or alternatively notelists may be sent per-note.;
#X msg 19 225 note 54 1 1 30 120 70 500 300 200 0 0 0;
#X msg 21 270 note 60 2 1 10 10 100 100 0;
#X msg 21 342 note 67;
#X text 264 233 V;
#X text 264 225 |;
#X text 261 214 float sets pitch and triggers \, bang triggers;
#X text 654 233 V;
#X text 654 225 |;
#X text 622 181 message tagged;
#X text 612 192 control parameters;
#X text 654 215 |;
#X text 654 205 |;
#X obj 434 310 sampler~;
#X obj 601 310 sampler~;
#X text 27 143 ...is a list of parameters that triggers playback \,
of which the first item is the word "note". Not all the parameters
may be included \, so that a [note pitch sample bank a d s r( or [note
pitch sample bank( or even just [note pitch( will trigger playback.
The [notelist] abstraction formats this list of parameters \, with
the gui or control messages.;
#X msg 21 312 note 72 3 1;
#X obj 402 36 cnv 15 380 80 empty empty the_notelist 10 10 0 14 -261234
-86277 0;
#X text 410 54 "note" pitch sample bank a d s% r duration offset direction
loop alternate_direction;
#X text 411 84 alternatively \, a [patch n( message recalls patch n
and triggers the sampler;
#X connect 1 0 5 0;
#X connect 1 2 26 0;
#X connect 3 0 1 0;
#X connect 3 1 1 1;
#X connect 3 1 26 1;
#X connect 3 1 27 1;
#X connect 5 0 4 0;
#X connect 5 1 4 1;
#X connect 6 0 5 5;
#X connect 7 0 3 1;
#X connect 8 0 3 0;
#X connect 8 1 7 0;
#X connect 9 0 8 0;
#X connect 10 0 12 0;
#X connect 11 0 12 1;
#X connect 12 0 9 0;
#X connect 14 0 1 0;
#X connect 15 0 1 0;
#X connect 16 0 1 0;
#X connect 26 0 5 1;
#X connect 26 2 27 0;
#X connect 27 0 5 2;
#X connect 29 0 1 0;
#X restore 455 411 pd polyphonic_sampler;
#X text 33 126 CONTROL: notelist (see polyphonic_sampler);
#X obj 135 277 sampler~;
#X text 239 410 chain samplers in poly mode ------>;
#N canvas 15 94 577 405 samplebox 0;
#X obj 27 60 samplebox_1~;
#X obj 27 351 dac~;
#X msg 27 39 loadbank snd/samples_1;
#X obj 27 18 loadbang;
#X connect 0 0 1 0;
#X connect 0 0 1 1;
#X connect 2 0 0 0;
#X connect 3 0 2 0;
#X restore 504 244 pd samplebox;
#X text 365 244 samples are in here ->;
#X text 38 33 ...is a sample voice with variable pitch \, offset \,
direction \, looping and an amplitude envelope. This also has the capability
for polyphony \, and may be chained together to create polyphonic samplers.
It plays samples from the samplebox_n~ abstractions \, so these must
be loaded along with the sampler~;
#X connect 13 0 49 1;
#X connect 17 0 49 0;
#X connect 18 0 41 0;
#X connect 29 0 41 1;
#X connect 41 0 17 0;
#X connect 45 0 49 1;
#X connect 46 0 49 1;
#X connect 49 0 21 0;
#X connect 49 0 21 1;
#X connect 49 1 42 0;
