#N canvas 3 89 964 502 10;
#X declare -path .;
#X obj 36 22 cnv 15 400 50 empty empty wavevoice~ 10 8 0 12 -204786
-13381 0;
#X msg 35 154 wave \$1;
#X obj 35 135 nbx 5 14 1 22 0 0 empty empty empty 0 -8 0 10 -262144
-1 -1 1 256;
#X msg 35 114 range 1 \$1;
#X obj 93 154 bng 15 250 50 0 empty empty empty 17 7 0 10 -262144 -1
-1;
#X msg 114 153 48;
#X msg 146 153 72;
#X obj 35 195 mixpan~;
#X obj 35 244 dac~;
#X obj 575 90 wavebank_n~ 2;
#X obj 35 94 r waves2;
#X obj 35 175 wavevoice~ 2;
#X obj 575 30 declare -path .;
#X msg 575 70 loadbank snd/bankWavs;
#X obj 575 50 loadbang;
#X floatatom 707 285 5 0 0 0 - - -;
#X obj 707 265 route waves;
#X obj 707 304 s waves2;
#X msg 184 153 transpose \$1;
#X msg 271 153 direction \$1;
#X msg 356 153 vol \$1;
#X msg 405 153 stop;
#X msg 442 153 fade \$1;
#X floatatom 184 134 5 -48 48 0 - - -;
#X floatatom 118 134 5 0 0 0 - - -;
#X obj 109 114 bng 15 250 50 0 empty empty empty 17 7 0 10 -262144
-1 -1;
#X obj 271 134 tgl 15 0 empty empty empty 17 7 0 10 -262144 -1 -1 0
1;
#X floatatom 356 135 5 0 109 0 - - -;
#X text 45 37 wavevoice~ is a feature-rich abstraction for playing
back samples stored in a wavebank~ or wavebank_n~ object.;
#X obj 725 50 loadbang;
#X floatatom 857 285 5 0 0 0 - - -;
#X obj 857 265 route waves;
#X obj 857 304 s waves3;
#X msg 725 70 loadbank snd/Drumtraks;
#X obj 725 90 wavebank_n~ 3;
#X msg 497 153 bank \$1;
#N canvas 1 82 450 300 (subpatch) 0;
#X obj 83 21 inlet;
#X obj 83 42 sel 0 1;
#X msg 83 63 2;
#X msg 112 63 3;
#X obj 83 84 outlet;
#X connect 0 0 1 0;
#X connect 1 0 2 0;
#X connect 1 1 3 0;
#X connect 2 0 4 0;
#X connect 3 0 4 0;
#X restore 497 133 pd;
#X obj 497 114 hradio 15 1 0 2 empty empty wavebank_n~ 0 -8 1 10 -262144
-1 -1 0;
#X floatatom 523 134 5 0 0 0 - - -;
#N canvas 1 82 450 300 setWaveRange 0;
#X obj 206 47 inlet;
#X obj 76 58 r waves2;
#X obj 136 58 r waves3;
#X obj 61 84 f;
#X obj 121 84 f;
#X obj 206 68 sel 0 1;
#X obj 91 122 t b f;
#X obj 91 143 outlet;
#X obj 140 143 outlet;
#X connect 0 0 5 0;
#X connect 1 0 3 1;
#X connect 2 0 4 1;
#X connect 3 0 6 0;
#X connect 4 0 6 0;
#X connect 5 0 3 0;
#X connect 5 1 4 0;
#X connect 6 0 7 0;
#X connect 6 1 8 0;
#X restore 94 95 pd setWaveRange;
#X obj 93 134 60;
#X obj 442 135 nbx 4 14 5 1e+37 0 0 empty empty time 0 -8 1 10 -262144
-1 -1 5 256;
#X obj 35 266 cnv 15 400 50 empty empty polyphony 10 8 0 12 -204786
-13381 0;
#X text 44 281 the right outlet of a wavevoice~ (playing) can be used
to build a polyphonic player;
#X obj 111 195 tgl 15 0 empty empty playing_(when_in_poly_mode-see_below)
17 7 1 10 -262144 -1 -1 0 1;
#N canvas 1 82 450 300 randomWaves 0;
#X obj 179 137 r waves2;
#X obj 146 158 random;
#X obj 146 179 + 1;
#X obj 61 156 random 25;
#X obj 61 177 + 48;
#X msg 146 200 wave \$1;
#X msg 61 198 pitch \$1;
#X obj 146 220 outlet;
#X obj 68 72 inlet;
#X obj 68 114 t b b;
#X obj 33 242 outlet;
#X msg 33 223 100;
#X text 60 224 vol;
#X obj 68 94 metro 500;
#X connect 0 0 1 1;
#X connect 1 0 2 0;
#X connect 2 0 5 0;
#X connect 3 0 4 0;
#X connect 4 0 6 0;
#X connect 5 0 7 0;
#X connect 6 0 7 0;
#X connect 8 0 13 0;
#X connect 9 0 11 0;
#X connect 9 1 1 0;
#X connect 9 1 3 0;
#X connect 11 0 10 0;
#X connect 13 0 9 0;
#X restore 48 346 pd randomWaves;
#X msg 336 327 poly 1;
#X obj 48 365 polyWaves 2;
#X obj 48 322 tgl 21 0 empty empty empty 17 7 0 10 -262144 -1 -1 0
1;
#X obj 37 413 dac~;
#X msg 385 327 pvoice pitch vol wave;
#X msg 184 177 poly 1;
#X connect 1 0 11 0;
#X connect 2 0 1 0;
#X connect 3 0 2 0;
#X connect 4 0 11 0;
#X connect 5 0 11 0;
#X connect 6 0 11 0;
#X connect 7 0 8 0;
#X connect 7 1 8 1;
#X connect 9 2 16 0;
#X connect 10 0 3 0;
#X connect 11 0 7 0;
#X connect 11 1 44 0;
#X connect 13 0 9 0;
#X connect 14 0 13 0;
#X connect 15 0 17 0;
#X connect 16 0 15 0;
#X connect 18 0 11 0;
#X connect 19 0 11 0;
#X connect 20 0 11 0;
#X connect 21 0 11 0;
#X connect 22 0 11 0;
#X connect 23 0 18 0;
#X connect 24 0 40 1;
#X connect 25 0 40 0;
#X connect 26 0 19 0;
#X connect 27 0 20 0;
#X connect 29 0 33 0;
#X connect 30 0 32 0;
#X connect 31 0 30 0;
#X connect 33 0 34 0;
#X connect 34 2 31 0;
#X connect 35 0 11 0;
#X connect 36 0 35 0;
#X connect 36 0 38 0;
#X connect 37 0 36 0;
#X connect 37 0 39 0;
#X connect 39 0 2 0;
#X connect 39 1 3 0;
#X connect 40 0 11 0;
#X connect 41 0 22 0;
#X connect 45 0 47 0;
#X connect 45 1 47 1;
#X connect 47 0 49 0;
#X connect 47 0 49 1;
#X connect 48 0 45 0;
#X connect 51 0 11 0;
