#N canvas 0 0 815 556 10;
#X declare -lib vasp;
#X obj 329 204 samplebox_1~;
#X obj 124 208 samplay~;
#X obj 31 52 cnv 15 270 64 empty empty empty 20 12 0 14 -204786 -66577
0;
#X obj 31 -48 cnv 15 400 94 empty empty samplay~ 10 14 0 18 -232576
-45076 0;
#X text 220 194 V;
#X text 151 175 automation and patching;
#X text 33 84 CONTROL: message tagged control parameters;
#X obj 307 52 cnv 15 260 80 empty empty empty 20 12 0 14 -203904 -66577
0;
#X text 309 52 Message tagged control parameters;
#X text 308 83 sending the object a message followed by a;
#X text 308 96 value in the second inlet:;
#X obj 207 121 cnv 15 360 40 empty empty empty 20 12 0 14 -203904 -66577
0;
#X text 210 122 For a list of control parameters for this;
#X text 210 136 unit \, click on this subpatch -->;
#N canvas 40 106 687 336 control 0;
#X obj 211 295 outlet;
#X floatatom 35 140 5 1 4 2 bank* - -;
#X floatatom 88 140 5 1 128 0 - - -;
#X floatatom 152 140 5 0 100 0 - - -;
#X floatatom 216 117 5 -100 0 0 - - -;
#X msg 188 67 patch \$1;
#X msg 249 67 randpat;
#X text 63 50 load a patches file;
#X text 177 20 recall a;
#X text 185 30 patch;
#X text 254 40 random;
#X text 257 50 patch;
#X floatatom 188 47 5 1 9 0 - - -;
#X text 336 70 polarity;
#X obj 274 138 tgl 15 0 empty empty loop -2 -6 0 10 -262144 -1 -1 0
1;
#X obj 216 138 / 100;
#X obj 28 28 loadbang;
#X msg 35 160 bank \$1;
#X text 53 111 sample;
#X text 83 123 sample;
#X msg 88 160 sample \$1;
#X msg 152 160 offset \$1;
#X text 146 123 offset**;
#X text 216 101 decay;
#X msg 216 160 decay \$1;
#X msg 274 160 loop \$1;
#X msg 30 67 file datasets/samplay.pat;
#X obj 324 138 tgl 15 0 empty empty reverse -2 -6 0 10 -262144 -1 -1
0 1;
#X msg 324 160 dir \$1;
#X obj 374 138 tgl 15 0 empty empty alternate*** -2 -6 0 10 -262144
-1 -1 0 1;
#X msg 374 160 alt \$1;
#X text 325 244 *samples are read from one of four samplebox objects
;
#X text 324 256 **sample offset is a proportion of the sample length.
The offset parameter is in 1/128ths of the sample.;
#X text 323 278 ***the sample may be looped forwards \, reversed \,
or alternating direction.;
#X connect 1 0 17 0;
#X connect 2 0 20 0;
#X connect 3 0 21 0;
#X connect 4 0 15 0;
#X connect 5 0 0 0;
#X connect 6 0 0 0;
#X connect 12 0 5 0;
#X connect 14 0 25 0;
#X connect 15 0 24 0;
#X connect 16 0 26 0;
#X connect 17 0 0 0;
#X connect 20 0 0 0;
#X connect 21 0 0 0;
#X connect 24 0 0 0;
#X connect 25 0 0 0;
#X connect 26 0 0 0;
#X connect 27 0 28 0;
#X connect 28 0 0 0;
#X connect 29 0 30 0;
#X connect 30 0 0 0;
#X restore 430 139 pd control parameters;
#X text 122 192 V;
#X text 122 184 |;
#X text 122 174 |;
#X text 79 163 pitch and trigger;
#X text 220 186 |;
#X text 309 69 Any of the parameters may be altered by;
#X text 220 359 V;
#X text 220 351 |;
#X text 220 341 |;
#X text 144 368 automation and patching out;
#X floatatom 91 180 5 0 0 0 - - -;
#X obj 57 360 mix~;
#X obj 57 400 dac~;
#X obj 132 181 bng 15 250 50 0 empty empty empty 17 7 0 10 -262144
-1 -1;
#X text 38 -26 ...is a basic sample player. Samples are loaded using
the samplebox objects \, and they may be triggered with either a bang
or a pitch into the left inlet.;
#X text 38 13 pitch is relative to middle C = MIDI note 60 \, so a
pitch of 60 plays back the sample at the original pitch.;
#X msg 469 101 sample 4;
#X msg 329 184 loadbank snd/samples_1;
#X obj 329 164 loadbang;
#X text 33 52 samplay~ has two inlets:;
#X text 33 70 CONTROL: bang = trig \, float = pitch + trig;
#X obj 235 342 print samplay;
#X text 584 127 (C) 2009 Edward Kelly;
#X text 577 142 GNU/GPL license enclosed;
#X text 602 112 METASTUDIO 0.3;
#X connect 1 0 26 0;
#X connect 1 1 36 0;
#X connect 14 0 1 1;
#X connect 25 0 1 0;
#X connect 26 0 27 0;
#X connect 26 0 27 1;
#X connect 28 0 1 0;
#X connect 31 0 1 1;
#X connect 32 0 0 0;
#X connect 33 0 32 0;
