#N canvas 29 215 617 592 10;
#X obj 31 109 cnv 15 260 80 empty empty empty 20 12 0 14 -204786 -66577
0;
#X obj 31 14 cnv 15 400 90 empty empty delay_fbf~ 10 18 0 18 -232576
-45076 0;
#X text 217 278 V;
#X text 121 268 audio;
#X text 121 278 inlet;
#X text 217 270 |;
#X text 146 249 automation and patching;
#X text 217 260 |;
#X text 298 259 modulation;
#X text 321 278 V;
#X text 321 270 |;
#X obj 107 562 dac~;
#X text 320 473 V;
#X text 320 465 |;
#X text 320 455 |;
#X text 244 482 automation and patching out;
#X obj 543 23 dl_fbf~;
#X text 448 23 nogui version =;
#X text 33 127 SIGNAL: audio in;
#X text 33 141 CONTROL: message tagged control parameters;
#X text 33 109 Metastudio FX have two or more inlets:;
#X text 33 169 SIGNAL: delay time modulator;
#X text 42 155 and in this fx;
#X msg 446 74 \; pd dsp 1;
#X obj 297 115 cnv 15 260 80 empty empty empty 20 12 0 14 -203904 -66577
0;
#X text 299 115 Message tagged control parameters;
#X text 299 133 Any of the fx parameters may be altered by;
#X text 298 146 sending the object a message followed by a;
#X msg 465 171 delay 250;
#X text 298 159 value in the second inlet:;
#X obj 197 195 cnv 15 360 40 empty empty empty 20 12 0 14 -203904 -66577
0;
#X text 200 196 For a list of control parameters for this;
#X text 200 210 unit \, click on this subpatch -->;
#N canvas 6 75 830 374 control 0;
#X obj 211 295 outlet;
#X msg 375 159 porta \$1;
#X floatatom 26 140 5 0 2000 0 - - -;
#X msg 168 160 delfine \$1;
#X floatatom 168 119 5 0 0 0 - - -;
#X obj 168 139 / 100;
#X msg 240 159 delpitch \$1;
#X msg 318 159 fb \$1;
#X floatatom 240 139 5 0 100 0 - - -;
#X floatatom 318 139 5 -100 100 0 - - -;
#X floatatom 375 139 5 0 2000 0 - - -;
#X text 27 112 delay;
#X text 24 122 coarse;
#X text 170 90 delay;
#X text 172 102 fine;
#X text 230 121 delay pitch;
#X text 306 122 feedback;
#X text 363 122 portamento;
#X msg 441 159 hpf \$1;
#X floatatom 441 138 5 20 2000 0 - - -;
#X floatatom 496 138 5 200 20000 0 - - -;
#X msg 496 159 lpf \$1;
#X floatatom 553 137 5 0.5 2 0 - - -;
#X floatatom 601 137 5 0.5 2 0 - - -;
#X msg 553 158 hq \$1;
#X msg 601 158 lq \$1;
#X text 432 111 highpass;
#X text 428 121 frequency;
#X text 488 121 frequency;
#X text 492 111 lowpass;
#X text 541 110 highpass;
#X text 561 121 Q;
#X text 612 121 Q;
#X text 594 110 lowpass;
#X msg 719 158 gang \$1;
#X obj 719 139 tgl 15 0 empty empty empty 17 7 0 10 -262144 -1 -1 0
1;
#X msg 774 158 on \$1;
#X obj 774 139 tgl 15 0 empty empty empty 17 7 0 10 -262144 -1 -1 0
1;
#X text 767 122 on/off;
#X msg 651 158 mix \$1;
#X floatatom 651 137 5 0 200 0 - - -;
#X text 646 110 dry/wet;
#X text 656 121 mix*;
#X text 408 246 *the mix is adjustable between 0 and 200 At 100 \,
there is only the wet (effected) sound. Above 100 \, the dry signal
is gradually reintroduced 180 degrees out of phase.;
#X text 712 122 gang**;
#X text 409 287 **gang prevents the filters being crossed over. If
the lowpass frequency is pushed lower than the highpass frequency \,
the highpass frequency is adjusted and vice-versa.;
#X msg 222 66 patch \$1;
#X msg 283 66 randpat;
#X text 51 50 load a patches file;
#X text 211 19 recall a;
#X text 219 29 patch;
#X text 288 39 random;
#X text 291 49 patch;
#X floatatom 222 46 5 1 9 0 - - -;
#X msg 38 67 file datasets/delay_fbf.pat;
#X msg 26 160 delcoarse \$1;
#X msg 109 160 delay \$1;
#X floatatom 109 140 5 0 2000 0 - - -;
#X text 107 123 delay;
#X text 483 46 coarse;
#X connect 1 0 0 0;
#X connect 2 0 55 0;
#X connect 3 0 0 0;
#X connect 4 0 5 0;
#X connect 5 0 3 0;
#X connect 6 0 0 0;
#X connect 7 0 0 0;
#X connect 8 0 6 0;
#X connect 9 0 7 0;
#X connect 10 0 1 0;
#X connect 18 0 0 0;
#X connect 19 0 18 0;
#X connect 20 0 21 0;
#X connect 21 0 0 0;
#X connect 22 0 24 0;
#X connect 23 0 25 0;
#X connect 24 0 0 0;
#X connect 25 0 0 0;
#X connect 34 0 0 0;
#X connect 35 0 34 0;
#X connect 36 0 0 0;
#X connect 37 0 36 0;
#X connect 39 0 0 0;
#X connect 40 0 39 0;
#X connect 46 0 0 0;
#X connect 47 0 0 0;
#X connect 53 0 46 0;
#X connect 54 0 0 0;
#X connect 55 0 0 0;
#X connect 56 0 0 0;
#X connect 57 0 56 0;
#X restore 399 213 pd control parameters;
#X obj 341 349 cnv 15 260 94 empty empty empty 20 12 0 14 -204786 -66577
0;
#X text 343 377 CONTROL: message tagged control parameters;
#X text 343 349 Metastudio FX have two outlets;
#X text 343 363 SIGNAL: audio out;
#X text 344 390 All manipulations of the GUI \, patch file;
#X text 345 402 locations and patch changes are sent out;
#X text 346 414 of the second outlet so that they may be;
#X text 406 272 (C) 2009 Edward Kelly;
#X text 399 287 GNU/GPL license enclosed;
#X text 424 257 METASTUDIO 0.3;
#X text 345 426 recorded.;
#X obj 23 294 cnv 15 70 76 empty empty empty 20 12 0 14 -261234 -66577
0;
#X text 26 292 portamento;
#X text 34 304 affects;
#X text 25 316 delay time;
#X text 47 328 and;
#X text 37 340 filter;
#X text 23 351 frequencies;
#X obj 23 384 cnv 15 70 56 empty empty empty 20 12 0 14 -204800 -66577
0;
#X text 34 384 careful;
#X text 31 396 with the;
#X text 33 408 feedback;
#X text 26 420 when Q > 1;
#X obj 343 456 print delay_fbf;
#X obj 40 204 tester~;
#X msg 465 193 delfine 12;
#N canvas 0 0 490 405 flanger 0;
#X obj 320 253 nbx 5 17 0 100 0 0 empty \$0-depth depth 0 -8 0 16 -262144
-1 -1 50 256;
#X obj 221 171 *~;
#X obj 221 100 trisaw~;
#X obj 246 253 route delay;
#X obj 246 273 t b f;
#X obj 291 310 *;
#X obj 16 128 tester~;
#X obj 16 357 outlet~;
#X msg 118 171 mix 60;
#X obj 118 150 loadbang;
#X obj 16 20 cnv 15 340 50 empty empty empty 10 18 0 18 -232576 -45076
0;
#X text 22 25 By modulating the delay at signal rate \, a flanger is
created. The delay message from the right outlet is multiplied by a
percentage to set the depth.;
#X msg 221 79 freq 0.7;
#X obj 320 274 / 100;
#X obj 16 192 delay_fbf~;
#X connect 0 0 13 0;
#X connect 1 0 14 2;
#X connect 2 0 1 0;
#X connect 3 0 4 0;
#X connect 4 0 5 0;
#X connect 4 1 5 1;
#X connect 5 0 1 1;
#X connect 6 0 14 0;
#X connect 8 0 14 1;
#X connect 9 0 8 0;
#X connect 9 0 12 0;
#X connect 12 0 2 0;
#X connect 13 0 5 0;
#X connect 14 0 7 0;
#X connect 14 1 3 0;
#X restore 162 466 pd flanger;
#X obj 117 294 delay_fbf~;
#X obj 30 475 == 0;
#X obj 30 457 tgl 15 0 \$0-select \$0-select-set this_patch 17 7 0
10 -262144 -1 -1 0 1;
#N canvas 0 0 450 300 init 0;
#X msg 34 116 0;
#X obj 41 95 loadbang;
#X msg 220 154 50;
#X obj 225 180 s \$0-depth;
#X obj 21 137 s \$0-select-set;
#X obj 114 38 r \$0-select;
#X obj 122 61 sel 0 1;
#X msg 119 89 label this_patch;
#X msg 235 89 label flanger;
#X connect 0 0 4 0;
#X connect 1 0 0 0;
#X connect 1 0 2 0;
#X connect 2 0 3 0;
#X connect 5 0 6 0;
#X connect 6 0 7 0;
#X connect 6 1 8 0;
#X connect 7 0 4 0;
#X connect 8 0 4 0;
#X restore 496 515 pd init;
#X obj 117 492 *~ 1;
#X obj 162 491 *~ 0;
#X obj 117 517 mix~;
#X text 38 50 ...is a variable feedback delay with two filters within
the feedback loop. The delay can be adjusted either using the delay
time \, or as a pitch that the delay will resonate at as a comb filter.
;
#X connect 28 0 61 1;
#X connect 33 0 61 1;
#X connect 58 0 61 0;
#X connect 59 0 61 1;
#X connect 60 0 66 0;
#X connect 61 0 65 0;
#X connect 61 1 57 0;
#X connect 62 0 65 1;
#X connect 63 0 62 0;
#X connect 63 0 66 1;
#X connect 65 0 67 0;
#X connect 66 0 67 0;
#X connect 67 0 11 0;
#X connect 67 0 11 1;
