#N canvas 0 0 650 400 10;
#X obj 21 80 cnv 15 260 50 empty empty empty 20 12 0 14 -204786 -66577
0;
#X obj 21 24 cnv 15 400 50 empty empty meq~ 10 10 0 18 -232576 -45076
0;
#X obj 27 147 tester~;
#X text 354 218 V;
#X text 46 206 audio;
#X text 46 216 inlet;
#X text 354 210 |;
#X text 224 188 automation and patching;
#X text 354 200 |;
#X text 355 352 V;
#X text 355 344 |;
#X text 203 360 automation and patching out;
#X text 428 24 nogui version =;
#X text 21 112 CONTROL: message tagged control parameters;
#X msg 432 44 \; pd dsp 1;
#X obj 287 80 cnv 15 260 60 empty empty empty 20 12 0 14 -203904 -66577
0;
#X obj 371 236 cnv 15 265 94 empty empty empty 20 12 0 14 -204786 -66577
0;
#X text 373 265 CONTROL: message tagged control parameters;
#X text 374 276 All manipulations of the GUI \, patch file;
#X text 375 286 locations and patch changes are sent out;
#X text 376 296 of the second outlet so that they may be;
#X text 414 200 (C) 2009 Edward Kelly;
#X text 407 215 GNU/GPL license enclosed;
#X text 432 185 METASTUDIO 0.3;
#X text 375 306 recorded.;
#X obj 207 136 cnv 15 340 40 empty empty empty 20 12 0 14 -203904 -66577
0;
#X text 210 137 For a list of control parameters for this;
#X text 210 151 unit \, click on this subpatch -->;
#N canvas 3 50 723 330 control 0;
#X obj 211 295 outlet;
#X msg 188 67 patch \$1;
#X msg 249 67 randpat;
#X text 63 50 load a patches file;
#X text 177 20 recall a;
#X text 185 30 patch;
#X text 254 40 random;
#X text 257 50 patch;
#X floatatom 188 47 5 1 9 0 - - -;
#X msg 69 201 lf \$1;
#X msg 156 201 hf \$1;
#X msg 302 199 pf1 \$1;
#X msg 23 201 lg \$1;
#X msg 110 201 mg \$1;
#X msg 198 200 hg \$1;
#X msg 393 199 pg1 \$1;
#X msg 347 199 pq1 \$1;
#X msg 240 199 shelf \$1;
#X msg 438 199 peq1 \$1;
#X msg 31 67 file datasets/eq.pat;
#X obj 240 181 tgl 15 0 empty empty on 0 -8 0 10 -262144 -1 -1 0 1
;
#X floatatom 69 142 5 1 200 2 xover - -;
#X obj 69 161 * 100;
#X floatatom 156 142 5 1 200 2 xover - -;
#X obj 156 161 * 100;
#X floatatom 23 182 5 -45 45 2 gain - -;
#X floatatom 110 182 5 -45 45 2 gain - -;
#X floatatom 198 181 5 -45 45 2 gain - -;
#X text 61 113 low/mid;
#X text 21 155 low;
#X text 109 155 mid;
#X text 149 113 mid/high;
#X text 196 154 high;
#X text 25 100 ---------------SHELVING----------------;
#X floatatom 302 141 5 1 200 2 frequency - -;
#X obj 302 160 * 100;
#X floatatom 393 161 5 -45 45 2 gain - -;
#X floatatom 347 160 5 0.2 5 2 Q - -;
#X obj 438 181 tgl 15 0 empty empty on 0 -8 0 10 -262144 -1 -1 0 1
;
#X text 39 182 dB;
#X floatatom 69 182 6 0 20000 0 - - -;
#X text 93 181 Hz;
#X floatatom 156 182 6 0 20000 0 - - -;
#X text 180 181 Hz;
#X text 127 182 dB;
#X text 215 182 dB;
#X text 411 161 dB;
#X floatatom 302 180 6 0 20000 0 - - -;
#X text 326 179 Hz;
#X text 298 110 -----------peak1-------------;
#X floatatom 492 141 5 1 200 2 frequency - -;
#X obj 492 160 * 100;
#X floatatom 583 161 5 -45 45 2 gain - -;
#X floatatom 537 160 5 0.2 5 2 Q - -;
#X obj 628 181 tgl 15 0 empty empty on 0 -8 0 10 -262144 -1 -1 0 1
;
#X text 601 161 dB;
#X floatatom 492 180 6 0 20000 0 - - -;
#X text 516 179 Hz;
#X text 488 110 -----------peak2-------------;
#X msg 492 199 pf2 \$1;
#X msg 537 199 pq2 \$1;
#X msg 583 199 pg2 \$1;
#X msg 628 199 peq2 \$1;
#X connect 1 0 0 0;
#X connect 2 0 0 0;
#X connect 8 0 1 0;
#X connect 9 0 0 0;
#X connect 10 0 0 0;
#X connect 11 0 0 0;
#X connect 12 0 0 0;
#X connect 13 0 0 0;
#X connect 14 0 0 0;
#X connect 15 0 0 0;
#X connect 16 0 0 0;
#X connect 17 0 0 0;
#X connect 18 0 0 0;
#X connect 19 0 0 0;
#X connect 20 0 17 0;
#X connect 21 0 22 0;
#X connect 22 0 40 0;
#X connect 23 0 24 0;
#X connect 24 0 42 0;
#X connect 25 0 12 0;
#X connect 26 0 13 0;
#X connect 27 0 14 0;
#X connect 34 0 35 0;
#X connect 35 0 47 0;
#X connect 36 0 15 0;
#X connect 37 0 16 0;
#X connect 38 0 18 0;
#X connect 40 0 9 0;
#X connect 42 0 10 0;
#X connect 47 0 11 0;
#X connect 50 0 51 0;
#X connect 51 0 56 0;
#X connect 52 0 61 0;
#X connect 53 0 60 0;
#X connect 54 0 62 0;
#X connect 56 0 59 0;
#X connect 59 0 0 0;
#X connect 60 0 0 0;
#X connect 61 0 0 0;
#X connect 62 0 0 0;
#X restore 409 154 pd control parameters;
#X text 289 80 Message tagged control parameters;
#X text 289 93 Any of the fx parameters may be altered by;
#X text 288 106 sending the object a message followed by a;
#X text 288 119 value in the second inlet:;
#X obj 26 351 dac~;
#X text 21 80 Metastudio filters have two or more inlets:;
#X text 355 334 |;
#X text 373 236 Metastudio filters have two or more outlets;
#X text 373 248 SIGNAL: audio out;
#X obj 390 349 print meq;
#X obj 26 232 meq~;
#X text 21 96 SIGNAL: audio in;
#X text 31 45 ...is a monophonic eq with low and high shelving plus
two peak filters.;
#X msg 447 124 shelf 1 \, lg 10;
#X connect 2 0 39 0;
#X connect 28 0 39 1;
#X connect 39 0 33 0;
#X connect 39 0 33 1;
#X connect 39 1 38 0;
#X connect 42 0 39 1;
