#N canvas 0 0 630 717 10;
#X obj 111 202 slidestring~;
#X obj 113 97 noise~;
#X obj 169 141 vline~;
#X msg 171 95 0 \, 1 5 \, 0 120 5;
#X msg 260 151 slide;
#X obj 245 129 loadbang;
#X obj 109 158 *~;
#X obj 102 504 dac~;
#X text 172 59 |;
#X text 172 67 v;
#X text 167 45 GO!;
#X connect 0 0 7 0;
#X connect 0 0 7 1;
#X connect 1 0 6 0;
#X connect 2 0 6 1;
#X connect 3 0 2 0;
#X connect 4 0 0 1;
#X connect 5 0 4 0;
#X connect 6 0 0 0;
