#N canvas 10 71 706 607 10;
#X obj 397 110 cnv 15 290 64 empty empty empty 20 12 0 14 -204786 -66577
0;
#X obj 31 9 cnv 15 400 96 empty empty sinosc~ 10 14 0 18 -232576 -45076
0;
#X text 203 289 V;
#X msg 446 73 \; pd dsp 1;
#X obj 31 110 cnv 15 360 60 empty empty empty 20 12 0 14 -203904 -66577
0;
#X text 35 109 Message tagged control parameters;
#X obj 31 175 cnv 15 360 40 empty empty empty 20 12 0 14 -175479 -66577
0;
#X text 44 177 For a list of control parameters for this;
#X text 44 191 unit \, click on this subpatch -->;
#N canvas 370 308 854 394 control 0;
#X obj 211 295 outlet;
#X floatatom 29 140 5 0 10000 2 frequency - -;
#X floatatom 88 140 5 -24 136 2 pitch - -;
#X msg 29 160 freq \$1;
#X msg 88 160 pitch \$1;
#X floatatom 141 45 3 0 360 2 phase - -;
#X obj 203 139 tgl 15 0 empty empty sync* -3 -8 0 10 -262144 -1 -1
0 1;
#X floatatom 260 138 0 0 0 2 glide - -;
#X obj 300 101 tgl 15 0 empty empty bipolar** 0 -6 0 10 -262144 -1
-1 0 1;
#X obj 349 140 hradio 15 1 0 4 \$0-fo_lbl2 empty empty 0 -8 0 10 -262144
-1 -1 0;
#N canvas 25 140 450 300 label 0;
#X msg 70 162 set basic;
#X msg 133 162 set +fm1;
#X msg 186 162 set +fm1+fm2;
#X obj 82 62 r \$0-fo_lbl2;
#X obj 80 200 s \$0-fo_lbl2-set;
#X msg 265 162 set +fm2;
#X obj 82 99 sel 0 1 2 3;
#X connect 0 0 4 0;
#X connect 1 0 4 0;
#X connect 2 0 4 0;
#X connect 3 0 6 0;
#X connect 5 0 4 0;
#X connect 6 0 0 0;
#X connect 6 1 1 0;
#X connect 6 2 2 0;
#X connect 6 3 5 0;
#X restore 540 13 pd label;
#X symbolatom 350 108 10 0 0 3 freq_outlet*** #0-fo_lbl2-set -;
#X msg 141 158 phase \$1;
#X msg 203 158 sync \$1;
#X msg 260 159 glide \$1;
#X msg 300 159 bip \$1;
#X msg 349 159 outmod \$1;
#X obj 422 141 bng 15 250 50 0 empty empty pbang* 17 7 0 10 -262144
-258113 -1;
#X msg 422 159 pbang;
#X obj 153 69 deg2rad;
#X obj 202 69 / 360;
#X text 468 224 *the phase is in degrees. If sync is turned on \, the
phase is reset to this value when a pitch or freq message is received.
Alternatively \, to set the phase manually \, send the module a pbang
message.;
#X floatatom 153 90 5 0 0 3 radians - -;
#X floatatom 202 90 5 0 0 3 0-1 - -;
#X text 175 27 in degrees*;
#X text 468 271 **the output waveform may be bipolar (-1 to 1) or unipolar
(0 to 1). This can be used for a variety of low frequency oscillator
configurations and modulation functions. See the am_example patch to
see how this may be used.;
#X text 468 317 ***the middle outlet of the module is the frequency
output. This is a signal-rate output of the frequency with glide. This
can be set to include the fm1 and fm2 signals also.;
#X msg 31 232 all 440 69 90 1 20 0 3;
#X connect 1 0 3 0;
#X connect 2 0 4 0;
#X connect 3 0 0 0;
#X connect 4 0 0 0;
#X connect 5 0 12 0;
#X connect 5 0 19 0;
#X connect 5 0 20 0;
#X connect 6 0 13 0;
#X connect 7 0 14 0;
#X connect 8 0 15 0;
#X connect 9 0 16 0;
#X connect 12 0 0 0;
#X connect 13 0 0 0;
#X connect 14 0 0 0;
#X connect 15 0 0 0;
#X connect 16 0 0 0;
#X connect 17 0 18 0;
#X connect 18 0 0 0;
#X connect 19 0 22 0;
#X connect 20 0 23 0;
#X connect 27 0 0 0;
#X restore 254 194 pd control parameters;
#X text 91 288 V;
#X text 91 280 |;
#X text 91 270 |;
#X text 203 281 |;
#X obj 43 552 dac~;
#X obj 397 179 cnv 15 290 154 empty empty empty 20 12 0 14 -204786
-66577 0;
#X text 399 223 CONTROL: message tagged control parameters;
#X text 399 193 SIGNAL: audio out;
#X text 400 236 All manipulations of the GUI \, patch file;
#X text 401 248 locations and patch changes are sent out;
#X text 402 260 of the second outlet so that they may be;
#X text 401 272 recorded.;
#X text 311 289 V;
#X text 311 281 |;
#X text 311 271 |;
#X text 311 378 V;
#X text 311 370 |;
#X text 311 360 |;
#X text 253 387 automation and patching out;
#X text 42 257 control parameters;
#X text 152 269 frequency modulation 1;
#X text 254 259 frequency modulation 2;
#X msg 97 150 freq 440;
#X msg 154 150 pitch 53;
#X text 38 31 ...is a sine wave oscillator. A dressed up sine wave
oscillator \, it's useful as an LFO or as part of a modular synthesizer.
;
#X text 38 66 Together with other modules \, it allows one to create
modular FM \, AM \, wavetable \, phase-distortion and subtractive synthesis
systems.;
#X text 399 110 Metastudio waveforms have three or more inlets;
#X text 34 121 Any of the parameters may be altered by sending the
object a message followed by a control parameter.;
#X text 399 128 CONTROL:message tagged control parameters;
#X text 399 156 SIGNAL: frequency modulation 2;
#X text 399 142 SIGNAL: frequency modulation 1;
#X text 399 179 Metastudio modular oscillators have 3 outlets;
#X text 399 207 SIGNAL: frequency out;
#X obj 327 368 print sinosc;
#X text 201 367 V;
#X text 201 359 |;
#X text 178 376 frequency;
#X obj 57 508 mix~;
#X msg 122 464 vol 94;
#X obj 122 442 loadbang;
#X obj 57 464 *~;
#X obj 78 440 tgl 15 0 empty empty empty 17 7 0 10 -262144 -1 -1 0
1;
#N canvas 413 156 593 551 fm-example 0;
#N canvas 559 274 450 300 init 0;
#X obj 44 203 s \$0-cmr_1;
#X obj 86 177 s \$0-cmr_2;
#X obj 142 205 s \$0-index_1;
#X obj 184 179 s \$0-index_2;
#X msg 44 135 2;
#X msg 86 135 4.5;
#X msg 142 134 1;
#X msg 184 134 2;
#X obj 112 92 loadbang;
#X obj 271 195 s \$0-glide;
#X obj 308 163 s \$0-pitch;
#X msg 271 134 10;
#X msg 308 133 64.765;
#X connect 4 0 0 0;
#X connect 5 0 1 0;
#X connect 6 0 2 0;
#X connect 7 0 3 0;
#X connect 8 0 4 0;
#X connect 8 0 5 0;
#X connect 8 0 6 0;
#X connect 8 0 7 0;
#X connect 8 0 11 0;
#X connect 8 0 12 0;
#X connect 11 0 9 0;
#X connect 12 0 10 0;
#X restore 473 34 pd init;
#X obj 42 3 cnv 15 400 132 empty empty 3_oscillator_frequency_modulation
10 14 0 18 -232000 -45076 0;
#X obj 42 140 cnv 15 250 210 empty empty modulator 144 14 0 18 -159719
-13330 0;
#X obj 296 140 cnv 15 250 210 empty empty modulator 144 14 0 18 -159719
-13330 0;
#X obj 42 355 cnv 15 250 170 empty empty carrier 144 144 0 18 -260544
-86277 0;
#X obj 56 324 *~;
#X obj 315 324 *~;
#X obj 342 324 *;
#X obj 369 324 t b f;
#X obj 82 324 *;
#X obj 109 324 t b f;
#X obj 82 301 nbx 5 18 0.001 10 1 0 empty \$0-index_1 index 0 -8 0
16 -262144 -1 -1 2.20673 256;
#X obj 342 301 nbx 5 18 0.001 10 1 0 empty \$0-index_2 index 0 -8 0
16 -262144 -1 -1 3.92419 256;
#X obj 450 384 route freq;
#X obj 315 184 *;
#X obj 315 161 nbx 5 18 0.125 8 1 0 empty \$0-cmr_2 CM-ratio 0 -8 0
16 -262144 -1 -1 1.99751 256;
#X msg 315 205 freq \$1;
#X obj 56 185 *;
#X obj 56 162 nbx 5 18 0.125 8 1 0 empty \$0-cmr_1 CM-ratio 0 -8 0
16 -262144 -1 -1 1.50028 256;
#X msg 56 206 freq \$1;
#X obj 56 494 outlet~;
#X msg 56 399 pitch \$1;
#X msg 193 397 glide \$1;
#X obj 193 375 nbx 5 18 0 10000 0 0 empty \$0-glide glide_ms 0 -8 0
16 -262144 -1 -1 10 256;
#X obj 56 377 nbx 5 18 0 127 0 0 empty \$0-pitch pitch 0 -8 0 16 -262144
-1 -1 64.765 256;
#X obj 293 136 cnv 4 4 214 empty empty empty 20 12 0 14 -33289 -66577
0;
#X obj 37 351 cnv 4 512 4 empty empty empty 20 12 0 14 -33289 -66577
0;
#X obj 545 136 cnv 4 4 214 empty empty empty 20 12 0 14 -33289 -66577
0;
#X obj 37 136 cnv 4 4 214 empty empty empty 20 12 0 14 -33289 -66577
0;
#X obj 37 136 cnv 4 512 4 empty empty empty 20 12 0 14 -33289 -66577
0;
#X obj 38 526 cnv 4 258 4 empty empty empty 20 12 0 14 -33289 -66577
0;
#X obj 37 356 cnv 4 4 174 empty empty empty 20 12 0 14 -33289 -66577
0;
#X obj 293 356 cnv 4 4 174 empty empty empty 20 12 0 14 -33289 -66577
0;
#X obj 342 184 t b f;
#X obj 83 185 t b f;
#X obj 37 3 cnv 4 4 132 empty empty empty 20 12 0 14 -33289 -66577
0;
#X obj 37 -2 cnv 4 408 4 empty empty empty 20 12 0 14 -33289 -66577
0;
#X obj 441 3 cnv 4 4 132 empty empty empty 20 12 0 14 -33289 -66577
0;
#X obj 56 420 sinosc~;
#X obj 56 226 sinosc~;
#X obj 315 225 sinosc~;
#X text 45 27 This demonstrates a classic 3-oscillator FM patch \,
with two modulators and one carrier. The colour of the sound is altered
by changing the carrier-modulator ratio and modulation index parameters
of the two modulators.;
#X text 45 74 Glide can be adjusted globally to keep the timbre stable
\, or per-object for an interesting attack.;
#X text 45 97 Here \, the frequency parameter of the carrier is routed
to the carrier-to-modulator-frequency-ratio (CM_ratio) and modulation-index
calculations.;
#X connect 5 0 38 1;
#X connect 6 0 38 2;
#X connect 7 0 6 1;
#X connect 8 0 7 0;
#X connect 8 1 7 1;
#X connect 9 0 5 1;
#X connect 10 0 9 0;
#X connect 10 1 9 1;
#X connect 11 0 9 0;
#X connect 12 0 7 0;
#X connect 13 0 8 0;
#X connect 13 0 10 0;
#X connect 13 0 33 0;
#X connect 13 0 34 0;
#X connect 14 0 16 0;
#X connect 15 0 14 0;
#X connect 16 0 40 0;
#X connect 17 0 19 0;
#X connect 18 0 17 0;
#X connect 19 0 39 0;
#X connect 21 0 38 0;
#X connect 22 0 38 0;
#X connect 22 0 39 0;
#X connect 22 0 40 0;
#X connect 23 0 22 0;
#X connect 24 0 21 0;
#X connect 33 0 14 0;
#X connect 33 1 14 1;
#X connect 34 0 17 0;
#X connect 34 1 17 1;
#X connect 38 0 20 0;
#X connect 38 2 13 0;
#X connect 39 0 5 0;
#X connect 40 0 6 0;
#X restore 274 414 pd fm-example;
#X obj 97 305 sinosc~;
#X obj 99 392 hradio 15 1 0 3 empty \$0-example fm-example 0 -8 0 10
-262144 -1 -1 2;
#X obj 83 416 == 0;
#N canvas 15 94 450 300 label 0;
#X obj 125 208 s \$0-example;
#X obj 77 74 inlet;
#X obj 77 101 select 0 1 2;
#X msg 241 185 0;
#X obj 276 147 loadbang;
#X msg 77 148 label this-patch;
#X msg 97 126 label am-example;
#X msg 201 124 label fm-example;
#X connect 1 0 2 0;
#X connect 2 0 5 0;
#X connect 2 1 6 0;
#X connect 2 2 7 0;
#X connect 3 0 0 0;
#X connect 4 0 3 0;
#X connect 5 0 0 0;
#X connect 6 0 0 0;
#X connect 7 0 0 0;
#X restore 118 415 pd label;
#X obj 275 464 *~;
#X obj 302 465 tgl 15 0 empty empty empty 17 7 0 10 -262144 -1 -1 1
1;
#X obj 302 443 == 2;
#X obj 185 464 *~;
#X obj 212 465 tgl 15 0 empty empty empty 17 7 0 10 -262144 -1 -1 0
1;
#X obj 212 443 == 1;
#N canvas 30 163 610 481 am-example 0;
#X obj 42 15 cnv 15 400 120 empty empty amplitude_modulation 10 14
0 18 -232000 -45076 0;
#X obj 42 140 cnv 15 250 210 empty empty carrier 144 14 0 18 -260544
-86277 0;
#X obj 296 140 cnv 15 280 210 empty empty modulator 144 14 0 18 -159719
-13330 0;
#X obj 410 184 route freq;
#X obj 345 184 *;
#X obj 345 161 nbx 5 18 0.125 8 1 0 empty \$0-cmr_2 CM-ratio 0 -8 0
16 -262144 -1 -1 4.5 128;
#X msg 345 205 freq \$1;
#X obj 293 136 cnv 4 4 214 empty empty empty 20 12 0 14 -33289 -66577
0;
#X obj 37 351 cnv 4 542 4 empty empty empty 20 12 0 14 -33289 -66577
0;
#X obj 575 136 cnv 4 4 214 empty empty empty 20 12 0 14 -33289 -66577
0;
#X obj 37 136 cnv 4 4 214 empty empty empty 20 12 0 14 -33289 -66577
0;
#X obj 37 136 cnv 4 542 4 empty empty empty 20 12 0 14 -33289 -66577
0;
#X obj 372 184 t b f;
#X obj 57 401 *~;
#X obj 303 305 sig~ 1;
#X obj 303 327 -~;
#X obj 303 285 tgl 15 0 empty empty empty 17 7 0 10 -262144 -1 -1 0
1;
#X msg 56 205 pitch \$1;
#X msg 193 203 glide \$1;
#X obj 193 181 nbx 5 18 0 10000 0 0 empty \$0-glide glide 0 -8 0 16
-262144 -1 -1 10 256;
#X obj 56 183 nbx 5 18 0 127 0 0 empty \$0-pitch pitch 0 -8 0 16 -262144
-1 -1 64.765 256;
#X text 45 38 This demonstrates a classic amplitude or ring modultion
patch.;
#X obj 305 161 tgl 30 0 empty \$0-am AM 4 -8 0 18 -86292 -257985 -45076
0 1;
#X obj 303 263 == 0;
#X msg 399 206 bip \$1;
#X obj 57 428 outlet~;
#X text 83 106 as with all metastudio modular units \, the parameters
can be adjusted per-object for more variations.;
#X text 45 61 the sum and difference frequencies are controlled by
altering the carrier to modulator ratio. The purple checkbox sets the
type of modulation - amplitude modulation and ring modulation.;
#N canvas 10 71 450 300 (subpatch) 0;
#X obj 66 51 inlet;
#X msg 66 99 label AM \, label_pos 4 -8;
#X obj 66 73 sel 0 1;
#X obj 66 167 s \$0-am;
#X msg 100 122 label ring \, label_pos -6 -12;
#X connect 0 0 2 0;
#X connect 1 0 3 0;
#X connect 2 0 1 0;
#X connect 2 1 4 0;
#X connect 4 0 3 0;
#X restore 313 213 pd;
#X obj 37 15 cnv 4 4 120 empty empty empty 20 12 0 14 -33289 -66577
0;
#X obj 37 10 cnv 4 408 4 empty empty empty 20 12 0 14 -33289 -66577
0;
#X obj 441 15 cnv 4 4 120 empty empty empty 20 12 0 14 -33289 -66577
0;
#X text 90 401 comment;
#X obj 56 226 sinosc~;
#X obj 345 225 sinosc~;
#X obj 73 361 mix~;
#X connect 3 0 12 0;
#X connect 4 0 6 0;
#X connect 5 0 4 0;
#X connect 6 0 34 0;
#X connect 12 0 4 0;
#X connect 12 1 4 1;
#X connect 13 0 25 0;
#X connect 14 0 15 0;
#X connect 15 0 35 0;
#X connect 16 0 14 0;
#X connect 17 0 33 0;
#X connect 18 0 33 0;
#X connect 18 0 34 0;
#X connect 19 0 18 0;
#X connect 20 0 17 0;
#X connect 22 0 28 0;
#X connect 22 0 24 0;
#X connect 22 0 23 0;
#X connect 23 0 16 0;
#X connect 24 0 34 0;
#X connect 33 0 13 0;
#X connect 33 2 3 0;
#X connect 34 0 15 1;
#X connect 35 0 13 1;
#X restore 184 414 pd am-example;
#X text 401 288 The parameters are also sent out as a list;
#X text 402 300 so that they can be configured as part of a;
#X text 402 312 modular synthesis system.;
#X obj 444 352 unpack f f f f f f f;
#X floatatom 444 540 0 0 0 3 frequency - -;
#X floatatom 463 506 0 0 0 3 pitch - -;
#X floatatom 483 485 3 0 360 1 phase - -;
#X obj 502 465 tgl 15 0 empty empty sync 17 7 0 10 -262144 -1 -1 0
1;
#X floatatom 522 445 0 0 0 1 glide - -;
#X obj 541 426 tgl 15 0 empty empty bipolar 17 7 0 10 -262144 -1 -1
1 1;
#X obj 561 373 hradio 15 1 0 4 \$0-fo_lbl empty empty 0 -8 0 10 -262144
-1 -1 1;
#X obj 338 335 route all;
#N canvas 15 94 450 300 label 0;
#X obj 82 62 r \$0-fo_lbl;
#X msg 70 162 set basic;
#X obj 80 200 s \$0-fo_lbl-set;
#X msg 133 162 set +fm1;
#X msg 186 162 set +fm1+fm2;
#X obj 82 99 sel 0 1 2 3;
#X msg 266 162 set +fm2;
#X connect 0 0 5 0;
#X connect 1 0 2 0;
#X connect 3 0 2 0;
#X connect 4 0 2 0;
#X connect 5 0 1 0;
#X connect 5 1 3 0;
#X connect 5 2 4 0;
#X connect 5 3 6 0;
#X connect 6 0 2 0;
#X restore 610 540 pd label;
#X symbolatom 561 389 10 0 0 3 freq_outlet #0-fo_lbl-set -;
#X text 106 363 output;
#X text 184 388 outlet~;
#X obj 161 499 miniscope~;
#X obj 360 455 loadbang;
#X obj 301 150 loadbang;
#X obj 24 440 hip~ 18;
#X msg 218 150 freq 344.538;
#X text 534 73 (C) 2009 Edward Kelly;
#X text 527 88 GNU/GPL license enclosed;
#X text 552 58 METASTUDIO 0.3;
#X msg 360 476 size 2 \, on 1;
#X connect 9 0 53 0;
#X connect 32 0 53 0;
#X connect 33 0 53 0;
#X connect 47 0 14 0;
#X connect 47 0 14 1;
#X connect 48 0 47 1;
#X connect 49 0 48 0;
#X connect 50 0 47 0;
#X connect 50 0 80 0;
#X connect 51 0 50 1;
#X connect 52 0 57 0;
#X connect 53 0 83 0;
#X connect 53 2 43 0;
#X connect 53 2 75 0;
#X connect 54 0 55 0;
#X connect 54 0 56 0;
#X connect 54 0 59 0;
#X connect 54 0 62 0;
#X connect 55 0 51 0;
#X connect 57 0 47 0;
#X connect 57 0 80 0;
#X connect 58 0 57 1;
#X connect 59 0 58 0;
#X connect 60 0 47 0;
#X connect 60 0 80 0;
#X connect 61 0 60 1;
#X connect 62 0 61 0;
#X connect 63 0 60 0;
#X connect 67 0 68 0;
#X connect 67 1 69 0;
#X connect 67 2 70 0;
#X connect 67 3 71 0;
#X connect 67 4 72 0;
#X connect 67 5 73 0;
#X connect 67 6 74 0;
#X connect 75 0 67 0;
#X connect 81 0 88 0;
#X connect 82 0 84 0;
#X connect 83 0 50 0;
#X connect 84 0 53 0;
#X connect 88 0 80 1;
