#N canvas 0 0 682 614 10;
#X declare -lib ekext;
#X obj 78 149 playchunks~;
#X obj 78 128 metro;
#X obj 105 66 tcalc;
#X floatatom 105 109 5 0 0 0 - - -;
#X msg 105 46 tempo 160;
#X obj 105 25 loadbang;
#X obj 78 110 tgl 15 0 empty empty empty 17 7 0 10 -262144 -1 -1 0
1;
#X obj 78 334 stmix~;
#X obj 78 454 dac~;
#X obj 78 375 record_s~;
#X obj 370 43 dsp_meter;
#X text 492 288 (C) 2009 Edward Kelly;
#X text 485 303 GNU/GPL license enclosed;
#X text 510 273 METASTUDIO 0.3;
#N canvas 641 89 450 300 control 1;
#X obj 46 39 route pcomp preset thresh offset var reverse trans spd
new attack decay pan panrand monopoly repeat loadall saveanal;
#X floatatom 74 129 5 0 10 2 threshold - -;
#X msg 74 149 thresh \$1;
#X obj 45 230 outlet;
#X connect 1 0 2 0;
#X connect 2 0 3 0;
#X restore 488 93 pd control parameters;
#X obj 379 344 route chunks;
#X floatatom 379 364 5 0 0 0 - - -;
#X connect 0 0 7 0;
#X connect 0 1 7 1;
#X connect 0 2 15 0;
#X connect 1 0 0 0;
#X connect 2 0 3 0;
#X connect 3 0 1 1;
#X connect 4 0 2 0;
#X connect 5 0 4 0;
#X connect 6 0 1 0;
#X connect 7 0 9 0;
#X connect 7 1 9 1;
#X connect 9 0 8 0;
#X connect 9 1 8 1;
#X connect 14 0 0 1;
#X connect 15 0 16 0;
