#N canvas 110 73 975 686 10;
#X obj 15 7 cnv 15 400 260 empty empty rechunk~ 10 16 0 26 -232576
-45076 0;
#X obj 421 7 cnv 15 500 290 empty empty empty 10 16 0 26 -204786 -45076
0;
#X obj 401 580 import zexy;
#X msg 229 385 get \$1 \$2;
#X obj 238 364 pack 1 f;
#X obj 250 343 t b f;
#X floatatom 250 326 5 0 99999 1 chunk_number - -, f 5;
#X floatatom 238 302 5 1 5 1 brightness_category - -, f 5;
#X obj 129 617 route low lowmid mid highmid high;
#X floatatom 129 639 5 0 0 0 - - -, f 5;
#X floatatom 168 639 5 0 0 0 - - -, f 5;
#X floatatom 207 639 5 0 0 0 - - -, f 5;
#X floatatom 246 639 5 0 0 0 - - -, f 5;
#X floatatom 285 639 5 0 0 0 - - -, f 5;
#X obj 53 617 route data;
#X obj 62 385 dac~;
#X obj 54 343 stmix~;
#X obj 23 406 mu~;
#X obj 402 499 dsp_meter;
#X obj 53 298 sf_player_m~;
#X text 54 277 load and play a (mono) soundfile;
#N canvas 66 81 534 285 bonk_params 0;
#X floatatom 261 118 5 0 0 0 - - -, f 5;
#X floatatom 296 119 5 0 0 0 - - -, f 5;
#X obj 296 143 t b f;
#X obj 261 169 pack f f;
#X msg 261 190 thresh \$1 \$2;
#X obj 261 211 prepend set;
#X msg 261 233 thresh 7 8;
#X floatatom 350 170 5 0 0 0 - - -, f 5;
#X msg 350 190 minvel \$1;
#X obj 350 211 prepend set;
#X msg 350 232 minvel 8;
#X floatatom 434 82 5 1 8 0 - - -, f 5;
#X floatatom 469 83 5 0 100 0 - - -, f 5;
#X obj 469 103 / 100;
#X floatatom 469 124 5 0 0 0 - - -, f 5;
#X obj 469 144 t b f;
#X obj 434 170 pack f f;
#X msg 434 190 mask \$1 \$2;
#X obj 434 210 prepend set;
#X msg 434 230 mask 3 0.7;
#X obj 52 207 prepend bonk;
#X obj 51 229 outlet;
#X obj 47 170 loadbang;
#X msg 47 190 mask 3 0.7 \, minvel 8 \, thresh 9 17;
#X obj 40 19 cnv 15 200 120 empty empty empty 20 12 0 14 -232576 -66577
0;
#X text 50 27 Analysis parameters for;
#X text 50 42 bonk~ may be set here;
#X connect 0 0 3 0;
#X connect 1 0 2 0;
#X connect 2 0 3 0;
#X connect 2 1 3 1;
#X connect 3 0 4 0;
#X connect 4 0 5 0;
#X connect 4 0 20 0;
#X connect 5 0 6 0;
#X connect 7 0 8 0;
#X connect 8 0 9 0;
#X connect 8 0 20 0;
#X connect 9 0 10 0;
#X connect 11 0 16 0;
#X connect 12 0 13 0;
#X connect 13 0 14 0;
#X connect 14 0 15 0;
#X connect 15 0 16 0;
#X connect 15 1 16 1;
#X connect 16 0 17 0;
#X connect 17 0 18 0;
#X connect 17 0 20 0;
#X connect 18 0 19 0;
#X connect 20 0 21 0;
#X connect 22 0 23 0;
#X connect 23 0 20 0;
#X restore 295 385 pd bonk_params;
#X text 31 36 rechunk~ takes incoming audio and cuts it up into pieces.
The pieces are copied into separate audio tables created on-the-fly
\, and organized according to the brightness \, pitch or amplitude
of their attack.;
#X text 31 176 A database is created inside the object while it is
running \, so that information about the duration \, pitch \, amplitude
and brightness (hasc) of each chunk may be accessed at any time. A
running total of how many tables there are in each category is sent
to the outlet while it is running.;
#X text 337 618 <--- running total of chunks in each category;
#X obj 429 16 cnv 15 100 114 empty empty analysis 14 5 0 14 -249778
-83269 0;
#X obj 449 67 nbx 4 14 0.01 1 1 0 \$0-onset_bias \$0-onset_bias-set
onset_bias -6 -6 0 12 -262144 -1 -1 0.01 256 0;
#X obj 449 94 nbx 4 14 0 100 0 0 \$0-p_attack \$0-p_attack-set pitch_attack
-12 -6 0 12 -262144 -1 -1 0 256 0;
#X obj 449 41 nbx 4 14 0.01 100 1 0 \$0-hasc_threshold \$0-hasc_threshold-set
hasc_threshold -19 -6 0 12 -262144 -1 -1 0.01 256 0;
#X obj 432 113 tgl 12 0 \$0-output_pitch \$0-output_pitch-set pitch
17 6 0 10 -249778 -83269 -83269 0 1;
#X obj 484 113 tgl 12 0 \$0-output_hasc \$0-output_hasc-set hasc 17
6 0 10 -249778 -83269 -83269 0 1;
#X text 536 14 hasc is the highest spectral component above a hasc_threshold.
It is a way of measuring the brightness of the audio continuously \,
and when an attack is detected by the bonk~ object it triggers a weighted
sum of hasc values. These are weighted so that the first value after
the attack is tempered with successively smaller porportions of further
values. Thus \, if onset_bias is set at 0.7 \, the second hasc value
after the attack will have a significance of 0.7 \, the third value
of 0.7*0.7 \, the fourth of 0.7*0.7*0.7 and so on.;
#X obj 421 302 cnv 15 500 125 empty empty empty 10 16 0 26 -203904
-45076 0;
#X obj 426 307 cnv 15 77 114 empty empty record 12 5 0 14 -261805 -83269
0;
#X obj 479 323 tgl 20 0 \$0-analyse \$0-analyse-set ON 4 10 0 10 -86277
-261234 -261234 0 1;
#X obj 429 320 tgl 14 0 \$0-loop \$0-loop-set loop 17 7 0 10 -203648
-45076 -45076 0 1;
#X obj 429 381 nbx 6 12 0 90000 0 0 \$0-minrec_ms \$0-minrec_ms-set
record_start 0 -5 0 10 -203648 -45076 -45076 0 256 0;
#X obj 429 405 nbx 6 12 0 90000 0 0 \$0-maxrec_ms \$0-maxrec_ms-set
record_end 0 -5 0 10 -203648 -45076 -45076 0 256 0;
#X obj 429 334 bng 14 250 50 0 \$0-start \$0-start-bng start 17 7 0
10 -203648 -45076 -45076;
#X text 474 404 ms;
#X text 474 380 ms;
#X obj 429 359 nbx 4 12 0 1000 0 0 \$0-min_length \$0-min_length-set
min_length 0 -5 0 10 -203648 -45076 -45076 0 256 0;
#X text 474 358 ms;
#X text 510 305 Analysis and chunking starts when the object is turned
on \, and may continue indefinitely if loop is switched on. a minimum
length of event to report may also be set \, to reduce extremely short
chunks being made.;
#X text 430 136 The pitch_attack actually affects the values of the
pitch and amplitude information stored for each chunk. This adds an
attack phase to the weighted onset \, so that if for example the attack
is set to 3 \, the first 3 values will have successively more influence
on the reported analysis after which the normal reduction in influence
of the onset_bias kicks in (as above). This means that less certain
analysed values from fiddle~ in the attack portion of the sound are
less significant \, and the pitch analysis is given time to "settle
down" before a definitive pitch is reported.;
#X text 429 252 Continuous (un-weighted \, regardless of attacks) raw
pitch and hasc analysis may be output by the object by turning on the
switches for pitch and hasc repsectively.;
#X obj 724 617 route pitch hasc;
#X floatatom 724 645 5 0 0 0 - - -, f 5;
#X floatatom 770 645 5 0 0 0 - - -, f 5;
#X obj 53 659 print rechunk;
#X obj 541 432 cnv 15 380 125 empty empty empty 10 16 0 26 -232576
-45076 0;
#X obj 554 458 t ble high-0003;
#X text 554 458 table;
#X text 548 433 tables are named e.g.;
#X obj 554 488 t ble mid-0021;
#X obj 554 522 t ble low-0136;
#X obj 674 488 t ble lowmid-0123;
#X obj 674 458 t ble highmid-0011;
#X text 554 522 table;
#X text 674 458 table;
#X text 674 488 table;
#X text 580 537 |;
#X text 580 539 v;
#X text 580 547 |;
#X text 580 549 v;
#X text 580 557 |;
#X text 580 559 v;
#X text 580 567 |;
#X text 580 569 v;
#X text 580 577 |;
#X text 580 579 v;
#X text 580 587 |;
#X text 580 589 v;
#X text 554 488 table;
#X text 716 577 Turn on pitch and;
#X text 718 588 hasc switches for;
#X text 718 599 continuous data output;
#X text 580 597 |;
#X text 580 599 v;
#X text 580 607 |;
#X text 580 609 v;
#X text 31 96 Because the audio tables become separate objects (arrays)
of samples \, they may be used in any sample playback object \, and
since the process is continuous \, there is no limit to how many chunks
may be made other than the amount of memory in the computer. Also \,
the complete history of the audio segments is accessible at any time.
;
#X obj 53 406 rechunkV~ 3.969e+06 inbuf;
#X connect 3 0 82 1;
#X connect 4 0 3 0;
#X connect 5 0 4 0;
#X connect 5 1 4 1;
#X connect 6 0 5 0;
#X connect 7 0 4 0;
#X connect 8 0 9 0;
#X connect 8 1 10 0;
#X connect 8 2 11 0;
#X connect 8 3 12 0;
#X connect 8 4 13 0;
#X connect 14 0 49 0;
#X connect 16 0 15 0;
#X connect 16 0 17 0;
#X connect 16 0 82 0;
#X connect 16 1 15 1;
#X connect 19 0 16 0;
#X connect 19 0 16 1;
#X connect 21 0 82 1;
#X connect 46 0 47 0;
#X connect 46 1 48 0;
#X connect 82 0 8 0;
#X connect 82 0 14 0;
#X connect 82 0 46 0;
