#N canvas 10 71 706 656 10;
#X obj 397 110 cnv 15 290 64 empty empty empty 20 12 0 14 -204786 -66577
0;
#X obj 31 9 cnv 15 400 96 empty empty trisaw~ 10 14 0 18 -232576 -45076
0;
#X text 194 290 V;
#X msg 446 73 \; pd dsp 1;
#X obj 31 110 cnv 15 360 60 empty empty empty 20 12 0 14 -203904 -66577
0;
#X text 35 109 Message tagged control parameters;
#X obj 31 175 cnv 15 360 40 empty empty empty 20 12 0 14 -175479 -66577
0;
#X text 44 177 For a list of control parameters for this;
#X text 44 191 unit \, click on this subpatch -->;
#N canvas 86 237 854 394 control 0;
#X obj 211 295 outlet;
#X floatatom 29 140 5 0 10000 2 frequency - -;
#X floatatom 88 140 5 -24 136 2 pitch - -;
#X msg 29 160 freq \$1;
#X msg 88 160 pitch \$1;
#X floatatom 141 45 3 0 360 2 phase - -;
#X obj 203 139 tgl 15 0 empty empty sync* -3 -8 0 10 -262144 -1 -1
0 1;
#X floatatom 260 138 0 0 0 2 glide - -;
#X obj 300 101 tgl 15 0 empty empty bipolar** 0 -6 0 10 -262144 -1
-1 0 1;
#X obj 349 140 hradio 15 1 0 4 \$0-fo_lbl2 empty empty 0 -8 0 10 -262144
-1 -1 0;
#N canvas 25 140 450 300 label 0;
#X msg 70 162 set basic;
#X msg 133 162 set +fm1;
#X msg 186 162 set +fm1+fm2;
#X obj 82 62 r \$0-fo_lbl2;
#X obj 80 200 s \$0-fo_lbl2-set;
#X msg 265 162 set +fm2;
#X obj 82 99 sel 0 1 2 3;
#X connect 0 0 4 0;
#X connect 1 0 4 0;
#X connect 2 0 4 0;
#X connect 3 0 6 0;
#X connect 5 0 4 0;
#X connect 6 0 0 0;
#X connect 6 1 1 0;
#X connect 6 2 2 0;
#X connect 6 3 5 0;
#X restore 540 13 pd label;
#X symbolatom 350 108 10 0 0 3 freq_outlet*** #0-fo_lbl2-set -;
#X msg 141 158 phase \$1;
#X msg 203 158 sync \$1;
#X msg 260 159 glide \$1;
#X msg 300 159 bip \$1;
#X msg 349 159 outmod \$1;
#X obj 422 141 bng 15 250 50 0 empty empty pbang* 17 7 0 10 -262144
-258113 -1;
#X msg 422 159 pbang;
#X obj 153 69 deg2rad;
#X obj 202 69 / 360;
#X text 468 224 *the phase is in degrees. If sync is turned on \, the
phase is reset to this value when a pitch or freq message is received.
Alternatively \, to set the phase manually \, send the module a pbang
message.;
#X floatatom 153 90 5 0 0 3 radians - -;
#X floatatom 202 90 5 0 0 3 0-1 - -;
#X text 175 27 in degrees*;
#X text 468 271 **the output waveform may be bipolar (-1 to 1) or unipolar
(0 to 1). This can be used for a variety of low frequency oscillator
configurations and modulation functions. See the am_example patch to
see how this may be used.;
#X text 468 317 ***the middle outlet of the module is the frequency
output. This is a signal-rate output of the frequency with glide. This
can be set to include the fm1 and fm2 signals also.;
#X msg 31 264 pitch 48;
#X obj 31 241 loadbang;
#X connect 1 0 3 0;
#X connect 2 0 4 0;
#X connect 3 0 0 0;
#X connect 4 0 0 0;
#X connect 5 0 12 0;
#X connect 5 0 19 0;
#X connect 5 0 20 0;
#X connect 6 0 13 0;
#X connect 7 0 14 0;
#X connect 8 0 15 0;
#X connect 9 0 16 0;
#X connect 12 0 0 0;
#X connect 13 0 0 0;
#X connect 14 0 0 0;
#X connect 15 0 0 0;
#X connect 16 0 0 0;
#X connect 17 0 18 0;
#X connect 18 0 0 0;
#X connect 19 0 22 0;
#X connect 20 0 23 0;
#X connect 27 0 0 0;
#X connect 28 0 27 0;
#X restore 254 194 pd control parameters;
#X text 72 288 V;
#X text 72 280 |;
#X text 72 270 |;
#X text 194 282 |;
#X obj 64 546 dac~;
#X obj 397 179 cnv 15 290 154 empty empty empty 20 12 0 14 -204786
-66577 0;
#X text 399 223 CONTROL: message tagged control parameters;
#X text 399 193 SIGNAL: audio out;
#X text 400 236 All manipulations of the GUI \, patch file;
#X text 401 248 locations and patch changes are sent out;
#X text 402 260 of the second outlet so that they may be;
#X text 401 272 recorded.;
#X text 312 289 V;
#X text 312 281 |;
#X text 312 271 |;
#X text 310 390 V;
#X text 310 382 |;
#X text 310 372 |;
#X text 252 399 automation and patching out;
#X text 42 257 control parameters;
#X msg 97 150 freq 440;
#X msg 154 150 pitch 53;
#X text 43 63 Together with other modules \, it allows one to create
modular FM \, AM \, wavetable \, phase-distortion and subtractive synthesis
systems.;
#X text 399 110 Metastudio waveforms have three or more inlets;
#X text 34 121 Any of the parameters may be altered by sending the
object a message followed by a control parameter.;
#X text 399 128 CONTROL:message tagged control parameters;
#X text 399 179 Metastudio modular oscillators have 3 outlets;
#X text 399 207 SIGNAL: frequency out;
#X text 193 380 V;
#X text 193 372 |;
#X text 170 389 frequency;
#X obj 78 505 mix~;
#X msg 143 484 vol 94;
#X obj 143 462 loadbang;
#X obj 78 484 *~;
#X obj 99 460 tgl 15 0 empty empty empty 17 7 0 10 -262144 -1 -1 0
1;
#X obj 99 412 hradio 15 1 0 3 empty \$0-example phase_distortion 0
-8 0 10 -262144 -1 -1 1;
#X obj 104 436 == 0;
#N canvas 15 94 450 300 label 0;
#X obj 125 208 s \$0-example;
#X obj 77 74 inlet;
#X obj 77 101 select 0 1 2;
#X msg 241 185 0;
#X obj 276 147 loadbang;
#X msg 77 148 label this-patch;
#X msg 97 126 label phase_distortion;
#X msg 246 124 label fm-pd;
#X connect 1 0 2 0;
#X connect 2 0 5 0;
#X connect 2 1 6 0;
#X connect 2 2 7 0;
#X connect 3 0 0 0;
#X connect 4 0 3 0;
#X connect 5 0 0 0;
#X connect 6 0 0 0;
#X connect 7 0 0 0;
#X restore 139 435 pd label;
#X obj 317 485 *~;
#X obj 344 486 tgl 15 0 empty empty empty 17 7 0 10 -262144 -1 -1 0
1;
#X obj 344 464 == 2;
#X obj 195 485 *~;
#X obj 222 486 tgl 15 0 empty empty empty 17 7 0 10 -262144 -1 -1 1
1;
#X obj 222 464 == 1;
#X text 401 288 The parameters are also sent out as a list;
#X text 402 300 so that they can be configured as part of a;
#X text 402 312 modular synthesis system.;
#X floatatom 434 590 0 0 0 3 frequency - -;
#X floatatom 451 556 0 0 0 3 pitch - -;
#X floatatom 468 535 3 0 360 1 phase - -;
#X obj 485 515 tgl 15 0 empty empty sync 17 7 0 10 -262144 -1 -1 0
1;
#X floatatom 502 495 0 0 0 1 glide - -;
#X obj 519 476 tgl 15 0 empty empty bipolar 17 7 0 10 -262144 -1 -1
1 1;
#X obj 328 355 route all;
#N canvas 15 94 450 300 label 0;
#X obj 82 62 r \$0-fo_lbl;
#X msg 70 162 set basic;
#X obj 80 200 s \$0-fo_lbl-set;
#X msg 133 162 set +fm1;
#X msg 186 162 set +fm1+fm2;
#X obj 82 99 sel 0 1 2 3;
#X msg 266 162 set +fm2;
#X connect 0 0 5 0;
#X connect 1 0 2 0;
#X connect 3 0 2 0;
#X connect 4 0 2 0;
#X connect 5 0 1 0;
#X connect 5 1 3 0;
#X connect 5 2 4 0;
#X connect 5 3 6 0;
#X connect 6 0 2 0;
#X restore 599 590 pd label;
#X text 106 383 output;
#X text 176 401 outlet~;
#X obj 98 546 miniscope~;
#X obj 297 506 loadbang;
#X msg 297 526 on 1 \, size 2;
#X text 38 29 ...is a waveform oscillator that morphs between saw-down
\, triangle and saw-up waveforms.;
#X msg 212 150 bias 19;
#X text 143 270 frequency modulation;
#N canvas 543 232 616 375 phase_distortion 0;
#X obj 311 84 eadsr_mod~;
#X obj 311 29 bng 30 130 50 0 empty empty trigger -9 -8 0 14 -232576
-45076 -45076;
#X msg 132 202 pitch \$1;
#X obj 132 180 nbx 5 18 12 136 0 0 empty empty pitch 0 -8 0 14 -262144
-1 -1 48 256;
#X obj 76 294 outlet~;
#X obj 418 44 loadbang;
#X msg 418 64 all 908.418 687.714 0 461.318 0 0.964286 0 0 0 0;
#N canvas 0 0 450 300 init 0;
#X obj 41 69 loadbang;
#X msg 169 131 48;
#X obj 41 207 outlet;
#X obj 169 155 outlet;
#X msg 41 180 all 130.813 48 0 0 40 1 0 30 200 1;
#X obj 275 117 s \$0-suslen;
#X msg 275 96 800;
#X connect 0 0 4 0;
#X connect 0 0 1 0;
#X connect 0 0 6 0;
#X connect 1 0 3 0;
#X connect 4 0 2 0;
#X connect 6 0 5 0;
#X restore 76 163 pd init;
#X obj 33 20 cnv 15 250 136 empty empty phase_distortion 10 14 0 18
-232576 -45076 0;
#X floatatom 350 43 5 0 0 2 sustain_length #0-suslen -;
#X text 38 44 Here \, the trisaw~ oscillator is morphed;
#X text 38 55 between a sawtooth envelope and a;
#X text 37 66 triangle waveform using an exponential;
#X text 38 76 adsr envelope.;
#X text 37 89 The depth of the modulation between the;
#X text 38 100 waveform shapes is set by the modulate~;
#X text 38 111 slider on the trisaw~ object. The;
#X text 38 122 eadsr_mod~ level is set to the;
#X text 38 133 amplitude (0-1) range.;
#X obj 76 223 trisaw~;
#N canvas 0 0 450 300 trig 0;
#X obj 69 56 inlet;
#X obj 186 74 inlet;
#X obj 116 109 delay 800;
#X msg 132 149 0;
#X msg 132 129 1;
#X obj 157 184 outlet;
#X connect 0 0 2 0;
#X connect 0 0 4 0;
#X connect 1 0 2 1;
#X connect 2 0 3 0;
#X connect 3 0 5 0;
#X connect 4 0 5 0;
#X restore 311 63 pd trig;
#X obj 540 223 pass all;
#X obj 529 245 prepend set;
#X obj 218 184 loadbang;
#X msg 218 204 all 130.813 48 0 0 40 1 0.0431066 30 0.0322052 1;
#X obj 298 299 pass all;
#X obj 287 321 prepend set;
#X connect 0 0 19 2;
#X connect 0 1 21 0;
#X connect 1 0 20 0;
#X connect 2 0 19 0;
#X connect 3 0 2 0;
#X connect 5 0 6 0;
#X connect 6 0 0 1;
#X connect 7 0 19 0;
#X connect 7 1 3 0;
#X connect 9 0 20 1;
#X connect 19 0 4 0;
#X connect 19 2 25 0;
#X connect 20 0 0 0;
#X connect 21 0 22 0;
#X connect 22 0 6 0;
#X connect 23 0 24 0;
#X connect 24 0 19 0;
#X connect 25 0 26 0;
#X connect 26 0 24 0;
#X restore 195 435 pd phase_distortion;
#N canvas 403 89 601 619 fm_pd 0;
#X obj 35 -8 cnv 15 250 180 empty empty fm-modulator 114 14 0 18 -159719
-13330 0;
#X obj 289 -8 cnv 15 250 180 empty empty pd-modulator 114 14 0 18 -159719
-13330 0;
#X obj 49 361 *~;
#X obj 308 360 *~;
#X obj 330 432 route freq;
#X obj 308 36 *;
#X obj 308 13 nbx 5 18 0.125 8 1 0 empty \$0-cmr_2 CM-ratio 0 -8 0
16 -262144 -1 -1 2.002 256;
#X msg 308 57 freq \$1;
#X obj 49 37 *;
#X obj 49 14 nbx 5 18 0.125 8 1 0 empty \$0-cmr_1 CM-ratio 0 -8 0 16
-262144 -1 -1 1.5 256;
#X msg 49 58 freq \$1;
#X obj 30 173 cnv 4 512 4 empty empty empty 20 12 0 14 -33289 -66577
0;
#X obj 335 36 t b f;
#X obj 76 37 t b f;
#X obj 49 78 sinosc~;
#X obj 308 77 sinosc~;
#X obj 64 253 eadsr_mod~;
#X obj 323 253 eadsr_mod~;
#X obj 48 511 outlet~;
#X msg 159 418 pitch \$1;
#X obj 159 396 nbx 5 18 12 136 0 0 empty empty pitch 0 -8 0 14 -262144
-1 -1 48 256;
#X obj 48 441 trisaw~;
#N canvas 0 0 450 300 init 0;
#X obj 41 69 loadbang;
#X msg 169 131 48;
#X obj 41 133 outlet;
#X obj 169 155 outlet;
#X msg 41 106 all 130.813 48 0 0 40 1 0 30 200 1;
#X obj 95 232 s \$0-cmr_1;
#X obj 191 231 s \$0-cmr_2;
#X msg 83 209 1.5;
#X msg 191 206 2.002;
#X connect 0 0 4 0;
#X connect 0 0 1 0;
#X connect 0 0 7 0;
#X connect 0 0 8 0;
#X connect 1 0 3 0;
#X connect 4 0 2 0;
#X connect 7 0 5 0;
#X connect 8 0 6 0;
#X restore 105 376 pd init;
#N canvas 30 119 450 300 init 0;
#X obj 71 145 loadbang;
#X obj 72 213 outlet;
#X obj 247 210 outlet;
#X msg 27 179 all 500 200 28 800 0 1 0 0 1;
#X msg 248 176 all 20 700 30 500 0 1 0 0 1;
#X connect 0 0 3 0;
#X connect 0 0 4 0;
#X connect 3 0 1 0;
#X connect 4 0 2 0;
#X restore 430 236 pd init;
#X msg 330 453 fcar \$1;
#X obj 355 198 bng 30 130 50 0 empty empty trigger -9 -8 0 14 -232576
-45076 -45076;
#X floatatom 394 212 5 0 0 2 sustain_length #0-suslen -;
#N canvas 0 0 450 300 trig 0;
#X obj 69 56 inlet;
#X obj 186 74 inlet;
#X obj 116 109 delay 800;
#X msg 132 149 0;
#X msg 132 129 1;
#X obj 157 184 outlet;
#X connect 0 0 2 0;
#X connect 0 0 4 0;
#X connect 1 0 2 1;
#X connect 2 0 3 0;
#X connect 3 0 5 0;
#X connect 4 0 5 0;
#X restore 355 232 pd trig;
#X obj 35 -42 cnv 15 502 30 empty empty signal_FM_and_phase_distortion
40 18 0 24 -159719 -13381 0;
#X obj 30 -12 cnv 4 512 4 empty empty empty 20 12 0 14 -33289 -66577
0;
#X obj 538 -42 cnv 4 4 214 empty empty empty 20 12 0 14 -33289 -66577
0;
#X obj 30 -42 cnv 4 4 214 empty empty empty 20 12 0 14 -33289 -66577
0;
#X obj 30 -42 cnv 4 512 4 empty empty empty 20 12 0 14 -33289 -66577
0;
#X obj 286 -12 cnv 4 4 184 empty empty empty 20 12 0 14 -33289 -66577
0;
#X connect 2 0 21 1;
#X connect 3 0 21 2;
#X connect 4 0 12 0;
#X connect 4 0 13 0;
#X connect 4 0 24 0;
#X connect 5 0 7 0;
#X connect 6 0 5 0;
#X connect 7 0 15 0;
#X connect 8 0 10 0;
#X connect 9 0 8 0;
#X connect 10 0 14 0;
#X connect 12 0 5 0;
#X connect 12 1 5 1;
#X connect 13 0 8 0;
#X connect 13 1 8 1;
#X connect 14 0 2 0;
#X connect 15 0 3 0;
#X connect 16 0 2 1;
#X connect 17 0 3 1;
#X connect 19 0 21 0;
#X connect 20 0 19 0;
#X connect 21 0 18 0;
#X connect 21 2 4 0;
#X connect 22 0 21 0;
#X connect 22 1 20 0;
#X connect 23 0 16 1;
#X connect 23 1 17 1;
#X connect 24 0 16 1;
#X connect 25 0 27 0;
#X connect 26 0 27 1;
#X connect 27 0 17 0;
#X connect 27 0 16 0;
#X restore 317 435 pd fm_pd;
#X floatatom 536 455 0 0 0 1 bias - -;
#X obj 434 372 unpack f f f f f f f f f f;
#X floatatom 553 434 0 0 0 1 slew - -;
#X floatatom 570 413 0 0 0 1 modulate - -;
#X obj 587 394 tgl 15 0 empty empty mod_in 17 7 0 10 -262144 -1 -1
0 1;
#X obj 325 380 print trisaw;
#X text 265 259 waveshape modulation;
#X text 399 142 SIGNAL: frequency modulation;
#X text 399 156 SIGNAL: waveshape modulation;
#X obj 78 305 trisaw~;
#X text 524 76 (C) 2009 Edward Kelly;
#X text 517 91 GNU/GPL license enclosed;
#X text 542 61 METASTUDIO 0.3;
#X connect 9 0 85 0;
#X connect 30 0 85 0;
#X connect 31 0 85 0;
#X connect 41 0 14 0;
#X connect 41 0 14 1;
#X connect 41 0 68 0;
#X connect 42 0 41 1;
#X connect 43 0 42 0;
#X connect 44 0 41 0;
#X connect 45 0 44 1;
#X connect 46 0 47 0;
#X connect 46 0 48 0;
#X connect 46 0 51 0;
#X connect 46 0 54 0;
#X connect 47 0 45 0;
#X connect 49 0 41 0;
#X connect 50 0 49 1;
#X connect 51 0 50 0;
#X connect 52 0 41 0;
#X connect 53 0 52 1;
#X connect 54 0 53 0;
#X connect 64 0 77 0;
#X connect 69 0 70 0;
#X connect 70 0 68 1;
#X connect 72 0 85 0;
#X connect 74 0 52 0;
#X connect 75 0 49 0;
#X connect 77 0 58 0;
#X connect 77 1 59 0;
#X connect 77 2 60 0;
#X connect 77 3 61 0;
#X connect 77 4 62 0;
#X connect 77 5 63 0;
#X connect 77 6 76 0;
#X connect 77 7 78 0;
#X connect 77 8 79 0;
#X connect 77 9 80 0;
#X connect 85 0 44 0;
#X connect 85 2 64 0;
#X connect 85 2 81 0;
