#N canvas 0 0 680 791 10;
#X obj 62 58 sigclip~;
#X obj 342 58 sigdec~;
#X obj 62 135 miniscope~;
#N canvas 335 195 450 300 (subpatch) 0;
#X msg 70 141 size 1024 \, on 1;
#X obj 70 163 outlet;
#X obj 65 118 loadbang;
#X connect 0 0 1 0;
#X connect 2 0 0 0;
#X restore 230 111 pd;
#X obj 343 134 miniscope~;
#N canvas 335 195 450 300 (subpatch) 0;
#X msg 70 141 size 1024 \, on 1;
#X obj 70 163 outlet;
#X obj 65 118 loadbang;
#X connect 0 0 1 0;
#X connect 2 0 0 0;
#X restore 511 110 pd;
#X obj 62 345 miniscope~;
#N canvas 335 195 450 300 (subpatch) 0;
#X msg 70 141 size 1024 \, on 1;
#X obj 70 163 outlet;
#X obj 65 118 loadbang;
#X connect 0 0 1 0;
#X connect 2 0 0 0;
#X restore 230 321 pd;
#X obj 343 344 miniscope~;
#N canvas 335 195 450 300 (subpatch) 0;
#X msg 70 141 size 1024 \, on 1;
#X obj 70 163 outlet;
#X obj 65 118 loadbang;
#X connect 0 0 1 0;
#X connect 2 0 0 0;
#X restore 511 320 pd;
#X obj 62 268 sigfb~;
#X obj 342 268 sigfold~;
#X obj 61 33 osc~ 260;
#X obj 342 32 osc~ 260;
#X obj 61 243 osc~ 260;
#X obj 342 242 osc~ 260;
#X obj 62 553 miniscope~;
#N canvas 335 195 450 300 (subpatch) 0;
#X msg 70 141 size 1024 \, on 1;
#X obj 70 163 outlet;
#X obj 65 118 loadbang;
#X connect 0 0 1 0;
#X connect 2 0 0 0;
#X restore 230 529 pd;
#X obj 61 451 osc~ 260;
#X obj 62 476 sigsat~;
#X obj 344 553 miniscope~;
#N canvas 335 195 450 300 (subpatch) 0;
#X msg 70 141 size 1024 \, on 1;
#X obj 70 163 outlet;
#X obj 65 118 loadbang;
#X connect 0 0 1 0;
#X connect 2 0 0 0;
#X restore 512 529 pd;
#X obj 343 451 osc~ 260;
#X obj 344 476 crusha~;
#N canvas 52 167 450 300 ~ 0;
#X obj 55 65 send~ \$0-clip;
#X obj 55 34 inlet~;
#X connect 1 0 0 0;
#X restore 28 135 pd ~;
#N canvas 52 167 450 300 ~ 0;
#X obj 55 34 inlet~;
#X obj 55 65 send~ \$0-fb;
#X connect 0 0 1 0;
#X restore 28 345 pd ~;
#N canvas 52 167 450 300 ~ 0;
#X obj 55 34 inlet~;
#X obj 55 65 send~ \$0-sat;
#X connect 0 0 1 0;
#X restore 28 553 pd ~;
#N canvas 52 167 450 300 ~ 0;
#X obj 55 34 inlet~;
#X obj 55 65 send~ \$0-dec;
#X connect 0 0 1 0;
#X restore 308 135 pd ~;
#N canvas 52 167 450 300 ~ 0;
#X obj 55 34 inlet~;
#X obj 55 65 send~ \$0-fold;
#X connect 0 0 1 0;
#X restore 308 345 pd ~;
#N canvas 52 167 450 300 ~ 0;
#X obj 55 34 inlet~;
#X obj 55 64 send~ \$0-crush;
#X connect 0 0 1 0;
#X restore 308 553 pd ~;
#X obj 234 669 hradio 15 1 0 7 empty empty empty 0 -8 0 10 -262144
-1 -1 6;
#N canvas 188 516 742 340 listen 0;
#X obj 28 53 inlet;
#X obj 28 83 sel 0 1 2 3 4 5 6;
#X obj 306 48 receive~ \$0-clip;
#X obj 324 70 receive~ \$0-dec;
#X msg 47 131 set clip;
#X msg 61 155 set decimate;
#X msg 79 181 set foldback;
#X msg 99 207 set foldover;
#X msg 118 233 set saturate;
#X msg 136 259 set crush;
#X msg 28 108 set none;
#X obj 41 290 outlet;
#X obj 346 92 receive~ \$0-fb;
#X obj 364 114 receive~ \$0-fold;
#X obj 386 137 receive~ \$0-sat;
#X obj 404 159 receive~ \$0-crush;
#X obj 214 258 *~ 0;
#X obj 234 233 == 1;
#X obj 214 286 *~ 0.1;
#X obj 254 258 *~ 0;
#X obj 294 258 *~ 0;
#X obj 334 258 *~ 0;
#X obj 374 258 *~ 0;
#X obj 414 258 *~ 0;
#X obj 274 233 == 2;
#X obj 314 233 == 3;
#X obj 354 233 == 4;
#X obj 394 233 == 5;
#X obj 434 233 == 6;
#X obj 214 310 outlet~;
#X connect 0 0 1 0;
#X connect 0 0 17 0;
#X connect 0 0 24 0;
#X connect 0 0 25 0;
#X connect 0 0 26 0;
#X connect 0 0 27 0;
#X connect 0 0 28 0;
#X connect 1 0 10 0;
#X connect 1 1 4 0;
#X connect 1 2 5 0;
#X connect 1 3 6 0;
#X connect 1 4 7 0;
#X connect 1 5 8 0;
#X connect 1 6 9 0;
#X connect 2 0 16 0;
#X connect 3 0 19 0;
#X connect 4 0 11 0;
#X connect 5 0 11 0;
#X connect 6 0 11 0;
#X connect 7 0 11 0;
#X connect 8 0 11 0;
#X connect 9 0 11 0;
#X connect 10 0 11 0;
#X connect 12 0 20 0;
#X connect 13 0 21 0;
#X connect 14 0 22 0;
#X connect 15 0 23 0;
#X connect 16 0 18 0;
#X connect 17 0 16 1;
#X connect 18 0 29 0;
#X connect 19 0 18 0;
#X connect 20 0 18 0;
#X connect 21 0 18 0;
#X connect 22 0 18 0;
#X connect 23 0 18 0;
#X connect 24 0 19 1;
#X connect 25 0 20 1;
#X connect 26 0 21 1;
#X connect 27 0 22 1;
#X connect 28 0 23 1;
#X restore 234 688 pd listen;
#X obj 280 759 dac~;
#X obj 286 710 mix~;
#X msg 222 710;
#X connect 0 0 2 0;
#X connect 0 0 24 0;
#X connect 1 0 4 0;
#X connect 1 0 27 0;
#X connect 3 0 2 1;
#X connect 5 0 4 1;
#X connect 7 0 6 1;
#X connect 9 0 8 1;
#X connect 10 0 6 0;
#X connect 10 0 25 0;
#X connect 11 0 8 0;
#X connect 11 0 28 0;
#X connect 12 0 0 0;
#X connect 13 0 1 0;
#X connect 14 0 10 0;
#X connect 15 0 11 0;
#X connect 17 0 16 1;
#X connect 18 0 19 0;
#X connect 19 0 16 0;
#X connect 19 0 26 0;
#X connect 21 0 20 1;
#X connect 22 0 23 0;
#X connect 23 0 20 0;
#X connect 23 0 29 0;
#X connect 30 0 31 0;
#X connect 31 0 34 0;
#X connect 31 1 33 0;
#X connect 33 0 32 0;
#X connect 33 0 32 1;
