#N canvas 27 171 673 593 10;
#X obj 31 129 cnv 15 300 80 empty empty empty 20 12 0 14 -204786 -66577
0;
#X obj 31 14 cnv 15 431 107 empty empty stereo_drift~ 10 18 0 18 -232576
-45076 0;
#X text 250 300 V;
#X text 149 267 audio;
#X text 250 292 |;
#X text 219 271 automation and patching;
#X text 250 282 |;
#X obj 117 537 dac~;
#X text 320 508 V;
#X text 320 500 |;
#X text 320 475 |;
#X text 244 517 automation and patching out;
#X text 33 175 CONTROL: message tagged control parameters;
#X text 33 129 Metastudio FX have two or more inlets:;
#X text 33 189 SIGNAL: delay time modulator;
#X text 34 145 and in this fx;
#X msg 486 74 \; pd dsp 1;
#X obj 337 135 cnv 15 300 120 empty empty empty 20 12 0 14 -203904
-66577 0;
#X text 339 135 Message tagged control parameters;
#X text 339 153 Any of the fx parameters may be altered by;
#X text 338 166 sending the object a message followed by a;
#X msg 545 191 delay 250;
#X text 338 179 value in the second inlet:;
#X obj 237 215 cnv 15 360 40 empty empty empty 20 12 0 14 -203904 -66577
0;
#X text 240 216 For a list of control parameters for this;
#X text 240 230 unit \, click on this subpatch -->;
#N canvas 10 83 1087 374 control 0;
#X obj 211 295 outlet;
#X msg 375 159 porta \$1;
#X floatatom 26 140 5 0 2000 0 - - -, f 5;
#X msg 168 160 delfine \$1;
#X floatatom 168 119 5 0 0 0 - - -, f 5;
#X obj 168 139 / 100;
#X msg 240 159 delpitch \$1;
#X msg 318 159 fb \$1;
#X floatatom 240 139 5 0 100 0 - - -, f 5;
#X floatatom 318 139 5 -100 100 0 - - -, f 5;
#X floatatom 375 139 5 0 2000 0 - - -, f 5;
#X text 27 112 delay;
#X text 24 122 coarse;
#X text 170 90 delay;
#X text 172 102 fine;
#X text 230 121 delay pitch;
#X text 306 122 feedback;
#X text 363 122 portamento;
#X floatatom 446 138 5 200 20000 0 - - -, f 5;
#X msg 446 159 lpf \$1;
#X text 438 121 frequency;
#X text 442 111 lowpass;
#X msg 957 158 on \$1;
#X obj 957 139 tgl 15 0 empty empty empty 17 7 0 10 -262144 -1 -1 0
1;
#X text 950 122 on/off;
#X msg 901 158 mix \$1;
#X floatatom 901 137 5 0 200 0 - - -, f 5;
#X text 896 110 dry/wet;
#X text 906 121 mix*;
#X text 547 218 *the mix is adjustable between 0 and 200 At 100 \,
there is only the wet (effected) sound. Above 100 \, the dry signal
is gradually reintroduced 180 degrees out of phase.;
#X msg 250 66 patch \$1;
#X msg 311 66 randpat;
#X text 38 49 load a patches file;
#X text 239 19 recall a;
#X text 247 29 patch;
#X text 316 39 random;
#X text 319 49 patch;
#X floatatom 250 46 5 1 9 0 - - -, f 5;
#X msg 26 160 delcoarse \$1;
#X msg 109 160 delay \$1;
#X floatatom 109 140 5 0 2000 0 - - -, f 5;
#X text 107 123 delay;
#X msg 502 159 stereo \$1;
#X floatatom 514 105 5 0 200 0 - - -, f 5;
#X obj 514 122 / 100;
#X floatatom 514 142 5 0 0 0 - - -, f 5;
#X text 574 132 L/R;
#X floatatom 650 105 5 0 100 0 - - -, f 5;
#X obj 650 122 / 100;
#X floatatom 650 142 5 0 0 0 - - -, f 5;
#X msg 638 159 phase \$1;
#X msg 754 158 freq \$1;
#X msg 832 158 depth \$1;
#X floatatom 754 86 5 0 0 0 - - -, f 5;
#X obj 754 105 / 10;
#X floatatom 754 127 5 0 0 1 vibrato - -, f 5;
#X text 758 140 frequency;
#X floatatom 844 86 5 0 0 0 - - -, f 5;
#X floatatom 844 127 5 0 0 1 - - -, f 5;
#X text 844 141 depth;
#X obj 844 105 / 100;
#X text 552 143 difference**;
#X text 688 141 phase***;
#X text 547 259 **the two channels of delay can be offset by a proportional
amount. As the slider is moved left \, the left-delay gets shorter
as the right-delay gets longer.;
#X text 547 300 ***the phase difference of the vibrato between the
left and right channels.;
#X msg 1005 158 mono \$1;
#X obj 1005 138 tgl 15 0 empty empty empty 17 7 0 10 -262144 -1 -1
1 1;
#X msg 1005 60 1;
#X obj 1005 40 loadbang;
#X text 1021 110 mono;
#X text 1017 122 input;
#X text 1021 136 ****;
#X text 546 328 ****when the device is switched to mono \, only the
left input channel is active \, but the output is still stereo;
#X msg 25 66 file datasets/stereo_drift.pat;
#X obj 387 49 t b b;
#X obj 398 27 loadbang;
#X obj 440 50 bng 15 250 50 0 empty empty empty 17 7 0 10 -262144 -1
-1;
#X connect 1 0 0 0;
#X connect 2 0 38 0;
#X connect 3 0 0 0;
#X connect 4 0 5 0;
#X connect 5 0 3 0;
#X connect 6 0 0 0;
#X connect 7 0 0 0;
#X connect 8 0 6 0;
#X connect 9 0 7 0;
#X connect 10 0 1 0;
#X connect 18 0 19 0;
#X connect 19 0 0 0;
#X connect 22 0 0 0;
#X connect 23 0 22 0;
#X connect 25 0 0 0;
#X connect 26 0 25 0;
#X connect 30 0 0 0;
#X connect 31 0 0 0;
#X connect 37 0 30 0;
#X connect 38 0 0 0;
#X connect 39 0 0 0;
#X connect 40 0 39 0;
#X connect 42 0 0 0;
#X connect 43 0 44 0;
#X connect 44 0 45 0;
#X connect 45 0 42 0;
#X connect 47 0 48 0;
#X connect 48 0 49 0;
#X connect 49 0 50 0;
#X connect 50 0 0 0;
#X connect 51 0 0 0;
#X connect 52 0 0 0;
#X connect 53 0 54 0;
#X connect 54 0 55 0;
#X connect 55 0 51 0;
#X connect 57 0 60 0;
#X connect 58 0 52 0;
#X connect 60 0 58 0;
#X connect 65 0 0 0;
#X connect 66 0 65 0;
#X connect 67 0 66 0;
#X connect 68 0 67 0;
#X connect 73 0 0 0;
#X connect 74 0 31 0;
#X connect 74 1 73 0;
#X connect 75 0 74 0;
#X connect 76 0 74 0;
#X restore 439 233 pd control parameters;
#X obj 341 369 cnv 15 300 94 empty empty empty 20 12 0 14 -204786 -66577
0;
#X text 343 397 CONTROL: message tagged control parameters;
#X text 343 369 Metastudio FX have two outlets;
#X text 343 383 SIGNAL: audio out;
#X text 344 410 All manipulations of the GUI \, patch file;
#X text 345 422 locations and patch changes are sent out;
#X text 346 434 of the second outlet so that they may be;
#X text 406 292 (C) 2009 Edward Kelly;
#X text 399 307 GNU/GPL license enclosed;
#X text 345 446 recorded.;
#X obj 23 314 cnv 15 70 76 empty empty empty 20 12 0 14 -261234 -66577
0;
#X text 26 312 portamento;
#X text 34 324 affects;
#X text 25 336 delay time;
#X text 47 348 and;
#X text 37 360 filter;
#X text 23 371 frequencies;
#X obj 27 215 tester~;
#X msg 545 213 delfine 12;
#N canvas 0 50 450 300 init 0;
#X msg 34 116 0;
#X obj 41 95 loadbang;
#X msg 220 154 50;
#X obj 225 180 s \$0-depth;
#X obj 21 137 s \$0-select-set;
#X obj 114 38 r \$0-select;
#X obj 122 61 sel 0 1;
#X msg 119 89 label this_patch;
#X msg 235 89 label flanger;
#X connect 0 0 4 0;
#X connect 1 0 0 0;
#X connect 1 0 2 0;
#X connect 2 0 3 0;
#X connect 5 0 6 0;
#X connect 6 0 7 0;
#X connect 6 1 8 0;
#X connect 7 0 4 0;
#X connect 8 0 4 0;
#X restore 496 555 pd init;
#X text 424 277 METASTUDIO 0.5;
#X obj 117 314 stereo_drift~;
#X obj 343 496 print stereo_drift;
#X obj 117 496 stmix~;
#X text 187 300 V;
#X text 187 292 |;
#X text 117 300 V;
#X text 117 292 |;
#X text 118 280 ----inlets-----;
#X text 37 42 ...is a stereo feedback delay with vibrato. The delay
can be adjusted either using the delay time \, or as a pitch that the
delay will resonate at as a comb filter. The L-R control adds a difference
between the two channels delay times \, and the phase control changes
the phase difference between the vibrato LFO on the two channels.;
#X text 33 161 SIGNAL: audio in x2;
#X connect 21 0 48 2;
#X connect 26 0 48 2;
#X connect 44 0 48 0;
#X connect 45 0 48 2;
#X connect 48 0 50 0;
#X connect 48 1 50 1;
#X connect 48 2 49 0;
#X connect 50 0 7 0;
#X connect 50 1 7 1;
