#N canvas 58 192 966 470 10;
#X floatatom 97 106 9 0 22000 0 - - -;
#X floatatom 202 118 5 2 9999 0 - - -;
#X floatatom 245 245 9 0 22000 0 - - -;
#X floatatom 310 244 5 2 9999 0 - - -;
#X obj 63 38 inlet~;
#X obj 62 449 outlet~;
#X obj 309 171 inlet;
#X obj 90 130 pack f f;
#X obj 92 151 line~;
#X obj 246 265 pack f f;
#X obj 248 286 line~;
#X msg 628 231 0.707;
#X obj 624 197 loadbang;
#X obj 291 304 pack f f;
#X obj 293 325 line~;
#X obj 150 140 pack f f;
#X obj 152 161 line~;
#X msg 568 235 200;
#X obj 346 371 s \$0-hpfc-set;
#X obj 373 344 s \$0-lpfc-set;
#X obj 400 318 s \$0-hpq-set;
#X obj 427 293 s \$0-lpq-set;
#X msg 568 214 136;
#X msg 540 192 14;
#X obj 371 174 mtof;
#X obj 370 151 r \$0-hpfc_midi;
#X obj 373 198 s \$0-hpfc;
#X obj 466 171 mtof;
#X obj 468 195 s \$0-lpfc;
#X obj 103 84 r \$0-hpfc-num;
#X obj 245 222 r \$0-lpfc-num;
#X obj 230 198 r \$0-t_interp;
#X obj 291 283 r \$0-lpq;
#X obj 156 58 r \$0-hpq;
#X obj 454 272 s \$0-t_interp-set;
#X obj 711 199 >;
#X obj 709 166 t f f;
#X obj 706 249 f;
#X obj 704 224 select 1;
#X obj 694 111 r \$0-hpfc-num;
#X obj 701 142 spigot;
#X obj 826 102 r \$0-lpfc-num;
#X obj 706 294 ftom;
#X obj 785 117 tgl 15 0 empty \$0-gang empty 0 -6 0 10 -262144 -1 -1
1 1;
#X obj 842 169 t f f;
#X obj 839 252 f;
#X obj 837 227 select 1;
#X obj 834 145 spigot;
#X obj 839 297 ftom;
#X obj 844 202 <;
#X obj 706 331 s \$0-lpfc-set;
#X obj 839 334 s \$0-hpfc-set;
#X obj 770 141 sel 1;
#X obj 769 165 delay 0;
#X msg 600 248 1;
#X obj 589 272 s \$0-gang-set;
#X obj 111 184 +~;
#X obj 241 88 cnv 15 370 34 empty empty empty 8 12 0 14 -155072 -13330
0;
#X obj 404 75 cnv 15 207 47 empty empty empty 8 12 0 14 -155072 -13330
0;
#X obj 304 93 hsl 246 12 14 136 0 0 \$0-hpfc_midi \$0-hpfc-set highpass
25 8 0 10 -45076 -232576 -232576 1205 1;
#X obj 304 108 hsl 246 12 14 136 0 0 \$0-lpfc_midi \$0-lpfc-set lowpass
25 6 0 10 -13381 -204786 -204786 24500 1;
#X obj 246 93 nbx 5 12 -1e+37 1e+37 0 0 \$0-hpfc-num \$0-hpfc empty
0 -6 0 10 -45076 -232576 -232576 25.9572 256;
#X obj 246 108 nbx 5 12 -1e+37 1e+37 0 0 \$0-lpfc-num \$0-lpfc empty
0 -6 0 10 -13381 -204786 -204786 21096.2 256;
#X obj 406 77 nbx 5 12 0 1e+37 0 0 \$0-t_interp \$0-t_interp-set porta
56 6 0 10 -83269 -262130 -86853 200 256;
#X obj 554 108 nbx 5 12 0.07 70.7 1 0 \$0-lpq \$0-lpq-set QL 0 -6 0
10 -204786 -13381 -13381 0.707 256;
#X obj 554 83 nbx 5 12 0.07 70.7 1 0 \$0-hpq \$0-hpq-set QH 42 18 0
10 -232576 -45076 -45076 0.707 256;
#X obj 465 148 r \$0-lpfc_midi;
#X obj 511 77 tgl 12 0 \$0-gang \$0-gang-set gang 15 6 0 10 -4160 -203904
-16662 1 1;
#X msg 752 298 20000;
#X msg 879 297 20;
#X obj 770 263 loadbang;
#N canvas 3 50 450 300 automation-out 0;
#X obj 43 79 r \$0-hpfc-num;
#X obj 132 121 r \$0-lpfc-num;
#X obj 221 163 r \$0-t_interp;
#X obj 177 142 r \$0-lpq;
#X obj 88 100 r \$0-hpq;
#X obj 59 252 outlet;
#X obj 43 100 change;
#X msg 43 121 hpf \$1;
#X obj 88 121 change;
#X msg 88 142 hq \$1;
#X obj 132 142 change;
#X obj 177 163 change;
#X msg 132 163 lpf \$1;
#X msg 177 184 lq \$1;
#X obj 221 184 change;
#X msg 221 205 porta \$1;
#X obj 314 187 r \$0-gang;
#X obj 314 208 change;
#X msg 314 229 gang \$1;
#X connect 0 0 6 0;
#X connect 1 0 10 0;
#X connect 2 0 14 0;
#X connect 3 0 11 0;
#X connect 4 0 8 0;
#X connect 6 0 7 0;
#X connect 7 0 5 0;
#X connect 8 0 9 0;
#X connect 9 0 5 0;
#X connect 10 0 12 0;
#X connect 11 0 13 0;
#X connect 12 0 5 0;
#X connect 13 0 5 0;
#X connect 14 0 15 0;
#X connect 15 0 5 0;
#X connect 16 0 17 0;
#X connect 17 0 18 0;
#X connect 18 0 5 0;
#X restore 513 328 pd automation-out;
#X obj 513 349 outlet;
#X obj 346 278 ftom;
#X obj 378 274 ftom;
#X obj 347 231 route hpf lpf hq lq porta gang;
#X obj 480 251 s \$0-gang-set;
#X obj 104 247 iem_cot4~;
#X obj 168 249 iem_sqrt4~;
#X obj 62 283 vcf_filter~ hp2;
#X obj 63 421 vcf_filter~ lp2;
#X obj 108 355 iem_cot4~;
#X obj 171 355 iem_sqrt4~;
#X connect 0 0 7 0;
#X connect 1 0 7 1;
#X connect 1 0 15 1;
#X connect 2 0 9 0;
#X connect 3 0 9 1;
#X connect 3 0 13 1;
#X connect 4 0 79 0;
#X connect 6 0 75 0;
#X connect 7 0 8 0;
#X connect 8 0 77 0;
#X connect 9 0 10 0;
#X connect 10 0 81 0;
#X connect 11 0 21 0;
#X connect 11 0 20 0;
#X connect 12 0 11 0;
#X connect 12 0 23 0;
#X connect 12 0 22 0;
#X connect 12 0 17 0;
#X connect 12 0 54 0;
#X connect 13 0 14 0;
#X connect 14 0 82 0;
#X connect 15 0 16 0;
#X connect 16 0 56 0;
#X connect 16 0 78 0;
#X connect 17 0 34 0;
#X connect 22 0 19 0;
#X connect 23 0 18 0;
#X connect 24 0 26 0;
#X connect 25 0 24 0;
#X connect 27 0 28 0;
#X connect 29 0 0 0;
#X connect 30 0 2 0;
#X connect 31 0 1 0;
#X connect 31 0 3 0;
#X connect 32 0 13 0;
#X connect 33 0 15 0;
#X connect 35 0 38 0;
#X connect 36 0 35 0;
#X connect 36 1 37 1;
#X connect 37 0 42 0;
#X connect 38 0 37 0;
#X connect 39 0 40 0;
#X connect 39 0 49 1;
#X connect 40 0 36 0;
#X connect 41 0 35 1;
#X connect 41 0 47 0;
#X connect 42 0 50 0;
#X connect 43 0 40 1;
#X connect 43 0 47 1;
#X connect 43 0 52 0;
#X connect 44 0 49 0;
#X connect 44 1 45 1;
#X connect 45 0 48 0;
#X connect 46 0 45 0;
#X connect 47 0 44 0;
#X connect 48 0 51 0;
#X connect 49 0 46 0;
#X connect 52 0 53 0;
#X connect 53 0 50 0;
#X connect 53 0 51 0;
#X connect 54 0 55 0;
#X connect 66 0 27 0;
#X connect 68 0 50 0;
#X connect 69 0 51 0;
#X connect 70 0 68 0;
#X connect 70 0 69 0;
#X connect 71 0 72 0;
#X connect 73 0 18 0;
#X connect 74 0 19 0;
#X connect 75 0 73 0;
#X connect 75 1 74 0;
#X connect 75 2 20 0;
#X connect 75 3 21 0;
#X connect 75 4 34 0;
#X connect 75 5 76 0;
#X connect 77 0 79 1;
#X connect 78 0 79 2;
#X connect 79 0 80 0;
#X connect 80 0 5 0;
#X connect 81 0 80 1;
#X connect 82 0 80 2;
#X coords 0 -1 1 1 372 53 1 240 72;
