#N canvas 42 10 1061 631 10;
#X obj 492 285 inlet;
#N canvas 117 113 1149 655 patches 0;
#X obj 24 125 f;
#X obj 22 199 prepend add;
#X obj 19 232 t b a;
#X obj 89 321 msgfile;
#X obj 140 377 spigot;
#X msg 184 376 0;
#X msg 185 359 1;
#X msg 172 289 add patches 0;
#X obj 169 251 loadbang;
#X msg 106 238 goto 0;
#X obj 34 297 + 1;
#X obj 18 314 f;
#X msg 18 367 replace patches \$1;
#X msg 69 288 this;
#X obj 18 262 t b b b;
#X msg 361 281 goto \$1;
#X msg 326 280 this;
#X obj 463 227 r \$0-patches_load;
#X obj 463 244 openpanel;
#X msg 537 278 read \$1;
#X msg 493 278 goto 0;
#X msg 463 278 this;
#X obj 633 181 r \$0-patches_save;
#X obj 633 209 savepanel;
#X msg 630 282 write \$1;
#X msg 192 213 print;
#X obj 57 408 route list;
#X obj 463 261 t b b a b;
#X msg 514 302 clear;
#X obj 265 183 r \$0-patches_clear;
#X obj 263 209 t b b;
#X obj 770 202 inlet;
#X obj 779 373 outlet;
#X obj 765 225 symbol;
#X obj 811 234 inlet;
#X obj 815 274 random;
#X obj 833 366 outlet;
#X obj 326 202 r \$0-patch-num;
#X obj 140 394 s \$0-patches-num;
#X obj 573 344 s \$0-patch-set;
#X obj 39 55 r \$0-v1-num;
#X obj 49 72 r \$0-v2-num;
#X obj 59 89 r \$0-v3-num;
#X obj 69 106 r \$0-v4-num;
#X obj 129 16 r \$0-v5-num;
#X obj 139 36 r \$0-v6-num;
#X obj 149 56 r \$0-v7-num;
#X obj 159 76 r \$0-v8-num;
#X obj 219 16 r \$0-v9-num;
#X obj 229 36 r \$0-v10-num;
#X obj 239 56 r \$0-v11-num;
#X obj 249 76 r \$0-v12-num;
#X obj 309 16 r \$0-v13-num;
#X obj 319 36 r \$0-v14-num;
#X obj 329 56 r \$0-v15-num;
#X obj 339 76 r \$0-v16-num;
#X obj 138 641 t f f;
#X obj 165 660 s \$0-v1-set;
#X obj 138 677 s \$0-v1;
#X obj 153 584 t f f;
#X obj 168 527 t f f;
#X obj 183 470 t f f;
#X obj 214 641 t f f;
#X obj 229 584 t f f;
#X obj 244 527 t f f;
#X obj 259 470 t f f;
#X obj 290 641 t f f;
#X obj 305 584 t f f;
#X obj 320 527 t f f;
#X obj 335 470 t f f;
#X obj 366 641 t f f;
#X obj 381 584 t f f;
#X obj 396 527 t f f;
#X obj 411 470 t f f;
#X obj 153 620 s \$0-v2;
#X obj 180 603 s \$0-v2-set;
#X obj 168 563 s \$0-v3;
#X obj 195 546 s \$0-v3-set;
#X obj 183 506 s \$0-v4;
#X obj 210 489 s \$0-v4-set;
#X obj 214 677 s \$0-v5;
#X obj 241 660 s \$0-v5-set;
#X obj 229 620 s \$0-v6;
#X obj 256 603 s \$0-v6-set;
#X obj 244 563 s \$0-v7;
#X obj 271 546 s \$0-v7-set;
#X obj 259 506 s \$0-v8;
#X obj 286 489 s \$0-v8-set;
#X obj 290 677 s \$0-v9;
#X obj 317 660 s \$0-v9-set;
#X obj 305 620 s \$0-v10;
#X obj 332 603 s \$0-v10-set;
#X obj 320 563 s \$0-v11;
#X obj 347 546 s \$0-v11-set;
#X obj 335 506 s \$0-v12;
#X obj 362 489 s \$0-v12-set;
#X obj 366 677 s \$0-v13;
#X obj 393 660 s \$0-v13-set;
#X obj 381 620 s \$0-v14;
#X obj 408 603 s \$0-v14-set;
#X obj 396 563 s \$0-v15;
#X obj 423 546 s \$0-v15-set;
#X obj 411 506 s \$0-v16;
#X obj 438 489 s \$0-v16-set;
#X obj 399 16 r \$0-v17-num;
#X obj 409 36 r \$0-v18-num;
#X obj 419 56 r \$0-v19-num;
#X obj 429 76 r \$0-v20-num;
#X obj 488 16 r \$0-v21-num;
#X obj 499 36 r \$0-v22-num;
#X obj 509 56 r \$0-v23-num;
#X obj 519 76 r \$0-v24-num;
#X obj 579 16 r \$0-v25-num;
#X obj 589 36 r \$0-v26-num;
#X obj 599 56 r \$0-v27-num;
#X obj 609 76 r \$0-v28-num;
#X obj 669 16 r \$0-v29-num;
#X obj 679 36 r \$0-v30-num;
#X obj 689 56 r \$0-v31-num;
#X obj 699 76 r \$0-v32-num;
#X obj 24 147 pack f f f f f f f f f f f f f f f f f f f f f f f f
f f f f f f f f f;
#X obj 644 107 r \$0-length;
#X obj 243 395 unpack f f f f f f f f f f f f f f f f f f f f f f f
f f f f f f f f f f;
#X obj 448 641 t f f;
#X obj 463 584 t f f;
#X obj 478 527 t f f;
#X obj 493 470 t f f;
#X obj 524 641 t f f;
#X obj 539 584 t f f;
#X obj 554 527 t f f;
#X obj 569 470 t f f;
#X obj 600 641 t f f;
#X obj 615 584 t f f;
#X obj 630 527 t f f;
#X obj 645 470 t f f;
#X obj 676 641 t f f;
#X obj 691 584 t f f;
#X obj 706 527 t f f;
#X obj 721 470 t f f;
#X obj 448 677 s \$0-v17;
#X obj 475 660 s \$0-v17-set;
#X obj 463 620 s \$0-v18;
#X obj 490 603 s \$0-v18-set;
#X obj 478 563 s \$0-v19;
#X obj 505 546 s \$0-v19-set;
#X obj 493 506 s \$0-v20;
#X obj 520 489 s \$0-v20-set;
#X obj 524 677 s \$0-v21;
#X obj 551 660 s \$0-v21-set;
#X obj 539 620 s \$0-v22;
#X obj 566 603 s \$0-v22-set;
#X obj 554 563 s \$0-v23;
#X obj 581 546 s \$0-v23-set;
#X obj 569 506 s \$0-v24;
#X obj 596 489 s \$0-v24-set;
#X obj 600 677 s \$0-v25;
#X obj 627 660 s \$0-v25-set;
#X obj 615 620 s \$0-v26;
#X obj 642 603 s \$0-v26-set;
#X obj 630 563 s \$0-v27;
#X obj 657 546 s \$0-v27-set;
#X obj 645 506 s \$0-v28;
#X obj 672 489 s \$0-v28-set;
#X obj 676 677 s \$0-v29;
#X obj 703 660 s \$0-v29-set;
#X obj 691 620 s \$0-v30;
#X obj 718 603 s \$0-v30-set;
#X obj 706 563 s \$0-v31;
#X obj 733 546 s \$0-v31-set;
#X obj 721 506 s \$0-v32;
#X obj 748 489 s \$0-v32-set;
#X obj 795 466 s \$0-length-set;
#X obj 19 12 r \$0-store_patch;
#X obj 19 32 t b b;
#X obj 762 129 f;
#X obj 425 196 prepend durations;
#X obj 326 228 * 2;
#X obj 326 255 t b b f;
#X msg 283 280 next;
#X obj 788 16 r \$0-step_1;
#X obj 798 35 r \$0-step_2;
#X obj 808 55 r \$0-step_3;
#X obj 818 75 r \$0-step_4;
#X obj 828 95 r \$0-step_5;
#X obj 838 115 r \$0-step_6;
#X obj 868 16 r \$0-step_7;
#X obj 878 35 r \$0-step_8;
#X obj 888 55 r \$0-step_9;
#X obj 898 75 r \$0-step_10;
#X obj 908 95 r \$0-step_11;
#X obj 918 115 r \$0-step_12;
#X obj 948 16 r \$0-step_13;
#X obj 958 35 r \$0-step_14;
#X obj 968 55 r \$0-step_15;
#X obj 978 75 r \$0-step_16;
#X obj 988 95 r \$0-step_17;
#X obj 998 115 r \$0-step_18;
#X obj 1028 16 r \$0-step_19;
#X obj 1038 35 r \$0-step_20;
#X obj 1048 55 r \$0-step_21;
#X obj 1058 75 r \$0-step_22;
#X obj 1068 95 r \$0-step_23;
#X obj 1078 115 r \$0-step_24;
#X obj 1129 55 r \$0-step_25;
#X obj 1139 75 r \$0-step_26;
#X obj 1149 95 r \$0-step_27;
#X obj 1159 115 r \$0-step_28;
#X obj 1189 16 r \$0-step_29;
#X obj 1199 35 r \$0-step_30;
#X obj 1209 55 r \$0-step_31;
#X obj 1219 75 r \$0-step_32;
#X obj 807 521 s \$0-step_1-set;
#X obj 817 540 s \$0-step_2-set;
#X obj 827 560 s \$0-step_3-set;
#X obj 837 580 s \$0-step_4-set;
#X obj 847 600 s \$0-step_5-set;
#X obj 857 620 s \$0-step_6-set;
#X obj 901 521 s \$0-step_7-set;
#X obj 911 540 s \$0-step_8-set;
#X obj 921 560 s \$0-step_9-set;
#X obj 931 579 s \$0-step_10-set;
#X obj 941 600 s \$0-step_11-set;
#X obj 951 620 s \$0-step_12-set;
#X obj 1001 521 s \$0-step_13-set;
#X obj 1011 540 s \$0-step_14-set;
#X obj 1021 560 s \$0-step_15-set;
#X obj 1031 580 s \$0-step_16-set;
#X obj 1041 600 s \$0-step_17-set;
#X obj 1051 620 s \$0-step_18-set;
#X obj 1101 521 s \$0-step_19-set;
#X obj 1111 540 s \$0-step_20-set;
#X obj 1121 560 s \$0-step_21-set;
#X obj 1131 580 s \$0-step_22-set;
#X obj 1141 600 s \$0-step_23-set;
#X obj 1151 620 s \$0-step_24-set;
#X obj 1222 560 s \$0-step_25-set;
#X obj 1232 580 s \$0-step_26-set;
#X obj 1242 600 s \$0-step_27-set;
#X obj 1252 620 s \$0-step_28-set;
#X obj 1302 521 s \$0-step_29-set;
#X obj 1312 540 s \$0-step_30-set;
#X obj 1322 560 s \$0-step_31-set;
#X obj 1332 580 s \$0-step_32-set;
#X obj 384 231 prepend add;
#X msg 159 336 print;
#X obj 17 452 route patches durations values;
#X obj 22 179 prepend values;
#X obj 991 239 r \$0-store_plus;
#X obj 875 239 r \$0-store_minus;
#X obj 991 263 f;
#X obj 875 273 f;
#X obj 875 293 +;
#X obj 920 290 %;
#X obj 920 310 + 1;
#X obj 853 208 - 1;
#X obj 875 314 - 1;
#X obj 991 284 + 1;
#X obj 914 331 s \$0-patch-set;
#X obj 782 154 pack f f f f f f f f f f f f f f f f f f f f f f f f
f f f f f f f f f;
#X obj 799 420 unpack f f f f f f f f f f f f f f f f f f f f f f f
f f f f f f f f f f;
#X obj 1169 135 r \$0-legato;
#X obj 1244 472 s \$0-legato-set;
#X obj 632 238 makesymbol %s.pat;
#X msg 513 322 range 0 \$1;
#X obj 436 336 - 0;
#X connect 0 0 120 0;
#X connect 1 0 2 0;
#X connect 2 0 14 0;
#X connect 2 1 3 0;
#X connect 3 0 26 0;
#X connect 4 0 5 0;
#X connect 4 0 38 0;
#X connect 5 0 4 1;
#X connect 6 0 4 1;
#X connect 7 0 3 0;
#X connect 8 0 7 0;
#X connect 9 0 3 0;
#X connect 10 0 11 1;
#X connect 11 0 12 0;
#X connect 11 0 35 1;
#X connect 11 0 38 0;
#X connect 11 0 251 1;
#X connect 11 0 252 1;
#X connect 11 0 264 0;
#X connect 12 0 3 0;
#X connect 13 0 3 0;
#X connect 14 0 11 0;
#X connect 14 1 13 0;
#X connect 14 2 9 0;
#X connect 15 0 3 0;
#X connect 16 0 3 0;
#X connect 17 0 18 0;
#X connect 18 0 27 0;
#X connect 18 0 32 0;
#X connect 19 0 3 0;
#X connect 20 0 3 0;
#X connect 21 0 3 0;
#X connect 22 0 23 0;
#X connect 23 0 262 0;
#X connect 24 0 3 0;
#X connect 25 0 3 0;
#X connect 26 0 245 0;
#X connect 26 1 245 0;
#X connect 27 0 21 0;
#X connect 27 1 20 0;
#X connect 27 1 6 0;
#X connect 27 2 19 0;
#X connect 27 3 28 0;
#X connect 28 0 3 0;
#X connect 29 0 30 0;
#X connect 30 0 7 0;
#X connect 30 1 28 0;
#X connect 31 0 33 0;
#X connect 33 0 27 0;
#X connect 34 0 35 0;
#X connect 35 0 36 0;
#X connect 37 0 176 0;
#X connect 37 0 254 0;
#X connect 40 0 0 1;
#X connect 41 0 120 1;
#X connect 42 0 120 2;
#X connect 43 0 120 3;
#X connect 44 0 120 4;
#X connect 45 0 120 5;
#X connect 46 0 120 6;
#X connect 47 0 120 7;
#X connect 48 0 120 8;
#X connect 49 0 120 9;
#X connect 50 0 120 10;
#X connect 51 0 120 11;
#X connect 52 0 120 12;
#X connect 53 0 120 13;
#X connect 54 0 120 14;
#X connect 55 0 120 15;
#X connect 56 0 58 0;
#X connect 56 1 57 0;
#X connect 59 0 74 0;
#X connect 59 1 75 0;
#X connect 60 0 76 0;
#X connect 60 1 77 0;
#X connect 61 0 78 0;
#X connect 61 1 79 0;
#X connect 62 0 80 0;
#X connect 62 1 81 0;
#X connect 63 0 82 0;
#X connect 63 1 83 0;
#X connect 64 0 84 0;
#X connect 64 1 85 0;
#X connect 65 0 86 0;
#X connect 65 1 87 0;
#X connect 66 0 88 0;
#X connect 66 1 89 0;
#X connect 67 0 90 0;
#X connect 67 1 91 0;
#X connect 68 0 92 0;
#X connect 68 1 93 0;
#X connect 69 0 94 0;
#X connect 69 1 95 0;
#X connect 70 0 96 0;
#X connect 70 1 97 0;
#X connect 71 0 98 0;
#X connect 71 1 99 0;
#X connect 72 0 100 0;
#X connect 72 1 101 0;
#X connect 73 0 102 0;
#X connect 73 1 103 0;
#X connect 104 0 120 16;
#X connect 105 0 120 17;
#X connect 106 0 120 18;
#X connect 107 0 120 19;
#X connect 108 0 120 20;
#X connect 109 0 120 21;
#X connect 110 0 120 22;
#X connect 111 0 120 23;
#X connect 112 0 120 24;
#X connect 113 0 120 25;
#X connect 114 0 120 26;
#X connect 115 0 120 27;
#X connect 116 0 120 28;
#X connect 117 0 120 29;
#X connect 118 0 120 30;
#X connect 119 0 120 31;
#X connect 120 0 246 0;
#X connect 121 0 120 32;
#X connect 122 0 56 0;
#X connect 122 1 59 0;
#X connect 122 2 60 0;
#X connect 122 3 61 0;
#X connect 122 4 62 0;
#X connect 122 5 63 0;
#X connect 122 6 64 0;
#X connect 122 7 65 0;
#X connect 122 8 66 0;
#X connect 122 9 67 0;
#X connect 122 10 68 0;
#X connect 122 11 69 0;
#X connect 122 12 70 0;
#X connect 122 13 71 0;
#X connect 122 14 72 0;
#X connect 122 15 73 0;
#X connect 122 16 123 0;
#X connect 122 17 124 0;
#X connect 122 18 125 0;
#X connect 122 19 126 0;
#X connect 122 20 127 0;
#X connect 122 21 128 0;
#X connect 122 22 129 0;
#X connect 122 23 130 0;
#X connect 122 24 131 0;
#X connect 122 25 132 0;
#X connect 122 26 133 0;
#X connect 122 27 134 0;
#X connect 122 28 135 0;
#X connect 122 29 136 0;
#X connect 122 30 137 0;
#X connect 122 31 138 0;
#X connect 122 32 171 0;
#X connect 123 0 139 0;
#X connect 123 1 140 0;
#X connect 124 0 141 0;
#X connect 124 1 142 0;
#X connect 125 0 143 0;
#X connect 125 1 144 0;
#X connect 126 0 145 0;
#X connect 126 1 146 0;
#X connect 127 0 147 0;
#X connect 127 1 148 0;
#X connect 128 0 149 0;
#X connect 128 1 150 0;
#X connect 129 0 151 0;
#X connect 129 1 152 0;
#X connect 130 0 153 0;
#X connect 130 1 154 0;
#X connect 131 0 155 0;
#X connect 131 1 156 0;
#X connect 132 0 157 0;
#X connect 132 1 158 0;
#X connect 133 0 159 0;
#X connect 133 1 160 0;
#X connect 134 0 161 0;
#X connect 134 1 162 0;
#X connect 135 0 163 0;
#X connect 135 1 164 0;
#X connect 136 0 165 0;
#X connect 136 1 166 0;
#X connect 137 0 167 0;
#X connect 137 1 168 0;
#X connect 138 0 169 0;
#X connect 138 1 170 0;
#X connect 172 0 173 0;
#X connect 173 0 174 0;
#X connect 173 1 0 0;
#X connect 174 0 258 0;
#X connect 175 0 243 0;
#X connect 176 0 177 0;
#X connect 177 0 178 0;
#X connect 177 1 16 0;
#X connect 177 2 15 0;
#X connect 178 0 3 0;
#X connect 179 0 174 1;
#X connect 180 0 258 1;
#X connect 181 0 258 2;
#X connect 182 0 258 3;
#X connect 183 0 258 4;
#X connect 184 0 258 5;
#X connect 185 0 258 6;
#X connect 186 0 258 7;
#X connect 187 0 258 8;
#X connect 188 0 258 9;
#X connect 189 0 258 10;
#X connect 190 0 258 11;
#X connect 191 0 258 12;
#X connect 192 0 258 13;
#X connect 193 0 258 14;
#X connect 194 0 258 15;
#X connect 195 0 258 16;
#X connect 196 0 258 17;
#X connect 197 0 258 18;
#X connect 198 0 258 19;
#X connect 199 0 258 20;
#X connect 200 0 258 21;
#X connect 201 0 258 22;
#X connect 202 0 258 23;
#X connect 203 0 258 24;
#X connect 204 0 258 25;
#X connect 205 0 258 26;
#X connect 206 0 258 27;
#X connect 207 0 258 28;
#X connect 208 0 258 29;
#X connect 209 0 258 30;
#X connect 210 0 258 31;
#X connect 243 0 3 0;
#X connect 244 0 3 0;
#X connect 245 0 10 0;
#X connect 245 0 4 0;
#X connect 245 0 35 1;
#X connect 245 0 251 1;
#X connect 245 0 252 1;
#X connect 245 0 264 0;
#X connect 245 1 259 0;
#X connect 245 2 122 0;
#X connect 246 0 1 0;
#X connect 247 0 249 0;
#X connect 248 0 250 0;
#X connect 249 0 256 0;
#X connect 250 0 251 0;
#X connect 251 0 255 0;
#X connect 252 0 253 0;
#X connect 253 0 257 0;
#X connect 254 0 250 1;
#X connect 254 0 249 1;
#X connect 255 0 252 0;
#X connect 256 0 252 0;
#X connect 258 0 175 0;
#X connect 259 0 211 0;
#X connect 259 1 212 0;
#X connect 259 2 213 0;
#X connect 259 3 214 0;
#X connect 259 4 215 0;
#X connect 259 5 216 0;
#X connect 259 6 217 0;
#X connect 259 7 218 0;
#X connect 259 8 219 0;
#X connect 259 9 220 0;
#X connect 259 10 221 0;
#X connect 259 11 222 0;
#X connect 259 12 223 0;
#X connect 259 13 224 0;
#X connect 259 14 225 0;
#X connect 259 15 226 0;
#X connect 259 16 227 0;
#X connect 259 17 228 0;
#X connect 259 18 229 0;
#X connect 259 19 230 0;
#X connect 259 20 231 0;
#X connect 259 21 232 0;
#X connect 259 22 233 0;
#X connect 259 23 234 0;
#X connect 259 24 235 0;
#X connect 259 25 236 0;
#X connect 259 26 237 0;
#X connect 259 27 238 0;
#X connect 259 28 239 0;
#X connect 259 29 240 0;
#X connect 259 30 241 0;
#X connect 259 31 242 0;
#X connect 259 32 261 0;
#X connect 260 0 258 32;
#X connect 262 0 24 0;
#X connect 262 0 32 0;
#X connect 263 0 39 0;
#X connect 264 0 263 0;
#X restore 679 413 pd patches;
#X obj 683 483 outlet;
#X obj 639 302 route patch file;
#X obj 639 435 s \$0-patch-set;
#X msg 746 413 patch \$1;
#X obj 492 306 route float bang;
#X obj 38 404 r \$0-out;
#X obj 38 524 outlet;
#X obj 413 467 s \$0-count;
#X obj 547 372 cup;
#X msg 603 397 1;
#X obj 603 373 loadbang;
#X obj 562 419 sel 1;
#X obj 562 438 del 0;
#X obj 571 340 r \$0-length;
#X obj 756 277 s \$0-length-set;
#X obj 171 43 cnv 15 372 182 empty empty empty 10 6 0 10 -175662 -66577
0;
#X msg 897 54 -1;
#X obj 897 37 loadbang;
#X obj 101 57 cnv 15 442 220 empty empty empty 10 6 0 10 -175662 -66577
0;
#X obj 108 73 vsl 10 129 -1 127 0 0 \$0-v1 \$0-v1-set 1 0 -8 0 8 -232576
-45076 -45076 3200 0;
#X floatatom 108 219 3 0 0 0 - #0-v1 #0-v1-num;
#X obj 120 73 vsl 10 129 -1 127 0 0 \$0-v2 \$0-v2-set 2 0 -8 0 8 -203904
-45076 -45076 0 0;
#X floatatom 120 233 3 0 0 0 - #0-v2 #0-v2-num;
#X obj 132 73 vsl 10 129 -1 127 0 0 \$0-v3 \$0-v3-set 3 0 -8 0 8 -167488
-13330 -13330 4000 0;
#X floatatom 132 219 3 0 0 0 - #0-v3 #0-v3-num;
#X obj 144 73 vsl 10 129 -1 127 0 0 \$0-v4 \$0-v4-set 4 0 -8 0 8 -163818
-13330 -13330 0 0;
#X floatatom 144 233 3 0 0 0 - #0-v4 #0-v4-num;
#X obj 158 73 vsl 10 129 -1 127 0 0 \$0-v5 \$0-v5-set 5 0 -8 0 8 -232576
-45076 -45076 3100 0;
#X floatatom 158 219 3 0 0 0 - #0-v5 #0-v5-num;
#X obj 170 73 vsl 10 129 -1 127 0 0 \$0-v6 \$0-v6-set 6 0 -8 0 8 -203904
-45076 -45076 0 0;
#X floatatom 170 233 3 0 0 0 - #0-v6 #0-v6-num;
#X obj 182 73 vsl 10 129 -1 127 0 0 \$0-v7 \$0-v7-set 7 0 -8 0 8 -167488
-13330 -13330 3600 0;
#X floatatom 182 219 3 0 0 0 - #0-v7 #0-v7-num;
#X obj 194 73 vsl 10 129 -1 127 0 0 \$0-v8 \$0-v8-set 8 0 -8 0 8 -163818
-13330 -13330 0 0;
#X floatatom 194 233 3 0 0 0 - #0-v8 #0-v8-num;
#X obj 208 73 vsl 10 129 -1 127 0 0 \$0-v9 \$0-v9-set 9 0 -8 0 8 -232576
-45076 -45076 3800 0;
#X floatatom 208 219 3 0 0 0 - #0-v9 #0-v9-num;
#X obj 220 73 vsl 10 129 -1 127 0 0 \$0-v10 \$0-v10-set 10 0 -8 0 8
-203904 -45076 -45076 0 0;
#X floatatom 220 233 3 0 0 0 - #0-v10 #0-v10-num;
#X obj 232 73 vsl 10 129 -1 127 0 0 \$0-v11 \$0-v11-set 11 0 -8 0 8
-167488 -13330 -13330 3000 0;
#X floatatom 232 219 3 0 0 0 - #0-v11 #0-v11-num;
#X obj 244 73 vsl 10 129 -1 127 0 0 \$0-v12 \$0-v12-set 12 0 -8 0 8
-163818 -13330 -13330 0 0;
#X floatatom 244 233 3 0 0 0 - #0-v12 #0-v12-num;
#X obj 258 73 vsl 10 129 -1 127 0 0 \$0-v13 \$0-v13-set 13 0 -8 0 8
-232576 -45076 -45076 3500 0;
#X floatatom 258 219 3 0 0 0 - #0-v13 #0-v13-num;
#X obj 270 73 vsl 10 129 -1 127 0 0 \$0-v14 \$0-v14-set 14 0 -8 0 8
-203904 -45076 -45076 0 0;
#X floatatom 270 233 3 0 0 0 - #0-v14 #0-v14-num;
#X obj 282 73 vsl 10 129 -1 127 0 0 \$0-v15 \$0-v15-set 15 0 -8 0 8
-167488 -13330 -13330 4500 0;
#X floatatom 282 219 3 0 0 0 - #0-v15 #0-v15-num;
#X obj 294 73 vsl 10 129 -1 127 0 0 \$0-v16 \$0-v16-set 16 0 -8 0 8
-163818 -13330 -13330 0 0;
#X floatatom 294 233 3 0 0 0 - #0-v16 #0-v16-num;
#X obj 510 195 nbx 2 12 1 32 0 0 \$0-length \$0-length-set length -3
-6 0 10 -261234 -86277 -86277 32 256;
#X obj 308 73 vsl 10 129 -1 127 0 0 \$0-v17 \$0-v17-set 17 0 -8 0 8
-232576 -45076 -45076 3800 0;
#X floatatom 308 219 3 0 0 0 - #0-v17 #0-v17-num;
#X obj 320 73 vsl 10 129 -1 127 0 0 \$0-v18 \$0-v18-set 18 0 -8 0 8
-203904 -45076 -45076 0 0;
#X floatatom 320 233 3 0 0 0 - #0-v18 #0-v18-num;
#X obj 332 73 vsl 10 129 -1 127 0 0 \$0-v19 \$0-v19-set 19 0 -8 0 8
-167488 -13330 -13330 3500 0;
#X floatatom 332 219 3 0 0 0 - #0-v19 #0-v19-num;
#X obj 344 73 vsl 10 129 -1 127 0 0 \$0-v20 \$0-v20-set 20 0 -8 0 8
-163818 -13330 -13330 0 0;
#X floatatom 344 233 3 0 0 0 - #0-v20 #0-v20-num;
#X obj 358 73 vsl 10 129 -1 127 0 0 \$0-v21 \$0-v21-set 21 0 -8 0 8
-232576 -45076 -45076 3400 0;
#X floatatom 358 219 3 0 0 0 - #0-v21 #0-v21-num;
#X obj 370 73 vsl 10 129 -1 127 0 0 \$0-v22 \$0-v22-set 22 0 -8 0 8
-203904 -45076 -45076 0 0;
#X floatatom 370 233 3 0 0 0 - #0-v22 #0-v22-num;
#X obj 382 73 vsl 10 129 -1 127 0 0 \$0-v23 \$0-v23-set 23 0 -8 0 8
-167488 -13330 -13330 3000 0;
#X floatatom 382 219 3 0 0 0 - #0-v23 #0-v23-num;
#X obj 394 73 vsl 10 129 -1 127 0 0 \$0-v24 \$0-v24-set 24 0 -8 0 8
-163818 -13330 -13330 0 0;
#X floatatom 394 233 3 0 0 0 - #0-v24 #0-v24-num;
#X obj 408 73 vsl 10 129 -1 127 0 0 \$0-v25 \$0-v25-set 25 0 -8 0 8
-232576 -45076 -45076 3500 0;
#X floatatom 408 219 3 0 0 0 - #0-v25 #0-v25-num;
#X obj 420 73 vsl 10 129 -1 127 0 0 \$0-v26 \$0-v26-set 26 0 -8 0 8
-203904 -45076 -45076 0 0;
#X floatatom 420 233 3 0 0 0 - #0-v26 #0-v26-num;
#X obj 432 73 vsl 10 129 -1 127 0 0 \$0-v27 \$0-v27-set 27 0 -8 0 8
-167488 -13330 -13330 4500 0;
#X floatatom 432 219 3 0 0 0 - #0-v27 #0-v27-num;
#X obj 444 73 vsl 10 129 -1 127 0 0 \$0-v28 \$0-v28-set 28 0 -8 0 8
-163818 -13330 -13330 0 0;
#X floatatom 444 233 3 0 0 0 - #0-v28 #0-v28-num;
#X obj 458 73 vsl 10 129 -1 127 0 0 \$0-v29 \$0-v29-set 29 0 -8 0 8
-232576 -45076 -45076 4300 0;
#X floatatom 458 219 3 0 0 0 - #0-v29 #0-v29-num;
#X obj 470 73 vsl 10 129 -1 127 0 0 \$0-v30 \$0-v30-set 30 0 -8 0 8
-203904 -45076 -45076 0 0;
#X floatatom 470 233 3 0 0 0 - #0-v30 #0-v30-num;
#X obj 482 73 vsl 10 129 -1 127 0 0 \$0-v31 \$0-v31-set 31 0 -8 0 8
-167488 -13330 -13330 4000 0;
#X floatatom 482 219 3 0 0 0 - #0-v31 #0-v31-num;
#X obj 494 73 vsl 10 129 -1 127 0 0 \$0-v32 \$0-v32-set 32 0 -8 0 8
-163818 -13330 -13330 0 0;
#X floatatom 494 233 3 0 0 0 - #0-v32 #0-v32-num;
#X obj 109 251 nbx 2 12 1 32 0 0 \$0-step_1 \$0-step_1-set empty 0
-8 0 10 -232576 -45076 -45076 1 256;
#X obj 120 263 nbx 2 12 1 32 0 0 \$0-step_2 \$0-step_2-set empty 0
-8 0 10 -203904 -45076 -45076 15 256;
#X obj 132 251 nbx 2 12 1 32 0 0 \$0-step_3 \$0-step_3-set empty 0
-8 0 10 -167488 -13330 -13330 1 256;
#X obj 144 263 nbx 2 12 1 32 0 0 \$0-step_4 \$0-step_4-set empty 0
-8 0 10 -163818 -13330 -13330 15 256;
#X obj 158 251 nbx 2 12 1 32 0 0 \$0-step_5 \$0-step_5-set empty 0
-8 0 10 -232576 -45076 -45076 1 256;
#X obj 169 263 nbx 2 12 1 32 0 0 \$0-step_6 \$0-step_6-set empty 0
-8 0 10 -203904 -45076 -45076 15 256;
#X obj 181 251 nbx 2 12 1 32 0 0 \$0-step_7 \$0-step_7-set empty 0
-8 0 10 -167488 -13330 -13330 1 256;
#X obj 193 263 nbx 2 12 1 32 0 0 \$0-step_8 \$0-step_8-set empty 0
-8 0 10 -163818 -13330 -13330 15 256;
#X obj 208 251 nbx 2 12 1 32 0 0 \$0-step_9 \$0-step_9-set empty 0
-8 0 10 -232576 -45076 -45076 1 256;
#X obj 219 263 nbx 2 12 1 32 0 0 \$0-step_10 \$0-step_10-set empty
0 -8 0 10 -203904 -45076 -45076 15 256;
#X obj 231 251 nbx 2 12 1 32 0 0 \$0-step_11 \$0-step_11-set empty
0 -8 0 10 -167488 -13330 -13330 1 256;
#X obj 243 263 nbx 2 12 1 32 0 0 \$0-step_12 \$0-step_12-set empty
0 -8 0 10 -163818 -13330 -13330 15 256;
#X obj 258 251 nbx 2 12 1 32 0 0 \$0-step_13 \$0-step_13-set empty
0 -8 0 10 -232576 -45076 -45076 1 256;
#X obj 269 263 nbx 2 12 1 32 0 0 \$0-step_14 \$0-step_14-set empty
0 -8 0 10 -203904 -45076 -45076 15 256;
#X obj 281 251 nbx 2 12 1 32 0 0 \$0-step_15 \$0-step_15-set empty
0 -8 0 10 -167488 -13330 -13330 1 256;
#X obj 293 263 nbx 2 12 1 32 0 0 \$0-step_16 \$0-step_16-set empty
0 -8 0 10 -163818 -13330 -13330 15 256;
#X obj 308 251 nbx 2 12 1 32 0 0 \$0-step_17 \$0-step_17-set empty
0 -8 0 10 -232576 -45076 -45076 1 256;
#X obj 319 263 nbx 2 12 1 32 0 0 \$0-step_18 \$0-step_18-set empty
0 -8 0 10 -203904 -45076 -45076 15 256;
#X obj 331 251 nbx 2 12 1 32 0 0 \$0-step_19 \$0-step_19-set empty
0 -8 0 10 -167488 -13330 -13330 1 256;
#X obj 343 263 nbx 2 12 1 32 0 0 \$0-step_20 \$0-step_20-set empty
0 -8 0 10 -163818 -13330 -13330 15 256;
#X obj 358 251 nbx 2 12 1 32 0 0 \$0-step_21 \$0-step_21-set empty
0 -8 0 10 -232576 -45076 -45076 1 256;
#X obj 369 263 nbx 2 12 1 32 0 0 \$0-step_22 \$0-step_22-set empty
0 -8 0 10 -203904 -45076 -45076 15 256;
#X obj 381 251 nbx 2 12 1 32 0 0 \$0-step_23 \$0-step_23-set empty
0 -8 0 10 -167488 -13330 -13330 1 256;
#X obj 393 263 nbx 2 12 1 32 0 0 \$0-step_24 \$0-step_24-set empty
0 -8 0 10 -163818 -13330 -13330 15 256;
#X obj 408 251 nbx 2 12 1 32 0 0 \$0-step_25 \$0-step_25-set empty
0 -8 0 10 -232576 -45076 -45076 1 256;
#X obj 419 263 nbx 2 12 1 32 0 0 \$0-step_26 \$0-step_26-set empty
0 -8 0 10 -203904 -45076 -45076 15 256;
#X obj 431 251 nbx 2 12 1 32 0 0 \$0-step_27 \$0-step_27-set empty
0 -8 0 10 -167488 -13330 -13330 1 256;
#X obj 443 263 nbx 2 12 1 32 0 0 \$0-step_28 \$0-step_28-set empty
0 -8 0 10 -163818 -13330 -13330 15 256;
#X obj 458 251 nbx 2 12 1 32 0 0 \$0-step_29 \$0-step_29-set empty
0 -8 0 10 -232576 -45076 -45076 1 256;
#X obj 469 263 nbx 2 12 1 32 0 0 \$0-step_30 \$0-step_30-set empty
0 -8 0 10 -203904 -45076 -45076 15 256;
#X obj 481 251 nbx 2 12 1 32 0 0 \$0-step_31 \$0-step_31-set empty
0 -8 0 10 -167488 -13330 -13330 1 256;
#X obj 493 263 nbx 2 12 1 32 0 0 \$0-step_32 \$0-step_32-set steps
20 -6 0 10 -163818 -13330 -13330 15 256;
#X obj 597 251 r \$0-duration;
#X obj 521 471 cup;
#X msg 586 468 1;
#X obj 545 490 sel 1;
#X obj 545 509 del 0;
#X obj 545 471 >= 32;
#X obj 516 423 == 1;
#X obj 516 447 sel 1;
#N canvas 15 94 450 509 retrieve_values 0;
#N canvas 15 92 450 300 read 0;
#X obj 88 91 r \$0-v1-num;
#X obj 73 112 f;
#X obj 73 41 sel 1;
#X obj 73 21 r \$0-count;
#X obj 73 132 s \$0-out;
#X obj 201 92 r \$0-step_1;
#X obj 186 113 f;
#X obj 186 133 s \$0-duration;
#X obj 73 64 t b b;
#X connect 0 0 1 1;
#X connect 1 0 4 0;
#X connect 2 0 8 0;
#X connect 3 0 2 0;
#X connect 5 0 6 1;
#X connect 6 0 7 0;
#X connect 8 0 1 0;
#X connect 8 1 6 0;
#X restore 44 51 pd read;
#N canvas 15 92 450 300 read 0;
#X obj 88 91 r \$0-v2-num;
#X obj 73 112 f;
#X obj 73 41 sel 2;
#X obj 73 21 r \$0-count;
#X obj 73 132 s \$0-out;
#X obj 201 92 r \$0-step_2;
#X obj 186 113 f;
#X obj 186 133 s \$0-duration;
#X obj 73 64 t b b;
#X connect 0 0 1 1;
#X connect 1 0 4 0;
#X connect 2 0 8 0;
#X connect 3 0 2 0;
#X connect 5 0 6 1;
#X connect 6 0 7 0;
#X connect 8 0 1 0;
#X connect 8 1 6 0;
#X restore 54 61 pd read;
#N canvas 15 92 450 300 read 0;
#X obj 88 91 r \$0-v3-num;
#X obj 73 112 f;
#X obj 73 41 sel 3;
#X obj 73 21 r \$0-count;
#X obj 73 132 s \$0-out;
#X obj 201 92 r \$0-step_3;
#X obj 186 113 f;
#X obj 186 133 s \$0-duration;
#X obj 73 64 t b b;
#X connect 0 0 1 1;
#X connect 1 0 4 0;
#X connect 2 0 8 0;
#X connect 3 0 2 0;
#X connect 5 0 6 1;
#X connect 6 0 7 0;
#X connect 8 0 1 0;
#X connect 8 1 6 0;
#X restore 64 71 pd read;
#N canvas 15 92 450 300 read 0;
#X obj 88 91 r \$0-v4-num;
#X obj 73 112 f;
#X obj 73 41 sel 4;
#X obj 73 21 r \$0-count;
#X obj 73 132 s \$0-out;
#X obj 201 92 r \$0-step_4;
#X obj 186 113 f;
#X obj 186 133 s \$0-duration;
#X obj 73 64 t b b;
#X connect 0 0 1 1;
#X connect 1 0 4 0;
#X connect 2 0 8 0;
#X connect 3 0 2 0;
#X connect 5 0 6 1;
#X connect 6 0 7 0;
#X connect 8 0 1 0;
#X connect 8 1 6 0;
#X restore 74 81 pd read;
#N canvas 15 92 450 300 read 0;
#X obj 88 91 r \$0-v5-num;
#X obj 73 112 f;
#X obj 73 41 sel 5;
#X obj 73 21 r \$0-count;
#X obj 73 132 s \$0-out;
#X obj 201 92 r \$0-step_5;
#X obj 186 113 f;
#X obj 186 133 s \$0-duration;
#X obj 73 64 t b b;
#X connect 0 0 1 1;
#X connect 1 0 4 0;
#X connect 2 0 8 0;
#X connect 3 0 2 0;
#X connect 5 0 6 1;
#X connect 6 0 7 0;
#X connect 8 0 1 0;
#X connect 8 1 6 0;
#X restore 84 91 pd read;
#N canvas 15 92 450 300 read 0;
#X obj 88 91 r \$0-v6-num;
#X obj 73 112 f;
#X obj 73 41 sel 6;
#X obj 73 21 r \$0-count;
#X obj 73 132 s \$0-out;
#X obj 201 92 r \$0-step_6;
#X obj 186 113 f;
#X obj 186 133 s \$0-duration;
#X obj 73 64 t b b;
#X connect 0 0 1 1;
#X connect 1 0 4 0;
#X connect 2 0 8 0;
#X connect 3 0 2 0;
#X connect 5 0 6 1;
#X connect 6 0 7 0;
#X connect 8 0 1 0;
#X connect 8 1 6 0;
#X restore 94 101 pd read;
#N canvas 15 92 450 300 read 0;
#X obj 88 91 r \$0-v7-num;
#X obj 73 112 f;
#X obj 73 41 sel 7;
#X obj 73 21 r \$0-count;
#X obj 73 132 s \$0-out;
#X obj 201 92 r \$0-step_7;
#X obj 186 113 f;
#X obj 186 133 s \$0-duration;
#X obj 73 64 t b b;
#X connect 0 0 1 1;
#X connect 1 0 4 0;
#X connect 2 0 8 0;
#X connect 3 0 2 0;
#X connect 5 0 6 1;
#X connect 6 0 7 0;
#X connect 8 0 1 0;
#X connect 8 1 6 0;
#X restore 104 111 pd read;
#N canvas 15 92 450 300 read 0;
#X obj 88 91 r \$0-v8-num;
#X obj 73 112 f;
#X obj 73 41 sel 8;
#X obj 73 21 r \$0-count;
#X obj 73 132 s \$0-out;
#X obj 201 92 r \$0-step_8;
#X obj 186 113 f;
#X obj 186 133 s \$0-duration;
#X obj 73 64 t b b;
#X connect 0 0 1 1;
#X connect 1 0 4 0;
#X connect 2 0 8 0;
#X connect 3 0 2 0;
#X connect 5 0 6 1;
#X connect 6 0 7 0;
#X connect 8 0 1 0;
#X connect 8 1 6 0;
#X restore 114 121 pd read;
#N canvas 15 92 450 300 read 0;
#X obj 88 91 r \$0-v9-num;
#X obj 73 112 f;
#X obj 73 41 sel 9;
#X obj 73 21 r \$0-count;
#X obj 73 132 s \$0-out;
#X obj 201 92 r \$0-step_9;
#X obj 186 113 f;
#X obj 186 133 s \$0-duration;
#X obj 73 64 t b b;
#X connect 0 0 1 1;
#X connect 1 0 4 0;
#X connect 2 0 8 0;
#X connect 3 0 2 0;
#X connect 5 0 6 1;
#X connect 6 0 7 0;
#X connect 8 0 1 0;
#X connect 8 1 6 0;
#X restore 124 131 pd read;
#N canvas 15 92 450 300 read 0;
#X obj 88 91 r \$0-v10-num;
#X obj 73 112 f;
#X obj 73 41 sel 10;
#X obj 73 21 r \$0-count;
#X obj 73 132 s \$0-out;
#X obj 201 92 r \$0-step_10;
#X obj 186 113 f;
#X obj 186 133 s \$0-duration;
#X obj 73 64 t b b;
#X connect 0 0 1 1;
#X connect 1 0 4 0;
#X connect 2 0 8 0;
#X connect 3 0 2 0;
#X connect 5 0 6 1;
#X connect 6 0 7 0;
#X connect 8 0 1 0;
#X connect 8 1 6 0;
#X restore 134 141 pd read;
#N canvas 15 92 450 300 read 0;
#X obj 88 91 r \$0-v11-num;
#X obj 73 112 f;
#X obj 73 41 sel 11;
#X obj 73 21 r \$0-count;
#X obj 73 132 s \$0-out;
#X obj 201 92 r \$0-step_11;
#X obj 186 113 f;
#X obj 186 133 s \$0-duration;
#X obj 73 64 t b b;
#X connect 0 0 1 1;
#X connect 1 0 4 0;
#X connect 2 0 8 0;
#X connect 3 0 2 0;
#X connect 5 0 6 1;
#X connect 6 0 7 0;
#X connect 8 0 1 0;
#X connect 8 1 6 0;
#X restore 144 151 pd read;
#N canvas 15 92 450 300 read 0;
#X obj 88 91 r \$0-v12-num;
#X obj 73 112 f;
#X obj 73 41 sel 12;
#X obj 73 21 r \$0-count;
#X obj 73 132 s \$0-out;
#X obj 201 92 r \$0-step_12;
#X obj 186 113 f;
#X obj 186 133 s \$0-duration;
#X obj 73 64 t b b;
#X connect 0 0 1 1;
#X connect 1 0 4 0;
#X connect 2 0 8 0;
#X connect 3 0 2 0;
#X connect 5 0 6 1;
#X connect 6 0 7 0;
#X connect 8 0 1 0;
#X connect 8 1 6 0;
#X restore 154 161 pd read;
#N canvas 15 92 450 300 read 0;
#X obj 88 91 r \$0-v13-num;
#X obj 73 112 f;
#X obj 73 41 sel 13;
#X obj 73 21 r \$0-count;
#X obj 73 132 s \$0-out;
#X obj 201 92 r \$0-step_13;
#X obj 186 113 f;
#X obj 186 133 s \$0-duration;
#X obj 73 64 t b b;
#X connect 0 0 1 1;
#X connect 1 0 4 0;
#X connect 2 0 8 0;
#X connect 3 0 2 0;
#X connect 5 0 6 1;
#X connect 6 0 7 0;
#X connect 8 0 1 0;
#X connect 8 1 6 0;
#X restore 164 171 pd read;
#N canvas 15 92 450 300 read 0;
#X obj 88 91 r \$0-v14-num;
#X obj 73 112 f;
#X obj 73 41 sel 14;
#X obj 73 21 r \$0-count;
#X obj 73 132 s \$0-out;
#X obj 201 92 r \$0-step_14;
#X obj 186 113 f;
#X obj 186 133 s \$0-duration;
#X obj 73 64 t b b;
#X connect 0 0 1 1;
#X connect 1 0 4 0;
#X connect 2 0 8 0;
#X connect 3 0 2 0;
#X connect 5 0 6 1;
#X connect 6 0 7 0;
#X connect 8 0 1 0;
#X connect 8 1 6 0;
#X restore 174 181 pd read;
#N canvas 15 92 450 300 read 0;
#X obj 88 91 r \$0-v15-num;
#X obj 73 112 f;
#X obj 73 41 sel 15;
#X obj 73 21 r \$0-count;
#X obj 73 132 s \$0-out;
#X obj 201 92 r \$0-step_15;
#X obj 186 113 f;
#X obj 186 133 s \$0-duration;
#X obj 73 64 t b b;
#X connect 0 0 1 1;
#X connect 1 0 4 0;
#X connect 2 0 8 0;
#X connect 3 0 2 0;
#X connect 5 0 6 1;
#X connect 6 0 7 0;
#X connect 8 0 1 0;
#X connect 8 1 6 0;
#X restore 184 191 pd read;
#N canvas 15 92 450 300 read 0;
#X obj 88 91 r \$0-v16-num;
#X obj 73 112 f;
#X obj 73 41 sel 16;
#X obj 73 21 r \$0-count;
#X obj 73 132 s \$0-out;
#X obj 201 92 r \$0-step_16;
#X obj 186 113 f;
#X obj 186 133 s \$0-duration;
#X obj 73 64 t b b;
#X connect 0 0 1 1;
#X connect 1 0 4 0;
#X connect 2 0 8 0;
#X connect 3 0 2 0;
#X connect 5 0 6 1;
#X connect 6 0 7 0;
#X connect 8 0 1 0;
#X connect 8 1 6 0;
#X restore 194 201 pd read;
#N canvas 15 92 450 300 read 0;
#X obj 88 91 r \$0-v17-num;
#X obj 73 112 f;
#X obj 73 41 sel 17;
#X obj 73 21 r \$0-count;
#X obj 73 132 s \$0-out;
#X obj 201 92 r \$0-step_17;
#X obj 186 113 f;
#X obj 186 133 s \$0-duration;
#X obj 73 64 t b b;
#X connect 0 0 1 1;
#X connect 1 0 4 0;
#X connect 2 0 8 0;
#X connect 3 0 2 0;
#X connect 5 0 6 1;
#X connect 6 0 7 0;
#X connect 8 0 1 0;
#X connect 8 1 6 0;
#X restore 204 211 pd read;
#N canvas 15 92 450 300 read 0;
#X obj 88 91 r \$0-v18-num;
#X obj 73 112 f;
#X obj 73 41 sel 18;
#X obj 73 21 r \$0-count;
#X obj 73 132 s \$0-out;
#X obj 201 92 r \$0-step_18;
#X obj 186 113 f;
#X obj 186 133 s \$0-duration;
#X obj 73 64 t b b;
#X connect 0 0 1 1;
#X connect 1 0 4 0;
#X connect 2 0 8 0;
#X connect 3 0 2 0;
#X connect 5 0 6 1;
#X connect 6 0 7 0;
#X connect 8 0 1 0;
#X connect 8 1 6 0;
#X restore 214 221 pd read;
#N canvas 15 92 450 300 read 0;
#X obj 88 91 r \$0-v19-num;
#X obj 73 112 f;
#X obj 73 41 sel 19;
#X obj 73 21 r \$0-count;
#X obj 73 132 s \$0-out;
#X obj 201 92 r \$0-step_19;
#X obj 186 113 f;
#X obj 186 133 s \$0-duration;
#X obj 73 64 t b b;
#X connect 0 0 1 1;
#X connect 1 0 4 0;
#X connect 2 0 8 0;
#X connect 3 0 2 0;
#X connect 5 0 6 1;
#X connect 6 0 7 0;
#X connect 8 0 1 0;
#X connect 8 1 6 0;
#X restore 224 231 pd read;
#N canvas 15 92 450 300 read 0;
#X obj 88 91 r \$0-v20-num;
#X obj 73 112 f;
#X obj 73 41 sel 20;
#X obj 73 21 r \$0-count;
#X obj 73 132 s \$0-out;
#X obj 201 92 r \$0-step_20;
#X obj 186 113 f;
#X obj 186 133 s \$0-duration;
#X obj 73 64 t b b;
#X connect 0 0 1 1;
#X connect 1 0 4 0;
#X connect 2 0 8 0;
#X connect 3 0 2 0;
#X connect 5 0 6 1;
#X connect 6 0 7 0;
#X connect 8 0 1 0;
#X connect 8 1 6 0;
#X restore 234 241 pd read;
#N canvas 15 92 450 300 read 0;
#X obj 88 91 r \$0-v21-num;
#X obj 73 112 f;
#X obj 73 41 sel 21;
#X obj 73 21 r \$0-count;
#X obj 73 132 s \$0-out;
#X obj 201 92 r \$0-step_21;
#X obj 186 113 f;
#X obj 186 133 s \$0-duration;
#X obj 73 64 t b b;
#X connect 0 0 1 1;
#X connect 1 0 4 0;
#X connect 2 0 8 0;
#X connect 3 0 2 0;
#X connect 5 0 6 1;
#X connect 6 0 7 0;
#X connect 8 0 1 0;
#X connect 8 1 6 0;
#X restore 244 251 pd read;
#N canvas 15 92 450 300 read 0;
#X obj 88 91 r \$0-v22-num;
#X obj 73 112 f;
#X obj 73 41 sel 22;
#X obj 73 21 r \$0-count;
#X obj 73 132 s \$0-out;
#X obj 201 92 r \$0-step_22;
#X obj 186 113 f;
#X obj 186 133 s \$0-duration;
#X obj 73 64 t b b;
#X connect 0 0 1 1;
#X connect 1 0 4 0;
#X connect 2 0 8 0;
#X connect 3 0 2 0;
#X connect 5 0 6 1;
#X connect 6 0 7 0;
#X connect 8 0 1 0;
#X connect 8 1 6 0;
#X restore 254 261 pd read;
#N canvas 20 115 450 300 read 0;
#X obj 88 91 r \$0-v23-num;
#X obj 73 112 f;
#X obj 73 41 sel 23;
#X obj 73 21 r \$0-count;
#X obj 73 132 s \$0-out;
#X obj 201 92 r \$0-step_23;
#X obj 186 113 f;
#X obj 186 133 s \$0-duration;
#X obj 73 64 t b b;
#X connect 0 0 1 1;
#X connect 1 0 4 0;
#X connect 2 0 8 0;
#X connect 3 0 2 0;
#X connect 5 0 6 1;
#X connect 6 0 7 0;
#X connect 8 0 1 0;
#X connect 8 1 6 0;
#X restore 264 271 pd read;
#N canvas 15 92 450 300 read 0;
#X obj 88 91 r \$0-v24-num;
#X obj 73 112 f;
#X obj 73 41 sel 24;
#X obj 73 21 r \$0-count;
#X obj 73 132 s \$0-out;
#X obj 201 92 r \$0-step_24;
#X obj 186 113 f;
#X obj 186 133 s \$0-duration;
#X obj 73 64 t b b;
#X connect 0 0 1 1;
#X connect 1 0 4 0;
#X connect 2 0 8 0;
#X connect 3 0 2 0;
#X connect 5 0 6 1;
#X connect 6 0 7 0;
#X connect 8 0 1 0;
#X connect 8 1 6 0;
#X restore 274 281 pd read;
#N canvas 15 92 450 300 read 0;
#X obj 88 91 r \$0-v25-num;
#X obj 73 112 f;
#X obj 73 41 sel 25;
#X obj 73 21 r \$0-count;
#X obj 73 132 s \$0-out;
#X obj 201 92 r \$0-step_25;
#X obj 186 113 f;
#X obj 186 133 s \$0-duration;
#X obj 73 64 t b b;
#X connect 0 0 1 1;
#X connect 1 0 4 0;
#X connect 2 0 8 0;
#X connect 3 0 2 0;
#X connect 5 0 6 1;
#X connect 6 0 7 0;
#X connect 8 0 1 0;
#X connect 8 1 6 0;
#X restore 284 291 pd read;
#N canvas 15 92 450 300 read 0;
#X obj 88 91 r \$0-v26-num;
#X obj 73 112 f;
#X obj 73 41 sel 26;
#X obj 73 21 r \$0-count;
#X obj 73 132 s \$0-out;
#X obj 201 92 r \$0-step_26;
#X obj 186 113 f;
#X obj 186 133 s \$0-duration;
#X obj 73 64 t b b;
#X connect 0 0 1 1;
#X connect 1 0 4 0;
#X connect 2 0 8 0;
#X connect 3 0 2 0;
#X connect 5 0 6 1;
#X connect 6 0 7 0;
#X connect 8 0 1 0;
#X connect 8 1 6 0;
#X restore 294 301 pd read;
#N canvas 15 92 450 300 read 0;
#X obj 88 91 r \$0-v27-num;
#X obj 73 112 f;
#X obj 73 41 sel 27;
#X obj 73 21 r \$0-count;
#X obj 73 132 s \$0-out;
#X obj 201 92 r \$0-step_27;
#X obj 186 113 f;
#X obj 186 133 s \$0-duration;
#X obj 73 64 t b b;
#X connect 0 0 1 1;
#X connect 1 0 4 0;
#X connect 2 0 8 0;
#X connect 3 0 2 0;
#X connect 5 0 6 1;
#X connect 6 0 7 0;
#X connect 8 0 1 0;
#X connect 8 1 6 0;
#X restore 304 311 pd read;
#N canvas 20 115 450 300 read 0;
#X obj 88 91 r \$0-v28-num;
#X obj 73 112 f;
#X obj 73 41 sel 28;
#X obj 73 21 r \$0-count;
#X obj 73 132 s \$0-out;
#X obj 201 92 r \$0-step_28;
#X obj 186 113 f;
#X obj 186 133 s \$0-duration;
#X obj 73 64 t b b;
#X connect 0 0 1 1;
#X connect 1 0 4 0;
#X connect 2 0 8 0;
#X connect 3 0 2 0;
#X connect 5 0 6 1;
#X connect 6 0 7 0;
#X connect 8 0 1 0;
#X connect 8 1 6 0;
#X restore 314 321 pd read;
#N canvas 15 92 450 300 read 0;
#X obj 88 91 r \$0-v29-num;
#X obj 73 112 f;
#X obj 73 41 sel 29;
#X obj 73 21 r \$0-count;
#X obj 73 132 s \$0-out;
#X obj 201 92 r \$0-step_29;
#X obj 186 113 f;
#X obj 186 133 s \$0-duration;
#X obj 73 64 t b b;
#X connect 0 0 1 1;
#X connect 1 0 4 0;
#X connect 2 0 8 0;
#X connect 3 0 2 0;
#X connect 5 0 6 1;
#X connect 6 0 7 0;
#X connect 8 0 1 0;
#X connect 8 1 6 0;
#X restore 324 331 pd read;
#N canvas 15 92 450 300 read 0;
#X obj 88 91 r \$0-v30-num;
#X obj 73 112 f;
#X obj 73 41 sel 30;
#X obj 73 21 r \$0-count;
#X obj 73 132 s \$0-out;
#X obj 201 92 r \$0-step_30;
#X obj 186 113 f;
#X obj 186 133 s \$0-duration;
#X obj 73 64 t b b;
#X connect 0 0 1 1;
#X connect 1 0 4 0;
#X connect 2 0 8 0;
#X connect 3 0 2 0;
#X connect 5 0 6 1;
#X connect 6 0 7 0;
#X connect 8 0 1 0;
#X connect 8 1 6 0;
#X restore 334 341 pd read;
#N canvas 15 92 450 300 read 0;
#X obj 88 91 r \$0-v31-num;
#X obj 73 112 f;
#X obj 73 41 sel 31;
#X obj 73 21 r \$0-count;
#X obj 73 132 s \$0-out;
#X obj 201 92 r \$0-step_31;
#X obj 186 113 f;
#X obj 186 133 s \$0-duration;
#X obj 73 64 t b b;
#X connect 0 0 1 1;
#X connect 1 0 4 0;
#X connect 2 0 8 0;
#X connect 3 0 2 0;
#X connect 5 0 6 1;
#X connect 6 0 7 0;
#X connect 8 0 1 0;
#X connect 8 1 6 0;
#X restore 344 351 pd read;
#N canvas 20 115 450 300 read 0;
#X obj 88 91 r \$0-v32-num;
#X obj 73 112 f;
#X obj 73 41 sel 32;
#X obj 73 21 r \$0-count;
#X obj 73 132 s \$0-out;
#X obj 201 92 r \$0-step_32;
#X obj 186 113 f;
#X obj 186 133 s \$0-duration;
#X obj 73 64 t b b;
#X connect 0 0 1 1;
#X connect 1 0 4 0;
#X connect 2 0 8 0;
#X connect 3 0 2 0;
#X connect 5 0 6 1;
#X connect 6 0 7 0;
#X connect 8 0 1 0;
#X connect 8 1 6 0;
#X restore 354 361 pd read;
#X restore 86 328 pd retrieve_values;
#X floatatom 601 291 5 0 0 0 - - -;
#X msg 724 222 1;
#X obj 784 34 r \$0-reset;
#X msg 751 252 12;
#X obj 522 224 bng 12 250 50 0 \$0-reset \$0-reset-set reset -8 -6
0 10 -13381 -204786 -13381;
#N canvas 0 0 450 300 sets 0;
#X obj 69 91 inlet;
#N canvas 0 22 1090 623 valsets 0;
#X obj 89 65 inlet;
#X obj 81 143 route 1 2 3 4 5 6 7 8 9 10 11 12 13 14 15 16;
#X obj 400 142 route 17 18 19 20 21 22 23 24 25 26 27 28 29 30 31 32
;
#X obj 81 487 s \$0-v1-set;
#X obj 96 470 s \$0-v2-set;
#X obj 111 453 s \$0-v3-set;
#X obj 126 436 s \$0-v4-set;
#X obj 139 419 s \$0-v5-set;
#X obj 154 402 s \$0-v6-set;
#X obj 169 385 s \$0-v7-set;
#X obj 184 368 s \$0-v8-set;
#X obj 199 351 s \$0-v9-set;
#X obj 214 334 s \$0-v10-set;
#X obj 229 317 s \$0-v11-set;
#X obj 244 300 s \$0-v12-set;
#X obj 257 283 s \$0-v13-set;
#X obj 272 266 s \$0-v14-set;
#X obj 287 249 s \$0-v15-set;
#X obj 302 232 s \$0-v16-set;
#X obj 461 487 s \$0-v17-set;
#X obj 476 470 s \$0-v18-set;
#X obj 491 453 s \$0-v19-set;
#X obj 506 436 s \$0-v20-set;
#X obj 519 419 s \$0-v21-set;
#X obj 534 402 s \$0-v22-set;
#X obj 549 385 s \$0-v23-set;
#X obj 564 368 s \$0-v24-set;
#X obj 579 351 s \$0-v25-set;
#X obj 594 334 s \$0-v26-set;
#X obj 609 317 s \$0-v27-set;
#X obj 624 300 s \$0-v28-set;
#X obj 637 283 s \$0-v29-set;
#X obj 652 266 s \$0-v30-set;
#X obj 667 249 s \$0-v31-set;
#X obj 682 232 s \$0-v32-set;
#X connect 0 0 1 0;
#X connect 1 0 3 0;
#X connect 1 1 4 0;
#X connect 1 2 5 0;
#X connect 1 3 6 0;
#X connect 1 4 7 0;
#X connect 1 5 8 0;
#X connect 1 6 9 0;
#X connect 1 7 10 0;
#X connect 1 8 11 0;
#X connect 1 9 12 0;
#X connect 1 10 13 0;
#X connect 1 11 14 0;
#X connect 1 12 15 0;
#X connect 1 13 16 0;
#X connect 1 14 17 0;
#X connect 1 15 18 0;
#X connect 1 16 2 0;
#X connect 2 0 19 0;
#X connect 2 1 20 0;
#X connect 2 2 21 0;
#X connect 2 3 22 0;
#X connect 2 4 23 0;
#X connect 2 5 24 0;
#X connect 2 6 25 0;
#X connect 2 7 26 0;
#X connect 2 8 27 0;
#X connect 2 9 28 0;
#X connect 2 10 29 0;
#X connect 2 11 30 0;
#X connect 2 12 31 0;
#X connect 2 13 32 0;
#X connect 2 14 33 0;
#X connect 2 15 34 0;
#X restore 64 212 pd valsets;
#N canvas 0 22 1090 623 dursets 0;
#X obj 89 65 inlet;
#X obj 81 143 route 1 2 3 4 5 6 7 8 9 10 11 12 13 14 15 16;
#X obj 400 142 route 17 18 19 20 21 22 23 24 25 26 27 28 29 30 31 32
;
#X obj 81 487 s \$0-step_1-set;
#X obj 96 470 s \$0-step_2-set;
#X obj 111 453 s \$0-step_3-set;
#X obj 126 436 s \$0-step_4-set;
#X obj 139 419 s \$0-step_5-set;
#X obj 154 402 s \$0-step_6-set;
#X obj 169 385 s \$0-step_7-set;
#X obj 184 368 s \$0-step_8-set;
#X obj 199 351 s \$0-step_9-set;
#X obj 214 334 s \$0-step_10-set;
#X obj 229 317 s \$0-step_11-set;
#X obj 244 300 s \$0-step_12-set;
#X obj 257 283 s \$0-step_13-set;
#X obj 272 266 s \$0-step_14-set;
#X obj 287 249 s \$0-step_15-set;
#X obj 302 232 s \$0-step_16-set;
#X obj 461 487 s \$0-step_17-set;
#X obj 476 470 s \$0-step_18-set;
#X obj 491 453 s \$0-step_19-set;
#X obj 506 436 s \$0-step_20-set;
#X obj 519 419 s \$0-step_21-set;
#X obj 534 402 s \$0-step_22-set;
#X obj 549 385 s \$0-step_23-set;
#X obj 564 368 s \$0-step_24-set;
#X obj 579 351 s \$0-step_25-set;
#X obj 594 334 s \$0-step_26-set;
#X obj 609 317 s \$0-step_27-set;
#X obj 624 300 s \$0-step_28-set;
#X obj 637 283 s \$0-step_29-set;
#X obj 652 266 s \$0-step_30-set;
#X obj 667 249 s \$0-step_31-set;
#X obj 682 232 s \$0-step_32-set;
#X connect 0 0 1 0;
#X connect 1 0 3 0;
#X connect 1 1 4 0;
#X connect 1 2 5 0;
#X connect 1 3 6 0;
#X connect 1 4 7 0;
#X connect 1 5 8 0;
#X connect 1 6 9 0;
#X connect 1 7 10 0;
#X connect 1 8 11 0;
#X connect 1 9 12 0;
#X connect 1 10 13 0;
#X connect 1 11 14 0;
#X connect 1 12 15 0;
#X connect 1 13 16 0;
#X connect 1 14 17 0;
#X connect 1 15 18 0;
#X connect 1 16 2 0;
#X connect 2 0 19 0;
#X connect 2 1 20 0;
#X connect 2 2 21 0;
#X connect 2 3 22 0;
#X connect 2 4 23 0;
#X connect 2 5 24 0;
#X connect 2 6 25 0;
#X connect 2 7 26 0;
#X connect 2 8 27 0;
#X connect 2 9 28 0;
#X connect 2 10 29 0;
#X connect 2 11 30 0;
#X connect 2 12 31 0;
#X connect 2 13 32 0;
#X connect 2 14 33 0;
#X connect 2 15 34 0;
#X restore 132 212 pd dursets;
#X obj 63 129 route setval setdur;
#X connect 0 0 3 0;
#X connect 3 0 1 0;
#X connect 3 1 2 0;
#X restore 850 359 pd sets;
#X obj 769 302 route reset random length;
#N canvas 88 202 450 398 record 0;
#X obj 47 32 inlet;
#X obj 47 76 unpack f f f;
#X obj 236 85 r \$0-no_repeat;
#X obj 103 136 spigot;
#X obj 136 115 == 0;
#X obj 192 139 spigot;
#X obj 192 162 change;
#X obj 47 54 spigot;
#X obj 129 33 r \$0-record;
#X obj 45 186 spigot;
#X msg 161 184 1;
#X obj 134 60 sel 1;
#X msg 149 85 set -1;
#X msg 134 186 0;
#X obj 253 191 spigot;
#X msg 212 188 1;
#X msg 186 189 0;
#X obj 47 104 t f f;
#X obj 287 142 loadbang;
#X obj 46 290 cup;
#X obj 44 218 t b f b;
#X obj 249 211 t b;
#X obj 165 224 t b;
#X obj 291 283 cup;
#X text 322 284 position;
#X text 70 271 steps;
#X obj 297 237 t b;
#X msg 344 217 1;
#X obj 245 164 sel 1 0;
#X obj 244 141 f;
#X obj 68 159 spigot;
#N canvas 0 22 1090 623 valsets 0;
#X obj 89 65 inlet;
#X obj 81 143 route 1 2 3 4 5 6 7 8 9 10 11 12 13 14 15 16;
#X obj 400 142 route 17 18 19 20 21 22 23 24 25 26 27 28 29 30 31 32
;
#X obj 81 487 s \$0-v1-set;
#X obj 96 470 s \$0-v2-set;
#X obj 111 453 s \$0-v3-set;
#X obj 126 436 s \$0-v4-set;
#X obj 139 419 s \$0-v5-set;
#X obj 154 402 s \$0-v6-set;
#X obj 169 385 s \$0-v7-set;
#X obj 184 368 s \$0-v8-set;
#X obj 199 351 s \$0-v9-set;
#X obj 214 334 s \$0-v10-set;
#X obj 229 317 s \$0-v11-set;
#X obj 244 300 s \$0-v12-set;
#X obj 257 283 s \$0-v13-set;
#X obj 272 266 s \$0-v14-set;
#X obj 287 249 s \$0-v15-set;
#X obj 302 232 s \$0-v16-set;
#X obj 461 487 s \$0-v17-set;
#X obj 476 470 s \$0-v18-set;
#X obj 491 453 s \$0-v19-set;
#X obj 506 436 s \$0-v20-set;
#X obj 519 419 s \$0-v21-set;
#X obj 534 402 s \$0-v22-set;
#X obj 549 385 s \$0-v23-set;
#X obj 564 368 s \$0-v24-set;
#X obj 579 351 s \$0-v25-set;
#X obj 594 334 s \$0-v26-set;
#X obj 609 317 s \$0-v27-set;
#X obj 624 300 s \$0-v28-set;
#X obj 637 283 s \$0-v29-set;
#X obj 652 266 s \$0-v30-set;
#X obj 667 249 s \$0-v31-set;
#X obj 682 232 s \$0-v32-set;
#X connect 0 0 1 0;
#X connect 1 0 3 0;
#X connect 1 1 4 0;
#X connect 1 2 5 0;
#X connect 1 3 6 0;
#X connect 1 4 7 0;
#X connect 1 5 8 0;
#X connect 1 6 9 0;
#X connect 1 7 10 0;
#X connect 1 8 11 0;
#X connect 1 9 12 0;
#X connect 1 10 13 0;
#X connect 1 11 14 0;
#X connect 1 12 15 0;
#X connect 1 13 16 0;
#X connect 1 14 17 0;
#X connect 1 15 18 0;
#X connect 1 16 2 0;
#X connect 2 0 19 0;
#X connect 2 1 20 0;
#X connect 2 2 21 0;
#X connect 2 3 22 0;
#X connect 2 4 23 0;
#X connect 2 5 24 0;
#X connect 2 6 25 0;
#X connect 2 7 26 0;
#X connect 2 8 27 0;
#X connect 2 9 28 0;
#X connect 2 10 29 0;
#X connect 2 11 30 0;
#X connect 2 12 31 0;
#X connect 2 13 32 0;
#X connect 2 14 33 0;
#X connect 2 15 34 0;
#X restore 166 362 pd valsets;
#N canvas 0 22 1090 623 dursets 0;
#X obj 89 65 inlet;
#X obj 81 143 route 1 2 3 4 5 6 7 8 9 10 11 12 13 14 15 16;
#X obj 400 142 route 17 18 19 20 21 22 23 24 25 26 27 28 29 30 31 32
;
#X obj 81 487 s \$0-step_1-set;
#X obj 96 470 s \$0-step_2-set;
#X obj 111 453 s \$0-step_3-set;
#X obj 126 436 s \$0-step_4-set;
#X obj 139 419 s \$0-step_5-set;
#X obj 154 402 s \$0-step_6-set;
#X obj 169 385 s \$0-step_7-set;
#X obj 184 368 s \$0-step_8-set;
#X obj 199 351 s \$0-step_9-set;
#X obj 214 334 s \$0-step_10-set;
#X obj 229 317 s \$0-step_11-set;
#X obj 244 300 s \$0-step_12-set;
#X obj 257 283 s \$0-step_13-set;
#X obj 272 266 s \$0-step_14-set;
#X obj 287 249 s \$0-step_15-set;
#X obj 302 232 s \$0-step_16-set;
#X obj 461 487 s \$0-step_17-set;
#X obj 476 470 s \$0-step_18-set;
#X obj 491 453 s \$0-step_19-set;
#X obj 506 436 s \$0-step_20-set;
#X obj 519 419 s \$0-step_21-set;
#X obj 534 402 s \$0-step_22-set;
#X obj 549 385 s \$0-step_23-set;
#X obj 564 368 s \$0-step_24-set;
#X obj 579 351 s \$0-step_25-set;
#X obj 594 334 s \$0-step_26-set;
#X obj 609 317 s \$0-step_27-set;
#X obj 624 300 s \$0-step_28-set;
#X obj 637 283 s \$0-step_29-set;
#X obj 652 266 s \$0-step_30-set;
#X obj 667 249 s \$0-step_31-set;
#X obj 682 232 s \$0-step_32-set;
#X connect 0 0 1 0;
#X connect 1 0 3 0;
#X connect 1 1 4 0;
#X connect 1 2 5 0;
#X connect 1 3 6 0;
#X connect 1 4 7 0;
#X connect 1 5 8 0;
#X connect 1 6 9 0;
#X connect 1 7 10 0;
#X connect 1 8 11 0;
#X connect 1 9 12 0;
#X connect 1 10 13 0;
#X connect 1 11 14 0;
#X connect 1 12 15 0;
#X connect 1 13 16 0;
#X connect 1 14 17 0;
#X connect 1 15 18 0;
#X connect 1 16 2 0;
#X connect 2 0 19 0;
#X connect 2 1 20 0;
#X connect 2 2 21 0;
#X connect 2 3 22 0;
#X connect 2 4 23 0;
#X connect 2 5 24 0;
#X connect 2 6 25 0;
#X connect 2 7 26 0;
#X connect 2 8 27 0;
#X connect 2 9 28 0;
#X connect 2 10 29 0;
#X connect 2 11 30 0;
#X connect 2 12 31 0;
#X connect 2 13 32 0;
#X connect 2 14 33 0;
#X connect 2 15 34 0;
#X restore 50 362 pd dursets;
#X obj 166 312 swap;
#X obj 166 333 pack;
#X obj 50 317 swap;
#X obj 50 338 pack;
#X obj 247 355 del 0;
#X msg 291 358 0;
#X obj 327 359 s \$0-record-set;
#X obj 334 28 key;
#X floatatom 334 51 5 0 0 0 - - -;
#X obj 345 80 sel 32;
#X obj 336 333 s \$0-position-set;
#X obj 119 333 outlet;
#X obj 19 293 f;
#X obj 93 100 + 1;
#N canvas 0 0 450 300 spig 0;
#X obj 295 55 inlet;
#X obj 136 121 == 0;
#X obj 94 152 spigot 1;
#X obj 95 61 inlet;
#X obj 218 150 spigot;
#X obj 99 179 outlet;
#X obj 216 180 outlet;
#X connect 0 0 1 0;
#X connect 0 0 4 1;
#X connect 1 0 2 1;
#X connect 2 0 5 0;
#X connect 3 0 2 0;
#X connect 3 0 4 0;
#X connect 4 0 6 0;
#X restore 20 256 pd spig;
#X obj 100 217 r \$0-step;
#X msg 95 250 1;
#X msg 343 106 -1;
#X obj 270 330 sel 1;
#X obj 290 304 > 32;
#X connect 0 0 7 0;
#X connect 1 0 17 0;
#X connect 1 2 46 0;
#X connect 2 0 4 0;
#X connect 2 0 5 1;
#X connect 2 0 29 1;
#X connect 3 0 26 0;
#X connect 4 0 3 1;
#X connect 4 0 30 1;
#X connect 5 0 6 0;
#X connect 6 0 10 0;
#X connect 6 0 16 0;
#X connect 6 0 22 0;
#X connect 6 0 26 0;
#X connect 7 0 1 0;
#X connect 8 0 7 1;
#X connect 8 0 11 0;
#X connect 9 0 13 0;
#X connect 9 0 15 0;
#X connect 9 0 20 0;
#X connect 10 0 9 1;
#X connect 11 0 12 0;
#X connect 11 0 27 0;
#X connect 11 0 29 0;
#X connect 12 0 6 0;
#X connect 13 0 9 1;
#X connect 14 0 21 0;
#X connect 15 0 14 1;
#X connect 16 0 14 1;
#X connect 17 0 9 0;
#X connect 17 0 14 0;
#X connect 17 0 30 0;
#X connect 17 0 44 0;
#X connect 17 1 3 0;
#X connect 17 1 5 0;
#X connect 19 0 35 0;
#X connect 20 0 47 0;
#X connect 20 1 33 0;
#X connect 20 2 49 0;
#X connect 21 0 19 0;
#X connect 23 0 33 1;
#X connect 23 0 35 1;
#X connect 23 0 43 0;
#X connect 23 0 52 0;
#X connect 26 0 23 0;
#X connect 27 0 23 0;
#X connect 28 0 10 0;
#X connect 28 0 16 0;
#X connect 28 1 16 0;
#X connect 28 1 13 0;
#X connect 29 0 28 0;
#X connect 30 0 33 0;
#X connect 33 0 34 0;
#X connect 33 1 34 1;
#X connect 34 0 31 0;
#X connect 35 0 36 0;
#X connect 35 1 36 1;
#X connect 36 0 32 0;
#X connect 37 0 38 0;
#X connect 38 0 39 0;
#X connect 40 0 41 0;
#X connect 41 0 42 0;
#X connect 42 0 50 0;
#X connect 45 0 35 0;
#X connect 46 0 45 1;
#X connect 47 0 45 0;
#X connect 47 1 19 0;
#X connect 48 0 47 1;
#X connect 49 0 19 0;
#X connect 50 0 17 0;
#X connect 51 0 37 0;
#X connect 52 0 51 0;
#X restore 778 500 pd record;
#X obj 255 45 tgl 12 0 \$0-no_repeat \$0-no_repeat-set no_repeat 15
6 0 10 -232576 -45076 -45076 1 1;
#X obj 186 45 tgl 12 0 \$0-record \$0-record-set record 15 6 0 10 -261234
-86277 -86277 0 1;
#X obj 236 447 s \$0-no_repeat-set;
#X msg 235 420 1;
#X obj 235 398 loadbang;
#X obj 472 45 nbx 2 12 1 32 0 0 \$0-position \$0-position-set empty
0 -8 0 12 -46149 -196199 -13381 26 256;
#X obj 402 519 s \$0-position-set;
#X obj 329 45 tgl 12 0 \$0-thru \$0-thru-set thru 15 6 0 10 -188032
-13330 -13330 0 1;
#X obj 834 465 r \$0-thru;
#X obj 856 489 s \$0-record-set;
#X obj 912 467 s \$0-no_repeat-set;
#X obj 939 444 s \$0-thru-set;
#X obj 767 533 spigot;
#N canvas 0 0 1509 880 reframe_values_steps 0;
#X obj 28 803 t f f;
#X obj 55 822 s \$0-v1-set;
#X obj 28 839 s \$0-v1;
#X obj 43 746 t f f;
#X obj 58 689 t f f;
#X obj 73 632 t f f;
#X obj 104 803 t f f;
#X obj 119 746 t f f;
#X obj 134 689 t f f;
#X obj 149 632 t f f;
#X obj 180 803 t f f;
#X obj 195 746 t f f;
#X obj 210 689 t f f;
#X obj 225 632 t f f;
#X obj 256 803 t f f;
#X obj 271 746 t f f;
#X obj 286 689 t f f;
#X obj 301 632 t f f;
#X obj 43 782 s \$0-v2;
#X obj 70 765 s \$0-v2-set;
#X obj 58 725 s \$0-v3;
#X obj 85 708 s \$0-v3-set;
#X obj 73 668 s \$0-v4;
#X obj 100 651 s \$0-v4-set;
#X obj 104 839 s \$0-v5;
#X obj 131 822 s \$0-v5-set;
#X obj 119 782 s \$0-v6;
#X obj 146 765 s \$0-v6-set;
#X obj 134 725 s \$0-v7;
#X obj 161 708 s \$0-v7-set;
#X obj 149 668 s \$0-v8;
#X obj 176 651 s \$0-v8-set;
#X obj 180 839 s \$0-v9;
#X obj 207 822 s \$0-v9-set;
#X obj 195 782 s \$0-v10;
#X obj 222 765 s \$0-v10-set;
#X obj 210 725 s \$0-v11;
#X obj 237 708 s \$0-v11-set;
#X obj 225 668 s \$0-v12;
#X obj 252 651 s \$0-v12-set;
#X obj 256 839 s \$0-v13;
#X obj 283 822 s \$0-v13-set;
#X obj 271 782 s \$0-v14;
#X obj 298 765 s \$0-v14-set;
#X obj 286 725 s \$0-v15;
#X obj 313 708 s \$0-v15-set;
#X obj 301 668 s \$0-v16;
#X obj 328 651 s \$0-v16-set;
#X obj 473 27 r \$0-length;
#X obj 338 803 t f f;
#X obj 353 746 t f f;
#X obj 368 689 t f f;
#X obj 383 632 t f f;
#X obj 414 803 t f f;
#X obj 429 746 t f f;
#X obj 444 689 t f f;
#X obj 459 632 t f f;
#X obj 490 803 t f f;
#X obj 505 746 t f f;
#X obj 520 689 t f f;
#X obj 535 632 t f f;
#X obj 566 803 t f f;
#X obj 581 746 t f f;
#X obj 596 689 t f f;
#X obj 611 632 t f f;
#X obj 338 839 s \$0-v17;
#X obj 365 822 s \$0-v17-set;
#X obj 353 782 s \$0-v18;
#X obj 380 765 s \$0-v18-set;
#X obj 368 725 s \$0-v19;
#X obj 395 708 s \$0-v19-set;
#X obj 383 668 s \$0-v20;
#X obj 410 651 s \$0-v20-set;
#X obj 414 839 s \$0-v21;
#X obj 441 822 s \$0-v21-set;
#X obj 429 782 s \$0-v22;
#X obj 456 765 s \$0-v22-set;
#X obj 444 725 s \$0-v23;
#X obj 471 708 s \$0-v23-set;
#X obj 459 668 s \$0-v24;
#X obj 486 651 s \$0-v24-set;
#X obj 490 839 s \$0-v25;
#X obj 517 822 s \$0-v25-set;
#X obj 505 782 s \$0-v26;
#X obj 532 765 s \$0-v26-set;
#X obj 520 725 s \$0-v27;
#X obj 547 708 s \$0-v27-set;
#X obj 535 668 s \$0-v28;
#X obj 562 651 s \$0-v28-set;
#X obj 566 839 s \$0-v29;
#X obj 593 822 s \$0-v29-set;
#X obj 581 782 s \$0-v30;
#X obj 608 765 s \$0-v30-set;
#X obj 596 725 s \$0-v31;
#X obj 623 708 s \$0-v31-set;
#X obj 611 668 s \$0-v32;
#X obj 638 651 s \$0-v32-set;
#X obj 736 646 s \$0-step_1-set;
#X obj 746 665 s \$0-step_2-set;
#X obj 756 685 s \$0-step_3-set;
#X obj 766 705 s \$0-step_4-set;
#X obj 776 725 s \$0-step_5-set;
#X obj 786 745 s \$0-step_6-set;
#X obj 830 646 s \$0-step_7-set;
#X obj 840 665 s \$0-step_8-set;
#X obj 850 685 s \$0-step_9-set;
#X obj 860 704 s \$0-step_10-set;
#X obj 870 725 s \$0-step_11-set;
#X obj 880 745 s \$0-step_12-set;
#X obj 930 646 s \$0-step_13-set;
#X obj 940 665 s \$0-step_14-set;
#X obj 950 685 s \$0-step_15-set;
#X obj 960 705 s \$0-step_16-set;
#X obj 970 725 s \$0-step_17-set;
#X obj 980 745 s \$0-step_18-set;
#X obj 1030 646 s \$0-step_19-set;
#X obj 1040 665 s \$0-step_20-set;
#X obj 1050 685 s \$0-step_21-set;
#X obj 1060 705 s \$0-step_22-set;
#X obj 1070 725 s \$0-step_23-set;
#X obj 1080 745 s \$0-step_24-set;
#X obj 1151 685 s \$0-step_25-set;
#X obj 1161 705 s \$0-step_26-set;
#X obj 1171 725 s \$0-step_27-set;
#X obj 1181 745 s \$0-step_28-set;
#X obj 1231 646 s \$0-step_29-set;
#X obj 1241 665 s \$0-step_30-set;
#X obj 1251 685 s \$0-step_31-set;
#X obj 1261 705 s \$0-step_32-set;
#X obj 46 595 route 1 2 3 4 5 6 7 8 9 10 11 12 13 14 15 16 17 18 19
20 21 22 23 24 25 26 27 28 29 30 31 32;
#X obj 46 339 unpack;
#X obj 103 346 r \$0-reframe_values;
#X obj 103 386 t f b;
#X obj 103 427 pipe 300;
#X msg 123 408 clear;
#X obj 103 457 + 32;
#X obj 103 477 % 32;
#X msg 34 299 1 \$1;
#X msg 44 282 2 \$1;
#X msg 54 265 3 \$1;
#X msg 64 248 4 \$1;
#X obj 34 160 f;
#X obj 44 180 f;
#X obj 54 200 f;
#X obj 64 220 f;
#X obj 46 515 +;
#X obj 46 495 - 1;
#X obj 46 555 + 1;
#X obj 46 535 % 32;
#X obj 102 497 t b f;
#X obj 11 9 kalashnikov 32;
#X obj 50 34 sel 0 1 2 3 4 5 6 7 8 9 10 11 12 13 14 15 16 17 18 19
20 21 22 23 24 25 26 27 28 29 30 31;
#X obj 46 575 pack;
#X obj 320 364 < 0;
#X obj 124 160 f;
#X obj 134 180 f;
#X obj 144 200 f;
#X obj 154 220 f;
#X obj 214 160 f;
#X obj 224 180 f;
#X obj 234 200 f;
#X obj 244 220 f;
#X obj 304 160 f;
#X obj 314 180 f;
#X obj 324 200 f;
#X obj 334 220 f;
#X obj 394 160 f;
#X obj 404 180 f;
#X obj 414 200 f;
#X obj 424 220 f;
#X obj 484 160 f;
#X obj 494 180 f;
#X obj 504 200 f;
#X obj 514 220 f;
#X obj 574 160 f;
#X obj 584 180 f;
#X obj 594 200 f;
#X obj 604 220 f;
#X obj 664 160 f;
#X obj 674 180 f;
#X obj 684 200 f;
#X obj 694 220 f;
#X msg 124 299 5 \$1;
#X msg 134 282 6 \$1;
#X msg 144 265 7 \$1;
#X msg 154 248 8 \$1;
#X msg 214 299 9 \$1;
#X msg 224 282 10 \$1;
#X msg 234 265 11 \$1;
#X msg 244 248 12 \$1;
#X msg 304 299 13 \$1;
#X msg 314 282 14 \$1;
#X msg 324 265 15 \$1;
#X msg 334 248 16 \$1;
#X msg 394 299 17 \$1;
#X msg 404 282 18 \$1;
#X msg 414 265 19 \$1;
#X msg 424 248 20 \$1;
#X msg 484 299 21 \$1;
#X msg 494 282 22 \$1;
#X msg 504 265 23 \$1;
#X msg 514 248 24 \$1;
#X msg 574 299 25 \$1;
#X msg 584 282 26 \$1;
#X msg 594 265 27 \$1;
#X msg 604 248 28 \$1;
#X msg 664 299 29 \$1;
#X msg 674 282 30 \$1;
#X msg 684 265 31 \$1;
#X msg 694 248 32 \$1;
#N canvas 0 0 450 300 invert 0;
#X obj 74 70 inlet;
#X obj 243 65 inlet;
#X obj 160 136 == 0;
#X obj 123 181 spigot 1;
#X obj 222 183 spigot;
#X obj 222 204 t b f;
#X obj 222 246 -;
#X obj 151 279 outlet;
#X obj 312 185 - 1;
#X obj 339 142 r \$0-length;
#X obj 222 225 31;
#X connect 0 0 3 0;
#X connect 0 0 4 0;
#X connect 1 0 2 0;
#X connect 1 0 4 1;
#X connect 2 0 3 1;
#X connect 3 0 7 0;
#X connect 4 0 5 0;
#X connect 5 0 10 0;
#X connect 5 1 6 1;
#X connect 6 0 7 0;
#X connect 8 0 10 1;
#X connect 9 0 8 0;
#X connect 10 0 6 0;
#X restore 115 12 pd invert;
#X obj 1193 27 r \$0-length;
#X obj 766 595 route 1 2 3 4 5 6 7 8 9 10 11 12 13 14 15 16 17 18 19
20 21 22 23 24 25 26 27 28 29 30 31 32;
#X obj 766 339 unpack;
#X obj 823 386 t f b;
#X obj 823 427 pipe 300;
#X msg 843 408 clear;
#X obj 823 457 + 32;
#X obj 823 477 % 32;
#X msg 754 299 1 \$1;
#X msg 764 282 2 \$1;
#X msg 774 265 3 \$1;
#X msg 784 248 4 \$1;
#X obj 754 160 f;
#X obj 764 180 f;
#X obj 774 200 f;
#X obj 784 220 f;
#X obj 766 515 +;
#X obj 766 495 - 1;
#X obj 766 555 + 1;
#X obj 766 535 % 32;
#X obj 823 497 t b f;
#X obj 731 9 kalashnikov 32;
#X obj 770 34 sel 0 1 2 3 4 5 6 7 8 9 10 11 12 13 14 15 16 17 18 19
20 21 22 23 24 25 26 27 28 29 30 31;
#X obj 766 575 pack;
#X obj 1040 367 < 0;
#X obj 844 160 f;
#X obj 854 180 f;
#X obj 864 200 f;
#X obj 874 220 f;
#X obj 934 160 f;
#X obj 944 180 f;
#X obj 954 200 f;
#X obj 964 220 f;
#X obj 1024 160 f;
#X obj 1034 180 f;
#X obj 1044 200 f;
#X obj 1054 220 f;
#X obj 1114 160 f;
#X obj 1124 180 f;
#X obj 1134 200 f;
#X obj 1144 220 f;
#X obj 1204 160 f;
#X obj 1214 180 f;
#X obj 1224 200 f;
#X obj 1234 220 f;
#X obj 1294 160 f;
#X obj 1304 180 f;
#X obj 1314 200 f;
#X obj 1324 220 f;
#X obj 1384 160 f;
#X obj 1394 180 f;
#X obj 1404 200 f;
#X obj 1414 220 f;
#X msg 844 299 5 \$1;
#X msg 854 282 6 \$1;
#X msg 864 265 7 \$1;
#X msg 874 248 8 \$1;
#X msg 934 299 9 \$1;
#X msg 944 282 10 \$1;
#X msg 954 265 11 \$1;
#X msg 964 248 12 \$1;
#X msg 1024 299 13 \$1;
#X msg 1034 282 14 \$1;
#X msg 1044 265 15 \$1;
#X msg 1054 248 16 \$1;
#X msg 1114 299 17 \$1;
#X msg 1124 282 18 \$1;
#X msg 1134 265 19 \$1;
#X msg 1144 248 20 \$1;
#X msg 1204 299 21 \$1;
#X msg 1214 282 22 \$1;
#X msg 1224 265 23 \$1;
#X msg 1234 248 24 \$1;
#X msg 1294 299 25 \$1;
#X msg 1304 282 26 \$1;
#X msg 1314 265 27 \$1;
#X msg 1324 248 28 \$1;
#X msg 1384 299 29 \$1;
#X msg 1394 282 30 \$1;
#X msg 1404 265 31 \$1;
#X msg 1414 248 32 \$1;
#N canvas 0 0 450 300 invert 0;
#X obj 74 70 inlet;
#X obj 243 65 inlet;
#X obj 160 136 == 0;
#X obj 123 181 spigot 1;
#X obj 222 183 spigot;
#X obj 222 204 t b f;
#X obj 222 246 -;
#X obj 151 279 outlet;
#X obj 312 185 - 1;
#X obj 339 142 r \$0-length;
#X obj 222 225 31;
#X connect 0 0 3 0;
#X connect 0 0 4 0;
#X connect 1 0 2 0;
#X connect 1 0 4 1;
#X connect 2 0 3 1;
#X connect 3 0 7 0;
#X connect 4 0 5 0;
#X connect 5 0 10 0;
#X connect 5 1 6 1;
#X connect 6 0 7 0;
#X connect 8 0 10 1;
#X connect 9 0 8 0;
#X connect 10 0 6 0;
#X restore 838 8 pd invert;
#X obj 823 346 r \$0-reframe_rhythm;
#X msg 198 9 set 0;
#X msg 913 9 set 0;
#X obj 255 9 s \$0-reframe_values-set;
#X floatatom 215 428 5 0 0 0 - - -;
#X obj 104 564 print;
#N canvas 0 0 785 300 getit----------------------------------------------------
0;
#X obj 10 20 r \$0-v1-num;
#X obj 20 40 r \$0-v2-num;
#X obj 30 60 r \$0-v3-num;
#X obj 40 80 r \$0-v4-num;
#X obj 100 20 r \$0-v5-num;
#X obj 110 40 r \$0-v6-num;
#X obj 120 60 r \$0-v7-num;
#X obj 130 80 r \$0-v8-num;
#X obj 190 20 r \$0-v9-num;
#X obj 200 40 r \$0-v10-num;
#X obj 210 60 r \$0-v11-num;
#X obj 220 80 r \$0-v12-num;
#X obj 280 20 r \$0-v13-num;
#X obj 290 40 r \$0-v14-num;
#X obj 300 60 r \$0-v15-num;
#X obj 310 80 r \$0-v16-num;
#X obj 370 20 r \$0-v17-num;
#X obj 380 40 r \$0-v18-num;
#X obj 390 60 r \$0-v19-num;
#X obj 400 80 r \$0-v20-num;
#X obj 459 20 r \$0-v21-num;
#X obj 470 40 r \$0-v22-num;
#X obj 480 60 r \$0-v23-num;
#X obj 490 80 r \$0-v24-num;
#X obj 550 20 r \$0-v25-num;
#X obj 560 40 r \$0-v26-num;
#X obj 570 60 r \$0-v27-num;
#X obj 580 80 r \$0-v28-num;
#X obj 640 20 r \$0-v29-num;
#X obj 650 40 r \$0-v30-num;
#X obj 660 60 r \$0-v31-num;
#X obj 670 80 r \$0-v32-num;
#X obj 162 113 pack f f f f f f f f f f f f f f f f f f f f f f f f
f f f f f f f f;
#X obj 78 127 inlet;
#X obj 142 178 lister;
#X obj 20 210 unpack f f f f f f f f f f f f f f f f f f f f f f f
f f f f f f f f f;
#X obj 20 260 outlet;
#X obj 75 260 outlet;
#X obj 130 260 outlet;
#X obj 185 260 outlet;
#X obj 240 260 outlet;
#X obj 295 260 outlet;
#X obj 350 260 outlet;
#X obj 405 260 outlet;
#X obj 460 260 outlet;
#X obj 515 260 outlet;
#X obj 570 260 outlet;
#X obj 625 260 outlet;
#X obj 680 260 outlet;
#X obj 735 260 outlet;
#X obj 790 260 outlet;
#X obj 845 260 outlet;
#X obj 900 260 outlet;
#X obj 955 260 outlet;
#X obj 1010 260 outlet;
#X obj 1065 260 outlet;
#X obj 1120 260 outlet;
#X obj 1175 260 outlet;
#X obj 1230 260 outlet;
#X obj 1285 260 outlet;
#X obj 1340 260 outlet;
#X obj 1395 260 outlet;
#X obj 1450 260 outlet;
#X obj 1505 260 outlet;
#X obj 1560 260 outlet;
#X obj 1615 260 outlet;
#X obj 1670 260 outlet;
#X obj 1725 260 outlet;
#X obj 131 112 b;
#X connect 0 0 32 0;
#X connect 1 0 32 1;
#X connect 1 0 68 0;
#X connect 2 0 32 2;
#X connect 2 0 68 0;
#X connect 3 0 32 3;
#X connect 3 0 68 0;
#X connect 4 0 32 4;
#X connect 4 0 68 0;
#X connect 5 0 32 5;
#X connect 5 0 68 0;
#X connect 6 0 32 6;
#X connect 6 0 68 0;
#X connect 7 0 32 7;
#X connect 7 0 68 0;
#X connect 8 0 32 8;
#X connect 8 0 68 0;
#X connect 9 0 32 9;
#X connect 9 0 68 0;
#X connect 10 0 32 10;
#X connect 10 0 68 0;
#X connect 11 0 32 11;
#X connect 11 0 68 0;
#X connect 12 0 32 12;
#X connect 12 0 68 0;
#X connect 13 0 32 13;
#X connect 13 0 68 0;
#X connect 14 0 32 14;
#X connect 14 0 68 0;
#X connect 15 0 32 15;
#X connect 15 0 68 0;
#X connect 16 0 32 16;
#X connect 16 0 68 0;
#X connect 17 0 32 17;
#X connect 17 0 68 0;
#X connect 18 0 32 18;
#X connect 18 0 68 0;
#X connect 19 0 32 19;
#X connect 19 0 68 0;
#X connect 20 0 32 20;
#X connect 20 0 68 0;
#X connect 21 0 32 21;
#X connect 21 0 68 0;
#X connect 22 0 32 22;
#X connect 22 0 68 0;
#X connect 23 0 32 23;
#X connect 23 0 68 0;
#X connect 24 0 32 24;
#X connect 24 0 68 0;
#X connect 25 0 32 25;
#X connect 25 0 68 0;
#X connect 26 0 32 26;
#X connect 26 0 68 0;
#X connect 27 0 32 27;
#X connect 27 0 68 0;
#X connect 28 0 32 28;
#X connect 28 0 68 0;
#X connect 29 0 32 29;
#X connect 29 0 68 0;
#X connect 30 0 32 30;
#X connect 30 0 68 0;
#X connect 31 0 32 30;
#X connect 31 0 68 0;
#X connect 32 0 34 1;
#X connect 33 0 34 0;
#X connect 34 0 35 0;
#X connect 35 0 36 0;
#X connect 35 1 37 0;
#X connect 35 2 38 0;
#X connect 35 3 39 0;
#X connect 35 4 40 0;
#X connect 35 5 41 0;
#X connect 35 6 42 0;
#X connect 35 7 43 0;
#X connect 35 8 44 0;
#X connect 35 9 45 0;
#X connect 35 10 46 0;
#X connect 35 11 47 0;
#X connect 35 12 48 0;
#X connect 35 13 49 0;
#X connect 35 14 50 0;
#X connect 35 15 51 0;
#X connect 35 16 52 0;
#X connect 35 17 53 0;
#X connect 35 18 54 0;
#X connect 35 19 55 0;
#X connect 35 20 56 0;
#X connect 35 21 57 0;
#X connect 35 22 58 0;
#X connect 35 23 59 0;
#X connect 35 24 60 0;
#X connect 35 25 61 0;
#X connect 35 26 62 0;
#X connect 35 27 63 0;
#X connect 35 28 64 0;
#X connect 35 29 65 0;
#X connect 35 30 66 0;
#X connect 35 31 67 0;
#X connect 68 0 32 0;
#X restore 207 99 pd getit----------------------------------------------------
;
#X obj 103 366 t f f b;
#N canvas 0 0 816 316 getthat--------------------------------------------------
0;
#X obj 30 40 r \$0-step_1;
#X obj 40 60 r \$0-step_2;
#X obj 50 80 r \$0-step_3;
#X obj 60 100 r \$0-step_4;
#X obj 120 40 r \$0-step_5;
#X obj 130 60 r \$0-step_6;
#X obj 140 80 r \$0-step_7;
#X obj 150 100 r \$0-step_8;
#X obj 210 40 r \$0-step_9;
#X obj 220 60 r \$0-step_10;
#X obj 230 80 r \$0-step_11;
#X obj 240 100 r \$0-step_12;
#X obj 300 40 r \$0-step_13;
#X obj 310 60 r \$0-step_14;
#X obj 320 80 r \$0-step_15;
#X obj 330 100 r \$0-step_16;
#X obj 390 40 r \$0-step_17;
#X obj 400 60 r \$0-step_18;
#X obj 410 80 r \$0-step_19;
#X obj 420 100 r \$0-step_20;
#X obj 479 40 r \$0-step_21;
#X obj 490 60 r \$0-step_22;
#X obj 500 80 r \$0-step_23;
#X obj 510 100 r \$0-step_24;
#X obj 570 40 r \$0-step_25;
#X obj 580 60 r \$0-step_26;
#X obj 590 80 r \$0-step_27;
#X obj 600 100 r \$0-step_28;
#X obj 660 40 r \$0-step_29;
#X obj 670 60 r \$0-step_30;
#X obj 680 80 r \$0-step_31;
#X obj 690 100 r \$0-step_32;
#X obj 182 133 pack f f f f f f f f f f f f f f f f f f f f f f f f
f f f f f f f f;
#X obj 98 147 inlet;
#X obj 162 198 lister;
#X obj 40 230 unpack f f f f f f f f f f f f f f f f f f f f f f f
f f f f f f f f f;
#X obj 40 280 outlet;
#X obj 95 280 outlet;
#X obj 150 280 outlet;
#X obj 205 280 outlet;
#X obj 260 280 outlet;
#X obj 315 280 outlet;
#X obj 370 280 outlet;
#X obj 425 280 outlet;
#X obj 480 280 outlet;
#X obj 535 280 outlet;
#X obj 590 280 outlet;
#X obj 645 280 outlet;
#X obj 700 280 outlet;
#X obj 755 280 outlet;
#X obj 810 280 outlet;
#X obj 865 280 outlet;
#X obj 920 280 outlet;
#X obj 975 280 outlet;
#X obj 1030 280 outlet;
#X obj 1085 280 outlet;
#X obj 1140 280 outlet;
#X obj 1195 280 outlet;
#X obj 1250 280 outlet;
#X obj 1305 280 outlet;
#X obj 1360 280 outlet;
#X obj 1415 280 outlet;
#X obj 1470 280 outlet;
#X obj 1525 280 outlet;
#X obj 1580 280 outlet;
#X obj 1635 280 outlet;
#X obj 1690 280 outlet;
#X obj 1745 280 outlet;
#X obj 142 129 b;
#X connect 0 0 32 0;
#X connect 1 0 32 1;
#X connect 1 0 68 0;
#X connect 2 0 32 2;
#X connect 2 0 68 0;
#X connect 3 0 32 3;
#X connect 3 0 68 0;
#X connect 4 0 32 4;
#X connect 4 0 68 0;
#X connect 5 0 32 5;
#X connect 5 0 68 0;
#X connect 6 0 32 6;
#X connect 6 0 68 0;
#X connect 7 0 32 7;
#X connect 7 0 68 0;
#X connect 8 0 32 8;
#X connect 8 0 68 0;
#X connect 9 0 32 9;
#X connect 9 0 68 0;
#X connect 10 0 32 10;
#X connect 10 0 68 0;
#X connect 11 0 32 11;
#X connect 11 0 68 0;
#X connect 12 0 32 12;
#X connect 12 0 68 0;
#X connect 13 0 32 13;
#X connect 13 0 68 0;
#X connect 14 0 32 14;
#X connect 14 0 68 0;
#X connect 15 0 32 15;
#X connect 15 0 68 0;
#X connect 16 0 32 16;
#X connect 16 0 68 0;
#X connect 17 0 32 17;
#X connect 17 0 68 0;
#X connect 18 0 32 18;
#X connect 18 0 68 0;
#X connect 19 0 32 19;
#X connect 19 0 68 0;
#X connect 20 0 32 20;
#X connect 20 0 68 0;
#X connect 21 0 32 21;
#X connect 21 0 68 0;
#X connect 22 0 32 22;
#X connect 22 0 68 0;
#X connect 23 0 32 23;
#X connect 23 0 68 0;
#X connect 24 0 32 24;
#X connect 24 0 68 0;
#X connect 25 0 32 25;
#X connect 25 0 68 0;
#X connect 26 0 32 26;
#X connect 26 0 68 0;
#X connect 27 0 32 27;
#X connect 27 0 68 0;
#X connect 28 0 32 28;
#X connect 28 0 68 0;
#X connect 29 0 32 29;
#X connect 29 0 68 0;
#X connect 30 0 32 30;
#X connect 30 0 68 0;
#X connect 31 0 32 30;
#X connect 31 0 68 0;
#X connect 32 0 34 1;
#X connect 33 0 34 0;
#X connect 34 0 35 0;
#X connect 35 0 36 0;
#X connect 35 1 37 0;
#X connect 35 2 38 0;
#X connect 35 3 39 0;
#X connect 35 4 40 0;
#X connect 35 5 41 0;
#X connect 35 6 42 0;
#X connect 35 7 43 0;
#X connect 35 8 44 0;
#X connect 35 9 45 0;
#X connect 35 10 46 0;
#X connect 35 11 47 0;
#X connect 35 12 48 0;
#X connect 35 13 49 0;
#X connect 35 14 50 0;
#X connect 35 15 51 0;
#X connect 35 16 52 0;
#X connect 35 17 53 0;
#X connect 35 18 54 0;
#X connect 35 19 55 0;
#X connect 35 20 56 0;
#X connect 35 21 57 0;
#X connect 35 22 58 0;
#X connect 35 23 59 0;
#X connect 35 24 60 0;
#X connect 35 25 61 0;
#X connect 35 26 62 0;
#X connect 35 27 63 0;
#X connect 35 28 64 0;
#X connect 35 29 65 0;
#X connect 35 30 66 0;
#X connect 35 31 67 0;
#X connect 68 0 32 0;
#X restore 980 95 pd getthat--------------------------------------------------
;
#X obj 823 366 t f f b;
#X obj 985 9 s \$0-reframe_rhythm-set;
#X connect 0 0 2 0;
#X connect 0 1 1 0;
#X connect 3 0 18 0;
#X connect 3 1 19 0;
#X connect 4 0 20 0;
#X connect 4 1 21 0;
#X connect 5 0 22 0;
#X connect 5 1 23 0;
#X connect 6 0 24 0;
#X connect 6 1 25 0;
#X connect 7 0 26 0;
#X connect 7 1 27 0;
#X connect 8 0 28 0;
#X connect 8 1 29 0;
#X connect 9 0 30 0;
#X connect 9 1 31 0;
#X connect 10 0 32 0;
#X connect 10 1 33 0;
#X connect 11 0 34 0;
#X connect 11 1 35 0;
#X connect 12 0 36 0;
#X connect 12 1 37 0;
#X connect 13 0 38 0;
#X connect 13 1 39 0;
#X connect 14 0 40 0;
#X connect 14 1 41 0;
#X connect 15 0 42 0;
#X connect 15 1 43 0;
#X connect 16 0 44 0;
#X connect 16 1 45 0;
#X connect 17 0 46 0;
#X connect 17 1 47 0;
#X connect 48 0 135 1;
#X connect 48 0 136 1;
#X connect 48 0 148 1;
#X connect 48 0 150 1;
#X connect 49 0 65 0;
#X connect 49 1 66 0;
#X connect 50 0 67 0;
#X connect 50 1 68 0;
#X connect 51 0 69 0;
#X connect 51 1 70 0;
#X connect 52 0 71 0;
#X connect 52 1 72 0;
#X connect 53 0 73 0;
#X connect 53 1 74 0;
#X connect 54 0 75 0;
#X connect 54 1 76 0;
#X connect 55 0 77 0;
#X connect 55 1 78 0;
#X connect 56 0 79 0;
#X connect 56 1 80 0;
#X connect 57 0 81 0;
#X connect 57 1 82 0;
#X connect 58 0 83 0;
#X connect 58 1 84 0;
#X connect 59 0 85 0;
#X connect 59 1 86 0;
#X connect 60 0 87 0;
#X connect 60 1 88 0;
#X connect 61 0 89 0;
#X connect 61 1 90 0;
#X connect 62 0 91 0;
#X connect 62 1 92 0;
#X connect 63 0 93 0;
#X connect 63 1 94 0;
#X connect 64 0 95 0;
#X connect 64 1 96 0;
#X connect 129 0 0 0;
#X connect 129 1 3 0;
#X connect 129 2 4 0;
#X connect 129 3 5 0;
#X connect 129 4 6 0;
#X connect 129 5 7 0;
#X connect 129 6 8 0;
#X connect 129 7 9 0;
#X connect 129 8 10 0;
#X connect 129 9 11 0;
#X connect 129 10 12 0;
#X connect 129 11 13 0;
#X connect 129 12 14 0;
#X connect 129 13 15 0;
#X connect 129 14 16 0;
#X connect 129 15 17 0;
#X connect 129 16 49 0;
#X connect 129 17 50 0;
#X connect 129 18 51 0;
#X connect 129 19 52 0;
#X connect 129 20 53 0;
#X connect 129 21 54 0;
#X connect 129 22 55 0;
#X connect 129 23 56 0;
#X connect 129 24 57 0;
#X connect 129 25 58 0;
#X connect 129 26 59 0;
#X connect 129 27 60 0;
#X connect 129 28 61 0;
#X connect 129 29 62 0;
#X connect 129 30 63 0;
#X connect 129 31 64 0;
#X connect 130 0 146 0;
#X connect 130 1 152 1;
#X connect 131 0 300 0;
#X connect 132 0 133 0;
#X connect 132 1 134 0;
#X connect 133 0 135 0;
#X connect 134 0 133 0;
#X connect 135 0 136 0;
#X connect 136 0 149 0;
#X connect 137 0 130 0;
#X connect 138 0 130 0;
#X connect 139 0 130 0;
#X connect 140 0 130 0;
#X connect 141 0 137 0;
#X connect 142 0 138 0;
#X connect 143 0 139 0;
#X connect 144 0 140 0;
#X connect 145 0 148 0;
#X connect 146 0 145 0;
#X connect 147 0 152 0;
#X connect 148 0 147 0;
#X connect 149 0 150 0;
#X connect 149 1 145 1;
#X connect 150 1 210 0;
#X connect 150 2 294 0;
#X connect 151 0 141 0;
#X connect 151 1 142 0;
#X connect 151 2 143 0;
#X connect 151 3 144 0;
#X connect 151 4 154 0;
#X connect 151 5 155 0;
#X connect 151 6 156 0;
#X connect 151 7 157 0;
#X connect 151 8 158 0;
#X connect 151 9 159 0;
#X connect 151 10 160 0;
#X connect 151 11 161 0;
#X connect 151 12 162 0;
#X connect 151 13 163 0;
#X connect 151 14 164 0;
#X connect 151 15 165 0;
#X connect 151 16 166 0;
#X connect 151 17 167 0;
#X connect 151 18 168 0;
#X connect 151 19 169 0;
#X connect 151 20 170 0;
#X connect 151 21 171 0;
#X connect 151 22 172 0;
#X connect 151 23 173 0;
#X connect 151 24 174 0;
#X connect 151 25 175 0;
#X connect 151 26 176 0;
#X connect 151 27 177 0;
#X connect 151 28 178 0;
#X connect 151 29 179 0;
#X connect 151 30 180 0;
#X connect 151 31 181 0;
#X connect 152 0 129 0;
#X connect 152 0 298 0;
#X connect 153 0 210 1;
#X connect 154 0 182 0;
#X connect 155 0 183 0;
#X connect 156 0 184 0;
#X connect 157 0 185 0;
#X connect 158 0 186 0;
#X connect 159 0 187 0;
#X connect 160 0 188 0;
#X connect 161 0 189 0;
#X connect 162 0 190 0;
#X connect 163 0 191 0;
#X connect 164 0 192 0;
#X connect 165 0 193 0;
#X connect 166 0 194 0;
#X connect 167 0 195 0;
#X connect 168 0 196 0;
#X connect 169 0 197 0;
#X connect 170 0 198 0;
#X connect 171 0 199 0;
#X connect 172 0 200 0;
#X connect 173 0 201 0;
#X connect 174 0 202 0;
#X connect 175 0 203 0;
#X connect 176 0 204 0;
#X connect 177 0 205 0;
#X connect 178 0 206 0;
#X connect 179 0 207 0;
#X connect 180 0 208 0;
#X connect 181 0 209 0;
#X connect 182 0 130 0;
#X connect 183 0 130 0;
#X connect 184 0 130 0;
#X connect 185 0 130 0;
#X connect 186 0 130 0;
#X connect 187 0 130 0;
#X connect 188 0 130 0;
#X connect 189 0 130 0;
#X connect 190 0 130 0;
#X connect 191 0 130 0;
#X connect 192 0 130 0;
#X connect 193 0 130 0;
#X connect 194 0 130 0;
#X connect 195 0 130 0;
#X connect 196 0 130 0;
#X connect 197 0 130 0;
#X connect 198 0 130 0;
#X connect 199 0 130 0;
#X connect 200 0 130 0;
#X connect 201 0 130 0;
#X connect 202 0 130 0;
#X connect 203 0 130 0;
#X connect 204 0 130 0;
#X connect 205 0 130 0;
#X connect 206 0 130 0;
#X connect 207 0 130 0;
#X connect 208 0 130 0;
#X connect 209 0 130 0;
#X connect 210 0 151 0;
#X connect 211 0 217 1;
#X connect 211 0 218 1;
#X connect 211 0 230 1;
#X connect 211 0 232 1;
#X connect 212 0 97 0;
#X connect 212 1 98 0;
#X connect 212 2 99 0;
#X connect 212 3 100 0;
#X connect 212 4 101 0;
#X connect 212 5 102 0;
#X connect 212 6 103 0;
#X connect 212 7 104 0;
#X connect 212 8 105 0;
#X connect 212 9 106 0;
#X connect 212 10 107 0;
#X connect 212 11 108 0;
#X connect 212 12 109 0;
#X connect 212 13 110 0;
#X connect 212 14 111 0;
#X connect 212 15 112 0;
#X connect 212 16 113 0;
#X connect 212 17 114 0;
#X connect 212 18 115 0;
#X connect 212 19 116 0;
#X connect 212 20 117 0;
#X connect 212 21 118 0;
#X connect 212 22 119 0;
#X connect 212 23 120 0;
#X connect 212 24 121 0;
#X connect 212 25 122 0;
#X connect 212 26 123 0;
#X connect 212 27 124 0;
#X connect 212 28 125 0;
#X connect 212 29 126 0;
#X connect 212 30 127 0;
#X connect 212 31 128 0;
#X connect 213 0 228 0;
#X connect 213 1 234 1;
#X connect 214 0 215 0;
#X connect 214 1 216 0;
#X connect 215 0 217 0;
#X connect 216 0 215 0;
#X connect 217 0 218 0;
#X connect 218 0 231 0;
#X connect 219 0 213 0;
#X connect 220 0 213 0;
#X connect 221 0 213 0;
#X connect 222 0 213 0;
#X connect 223 0 219 0;
#X connect 224 0 220 0;
#X connect 225 0 221 0;
#X connect 226 0 222 0;
#X connect 227 0 230 0;
#X connect 228 0 227 0;
#X connect 229 0 234 0;
#X connect 230 0 229 0;
#X connect 231 0 232 0;
#X connect 231 1 227 1;
#X connect 232 1 292 0;
#X connect 232 2 295 0;
#X connect 233 0 223 0;
#X connect 233 1 224 0;
#X connect 233 2 225 0;
#X connect 233 3 226 0;
#X connect 233 4 236 0;
#X connect 233 5 237 0;
#X connect 233 6 238 0;
#X connect 233 7 239 0;
#X connect 233 8 240 0;
#X connect 233 9 241 0;
#X connect 233 10 242 0;
#X connect 233 11 243 0;
#X connect 233 12 244 0;
#X connect 233 13 245 0;
#X connect 233 14 246 0;
#X connect 233 15 247 0;
#X connect 233 16 248 0;
#X connect 233 17 249 0;
#X connect 233 18 250 0;
#X connect 233 19 251 0;
#X connect 233 20 252 0;
#X connect 233 21 253 0;
#X connect 233 22 254 0;
#X connect 233 23 255 0;
#X connect 233 24 256 0;
#X connect 233 25 257 0;
#X connect 233 26 258 0;
#X connect 233 27 259 0;
#X connect 233 28 260 0;
#X connect 233 29 261 0;
#X connect 233 30 262 0;
#X connect 233 31 263 0;
#X connect 234 0 212 0;
#X connect 235 0 292 1;
#X connect 236 0 264 0;
#X connect 237 0 265 0;
#X connect 238 0 266 0;
#X connect 239 0 267 0;
#X connect 240 0 268 0;
#X connect 241 0 269 0;
#X connect 242 0 270 0;
#X connect 243 0 271 0;
#X connect 244 0 272 0;
#X connect 245 0 273 0;
#X connect 246 0 274 0;
#X connect 247 0 275 0;
#X connect 248 0 276 0;
#X connect 249 0 277 0;
#X connect 250 0 278 0;
#X connect 251 0 279 0;
#X connect 252 0 280 0;
#X connect 253 0 281 0;
#X connect 254 0 282 0;
#X connect 255 0 283 0;
#X connect 256 0 284 0;
#X connect 257 0 285 0;
#X connect 258 0 286 0;
#X connect 259 0 287 0;
#X connect 260 0 288 0;
#X connect 261 0 289 0;
#X connect 262 0 290 0;
#X connect 263 0 291 0;
#X connect 264 0 213 0;
#X connect 265 0 213 0;
#X connect 266 0 213 0;
#X connect 267 0 213 0;
#X connect 268 0 213 0;
#X connect 269 0 213 0;
#X connect 270 0 213 0;
#X connect 271 0 213 0;
#X connect 272 0 213 0;
#X connect 273 0 213 0;
#X connect 274 0 213 0;
#X connect 275 0 213 0;
#X connect 276 0 213 0;
#X connect 277 0 213 0;
#X connect 278 0 213 0;
#X connect 279 0 213 0;
#X connect 280 0 213 0;
#X connect 281 0 213 0;
#X connect 282 0 213 0;
#X connect 283 0 213 0;
#X connect 284 0 213 0;
#X connect 285 0 213 0;
#X connect 286 0 213 0;
#X connect 287 0 213 0;
#X connect 288 0 213 0;
#X connect 289 0 213 0;
#X connect 290 0 213 0;
#X connect 291 0 213 0;
#X connect 292 0 233 0;
#X connect 293 0 302 0;
#X connect 294 0 296 0;
#X connect 295 0 303 0;
#X connect 299 0 141 1;
#X connect 299 1 142 1;
#X connect 299 2 143 1;
#X connect 299 3 144 1;
#X connect 299 4 154 1;
#X connect 299 5 155 1;
#X connect 299 6 156 1;
#X connect 299 7 157 1;
#X connect 299 8 158 1;
#X connect 299 9 159 1;
#X connect 299 10 160 1;
#X connect 299 11 161 1;
#X connect 299 12 162 1;
#X connect 299 13 163 1;
#X connect 299 14 164 1;
#X connect 299 15 165 1;
#X connect 299 16 166 1;
#X connect 299 17 167 1;
#X connect 299 18 168 1;
#X connect 299 19 169 1;
#X connect 299 20 170 1;
#X connect 299 21 171 1;
#X connect 299 22 172 1;
#X connect 299 23 173 1;
#X connect 299 24 174 1;
#X connect 299 25 175 1;
#X connect 299 26 176 1;
#X connect 299 27 177 1;
#X connect 299 28 178 1;
#X connect 299 29 179 1;
#X connect 299 30 180 1;
#X connect 299 31 181 1;
#X connect 300 0 132 0;
#X connect 300 1 153 0;
#X connect 300 1 297 0;
#X connect 300 2 299 0;
#X connect 301 0 223 1;
#X connect 301 1 224 1;
#X connect 301 2 225 1;
#X connect 301 3 226 1;
#X connect 301 4 236 1;
#X connect 301 5 237 1;
#X connect 301 6 238 1;
#X connect 301 7 239 1;
#X connect 301 8 240 1;
#X connect 301 9 241 1;
#X connect 301 10 242 1;
#X connect 301 11 243 1;
#X connect 301 12 244 1;
#X connect 301 13 245 1;
#X connect 301 14 246 1;
#X connect 301 15 247 1;
#X connect 301 16 248 1;
#X connect 301 17 249 1;
#X connect 301 18 250 1;
#X connect 301 19 251 1;
#X connect 301 20 252 1;
#X connect 301 21 253 1;
#X connect 301 22 254 1;
#X connect 301 23 255 1;
#X connect 301 24 256 1;
#X connect 301 25 257 1;
#X connect 301 26 258 1;
#X connect 301 27 259 1;
#X connect 301 28 260 1;
#X connect 301 29 261 1;
#X connect 301 30 262 1;
#X connect 301 31 263 1;
#X connect 302 0 214 0;
#X connect 302 1 235 0;
#X connect 302 2 301 0;
#X restore 847 185 pd reframe_values_steps;
#X obj 509 43 cnv 15 34 99 empty empty empty 20 12 0 14 -183672 -66577
0;
#X obj 512 53 nbx 3 12 0 120 0 0 empty empty empty -2 -6 0 7 -257472
-1109 -90133 0 256;
#X obj 512 76 nbx 3 12 0 7 0 0 \$0-patch-num \$0-patch-set select 0
-5 0 7 -17235 -261234 -17235 7 256;
#X obj 519 109 bng 12 250 50 0 \$0-store_patch \$0-store_patch-bng
store -3 -4 0 7 -17235 -262130 -17235;
#X obj 511 131 bng 10 250 50 0 \$0-patches_load \$0-patches_load-bng
load -1 -4 0 7 -2498 -262144 -13381;
#X obj 530 123 bng 10 250 50 0 \$0-patches_save \$0-patches_save-bng
save -4 15 0 7 -159809 -262144 -86277;
#X obj 512 53 nbx 3 12 0 120 0 0 \$0-patches-dummy \$0-patches-num
patches 0 -5 0 7 -17235 -203904 -17235 8 256;
#X obj 532 91 bng 8 250 50 0 \$0-store_plus \$0-store_plus-bng + -7
4 0 10 -17235 -198336 -17235;
#X obj 512 91 bng 8 250 50 0 \$0-store_minus \$0-store_minus-bng -
8 3 0 10 -17235 -257985 -17235;
#X obj 510 156 nbx 3 10 -31 31 0 0 \$0-reframe_values \$0-reframe_values-set
reframe -3 -4 0 8 -216704 -16662 -16662 0 256;
#X obj 510 169 nbx 3 10 -31 31 0 0 \$0-reframe_rhythm \$0-reframe_rhythm-set
empty -3 -4 0 8 -217082 -13381 -13381 0 256;
#X obj 562 398 >= 32;
#X obj 373 45 tgl 12 0 \$0-legato \$0-legato-set legato 15 6 0 10 -199872
-13330 -32800 1 1;
#X obj 67 438 change;
#X obj 95 460 > 0;
#X obj 95 482 sel 1;
#X obj 95 503 spigot;
#X obj 150 466 r \$0-legato;
#X obj 150 487 == 0;
#X msg 94 524 -1;
#X obj 28 435 t f f;
#X obj 275 425 s \$0-legato-set;
#X obj 428 45 tgl 12 0 \$0-loop \$0-loop-set loop 15 6 0 10 -216491
-13381 -13381 1 1;
#X obj 304 398 s \$0-loop-set;
#X obj 645 515 r \$0-loop;
#X msg 759 331 1;
#X obj 514 351 spigot 1;
#X obj 609 516 == 0;
#X obj 485 381 spigot;
#X msg 481 404 0;
#X obj 645 542 sel 1;
#X obj 808 419 route stepval record norepeat thru;
#X msg 633 462 pos \$1;
#X obj 454 555 r \$0-duration;
#X msg 472 580 duration \$1;
#X obj 207 20 tgl 12 0 \$0-step \$0-step-set step 15 6 0 10 -261234
-86277 -86277 0 1;
#X obj 108 207 bng 10 150 50 0 empty \$0-bng_1 empty 17 7 0 10 -1 -259024
-1;
#X obj 120 207 bng 10 150 50 0 empty \$0-bng_2 empty 17 7 0 10 -1 -259536
-1;
#X msg 230 543 240;
#X obj 230 567 / 32;
#X floatatom 232 597 0 0 0 0 - - -;
#X obj 132 207 bng 10 150 50 0 empty \$0-bng_3 empty 17 7 0 10 -1 -260176
-1;
#X obj 144 207 bng 10 150 50 0 empty \$0-bng_4 empty 17 7 0 10 -1 -260688
-1;
#X obj 158 207 bng 10 150 50 0 empty \$0-bng_5 empty 17 7 0 10 -1 -261328
-1;
#X obj 170 207 bng 10 150 50 0 empty \$0-bng_6 empty 17 7 0 10 -1 -261840
-1;
#X obj 182 207 bng 10 150 50 0 empty \$0-bng_7 empty 17 7 0 10 -1 -237520
-1;
#X obj 194 207 bng 10 150 50 0 empty \$0-bng_8 empty 17 7 0 10 -1 -200656
-1;
#X obj 208 207 bng 10 150 50 0 empty \$0-bng_9 empty 17 7 0 10 -1 -163792
-1;
#X obj 220 207 bng 10 150 50 0 empty \$0-bng_10 empty 17 7 0 10 -1
-126928 -1;
#X obj 232 207 bng 10 150 50 0 empty \$0-bng_11 empty 17 7 0 10 -1
-90064 -1;
#X obj 244 207 bng 10 150 50 0 empty \$0-bng_12 empty 17 7 0 10 -1
-65490 -1;
#X obj 258 207 bng 10 150 50 0 empty \$0-bng_13 empty 17 7 0 10 -1
-65500 -1;
#X obj 270 207 bng 10 150 50 0 empty \$0-bng_14 empty 17 7 0 10 -1
-65508 -1;
#X obj 282 207 bng 10 150 50 0 empty \$0-bng_15 empty 17 7 0 10 -1
-65518 -1;
#X obj 294 207 bng 10 150 50 0 empty \$0-bng_16 empty 17 7 0 10 -1
-65526 -1;
#X obj 308 207 bng 10 150 50 0 empty \$0-bng_17 empty 17 7 0 10 -1
-65536 -1;
#X obj 320 207 bng 10 150 50 0 empty \$0-bng_18 empty 17 7 0 10 -1
-64960 -1;
#X obj 332 207 bng 10 150 50 0 empty \$0-bng_19 empty 17 7 0 10 -1
-64384 -1;
#X obj 344 207 bng 10 150 50 0 empty \$0-bng_20 empty 17 7 0 10 -1
-63808 -1;
#X obj 358 207 bng 10 150 50 0 empty \$0-bng_21 empty 17 7 0 10 -1
-63232 -1;
#X obj 370 207 bng 10 150 50 0 empty \$0-bng_22 empty 17 7 0 10 -1
-62656 -1;
#X obj 382 207 bng 10 150 50 0 empty \$0-bng_23 empty 17 7 0 10 -1
-87040 -1;
#X obj 394 207 bng 10 150 50 0 empty \$0-bng_24 empty 17 7 0 10 -1
-119808 -1;
#X obj 408 207 bng 10 150 50 0 empty \$0-bng_25 empty 17 7 0 10 -1
-160768 -1;
#X obj 420 207 bng 10 150 50 0 empty \$0-bng_26 empty 17 7 0 10 -1
-193536 -1;
#X obj 432 207 bng 10 150 50 0 empty \$0-bng_27 empty 17 7 0 10 -1
-234496 -1;
#X obj 444 207 bng 10 150 50 0 empty \$0-bng_28 empty 17 7 0 10 -1
-259069 -1;
#X obj 458 207 bng 10 150 50 0 empty \$0-bng_29 empty 17 7 0 10 -1
-259060 -1;
#X obj 470 207 bng 10 150 50 0 empty \$0-bng_30 empty 17 7 0 10 -1
-259051 -1;
#X obj 482 207 bng 10 150 50 0 empty \$0-bng_31 empty 17 7 0 10 -1
-259042 -1;
#X obj 494 207 bng 10 150 50 0 empty \$0-bng_32 empty 17 7 0 10 -1
-259032 -1;
#N canvas 0 0 450 446 makedisplay 0;
#X obj 100 390 s pd-display;
#X obj 100 77 kalashnikov 32;
#X msg 249 67 clear;
#X obj 140 123 t f f f;
#X msg 249 178 obj 10 100 select 1 2 3 4 5 6 7 8 9 10 11 12 13 14 15
16 17 18 19 20 21 22 23 24 25 26 27 28 29 30 31 32;
#X msg 208 141 obj 10 10 inlet;
#X msg 235 213 connect 0 0 1 0;
#X obj 124 44 t b b b b b;
#X obj 249 240 makesymbol #0-bng_%s;
#X obj 182 192 * 60;
#X obj 208 274 pack f s;
#X obj 184 160 + 1;
#X obj 147 189 + 2;
#X msg 203 303 obj \$1 200 s \$2;
#X obj 100 219 pack f f;
#X msg 94 258 connect 1 \$1 \$2 0;
#X obj 121 19 bng 15 250 50 0 empty empty empty 17 7 0 10 -262144 -1
-1;
#X connect 1 1 3 0;
#X connect 2 0 0 0;
#X connect 3 0 14 0;
#X connect 3 1 9 0;
#X connect 3 1 12 0;
#X connect 3 2 11 0;
#X connect 4 0 0 0;
#X connect 5 0 0 0;
#X connect 6 0 0 0;
#X connect 7 0 1 0;
#X connect 7 1 6 0;
#X connect 7 2 4 0;
#X connect 7 3 5 0;
#X connect 7 4 2 0;
#X connect 8 0 10 1;
#X connect 9 0 10 0;
#X connect 10 0 13 0;
#X connect 11 0 8 0;
#X connect 12 0 14 1;
#X connect 13 0 0 0;
#X connect 14 0 15 0;
#X connect 15 0 0 0;
#X connect 16 0 7 0;
#X restore 862 109 pd makedisplay;
#N canvas 0 0 568 300 display 0;
#X obj 10 10 inlet;
#X obj 10 100 select 1 2 3 4 5 6 7 8 9 10 11 12 13 14 15 16 17 18 19
20 21 22 23 24 25 26 27 28 29 30 31 32;
#X obj 0 200 s \$0-bng_1;
#X obj 60 200 s \$0-bng_2;
#X obj 120 200 s \$0-bng_3;
#X obj 180 200 s \$0-bng_4;
#X obj 240 200 s \$0-bng_5;
#X obj 300 200 s \$0-bng_6;
#X obj 360 200 s \$0-bng_7;
#X obj 420 200 s \$0-bng_8;
#X obj 480 200 s \$0-bng_9;
#X obj 540 200 s \$0-bng_10;
#X obj 600 200 s \$0-bng_11;
#X obj 660 200 s \$0-bng_12;
#X obj 720 200 s \$0-bng_13;
#X obj 780 200 s \$0-bng_14;
#X obj 840 200 s \$0-bng_15;
#X obj 900 200 s \$0-bng_16;
#X obj 960 200 s \$0-bng_17;
#X obj 1020 200 s \$0-bng_18;
#X obj 1080 200 s \$0-bng_19;
#X obj 1140 200 s \$0-bng_20;
#X obj 1200 200 s \$0-bng_21;
#X obj 1260 200 s \$0-bng_22;
#X obj 1320 200 s \$0-bng_23;
#X obj 1380 200 s \$0-bng_24;
#X obj 1440 200 s \$0-bng_25;
#X obj 1500 200 s \$0-bng_26;
#X obj 1560 200 s \$0-bng_27;
#X obj 1620 200 s \$0-bng_28;
#X obj 1680 200 s \$0-bng_29;
#X obj 1740 200 s \$0-bng_30;
#X obj 1800 200 s \$0-bng_31;
#X obj 1860 200 s \$0-bng_32;
#X connect 0 0 1 0;
#X connect 1 0 2 0;
#X connect 1 1 3 0;
#X connect 1 2 4 0;
#X connect 1 3 5 0;
#X connect 1 4 6 0;
#X connect 1 5 7 0;
#X connect 1 6 8 0;
#X connect 1 7 9 0;
#X connect 1 8 10 0;
#X connect 1 9 11 0;
#X connect 1 10 12 0;
#X connect 1 11 13 0;
#X connect 1 12 14 0;
#X connect 1 13 15 0;
#X connect 1 14 16 0;
#X connect 1 15 17 0;
#X connect 1 16 18 0;
#X connect 1 17 19 0;
#X connect 1 18 20 0;
#X connect 1 19 21 0;
#X connect 1 20 22 0;
#X connect 1 21 23 0;
#X connect 1 22 24 0;
#X connect 1 23 25 0;
#X connect 1 24 26 0;
#X connect 1 25 27 0;
#X connect 1 26 28 0;
#X connect 1 27 29 0;
#X connect 1 28 30 0;
#X connect 1 29 31 0;
#X connect 1 30 32 0;
#X connect 1 31 33 0;
#X restore 880 159 pd display;
#X obj 881 134 r \$0-position;
#X msg 134 366;
#N canvas 89 60 602 394 makeunpack 0;
#X obj 128 50 bng 15 250 50 0 empty empty empty 17 7 0 10 -262144 -1
-1;
#X obj 129 76 t b b b;
#X msg 280 106 clear;
#X msg 240 252 obj 10 200 unpack f f f f f f f f f f f f f f f f f
f f f f f f f f f f f f f f f;
#X obj 113 167 t f f;
#X obj 88 134 kalashnikov 32;
#X obj 134 208 + 1;
#X obj 102 239 pack;
#X msg 96 265 connect 0 \$1 \$2 0;
#X obj 171 203 * 55;
#X obj 179 228 + 10;
#X obj 252 323 s pd-making;
#X msg 215 297 obj \$1 250 outlet;
#X connect 0 0 1 0;
#X connect 1 0 5 0;
#X connect 1 1 3 0;
#X connect 1 2 2 0;
#X connect 2 0 11 0;
#X connect 3 0 11 0;
#X connect 4 0 7 0;
#X connect 4 1 6 0;
#X connect 4 1 9 0;
#X connect 5 1 4 0;
#X connect 6 0 7 1;
#X connect 7 0 8 0;
#X connect 8 0 11 0;
#X connect 9 0 10 0;
#X connect 10 0 12 0;
#X connect 12 0 11 0;
#X restore 598 156 pd makeunpack;
#N canvas 0 0 450 300 making 0;
#X obj 10 200 unpack f f f f f f f f f f f f f f f f f f f f f f f
f f f f f f f f f;
#X obj 10 250 outlet;
#X obj 65 250 outlet;
#X obj 120 250 outlet;
#X obj 175 250 outlet;
#X obj 230 250 outlet;
#X obj 285 250 outlet;
#X obj 340 250 outlet;
#X obj 395 250 outlet;
#X obj 450 250 outlet;
#X obj 505 250 outlet;
#X obj 560 250 outlet;
#X obj 615 250 outlet;
#X obj 670 250 outlet;
#X obj 725 250 outlet;
#X obj 780 250 outlet;
#X obj 835 250 outlet;
#X obj 890 250 outlet;
#X obj 945 250 outlet;
#X obj 1000 250 outlet;
#X obj 1055 250 outlet;
#X obj 1110 250 outlet;
#X obj 1165 250 outlet;
#X obj 1220 250 outlet;
#X obj 1275 250 outlet;
#X obj 1330 250 outlet;
#X obj 1385 250 outlet;
#X obj 1440 250 outlet;
#X obj 1495 250 outlet;
#X obj 1550 250 outlet;
#X obj 1605 250 outlet;
#X obj 1660 250 outlet;
#X obj 1715 250 outlet;
#X connect 0 0 1 0;
#X connect 0 1 2 0;
#X connect 0 2 3 0;
#X connect 0 3 4 0;
#X connect 0 4 5 0;
#X connect 0 5 6 0;
#X connect 0 6 7 0;
#X connect 0 7 8 0;
#X connect 0 8 9 0;
#X connect 0 9 10 0;
#X connect 0 10 11 0;
#X connect 0 11 12 0;
#X connect 0 12 13 0;
#X connect 0 13 14 0;
#X connect 0 14 15 0;
#X connect 0 15 16 0;
#X connect 0 16 17 0;
#X connect 0 17 18 0;
#X connect 0 18 19 0;
#X connect 0 19 20 0;
#X connect 0 20 21 0;
#X connect 0 21 22 0;
#X connect 0 22 23 0;
#X connect 0 23 24 0;
#X connect 0 24 25 0;
#X connect 0 25 26 0;
#X connect 0 26 27 0;
#X connect 0 27 28 0;
#X connect 0 28 29 0;
#X connect 0 29 30 0;
#X connect 0 30 31 0;
#X connect 0 31 32 0;
#X restore 597 128 pd making;
#X obj 864 525 route refval refrhy;
#X obj 762 569 s \$0-reframe_values-set;
#X obj 866 547 s \$0-reframe_rhythm-set;
#X connect 0 0 6 0;
#X connect 1 0 2 0;
#X connect 1 1 5 0;
#X connect 3 0 4 0;
#X connect 3 1 1 0;
#X connect 3 2 133 0;
#X connect 5 0 3 0;
#X connect 6 0 9 0;
#X connect 6 0 141 0;
#X connect 6 1 175 0;
#X connect 6 2 3 0;
#X connect 7 0 169 0;
#X connect 10 0 124 0;
#X connect 10 0 160 0;
#X connect 11 0 10 0;
#X connect 12 0 11 0;
#X connect 13 0 14 0;
#X connect 14 0 11 0;
#X connect 14 0 177 0;
#X connect 15 0 123 1;
#X connect 18 0 21 0;
#X connect 18 0 23 0;
#X connect 18 0 25 0;
#X connect 18 0 27 0;
#X connect 18 0 29 0;
#X connect 18 0 31 0;
#X connect 18 0 33 0;
#X connect 18 0 35 0;
#X connect 18 0 37 0;
#X connect 18 0 39 0;
#X connect 18 0 41 0;
#X connect 18 0 43 0;
#X connect 18 0 45 0;
#X connect 18 0 47 0;
#X connect 18 0 49 0;
#X connect 18 0 51 0;
#X connect 18 0 54 0;
#X connect 18 0 56 0;
#X connect 18 0 58 0;
#X connect 18 0 60 0;
#X connect 18 0 62 0;
#X connect 18 0 64 0;
#X connect 18 0 66 0;
#X connect 18 0 68 0;
#X connect 18 0 70 0;
#X connect 18 0 72 0;
#X connect 18 0 74 0;
#X connect 18 0 76 0;
#X connect 18 0 78 0;
#X connect 18 0 80 0;
#X connect 18 0 82 0;
#X connect 18 0 84 0;
#X connect 19 0 18 0;
#X connect 19 0 130 0;
#X connect 19 0 128 0;
#X connect 118 0 127 0;
#X connect 119 0 123 0;
#X connect 119 0 9 0;
#X connect 119 0 141 0;
#X connect 119 0 181 0;
#X connect 120 0 119 0;
#X connect 121 0 122 0;
#X connect 122 0 120 0;
#X connect 123 0 121 0;
#X connect 124 0 125 0;
#X connect 125 0 119 0;
#X connect 127 0 160 1;
#X connect 128 0 86 0;
#X connect 128 0 88 0;
#X connect 128 0 90 0;
#X connect 128 0 92 0;
#X connect 128 0 94 0;
#X connect 128 0 96 0;
#X connect 128 0 98 0;
#X connect 128 0 100 0;
#X connect 128 0 102 0;
#X connect 128 0 104 0;
#X connect 128 0 106 0;
#X connect 128 0 108 0;
#X connect 128 0 110 0;
#X connect 128 0 112 0;
#X connect 128 0 114 0;
#X connect 128 0 116 0;
#X connect 128 0 117 0;
#X connect 128 0 115 0;
#X connect 128 0 113 0;
#X connect 128 0 111 0;
#X connect 128 0 109 0;
#X connect 128 0 107 0;
#X connect 128 0 105 0;
#X connect 128 0 103 0;
#X connect 128 0 101 0;
#X connect 128 0 99 0;
#X connect 128 0 97 0;
#X connect 128 0 95 0;
#X connect 128 0 93 0;
#X connect 128 0 91 0;
#X connect 128 0 89 0;
#X connect 128 0 87 0;
#X connect 129 0 128 0;
#X connect 129 0 18 0;
#X connect 129 0 130 0;
#X connect 130 0 16 0;
#X connect 133 0 11 0;
#X connect 133 0 174 0;
#X connect 133 1 1 1;
#X connect 133 2 16 0;
#X connect 133 3 132 0;
#X connect 133 3 180 0;
#X connect 134 0 147 0;
#X connect 138 0 137 0;
#X connect 138 0 170 0;
#X connect 138 0 172 0;
#X connect 139 0 138 0;
#X connect 143 0 147 1;
#X connect 147 0 8 0;
#X connect 160 0 13 0;
#X connect 162 0 163 0;
#X connect 163 0 164 0;
#X connect 164 0 165 0;
#X connect 165 0 168 0;
#X connect 166 0 167 0;
#X connect 167 0 165 1;
#X connect 168 0 8 0;
#X connect 169 0 8 0;
#X connect 169 1 162 0;
#X connect 173 0 176 0;
#X connect 173 0 179 0;
#X connect 174 0 175 1;
#X connect 175 0 10 0;
#X connect 176 0 177 1;
#X connect 177 0 178 0;
#X connect 178 0 175 1;
#X connect 179 0 174 0;
#X connect 180 0 134 0;
#X connect 180 1 144 0;
#X connect 180 2 145 0;
#X connect 180 3 146 0;
#X connect 180 4 226 0;
#X connect 181 0 2 0;
#X connect 182 0 183 0;
#X connect 183 0 2 0;
#X connect 187 0 188 0;
#X connect 188 0 189 0;
#X connect 222 0 221 0;
#X connect 226 0 227 0;
#X connect 226 1 228 0;
#X coords 0 -1 1 1 444 240 1 100 40;
