#N canvas 727 52 713 385 10;
#X obj 240 153 pow 2;
#X obj 240 173 t b f;
#X obj 240 238 /;
#X obj 167 164 pow 2;
#X obj 167 194 * 4;
#X msg 240 118 127;
#X obj 195 94 t b b f;
#X obj 167 281 outlet;
#X obj 195 74 r \$0-curve-num;
#X obj 447 23 inlet;
#X obj 348 359 outlet;
#X msg 348 339 curve \$1;
#X obj 167 144 inlet;
#X obj 240 214 - 20;
#X obj 167 260 + 20;
#X obj 240 193 22000;
#X obj 312 319 change;
#X obj 577 25 loadbang;
#X msg 577 66 1;
#X msg 550 46 0;
#X obj 447 103 s \$0-curve-num;
#X obj 447 43 route curve;
#X connect 0 0 1 0;
#X connect 1 0 15 0;
#X connect 1 1 2 1;
#X connect 2 0 4 1;
#X connect 3 0 4 0;
#X connect 4 0 14 0;
#X connect 5 0 0 0;
#X connect 6 0 3 0;
#X connect 6 1 5 0;
#X connect 6 2 0 1;
#X connect 6 2 3 1;
#X connect 6 2 16 0;
#X connect 8 0 6 0;
#X connect 9 0 21 0;
#X connect 11 0 10 0;
#X connect 12 0 3 0;
#X connect 13 0 2 0;
#X connect 14 0 7 0;
#X connect 15 0 13 0;
#X connect 16 0 11 0;
#X connect 17 0 19 0;
#X connect 17 0 18 0;
#X connect 21 0 20 0;
#X coords 0 0 1 1 130 35 0;
