#N canvas 727 52 713 385 10;
#X obj 240 153 pow 2;
#X obj 240 173 t b f;
#X obj 240 238 /;
#X obj 167 164 pow 2;
#X obj 167 194 * 4;
#X msg 240 118 127;
#X obj 195 94 t b b f;
#X obj 167 281 outlet;
#X obj 195 74 r \$0-curve-num;
#X obj 447 23 inlet;
#X obj 348 359 outlet;
#X msg 348 339 curve \$1;
#X obj 167 144 inlet;
#X obj 240 214 - 20;
#X obj 167 260 + 20;
#X obj 240 193 22000;
#X obj 305 76 inlet;
#X obj 348 88 r \$0-mode;
#X obj 513 127 sel 0 1 2 3;
#X obj 305 144 spigot;
#X obj 305 108 f;
#X msg 354 144 1;
#X msg 376 144 0;
#X msg 363 205 1;
#X msg 363 225 4;
#X obj 305 228 *;
#X obj 325 205 / 127;
#X obj 305 248 outlet;
#X msg 355 319 mode \$1;
#X msg 447 173 127;
#X obj 447 253 - 0.07;
#X obj 447 233 70.7;
#X obj 404 257 *;
#X obj 447 277 /;
#X obj 453 212 t b f;
#X obj 404 277 + 0.07;
#X obj 404 237 pow 5;
#X obj 447 193 pow 5;
#X msg 522 199 70.7;
#X msg 550 199 0.07;
#X msg 523 179 2;
#X msg 545 179 0.2;
#X msg 500 199 5;
#X msg 501 179 2;
#X obj 348 110 t b b f;
#X obj 404 144 spigot;
#X msg 453 144 1;
#X msg 475 144 0;
#X obj 447 43 route curve mode;
#X obj 312 319 change;
#X obj 577 25 loadbang;
#X msg 577 66 1;
#X msg 550 46 0;
#X obj 447 103 s \$0-curve-num;
#X obj 493 63 s \$0-mode;
#X connect 0 0 1 0;
#X connect 1 0 15 0;
#X connect 1 1 2 1;
#X connect 2 0 4 1;
#X connect 3 0 4 0;
#X connect 4 0 14 0;
#X connect 5 0 0 0;
#X connect 6 0 3 0;
#X connect 6 1 5 0;
#X connect 6 2 0 1;
#X connect 6 2 3 1;
#X connect 6 2 49 0;
#X connect 8 0 6 0;
#X connect 9 0 48 0;
#X connect 11 0 10 0;
#X connect 12 0 3 0;
#X connect 13 0 2 0;
#X connect 14 0 7 0;
#X connect 15 0 13 0;
#X connect 16 0 20 0;
#X connect 17 0 44 0;
#X connect 18 0 22 0;
#X connect 18 0 42 0;
#X connect 18 0 38 0;
#X connect 18 0 39 0;
#X connect 18 0 46 0;
#X connect 18 1 21 0;
#X connect 18 1 23 0;
#X connect 18 1 47 0;
#X connect 18 2 21 0;
#X connect 18 2 24 0;
#X connect 18 2 47 0;
#X connect 18 3 22 0;
#X connect 18 3 43 0;
#X connect 18 3 40 0;
#X connect 18 3 41 0;
#X connect 18 3 46 0;
#X connect 19 0 25 0;
#X connect 20 0 19 0;
#X connect 20 0 45 0;
#X connect 21 0 19 1;
#X connect 22 0 19 1;
#X connect 23 0 26 0;
#X connect 24 0 26 0;
#X connect 25 0 27 0;
#X connect 26 0 25 1;
#X connect 28 0 10 0;
#X connect 29 0 37 0;
#X connect 30 0 33 0;
#X connect 31 0 30 0;
#X connect 32 0 35 0;
#X connect 33 0 32 1;
#X connect 34 0 31 0;
#X connect 34 1 33 1;
#X connect 35 0 27 0;
#X connect 36 0 32 0;
#X connect 37 0 34 0;
#X connect 38 0 31 1;
#X connect 39 0 30 1;
#X connect 39 0 35 1;
#X connect 40 0 31 1;
#X connect 41 0 30 1;
#X connect 41 0 35 1;
#X connect 42 0 37 1;
#X connect 42 0 36 1;
#X connect 43 0 37 1;
#X connect 43 0 36 1;
#X connect 44 0 20 0;
#X connect 44 1 29 0;
#X connect 44 2 18 0;
#X connect 44 2 28 0;
#X connect 45 0 36 0;
#X connect 46 0 45 1;
#X connect 47 0 45 1;
#X connect 48 0 53 0;
#X connect 48 1 54 0;
#X connect 49 0 11 0;
#X connect 50 0 52 0;
#X connect 50 0 51 0;
#X connect 52 0 54 0;
#X coords 0 0 1 1 130 35 0;
