#N canvas 701 110 607 383 10;
#X obj 482 38 inlet;
#X obj 406 33 loadbang;
#X msg 406 53 1;
#X obj 380 342 outlet;
#X obj 322 222 pow 2;
#X obj 307 243 /;
#X obj 257 194 pow 2;
#X obj 257 267 * 4;
#X obj 257 103 t b b f;
#X obj 257 287 outlet;
#X obj 257 83 r \$0-c_curve-num;
#X obj 307 103 r \$0-0spot;
#X msg 307 143 63;
#X obj 307 163 -;
#X obj 307 123 t b f;
#X obj 220 194 pow 2;
#X obj 229 17 r \$0-0spot;
#X obj 190 65 moses 0;
#X obj 190 105 + 0;
#X obj 190 125 moses 0;
#X obj 229 85 - 0;
#X obj 205 85 + 1;
#X obj 190 45 - 64;
#X msg 229 145 0;
#X obj 190 25 inlet;
#X text 189 -1 pitch;
#X obj 221 216 * -1;
#X obj 190 152 abs;
#X obj 307 183 t f f;
#X text 185 9 coarse;
#X msg 419 284 0spot \$1;
#X obj 419 265 change;
#X obj 350 303 change;
#X msg 367 322 curve \$1;
#X obj 442 59 route curve 0spot;
#X obj 442 191 s \$0-c_curve-num;
#X obj 480 117 s \$0-0spot;
#X obj 313 47 \$1;
#X obj 265 45 \$2;
#X obj 307 17 loadbang;
#X connect 0 0 34 0;
#X connect 1 0 2 0;
#X connect 2 0 36 0;
#X connect 2 0 35 0;
#X connect 4 0 5 1;
#X connect 5 0 7 1;
#X connect 6 0 7 0;
#X connect 7 0 9 0;
#X connect 8 0 6 0;
#X connect 8 0 15 0;
#X connect 8 1 12 0;
#X connect 8 2 4 1;
#X connect 8 2 6 1;
#X connect 8 2 15 1;
#X connect 8 2 32 0;
#X connect 10 0 8 0;
#X connect 11 0 14 0;
#X connect 11 0 31 0;
#X connect 12 0 13 0;
#X connect 13 0 28 0;
#X connect 14 0 12 0;
#X connect 14 1 13 1;
#X connect 15 0 26 0;
#X connect 16 0 17 1;
#X connect 16 0 20 1;
#X connect 16 0 21 0;
#X connect 17 0 18 0;
#X connect 17 1 20 0;
#X connect 18 0 19 0;
#X connect 19 0 27 0;
#X connect 19 1 23 0;
#X connect 20 0 6 0;
#X connect 21 0 18 1;
#X connect 22 0 17 0;
#X connect 23 0 7 0;
#X connect 24 0 22 0;
#X connect 26 0 7 0;
#X connect 27 0 15 0;
#X connect 28 0 5 0;
#X connect 28 1 4 0;
#X connect 30 0 3 0;
#X connect 31 0 30 0;
#X connect 32 0 33 0;
#X connect 33 0 3 0;
#X connect 34 0 35 0;
#X connect 34 1 36 0;
#X connect 37 0 8 0;
#X connect 38 0 20 1;
#X connect 38 0 21 0;
#X connect 39 0 37 0;
#X connect 39 0 38 0;
#X coords 0 0 1 1 120 37 0;
