#N canvas 701 110 585 380 10;
#X obj 320 185 pow 2;
#X obj 320 205 t b f;
#X obj 320 245 /;
#X obj 270 196 pow 2;
#X obj 250 269 * 4;
#X obj 270 105 t b b f;
#X obj 250 289 outlet;
#X obj 442 38 inlet;
#X obj 320 225 1;
#X obj 320 105 r \$0-0spot;
#X msg 320 145 63;
#X obj 320 165 -;
#X obj 320 125 t b f;
#X obj 328 32 loadbang;
#X obj 233 196 pow 2;
#X obj 242 19 r \$0-0spot;
#X obj 203 67 moses 0;
#X obj 203 107 + 0;
#X obj 203 127 moses 0;
#X obj 242 87 - 0;
#X obj 218 87 + 1;
#X obj 203 47 - 64;
#X msg 242 147 0;
#X obj 203 27 inlet;
#X text 201 1 pitch;
#X obj 234 218 * -1;
#X obj 203 154 abs;
#X text 204 10 fine;
#X obj 340 342 outlet;
#X obj 270 85 r \$0-f_curve-num;
#X msg 379 284 0spot \$1;
#X obj 379 265 change;
#X obj 335 284 change;
#X msg 352 303 curve \$1;
#X obj 401 59 route curve 0spot;
#X msg 328 52 curve 1;
#X obj 401 85 s \$0-f_curve-num;
#X obj 458 128 s \$0-0spot;
#X connect 0 0 1 0;
#X connect 1 0 8 0;
#X connect 1 1 2 1;
#X connect 2 0 4 1;
#X connect 3 0 4 0;
#X connect 4 0 6 0;
#X connect 5 0 3 0;
#X connect 5 0 14 0;
#X connect 5 1 10 0;
#X connect 5 2 0 1;
#X connect 5 2 3 1;
#X connect 5 2 14 1;
#X connect 5 2 32 0;
#X connect 7 0 34 0;
#X connect 8 0 2 0;
#X connect 9 0 12 0;
#X connect 9 0 31 0;
#X connect 10 0 11 0;
#X connect 11 0 0 0;
#X connect 12 0 10 0;
#X connect 12 1 11 1;
#X connect 13 0 35 0;
#X connect 14 0 25 0;
#X connect 15 0 16 1;
#X connect 15 0 19 1;
#X connect 15 0 20 0;
#X connect 16 0 17 0;
#X connect 16 1 19 0;
#X connect 17 0 18 0;
#X connect 18 0 26 0;
#X connect 18 1 22 0;
#X connect 19 0 3 0;
#X connect 20 0 17 1;
#X connect 21 0 16 0;
#X connect 22 0 4 0;
#X connect 23 0 21 0;
#X connect 25 0 4 0;
#X connect 26 0 14 0;
#X connect 29 0 5 0;
#X connect 30 0 28 0;
#X connect 31 0 30 0;
#X connect 32 0 33 0;
#X connect 33 0 28 0;
#X connect 34 0 36 0;
#X connect 34 1 37 0;
#X connect 35 0 34 0;
#X coords 0 0 1 1 120 37 0;
