#N canvas 2155 204 766 471 10;
#X obj 300 104 * 0.0494738;
#X floatatom 301 243 0 0 0 0 - - -;
#X obj 300 142 * 1;
#X floatatom 315 124 5 0.01 64 0 - - -;
#N canvas 677 0 550 627 rampmodes 0;
#X obj 64 108 inlet;
#X obj 233 40 inlet;
#X obj 330 18 inlet;
#X obj 330 40 + 1;
#X obj 327 65 t b f f;
#X obj 260 108 moses 128;
#X obj 260 87 * 1;
#X obj 366 87 * 128;
#X obj 64 128 + 1;
#X obj 64 148 * 0.5;
#X obj 311 129 - 128;
#X obj 367 113 - 128;
#X obj 363 168 /;
#X floatatom 379 190 5 0 0 0 - - -;
#X obj 261 130 / 128;
#X obj 370 214 t b f;
#X msg 371 234 1;
#X obj 371 253 -;
#X floatatom 260 190 5 0 0 0 - - -;
#X floatatom 316 234 5 0 0 0 - - -;
#X msg 368 19 0.01;
#N canvas 0 0 450 300 invert 0;
#X obj 117 67 inlet;
#X obj 188 52 inlet;
#X obj 173 136 == 0;
#X obj 129 165 spigot 1;
#X obj 249 165 spigot;
#X obj 249 187 t b f;
#X msg 249 211 1;
#X obj 253 236 -;
#X obj 253 262 outlet;
#X obj 188 73 t b f;
#X obj 121 107 f;
#X connect 0 0 10 0;
#X connect 1 0 9 0;
#X connect 2 0 3 1;
#X connect 3 0 8 0;
#X connect 4 0 5 0;
#X connect 5 0 6 0;
#X connect 5 1 7 1;
#X connect 6 0 7 0;
#X connect 7 0 8 0;
#X connect 9 0 10 0;
#X connect 9 1 2 0;
#X connect 9 1 4 1;
#X connect 10 0 3 0;
#X connect 10 0 4 0;
#X restore 197 240 pd invert;
#X obj 250 211 r \$0-ramp1_inv;
#X obj 187 350 clip 0 1;
#X obj 214 287 r \$0-clamp_1;
#X obj 298 287 r \$0-clip_1;
#X obj 309 345 r \$0-clamp_1_c;
#X obj 176 389 -;
#X obj 177 288 f;
#X obj 201 306 f;
#X obj 197 327 t b f;
#X obj 399 345 r \$0-clip_1_c;
#X obj 249 310 f;
#X obj 399 366 t b f;
#X obj 309 366 t b f;
#X obj 182 498 *;
#X obj 266 391 *;
#X obj 182 522 *;
#X floatatom 217 504 5 0 0 0 - - -;
#X floatatom 198 460 5 0 0 0 - - -;
#N canvas 0 0 450 300 mindiv 0;
#X obj 77 146 t b f;
#X obj 77 184 /;
#X msg 77 165 1;
#X obj 77 36 t b f;
#X msg 77 55 1;
#X obj 77 74 -;
#X obj 76 14 inlet;
#X obj 61 212 outlet;
#X obj 93 113 moses 0;
#X msg 30 139 1;
#X connect 0 0 2 0;
#X connect 0 1 1 1;
#X connect 1 0 7 0;
#X connect 2 0 1 0;
#X connect 3 0 4 0;
#X connect 3 1 5 1;
#X connect 4 0 5 0;
#X connect 5 0 8 0;
#X connect 6 0 3 0;
#X connect 8 0 9 0;
#X connect 8 1 0 0;
#X connect 9 0 7 0;
#X restore 266 463 pd mindiv;
#N canvas 224 373 450 300 mindiv 0;
#X obj 110 211 t b f;
#X obj 110 249 /;
#X msg 110 230 1;
#X obj 76 14 inlet;
#X obj 71 270 outlet;
#X obj 71 191 moses 0;
#X msg 71 211 1;
#X obj 203 29 inlet;
#X obj 79 106 *;
#X obj 76 37 t b f;
#X msg 77 58 1;
#X obj 78 80 -;
#X obj 72 127 t b f;
#X msg 73 148 1;
#X obj 74 170 -;
#X connect 0 0 2 0;
#X connect 0 1 1 1;
#X connect 1 0 4 0;
#X connect 2 0 1 0;
#X connect 3 0 9 0;
#X connect 5 0 6 0;
#X connect 5 1 0 0;
#X connect 6 0 4 0;
#X connect 7 0 8 1;
#X connect 8 0 12 0;
#X connect 9 0 10 0;
#X connect 9 1 11 1;
#X connect 10 0 11 0;
#X connect 11 0 8 0;
#X connect 12 0 13 0;
#X connect 12 1 14 1;
#X connect 13 0 14 0;
#X connect 14 0 5 0;
#X restore 196 433 pd mindiv;
#X obj 248 330 t b f;
#X obj 60 383 *;
#X obj 61 417 outlet;
#X obj 203 583 outlet;
#X connect 0 0 8 0;
#X connect 1 0 6 0;
#X connect 2 0 3 0;
#X connect 3 0 4 0;
#X connect 4 0 6 0;
#X connect 4 1 6 1;
#X connect 4 2 7 0;
#X connect 5 0 14 0;
#X connect 5 1 10 0;
#X connect 6 0 5 0;
#X connect 7 0 11 0;
#X connect 8 0 9 0;
#X connect 9 0 43 0;
#X connect 10 0 12 0;
#X connect 11 0 12 1;
#X connect 12 0 13 0;
#X connect 13 0 15 0;
#X connect 14 0 18 0;
#X connect 15 0 16 0;
#X connect 15 1 17 1;
#X connect 16 0 17 0;
#X connect 17 0 19 0;
#X connect 18 0 21 0;
#X connect 19 0 21 0;
#X connect 20 0 3 0;
#X connect 21 0 28 0;
#X connect 22 0 21 1;
#X connect 23 0 27 0;
#X connect 24 0 29 0;
#X connect 25 0 32 0;
#X connect 26 0 34 0;
#X connect 27 0 35 0;
#X connect 28 0 23 0;
#X connect 29 0 30 0;
#X connect 30 0 28 0;
#X connect 30 1 23 1;
#X connect 30 1 36 0;
#X connect 31 0 33 0;
#X connect 32 0 42 0;
#X connect 33 0 32 0;
#X connect 33 1 41 1;
#X connect 34 0 29 0;
#X connect 34 1 36 1;
#X connect 35 0 37 0;
#X connect 36 0 27 1;
#X connect 36 0 40 0;
#X connect 37 0 43 1;
#X connect 37 0 45 0;
#X connect 38 0 37 1;
#X connect 39 0 35 1;
#X connect 40 0 38 0;
#X connect 41 0 39 0;
#X connect 42 0 29 0;
#X connect 42 1 41 0;
#X connect 42 1 23 2;
#X connect 43 0 44 0;
#X restore 300 264 pd rampmodes;
#X obj 300 84 t f f f;
#X obj 347 194 r \$0-shape_1;
#N canvas 0 0 789 300 initconvert 0;
#X obj 59 60 r \$0-clamp_1_c_pc;
#X obj 59 80 * 0.01;
#X obj 59 100 s \$0-clamp_1_c-set;
#X obj 209 80 * 0.01;
#X obj 209 100 s \$0-clip_1_c-set;
#X obj 209 60 r \$0-clip_1_c_pc;
#X obj 87 173 s \$0-clamp_1_c_pc-set;
#X msg 87 153 0;
#X obj 259 173 s \$0-clip_1_c_pc-set;
#X obj 150 129 loadbang;
#X msg 259 152 0;
#X obj 108 194 s \$0-clamp_1-set;
#X obj 230 193 s \$0-clip_1-set;
#X msg 230 173 1;
#X obj 324 158 bng 15 250 50 0 empty empty empty 17 7 0 10 -262144
-1 -1;
#X obj 281 129 inlet;
#X obj 349 80 * 0.01;
#X obj 499 80 * 0.01;
#X obj 349 60 r \$0-clamp_2_c_pc;
#X obj 349 100 s \$0-clamp_2_c-set;
#X obj 499 100 s \$0-clip_2_c-set;
#X obj 499 60 r \$0-clip_2_c_pc;
#X msg 387 153 0;
#X msg 559 152 0;
#X msg 530 173 1;
#X obj 387 173 s \$0-clamp_2_c_pc-set;
#X obj 559 173 s \$0-clip_2_c_pc-set;
#X obj 530 193 s \$0-clip_2-set;
#X obj 408 194 s \$0-clamp_2-set;
#X connect 0 0 1 0;
#X connect 1 0 2 0;
#X connect 3 0 4 0;
#X connect 5 0 3 0;
#X connect 7 0 6 0;
#X connect 7 0 11 0;
#X connect 9 0 7 0;
#X connect 9 0 10 0;
#X connect 9 0 13 0;
#X connect 9 0 22 0;
#X connect 9 0 23 0;
#X connect 9 0 24 0;
#X connect 10 0 8 0;
#X connect 13 0 12 0;
#X connect 14 0 8 0;
#X connect 14 0 12 0;
#X connect 14 0 6 0;
#X connect 14 0 11 0;
#X connect 14 0 25 0;
#X connect 14 0 28 0;
#X connect 14 0 27 0;
#X connect 14 0 26 0;
#X connect 15 0 14 0;
#X connect 16 0 19 0;
#X connect 17 0 20 0;
#X connect 18 0 16 0;
#X connect 21 0 17 0;
#X connect 22 0 25 0;
#X connect 22 0 28 0;
#X connect 23 0 26 0;
#X connect 24 0 27 0;
#X restore 206 265 pd initconvert;
#X obj 207 246 bng 15 250 50 0 empty empty empty 17 7 0 10 -262144
-1 -1;
#X obj 260 203 cos;
#X obj 294 168 f;
#X obj 321 32 inlet;
#X obj 208 386 outlet;
#X obj 361 82 r \$0-cycles;
#X obj 401 297 outlet;
#X obj 574 309 inlet;
#N canvas 1711 222 696 444 automation 0;
#X obj 52 41 inlet;
#X obj 86 211 * 100;
#X obj 123 202 * 100;
#X msg 226 223 100;
#X obj 251 223 loadbang;
#X obj 317 189 * 100;
#X obj 342 210 * 100;
#X obj 376 181 * 100;
#X obj 413 181 * 100;
#X obj 53 262 s \$0-cycles;
#X obj 86 243 s \$0-phase_pc;
#X obj 123 223 s \$0-mult_pc;
#X obj 166 201 s \$0-shape_1;
#X obj 197 180 s \$0-clamp_1;
#X obj 222 160 s \$0-clip_1;
#X obj 236 139 s \$0-shape_2;
#X obj 267 118 s \$0-clamp_2;
#X obj 292 98 s \$0-clip_2;
#X obj 365 114 s \$0-ramp2_inv;
#X obj 319 160 s \$0-ramp1_inv;
#X obj 412 208 s \$0-clip_2_c_pc;
#X obj 387 228 s \$0-clamp_2_c_pc;
#X obj 342 250 s \$0-clip_1_c_pc;
#X obj 317 270 s \$0-clamp_1_c_pc;
#X obj 52 65 route cycles phase mult shape1 clamp1 clip1 clst1 cst1
inv1 shape2 clamp2 clip2 clst2 cst2 inv2 addmode;
#X obj 456 101 s \$0-ramp_2_addmode;
#X obj 168 7 route all;
#X obj 167 31 unpack f f f f f f f f f f f f f f f f;
#X connect 0 0 24 0;
#X connect 1 0 10 0;
#X connect 2 0 11 0;
#X connect 3 0 11 0;
#X connect 4 0 3 0;
#X connect 5 0 23 0;
#X connect 6 0 22 0;
#X connect 7 0 21 0;
#X connect 8 0 20 0;
#X connect 24 0 9 0;
#X connect 24 1 1 0;
#X connect 24 2 2 0;
#X connect 24 3 12 0;
#X connect 24 4 13 0;
#X connect 24 5 14 0;
#X connect 24 6 5 0;
#X connect 24 7 6 0;
#X connect 24 8 19 0;
#X connect 24 9 15 0;
#X connect 24 10 16 0;
#X connect 24 11 17 0;
#X connect 24 12 7 0;
#X connect 24 13 8 0;
#X connect 24 14 18 0;
#X connect 24 15 25 0;
#X connect 24 16 26 0;
#X connect 26 0 27 0;
#X connect 27 0 9 0;
#X connect 27 1 1 0;
#X connect 27 2 2 0;
#X connect 27 3 12 0;
#X connect 27 4 13 0;
#X connect 27 5 14 0;
#X connect 27 6 5 0;
#X connect 27 7 6 0;
#X connect 27 8 19 0;
#X connect 27 9 15 0;
#X connect 27 10 16 0;
#X connect 27 11 17 0;
#X connect 27 12 7 0;
#X connect 27 13 8 0;
#X connect 27 14 18 0;
#X connect 27 15 25 0;
#X restore 574 330 pd automation;
#X obj 609 76 r \$0-phase_pc;
#X obj 609 96 * 0.01;
#X obj 609 116 s \$0-phase-set;
#X obj 261 181 +;
#X obj 161 158 r \$0-phase;
#X obj 161 180 * 6.28318;
#X obj 160 203 t b f;
#N canvas 677 0 550 627 rampmodes 0;
#X obj 64 108 inlet;
#X obj 233 40 inlet;
#X obj 330 18 inlet;
#X obj 330 40 + 1;
#X obj 327 65 t b f f;
#X obj 260 108 moses 128;
#X obj 260 87 * 1;
#X obj 366 87 * 128;
#X obj 311 129 - 128;
#X obj 367 113 - 128;
#X obj 363 168 /;
#X floatatom 379 190 5 0 0 0 - - -;
#X obj 261 130 / 128;
#X obj 370 214 t b f;
#X msg 371 234 1;
#X obj 371 253 -;
#X floatatom 260 190 5 0 0 0 - - -;
#X floatatom 316 234 5 0 0 0 - - -;
#X msg 368 19 0.01;
#N canvas 0 0 450 300 invert 0;
#X obj 117 67 inlet;
#X obj 188 52 inlet;
#X obj 173 136 == 0;
#X obj 129 165 spigot 1;
#X obj 249 165 spigot;
#X obj 249 187 t b f;
#X msg 249 211 1;
#X obj 253 236 -;
#X obj 253 262 outlet;
#X obj 188 73 t b f;
#X obj 121 107 f;
#X connect 0 0 10 0;
#X connect 1 0 9 0;
#X connect 2 0 3 1;
#X connect 3 0 8 0;
#X connect 4 0 5 0;
#X connect 5 0 6 0;
#X connect 5 1 7 1;
#X connect 6 0 7 0;
#X connect 7 0 8 0;
#X connect 9 0 10 0;
#X connect 9 1 2 0;
#X connect 9 1 4 1;
#X connect 10 0 3 0;
#X connect 10 0 4 0;
#X restore 197 240 pd invert;
#X obj 187 350 clip 0 1;
#X obj 176 389 -;
#X obj 177 288 f;
#X obj 201 306 f;
#X obj 197 327 t b f;
#X obj 249 310 f;
#X obj 399 366 t b f;
#X obj 309 366 t b f;
#X obj 182 498 *;
#X obj 266 391 *;
#X obj 182 522 *;
#X floatatom 217 504 5 0 0 0 - - -;
#X floatatom 198 460 5 0 0 0 - - -;
#N canvas 0 0 450 300 mindiv 0;
#X obj 77 146 t b f;
#X obj 77 184 /;
#X msg 77 165 1;
#X obj 77 36 t b f;
#X msg 77 55 1;
#X obj 77 74 -;
#X obj 76 14 inlet;
#X obj 61 212 outlet;
#X obj 93 113 moses 0;
#X msg 30 139 1;
#X connect 0 0 2 0;
#X connect 0 1 1 1;
#X connect 1 0 7 0;
#X connect 2 0 1 0;
#X connect 3 0 4 0;
#X connect 3 1 5 1;
#X connect 4 0 5 0;
#X connect 5 0 8 0;
#X connect 6 0 3 0;
#X connect 8 0 9 0;
#X connect 8 1 0 0;
#X connect 9 0 7 0;
#X restore 266 463 pd mindiv;
#N canvas 224 373 450 300 mindiv 0;
#X obj 110 211 t b f;
#X obj 110 249 /;
#X msg 110 230 1;
#X obj 76 14 inlet;
#X obj 71 270 outlet;
#X obj 71 191 moses 0;
#X msg 71 211 1;
#X obj 203 29 inlet;
#X obj 79 106 *;
#X obj 76 37 t b f;
#X msg 77 58 1;
#X obj 78 80 -;
#X obj 72 127 t b f;
#X msg 73 148 1;
#X obj 74 170 -;
#X connect 0 0 2 0;
#X connect 0 1 1 1;
#X connect 1 0 4 0;
#X connect 2 0 1 0;
#X connect 3 0 9 0;
#X connect 5 0 6 0;
#X connect 5 1 0 0;
#X connect 6 0 4 0;
#X connect 7 0 8 1;
#X connect 8 0 12 0;
#X connect 9 0 10 0;
#X connect 9 1 11 1;
#X connect 10 0 11 0;
#X connect 11 0 8 0;
#X connect 12 0 13 0;
#X connect 12 1 14 1;
#X connect 13 0 14 0;
#X connect 14 0 5 0;
#X restore 196 433 pd mindiv;
#X obj 248 330 t b f;
#X obj 53 508 outlet;
#X obj 203 583 outlet;
#X obj 399 345 r \$0-clip_2_c;
#X obj 309 345 r \$0-clamp_2_c;
#X obj 298 287 r \$0-clip_2;
#X obj 214 287 r \$0-clamp_2;
#X obj 250 211 r \$0-ramp2_inv;
#X obj 83 148 r \$0-ramp_2_addmode;
#X obj 29 428 +;
#X obj 64 427 -;
#X obj 34 327 route 1 2 3 4;
#X obj 57 176 swap;
#X obj 56 202 pack;
#X obj 95 428 -;
#X obj 94 405 swap;
#X obj 118 354 t b f;
#X msg 118 376 1;
#X obj 129 397 -;
#X obj 128 429 +;
#X connect 0 0 47 0;
#X connect 1 0 6 0;
#X connect 2 0 3 0;
#X connect 3 0 4 0;
#X connect 4 0 6 0;
#X connect 4 1 6 1;
#X connect 4 2 7 0;
#X connect 5 0 12 0;
#X connect 5 1 8 0;
#X connect 6 0 5 0;
#X connect 7 0 9 0;
#X connect 8 0 10 0;
#X connect 9 0 10 1;
#X connect 10 0 11 0;
#X connect 11 0 13 0;
#X connect 12 0 16 0;
#X connect 13 0 14 0;
#X connect 13 1 15 1;
#X connect 14 0 15 0;
#X connect 15 0 17 0;
#X connect 16 0 19 0;
#X connect 17 0 19 0;
#X connect 18 0 3 0;
#X connect 19 0 22 0;
#X connect 20 0 21 0;
#X connect 21 0 28 0;
#X connect 22 0 20 0;
#X connect 23 0 24 0;
#X connect 24 0 22 0;
#X connect 24 1 20 1;
#X connect 24 1 29 0;
#X connect 25 0 35 0;
#X connect 26 0 25 0;
#X connect 26 1 34 1;
#X connect 27 0 23 0;
#X connect 27 1 29 1;
#X connect 28 0 30 0;
#X connect 29 0 21 1;
#X connect 29 0 33 0;
#X connect 30 0 37 0;
#X connect 30 0 44 1;
#X connect 30 0 45 1;
#X connect 30 0 50 1;
#X connect 30 0 54 1;
#X connect 31 0 30 1;
#X connect 32 0 28 1;
#X connect 33 0 31 0;
#X connect 34 0 32 0;
#X connect 35 0 23 0;
#X connect 35 1 34 0;
#X connect 35 1 20 2;
#X connect 38 0 26 0;
#X connect 39 0 27 0;
#X connect 40 0 25 0;
#X connect 41 0 23 0;
#X connect 42 0 19 1;
#X connect 43 0 47 1;
#X connect 44 0 36 0;
#X connect 45 0 36 0;
#X connect 46 0 44 0;
#X connect 46 1 45 0;
#X connect 46 2 50 0;
#X connect 46 3 51 0;
#X connect 47 0 48 0;
#X connect 47 1 48 1;
#X connect 48 0 46 0;
#X connect 49 0 36 0;
#X connect 50 0 49 0;
#X connect 50 1 49 1;
#X connect 51 0 52 0;
#X connect 51 1 53 1;
#X connect 52 0 53 0;
#X connect 53 0 54 0;
#X connect 54 0 36 0;
#X restore 147 313 pd rampmodes;
#X obj 194 288 r \$0-shape_2;
#X obj 71 239 > 0;
#X obj 209 227 spigot;
#X obj 137 282 spigot;
#X obj 52 266 == 0;
#N canvas 2292 173 450 300 labels 0;
#X obj 103 30 inlet;
#X obj 103 75 sel 0 1 2 3 4;
#X msg 79 115 label 0;
#X msg 94 140 label +;
#X msg 114 159 label -;
#X msg 124 180 label i-;
#X msg 137 204 label 1i-;
#X obj 92 241 s \$0-ramp_2_addmode-set;
#X connect 0 0 1 0;
#X connect 1 0 2 0;
#X connect 1 1 3 0;
#X connect 1 2 4 0;
#X connect 1 3 5 0;
#X connect 1 4 6 0;
#X connect 2 0 7 0;
#X connect 3 0 7 0;
#X connect 5 0 7 0;
#X connect 6 0 7 0;
#X restore 40 297 pd labels;
#X obj 34 213 t b f;
#X obj 34 192 r \$0-ramp_2_addmode;
#X obj 275 224 * 1;
#X obj 366 160 t b f;
#X obj 372 139 r \$0-mult;
#X obj 609 156 * 0.01;
#X obj 609 176 s \$0-mult-set;
#X obj 609 136 r \$0-mult_pc;
#X obj 149 231 spigot;
#X obj 101 134 delay 20;
#X obj 236 313 spigot 1;
#N canvas 0 0 450 300 patches 0;
#X restore 491 370 pd patches;
#X msg 308 332 ramp1 \$1;
#X msg 366 332 ramp2 \$1;
#X connect 0 0 2 0;
#X connect 1 0 4 0;
#X connect 2 0 10 0;
#X connect 3 0 2 1;
#X connect 4 0 24 0;
#X connect 4 0 41 0;
#X connect 4 1 44 0;
#X connect 5 0 0 0;
#X connect 5 1 4 1;
#X connect 5 1 28 0;
#X connect 5 2 27 0;
#X connect 6 0 4 2;
#X connect 8 0 7 0;
#X connect 9 0 33 0;
#X connect 10 0 20 0;
#X connect 11 0 5 0;
#X connect 13 0 3 0;
#X connect 15 0 16 0;
#X connect 17 0 18 0;
#X connect 18 0 19 0;
#X connect 20 0 9 0;
#X connect 21 0 22 0;
#X connect 22 0 23 0;
#X connect 23 0 10 0;
#X connect 23 1 20 1;
#X connect 24 0 12 0;
#X connect 24 1 43 0;
#X connect 25 0 24 2;
#X connect 25 0 39 0;
#X connect 26 0 27 1;
#X connect 26 0 28 1;
#X connect 26 0 39 1;
#X connect 28 0 24 1;
#X connect 29 0 41 1;
#X connect 31 0 40 0;
#X connect 31 1 26 0;
#X connect 31 1 29 0;
#X connect 31 1 30 0;
#X connect 32 0 31 0;
#X connect 33 0 1 0;
#X connect 34 0 10 0;
#X connect 34 1 33 1;
#X connect 35 0 34 0;
#X connect 36 0 37 0;
#X connect 38 0 36 0;
#X connect 40 0 10 0;
#X connect 41 0 12 0;
#X connect 43 0 14 0;
#X connect 44 0 14 0;
