#N canvas 647 91 537 417 10;
#X obj 240 153 pow 2;
#X obj 240 173 t b f;
#X obj 240 238 /;
#X obj 167 164 pow 2;
#X obj 167 194 * 4;
#X msg 240 118 127;
#X obj 298 51 loadbang;
#X obj 195 94 t b b f;
#X obj 287 88 \$1;
#X obj 287 109 moses 0;
#X obj 166 386 outlet;
#X obj 195 74 r \$0-curve-num;
#X obj 400 108 inlet;
#X obj 329 291 outlet;
#X msg 329 271 curve \$1;
#X obj 167 144 inlet;
#X obj 326 213 \$2;
#X obj 329 251 change;
#X obj 400 128 route curve invert;
#X msg 392 272 invert \$1;
#X obj 181 296 == 0;
#X obj 269 279 t b f;
#X obj 230 322 spigot;
#X obj 138 322 spigot 1;
#X obj 231 343 * -1;
#X obj 231 363 + 16384;
#X obj 400 217 s \$0-curve-num;
#X obj 385 245 r \$0-invert;
#X obj 440 150 s \$0-invert;
#X obj 240 193 \$1;
#X obj 167 260 + \$2;
#X obj 240 214 - \$2;
#X obj 366 177 \$3;
#X obj 366 197 moses 1e-07;
#X obj 385 38 route lo hi;
#X msg 366 217 1;
#X obj 453 98 \$4;
#X obj 365 61 t b;
#X obj 365 83 del 0;
#X connect 0 0 1 0;
#X connect 1 0 29 0;
#X connect 1 1 2 1;
#X connect 2 0 4 1;
#X connect 3 0 4 0;
#X connect 4 0 30 0;
#X connect 5 0 0 0;
#X connect 6 0 8 0;
#X connect 6 0 16 0;
#X connect 6 0 32 0;
#X connect 6 0 36 0;
#X connect 7 0 3 0;
#X connect 7 1 5 0;
#X connect 7 2 0 1;
#X connect 7 2 3 1;
#X connect 7 2 17 0;
#X connect 8 0 9 0;
#X connect 9 1 25 1;
#X connect 9 1 29 1;
#X connect 11 0 7 0;
#X connect 12 0 18 0;
#X connect 14 0 13 0;
#X connect 15 0 3 0;
#X connect 16 0 30 1;
#X connect 16 0 31 1;
#X connect 17 0 14 0;
#X connect 18 0 26 0;
#X connect 18 1 28 0;
#X connect 18 2 34 0;
#X connect 19 0 13 0;
#X connect 20 0 23 1;
#X connect 21 0 30 0;
#X connect 21 1 20 0;
#X connect 21 1 22 1;
#X connect 22 0 24 0;
#X connect 23 0 10 0;
#X connect 24 0 25 0;
#X connect 25 0 10 0;
#X connect 27 0 19 0;
#X connect 27 0 21 0;
#X connect 29 0 31 0;
#X connect 30 0 23 0;
#X connect 30 0 22 0;
#X connect 31 0 2 0;
#X connect 32 0 33 0;
#X connect 33 0 35 0;
#X connect 33 1 26 0;
#X connect 34 0 16 0;
#X connect 34 0 37 0;
#X connect 34 1 8 0;
#X connect 34 1 37 0;
#X connect 35 0 26 0;
#X connect 36 0 28 0;
#X connect 37 0 38 0;
#X connect 38 0 26 0;
#X coords 0 0 1 1 120 34 0;
