#N canvas 0 0 561 431 10;
#X obj 143 40 env~;
#X obj 178 160 swap 100;
#X obj 178 183 -;
#X obj 178 216 dbtorms;
#X obj 143 263 line~;
#X obj 107 141 moses 0;
#X msg 102 160 100;
#X obj 107 198 dbtorms;
#X obj 124 312 *~;
#X obj 220 289 dbtorms;
#X msg 135 160 set 0;
#X obj 107 179 change;
#X obj 124 357 clip~ -0.99999 0.99999;
#X obj 39 79 swap 100;
#X obj 39 103 -;
#X obj 107 217 pack f 52;
#X obj 39 125 * 0.9;
#X obj 220 269 + 100;
#X obj 124 335 *~ 2.29087;
#X obj 124 13 inlet~;
#X obj 255 18 inlet;
#X obj 124 380 outlet~;
#X obj 143 242 pack f 1;
#X obj 143 81 - 90;
#X obj 143 291 lop~ 12;
#X obj 254 40 route threshm thresh attack decay makeup smooth;
#X connect 0 0 23 0;
#X connect 1 0 2 0;
#X connect 1 1 2 1;
#X connect 2 0 3 0;
#X connect 3 0 22 0;
#X connect 4 0 24 0;
#X connect 5 0 6 0;
#X connect 5 1 1 0;
#X connect 5 1 10 0;
#X connect 6 0 11 0;
#X connect 7 0 15 0;
#X connect 8 0 18 0;
#X connect 9 0 18 1;
#X connect 10 0 11 0;
#X connect 11 0 7 0;
#X connect 12 0 21 0;
#X connect 13 0 14 0;
#X connect 13 1 14 1;
#X connect 14 0 16 0;
#X connect 15 0 4 0;
#X connect 16 0 17 0;
#X connect 17 0 9 0;
#X connect 18 0 12 0;
#X connect 19 0 0 0;
#X connect 19 0 8 0;
#X connect 20 0 25 0;
#X connect 22 0 4 0;
#X connect 23 0 5 0;
#X connect 24 0 8 1;
#X connect 25 0 13 0;
#X connect 25 0 23 1;
#X connect 25 1 23 1;
#X connect 25 2 22 1;
#X connect 25 3 15 1;
#X connect 25 4 17 0;
#X connect 25 5 24 1;
