#N canvas 78 154 1242 614 10;
#X obj 81 26 cnv 15 147 98 empty empty empty 2 6 0 8 -175616 -355 0
;
#X obj 736 58 inlet;
#X obj 578 128 spigot;
#X obj 681 174 outlet;
#X obj 736 197 s \$0-poly-set;
#X obj 578 55 inlet;
#X obj 668 442 s \$0-adsr_a-set;
#X obj 683 425 s \$0-adsr_d-set;
#X obj 715 391 s \$0-adsr_r-set;
#X obj 746 357 s \$0-samp_offset-set;
#X obj 636 499 s \$0-samp_num-set;
#X obj 762 340 s \$0-direction-set;
#X obj 605 538 s \$0-pitch-set;
#X obj 778 323 s \$0-loop-set;
#X obj 767 180 s \$0-direction_alt-set;
#X obj 624 194 t b f;
#X obj 578 194 t b a;
#X obj 578 217 s \$0-note;
#X obj 799 163 s \$0-bank-set;
#X obj 799 146 - 1;
#X obj 578 174 route note patch;
#X text 670 200 pass it on;
#X text 695 190 |;
#X text 696 188 ^;
#X obj 831 146 s \$0-file_load;
#X obj 842 270 s \$0-adsr_a-set;
#X obj 833 238 moses 0;
#X obj 882 238 moses 0;
#X obj 931 238 moses 0;
#X obj 936 295 s \$0-adsr_d-set;
#X obj 966 276 s \$0-adsr_s_pc-set;
#X obj 985 257 s \$0-adsr_r-set;
#X text 434 2 notelist:;
#X text 552 38 notelist/patch;
#X text 722 41 global-set;
#X obj 699 408 s \$0-adsr_s_pc-set;
#X msg 269 327 set \$1;
#X obj 23 284 exp;
#X floatatom 23 304 0 0 0 0 - - -;
#X obj 23 264 * 0.057762;
#X obj 216 222 / 127;
#X obj 96 239 *;
#X obj 96 260 t b f;
#X obj 96 281 f;
#X obj 96 302 -;
#X obj 96 323 / 44.1;
#X obj 51 344 f;
#X obj 23 344 f;
#X obj 81 344 *;
#X floatatom 23 245 5 0 0 0 - - -;
#X obj 23 324 t b b f;
#X obj 23 365 pack f f f;
#X obj 23 405 line~;
#X obj 23 594 outlet~;
#X obj 23 164 f;
#X obj 72 162 r \$0-pitch;
#X obj 96 218 r \$0-samp_offset;
#N canvas 104 125 831 643 patches 0;
#X obj 24 140 f;
#X obj 21 97 r \$0-store_patch;
#X obj 22 199 prepend add;
#X obj 19 232 t b a;
#X obj 91 319 msgfile;
#X msg 168 255 add patches 0;
#X obj 165 217 loadbang;
#X obj 76 436 route patches;
#X msg 106 238 goto 0;
#X obj 34 297 + 1;
#X obj 18 314 f;
#X msg 18 367 replace patches \$1;
#X msg 69 288 this;
#X obj 18 262 t b b b;
#X obj 346 217 t b f;
#X msg 361 241 goto \$1;
#X msg 326 240 this;
#X obj 453 251 r \$0-patches_load;
#X obj 453 268 openpanel;
#X msg 527 302 read \$1;
#X msg 483 302 goto 0;
#X msg 453 302 this;
#X obj 80 406 route list;
#X msg 359 278 clear;
#X obj 453 285 t b b a b;
#X obj 36 33 r \$0-pitch;
#X obj 50 52 r \$0-samp_offset;
#X obj 122 17 r \$0-samp_num;
#X obj 115 73 r \$0-loop;
#X obj 511 197 symbol;
#X obj 521 167 inlet;
#X obj 164 44 r \$0-adsr_a;
#X obj 180 62 r \$0-adsr_d;
#X obj 200 87 r \$0-adsr_s;
#X obj 221 114 r \$0-adsr_r;
#X obj 468 523 * 100;
#X obj 301 116 r \$0-duration;
#X obj 405 113 r \$0-bank;
#X obj 468 559 s \$0-adsr_s_pc;
#X obj 64 500 s \$0-pitch-set;
#X obj 78 519 s \$0-samp_offset-set;
#X obj 166 500 s \$0-samp_num-set;
#X obj 283 496 s \$0-loop-set;
#X obj 340 528 s \$0-adsr_a-set;
#X obj 360 550 s \$0-adsr_d-set;
#X obj 516 520 s \$0-adsr_r-set;
#X obj 612 546 s \$0-duration-set;
#X obj 640 516 s \$0-bank-set;
#X obj 475 114 r \$0-direction_alt;
#X obj 598 116 r \$0-poly;
#X obj 538 488 s \$0-direction_alt-set;
#X obj 692 487 s \$0-poly-set;
#X obj 336 194 t b f b;
#X obj 397 217 outlet;
#X obj 481 220 outlet;
#X obj 438 219 outlet;
#X obj 614 395 outlet;
#X obj 613 181 r \$0-patches_save;
#X obj 613 209 savepanel;
#X msg 610 282 write \$1;
#X obj 674 63 inlet;
#X obj 684 311 random;
#X obj 702 403 outlet;
#X obj 347 172 r \$0-patch-num;
#X msg 423 400 range 1 \$1;
#X obj 423 417 s \$0-patch-set;
#X obj 251 584 spigot;
#X msg 295 585 0;
#X msg 295 568 1;
#X obj 251 601 s \$0-patches-num;
#X obj 612 238 makesymbol %s.pat;
#X obj 24 172 pack f f f f f f f f f f f f f;
#X obj 223 441 unpack f f f f f f f f f f f f f;
#X obj 665 115 r \$0-velocity;
#X obj 689 461 s \$0-velocity-set;
#X connect 0 0 71 0;
#X connect 1 0 0 0;
#X connect 2 0 3 0;
#X connect 3 0 13 0;
#X connect 3 1 4 0;
#X connect 4 0 22 0;
#X connect 5 0 4 0;
#X connect 6 0 5 0;
#X connect 7 0 9 0;
#X connect 7 0 61 1;
#X connect 7 0 64 0;
#X connect 7 0 66 0;
#X connect 7 1 72 0;
#X connect 8 0 4 0;
#X connect 9 0 10 1;
#X connect 10 0 11 0;
#X connect 10 0 64 0;
#X connect 10 0 69 0;
#X connect 11 0 4 0;
#X connect 12 0 4 0;
#X connect 13 0 10 0;
#X connect 13 1 12 0;
#X connect 13 2 8 0;
#X connect 14 0 16 0;
#X connect 14 1 15 0;
#X connect 15 0 4 0;
#X connect 16 0 4 0;
#X connect 17 0 18 0;
#X connect 18 0 24 0;
#X connect 19 0 4 0;
#X connect 20 0 4 0;
#X connect 21 0 4 0;
#X connect 22 0 7 0;
#X connect 23 0 4 0;
#X connect 24 0 21 0;
#X connect 24 1 20 0;
#X connect 24 1 68 0;
#X connect 24 2 19 0;
#X connect 24 2 56 0;
#X connect 24 3 23 0;
#X connect 25 0 0 1;
#X connect 26 0 71 1;
#X connect 27 0 71 2;
#X connect 28 0 71 3;
#X connect 29 0 24 0;
#X connect 30 0 29 0;
#X connect 31 0 71 4;
#X connect 32 0 71 5;
#X connect 33 0 71 6;
#X connect 34 0 71 7;
#X connect 35 0 38 0;
#X connect 36 0 71 8;
#X connect 37 0 71 9;
#X connect 48 0 71 10;
#X connect 49 0 71 11;
#X connect 52 0 53 0;
#X connect 52 1 14 0;
#X connect 52 1 55 0;
#X connect 52 2 54 0;
#X connect 57 0 58 0;
#X connect 58 0 70 0;
#X connect 59 0 4 0;
#X connect 60 0 61 0;
#X connect 61 0 62 0;
#X connect 63 0 52 0;
#X connect 64 0 65 0;
#X connect 66 0 67 0;
#X connect 66 0 69 0;
#X connect 67 0 66 1;
#X connect 68 0 66 1;
#X connect 70 0 59 0;
#X connect 70 0 56 0;
#X connect 71 0 2 0;
#X connect 72 0 39 0;
#X connect 72 1 40 0;
#X connect 72 2 41 0;
#X connect 72 3 42 0;
#X connect 72 4 43 0;
#X connect 72 5 44 0;
#X connect 72 6 35 0;
#X connect 72 7 45 0;
#X connect 72 8 46 0;
#X connect 72 9 47 0;
#X connect 72 10 50 0;
#X connect 72 11 51 0;
#X connect 72 12 74 0;
#X connect 73 0 71 12;
#X restore 392 503 pd patches;
#X obj 23 225 - 60;
#X obj 23 185 t b f;
#X msg 23 205 60;
#X obj 23 425 tabread4~ s32-1-1;
#X obj 386 267 tabread sizes-32-1;
#X msg 63 185 1;
#X obj 392 480 r \$0-file_load;
#X obj 23 554 *~;
#N canvas 3 50 450 300 fwdrev 0;
#X obj 203 38 inlet;
#X obj 57 87 inlet;
#X msg 57 167 \$1 \, \$2 \$3;
#X msg 122 167 \$2 \, \$1 \$3;
#X obj 53 133 spigot;
#X obj 120 131 spigot;
#X msg 229 173 label fwd;
#X msg 300 168 label rev;
#X obj 201 62 select 0 1;
#X obj 238 247 s \$0-direction-set;
#X msg 168 216 0;
#X msg 177 111 1;
#X msg 176 134 0;
#X msg 91 110 0;
#X msg 95 133 1;
#X obj 168 196 loadbang;
#X obj 90 212 outlet;
#X connect 0 0 8 0;
#X connect 1 0 4 0;
#X connect 1 0 5 0;
#X connect 2 0 16 0;
#X connect 3 0 16 0;
#X connect 4 0 2 0;
#X connect 5 0 3 0;
#X connect 6 0 9 0;
#X connect 7 0 9 0;
#X connect 8 0 6 0;
#X connect 8 0 14 0;
#X connect 8 0 12 0;
#X connect 8 1 7 0;
#X connect 8 1 13 0;
#X connect 8 1 11 0;
#X connect 10 0 9 0;
#X connect 11 0 5 1;
#X connect 12 0 5 1;
#X connect 13 0 4 1;
#X connect 14 0 4 1;
#X connect 15 0 10 0;
#X restore 23 385 pd fwdrev;
#X obj 202 338 r \$0-loop;
#X obj 169 358 spigot;
#X obj 169 378 t b b;
#X obj 285 395 r \$0-direction_alt;
#X obj 252 416 spigot;
#X msg 296 435 0;
#X obj 296 416 loadbang;
#X floatatom 46 458 5 0 0 0 - - -;
#X floatatom 54 476 5 0 0 0 - - -;
#X floatatom 62 494 5 0 0 0 - - -;
#X floatatom 71 512 5 0 0 0 - - -;
#X obj 163 438 r \$0-adsr_a;
#X obj 163 457 r \$0-adsr_d;
#X obj 426 86 r \$0-adsr_s_pc;
#X obj 426 106 / 100;
#X obj 163 476 r \$0-adsr_s;
#X obj 163 495 r \$0-adsr_r;
#N canvas 17 148 675 300 init 0;
#X msg 64 145 1;
#X obj 199 84 loadbang;
#X msg 116 105 100;
#X msg 292 141 0;
#X msg 92 196 0;
#X obj 80 125 s \$0-adsr_s_pc-set;
#X obj 198 145 s \$0-pitch-set;
#X obj 292 166 s \$0-samp_offset-set;
#X obj 235 204 s \$0-bank-set;
#X obj 123 196 s \$0-duration-set;
#X obj 58 217 s \$0-direction-set;
#X obj 72 242 s \$0-poly-set;
#X obj 23 165 s \$0-samp_num-set;
#X msg 200 124 60;
#X obj 281 82 inlet;
#X obj 451 145 r \$0-poly;
#X obj 451 173 sel 0 1;
#X msg 427 205 label mono;
#X msg 502 205 label poly;
#X connect 0 0 12 0;
#X connect 1 0 2 0;
#X connect 1 0 3 0;
#X connect 1 0 0 0;
#X connect 1 0 4 0;
#X connect 1 0 13 0;
#X connect 2 0 5 0;
#X connect 3 0 7 0;
#X connect 3 0 8 0;
#X connect 4 0 9 0;
#X connect 4 0 10 0;
#X connect 4 0 11 0;
#X connect 13 0 6 0;
#X connect 14 0 3 0;
#X connect 14 0 13 0;
#X connect 14 0 2 0;
#X connect 14 0 4 0;
#X connect 15 0 16 0;
#X connect 16 0 17 0;
#X connect 16 1 18 0;
#X connect 17 0 11 0;
#X connect 18 0 11 0;
#X restore 1114 77 pd init;
#X msg 261 190 stop;
#X obj 16 114 r \$0-note;
#X msg 81 139 start;
#X obj 256 222 t b f;
#X obj 386 154 r \$0-samp_num;
#X obj 400 187 r \$0-bank;
#X obj 400 207 + 1;
#X obj 400 227 makefilename sizes-32-%d;
#X msg 400 247 set \$1;
#X obj 295 216 r \$0-bank;
#X obj 269 270 + 1;
#X obj 269 310 makesymbol s32-%s-%s;
#X obj 319 237 t b f;
#X obj 269 290 pack f 1;
#X obj 85 400 r \$0-direction;
#X obj 439 439 f;
#X obj 165 338 delay;
#X msg 203 317 stop;
#X obj 439 460 s \$0-dur;
#X obj 252 454 s \$0-direction-set;
#X obj 426 126 s \$0-adsr_s-set;
#X obj 852 118 s \$0-samp_num;
#X obj 652 482 s \$0-bank-set;
#X obj 652 462 - 1;
#X obj 794 306 s \$0-direction_alt-set;
#X obj 392 585 outlet;
#N canvas 15 94 971 649 automation_out 0;
#X obj 600 209 inlet;
#X msg 598 237 1;
#X obj 673 206 inlet;
#X msg 665 248 patch \$1;
#X obj 760 207 inlet;
#X msg 760 244 0;
#X obj 99 472 spigot;
#X obj 99 524 outlet;
#X obj 789 305 inlet;
#X obj 772 369 prepend file;
#X obj 36 33 r \$0-pitch;
#X obj 50 52 r \$0-samp_offset;
#X obj 122 17 r \$0-samp_num;
#X obj 115 73 r \$0-loop;
#X obj 164 44 r \$0-adsr_a;
#X obj 180 62 r \$0-adsr_d;
#X obj 200 87 r \$0-adsr_s;
#X obj 221 114 r \$0-adsr_r;
#X obj 301 116 r \$0-duration;
#X obj 405 113 r \$0-bank;
#X obj 475 114 r \$0-direction_alt;
#X obj 598 116 r \$0-poly;
#X msg 35 333 pitch \$1;
#X obj 35 282 change;
#X obj 55 171 change;
#X msg 55 222 offset \$1;
#X obj 112 129 change;
#X obj 140 220 change;
#X msg 112 180 loop \$1;
#X msg 140 271 sample \$1;
#X obj 166 145 change;
#X msg 166 196 a \$1;
#X obj 199 226 change;
#X msg 199 277 d \$1;
#X obj 209 147 change;
#X msg 209 198 s \$1;
#X obj 246 225 change;
#X msg 246 276 r \$1;
#X obj 301 217 change;
#X msg 301 268 dur \$1;
#X obj 352 218 change;
#X msg 352 269 bank \$1;
#X obj 410 202 change;
#X msg 410 253 alt \$1;
#X obj 474 198 change;
#X msg 474 249 poly \$1;
#X obj 659 164 loadbang;
#X obj 289 147 change;
#X obj 280 87 r \$0-adsr_s_pc;
#X msg 289 198 s_pc \$1;
#X obj 756 86 r \$0-velocity;
#X obj 754 110 change;
#X msg 759 138 vel \$1;
#X connect 0 0 1 0;
#X connect 1 0 6 1;
#X connect 2 0 3 0;
#X connect 3 0 7 0;
#X connect 4 0 5 0;
#X connect 5 0 6 1;
#X connect 6 0 7 0;
#X connect 8 0 9 0;
#X connect 9 0 7 0;
#X connect 10 0 23 0;
#X connect 11 0 24 0;
#X connect 12 0 27 0;
#X connect 13 0 26 0;
#X connect 14 0 30 0;
#X connect 15 0 32 0;
#X connect 16 0 34 0;
#X connect 17 0 36 0;
#X connect 18 0 38 0;
#X connect 19 0 40 0;
#X connect 20 0 42 0;
#X connect 21 0 44 0;
#X connect 22 0 6 0;
#X connect 23 0 22 0;
#X connect 24 0 25 0;
#X connect 25 0 6 0;
#X connect 26 0 28 0;
#X connect 27 0 29 0;
#X connect 28 0 6 0;
#X connect 29 0 6 0;
#X connect 30 0 31 0;
#X connect 31 0 6 0;
#X connect 32 0 33 0;
#X connect 33 0 6 0;
#X connect 34 0 35 0;
#X connect 35 0 6 0;
#X connect 36 0 37 0;
#X connect 37 0 6 0;
#X connect 38 0 39 0;
#X connect 39 0 6 0;
#X connect 40 0 41 0;
#X connect 41 0 6 0;
#X connect 42 0 43 0;
#X connect 43 0 6 0;
#X connect 44 0 45 0;
#X connect 45 0 6 0;
#X connect 46 0 1 0;
#X connect 47 0 49 0;
#X connect 48 0 47 0;
#X connect 49 0 6 0;
#X connect 50 0 51 0;
#X connect 51 0 52 0;
#X connect 52 0 6 0;
#X restore 392 567 pd automation_out;
#X obj 500 486 route randpat;
#X obj 501 567 s \$0-samplay_patch-set;
#X obj 953 167 s \$0-samp_offset-set;
#X obj 969 150 s \$0-direction-set;
#X obj 985 133 s \$0-loop-set;
#X obj 1086 230 * 100;
#X obj 736 80 route poly alt bank file eg sample dur offset dir loop
a d s r s_pc;
#X obj 863 218 unpack f f f f;
#X obj 148 289 s \$0-sampdur;
#X obj 154 12 cnv 15 74 98 empty empty empty 2 6 0 8 -175616 -355 0
;
#X obj 84 38 nbx 3 12 1 32 0 0 \$0-samp_num \$0-samp_num-set sample
0 -6 0 9 -225280 -1109 -1109 1 256;
#X obj 84 53 nbx 3 12 0 128 0 0 \$0-pitch \$0-pitch-set pitch 0 19
0 9 -225280 -1109 -1109 60 256;
#X obj 119 38 nbx 4 12 0 127 0 0 \$0-samp_offset \$0-samp_offset-set
offset 0 -6 0 9 -225280 -1109 -1109 0 256;
#X obj 84 88 nbx 3 10 0 120 0 0 \$0-wes-dummy \$0-pwatches-num empty
-8 -6 0 9 -257472 -1109 -90133 0 256;
#X obj 84 101 nbx 3 10 1 6 0 0 \$0-patch-num \$0-patch-set select -2
18 0 9 -128992 -262130 -90133 1 256;
#X obj 126 101 bng 10 250 50 0 \$0-store_patch \$0-store_patch-bng
store -7 -6 0 9 -158509 -62784 -90133;
#X obj 152 101 bng 10 250 50 0 \$0-patches_load \$0-patches_load-bng
load -5 -6 0 9 -126942 -13381 -13381;
#X obj 139 101 bng 10 250 50 0 \$0-patches_save \$0-patches_save-bng
save -5 15 0 9 -227879 -86277 -86277;
#X obj 84 88 nbx 3 10 0 120 0 0 \$0-patches-dummy \$0-patches-num patches
-1 -6 0 9 -128992 -204786 -90133 0 256;
#X obj 159 40 tgl 10 0 \$0-loop \$0-loop-set loop -5 -5 0 9 -13330
-204800 -13330 0 1;
#X obj 137 67 tgl 12 0 \$0-poly \$0-poly-set mono -5 15 0 10 -45076
-232576 -33289 0 1;
#X obj 119 53 tgl 12 0 \$0-direction \$0-direction-set fwd 13 6 0 10
-13330 -204800 -13330 0 1;
#X obj 159 62 tgl 10 0 \$0-direction_alt \$0-direction_alt-set alt
-4 -5 0 10 -13330 -204800 -13330 0 1;
#X obj 177 36 nbx 5 10 0 99999 0 0 \$0-adsr_a \$0-adsr_a-set attack
0 -3 0 9 -104373 -204800 -16662 0 256;
#X obj 177 54 nbx 5 10 0 99999 0 0 \$0-adsr_d \$0-adsr_d-set decay
0 -3 0 9 -104373 -204800 -16662 0 256;
#X obj 177 72 nbx 4 10 0 100 0 0 \$0-adsr_s_pc \$0-adsr_s_pc-set sustain
0 -3 0 9 -104373 -204800 -16662 100 256;
#X obj 307 72 nbx 4 10 0 1 0 0 \$0-adsr_s \$0-adsr_s-set sustain 0
-3 0 9 -104373 -204800 -16662 1 256;
#X obj 177 91 nbx 5 10 0 99999 0 0 \$0-adsr_r \$0-adsr_r-set release
0 -3 0 9 -104373 -204800 -16662 0 256;
#X obj 184 16 hradio 8 1 0 4 \$0-bank \$0-bank-set bank -26 4 0 10
-86853 -261682 -86853 0;
#X obj 614 55 r \$0-poly;
#X obj 635 114 spigot;
#X obj 679 114 r \$0-dur;
#X obj 595 102 == 0;
#X obj 681 71 t b;
#X obj 681 91 delay 0;
#X obj 980 49 route reset;
#X text 217 70 %;
#X obj 485 151 route bang float;
#X obj 531 172 t b f;
#X obj 639 217 s \$0-patch-set;
#X obj 38 534 eadsr~ 0 0;
#X text 434 15 pitch vel sample bank a d s r duration offset direction
loop alternate_direction;
#X obj 1092 49 s \$0-velocity-of;
#X obj 620 520 s \$0-velocity-of;
#X obj 945 393 r \$0-velocity-of;
#X obj 984 431 s \$0-velocity-set;
#X obj 945 449 s \$0-noteoff;
#X obj 177 111 nbx 4 10 1e-07 127 0 0 \$0-velocity \$0-velocity-set
velocity 0 -3 0 9 -105759 -13330 -13330 100 256;
#X msg 1080 401 100;
#X obj 1080 380 loadbang;
#X obj 239 476 r \$0-velocity;
#X obj 239 495 / 127;
#X obj 239 514 pow 2;
#X obj 126 557 line~;
#X obj 126 538 pack f 10;
#X obj 23 574 *~;
#X obj 605 237 unpack f f f f f f f f f f f f;
#X obj 945 412 sel 0;
#X obj 1092 30 route vel hold;
#X obj 243 130 r \$0-noteoff;
#X obj 261 171 spigot 1;
#X obj 321 152 == 0;
#X obj 337 92 r \$0-hold;
#X obj 1130 109 s \$0-hold;
#N canvas 548 95 640 300 poly3 0;
#X obj 50 -26 inlet;
#X obj 111 81 t b a;
#X msg 187 4 1;
#X msg 219 63 0;
#X obj 50 43 spigot;
#X obj 301 59 spigot;
#X obj 301 80 outlet;
#X obj 226 2 delay;
#X msg 107 6 1;
#X obj 143 -28 loadbang;
#X obj 219 43 delay 0;
#X obj 338 39 == 0;
#X obj 252 -22 inlet;
#X text 254 -42 dur;
#X obj 60 140 outlet;
#X obj 228 137 delay 100;
#X obj 376 83 inlet;
#N canvas 0 0 450 300 samenote 0;
#X obj 39 12 inlet;
#X obj 81 71 route float;
#X obj 179 57 route note;
#X obj 96 103 r \$0-pitch;
#X obj 81 153 ==;
#X obj 39 224 spigot;
#X obj 39 252 outlet;
#X obj 143 204 == 0;
#X obj 110 224 spigot;
#X obj 110 252 outlet;
#X obj 244 184 loadbang;
#X obj 244 203 delay 100;
#X msg 244 222 0;
#X obj 179 76 unpack f f f f;
#X obj 179 137 ==;
#X obj 220 138 ==;
#X obj 253 138 ==;
#X obj 378 114 r \$0-bank;
#X obj 234 163 &&;
#X obj 143 184 &&;
#X obj 39 48 t a a;
#X obj 288 112 r \$0-samp_num;
#X obj 320 201 r \$0-noteoff;
#X obj 309 8 inlet;
#X obj 39 30 spigot 1;
#X obj 102 25 == 0;
#X obj 303 41 spigot;
#X connect 0 0 24 0;
#X connect 0 0 26 0;
#X connect 1 0 4 0;
#X connect 1 1 2 0;
#X connect 2 0 13 0;
#X connect 3 0 4 1;
#X connect 3 0 14 1;
#X connect 4 0 5 1;
#X connect 4 0 7 0;
#X connect 5 0 6 0;
#X connect 7 0 8 1;
#X connect 8 0 9 0;
#X connect 10 0 11 0;
#X connect 11 0 12 0;
#X connect 12 0 14 1;
#X connect 12 0 4 1;
#X connect 13 0 14 0;
#X connect 13 2 15 0;
#X connect 13 3 16 0;
#X connect 14 0 19 0;
#X connect 15 0 18 0;
#X connect 16 0 18 1;
#X connect 17 0 16 1;
#X connect 18 0 19 1;
#X connect 19 0 7 0;
#X connect 19 0 5 1;
#X connect 20 0 5 0;
#X connect 20 0 8 0;
#X connect 20 1 1 0;
#X connect 21 0 15 1;
#X connect 22 0 12 0;
#X connect 23 0 25 0;
#X connect 23 0 26 1;
#X connect 24 0 20 0;
#X connect 25 0 24 1;
#X connect 26 0 9 0;
#X restore 18 7 pd samenote;
#X obj 359 -30 r \$0-noteoff;
#X msg 296 0 stop;
#X obj 457 32 r \$0-adsr_r;
#X obj 433 53 delay;
#X obj 387 8 spigot 1;
#X obj 460 -10 == 0;
#X obj 460 -29 r \$0-hold;
#X connect 0 0 17 0;
#X connect 1 0 10 0;
#X connect 1 0 7 0;
#X connect 1 1 14 0;
#X connect 2 0 4 1;
#X connect 2 0 11 0;
#X connect 3 0 4 1;
#X connect 3 0 11 0;
#X connect 4 0 1 0;
#X connect 5 0 6 0;
#X connect 7 0 2 0;
#X connect 8 0 4 1;
#X connect 8 0 11 0;
#X connect 9 0 8 0;
#X connect 9 0 15 0;
#X connect 10 0 3 0;
#X connect 11 0 5 1;
#X connect 12 0 7 1;
#X connect 15 0 8 0;
#X connect 16 0 15 0;
#X connect 17 0 14 0;
#X connect 17 1 4 0;
#X connect 17 1 5 0;
#X connect 18 0 22 0;
#X connect 19 0 7 0;
#X connect 20 0 21 1;
#X connect 21 0 2 0;
#X connect 22 0 19 0;
#X connect 22 0 21 0;
#X connect 23 0 22 1;
#X connect 24 0 17 1;
#X connect 24 0 23 0;
#X restore 636 135 pd poly3;
#X connect 1 0 118 0;
#X connect 2 0 149 0;
#X connect 5 0 2 0;
#X connect 5 0 142 0;
#X connect 15 0 17 0;
#X connect 15 1 151 0;
#X connect 16 0 17 0;
#X connect 16 1 168 0;
#X connect 19 0 18 0;
#X connect 20 0 16 0;
#X connect 20 1 15 0;
#X connect 26 1 25 0;
#X connect 27 1 29 0;
#X connect 28 1 31 0;
#X connect 36 0 61 0;
#X connect 37 0 38 0;
#X connect 38 0 50 0;
#X connect 39 0 37 0;
#X connect 40 0 41 1;
#X connect 41 0 42 0;
#X connect 42 0 43 0;
#X connect 42 1 44 1;
#X connect 42 1 47 1;
#X connect 43 0 44 0;
#X connect 44 0 45 0;
#X connect 45 0 48 1;
#X connect 46 0 51 1;
#X connect 47 0 51 0;
#X connect 48 0 51 2;
#X connect 48 0 101 1;
#X connect 48 0 120 0;
#X connect 48 0 100 1;
#X connect 49 0 39 0;
#X connect 50 0 47 0;
#X connect 50 0 101 0;
#X connect 50 1 46 0;
#X connect 50 1 102 0;
#X connect 50 1 100 0;
#X connect 50 2 48 0;
#X connect 51 0 66 0;
#X connect 52 0 61 0;
#X connect 54 0 59 0;
#X connect 55 0 54 1;
#X connect 56 0 41 0;
#X connect 57 0 111 0;
#X connect 57 1 111 1;
#X connect 57 2 111 2;
#X connect 57 3 111 3;
#X connect 57 4 113 0;
#X connect 58 0 49 0;
#X connect 59 0 60 0;
#X connect 59 1 58 1;
#X connect 59 1 63 0;
#X connect 60 0 58 0;
#X connect 61 0 65 0;
#X connect 62 0 88 0;
#X connect 62 0 46 1;
#X connect 64 0 57 0;
#X connect 65 0 167 0;
#X connect 66 0 52 0;
#X connect 67 0 68 1;
#X connect 68 0 69 0;
#X connect 69 0 38 0;
#X connect 69 1 71 0;
#X connect 70 0 71 1;
#X connect 71 0 104 0;
#X connect 72 0 104 0;
#X connect 73 0 72 0;
#X connect 74 0 152 1;
#X connect 75 0 152 2;
#X connect 76 0 152 3;
#X connect 77 0 152 4;
#X connect 78 0 74 0;
#X connect 79 0 75 0;
#X connect 80 0 81 0;
#X connect 81 0 105 0;
#X connect 82 0 76 0;
#X connect 83 0 77 0;
#X connect 85 0 152 0;
#X connect 86 0 54 0;
#X connect 86 0 87 0;
#X connect 87 0 152 0;
#X connect 88 0 41 0;
#X connect 88 1 43 1;
#X connect 88 1 47 1;
#X connect 88 1 40 0;
#X connect 89 0 62 0;
#X connect 89 0 97 0;
#X connect 90 0 91 0;
#X connect 91 0 92 0;
#X connect 92 0 93 0;
#X connect 93 0 62 0;
#X connect 94 0 95 0;
#X connect 95 0 98 0;
#X connect 96 0 36 0;
#X connect 97 0 95 0;
#X connect 97 1 98 1;
#X connect 98 0 96 0;
#X connect 99 0 66 1;
#X connect 100 0 103 0;
#X connect 101 0 68 0;
#X connect 102 0 101 0;
#X connect 108 0 107 0;
#X connect 111 0 110 0;
#X connect 112 0 57 1;
#X connect 117 0 30 0;
#X connect 118 0 4 0;
#X connect 118 1 14 0;
#X connect 118 2 19 0;
#X connect 118 3 24 0;
#X connect 118 4 119 0;
#X connect 118 5 106 0;
#X connect 118 7 114 0;
#X connect 118 8 115 0;
#X connect 118 9 116 0;
#X connect 118 10 26 0;
#X connect 118 11 27 0;
#X connect 118 12 117 0;
#X connect 118 13 28 0;
#X connect 118 14 30 0;
#X connect 118 15 112 0;
#X connect 118 15 147 0;
#X connect 119 0 26 0;
#X connect 119 1 27 0;
#X connect 119 2 30 0;
#X connect 119 3 28 0;
#X connect 141 0 144 0;
#X connect 141 0 142 1;
#X connect 141 0 145 0;
#X connect 142 0 176 0;
#X connect 143 0 176 1;
#X connect 144 0 2 1;
#X connect 145 0 146 0;
#X connect 146 0 176 2;
#X connect 147 0 145 0;
#X connect 147 0 84 0;
#X connect 147 1 170 0;
#X connect 149 0 17 0;
#X connect 149 1 150 0;
#X connect 149 2 20 0;
#X connect 150 0 17 0;
#X connect 150 1 12 0;
#X connect 152 0 65 1;
#X connect 156 0 169 0;
#X connect 160 0 157 0;
#X connect 161 0 160 0;
#X connect 162 0 163 0;
#X connect 163 0 164 0;
#X connect 164 0 166 0;
#X connect 165 0 167 1;
#X connect 166 0 165 0;
#X connect 167 0 53 0;
#X connect 168 0 12 0;
#X connect 168 1 155 0;
#X connect 168 2 10 0;
#X connect 168 3 108 0;
#X connect 168 4 6 0;
#X connect 168 5 7 0;
#X connect 168 6 35 0;
#X connect 168 7 8 0;
#X connect 168 8 9 0;
#X connect 168 9 11 0;
#X connect 168 10 13 0;
#X connect 168 11 109 0;
#X connect 169 0 158 0;
#X connect 169 1 157 0;
#X connect 170 0 154 0;
#X connect 170 1 175 0;
#X connect 171 0 172 0;
#X connect 172 0 85 0;
#X connect 173 0 172 1;
#X connect 174 0 173 0;
#X connect 176 0 149 0;
#X connect 176 1 3 0;
#X coords 0 -1 1 1 149 118 1 80 9;
