#N canvas 28 62 591 497 10;
#X msg 323 61 0;
#X obj 325 39 loadbang;
#X obj 84 33 inlet;
#X obj 84 54 route float;
#X obj 84 75 moses 2;
#X obj 123 96 moses 127;
#X msg 174 117 1;
#X msg 84 114 -1;
#X obj 123 118 - 2;
#X obj 123 142 - 62;
#X floatatom 194 350 5 0 0 0 - - -;
#N canvas 0 0 603 670 from 0;
#X obj 215 206 pow 2;
#X obj 215 226 t b f;
#X obj 215 291 /;
#X obj 142 217 pow 2;
#X obj 142 247 * 4;
#X obj 215 267 - 0.0453515;
#X obj 142 313 + 0.0453515;
#X obj 214 104 t b b f;
#X obj 262 162 moses 0;
#X obj 215 246 16384;
#X obj 141 439 outlet;
#X obj 214 84 r \$0-curve-num;
#X msg 304 324 curve \$1;
#X obj 142 197 inlet;
#X obj 304 304 change;
#X obj 158 355 == 0;
#X obj 244 332 t b f;
#X obj 205 375 spigot;
#X obj 113 375 spigot 1;
#X obj 206 396 * -1;
#X obj 206 416 + 16384;
#X obj 343 376 outlet;
#X msg 406 357 invert \$1;
#X obj 350 254 r \$0-invert;
#X msg 215 171 62;
#X obj 290 136 1;
#X obj 301 266 0;
#X obj 341 114 loadbang;
#X obj 396 196 bng 15 250 50 0 empty empty empty 17 7 0 10 -262144
-1 -1;
#X connect 0 0 1 0;
#X connect 1 0 9 0;
#X connect 1 1 2 1;
#X connect 2 0 4 1;
#X connect 3 0 4 0;
#X connect 4 0 6 0;
#X connect 5 0 2 0;
#X connect 6 0 18 0;
#X connect 6 0 17 0;
#X connect 7 0 3 0;
#X connect 7 1 24 0;
#X connect 7 2 0 1;
#X connect 7 2 3 1;
#X connect 7 2 14 0;
#X connect 8 1 9 1;
#X connect 8 1 20 1;
#X connect 9 0 5 0;
#X connect 11 0 7 0;
#X connect 12 0 21 0;
#X connect 13 0 3 0;
#X connect 14 0 12 0;
#X connect 15 0 18 1;
#X connect 16 0 6 0;
#X connect 16 1 15 0;
#X connect 16 1 17 1;
#X connect 17 0 19 0;
#X connect 18 0 10 0;
#X connect 19 0 20 0;
#X connect 20 0 10 0;
#X connect 22 0 21 0;
#X connect 23 0 22 0;
#X connect 23 0 16 0;
#X connect 24 0 0 0;
#X connect 25 0 8 0;
#X connect 26 0 5 1;
#X connect 26 0 6 1;
#X connect 27 0 25 0;
#X connect 27 0 26 0;
#X connect 28 0 25 0;
#X connect 28 0 26 0;
#X restore 183 291 pd from tc;
#X obj 301 235 cnv 15 118 16 empty empty empty 20 12 0 14 -75632 -66577
0;
#X obj 306 237 hsl 64 12 0.25 16 0 0 \$0-curve \$0-curve-set curvature
6 6 0 10 -41945 -148656 -124544 700 1;
#X obj 373 237 nbx 4 12 0.06125 16 1 0 \$0-curve-num \$0-curve empty
0 -8 0 10 -41945 -148656 -1 2 256;
#X obj 419 235 cnv 15 32 16 empty empty empty 20 12 0 14 -75632 -66577
0;
#X obj 438 237 tgl 10 0 \$0-invert \$0-invert-set inv -17 5 0 8 -124544
-41945 -16857 0 1;
#X obj 176 264 abs;
#X obj 124 164 t f f;
#X obj 178 161 >= 0;
#X obj 193 324 * 1;
#X obj 175 185 sel 0;
#X msg 176 209 -1;
#X obj 194 376 outlet;
#X obj 240 327 outlet;
#X obj 301 218 cnv 15 150 16 empty empty empty 20 12 0 14 -75632 -66577
0;
#X obj 306 220 hsl 141 12 -1 1 0 0 \$0-playval \$0-playval-set empty
-2 -8 0 10 -33289 -228856 -228856 8300 1;
#X obj 306 220 hsl 141 12 -1 1 0 0 \$0-rawval \$0-rawval-set empty
-2 -8 0 10 -33289 -228856 -228856 7241 1;
#X obj 188 26 r \$0-playval;
#X obj 242 372 s \$0-rawval-set;
#X obj 415 137 s \$0-curve-set;
#X obj 402 16 inlet;
#X obj 491 110 s \$0-invert-set;
#X obj 399 40 route inval curve invert;
#X obj 382 108 t f f;
#X obj 350 141 s \$0-curve;
#X obj 189 48 * 62;
#X obj 188 70 + 64;
#X msg 244 86 0.5;
#X obj 206 106 - 64;
#X obj 216 130 / 62;
#X obj 217 150 moses 0;
#X msg 221 175 set \$1;
#X obj 282 161 s \$0-playval-set;
#X obj 321 84 s \$0-playval-set;
#X connect 0 0 44 0;
#X connect 1 0 0 0;
#X connect 1 0 38 0;
#X connect 2 0 3 0;
#X connect 3 0 4 0;
#X connect 3 0 39 0;
#X connect 4 0 7 0;
#X connect 4 1 5 0;
#X connect 5 0 8 0;
#X connect 5 1 6 0;
#X connect 6 0 10 0;
#X connect 7 0 10 0;
#X connect 8 0 9 0;
#X connect 9 0 18 0;
#X connect 10 0 23 0;
#X connect 10 0 29 0;
#X connect 11 0 20 0;
#X connect 11 1 24 0;
#X connect 17 0 11 0;
#X connect 18 0 17 0;
#X connect 18 1 19 0;
#X connect 19 0 21 0;
#X connect 20 0 10 0;
#X connect 21 0 22 0;
#X connect 21 1 20 1;
#X connect 22 0 20 1;
#X connect 28 0 36 0;
#X connect 31 0 33 0;
#X connect 33 0 44 0;
#X connect 33 1 34 0;
#X connect 33 2 32 0;
#X connect 34 0 35 0;
#X connect 34 1 30 0;
#X connect 36 0 37 0;
#X connect 37 0 4 0;
#X connect 38 0 34 0;
#X connect 39 0 40 0;
#X connect 40 0 41 0;
#X connect 41 1 42 0;
#X connect 42 0 43 0;
#X coords 0 -1 1 1 152 54 1 300 200;
