#N canvas 572 77 794 600 10;
#X obj 290 94 * 0.0494738;
#X floatatom 291 233 0 0 0 0 - - -;
#X obj 290 132 * 1;
#X floatatom 305 114 5 0.01 64 0 - - -;
#N canvas 0 0 450 300 (subpatch) 0;
#X array \$0-sin 128 float 5;
#A 0 1.001 0.98339 0.935335 0.859779 0.762432 0.650361 0.531501 0.414107
0.306204 0.215053 0.14668 0.105494 0.0940247 0.112778 0.160244 0.233025
0.326104 0.433196 0.5472 0.66068 0.766371 0.857658 0.929005 0.976309
0.997141 0.990883 0.95873 0.903578 0.829798 0.742915 0.649216 0.555316
0.46771 0.392341 0.334212 0.297075 0.283204 0.293273 0.326347 0.37998
0.450407 0.53283 0.621757 0.71139 0.796016 0.870388 0.93007 0.971709
0.993238 0.989723 0.962601 0.917475 0.857545 0.786919 0.710311 0.633343
0.562051 0.497439 0.443813 0.404747 0.382846 0.379568 0.395134 0.428504
0.477455 0.538725 0.608228 0.681333 0.753167 0.818942 0.874274 0.915474
0.939797 0.945621 0.932558 0.901479 0.854456 0.794622 0.725966 0.653064
0.580775 0.513917 0.456947 0.413662 0.386948 0.378583 0.389128 0.417877
0.462916 0.521242 0.588967 0.661578 0.734234 0.802094 0.860633 0.90595
0.935024 0.945918 0.937905 0.911519 0.86852 0.811773 0.74506 0.672829
0.599894 0.531116 0.471079 0.423784 0.392386 0.378975 0.384447 0.408436
0.449344 0.504443 0.570062 0.641826 0.714952 0.784567 0.846029 0.895242
0.928927 0.944838 0.941913 0.920349 0.881583 0.828198 0.763753 0.692544
;
#X coords 0 1 127 0 130 45 1;
#X restore 433 48 graph;
#N canvas 677 0 550 627 rampmodes 0;
#X obj 64 108 inlet;
#X obj 233 40 inlet;
#X obj 330 18 inlet;
#X obj 330 40 + 1;
#X obj 327 65 t b f f;
#X obj 260 108 moses 128;
#X obj 260 87 * 1;
#X obj 366 87 * 128;
#X obj 64 128 + 1;
#X obj 64 148 * 0.5;
#X obj 311 129 - 128;
#X obj 367 113 - 128;
#X obj 363 168 /;
#X floatatom 379 190 5 0 0 0 - - -;
#X obj 261 130 / 128;
#X obj 370 214 t b f;
#X msg 371 234 1;
#X obj 371 253 -;
#X floatatom 260 190 5 0 0 0 - - -;
#X floatatom 316 234 5 0 0 0 - - -;
#X obj 403 26 inlet;
#X msg 368 19 0.01;
#N canvas 0 0 450 300 invert 0;
#X obj 117 67 inlet;
#X obj 188 52 inlet;
#X obj 173 136 == 0;
#X obj 129 165 spigot 1;
#X obj 249 165 spigot;
#X obj 249 187 t b f;
#X msg 249 211 1;
#X obj 253 236 -;
#X obj 253 262 outlet;
#X obj 188 73 t b f;
#X obj 121 107 f;
#X connect 0 0 10 0;
#X connect 1 0 9 0;
#X connect 2 0 3 1;
#X connect 3 0 8 0;
#X connect 4 0 5 0;
#X connect 5 0 6 0;
#X connect 5 1 7 1;
#X connect 6 0 7 0;
#X connect 7 0 8 0;
#X connect 9 0 10 0;
#X connect 9 1 2 0;
#X connect 9 1 4 1;
#X connect 10 0 3 0;
#X connect 10 0 4 0;
#X restore 197 240 pd invert;
#X obj 250 211 r \$0-ramp1_inv;
#X obj 187 350 clip 0 1;
#X obj 214 287 r \$0-clamp_1;
#X obj 298 287 r \$0-clip_1;
#X obj 309 345 r \$0-clamp_1_c;
#X obj 176 389 -;
#X obj 177 288 f;
#X obj 201 306 f;
#X obj 197 327 t b f;
#X obj 399 345 r \$0-clip_1_c;
#X obj 249 310 f;
#X obj 399 366 t b f;
#X obj 309 366 t b f;
#X obj 182 498 *;
#X obj 266 391 *;
#X obj 182 522 *;
#X floatatom 217 504 5 0 0 0 - - -;
#X floatatom 198 460 5 0 0 0 - - -;
#N canvas 0 0 450 300 mindiv 0;
#X obj 77 146 t b f;
#X obj 77 184 /;
#X msg 77 165 1;
#X obj 77 36 t b f;
#X msg 77 55 1;
#X obj 77 74 -;
#X obj 76 14 inlet;
#X obj 61 212 outlet;
#X obj 93 113 moses 0;
#X msg 30 139 1;
#X connect 0 0 2 0;
#X connect 0 1 1 1;
#X connect 1 0 7 0;
#X connect 2 0 1 0;
#X connect 3 0 4 0;
#X connect 3 1 5 1;
#X connect 4 0 5 0;
#X connect 5 0 8 0;
#X connect 6 0 3 0;
#X connect 8 0 9 0;
#X connect 8 1 0 0;
#X connect 9 0 7 0;
#X restore 266 463 pd mindiv;
#N canvas 224 373 450 300 mindiv 0;
#X obj 110 211 t b f;
#X obj 110 249 /;
#X msg 110 230 1;
#X obj 76 14 inlet;
#X obj 71 270 outlet;
#X obj 71 191 moses 0;
#X msg 71 211 1;
#X obj 203 29 inlet;
#X obj 79 106 *;
#X obj 76 37 t b f;
#X msg 77 58 1;
#X obj 78 80 -;
#X obj 72 127 t b f;
#X msg 73 148 1;
#X obj 74 170 -;
#X connect 0 0 2 0;
#X connect 0 1 1 1;
#X connect 1 0 4 0;
#X connect 2 0 1 0;
#X connect 3 0 9 0;
#X connect 5 0 6 0;
#X connect 5 1 0 0;
#X connect 6 0 4 0;
#X connect 7 0 8 1;
#X connect 8 0 12 0;
#X connect 9 0 10 0;
#X connect 9 1 11 1;
#X connect 10 0 11 0;
#X connect 11 0 8 0;
#X connect 12 0 13 0;
#X connect 12 1 14 1;
#X connect 13 0 14 0;
#X connect 14 0 5 0;
#X restore 196 433 pd mindiv;
#X obj 248 330 t b f;
#X obj 60 383 *;
#X obj 61 417 outlet;
#X obj 180 547 tabwrite \$0-r1;
#X connect 0 0 8 0;
#X connect 1 0 6 0;
#X connect 2 0 3 0;
#X connect 3 0 4 0;
#X connect 4 0 6 0;
#X connect 4 1 6 1;
#X connect 4 2 7 0;
#X connect 5 0 14 0;
#X connect 5 1 10 0;
#X connect 6 0 5 0;
#X connect 7 0 11 0;
#X connect 8 0 9 0;
#X connect 9 0 44 0;
#X connect 10 0 12 0;
#X connect 11 0 12 1;
#X connect 12 0 13 0;
#X connect 13 0 15 0;
#X connect 14 0 18 0;
#X connect 15 0 16 0;
#X connect 15 1 17 1;
#X connect 16 0 17 0;
#X connect 17 0 19 0;
#X connect 18 0 22 0;
#X connect 19 0 22 0;
#X connect 20 0 46 1;
#X connect 21 0 3 0;
#X connect 22 0 29 0;
#X connect 23 0 22 1;
#X connect 24 0 28 0;
#X connect 25 0 30 0;
#X connect 26 0 33 0;
#X connect 27 0 35 0;
#X connect 28 0 36 0;
#X connect 29 0 24 0;
#X connect 30 0 31 0;
#X connect 31 0 29 0;
#X connect 31 1 24 1;
#X connect 31 1 37 0;
#X connect 32 0 34 0;
#X connect 33 0 43 0;
#X connect 34 0 33 0;
#X connect 34 1 42 1;
#X connect 35 0 30 0;
#X connect 35 1 37 1;
#X connect 36 0 38 0;
#X connect 37 0 28 1;
#X connect 37 0 41 0;
#X connect 38 0 44 1;
#X connect 38 0 46 0;
#X connect 39 0 38 1;
#X connect 40 0 36 1;
#X connect 41 0 39 0;
#X connect 42 0 40 0;
#X connect 43 0 30 0;
#X connect 43 1 42 0;
#X connect 43 1 24 2;
#X connect 44 0 45 0;
#X restore 290 254 pd rampmodes;
#X text 238 387 #b8d0d4 #b9c3d4 #bcb8d4;
#X text 238 400 #768487 #767b87 #797687;
#X text 238 412 #323a3b #32363b #32323b;
#X obj 290 74 t f f f;
#N canvas 0 0 450 300 (subpatch) 0;
#X array \$0-r1 128 float 3;
#A 0 1 0.992109 0.984219 0.976328 0.968437 0.960547 0.952656 0.944766
0.936875 0.928984 0.921094 0.913203 0.905312 0.897422 0.889531 0.881641
0.87375 0.865859 0.857969 0.850078 0.842188 0.834297 0.826406 0.818516
0.810625 0.802734 0.794844 0.786953 0.779063 0.771172 0.763281 0.755391
0.7475 0.739609 0.731719 0.723828 0.715937 0.708047 0.700156 0.692266
0.684375 0.676484 0.668594 0.660703 0.652812 0.644922 0.637031 0.629141
0.62125 0.613359 0.605469 0.597578 0.589687 0.581797 0.573906 0.567422
0.567422 0.567422 0.567422 0.567422 0.567422 0.567422 0.567422 0.567422
0.567422 0.567422 0.567422 0.567422 0.567422 0.567422 0.567422 0.567422
0.567422 0.567422 0.567422 0.567422 0.567422 0.567422 0.567422 0.567422
0.567422 0.567422 0.567422 0.567422 0.567422 0.567422 0.567422 0.567422
0.567422 0.567422 0.567422 0.567422 0.567422 0.567422 0.567422 0.567422
0.567422 0.567422 0.567422 0.567422 0.567422 0.567422 0.567422 0.567422
0.567422 0.567422 0.567422 0.567422 0.567422 0.567422 0.567422 0.567422
0.567422 0.567422 0.567422 0.567422 0.567422 0.567422 0.567422 0.567422
0.567422 0.567422 0.567422 0.567422 0.567422 0.567422 0.567422 0.567422
;
#X coords 0 1 127 0 130 45 1;
#X restore 434 142 graph;
#X obj 467 128 tgl 14 0 \$0-ramp1_inv \$0-ramp1_inv-set invert 16 7
0 10 -208698 -13330 -13330 1 1;
#X obj 433 105 nbx 5 12 0.01 100 1 0 \$0-shape_1 \$0-shape_1-set shape
0 -5 0 10 -262144 -1 -1 0.01 256;
#X obj 337 184 r \$0-shape_1;
#X obj 488 105 nbx 4 12 0.001 1 1 0 \$0-clamp_1 \$0-clamp_1-set clamp
0 -5 0 10 -262144 -1 -1 0.567422 256;
#X obj 534 105 nbx 4 12 0.01 1 1 0 \$0-clip_1 \$0-clip_1-set clip 0
-5 0 10 -262144 -1 -1 1 256;
#X obj 488 119 nbx 4 10 0 100 0 0 \$0-clamp_1_c_pc \$0-clamp_1_c_pc-set
empty 0 -5 0 10 -262144 -1 -1 0 256;
#X obj 534 119 nbx 4 10 0 100 0 0 \$0-clip_1_c_pc \$0-clip_1_c_pc-set
empty 0 -5 0 10 -262144 -1 -1 0 256;
#X obj 488 119 nbx 4 10 0 1 0 0 \$0-clamp_1_c \$0-clamp_1_c-set empty
0 -5 0 10 -262144 -1 -1 0 256;
#N canvas 0 0 789 300 initconvert 0;
#X obj 59 60 r \$0-clamp_1_c_pc;
#X obj 59 80 * 0.01;
#X obj 59 100 s \$0-clamp_1_c-set;
#X obj 209 80 * 0.01;
#X obj 209 100 s \$0-clip_1_c-set;
#X obj 209 60 r \$0-clip_1_c_pc;
#X obj 87 173 s \$0-clamp_1_c_pc-set;
#X msg 87 153 0;
#X obj 259 173 s \$0-clip_1_c_pc-set;
#X obj 150 129 loadbang;
#X msg 259 152 0;
#X obj 108 194 s \$0-clamp_1-set;
#X obj 230 193 s \$0-clip_1-set;
#X msg 230 173 1;
#X obj 324 158 bng 15 250 50 0 empty empty empty 17 7 0 10 -262144
-1 -1;
#X obj 281 129 inlet;
#X obj 349 80 * 0.01;
#X obj 499 80 * 0.01;
#X obj 349 60 r \$0-clamp_2_c_pc;
#X obj 349 100 s \$0-clamp_2_c-set;
#X obj 499 100 s \$0-clip_2_c-set;
#X obj 499 60 r \$0-clip_2_c_pc;
#X msg 387 153 0;
#X msg 559 152 0;
#X msg 530 173 1;
#X obj 387 173 s \$0-clamp_2_c_pc-set;
#X obj 559 173 s \$0-clip_2_c_pc-set;
#X obj 530 193 s \$0-clip_2-set;
#X obj 408 194 s \$0-clamp_2-set;
#X connect 0 0 1 0;
#X connect 1 0 2 0;
#X connect 3 0 4 0;
#X connect 5 0 3 0;
#X connect 7 0 6 0;
#X connect 7 0 11 0;
#X connect 9 0 7 0;
#X connect 9 0 10 0;
#X connect 9 0 13 0;
#X connect 9 0 22 0;
#X connect 9 0 23 0;
#X connect 9 0 24 0;
#X connect 10 0 8 0;
#X connect 13 0 12 0;
#X connect 14 0 8 0;
#X connect 14 0 12 0;
#X connect 14 0 6 0;
#X connect 14 0 11 0;
#X connect 14 0 25 0;
#X connect 14 0 28 0;
#X connect 14 0 27 0;
#X connect 14 0 26 0;
#X connect 15 0 14 0;
#X connect 16 0 19 0;
#X connect 17 0 20 0;
#X connect 18 0 16 0;
#X connect 21 0 17 0;
#X connect 22 0 25 0;
#X connect 22 0 28 0;
#X connect 23 0 26 0;
#X connect 24 0 27 0;
#X restore 196 255 pd initconvert;
#X obj 534 119 nbx 4 10 0 1 0 0 \$0-clip_1_c \$0-clip_1_c-set empty
0 -5 0 10 -262144 -1 -1 0 256;
#X obj 197 236 bng 15 250 50 0 empty empty empty 17 7 0 10 -262144
-1 -1;
#X obj 269 48 kalashnikov 128;
#X obj 397 36 bng 15 250 50 0 empty empty empty 17 7 0 10 -262144 -1
-1;
#N canvas 0 0 450 300 mathbits 0;
#X msg 112 45 127;
#X obj 185 38 bng 15 250 50 0 empty empty empty 17 7 0 10 -262144 -1
-1;
#X msg 185 96 set \$1;
#X obj 185 76 * 2;
#X msg 185 116 6.28318;
#X obj 112 65 / 6.28318;
#X msg 112 85 set \$1;
#X msg 112 105 20.2127;
#X obj 40 66 / 20.2127;
#X msg 40 46 1;
#X msg 40 86 set \$1;
#X msg 40 106 0.0494738;
#X msg 71 218 set \$1;
#X msg 71 239 0.00787402;
#X obj 71 197 / 127;
#X msg 71 176 1;
#X msg 185 56 3.14159;
#X text 234 54 pi;
#X text 236 119 2*pi;
#X connect 0 0 5 0;
#X connect 1 0 16 0;
#X connect 2 0 4 0;
#X connect 3 0 2 0;
#X connect 5 0 6 0;
#X connect 6 0 7 0;
#X connect 8 0 10 0;
#X connect 9 0 8 0;
#X connect 10 0 11 0;
#X connect 12 0 13 0;
#X connect 14 0 12 0;
#X connect 15 0 14 0;
#X connect 16 0 3 0;
#X restore 29 316 pd mathbits;
#X obj 27 -9 r \$0-clamp_1_c;
#X obj 46 13 r \$0-clamp_1;
#X obj 121 -9 r \$0-clip_1_c;
#X obj 140 13 r \$0-clip_1;
#X obj 215 -4 r \$0-ramp1_inv;
#X obj 250 193 cos;
#X obj 284 158 f;
#X obj 473 36 nbx 4 10 0.01 100 1 0 \$0-cycles \$0-cycles-set cycles
0 -6 0 10 -262144 -1 -1 5.23299 256;
#X obj 351 72 r \$0-cycles;
#X obj 380 547 outlet;
#X obj 564 299 inlet;
#N canvas 1711 222 715 578 automation 0;
#X obj 52 41 inlet;
#X obj 53 262 s \$0-cycles-set;
#X obj 86 243 s \$0-phase_pc-set;
#X obj 86 211 * 100;
#X obj 123 202 * 100;
#X obj 123 223 s \$0-mult_pc-set;
#X obj 166 201 s \$0-shape_1-set;
#X obj 197 180 s \$0-clamp_1-set;
#X obj 222 160 s \$0-clip_1-set;
#X obj 319 160 s \$0-ramp1_inv-set;
#X obj 236 139 s \$0-shape_2-set;
#X obj 267 118 s \$0-clamp_2-set;
#X obj 292 98 s \$0-clip_2-set;
#X obj 389 98 s \$0-ramp2_inv-set;
#X msg 226 223 100;
#X obj 251 223 loadbang;
#X obj 342 250 s \$0-clip_1_c_pc-set;
#X obj 317 270 s \$0-clamp_1_c_pc-set;
#X obj 387 228 s \$0-clamp_2_c_pc-set;
#X obj 412 208 s \$0-clip_2_c_pc-set;
#X obj 317 189 * 100;
#X obj 342 210 * 100;
#X obj 376 181 * 100;
#X obj 413 181 * 100;
#X obj 522 98 s \$0-ramp_2_addmode-set;
#X obj 52 65 route cycles phase mult shape1 clamp1 clip1 clst1 cst1
inv1 shape2 clamp2 clip2 clst2 cst2 inv2 addmode;
#X obj 53 438 r \$0-cycles;
#X obj 86 419 r \$0-phase;
#X obj 123 399 r \$0-mult;
#X obj 166 377 r \$0-shape_1;
#X obj 421 300 r \$0-clip_2;
#X obj 396 320 r \$0-clamp_2;
#X obj 365 341 r \$0-shape_2;
#X obj 222 336 r \$0-clip_1;
#X obj 197 356 r \$0-clamp_1;
#X obj 312 293 r \$0-ramp1_inv;
#X obj 544 336 r \$0-ramp2_inv;
#X obj 522 274 r \$0-ramp_2_addmode;
#X obj 277 387 r \$0-clamp_1_c;
#X obj 302 367 r \$0-clip_1_c;
#X obj 425 362 r \$0-clamp_2_c;
#X obj 450 342 r \$0-clip_2_c;
#X msg 52 461 cycles \$1;
#X msg 124 461 phase \$1;
#X msg 156 437 mult \$1;
#X msg 171 418 shape1 \$1;
#X msg 224 433 clamp1 \$1;
#X msg 249 411 clip1 \$1;
#X msg 284 432 clst1 \$1;
#X msg 346 429 inv1 \$1;
#X msg 372 406 shape2 \$1;
#X msg 411 427 clamp2 \$1;
#X msg 436 405 clip2 \$1;
#X msg 471 426 clst2 \$1;
#X msg 496 404 cst2 \$1;
#X msg 309 410 cst1 \$1;
#X msg 533 423 inv2 \$1;
#X msg 521 310 addmode \$1;
#X obj 99 495 spigot 1;
#X obj 99 537 outlet;
#X obj 272 549 pack f f f f f f f f f f f f f f f f;
#X obj 190 484 t b f;
#X obj 230 484 t b f;
#X obj 270 484 t b f;
#X obj 310 484 t b f;
#X obj 350 484 t b f;
#X obj 390 484 t b f;
#X obj 430 484 t b f;
#X obj 470 484 t b f;
#X obj 361 510 t b f;
#X obj 401 510 t b f;
#X obj 441 510 t b f;
#X obj 481 510 t b f;
#X obj 521 510 t b f;
#X obj 561 510 t b f;
#X obj 601 510 t b f;
#X obj 182 537 prepend all;
#X obj 163 15 route all;
#X obj 162 39 unpack f f f f f f f f f f f f f f f f;
#X connect 0 0 25 0;
#X connect 3 0 2 0;
#X connect 4 0 5 0;
#X connect 14 0 5 0;
#X connect 15 0 14 0;
#X connect 20 0 17 0;
#X connect 21 0 16 0;
#X connect 22 0 18 0;
#X connect 23 0 19 0;
#X connect 25 0 1 0;
#X connect 25 1 3 0;
#X connect 25 2 4 0;
#X connect 25 3 6 0;
#X connect 25 4 7 0;
#X connect 25 5 8 0;
#X connect 25 6 20 0;
#X connect 25 7 21 0;
#X connect 25 8 9 0;
#X connect 25 9 10 0;
#X connect 25 10 11 0;
#X connect 25 11 12 0;
#X connect 25 12 22 0;
#X connect 25 13 23 0;
#X connect 25 14 13 0;
#X connect 25 15 24 0;
#X connect 25 16 77 0;
#X connect 26 0 42 0;
#X connect 26 0 60 0;
#X connect 27 0 43 0;
#X connect 27 0 61 0;
#X connect 28 0 44 0;
#X connect 28 0 62 0;
#X connect 29 0 45 0;
#X connect 29 0 63 0;
#X connect 30 0 52 0;
#X connect 30 0 71 0;
#X connect 31 0 51 0;
#X connect 31 0 70 0;
#X connect 32 0 50 0;
#X connect 32 0 69 0;
#X connect 33 0 47 0;
#X connect 33 0 65 0;
#X connect 34 0 46 0;
#X connect 34 0 64 0;
#X connect 35 0 49 0;
#X connect 35 0 68 0;
#X connect 36 0 56 0;
#X connect 36 0 74 0;
#X connect 37 0 57 0;
#X connect 37 0 75 0;
#X connect 38 0 48 0;
#X connect 38 0 66 0;
#X connect 39 0 55 0;
#X connect 39 0 67 0;
#X connect 40 0 53 0;
#X connect 40 0 72 0;
#X connect 41 0 54 0;
#X connect 41 0 73 0;
#X connect 42 0 58 0;
#X connect 43 0 58 0;
#X connect 44 0 58 0;
#X connect 45 0 58 0;
#X connect 46 0 58 0;
#X connect 47 0 58 0;
#X connect 48 0 58 0;
#X connect 49 0 58 0;
#X connect 50 0 58 0;
#X connect 51 0 58 0;
#X connect 52 0 58 0;
#X connect 53 0 58 0;
#X connect 54 0 58 0;
#X connect 55 0 58 0;
#X connect 56 0 58 0;
#X connect 57 0 58 0;
#X connect 58 0 59 0;
#X connect 60 0 76 0;
#X connect 61 0 60 0;
#X connect 61 1 60 1;
#X connect 62 0 60 0;
#X connect 62 1 60 2;
#X connect 63 0 60 0;
#X connect 63 1 60 3;
#X connect 64 0 60 0;
#X connect 64 1 60 4;
#X connect 65 0 60 0;
#X connect 65 1 60 5;
#X connect 66 0 60 0;
#X connect 66 1 60 6;
#X connect 67 0 60 0;
#X connect 67 1 60 7;
#X connect 68 0 60 0;
#X connect 68 1 60 8;
#X connect 69 0 60 0;
#X connect 69 1 60 9;
#X connect 70 0 60 0;
#X connect 70 1 60 10;
#X connect 71 0 60 0;
#X connect 71 1 60 11;
#X connect 72 0 60 0;
#X connect 72 1 60 12;
#X connect 73 0 60 0;
#X connect 73 1 60 13;
#X connect 74 0 60 0;
#X connect 74 1 60 14;
#X connect 75 0 60 0;
#X connect 75 1 60 15;
#X connect 76 0 58 0;
#X connect 77 0 78 0;
#X connect 78 0 1 0;
#X connect 78 1 3 0;
#X connect 78 2 4 0;
#X connect 78 3 6 0;
#X connect 78 4 7 0;
#X connect 78 5 8 0;
#X connect 78 6 20 0;
#X connect 78 7 21 0;
#X connect 78 8 9 0;
#X connect 78 9 10 0;
#X connect 78 10 11 0;
#X connect 78 11 12 0;
#X connect 78 12 22 0;
#X connect 78 13 23 0;
#X connect 78 14 13 0;
#X connect 78 15 24 0;
#X restore 564 319 pd automation;
#X obj 520 36 nbx 4 10 0 100 0 0 \$0-phase_pc \$0-phase_pc-set phase
0 -6 0 10 -262144 -1 -1 0 256;
#X obj 520 36 nbx 4 10 0 1 0 0 \$0-phase \$0-phase-set phase 0 -6 0
10 -262144 -1 -1 0 256;
#X obj 599 66 r \$0-phase_pc;
#X obj 599 86 * 0.01;
#X obj 599 106 s \$0-phase-set;
#X obj 251 171 +;
#X obj 151 148 r \$0-phase;
#X obj 151 170 * 6.28318;
#X obj 150 193 t b f;
#N canvas 0 0 450 300 (subpatch) 0;
#X array \$0-r2 128 float 3;
#A 0 0.001 0.0078125 0.015625 0.0234375 0.03125 0.0390625 0.046875
0.0546875 0.0625 0.0703125 0.078125 0.0859375 0.09375 0.101562 0.109375
0.117188 0.125 0.132812 0.140625 0.148438 0.15625 0.164062 0.171875
0.179688 0.1875 0.195312 0.203125 0.210938 0.21875 0.226562 0.234375
0.242188 0.25 0.257812 0.265625 0.273438 0.28125 0.289062 0.296875
0.304688 0.3125 0.320312 0.328125 0.335938 0.34375 0.351562 0.359375
0.367188 0.375 0.378552 0.378552 0.378552 0.378552 0.378552 0.378552
0.378552 0.378552 0.378552 0.378552 0.378552 0.378552 0.378552 0.378552
0.378552 0.378552 0.378552 0.378552 0.378552 0.378552 0.378552 0.378552
0.378552 0.378552 0.378552 0.378552 0.378552 0.378552 0.378552 0.378552
0.378552 0.378552 0.378552 0.378552 0.378552 0.378552 0.378552 0.378552
0.378552 0.378552 0.378552 0.378552 0.378552 0.378552 0.378552 0.378552
0.378552 0.378552 0.378552 0.378552 0.378552 0.378552 0.378552 0.378552
0.378552 0.378552 0.378552 0.378552 0.378552 0.378552 0.378552 0.378552
0.378552 0.378552 0.378552 0.378552 0.378552 0.378552 0.378552 0.378552
0.378552 0.378552 0.378552 0.378552 0.378552 0.378552 0.378552 0.378552
0.378552;
#X coords 0 1 127 0 130 45 1;
#X restore 434 238 graph;
#X obj 467 224 tgl 14 0 \$0-ramp2_inv \$0-ramp2_inv-set invert 16 7
0 10 -208698 -13330 -13330 0 1;
#X obj 434 200 nbx 5 12 0.01 100 1 0 \$0-shape_2 \$0-shape_2-set shape
0 -5 0 10 -262144 -1 -1 0.01 256;
#X obj 489 200 nbx 4 12 0.001 1 1 0 \$0-clamp_2 \$0-clamp_2-set clamp
0 -5 0 10 -262144 -1 -1 0.001 256;
#X obj 535 200 nbx 4 12 0.01 1 1 0 \$0-clip_2 \$0-clip_2-set clip 0
-5 0 10 -262144 -1 -1 0.378552 256;
#X obj 489 214 nbx 4 10 0 100 0 0 \$0-clamp_2_c_pc \$0-clamp_2_c_pc-set
empty 0 -5 0 10 -262144 -1 -1 0 256;
#X obj 535 214 nbx 4 10 0 100 0 0 \$0-clip_2_c_pc \$0-clip_2_c_pc-set
empty 0 -5 0 10 -262144 -1 -1 0 256;
#X obj 489 214 nbx 4 10 0 1 0 0 \$0-clamp_2_c \$0-clamp_2_c-set empty
0 -5 0 10 -262144 -1 -1 0 256;
#X obj 535 214 nbx 4 10 0 1 0 0 \$0-clip_2_c \$0-clip_2_c-set empty
0 -5 0 10 -262144 -1 -1 0 256;
#X obj 564 235 vradio 10 1 0 5 \$0-ramp_2_addmode \$0-ramp_2_addmode-set
+ -1 -4 0 10 -138944 -13330 -13330 1;
#N canvas 677 0 550 627 rampmodes 0;
#X obj 64 108 inlet;
#X obj 233 40 inlet;
#X obj 330 18 inlet;
#X obj 330 40 + 1;
#X obj 327 65 t b f f;
#X obj 260 108 moses 128;
#X obj 260 87 * 1;
#X obj 366 87 * 128;
#X obj 311 129 - 128;
#X obj 367 113 - 128;
#X obj 363 168 /;
#X floatatom 379 190 5 0 0 0 - - -;
#X obj 261 130 / 128;
#X obj 370 214 t b f;
#X msg 371 234 1;
#X obj 371 253 -;
#X floatatom 260 190 5 0 0 0 - - -;
#X floatatom 316 234 5 0 0 0 - - -;
#X obj 403 26 inlet;
#X msg 368 19 0.01;
#N canvas 0 0 450 300 invert 0;
#X obj 117 67 inlet;
#X obj 188 52 inlet;
#X obj 173 136 == 0;
#X obj 129 165 spigot 1;
#X obj 249 165 spigot;
#X obj 249 187 t b f;
#X msg 249 211 1;
#X obj 253 236 -;
#X obj 253 262 outlet;
#X obj 188 73 t b f;
#X obj 121 107 f;
#X connect 0 0 10 0;
#X connect 1 0 9 0;
#X connect 2 0 3 1;
#X connect 3 0 8 0;
#X connect 4 0 5 0;
#X connect 5 0 6 0;
#X connect 5 1 7 1;
#X connect 6 0 7 0;
#X connect 7 0 8 0;
#X connect 9 0 10 0;
#X connect 9 1 2 0;
#X connect 9 1 4 1;
#X connect 10 0 3 0;
#X connect 10 0 4 0;
#X restore 197 240 pd invert;
#X obj 187 350 clip 0 1;
#X obj 176 389 -;
#X obj 177 288 f;
#X obj 201 306 f;
#X obj 197 327 t b f;
#X obj 249 310 f;
#X obj 399 366 t b f;
#X obj 309 366 t b f;
#X obj 182 498 *;
#X obj 266 391 *;
#X obj 182 522 *;
#X floatatom 217 504 5 0 0 0 - - -;
#X floatatom 198 460 5 0 0 0 - - -;
#N canvas 0 0 450 300 mindiv 0;
#X obj 77 146 t b f;
#X obj 77 184 /;
#X msg 77 165 1;
#X obj 77 36 t b f;
#X msg 77 55 1;
#X obj 77 74 -;
#X obj 76 14 inlet;
#X obj 61 212 outlet;
#X obj 93 113 moses 0;
#X msg 30 139 1;
#X connect 0 0 2 0;
#X connect 0 1 1 1;
#X connect 1 0 7 0;
#X connect 2 0 1 0;
#X connect 3 0 4 0;
#X connect 3 1 5 1;
#X connect 4 0 5 0;
#X connect 5 0 8 0;
#X connect 6 0 3 0;
#X connect 8 0 9 0;
#X connect 8 1 0 0;
#X connect 9 0 7 0;
#X restore 266 463 pd mindiv;
#N canvas 224 373 450 300 mindiv 0;
#X obj 110 211 t b f;
#X obj 110 249 /;
#X msg 110 230 1;
#X obj 76 14 inlet;
#X obj 71 270 outlet;
#X obj 71 191 moses 0;
#X msg 71 211 1;
#X obj 203 29 inlet;
#X obj 79 106 *;
#X obj 76 37 t b f;
#X msg 77 58 1;
#X obj 78 80 -;
#X obj 72 127 t b f;
#X msg 73 148 1;
#X obj 74 170 -;
#X connect 0 0 2 0;
#X connect 0 1 1 1;
#X connect 1 0 4 0;
#X connect 2 0 1 0;
#X connect 3 0 9 0;
#X connect 5 0 6 0;
#X connect 5 1 0 0;
#X connect 6 0 4 0;
#X connect 7 0 8 1;
#X connect 8 0 12 0;
#X connect 9 0 10 0;
#X connect 9 1 11 1;
#X connect 10 0 11 0;
#X connect 11 0 8 0;
#X connect 12 0 13 0;
#X connect 12 1 14 1;
#X connect 13 0 14 0;
#X connect 14 0 5 0;
#X restore 196 433 pd mindiv;
#X obj 248 330 t b f;
#X obj 53 508 outlet;
#X obj 399 345 r \$0-clip_2_c;
#X obj 309 345 r \$0-clamp_2_c;
#X obj 298 287 r \$0-clip_2;
#X obj 214 287 r \$0-clamp_2;
#X obj 250 211 r \$0-ramp2_inv;
#X obj 83 148 r \$0-ramp_2_addmode;
#X obj 12 435 +;
#X obj 47 434 -;
#X obj 57 176 swap;
#X obj 56 202 pack;
#X obj 182 597 tabwrite \$0-r2;
#X obj 78 435 -;
#X obj 77 412 swap;
#X obj 101 363 t b f;
#X msg 101 383 1;
#X obj 112 404 -;
#X obj 111 436 +;
#X obj 34 327 route 1 2 3 4;
#X connect 0 0 46 0;
#X connect 1 0 6 0;
#X connect 2 0 3 0;
#X connect 3 0 4 0;
#X connect 4 0 6 0;
#X connect 4 1 6 1;
#X connect 4 2 7 0;
#X connect 5 0 12 0;
#X connect 5 1 8 0;
#X connect 6 0 5 0;
#X connect 7 0 9 0;
#X connect 8 0 10 0;
#X connect 9 0 10 1;
#X connect 10 0 11 0;
#X connect 11 0 13 0;
#X connect 12 0 16 0;
#X connect 13 0 14 0;
#X connect 13 1 15 1;
#X connect 14 0 15 0;
#X connect 15 0 17 0;
#X connect 16 0 20 0;
#X connect 17 0 20 0;
#X connect 18 0 48 1;
#X connect 19 0 3 0;
#X connect 20 0 23 0;
#X connect 21 0 22 0;
#X connect 22 0 29 0;
#X connect 23 0 21 0;
#X connect 24 0 25 0;
#X connect 25 0 23 0;
#X connect 25 1 21 1;
#X connect 25 1 30 0;
#X connect 26 0 36 0;
#X connect 27 0 26 0;
#X connect 27 1 35 1;
#X connect 28 0 24 0;
#X connect 28 1 30 1;
#X connect 29 0 31 0;
#X connect 30 0 22 1;
#X connect 30 0 34 0;
#X connect 31 0 44 1;
#X connect 31 0 45 1;
#X connect 31 0 48 0;
#X connect 31 0 50 1;
#X connect 31 0 54 1;
#X connect 32 0 31 1;
#X connect 33 0 29 1;
#X connect 34 0 32 0;
#X connect 35 0 33 0;
#X connect 36 0 24 0;
#X connect 36 1 35 0;
#X connect 36 1 21 2;
#X connect 38 0 27 0;
#X connect 39 0 28 0;
#X connect 40 0 26 0;
#X connect 41 0 24 0;
#X connect 42 0 20 1;
#X connect 43 0 46 1;
#X connect 44 0 37 0;
#X connect 45 0 37 0;
#X connect 46 0 47 0;
#X connect 46 1 47 1;
#X connect 47 0 55 0;
#X connect 49 0 37 0;
#X connect 50 0 49 0;
#X connect 50 1 49 1;
#X connect 51 0 52 0;
#X connect 51 1 53 1;
#X connect 52 0 53 0;
#X connect 53 0 54 0;
#X connect 54 0 37 0;
#X connect 55 0 44 0;
#X connect 55 1 45 0;
#X connect 55 2 50 0;
#X connect 55 3 51 0;
#X restore 137 303 pd rampmodes;
#X obj 184 278 r \$0-shape_2;
#X obj 61 229 > 0;
#X obj 199 217 spigot;
#X obj 127 272 spigot;
#X obj 42 256 == 0;
#X obj 302 338 tabwrite \$0-sin;
#N canvas 2292 173 450 300 labels 0;
#X obj 103 30 inlet;
#X obj 103 75 sel 0 1 2 3 4;
#X msg 94 140 label +;
#X msg 124 180 label i-;
#X obj 92 241 s \$0-ramp_2_addmode-set;
#X msg 79 114 label 0f;
#X msg 114 159 label -i;
#X msg 137 204 label 1i;
#X connect 0 0 1 0;
#X connect 1 0 5 0;
#X connect 1 1 2 0;
#X connect 1 2 6 0;
#X connect 1 3 3 0;
#X connect 1 4 7 0;
#X connect 2 0 4 0;
#X connect 3 0 4 0;
#X connect 5 0 4 0;
#X connect 7 0 4 0;
#X restore 30 287 pd labels;
#X obj 24 203 t b f;
#X obj 24 182 r \$0-ramp_2_addmode;
#X obj 49 129 spigot;
#X obj 106 98 r \$0-ramp2_inv;
#X obj 140 77 r \$0-clip_2;
#X obj 121 55 r \$0-clip_2_c;
#X obj 27 55 r \$0-clamp_2_c;
#X obj 46 77 r \$0-clamp_2;
#X obj 265 214 * 1;
#X obj 533 15 nbx 4 10 0 100 0 0 \$0-mult_pc \$0-mult_pc-set * -8 5
0 10 -262144 -1 -1 100 256;
#X obj 533 15 nbx 4 10 0 1 0 0 \$0-mult \$0-mult-set * -8 5 0 10 -262144
-1 -1 1 256;
#X obj 356 150 t b f;
#X obj 362 129 r \$0-mult;
#X obj 599 146 * 0.01;
#X obj 599 166 s \$0-mult-set;
#X obj 599 126 r \$0-mult_pc;
#X obj 139 221 spigot;
#X obj 208 111 t b;
#X obj 28 160 delay 20;
#X obj 226 303 spigot 1;
#N canvas 0 0 450 300 patches 0;
#X restore 521 388 pd patches;
#X obj 211 130 delay 10;
#X msg 207 471 ramp1 \$1;
#X msg 299 471 ramp2 \$1;
#X obj 564 339 outlet;
#X obj 29 348 inlet;
#X obj 29 368 route float;
#X obj 92 395 t a b;
#X obj 91 427 drip;
#X msg 155 435 0;
#X obj 92 470 t b f;
#X obj 119 498 tabread4 \$0-sin;
#X obj 87 500 cup;
#X obj 97 532 pack;
#X obj 29 558 outlet;
#X obj 29 448 tabread4 \$0-sin;
#X obj 207 451 tabread4 \$0-r1;
#X obj 299 451 tabread4 \$0-r2;
#X obj 392 494 tabread4 \$0-r1;
#X obj 484 494 tabread4 \$0-r2;
#X obj 380 526 pack f f f;
#X obj 268 25 t b;
#X obj 29 391 t f f;
#X connect 0 0 2 0;
#X connect 1 0 5 0;
#X connect 2 0 31 0;
#X connect 3 0 2 1;
#X connect 3 0 81 0;
#X connect 5 0 56 0;
#X connect 5 0 83 0;
#X connect 9 0 0 0;
#X connect 9 1 5 1;
#X connect 9 1 60 0;
#X connect 9 2 5 3;
#X connect 9 2 59 0;
#X connect 9 2 62 1;
#X connect 13 0 5 2;
#X connect 13 0 81 0;
#X connect 21 0 19 0;
#X connect 22 1 9 0;
#X connect 23 0 22 0;
#X connect 25 0 81 0;
#X connect 26 0 81 0;
#X connect 27 0 81 0;
#X connect 28 0 81 0;
#X connect 29 0 81 0;
#X connect 30 0 72 0;
#X connect 31 0 42 0;
#X connect 33 0 3 0;
#X connect 35 0 36 0;
#X connect 36 0 88 0;
#X connect 39 0 40 0;
#X connect 40 0 41 0;
#X connect 42 0 30 0;
#X connect 43 0 44 0;
#X connect 43 0 81 0;
#X connect 44 0 45 0;
#X connect 45 0 31 0;
#X connect 45 1 42 1;
#X connect 56 0 62 0;
#X connect 57 0 56 2;
#X connect 57 0 80 0;
#X connect 58 0 59 1;
#X connect 58 0 60 1;
#X connect 58 0 66 1;
#X connect 58 0 80 1;
#X connect 59 0 56 3;
#X connect 60 0 56 1;
#X connect 61 0 83 1;
#X connect 64 0 82 0;
#X connect 64 1 58 0;
#X connect 64 1 61 0;
#X connect 64 1 63 0;
#X connect 65 0 64 0;
#X connect 66 0 81 0;
#X connect 67 0 66 0;
#X connect 68 0 66 0;
#X connect 69 0 66 0;
#X connect 70 0 66 0;
#X connect 71 0 66 0;
#X connect 72 0 1 0;
#X connect 75 0 31 0;
#X connect 75 1 72 1;
#X connect 76 0 75 0;
#X connect 76 0 81 0;
#X connect 77 0 78 0;
#X connect 79 0 77 0;
#X connect 80 0 105 0;
#X connect 81 0 85 0;
#X connect 82 0 105 0;
#X connect 83 0 62 0;
#X connect 85 0 105 0;
#X connect 86 0 34 0;
#X connect 87 0 34 0;
#X connect 89 0 90 0;
#X connect 90 0 106 0;
#X connect 90 1 91 0;
#X connect 91 0 92 0;
#X connect 91 1 93 0;
#X connect 92 0 94 0;
#X connect 93 0 96 0;
#X connect 94 0 96 0;
#X connect 94 1 95 0;
#X connect 94 1 102 0;
#X connect 94 1 103 0;
#X connect 95 0 97 1;
#X connect 96 0 97 0;
#X connect 96 0 104 0;
#X connect 97 0 98 0;
#X connect 99 0 98 0;
#X connect 100 0 86 0;
#X connect 101 0 87 0;
#X connect 102 0 104 1;
#X connect 103 0 104 2;
#X connect 104 0 34 0;
#X connect 105 0 22 0;
#X connect 106 0 99 0;
#X connect 106 1 100 0;
#X connect 106 1 101 0;
#X coords 0 -1 1 1 150 278 1 430 10;
