#N canvas 1600 52 713 385 10;
#X obj 240 153 pow 2;
#X obj 240 173 t b f;
#X obj 240 238 /;
#X obj 148 177 pow 2;
#X obj 148 207 * 4;
#X msg 240 118 127;
#X obj 195 94 t b b f;
#X obj 51 115 cnv 15 128 17 empty empty empty 20 12 0 14 -121811 -66577
0;
#X obj 148 294 outlet;
#X obj 474 83 s \$0-curve-set;
#X obj 195 74 r \$0-curve-num;
#X obj 447 103 s \$0-curve;
#X obj 447 63 t f f;
#X obj 447 23 inlet;
#X obj 348 359 outlet;
#X msg 348 339 curve \$1;
#X obj 148 157 inlet;
#X obj 240 214 - 20;
#X obj 148 273 + 20;
#X obj 240 193 22000;
#X obj 305 76 inlet;
#X obj 348 88 r \$0-mode;
#X obj 106 103 cnv 15 73 16 empty empty empty 20 12 0 14 -121811 -66577
0;
#X obj 56 118 hsl 65 12 1 16 0 0 \$0-curve \$0-curve-set curvature
6 6 0 10 -62987 -76773 -106463 0 1;
#X obj 123 118 nbx 4 12 0.5 16 1 0 \$0-curve-num \$0-curve empty 0
-8 0 10 -62987 -76773 -1 1 256;
#X obj 108 105 hradio 10 1 0 4 \$0-mode \$0-mode-set empty -18 5 0
8 -76773 -62987 -29699 0;
#X obj 513 127 sel 0 1 2 3;
#X obj 305 144 spigot;
#X obj 305 108 f;
#X msg 354 144 1;
#X msg 376 144 0;
#X msg 363 205 1;
#X msg 363 225 4;
#X obj 305 228 *;
#X obj 325 205 / 127;
#X obj 305 248 outlet;
#X msg 355 319 mode \$1;
#X msg 447 173 127;
#X obj 447 253 - 0.07;
#X obj 447 233 70.7;
#X obj 404 257 *;
#X obj 447 277 /;
#X obj 453 212 t b f;
#X obj 404 277 + 0.07;
#X obj 404 237 pow 5;
#X obj 447 193 pow 5;
#X msg 522 199 70.7;
#X msg 550 199 0.07;
#X msg 523 179 2;
#X msg 545 179 0.2;
#X msg 500 199 5;
#X msg 501 179 2;
#X obj 348 110 t b b f;
#X obj 404 144 spigot;
#X msg 453 144 1;
#X msg 475 144 0;
#X obj 447 43 route curve mode;
#X obj 493 63 s \$0-mode-set;
#X obj 312 319 change;
#X obj 577 25 loadbang;
#X msg 577 66 1;
#X msg 550 46 0;
#X obj 571 319 s \$0-mode-lbl;
#X obj 149 103 cnv 12 28 14 empty \$0-mode-lbl tr~ 0 6 0 10 -121811
-13381 0;
#X msg 505 230 label tr~;
#X msg 520 250 label svf~;
#X msg 536 270 label moog~;
#X msg 552 290 label dl~;
#X obj 191 176 pow 2;
#X obj 191 206 * 4;
#X obj 191 293 outlet;
#X obj 191 156 inlet;
#X obj 191 272 + 20;
#X connect 0 0 1 0;
#X connect 1 0 19 0;
#X connect 1 1 2 1;
#X connect 2 0 4 1;
#X connect 2 0 69 1;
#X connect 3 0 4 0;
#X connect 4 0 18 0;
#X connect 5 0 0 0;
#X connect 6 0 3 0;
#X connect 6 1 5 0;
#X connect 6 2 0 1;
#X connect 6 2 3 1;
#X connect 6 2 58 0;
#X connect 6 2 68 1;
#X connect 10 0 6 0;
#X connect 12 0 11 0;
#X connect 12 1 9 0;
#X connect 13 0 56 0;
#X connect 15 0 14 0;
#X connect 16 0 3 0;
#X connect 17 0 2 0;
#X connect 18 0 8 0;
#X connect 19 0 17 0;
#X connect 20 0 28 0;
#X connect 21 0 52 0;
#X connect 26 0 64 0;
#X connect 26 0 30 0;
#X connect 26 0 50 0;
#X connect 26 0 46 0;
#X connect 26 0 47 0;
#X connect 26 0 54 0;
#X connect 26 1 65 0;
#X connect 26 1 29 0;
#X connect 26 1 31 0;
#X connect 26 1 55 0;
#X connect 26 2 66 0;
#X connect 26 2 29 0;
#X connect 26 2 32 0;
#X connect 26 2 55 0;
#X connect 26 3 67 0;
#X connect 26 3 30 0;
#X connect 26 3 51 0;
#X connect 26 3 48 0;
#X connect 26 3 49 0;
#X connect 26 3 54 0;
#X connect 27 0 33 0;
#X connect 28 0 27 0;
#X connect 28 0 53 0;
#X connect 29 0 27 1;
#X connect 30 0 27 1;
#X connect 31 0 34 0;
#X connect 32 0 34 0;
#X connect 33 0 35 0;
#X connect 34 0 33 1;
#X connect 36 0 14 0;
#X connect 37 0 45 0;
#X connect 38 0 41 0;
#X connect 39 0 38 0;
#X connect 40 0 43 0;
#X connect 41 0 40 1;
#X connect 42 0 39 0;
#X connect 42 1 41 1;
#X connect 43 0 35 0;
#X connect 44 0 40 0;
#X connect 45 0 42 0;
#X connect 46 0 39 1;
#X connect 47 0 38 1;
#X connect 47 0 43 1;
#X connect 48 0 39 1;
#X connect 49 0 38 1;
#X connect 49 0 43 1;
#X connect 50 0 45 1;
#X connect 50 0 44 1;
#X connect 51 0 45 1;
#X connect 51 0 44 1;
#X connect 52 0 28 0;
#X connect 52 1 37 0;
#X connect 52 2 26 0;
#X connect 52 2 36 0;
#X connect 53 0 44 0;
#X connect 54 0 53 1;
#X connect 55 0 53 1;
#X connect 56 0 12 0;
#X connect 56 1 57 0;
#X connect 58 0 15 0;
#X connect 59 0 61 0;
#X connect 59 0 60 0;
#X connect 60 0 9 0;
#X connect 61 0 57 0;
#X connect 64 0 62 0;
#X connect 65 0 62 0;
#X connect 66 0 62 0;
#X connect 67 0 62 0;
#X connect 68 0 69 0;
#X connect 69 0 72 0;
#X connect 71 0 68 0;
#X connect 72 0 70 0;
#X coords 0 -1 1 1 130 35 1 50 100;
