#N canvas 0 0 450 300 10;
#X obj 122 137 / 63.5;
#X obj 122 173 - 1;
#X msg 78 135 fb \$1;
#X obj 78 272 outlet;
#X obj 151 174 - 60;
#X obj 210 197 exp;
#X floatatom 210 218 0 0 0 0 - - -;
#X floatatom 210 178 5 0 0 0 - - -;
#X obj 210 138 + 1;
#X obj 210 158 / 13.196;
#X msg 210 239 win \$1;
#X obj 78 95 inlet;
#X obj 122 95 inlet;
#X obj 166 96 inlet;
#X obj 216 96 inlet;
#X msg 102 219 pc \$1;
#X msg 152 219 pf \$1;
#X connect 0 0 1 0;
#X connect 1 0 16 0;
#X connect 2 0 3 0;
#X connect 4 0 15 0;
#X connect 5 0 6 0;
#X connect 6 0 10 0;
#X connect 7 0 5 0;
#X connect 8 0 9 0;
#X connect 9 0 7 0;
#X connect 10 0 3 0;
#X connect 11 0 2 0;
#X connect 12 0 0 0;
#X connect 13 0 4 0;
#X connect 14 0 8 0;
#X connect 15 0 3 0;
#X connect 16 0 3 0;
