#N canvas 701 110 585 380 10;
#X obj 320 185 pow 2;
#X obj 320 205 t b f;
#X obj 320 245 /;
#X obj 270 196 pow 2;
#X obj 250 269 * 4;
#X obj 270 105 t b b f;
#X obj 51 118 cnv 15 118 16 empty empty empty 20 12 0 14 -75632 -66577
0;
#X obj 250 289 outlet;
#X obj 442 38 inlet;
#X obj 320 225 1;
#X obj 101 103 cnv 15 68 16 empty empty empty 20 12 0 14 -75632 -66577
0;
#X obj 140 105 nbx 2 12 0 11 0 0 \$0-0spot \$0-0spot-set 0-spot -37
6 0 10 -198588 -41945 -215232 5 256;
#X obj 56 120 hsl 65 12 1 16 0 0 \$0-f_curve \$0-f_curve-set f_curve
12 6 0 10 -41945 -198588 -141308 427 1;
#X obj 123 120 nbx 4 12 0.5 16 1 0 \$0-f_curve-num \$0-f_curve empty
0 -8 0 10 -41945 -198588 -1 2 256;
#X obj 320 105 r \$0-0spot;
#X msg 320 145 63;
#X obj 320 165 -;
#X obj 320 125 t b f;
#X obj 424 94 t f f;
#X obj 451 113 s \$0-f_curve-set;
#X obj 424 132 s \$0-f_curve;
#X obj 461 94 s \$0-0spot-set;
#X obj 350 31 loadbang;
#X msg 350 51 1;
#X obj 233 196 pow 2;
#X obj 242 19 r \$0-0spot;
#X obj 203 67 moses 0;
#X obj 203 107 + 0;
#X obj 203 127 moses 0;
#X obj 242 87 - 0;
#X obj 218 87 + 1;
#X obj 203 47 - 64;
#X msg 242 147 0;
#X obj 203 27 inlet;
#X text 201 1 pitch;
#X obj 234 218 * -1;
#X obj 203 154 abs;
#X text 204 10 fine;
#X obj 340 342 outlet;
#X obj 270 85 r \$0-f_curve-num;
#X msg 379 284 0spot \$1;
#X obj 379 265 change;
#X obj 335 284 change;
#X msg 352 303 curve \$1;
#X obj 401 59 route curve 0spot;
#X connect 0 0 1 0;
#X connect 1 0 9 0;
#X connect 1 1 2 1;
#X connect 2 0 4 1;
#X connect 3 0 4 0;
#X connect 4 0 7 0;
#X connect 5 0 3 0;
#X connect 5 0 24 0;
#X connect 5 1 15 0;
#X connect 5 2 0 1;
#X connect 5 2 3 1;
#X connect 5 2 24 1;
#X connect 5 2 42 0;
#X connect 8 0 44 0;
#X connect 9 0 2 0;
#X connect 14 0 17 0;
#X connect 14 0 41 0;
#X connect 15 0 16 0;
#X connect 16 0 0 0;
#X connect 17 0 15 0;
#X connect 17 1 16 1;
#X connect 18 0 20 0;
#X connect 18 1 19 0;
#X connect 22 0 23 0;
#X connect 23 0 21 0;
#X connect 23 0 18 0;
#X connect 24 0 35 0;
#X connect 25 0 26 1;
#X connect 25 0 29 1;
#X connect 25 0 30 0;
#X connect 26 0 27 0;
#X connect 26 1 29 0;
#X connect 27 0 28 0;
#X connect 28 0 36 0;
#X connect 28 1 32 0;
#X connect 29 0 3 0;
#X connect 30 0 27 1;
#X connect 31 0 26 0;
#X connect 32 0 4 0;
#X connect 33 0 31 0;
#X connect 35 0 4 0;
#X connect 36 0 24 0;
#X connect 39 0 5 0;
#X connect 40 0 38 0;
#X connect 41 0 40 0;
#X connect 42 0 43 0;
#X connect 43 0 38 0;
#X connect 44 0 18 0;
#X connect 44 1 21 0;
#X coords 0 -1 1 1 120 37 1 50 100;
