#N canvas 44 178 995 390 10;
#X obj 124 184 exp;
#X obj 123 277 outlet;
#X obj 124 138 / 16;
#X obj 122 216 - 1;
#X obj 21 49 inlet;
#X obj 28 99 spigot;
#X obj 58 78 == 0;
#X obj 24 190 * 15.748;
#X msg 177 199 delpitch \$1;
#X msg 82 249 delay \$1;
#X obj 110 94 spigot;
#X obj 195 93 spigot;
#X obj 140 73 == 1;
#X obj 225 72 == 2;
#X obj 103 36 hradio 12 1 0 3 empty empty lin 39 6 0 10 -262144 -1
-1 0;
#X obj 351 -2 sel 0 1 2;
#X msg 351 52 label lin;
#X msg 368 35 label exp;
#X msg 385 18 label pitch;
#X obj 355 90 inlet;
#X msg 355 150 fb \$1;
#X obj 355 110 / 0.635;
#X obj 355 130 - 100;
#X floatatom 488 142 5 0 0 0 - - -;
#X obj 461 77 / 64;
#X obj 461 162 pack;
#X obj 461 100 t f f;
#X obj 488 121 * 0.88;
#X obj 461 52 inlet;
#X msg 461 183 lq \$1 \, hq \$1;
#X obj 660 161 sin;
#X floatatom 656 135 5 0 0 0 - - -;
#X floatatom 660 188 0 0 0 0 - - -;
#X obj 635 40 loadbang;
#X obj 640 66 random 10000;
#X obj 591 123 / 63.5;
#X obj 591 145 - 1;
#X obj 592 176 * 3.141;
#X obj 600 224 sin;
#X obj 602 252 + 1;
#X obj 723 66 random 10000;
#X obj 733 41 bng 15 250 50 0 empty empty empty 17 7 0 10 -262144 -1
-1;
#X obj 622 199 +;
#X obj 698 256 + 1;
#X obj 718 203 +;
#X floatatom 605 303 0 0 0 0 - - -;
#X floatatom 693 310 0 0 0 0 - - -;
#X obj 694 285 * 6000;
#X obj 606 278 * 600;
#X msg 665 340 lpf \$1;
#X obj 696 228 cos;
#X obj 724 92 / 2000;
#X obj 641 92 / 1926;
#X msg 578 328 hpf \$1;
#X obj 565 47 inlet;
#X text 281 257 INLETS: delay fb q filtf;
#X msg 232 30 0;
#X obj 260 31 loadbang;
#X connect 0 0 3 0;
#X connect 2 0 0 0;
#X connect 3 0 9 0;
#X connect 4 0 5 0;
#X connect 4 0 10 0;
#X connect 4 0 11 0;
#X connect 5 0 7 0;
#X connect 6 0 5 1;
#X connect 7 0 9 0;
#X connect 8 0 1 0;
#X connect 9 0 1 0;
#X connect 10 0 2 0;
#X connect 11 0 8 0;
#X connect 12 0 10 1;
#X connect 13 0 11 1;
#X connect 14 0 6 0;
#X connect 14 0 12 0;
#X connect 14 0 13 0;
#X connect 14 0 15 0;
#X connect 15 0 16 0;
#X connect 15 1 17 0;
#X connect 15 2 18 0;
#X connect 16 0 14 0;
#X connect 17 0 14 0;
#X connect 18 0 14 0;
#X connect 19 0 21 0;
#X connect 20 0 1 0;
#X connect 21 0 22 0;
#X connect 22 0 20 0;
#X connect 23 0 25 1;
#X connect 24 0 26 0;
#X connect 25 0 29 0;
#X connect 26 0 25 0;
#X connect 26 1 27 0;
#X connect 27 0 23 0;
#X connect 28 0 24 0;
#X connect 29 0 1 0;
#X connect 30 0 32 0;
#X connect 31 0 30 0;
#X connect 33 0 34 0;
#X connect 33 0 40 0;
#X connect 34 0 52 0;
#X connect 35 0 36 0;
#X connect 36 0 37 0;
#X connect 37 0 42 0;
#X connect 37 0 44 0;
#X connect 38 0 39 0;
#X connect 39 0 48 0;
#X connect 40 0 51 0;
#X connect 41 0 40 0;
#X connect 41 0 34 0;
#X connect 42 0 38 0;
#X connect 43 0 47 0;
#X connect 44 0 50 0;
#X connect 45 0 53 0;
#X connect 46 0 49 0;
#X connect 47 0 46 0;
#X connect 48 0 45 0;
#X connect 49 0 1 0;
#X connect 50 0 43 0;
#X connect 51 0 44 1;
#X connect 52 0 42 1;
#X connect 53 0 1 0;
#X connect 54 0 35 0;
#X connect 56 0 14 0;
#X connect 57 0 56 0;
#X coords 0 -1 1 1 85 30 1 100 20;
