#N canvas 727 52 713 385 10;
#X obj 240 153 pow 2;
#X obj 240 173 t b f;
#X obj 240 238 /;
#X obj 167 164 pow 2;
#X obj 167 194 * 4;
#X msg 240 118 127;
#X obj 195 94 t b b f;
#X obj 51 115 cnv 15 128 17 empty empty empty 20 12 0 14 -121811 -66577
0;
#X obj 167 281 outlet;
#X obj 474 83 s \$0-curve-set;
#X obj 195 74 r \$0-curve-num;
#X obj 447 103 s \$0-curve;
#X obj 447 63 t f f;
#X obj 447 23 inlet;
#X obj 348 359 outlet;
#X msg 348 339 curve \$1;
#X obj 167 144 inlet;
#X obj 240 214 - 20;
#X obj 167 260 + 20;
#X obj 240 193 22000;
#X obj 106 103 cnv 15 73 16 empty empty empty 20 12 0 14 -121811 -66577
0;
#X obj 56 118 hsl 65 12 1 16 0 0 \$0-curve \$0-curve-set curvature
6 6 0 10 -62987 -76773 -106463 0 1;
#X obj 123 118 nbx 4 12 0.5 16 1 0 \$0-curve-num \$0-curve empty 0
-8 0 10 -62987 -76773 -1 1 256;
#X obj 447 43 route curve mode;
#X obj 493 63 s \$0-mode-set;
#X obj 312 319 change;
#X obj 577 25 loadbang;
#X msg 577 66 1;
#X msg 550 46 0;
#X connect 0 0 1 0;
#X connect 1 0 19 0;
#X connect 1 1 2 1;
#X connect 2 0 4 1;
#X connect 3 0 4 0;
#X connect 4 0 18 0;
#X connect 5 0 0 0;
#X connect 6 0 3 0;
#X connect 6 1 5 0;
#X connect 6 2 0 1;
#X connect 6 2 3 1;
#X connect 6 2 25 0;
#X connect 10 0 6 0;
#X connect 12 0 11 0;
#X connect 12 1 9 0;
#X connect 13 0 23 0;
#X connect 15 0 14 0;
#X connect 16 0 3 0;
#X connect 17 0 2 0;
#X connect 18 0 8 0;
#X connect 19 0 17 0;
#X connect 23 0 12 0;
#X connect 23 1 24 0;
#X connect 25 0 15 0;
#X connect 26 0 28 0;
#X connect 26 0 27 0;
#X connect 27 0 9 0;
#X connect 28 0 24 0;
#X coords 0 -1 1 1 130 35 1 50 100;
