#N canvas 3 89 706 441 10;
#X obj 240 153 pow 2;
#X obj 240 173 t b f;
#X obj 240 238 /;
#X obj 167 164 pow 2;
#X obj 167 194 * 4;
#X msg 240 118 127;
#X obj 240 214 - 0.0453515;
#X obj 167 260 + 0.0453515;
#X obj 298 51 loadbang;
#X obj 239 51 t b b f;
#X obj 287 88 \$1;
#X obj 287 109 moses 0;
#X obj 240 193 16384;
#X obj 166 386 outlet;
#X obj 427 177 s \$0-curve-set;
#X obj 239 31 r \$0-curve-num;
#X obj 400 217 s \$0-curve;
#X obj 400 148 t f f;
#X obj 400 108 inlet;
#X obj 329 291 outlet;
#X msg 329 271 curve \$1;
#X obj 167 144 inlet;
#X obj 326 213 \$2;
#X obj 329 251 change;
#X obj 51 115 cnv 15 118 16 empty empty empty 20 12 0 14 -193694 -66577
0;
#X obj 56 117 hsl 65 12 1 16 0 0 \$0-curve \$0-curve-set curvature
6 6 1 10 -98960 -194835 -259994 853 1;
#X obj 123 117 nbx 4 12 0.01 16 1 0 \$0-curve-num \$0-curve empty 0
-8 1 10 -98960 -194835 -1 3 256;
#X obj 440 150 s \$0-invert-set;
#X msg 392 272 invert \$1;
#X obj 181 296 == 0;
#X obj 269 279 t b f;
#X obj 230 322 spigot;
#X obj 138 322 spigot 1;
#X obj 231 343 * -1;
#X obj 231 363 + 16384;
#X obj 385 245 r \$0-invert;
#X obj 169 115 cnv 15 32 16 empty empty empty 20 12 0 14 -193694 -66577
0;
#X obj 188 117 tgl 10 0 \$0-invert \$0-invert-set inv -17 5 0 8 -259994
-98960 -49416 0 1;
#X obj 346 141 \$3;
#X msg 443 101 curve \$1;
#X floatatom 442 74 5 0 0 0 - - -;
#X obj 398 85 \$4;
#X obj 559 152 t b;
#X obj 559 174 del 0;
#X obj 400 128 route curve invert hi lo;
#X connect 0 0 1 0;
#X connect 1 0 12 0;
#X connect 1 1 2 1;
#X connect 2 0 4 1;
#X connect 3 0 4 0;
#X connect 4 0 7 0;
#X connect 5 0 0 0;
#X connect 6 0 2 0;
#X connect 7 0 32 0;
#X connect 7 0 31 0;
#X connect 8 0 10 0;
#X connect 8 0 14 0;
#X connect 8 0 22 0;
#X connect 8 0 38 0;
#X connect 8 0 41 0;
#X connect 9 0 3 0;
#X connect 9 1 5 0;
#X connect 9 2 0 1;
#X connect 9 2 3 1;
#X connect 9 2 23 0;
#X connect 10 0 11 0;
#X connect 11 1 12 1;
#X connect 11 1 34 1;
#X connect 12 0 6 0;
#X connect 15 0 9 0;
#X connect 17 0 16 0;
#X connect 17 1 14 0;
#X connect 18 0 44 0;
#X connect 20 0 19 0;
#X connect 21 0 3 0;
#X connect 22 0 6 1;
#X connect 22 0 7 1;
#X connect 23 0 20 0;
#X connect 28 0 19 0;
#X connect 29 0 32 1;
#X connect 30 0 7 0;
#X connect 30 1 29 0;
#X connect 30 1 31 1;
#X connect 31 0 33 0;
#X connect 32 0 13 0;
#X connect 33 0 34 0;
#X connect 34 0 13 0;
#X connect 35 0 28 0;
#X connect 35 0 30 0;
#X connect 38 0 14 0;
#X connect 39 0 44 0;
#X connect 40 0 39 0;
#X connect 41 0 27 0;
#X connect 42 0 43 0;
#X connect 43 0 14 0;
#X connect 44 0 17 0;
#X connect 44 1 27 0;
#X connect 44 2 10 0;
#X connect 44 2 42 0;
#X connect 44 3 22 0;
#X connect 44 3 42 0;
#X coords 0 -1 1 1 152 34 1 50 100;
