#N canvas 624 110 739 371 10;
#X obj 490 185 pow 2;
#X obj 490 205 t b f;
#X obj 490 245 /;
#X obj 440 196 pow 2;
#X obj 420 269 * 4;
#X obj 440 105 t b b f;
#X obj 51 118 cnv 15 118 32 empty empty empty 20 12 0 14 -75632 -66577
0;
#X obj 420 289 outlet;
#X obj 572 153 t f f;
#X obj 612 38 inlet;
#X obj 490 225 1;
#X obj 101 103 cnv 15 68 16 empty empty empty 20 12 0 14 -75632 -66577
0;
#X obj 56 120 hsl 65 12 1 16 0 0 \$0-c_curve \$0-c_curve-set c_curve
12 6 1 10 -41945 -198588 -141308 0 1;
#X obj 123 120 nbx 4 12 0.5 16 1 0 \$0-c_curve-num \$0-c_curve empty
0 -8 1 10 -41945 -198588 -1 1 256;
#X obj 140 105 nbx 2 12 0 11 0 0 \$0-0spot \$0-0spot-set 0-spot -37
6 1 10 -198588 -41945 -215232 1 256;
#X obj 572 59 route ccurve fcurve 0spot;
#X obj 56 135 hsl 65 12 1 16 0 0 \$0-f_curve \$0-f_curve-set f_curve
12 6 1 10 -41945 -198588 -141308 0 1;
#X obj 123 135 nbx 4 12 0.5 16 1 0 \$0-f_curve-num \$0-f_curve empty
0 -8 1 10 -41945 -198588 -1 1 256;
#X obj 490 105 r \$0-0spot;
#X msg 490 145 63;
#X obj 490 165 -;
#X obj 490 125 t b f;
#X obj 599 172 s \$0-c_curve-set;
#X obj 572 191 s \$0-c_curve;
#X obj 594 94 t f f;
#X obj 621 113 s \$0-f_curve-set;
#X obj 594 132 s \$0-f_curve;
#X obj 636 83 s \$0-0spot-set;
#X obj 536 33 loadbang;
#X msg 536 53 1;
#X obj 403 196 pow 2;
#X obj 412 19 r \$0-0spot;
#X obj 373 67 moses 0;
#X obj 373 107 + 0;
#X obj 373 127 moses 0;
#X obj 412 87 - 0;
#X obj 388 87 + 1;
#X obj 373 47 - 64;
#X msg 412 147 0;
#X obj 373 27 inlet;
#X text 371 1 pitch;
#X obj 404 218 * -1;
#X obj 373 154 abs;
#X text 374 10 fine;
#X obj 510 342 outlet;
#X obj 322 222 pow 2;
#X obj 307 243 /;
#X obj 257 194 pow 2;
#X obj 257 267 * 4;
#X obj 257 103 t b b f;
#X obj 257 287 outlet;
#X obj 257 83 r \$0-c_curve-num;
#X obj 307 103 r \$0-0spot;
#X msg 307 143 63;
#X obj 307 163 -;
#X obj 307 123 t b f;
#X obj 220 194 pow 2;
#X obj 229 17 r \$0-0spot;
#X obj 190 65 moses 0;
#X obj 190 105 + 0;
#X obj 190 125 moses 0;
#X obj 229 85 - 0;
#X obj 205 85 + 1;
#X obj 190 45 - 64;
#X msg 229 145 0;
#X obj 190 25 inlet;
#X text 189 -1 pitch;
#X obj 221 216 * -1;
#X obj 190 152 abs;
#X obj 307 183 t f f;
#X obj 440 85 r \$0-f_curve-num;
#X text 185 9 coarse;
#X msg 497 322 ccurve \$1;
#X msg 522 303 fcurve \$1;
#X msg 549 284 0spot \$1;
#X obj 549 265 change;
#X obj 505 284 change;
#X obj 480 303 change;
#X connect 0 0 1 0;
#X connect 1 0 10 0;
#X connect 1 1 2 1;
#X connect 2 0 4 1;
#X connect 3 0 4 0;
#X connect 4 0 7 0;
#X connect 5 0 3 0;
#X connect 5 0 30 0;
#X connect 5 1 19 0;
#X connect 5 2 0 1;
#X connect 5 2 3 1;
#X connect 5 2 30 1;
#X connect 5 2 76 0;
#X connect 8 0 23 0;
#X connect 8 1 22 0;
#X connect 9 0 15 0;
#X connect 10 0 2 0;
#X connect 15 0 8 0;
#X connect 15 1 24 0;
#X connect 15 2 27 0;
#X connect 18 0 21 0;
#X connect 18 0 75 0;
#X connect 19 0 20 0;
#X connect 20 0 0 0;
#X connect 21 0 19 0;
#X connect 21 1 20 1;
#X connect 24 0 26 0;
#X connect 24 1 25 0;
#X connect 28 0 29 0;
#X connect 29 0 27 0;
#X connect 29 0 24 0;
#X connect 29 0 8 0;
#X connect 30 0 41 0;
#X connect 31 0 32 1;
#X connect 31 0 35 1;
#X connect 31 0 36 0;
#X connect 32 0 33 0;
#X connect 32 1 35 0;
#X connect 33 0 34 0;
#X connect 34 0 42 0;
#X connect 34 1 38 0;
#X connect 35 0 3 0;
#X connect 36 0 33 1;
#X connect 37 0 32 0;
#X connect 38 0 4 0;
#X connect 39 0 37 0;
#X connect 41 0 4 0;
#X connect 42 0 30 0;
#X connect 45 0 46 1;
#X connect 46 0 48 1;
#X connect 47 0 48 0;
#X connect 48 0 50 0;
#X connect 49 0 47 0;
#X connect 49 0 56 0;
#X connect 49 1 53 0;
#X connect 49 2 45 1;
#X connect 49 2 47 1;
#X connect 49 2 56 1;
#X connect 49 2 77 0;
#X connect 51 0 49 0;
#X connect 52 0 55 0;
#X connect 53 0 54 0;
#X connect 54 0 69 0;
#X connect 55 0 53 0;
#X connect 55 1 54 1;
#X connect 56 0 67 0;
#X connect 57 0 58 1;
#X connect 57 0 61 1;
#X connect 57 0 62 0;
#X connect 58 0 59 0;
#X connect 58 1 61 0;
#X connect 59 0 60 0;
#X connect 60 0 68 0;
#X connect 60 1 64 0;
#X connect 61 0 47 0;
#X connect 62 0 59 1;
#X connect 63 0 58 0;
#X connect 64 0 48 0;
#X connect 65 0 63 0;
#X connect 67 0 48 0;
#X connect 68 0 56 0;
#X connect 69 0 46 0;
#X connect 69 1 45 0;
#X connect 70 0 5 0;
#X connect 72 0 44 0;
#X connect 73 0 44 0;
#X connect 74 0 44 0;
#X connect 75 0 74 0;
#X connect 76 0 73 0;
#X connect 77 0 72 0;
#X coords 0 -1 1 1 120 53 1 50 100;
