#N canvas 701 110 607 383 10;
#X obj 51 118 cnv 15 118 16 empty empty empty 20 12 0 14 -75632 -66577
0;
#X obj 442 153 t f f;
#X obj 482 38 inlet;
#X obj 101 103 cnv 15 68 16 empty empty empty 20 12 0 14 -75632 -66577
0;
#X obj 56 120 hsl 65 12 1 16 0 0 \$0-c_curve \$0-c_curve-set c_curve
12 6 0 10 -41945 -198588 -141308 427 1;
#X obj 123 120 nbx 4 12 0.5 16 1 0 \$0-c_curve-num \$0-c_curve empty
0 -8 0 10 -41945 -198588 -1 2 256;
#X obj 140 105 nbx 2 12 0 32 0 0 \$0-0spot \$0-0spot-set 0-spot -37
6 0 10 -198588 -41945 -215232 3 256;
#X obj 469 172 s \$0-c_curve-set;
#X obj 442 191 s \$0-c_curve;
#X obj 480 117 s \$0-0spot-set;
#X obj 406 33 loadbang;
#X msg 406 53 1;
#X obj 380 342 outlet;
#X obj 322 222 pow 2;
#X obj 307 243 /;
#X obj 257 194 pow 2;
#X obj 257 267 * 4;
#X obj 257 103 t b b f;
#X obj 257 287 outlet;
#X obj 257 83 r \$0-c_curve-num;
#X obj 307 103 r \$0-0spot;
#X msg 307 143 63;
#X obj 307 163 -;
#X obj 307 123 t b f;
#X obj 220 194 pow 2;
#X obj 229 17 r \$0-0spot;
#X obj 190 65 moses 0;
#X obj 190 105 + 0;
#X obj 190 125 moses 0;
#X obj 229 85 - 0;
#X obj 205 85 + 1;
#X obj 190 45 - 64;
#X msg 229 145 0;
#X obj 190 25 inlet;
#X text 189 -1 pitch;
#X obj 221 216 * -1;
#X obj 190 152 abs;
#X obj 307 183 t f f;
#X text 185 9 coarse;
#X msg 419 284 0spot \$1;
#X obj 419 265 change;
#X obj 350 303 change;
#X msg 367 322 curve \$1;
#X obj 442 59 route curve 0spot;
#X connect 1 0 8 0;
#X connect 1 1 7 0;
#X connect 2 0 43 0;
#X connect 10 0 11 0;
#X connect 11 0 9 0;
#X connect 11 0 1 0;
#X connect 13 0 14 1;
#X connect 14 0 16 1;
#X connect 15 0 16 0;
#X connect 16 0 18 0;
#X connect 17 0 15 0;
#X connect 17 0 24 0;
#X connect 17 1 21 0;
#X connect 17 2 13 1;
#X connect 17 2 15 1;
#X connect 17 2 24 1;
#X connect 17 2 41 0;
#X connect 19 0 17 0;
#X connect 20 0 23 0;
#X connect 20 0 40 0;
#X connect 21 0 22 0;
#X connect 22 0 37 0;
#X connect 23 0 21 0;
#X connect 23 1 22 1;
#X connect 24 0 35 0;
#X connect 25 0 26 1;
#X connect 25 0 29 1;
#X connect 25 0 30 0;
#X connect 26 0 27 0;
#X connect 26 1 29 0;
#X connect 27 0 28 0;
#X connect 28 0 36 0;
#X connect 28 1 32 0;
#X connect 29 0 15 0;
#X connect 30 0 27 1;
#X connect 31 0 26 0;
#X connect 32 0 16 0;
#X connect 33 0 31 0;
#X connect 35 0 16 0;
#X connect 36 0 24 0;
#X connect 37 0 14 0;
#X connect 37 1 13 0;
#X connect 39 0 12 0;
#X connect 40 0 39 0;
#X connect 41 0 42 0;
#X connect 42 0 12 0;
#X connect 43 0 1 0;
#X connect 43 1 9 0;
#X coords 0 -1 1 1 120 37 1 50 100;
