#N canvas 24 169 856 300 10;
#X obj 24 72 inlet~;
#N canvas 0 0 450 300 (subpatch) 0;
#X array \$0-miniscope 128 float 4;
#X coords 0 1 127 -1 202 61 1;
#X restore 202 128 graph;
#X obj 44 119 bang~;
#X obj 192 69 switch~ 4096 1 1;
#X msg 197 35 set \$1 1 1;
#X floatatom 369 76 5 0 0 0 - - -;
#X obj 304 116 hradio 10 1 0 10 empty empty size 0 -5 1 10 -262144
-1 -1 9;
#X obj 287 112 tgl 14 0 empty empty ON 1 7 1 10 -262144 -258113 -86277
0 1;
#X obj 361 103 nbx 5 10 -1e+37 1e+37 0 0 empty empty empty 0 -8 0 8
-262144 -1 -1 0 256;
#X obj 159 178 \$1;
#X obj 107 85 loadbang;
#X obj 41 227 pack s f;
#X obj 27 179 t b f;
#X msg 25 252 \; \$1 resize \$2;
#X obj 398 34 sel 0 1 2 3 4 5 6 7 8 9;
#X obj 361 103 nbx 5 10 -1e+37 1e+37 0 0 empty empty empty 0 -8 0 8
-262144 -1 -1 128 256;
#X obj 24 156 tabwrite~ \$0-miniscope;
#X obj 27 200 symbol \$0-miniscope;
#X obj 687 28 inlet;
#X obj 685 86 route on size;
#X msg 394 13 1;
#X obj 304 14 loadbang;
#N canvas 0 0 724 468 realsize 0;
#X obj 24 43 inlet;
#X obj 69 89 moses 128;
#X obj 120 113 moses 256;
#X obj 177 135 moses 512;
#X obj 234 158 moses 1024;
#X obj 291 179 moses 2048;
#X obj 342 203 moses 4096;
#X obj 399 225 moses 8192;
#X obj 456 248 moses 16384;
#X msg 69 119 0;
#X msg 118 139 1;
#X msg 180 159 2;
#X msg 230 182 3;
#X msg 288 201 4;
#X msg 340 229 5;
#X msg 396 254 6;
#X msg 455 282 7;
#X obj 519 272 moses 32768;
#X msg 519 297 8;
#X msg 581 299 9;
#X obj 52 366 outlet;
#X obj 24 66 moses 10;
#X connect 0 0 21 0;
#X connect 1 0 9 0;
#X connect 1 1 2 0;
#X connect 2 0 10 0;
#X connect 2 1 3 0;
#X connect 3 0 11 0;
#X connect 3 1 4 0;
#X connect 4 0 12 0;
#X connect 4 1 5 0;
#X connect 5 0 13 0;
#X connect 5 1 6 0;
#X connect 6 0 14 0;
#X connect 6 1 7 0;
#X connect 7 0 15 0;
#X connect 7 1 8 0;
#X connect 8 0 16 0;
#X connect 8 1 17 0;
#X connect 9 0 20 0;
#X connect 10 0 20 0;
#X connect 11 0 20 0;
#X connect 12 0 20 0;
#X connect 13 0 20 0;
#X connect 14 0 20 0;
#X connect 15 0 20 0;
#X connect 16 0 20 0;
#X connect 17 0 18 0;
#X connect 17 1 19 0;
#X connect 18 0 20 0;
#X connect 19 0 20 0;
#X connect 21 0 20 0;
#X connect 21 1 1 0;
#X restore 468 86 pd realsize;
#X msg 369 55 64;
#X msg 394 54 128;
#X msg 420 54 256;
#X msg 450 54 512;
#X msg 481 55 1024;
#X msg 513 56 2048;
#X msg 545 56 4096;
#X msg 582 56 8192;
#X msg 623 55 16384;
#X msg 662 54 32768;
#X connect 0 0 16 0;
#X connect 2 0 16 0;
#X connect 4 0 3 0;
#X connect 5 0 15 0;
#X connect 6 0 14 0;
#X connect 7 0 3 0;
#X connect 9 0 12 0;
#X connect 10 0 9 0;
#X connect 11 0 13 0;
#X connect 12 0 17 0;
#X connect 12 1 11 1;
#X connect 14 0 23 0;
#X connect 14 1 24 0;
#X connect 14 2 25 0;
#X connect 14 3 26 0;
#X connect 14 4 27 0;
#X connect 14 5 28 0;
#X connect 14 6 29 0;
#X connect 14 7 30 0;
#X connect 14 8 31 0;
#X connect 14 9 32 0;
#X connect 15 0 4 0;
#X connect 15 0 9 0;
#X connect 17 0 11 0;
#X connect 18 0 19 0;
#X connect 19 0 7 0;
#X connect 19 1 22 0;
#X connect 20 0 14 0;
#X connect 21 0 20 0;
#X connect 22 0 6 0;
#X connect 23 0 5 0;
#X connect 24 0 5 0;
#X connect 25 0 5 0;
#X connect 26 0 5 0;
#X connect 27 0 5 0;
#X connect 28 0 5 0;
#X connect 29 0 5 0;
#X connect 30 0 5 0;
#X connect 31 0 5 0;
#X connect 32 0 5 0;
#X coords 0 -1 1 1 206 91 1 200 100;
