#N canvas 12 89 1351 627 10;
#X declare -lib moonlib -lib ekext -lib ext13 -lib ggee;
#X declare -lib zexy;
#X obj 742 14 inlet~;
#X obj 742 51 *~;
#X obj 742 115 *~;
#X obj 851 14 inlet~;
#X obj 851 51 *~;
#X obj 851 115 *~;
#X obj 961 14 inlet~;
#X obj 961 51 *~;
#X obj 961 115 *~;
#X obj 1068 14 inlet~;
#X obj 1068 51 *~;
#X obj 1068 115 *~;
#X obj 1172 14 inlet~;
#X obj 1172 51 *~;
#X obj 1172 115 *~;
#X obj 767 51 r \$0-1_in;
#X obj 758 71 r \$0-1_in_vol;
#X obj 876 51 r \$0-2_in;
#X obj 867 71 r \$0-2_in_vol;
#X obj 986 51 r \$0-3_in;
#X obj 977 71 r \$0-3_in_vol;
#X obj 1093 51 r \$0-4_in;
#X obj 1084 71 r \$0-4_in_vol;
#X obj 1197 51 r \$0-5_in;
#X obj 1188 71 r \$0-5_in_vol;
#X obj 2038 491 bng 15 250 50 0 empty empty empty 0 -6 0 8 -262144
-1 -1;
#X obj 2035 516 s \$0-patches_clear;
#X obj 2205 599 outlet;
#X obj 568 211 r \$0-1_fx_1;
#X obj 553 305 *~;
#X obj 593 228 r \$0-1_fx_2;
#X obj 578 305 *~;
#X obj 694 305 *~;
#X obj 719 305 *~;
#X obj 709 211 r \$0-2_fx_1;
#X obj 734 228 r \$0-2_fx_2;
#X obj 836 305 *~;
#X obj 861 305 *~;
#X obj 977 305 *~;
#X obj 1002 305 *~;
#X obj 851 211 r \$0-3_fx_1;
#X obj 876 228 r \$0-3_fx_2;
#X obj 992 211 r \$0-4_fx_1;
#X obj 1017 228 r \$0-4_fx_2;
#X obj 1117 305 *~;
#X obj 1142 305 *~;
#X obj 1132 211 r \$0-5_fx_1;
#X obj 1157 228 r \$0-5_fx_2;
#X obj 1416 412 *~;
#X obj 1432 372 r \$0-fx_1_vol;
#X obj 1554 412 *~;
#X obj 1570 372 r \$0-fx_2_vol;
#X obj 1416 432 outlet~;
#X obj 1554 432 outlet~;
#X obj 2175 464 inlet;
#X obj 839 836 s \$0-1_in_vol-set;
#X obj 860 802 s \$0-1_fx_1-set;
#X obj 871 785 s \$0-1_fx_2-set;
#X obj 2067 838 s \$0-fx_1_vol-set;
#X obj 2089 821 s \$0-fx_2_vol-set;
#X obj 2219 834 s \$0-max-bng;
#X obj 2379 629 < 50;
#X obj 2379 609 random 100;
#X obj 2278 521 t b f;
#X obj 769 124 r \$0-pan_1;
#X obj 878 123 r \$0-pan_2;
#X obj 988 122 r \$0-pan_3;
#X obj 1095 121 r \$0-pan_4;
#X obj 1199 120 r \$0-pan_5;
#X obj 603 305 *~;
#X obj 744 305 *~;
#X obj 886 305 *~;
#X obj 1027 305 *~;
#X obj 1167 305 *~;
#X obj 618 245 r \$0-1_fx_3;
#X obj 759 245 r \$0-2_fx_3;
#X obj 901 245 r \$0-3_fx_3;
#X obj 1042 245 r \$0-4_fx_3;
#X obj 1182 245 r \$0-5_fx_3;
#X obj 628 305 *~;
#X obj 769 305 *~;
#X obj 911 305 *~;
#X obj 1052 305 *~;
#X obj 1192 305 *~;
#X obj 653 305 *~;
#X obj 794 305 *~;
#X obj 937 305 *~;
#X obj 1077 305 *~;
#X obj 1217 305 *~;
#X obj 643 262 r \$0-1_fx_4;
#X obj 668 279 r \$0-1_fx_5;
#X obj 784 262 r \$0-2_fx_4;
#X obj 809 279 r \$0-2_fx_5;
#X obj 926 262 r \$0-3_fx_4;
#X obj 951 279 r \$0-3_fx_5;
#X obj 1067 262 r \$0-4_fx_4;
#X obj 1092 279 r \$0-4_fx_5;
#X obj 1207 262 r \$0-5_fx_4;
#X obj 1232 279 r \$0-5_fx_5;
#X obj 1695 412 *~;
#X obj 1833 412 *~;
#X obj 1695 432 outlet~;
#X obj 1833 432 outlet~;
#X obj 1711 372 r \$0-fx_3_vol;
#X obj 1849 372 r \$0-fx_4_vol;
#X obj 1973 412 *~;
#X obj 1973 432 outlet~;
#X obj 1989 372 r \$0-fx_5_vol;
#X obj 1282 13 inlet~;
#X obj 1282 50 *~;
#X obj 1282 114 *~;
#X obj 1257 305 *~;
#X obj 1282 305 *~;
#X obj 1307 305 *~;
#X obj 1332 305 *~;
#X obj 1357 305 *~;
#X obj 1307 50 r \$0-6_in;
#X obj 1298 70 r \$0-6_in_vol;
#X obj 1272 211 r \$0-6_fx_1;
#X obj 1297 228 r \$0-6_fx_2;
#X obj 1322 245 r \$0-6_fx_3;
#X obj 1347 262 r \$0-6_fx_4;
#X obj 1372 279 r \$0-6_fx_5;
#X obj 1309 119 r \$0-pan_6;
#X obj 1385 9 inlet~;
#X obj 1385 46 *~;
#X obj 1385 110 *~;
#X obj 1494 9 inlet~;
#X obj 1494 46 *~;
#X obj 1494 110 *~;
#X obj 1604 9 inlet~;
#X obj 1604 46 *~;
#X obj 1604 110 *~;
#X obj 1711 9 inlet~;
#X obj 1711 46 *~;
#X obj 1711 110 *~;
#X obj 1815 9 inlet~;
#X obj 1815 46 *~;
#X obj 1815 110 *~;
#X obj 1446 306 *~;
#X obj 1471 306 *~;
#X obj 1587 306 *~;
#X obj 1612 306 *~;
#X obj 1729 306 *~;
#X obj 1754 306 *~;
#X obj 1870 306 *~;
#X obj 1895 306 *~;
#X obj 2010 306 *~;
#X obj 2035 306 *~;
#X obj 1496 306 *~;
#X obj 1637 306 *~;
#X obj 1779 306 *~;
#X obj 1920 306 *~;
#X obj 2060 306 *~;
#X obj 1521 306 *~;
#X obj 1662 306 *~;
#X obj 1804 306 *~;
#X obj 1945 306 *~;
#X obj 2085 306 *~;
#X obj 1546 306 *~;
#X obj 1687 306 *~;
#X obj 1829 306 *~;
#X obj 1970 306 *~;
#X obj 2110 306 *~;
#X obj 1925 8 inlet~;
#X obj 1925 45 *~;
#X obj 1925 109 *~;
#X obj 2150 306 *~;
#X obj 2175 306 *~;
#X obj 2200 306 *~;
#X obj 2225 306 *~;
#X obj 2250 306 *~;
#X obj 1410 46 r \$0-7_in;
#X obj 1401 66 r \$0-7_in_vol;
#X obj 1412 119 r \$0-pan_7;
#X obj 1461 212 r \$0-7_fx_1;
#X obj 1486 229 r \$0-7_fx_2;
#X obj 1511 246 r \$0-7_fx_3;
#X obj 1536 263 r \$0-7_fx_4;
#X obj 1561 280 r \$0-7_fx_5;
#X obj 1519 46 r \$0-8_in;
#X obj 1510 66 r \$0-8_in_vol;
#X obj 1521 118 r \$0-pan_8;
#X obj 1602 212 r \$0-8_fx_1;
#X obj 1627 229 r \$0-8_fx_2;
#X obj 1652 246 r \$0-8_fx_3;
#X obj 1677 263 r \$0-8_fx_4;
#X obj 1702 280 r \$0-8_fx_5;
#X obj 1629 46 r \$0-9_in;
#X obj 1620 66 r \$0-9_in_vol;
#X obj 1631 117 r \$0-pan_9;
#X obj 1744 212 r \$0-9_fx_1;
#X obj 1769 229 r \$0-9_fx_2;
#X obj 1794 246 r \$0-9_fx_3;
#X obj 1819 263 r \$0-9_fx_4;
#X obj 1844 280 r \$0-9_fx_5;
#X obj 1736 46 r \$0-10_in;
#X obj 1727 66 r \$0-10_in_vol;
#X obj 1738 116 r \$0-pan_10;
#X obj 1885 212 r \$0-10_fx_1;
#X obj 1910 229 r \$0-10_fx_2;
#X obj 1935 246 r \$0-10_fx_3;
#X obj 1960 263 r \$0-10_fx_4;
#X obj 1985 280 r \$0-10_fx_5;
#X obj 1840 46 r \$0-11_in;
#X obj 1831 66 r \$0-11_in_vol;
#X obj 1842 115 r \$0-pan_11;
#X obj 2025 212 r \$0-11_fx_1;
#X obj 2050 229 r \$0-11_fx_2;
#X obj 2075 246 r \$0-11_fx_3;
#X obj 2100 263 r \$0-11_fx_4;
#X obj 2125 280 r \$0-11_fx_5;
#X obj 1950 45 r \$0-12_in;
#X obj 1940 65 r \$0-12_in_vol;
#X obj 1952 114 r \$0-pan_12;
#X obj 2165 212 r \$0-12_fx_1;
#X obj 2190 229 r \$0-12_fx_2;
#X obj 2215 246 r \$0-12_fx_3;
#X obj 2240 263 r \$0-12_fx_4;
#X obj 2265 280 r \$0-12_fx_5;
#X obj 882 768 s \$0-1_fx_3-set;
#X obj 893 751 s \$0-1_fx_4-set;
#X obj 904 734 s \$0-1_fx_5-set;
#X obj 849 819 s \$0-pan_1-set;
#X obj 915 717 s \$0-1_in-set;
#X obj 926 696 s \$0-2_in_vol-set;
#X obj 937 679 s \$0-pan_2-set;
#X obj 948 662 s \$0-2_fx_1-set;
#X obj 959 645 s \$0-2_fx_2-set;
#X obj 970 628 s \$0-2_fx_3-set;
#X obj 981 611 s \$0-2_fx_4-set;
#X obj 992 594 s \$0-2_fx_5-set;
#X obj 1003 577 s \$0-2_in-set;
#X obj 1014 836 s \$0-3_in_vol-set;
#X obj 1025 819 s \$0-pan_3-set;
#X obj 1036 802 s \$0-3_fx_1-set;
#X obj 1047 785 s \$0-3_fx_2-set;
#X obj 1058 768 s \$0-3_fx_3-set;
#X obj 1069 751 s \$0-3_fx_4-set;
#X obj 1080 734 s \$0-3_fx_5-set;
#X obj 1091 717 s \$0-3_in-set;
#X obj 1102 696 s \$0-4_in_vol-set;
#X obj 1113 679 s \$0-pan_4-set;
#X obj 1124 662 s \$0-4_fx_1-set;
#X obj 1135 645 s \$0-4_fx_2-set;
#X obj 1146 628 s \$0-4_fx_3-set;
#X obj 1157 611 s \$0-4_fx_4-set;
#X obj 1168 594 s \$0-4_fx_5-set;
#X obj 1179 577 s \$0-4_in-set;
#X obj 839 530 route v1 p1 a1a1 a1a2 a1a3 a1a4 a1a5 in1 v2 p2 a2a1
a2a2 a2a3 a2a4 a2a5 in2 v3 p3 a3a1 a3a2 a3a3 a3a4 a3a5 in3 v4 p4 a4a1
a4a2 a4a3 a4a4 a4a5 in4;
#X obj 1219 530 route v5 p5 a5a1 a5a2 a5a3 a5a4 a5a5 in5 v6 p6 a6a1
a6a2 a6a3 a6a4 a6a5 in6 v7 p7 a7a1 a7a2 a7a3 a7a4 a7a5 in7 v8 p8 a8a1
a8a2 a8a3 a8a4 a8a5 in8;
#X obj 1559 577 s \$0-8_in-set;
#X obj 1548 594 s \$0-8_fx_5-set;
#X obj 1537 611 s \$0-8_fx_4-set;
#X obj 1526 628 s \$0-8_fx_3-set;
#X obj 1515 645 s \$0-8_fx_2-set;
#X obj 1504 662 s \$0-8_fx_1-set;
#X obj 1493 679 s \$0-pan_8-set;
#X obj 1482 696 s \$0-8_in_vol-set;
#X obj 1471 717 s \$0-7_in-set;
#X obj 1460 734 s \$0-7_fx_5-set;
#X obj 1449 751 s \$0-7_fx_4-set;
#X obj 1438 768 s \$0-7_fx_3-set;
#X obj 1427 785 s \$0-7_fx_2-set;
#X obj 1416 802 s \$0-7_fx_1-set;
#X obj 1405 819 s \$0-pan_7-set;
#X obj 1394 836 s \$0-7_in_vol-set;
#X obj 1383 577 s \$0-6_in-set;
#X obj 1372 594 s \$0-6_fx_5-set;
#X obj 1361 611 s \$0-6_fx_4-set;
#X obj 1350 628 s \$0-6_fx_3-set;
#X obj 1339 645 s \$0-6_fx_2-set;
#X obj 1328 662 s \$0-6_fx_1-set;
#X obj 1317 679 s \$0-pan_6-set;
#X obj 1306 696 s \$0-6_in_vol-set;
#X obj 1295 717 s \$0-5_in-set;
#X obj 1284 734 s \$0-5_fx_5-set;
#X obj 1273 751 s \$0-5_fx_4-set;
#X obj 1262 768 s \$0-5_fx_3-set;
#X obj 1251 785 s \$0-5_fx_2-set;
#X obj 1240 802 s \$0-5_fx_1-set;
#X obj 1229 819 s \$0-pan_5-set;
#X obj 1219 836 s \$0-5_in_vol-set;
#X obj 1599 530 route v9 p9 a9a1 a9a2 a9a3 a9a4 a9a5 in9 v10 p10 a10a1
a10a2 a10a3 a10a4 a10a5 in10 v11 p11 a11a1 a11a2 a11a3 a11a4 a11a5
in11 v12 p12 a12a1 a12a2 a12a3 a12a4 a12a5 in12;
#X obj 1939 577 s \$0-12_in-set;
#X obj 1928 594 s \$0-12_fx_5-set;
#X obj 1917 611 s \$0-12_fx_4-set;
#X obj 1906 628 s \$0-12_fx_3-set;
#X obj 1895 645 s \$0-12_fx_2-set;
#X obj 1884 662 s \$0-12_fx_1-set;
#X obj 1873 679 s \$0-pan_12-set;
#X obj 1862 696 s \$0-12_in_vol-set;
#X obj 1851 717 s \$0-11_in-set;
#X obj 1840 734 s \$0-11_fx_5-set;
#X obj 1829 751 s \$0-11_fx_4-set;
#X obj 1818 768 s \$0-11_fx_3-set;
#X obj 1807 785 s \$0-11_fx_2-set;
#X obj 1796 802 s \$0-11_fx_1-set;
#X obj 1785 819 s \$0-pan_11-set;
#X obj 1774 836 s \$0-11_in_vol-set;
#X obj 1763 577 s \$0-10_in-set;
#X obj 1752 594 s \$0-10_fx_5-set;
#X obj 1741 611 s \$0-10_fx_4-set;
#X obj 1730 628 s \$0-10_fx_3-set;
#X obj 1719 645 s \$0-10_fx_2-set;
#X obj 1708 662 s \$0-10_fx_1-set;
#X obj 1697 679 s \$0-pan_10-set;
#X obj 1686 696 s \$0-10_in_vol-set;
#X obj 1675 717 s \$0-9_in-set;
#X obj 1664 734 s \$0-9_fx_5-set;
#X obj 1653 751 s \$0-9_fx_4-set;
#X obj 1642 768 s \$0-9_fx_3-set;
#X obj 1631 785 s \$0-9_fx_2-set;
#X obj 1620 802 s \$0-9_fx_1-set;
#X obj 1609 819 s \$0-pan_9-set;
#X obj 1599 836 s \$0-9_in_vol-set;
#X obj 2109 804 s \$0-fx_3_vol-set;
#X obj 2131 787 s \$0-fx_4_vol-set;
#X obj 2148 770 s \$0-fx_5_vol-set;
#X obj 2297 586 / 5;
#X obj 2297 603 i;
#X obj 2297 620 + 1;
#X obj 2332 585 % 5;
#X obj 2332 602 + 1;
#X obj 2318 561 t f f b;
#X obj 2369 705 pack s f;
#X obj 2283 652 pack f f;
#X obj 2283 672 makesymbol a%sa%s;
#X obj 2379 737 s \$0-randroute;
#X obj 2234 534 50;
#X obj 840 435 r \$0-randroute;
#X obj 640 454 r \$0-max;
#X obj 629 550 + 1;
#X obj 629 572 t f f;
#X obj 658 601 makefilename v%d;
#X obj 552 600 makefilename in%d;
#X obj 619 629 pack s s;
#X msg 618 655 \$1 1 \, \$2 100;
#X obj 2162 604 bng 15 250 50 0 empty empty empty 0 -6 0 10 -262144
-1 -1;
#X obj 840 496 route list;
#X obj 2301 776 + 1;
#X obj 2301 803 makefilename in%d;
#X obj 2258 735 t b b;
#X obj 2346 778 tgl 15 0 empty empty empty 0 -6 0 10 -262144 -1 -1
0 1;
#X obj 2303 826 pack s f;
#X obj 1089 397 env~;
#X obj 1089 417 - 100;
#X obj 1193 397 env~;
#X obj 1193 417 - 100;
#X obj 1089 437 s \$0-level_L_mod;
#X obj 1193 437 s \$0-level_R_mod;
#X msg 682 482 100;
#X obj 700 513 s \$0-out_dB-set;
#N canvas 6 75 450 300 limiting 0;
#X obj 83 31 inlet~;
#X obj 190 30 inlet~;
#N canvas 3 50 450 300 limiter 0;
#X obj 94 74 inlet~;
#X obj 203 71 inlet~;
#X obj 329 64 inlet;
#X obj 329 115 switch~;
#X obj 119 143 limiter~ 10 2;
#X obj 94 189 z~ 64;
#X obj 203 187 z~ 64;
#X obj 94 209 *~;
#X obj 203 207 *~;
#X obj 94 230 outlet~;
#X obj 203 228 outlet~;
#X connect 0 0 4 0;
#X connect 0 0 5 0;
#X connect 1 0 4 1;
#X connect 1 0 6 0;
#X connect 2 0 3 0;
#X connect 4 0 7 1;
#X connect 4 0 8 1;
#X connect 5 0 7 0;
#X connect 6 0 8 0;
#X connect 7 0 9 0;
#X connect 8 0 10 0;
#X restore 136 175 pd limiter;
#X obj 130 137 *~ 0;
#X obj 170 137 *~ 0;
#X obj 40 137 *~ 1;
#X obj 80 137 *~ 1;
#X obj 53 231 outlet~;
#X obj 113 230 outlet~;
#X obj 274 64 inlet;
#X obj 198 91 == 0;
#X obj 368 44 inlet;
#X obj 73 81 *~;
#X obj 142 86 *~;
#X obj 238 33 pack f 20;
#X obj 226 58 line~;
#X obj 364 69 dbtorms;
#X obj 304 18 r \$0-fadetime;
#X connect 0 0 12 0;
#X connect 1 0 13 0;
#X connect 2 0 7 0;
#X connect 2 1 8 0;
#X connect 3 0 2 0;
#X connect 4 0 2 1;
#X connect 5 0 7 0;
#X connect 6 0 8 0;
#X connect 9 0 2 2;
#X connect 9 0 4 1;
#X connect 9 0 3 1;
#X connect 9 0 10 0;
#X connect 10 0 5 1;
#X connect 10 0 6 1;
#X connect 11 0 16 0;
#X connect 12 0 5 0;
#X connect 12 0 3 0;
#X connect 13 0 6 0;
#X connect 13 0 4 0;
#X connect 14 0 15 0;
#X connect 15 0 13 1;
#X connect 15 0 12 1;
#X connect 16 0 14 0;
#X connect 17 0 14 1;
#X restore 1275 183 pd limiting;
#X obj 1365 206 outlet~;
#X obj 1215 207 outlet~;
#X obj 1369 185 r \$0-limit;
#X msg 450 461 0;
#X obj 443 501 s \$0-limit;
#X obj 452 428 loadbang;
#X obj 1443 185 r \$0-out_dB-num;
#X obj 2311 93 t f b b;
#X obj 2405 117 random 2;
#X obj 2405 138 sel 0;
#X msg 2405 159 -1;
#X obj 2330 135 *;
#X obj 2330 115 random 46;
#X obj 2271 53 t b f;
#X obj 2271 11 r \$0-randpan;
#X obj 2008 716 route aux1 aux2 aux3 aux4 aux5 max randroute allin
randpan;
#X obj 2296 735 s \$0-randpan;
#X obj 2256 164 makefilename p%d;
#X obj 2303 222 s \$0-panroute;
#X obj 2255 141 + 1;
#X obj 935 498 r \$0-panroute;
#X obj 2302 197 pack s f;
#X obj 71 87 cnv 15 444 100 empty empty empty 302 6 0 8 -203904 -4160
0;
#X obj 141 73 cnv 15 374 110 empty empty ------sends------ 234 9 1
8 -203904 -4160 0;
#X obj 73 89 tgl 15 0 \$0-1_in \$0-1_in-set empty 0 -6 0 8 -24198 -42246
-42246 1 1;
#X obj 98 89 tgl 15 0 \$0-2_in \$0-2_in-set empty 0 -6 0 8 -28068 -1109
-1109 1 1;
#X obj 123 89 tgl 15 0 \$0-3_in \$0-3_in-set empty 0 -6 0 8 -28088
-1109 -1109 1 1;
#X obj 148 89 tgl 15 0 \$0-4_in \$0-4_in-set empty 0 -6 0 8 -27324
-355 -355 1 1;
#X obj 173 89 tgl 15 0 \$0-5_in \$0-5_in-set empty 0 -6 0 8 -109248
-355 -355 1 1;
#X obj 73 109 vsl 15 51 0 100 0 0 \$0-1_in_vol \$0-1_in_vol-set empty
0 -8 0 8 -24198 -42246 -42246 5000 0;
#X obj 98 109 vsl 15 51 0 100 0 0 \$0-2_in_vol \$0-2_in_vol-set empty
0 -8 0 8 -28068 -42246 -42246 5000 0;
#X obj 123 109 vsl 15 51 0 100 0 0 \$0-3_in_vol \$0-3_in_vol-set empty
0 -8 0 8 -28088 -1109 -1109 5000 0;
#X obj 148 109 vsl 15 51 0 100 0 0 \$0-4_in_vol \$0-4_in_vol-set empty
0 -8 0 8 -27324 -355 -355 5000 0;
#X obj 173 109 vsl 15 51 0 100 0 0 \$0-5_in_vol \$0-5_in_vol-set empty
0 -8 0 8 -109248 -355 -355 5000 0;
#X obj 88 107 tgl 8 0 \$0-1_fx_1 \$0-1_fx_1-set f 2 -11 0 8 -211520
-90133 -90133 0 1;
#X obj 88 118 tgl 8 0 \$0-1_fx_2 \$0-1_fx_2-set x 2 -16 0 8 -260524
-143491 -143491 0 1;
#X obj 375 100 vsl 12 57 0 112 0 0 \$0-fx_1_vol \$0-fx_1_vol-set 1
3 -8 0 8 -211520 -90133 -90133 5000 0;
#X obj 390 100 vsl 12 57 0 112 0 0 \$0-fx_2_vol \$0-fx_2_vol-set 2
3 -8 0 8 -260525 -143491 -143491 5000 0;
#X obj 113 107 tgl 8 0 \$0-2_fx_1 \$0-2_fx_1-set f 2 -11 0 8 -211520
-90133 -90133 0 1;
#X obj 113 118 tgl 8 0 \$0-2_fx_2 \$0-2_fx_2-set x 2 -16 0 8 -260524
-143491 -143491 0 1;
#X obj 138 107 tgl 8 0 \$0-3_fx_1 \$0-3_fx_1-set f 2 -11 0 8 -211520
-90133 -90133 0 1;
#X obj 138 118 tgl 8 0 \$0-3_fx_2 \$0-3_fx_2-set x 2 -16 0 8 -260524
-143491 -143491 0 1;
#X obj 163 107 tgl 8 0 \$0-4_fx_1 \$0-4_fx_1-set f 2 -11 0 8 -211520
-90133 -90133 0 1;
#X obj 163 118 tgl 8 0 \$0-4_fx_2 \$0-4_fx_2-set x 2 -16 0 8 -260524
-143491 -143491 0 1;
#X obj 188 107 tgl 8 0 \$0-5_fx_1 \$0-5_fx_1-set f 2 -11 0 8 -211520
-90133 -90133 0 1;
#X obj 188 118 tgl 8 0 \$0-5_fx_2 \$0-5_fx_2-set x 2 -16 0 8 -260524
-143491 -143491 0 1;
#X obj 469 113 bng 12 250 50 0 \$0-max \$0-max-bng all -1 -5 0 8 -1
-262131 -86277;
#X obj 198 89 tgl 15 0 \$0-6_in \$0-6_in-set empty 0 -6 0 8 -154295
-16662 -16662 1 1;
#X obj 223 89 tgl 15 0 \$0-7_in \$0-7_in-set empty 0 -6 0 8 -194871
-45076 -45076 1 1;
#X obj 248 89 tgl 15 0 \$0-8_in \$0-8_in-set empty 0 -6 0 8 -231218
-45076 -45076 1 1;
#X obj 273 89 tgl 15 0 \$0-9_in \$0-9_in-set empty 0 -6 0 8 -260135
-86277 -86277 1 1;
#X obj 298 89 tgl 15 0 \$0-10_in \$0-10_in-set empty 0 -6 0 8 -260636
-86853 -86853 1 1;
#X obj 198 109 vsl 15 51 0 100 0 0 \$0-6_in_vol \$0-6_in_vol-set empty
0 -8 0 8 -154295 -16662 -16662 5000 0;
#X obj 223 109 vsl 15 51 0 100 0 0 \$0-7_in_vol \$0-7_in_vol-set empty
0 -8 0 8 -194871 -45076 -45076 5000 0;
#X obj 248 109 vsl 15 51 0 100 0 0 \$0-8_in_vol \$0-8_in_vol-set empty
0 -8 0 8 -231218 -45076 -45076 5000 0;
#X obj 273 109 vsl 15 51 0 100 0 0 \$0-9_in_vol \$0-9_in_vol-set empty
0 -8 0 8 -260135 -86277 -86277 5000 0;
#X obj 298 109 vsl 15 51 0 100 0 0 \$0-10_in_vol \$0-10_in_vol-set
empty 0 -8 0 8 -260636 -86853 -86853 5000 0;
#X obj 213 107 tgl 8 0 \$0-6_fx_1 \$0-6_fx_1-set f 2 -11 0 8 -211520
-90133 -90133 0 1;
#X obj 213 118 tgl 8 0 \$0-6_fx_2 \$0-6_fx_2-set x 2 -16 0 8 -260524
-143491 -143491 0 1;
#X obj 238 107 tgl 8 0 \$0-7_fx_1 \$0-7_fx_1-set f 2 -11 0 8 -211520
-90133 -90133 0 1;
#X obj 238 118 tgl 8 0 \$0-7_fx_2 \$0-7_fx_2-set x 2 -16 0 8 -260524
-143491 -143491 0 1;
#X obj 263 107 tgl 8 0 \$0-8_fx_1 \$0-8_fx_1-set f 2 -11 0 8 -211520
-90133 -90133 0 1;
#X obj 263 118 tgl 8 0 \$0-8_fx_2 \$0-8_fx_2-set x 2 -16 0 8 -260524
-143491 -143491 0 1;
#X obj 288 107 tgl 8 0 \$0-9_fx_1 \$0-9_fx_1-set f 2 -11 0 8 -211520
-90133 -90133 0 1;
#X obj 288 118 tgl 8 0 \$0-9_fx_2 \$0-9_fx_2-set x 2 -16 0 8 -260524
-143491 -143491 0 1;
#X obj 313 107 tgl 8 0 \$0-10_fx_1 \$0-10_fx_1-set f 2 -11 0 8 -211520
-90133 -90133 0 1;
#X obj 313 118 tgl 8 0 \$0-10_fx_2 \$0-10_fx_2-set x 2 -16 0 8 -260524
-143491 -143491 0 1;
#X obj 88 129 tgl 8 0 \$0-1_fx_3 \$0-1_fx_3-set empty 2 -11 0 8 -262113
-83269 -83269 0 1;
#X obj 88 140 tgl 8 0 \$0-1_fx_4 \$0-1_fx_4-set empty 2 -16 0 8 -53169
-13330 -13330 0 1;
#X obj 113 129 tgl 8 0 \$0-2_fx_3 \$0-2_fx_3-set empty 2 -11 0 8 -262113
-83269 -83269 0 1;
#X obj 113 140 tgl 8 0 \$0-2_fx_4 \$0-2_fx_4-set empty 2 -16 0 8 -53169
-13330 -13330 0 1;
#X obj 138 129 tgl 8 0 \$0-3_fx_3 \$0-3_fx_3-set empty 2 -11 0 8 -262113
-83269 -83269 0 1;
#X obj 138 140 tgl 8 0 \$0-3_fx_4 \$0-3_fx_4-set empty 2 -16 0 8 -53169
-13330 -13330 0 1;
#X obj 163 129 tgl 8 0 \$0-4_fx_3 \$0-4_fx_3-set empty 2 -11 0 8 -262113
-83269 -83269 0 1;
#X obj 163 140 tgl 8 0 \$0-4_fx_4 \$0-4_fx_4-set empty 2 -16 0 8 -53169
-13330 -13330 0 1;
#X obj 188 129 tgl 8 0 \$0-5_fx_3 \$0-5_fx_3-set empty 2 -11 0 8 -262113
-83269 -83269 0 1;
#X obj 188 140 tgl 8 0 \$0-5_fx_4 \$0-5_fx_4-set empty 2 -16 0 8 -53169
-13330 -13330 0 1;
#X obj 213 129 tgl 8 0 \$0-6_fx_3 \$0-6_fx_3-set empty 2 -11 0 8 -262113
-83269 -83269 0 1;
#X obj 213 140 tgl 8 0 \$0-6_fx_4 \$0-6_fx_4-set empty 2 -16 0 8 -53169
-13330 -13330 0 1;
#X obj 238 129 tgl 8 0 \$0-7_fx_3 \$0-7_fx_3-set empty 2 -11 0 8 -262113
-83269 -83269 0 1;
#X obj 238 140 tgl 8 0 \$0-7_fx_4 \$0-7_fx_4-set empty 2 -16 0 8 -53169
-13330 -13330 0 1;
#X obj 263 129 tgl 8 0 \$0-8_fx_3 \$0-8_fx_3-set empty 2 -11 0 8 -262113
-83269 -83269 0 1;
#X obj 263 140 tgl 8 0 \$0-8_fx_4 \$0-8_fx_4-set empty 2 -16 0 8 -53169
-13330 -13330 0 1;
#X obj 288 129 tgl 8 0 \$0-9_fx_3 \$0-9_fx_3-set empty 2 -11 0 8 -262113
-83269 -83269 0 1;
#X obj 288 140 tgl 8 0 \$0-9_fx_4 \$0-9_fx_4-set empty 2 -16 0 8 -53169
-13330 -13330 0 1;
#X obj 313 129 tgl 8 0 \$0-10_fx_3 \$0-10_fx_3-set empty 2 -11 0 8
-262113 -83269 -83269 0 1;
#X obj 313 140 tgl 8 0 \$0-10_fx_4 \$0-10_fx_4-set empty 2 -16 0 8
-53169 -13330 -13330 0 1;
#X obj 405 100 vsl 12 57 0 112 0 0 \$0-fx_3_vol \$0-fx_3_vol-set 3
3 -8 0 8 -262113 -83269 -83269 5000 0;
#X obj 420 100 vsl 12 57 0 112 0 0 \$0-fx_4_vol \$0-fx_4_vol-set 4
3 -8 0 8 -53169 -13330 -13330 5000 0;
#X obj 88 151 tgl 8 0 \$0-1_fx_5 \$0-1_fx_5-set empty 2 -16 0 8 -162368
-16662 -16662 0 1;
#X obj 113 151 tgl 8 0 \$0-2_fx_5 \$0-2_fx_5-set empty 2 -16 0 8 -162368
-16662 -16662 0 1;
#X obj 138 151 tgl 8 0 \$0-3_fx_5 \$0-3_fx_5-set empty 2 -16 0 8 -162368
-16662 -16662 0 1;
#X obj 163 151 tgl 8 0 \$0-4_fx_5 \$0-4_fx_5-set empty 2 -16 0 8 -162368
-16662 -16662 0 1;
#X obj 188 151 tgl 8 0 \$0-5_fx_5 \$0-5_fx_5-set empty 2 -16 0 8 -162368
-16662 -16662 0 1;
#X obj 213 151 tgl 8 0 \$0-6_fx_5 \$0-6_fx_5-set empty 2 -16 0 8 -162368
-16662 -16662 0 1;
#X obj 238 151 tgl 8 0 \$0-7_fx_5 \$0-7_fx_5-set empty 2 -16 0 8 -162368
-16662 -16662 0 1;
#X obj 263 151 tgl 8 0 \$0-8_fx_5 \$0-8_fx_5-set empty 2 -16 0 8 -162368
-16662 -16662 0 1;
#X obj 288 151 tgl 8 0 \$0-9_fx_5 \$0-9_fx_5-set empty 2 -16 0 8 -162368
-16662 -16662 0 1;
#X obj 313 151 tgl 8 0 \$0-10_fx_5 \$0-10_fx_5-set empty 2 -16 0 8
-162368 -16662 -16662 0 1;
#X obj 435 100 vsl 12 57 0 112 0 0 \$0-fx_5_vol \$0-fx_5_vol-set 5
3 -8 0 8 -162368 -16662 -16662 5000 0;
#X obj 323 89 tgl 15 0 \$0-11_in \$0-11_in-set empty 0 -6 0 8 -236691
-86853 -86853 1 1;
#X obj 348 89 tgl 15 0 \$0-12_in \$0-12_in-set empty 0 -6 0 8 -221145
-13381 -13381 1 1;
#X obj 323 109 vsl 15 51 0 100 0 0 \$0-11_in_vol \$0-11_in_vol-set
empty 0 -8 0 8 -236691 -86853 -86853 5000 0;
#X obj 348 109 vsl 15 51 0 100 0 0 \$0-12_in_vol \$0-12_in_vol-set
empty 0 -8 0 8 -221145 -83269 -83269 5000 0;
#X obj 338 107 tgl 8 0 \$0-11_fx_1 \$0-11_fx_1-set f 2 -11 0 8 -211520
-90133 -90133 0 1;
#X obj 338 118 tgl 8 0 \$0-11_fx_2 \$0-11_fx_2-set x 2 -16 0 8 -260524
-143491 -143491 0 1;
#X obj 363 107 tgl 8 0 \$0-12_fx_1 \$0-12_fx_1-set f 2 -11 0 8 -211520
-90133 -90133 0 1;
#X obj 363 118 tgl 8 0 \$0-12_fx_2 \$0-12_fx_2-set x 2 -16 0 8 -260524
-143491 -143491 0 1;
#X obj 338 129 tgl 8 0 \$0-11_fx_3 \$0-11_fx_3-set empty 2 -11 0 8
-262113 -83269 -83269 0 1;
#X obj 338 140 tgl 8 0 \$0-11_fx_4 \$0-11_fx_4-set empty 2 -16 0 8
-53169 -13330 -13330 0 1;
#X obj 363 129 tgl 8 0 \$0-12_fx_3 \$0-12_fx_3-set empty 2 -11 0 8
-262113 -83269 -83269 0 1;
#X obj 363 140 tgl 8 0 \$0-12_fx_4 \$0-12_fx_4-set empty 2 -16 0 8
-53169 -13330 -13330 0 1;
#X obj 338 151 tgl 8 0 \$0-11_fx_5 \$0-11_fx_5-set empty 2 -16 0 8
-162368 -16662 -16662 0 1;
#X obj 363 151 tgl 8 0 \$0-12_fx_5 \$0-12_fx_5-set empty 2 -16 0 8
-162368 -16662 -16662 0 1;
#X obj 451 91 vsl 12 57 0 112 0 0 \$0-out_dB \$0-out_dB-set out -2
-9 1 10 -86277 -261234 -86277 5000 1;
#X obj 451 151 nbx 3 10 0 112 0 0 \$0-out_dB-num \$0-out_dB empty 0
-8 0 8 -86277 -261234 -1 100 256;
#X obj 374 163 cnv 15 141 24 empty empty empty 20 12 0 14 -183672 -66577
0;
#X obj 375 173 nbx 3 12 0 120 0 0 empty empty empty -2 -6 0 7 -257472
-1109 -90133 0 256;
#X obj 418 173 nbx 3 12 1 2 0 0 \$0-patch-num \$0-patch-set select
0 -5 0 7 -17235 -261234 -17235 1 256;
#X obj 463 173 bng 12 250 50 0 \$0-store_patch \$0-store_patch-bng
store -3 -5 0 7 -17235 -262130 -17235;
#X obj 484 168 bng 10 250 50 0 \$0-patches_load \$0-patches_load-bng
load -5 16 0 7 -2498 -262144 -13381;
#X obj 497 168 bng 10 250 50 0 \$0-patches_save \$0-patches_save-bng
save 0 16 0 7 -159809 -262144 -86277;
#X obj 376 173 nbx 3 12 0 120 0 0 \$0-patches-dummy \$0-patches-num
patches 0 -5 0 7 -17235 -203904 -17235 0 256;
#X obj 449 177 bng 8 250 50 0 \$0-store_plus \$0-store_plus-bng + 2
-4 0 7 -17235 -198336 -17235;
#X obj 407 177 bng 8 250 50 0 \$0-store_minus \$0-store_minus-bng -
1 -5 0 10 -17235 -257985 -17235;
#X obj 488 82 vu 8 80 \$0-level_L_mod empty -1 -8 0 8 -1 -1 0 0;
#X obj 501 82 vu 8 80 \$0-level_R_mod empty -1 -8 0 8 -1 -1 0 0;
#X obj 469 135 tgl 12 0 \$0-limit \$0-limit-set limit -4 -4 0 7 -86277
-261234 -86277 0 1;
#X obj 2130 687 s \$0-stpan-set;
#X obj 469 89 tgl 12 0 \$0-stpan \$0-stpan-set pan -1 -6 0 8 -45076
-232576 -45076 1 1;
#X obj 2271 32 15;
#X obj 2032 682 s \$0-limit-set;
#N canvas 0 50 450 300 dbtoline 0;
#X obj 107 45 inlet;
#X obj 107 66 dbtorms;
#X obj 107 87 pack f 20;
#X obj 107 107 line~;
#X obj 107 127 outlet~;
#X obj 158 66 r \$0-fadetime;
#X connect 0 0 1 0;
#X connect 1 0 2 0;
#X connect 2 0 3 0;
#X connect 3 0 4 0;
#X connect 5 0 2 1;
#X restore 758 95 pd dbtoline;
#N canvas 0 50 450 300 dbtoline 0;
#X obj 107 45 inlet;
#X obj 107 66 dbtorms;
#X obj 107 87 pack f 20;
#X obj 107 107 line~;
#X obj 107 127 outlet~;
#X obj 158 66 r \$0-fadetime;
#X connect 0 0 1 0;
#X connect 1 0 2 0;
#X connect 2 0 3 0;
#X connect 3 0 4 0;
#X connect 5 0 2 1;
#X restore 867 95 pd dbtoline;
#N canvas 0 50 450 300 dbtoline 0;
#X obj 107 45 inlet;
#X obj 107 66 dbtorms;
#X obj 107 87 pack f 20;
#X obj 107 107 line~;
#X obj 107 127 outlet~;
#X obj 168 76 r \$0-fadetime;
#X connect 0 0 1 0;
#X connect 1 0 2 0;
#X connect 2 0 3 0;
#X connect 3 0 4 0;
#X connect 5 0 2 1;
#X restore 977 95 pd dbtoline;
#N canvas 0 50 450 300 dbtoline 0;
#X obj 107 45 inlet;
#X obj 107 66 dbtorms;
#X obj 107 87 pack f 20;
#X obj 107 107 line~;
#X obj 107 127 outlet~;
#X obj 178 86 r \$0-fadetime;
#X connect 0 0 1 0;
#X connect 1 0 2 0;
#X connect 2 0 3 0;
#X connect 3 0 4 0;
#X connect 5 0 2 1;
#X restore 1084 95 pd dbtoline;
#N canvas 0 50 450 300 dbtoline 0;
#X obj 107 45 inlet;
#X obj 107 66 dbtorms;
#X obj 107 87 pack f 20;
#X obj 107 107 line~;
#X obj 107 127 outlet~;
#X obj 188 96 r \$0-fadetime;
#X connect 0 0 1 0;
#X connect 1 0 2 0;
#X connect 2 0 3 0;
#X connect 3 0 4 0;
#X connect 5 0 2 1;
#X restore 1188 95 pd dbtoline;
#N canvas 0 50 450 300 dbtoline 0;
#X obj 107 45 inlet;
#X obj 107 66 dbtorms;
#X obj 107 87 pack f 20;
#X obj 107 107 line~;
#X obj 107 127 outlet~;
#X obj 198 106 r \$0-fadetime;
#X connect 0 0 1 0;
#X connect 1 0 2 0;
#X connect 2 0 3 0;
#X connect 3 0 4 0;
#X connect 5 0 2 1;
#X restore 1297 95 pd dbtoline;
#N canvas 0 50 450 300 dbtoline 0;
#X obj 107 45 inlet;
#X obj 107 66 dbtorms;
#X obj 107 87 pack f 20;
#X obj 107 107 line~;
#X obj 107 127 outlet~;
#X obj 208 116 r \$0-fadetime;
#X connect 0 0 1 0;
#X connect 1 0 2 0;
#X connect 2 0 3 0;
#X connect 3 0 4 0;
#X connect 5 0 2 1;
#X restore 1401 90 pd dbtoline;
#N canvas 0 50 450 300 dbtoline 0;
#X obj 107 45 inlet;
#X obj 107 66 dbtorms;
#X obj 108 89 pack f 20;
#X obj 107 107 line~;
#X obj 107 127 outlet~;
#X obj 218 126 r \$0-fadetime;
#X connect 0 0 1 0;
#X connect 1 0 2 0;
#X connect 2 0 3 0;
#X connect 3 0 4 0;
#X connect 5 0 2 1;
#X restore 1508 90 pd dbtoline;
#N canvas 0 50 450 300 dbtoline 0;
#X obj 107 45 inlet;
#X obj 107 66 dbtorms;
#X obj 107 87 pack f 20;
#X obj 107 107 line~;
#X obj 107 127 outlet~;
#X obj 228 136 r \$0-fadetime;
#X connect 0 0 1 0;
#X connect 1 0 2 0;
#X connect 2 0 3 0;
#X connect 3 0 4 0;
#X connect 5 0 2 1;
#X restore 1619 90 pd dbtoline;
#N canvas 0 50 450 300 dbtoline 0;
#X obj 107 45 inlet;
#X obj 107 66 dbtorms;
#X obj 107 87 pack f 20;
#X obj 107 107 line~;
#X obj 107 127 outlet~;
#X obj 238 146 r \$0-fadetime;
#X connect 0 0 1 0;
#X connect 1 0 2 0;
#X connect 2 0 3 0;
#X connect 3 0 4 0;
#X connect 5 0 2 1;
#X restore 1728 90 pd dbtoline;
#N canvas 0 50 450 300 dbtoline 0;
#X obj 107 45 inlet;
#X obj 107 66 dbtorms;
#X obj 107 87 pack f 20;
#X obj 107 107 line~;
#X obj 107 127 outlet~;
#X obj 248 156 r \$0-fadetime;
#X connect 0 0 1 0;
#X connect 1 0 2 0;
#X connect 2 0 3 0;
#X connect 3 0 4 0;
#X connect 5 0 2 1;
#X restore 1831 90 pd dbtoline;
#N canvas 0 50 450 300 dbtoline 0;
#X obj 107 45 inlet;
#X obj 107 69 dbtorms;
#X obj 107 85 pack f 20;
#X obj 107 101 line~;
#X obj 107 127 outlet~;
#X obj 168 85 r \$0-fadetime;
#X connect 0 0 1 0;
#X connect 1 0 2 0;
#X connect 2 0 3 0;
#X connect 3 0 4 0;
#X connect 5 0 2 1;
#X restore 1940 89 pd dbtoline;
#X obj 2121 665 s \$0-stchan;
#X obj 146 75 nbx 5 10 5 99999 1 0 \$0-fadetime \$0-fadetime-set fade-time
55 5 1 10 -188403 -13381 -13381 20 256;
#X obj 2045 577 s \$0-fadetime-set;
#N canvas 0 50 450 300 dbtoline 0;
#X obj 107 45 inlet;
#X obj 107 66 dbtorms;
#X obj 108 89 pack f 20;
#X obj 107 107 line~;
#X obj 107 127 outlet~;
#X obj 218 126 r \$0-fadetime;
#X connect 0 0 1 0;
#X connect 1 0 2 0;
#X connect 2 0 3 0;
#X connect 3 0 4 0;
#X connect 5 0 2 1;
#X restore 1432 393 pd dbtoline;
#N canvas 0 50 450 300 dbtoline 0;
#X obj 107 45 inlet;
#X obj 107 66 dbtorms;
#X obj 107 87 pack f 20;
#X obj 107 107 line~;
#X obj 107 127 outlet~;
#X obj 228 136 r \$0-fadetime;
#X connect 0 0 1 0;
#X connect 1 0 2 0;
#X connect 2 0 3 0;
#X connect 3 0 4 0;
#X connect 5 0 2 1;
#X restore 1570 390 pd dbtoline;
#N canvas 0 50 450 300 dbtoline 0;
#X obj 107 45 inlet;
#X obj 107 66 dbtorms;
#X obj 107 87 pack f 20;
#X obj 107 107 line~;
#X obj 107 127 outlet~;
#X obj 238 146 r \$0-fadetime;
#X connect 0 0 1 0;
#X connect 1 0 2 0;
#X connect 2 0 3 0;
#X connect 3 0 4 0;
#X connect 5 0 2 1;
#X restore 1710 392 pd dbtoline;
#N canvas 0 50 450 300 dbtoline 0;
#X obj 107 45 inlet;
#X obj 107 66 dbtorms;
#X obj 107 87 pack f 20;
#X obj 107 107 line~;
#X obj 107 127 outlet~;
#X obj 248 156 r \$0-fadetime;
#X connect 0 0 1 0;
#X connect 1 0 2 0;
#X connect 2 0 3 0;
#X connect 3 0 4 0;
#X connect 5 0 2 1;
#X restore 1848 392 pd dbtoline;
#N canvas 0 50 450 300 dbtoline 0;
#X obj 107 45 inlet;
#X obj 107 66 dbtorms;
#X obj 107 87 pack f 20;
#X obj 107 107 line~;
#X obj 107 127 outlet~;
#X obj 258 166 r \$0-fadetime;
#X connect 0 0 1 0;
#X connect 1 0 2 0;
#X connect 2 0 3 0;
#X connect 3 0 4 0;
#X connect 5 0 2 1;
#X restore 1988 392 pd dbtoline;
#X obj 2130 627 route stmix;
#X obj 2229 695 s \$0-out_dB-set;
#X obj 2029 646 route limit stchan fadetime out randvol;
#X obj 2195 666 s \$0-randvol;
#X obj 906 462 r \$0-volroute;
#X msg 2248 447 randpan 0;
#X obj 2245 418 loadbang;
#X obj 156 270 r \$0-randvol;
#X obj 156 290 unpack f f;
#X obj 178 335 *;
#X obj 156 310 t f f;
#X obj 178 360 * 100;
#X obj 178 387 t b f;
#X obj 205 439 t f b;
#X obj 381 495 random 30;
#X obj 228 596 makefilename v%d;
#X obj 239 476 r \$0-stchan;
#X obj 234 506 unpack;
#X obj 272 525 == 0;
#X obj 234 526 * 2;
#X obj 234 546 pack;
#X msg 234 566 set \$1 \$2;
#X obj 100 599 loadbang;
#X obj 360 641 s \$0-volroute;
#X obj 360 621 pack s f;
#X obj 176 472 + 1;
#X msg 100 630 map 0 1 1 1 1 1 1 1 1 1 1 1 1;
#X obj 381 515 * -0.0001;
#X obj 381 555 +;
#X obj 45 978 f;
#X obj 134 976 f;
#X obj 81 977 spigot;
#X obj 144 947 spigot;
#X obj 178 924 == 0;
#X obj 45 947 sel 1 0;
#X obj 72 887 t f f;
#X obj 249 960 f;
#X obj 338 958 f;
#X obj 285 959 spigot;
#X obj 348 929 spigot;
#X obj 382 906 == 0;
#X obj 249 929 sel 1 0;
#X obj 276 849 t f f;
#X obj 452 962 f;
#X obj 541 960 f;
#X obj 488 961 spigot;
#X obj 551 931 spigot;
#X obj 585 908 == 0;
#X obj 452 931 sel 1 0;
#X obj 479 851 t f f;
#X obj 558 866 r \$0-6_in_vol;
#X obj 449 1007 s \$0-6_in_vol-set;
#X obj 446 880 r \$0-5_in_vol;
#X obj 151 882 r \$0-2_in_vol;
#X obj 42 1023 s \$0-2_in_vol-set;
#X obj 39 917 r \$0-1_in_vol;
#X obj 25 1178 f;
#X obj 114 1176 f;
#X obj 61 1177 spigot;
#X obj 124 1147 spigot;
#X obj 158 1124 == 0;
#X obj 25 1147 sel 1 0;
#X obj 52 1067 t f f;
#X obj 229 1180 f;
#X obj 318 1178 f;
#X obj 265 1179 spigot;
#X obj 328 1149 spigot;
#X obj 362 1126 == 0;
#X obj 229 1149 sel 1 0;
#X obj 256 1069 t f f;
#X obj 432 1182 f;
#X obj 521 1180 f;
#X obj 468 1181 spigot;
#X obj 531 1151 spigot;
#X obj 565 1128 == 0;
#X obj 432 1151 sel 1 0;
#X obj 459 1071 t f f;
#X obj 19 1097 r \$0-7_in_vol;
#X obj 131 1082 r \$0-8_in_vol;
#X obj 22 1223 s \$0-8_in_vol-set;
#X obj 538 1086 r \$0-12_in_vol;
#X obj 429 1227 s \$0-12_in_vol-set;
#X obj 226 1225 s \$0-10_in_vol-set;
#X obj 223 1099 r \$0-9_in_vol;
#X obj 426 1100 r \$0-11_in_vol;
#X obj 335 1084 r \$0-10_in_vol;
#X obj 246 1005 s \$0-4_in_vol-set;
#X obj 243 879 r \$0-3_in_vol;
#X obj 355 864 r \$0-4_in_vol;
#X obj 594 961 r \$0-stchan;
#X obj 568 1019 route 1 2 3 4 5 6;
#X obj 852 903 t f f;
#X obj 879 925 % 2;
#X obj 852 925 + 1;
#X obj 883 949 sel 0 1;
#X msg 879 973 -45;
#X msg 906 973 45;
#X obj 769 962 makefilename p%d;
#X obj 804 1017 s \$0-panroute;
#X obj 804 996 pack s f;
#X obj 797 859 sel 1 0;
#X obj 754 915 + 1;
#X obj 730 936 makefilename p%d;
#X obj 710 967 pack s 0;
#X obj 772 832 r \$0-stpan;
#X obj 865 1056 * 0.5;
#X obj 865 1076 i;
#X obj 865 1097 pack f 1;
#X obj 864 1118 s \$0-stchan;
#X obj 762 1055 * 0.5;
#X obj 762 1075 i;
#X obj 761 1117 s \$0-stchan;
#X obj 762 1096 pack f 0;
#X obj 2467 163 - 1;
#X obj 2467 186 * 2;
#X obj 2467 216 + 1;
#X obj 2499 216 + 2;
#X obj 2406 244 makefilename p%d;
#X obj 2513 245 makefilename p%d;
#X obj 2607 163 - 1;
#X obj 2607 186 * 2;
#X obj 2607 216 + 1;
#X obj 2639 216 + 2;
#X obj 2619 244 makefilename p%d;
#X obj 2405 277 pack s -45;
#X obj 2510 276 pack s 45;
#X obj 2621 280 pack s 0;
#X obj 2515 66 r \$0-stchan;
#X obj 2515 85 unpack f f;
#X obj 2495 125 spigot;
#X obj 2539 125 spigot;
#X obj 2572 105 == 0;
#X obj 2736 92 t b a;
#X obj 2808 179 msgfile;
#X msg 2889 149 add patches 0;
#X obj 2886 111 loadbang;
#X obj 2798 288 route patches;
#X msg 2823 98 goto 0;
#X obj 2751 157 + 1;
#X obj 2735 174 f;
#X msg 2735 227 replace patches \$1;
#X msg 2786 148 this;
#X obj 2735 122 t b b b;
#X obj 3063 77 t b f;
#X msg 3078 101 goto \$1;
#X msg 3043 100 this;
#X obj 3170 111 r \$0-patches_load;
#X obj 3170 128 openpanel;
#X msg 3244 162 read \$1;
#X msg 3200 162 goto 0;
#X msg 3170 162 this;
#X obj 3350 41 r \$0-patches_save;
#X obj 3350 69 savepanel;
#X obj 3349 98 makesymbol %s.txt;
#X msg 3345 122 write \$1;
#X obj 2816 266 route list;
#X obj 2904 65 r \$0-patches_clear;
#X obj 2904 81 t b b;
#X msg 3076 138 clear;
#X obj 3170 145 t b b a b;
#X msg 2802 361 range 1 \$1;
#X obj 2802 383 s \$0-patch-range;
#X obj 3132 73 r \$0-patch-set;
#X obj 3090 44 route patch file;
#X floatatom 2938 337 5 0 0 0 - - -;
#X obj 3169 239 r \$0-store_plus;
#X obj 3053 239 r \$0-store_minus;
#X obj 3169 263 f;
#X obj 3053 273 f;
#X obj 3053 293 +;
#X obj 3070 352 %;
#X obj 3070 372 + 1;
#X obj 3120 265 - 1;
#X obj 3053 314 - 1;
#X obj 3169 284 + 1;
#X obj 3064 393 s \$0-patch-set;
#X obj 2993 21 r \$0-patch-num;
#X obj 2911 382 s \$0-patches-num;
#X obj 3839 366 s \$0-1_in_vol-set;
#X obj 3860 332 s \$0-1_fx_1-set;
#X obj 3871 315 s \$0-1_fx_2-set;
#X obj 3562 182 s \$0-fx_1_vol-set;
#X obj 3584 165 s \$0-fx_2_vol-set;
#X obj 3882 298 s \$0-1_fx_3-set;
#X obj 3893 281 s \$0-1_fx_4-set;
#X obj 3904 264 s \$0-1_fx_5-set;
#X obj 3849 349 s \$0-pan_1-set;
#X obj 3915 247 s \$0-1_in-set;
#X obj 3926 226 s \$0-2_in_vol-set;
#X obj 3937 209 s \$0-pan_2-set;
#X obj 3948 192 s \$0-2_fx_1-set;
#X obj 3959 175 s \$0-2_fx_2-set;
#X obj 3970 158 s \$0-2_fx_3-set;
#X obj 3981 141 s \$0-2_fx_4-set;
#X obj 3992 124 s \$0-2_fx_5-set;
#X obj 4003 107 s \$0-2_in-set;
#X obj 4014 366 s \$0-3_in_vol-set;
#X obj 4025 349 s \$0-pan_3-set;
#X obj 4036 332 s \$0-3_fx_1-set;
#X obj 4047 315 s \$0-3_fx_2-set;
#X obj 4058 298 s \$0-3_fx_3-set;
#X obj 4069 281 s \$0-3_fx_4-set;
#X obj 4080 264 s \$0-3_fx_5-set;
#X obj 4091 247 s \$0-3_in-set;
#X obj 4102 226 s \$0-4_in_vol-set;
#X obj 4113 209 s \$0-pan_4-set;
#X obj 4124 192 s \$0-4_fx_1-set;
#X obj 4135 175 s \$0-4_fx_2-set;
#X obj 4146 158 s \$0-4_fx_3-set;
#X obj 4157 141 s \$0-4_fx_4-set;
#X obj 4168 124 s \$0-4_fx_5-set;
#X obj 4179 107 s \$0-4_in-set;
#X obj 4559 107 s \$0-8_in-set;
#X obj 4548 124 s \$0-8_fx_5-set;
#X obj 4537 141 s \$0-8_fx_4-set;
#X obj 4526 158 s \$0-8_fx_3-set;
#X obj 4515 175 s \$0-8_fx_2-set;
#X obj 4504 192 s \$0-8_fx_1-set;
#X obj 4493 209 s \$0-pan_8-set;
#X obj 4482 226 s \$0-8_in_vol-set;
#X obj 4471 247 s \$0-7_in-set;
#X obj 4460 264 s \$0-7_fx_5-set;
#X obj 4449 281 s \$0-7_fx_4-set;
#X obj 4438 298 s \$0-7_fx_3-set;
#X obj 4427 315 s \$0-7_fx_2-set;
#X obj 4416 332 s \$0-7_fx_1-set;
#X obj 4405 349 s \$0-pan_7-set;
#X obj 4394 366 s \$0-7_in_vol-set;
#X obj 4383 107 s \$0-6_in-set;
#X obj 4372 124 s \$0-6_fx_5-set;
#X obj 4361 141 s \$0-6_fx_4-set;
#X obj 4350 158 s \$0-6_fx_3-set;
#X obj 4339 175 s \$0-6_fx_2-set;
#X obj 4328 192 s \$0-6_fx_1-set;
#X obj 4317 209 s \$0-pan_6-set;
#X obj 4306 226 s \$0-6_in_vol-set;
#X obj 4295 247 s \$0-5_in-set;
#X obj 4284 264 s \$0-5_fx_5-set;
#X obj 4273 281 s \$0-5_fx_4-set;
#X obj 4262 298 s \$0-5_fx_3-set;
#X obj 4251 315 s \$0-5_fx_2-set;
#X obj 4240 332 s \$0-5_fx_1-set;
#X obj 4229 349 s \$0-pan_5-set;
#X obj 4219 366 s \$0-5_in_vol-set;
#X obj 4939 107 s \$0-12_in-set;
#X obj 4928 124 s \$0-12_fx_5-set;
#X obj 4917 141 s \$0-12_fx_4-set;
#X obj 4906 158 s \$0-12_fx_3-set;
#X obj 4895 175 s \$0-12_fx_2-set;
#X obj 4884 192 s \$0-12_fx_1-set;
#X obj 4873 209 s \$0-pan_12-set;
#X obj 4862 226 s \$0-12_in_vol-set;
#X obj 4851 247 s \$0-11_in-set;
#X obj 4840 264 s \$0-11_fx_5-set;
#X obj 4829 281 s \$0-11_fx_4-set;
#X obj 4818 298 s \$0-11_fx_3-set;
#X obj 4807 315 s \$0-11_fx_2-set;
#X obj 4796 332 s \$0-11_fx_1-set;
#X obj 4785 349 s \$0-pan_11-set;
#X obj 4774 366 s \$0-11_in_vol-set;
#X obj 4763 107 s \$0-10_in-set;
#X obj 4752 124 s \$0-10_fx_5-set;
#X obj 4741 141 s \$0-10_fx_4-set;
#X obj 4730 158 s \$0-10_fx_3-set;
#X obj 4719 175 s \$0-10_fx_2-set;
#X obj 4708 192 s \$0-10_fx_1-set;
#X obj 4697 209 s \$0-pan_10-set;
#X obj 4686 226 s \$0-10_in_vol-set;
#X obj 4675 247 s \$0-9_in-set;
#X obj 4664 264 s \$0-9_fx_5-set;
#X obj 4653 281 s \$0-9_fx_4-set;
#X obj 4642 298 s \$0-9_fx_3-set;
#X obj 4631 315 s \$0-9_fx_2-set;
#X obj 4620 332 s \$0-9_fx_1-set;
#X obj 4609 349 s \$0-pan_9-set;
#X obj 4599 366 s \$0-9_in_vol-set;
#X obj 3604 148 s \$0-fx_3_vol-set;
#X obj 3626 131 s \$0-fx_4_vol-set;
#X obj 3643 114 s \$0-fx_5_vol-set;
#X obj 3839 60 unpack f f f f f f f f f f f f f f f f f f f f f f f
f f f f f f f f f;
#X obj 4219 60 unpack f f f f f f f f f f f f f f f f f f f f f f f
f f f f f f f f f;
#X obj 4599 60 unpack f f f f f f f f f f f f f f f f f f f f f f f
f f f f f f f f f;
#X obj 3505 39 niagara 96;
#X obj 4542 39 niagara 64;
#X obj 4162 39 niagara 32;
#X obj 3629 322 r \$0-fx_5_vol;
#X obj 3608 339 r \$0-fx_4_vol;
#X obj 3588 356 r \$0-fx_3_vol;
#X obj 3568 373 r \$0-fx_2_vol;
#X obj 3554 390 r \$0-fx_1_vol;
#X obj 3539 410 f;
#X obj 3800 391 delay 100;
#X obj 4620 430 delay 66;
#X obj 4250 437 delay 33;
#X obj 3579 11 loadbang;
#X obj 4718 435 r \$0-10_in;
#X obj 4707 452 r \$0-10_fx_5;
#X obj 4696 469 r \$0-10_fx_4;
#X obj 4685 486 r \$0-10_fx_3;
#X obj 4674 503 r \$0-10_fx_2;
#X obj 4663 520 r \$0-10_fx_1;
#X obj 4652 537 r \$0-pan_10;
#X obj 4641 554 r \$0-10_in_vol;
#X obj 4630 575 r \$0-9_in;
#X obj 4619 592 r \$0-9_fx_5;
#X obj 4608 609 r \$0-9_fx_4;
#X obj 4597 626 r \$0-9_fx_3;
#X obj 4586 643 r \$0-9_fx_2;
#X obj 4575 660 r \$0-9_fx_1;
#X obj 4564 677 r \$0-pan_9;
#X obj 4554 694 r \$0-9_in_vol;
#X obj 4894 435 r \$0-12_in;
#X obj 4883 452 r \$0-12_fx_5;
#X obj 4872 469 r \$0-12_fx_4;
#X obj 4861 486 r \$0-12_fx_3;
#X obj 4850 503 r \$0-12_fx_2;
#X obj 4839 520 r \$0-12_fx_1;
#X obj 4828 537 r \$0-pan_12;
#X obj 4817 554 r \$0-12_in_vol;
#X obj 4806 575 r \$0-11_in;
#X obj 4795 592 r \$0-11_fx_5;
#X obj 4784 609 r \$0-11_fx_4;
#X obj 4773 626 r \$0-11_fx_3;
#X obj 4762 643 r \$0-11_fx_2;
#X obj 4751 660 r \$0-11_fx_1;
#X obj 4740 677 r \$0-pan_11;
#X obj 4729 694 r \$0-11_in_vol;
#X obj 4552 736 pack f f f f f f f f f f f f f f f f f f f f f f f
f f f f f f f f f;
#X obj 4539 714 f;
#X obj 4192 736 pack f f f f f f f f f f f f f f f f f f f f f f f
f f f f f f f f f;
#X obj 4179 714 f;
#X obj 4369 694 r \$0-7_in_vol;
#X obj 4380 677 r \$0-pan_7;
#X obj 4391 660 r \$0-7_fx_1;
#X obj 4402 643 r \$0-7_fx_2;
#X obj 4413 626 r \$0-7_fx_3;
#X obj 4424 609 r \$0-7_fx_4;
#X obj 4435 592 r \$0-7_fx_5;
#X obj 4446 575 r \$0-7_in;
#X obj 4457 554 r \$0-8_in_vol;
#X obj 4468 537 r \$0-pan_8;
#X obj 4479 520 r \$0-8_fx_1;
#X obj 4490 503 r \$0-8_fx_2;
#X obj 4501 486 r \$0-8_fx_3;
#X obj 4512 469 r \$0-8_fx_4;
#X obj 4523 452 r \$0-8_fx_5;
#X obj 4534 435 r \$0-8_in;
#X obj 4358 435 r \$0-6_in;
#X obj 4347 452 r \$0-6_fx_5;
#X obj 4336 469 r \$0-6_fx_4;
#X obj 4325 486 r \$0-6_fx_3;
#X obj 4314 503 r \$0-6_fx_2;
#X obj 4303 520 r \$0-6_fx_1;
#X obj 4292 537 r \$0-pan_6;
#X obj 4281 554 r \$0-6_in_vol;
#X obj 4270 575 r \$0-5_in;
#X obj 4259 592 r \$0-5_fx_5;
#X obj 4248 609 r \$0-5_fx_4;
#X obj 4237 626 r \$0-5_fx_3;
#X obj 4226 643 r \$0-5_fx_2;
#X obj 4215 660 r \$0-5_fx_1;
#X obj 4204 677 r \$0-pan_5;
#X obj 4194 694 r \$0-5_in_vol;
#X obj 3832 736 pack f f f f f f f f f f f f f f f f f f f f f f f
f f f f f f f f f;
#X obj 3819 714 f;
#X obj 4174 435 r \$0-4_in;
#X obj 4163 452 r \$0-4_fx_5;
#X obj 4152 469 r \$0-4_fx_4;
#X obj 4141 486 r \$0-4_fx_3;
#X obj 4130 503 r \$0-4_fx_2;
#X obj 4119 520 r \$0-4_fx_1;
#X obj 4108 537 r \$0-pan_4;
#X obj 4097 554 r \$0-4_in_vol;
#X obj 4086 575 r \$0-3_in;
#X obj 4075 592 r \$0-3_fx_5;
#X obj 4064 609 r \$0-3_fx_4;
#X obj 4053 626 r \$0-3_fx_3;
#X obj 4042 643 r \$0-3_fx_2;
#X obj 4031 660 r \$0-3_fx_1;
#X obj 4020 677 r \$0-pan_3;
#X obj 4009 694 r \$0-3_in_vol;
#X obj 3998 435 r \$0-2_in;
#X obj 3987 452 r \$0-2_fx_5;
#X obj 3976 469 r \$0-2_fx_4;
#X obj 3965 486 r \$0-2_fx_3;
#X obj 3954 503 r \$0-2_fx_2;
#X obj 3943 520 r \$0-2_fx_1;
#X obj 3932 537 r \$0-pan_2;
#X obj 3921 554 r \$0-2_in_vol;
#X obj 3910 575 r \$0-1_in;
#X obj 3899 592 r \$0-1_fx_5;
#X obj 3888 609 r \$0-1_fx_4;
#X obj 3877 626 r \$0-1_fx_3;
#X obj 3866 643 r \$0-1_fx_2;
#X obj 3855 660 r \$0-1_fx_1;
#X obj 3844 677 r \$0-pan_1;
#X obj 3834 694 r \$0-1_in_vol;
#X obj 3492 769 drip;
#X obj 3492 810 prepend add;
#X obj 4606 393 r \$0-store_patch;
#X msg 4176 406;
#X obj 3647 414 r \$0-fadetime;
#X obj 3548 454 pack f f f f f f;
#X msg 3579 33 100 100 100 100 100 20;
#X obj 3562 60 unpack f f f f f f;
#X obj 3671 97 s \$0-fadetime-set;
#X msg 51 646 0;
#X obj 51 858 s \$0-pan_1-set;
#X obj 65 841 s \$0-pan_2-set;
#X obj 80 824 s \$0-pan_3-set;
#X obj 94 807 s \$0-pan_4-set;
#X obj 108 790 s \$0-pan_5-set;
#X obj 122 773 s \$0-pan_6-set;
#X obj 137 756 s \$0-pan_7-set;
#X obj 151 739 s \$0-pan_8-set;
#X obj 165 722 s \$0-pan_9-set;
#X obj 179 705 s \$0-pan_10-set;
#X obj 37 624 loadbang;
#X obj 193 688 s \$0-pan_11-set;
#X obj 207 671 s \$0-pan_12-set;
#N canvas 433 194 450 300 pan~ 0;
#X obj 62 82 inlet~;
#X obj 162 18 inlet;
#X obj 163 52 * 2;
#X obj 163 74 + 90;
#X obj 123 52 * -2;
#X obj 123 74 + 90;
#X obj 134 105 pack f 20;
#X obj 134 127 line~;
#X obj 119 183 *~;
#X obj 204 105 pack f 20;
#X obj 204 127 line~;
#X obj 189 183 *~;
#X obj 239 76 r \$0-fadetime;
#X obj 119 205 outlet~;
#X obj 189 205 outlet~;
#X obj 127 155 tabread4~ \$0-equal_power;
#X obj 279 155 tabread4~ \$0-equal_power;
#X obj 206 6 loadbang;
#X msg 206 26 0;
#X connect 0 0 8 0;
#X connect 0 0 11 0;
#X connect 1 0 4 0;
#X connect 1 0 2 0;
#X connect 2 0 3 0;
#X connect 3 0 9 0;
#X connect 4 0 5 0;
#X connect 5 0 6 0;
#X connect 6 0 7 0;
#X connect 7 0 15 0;
#X connect 8 0 13 0;
#X connect 9 0 10 0;
#X connect 10 0 16 0;
#X connect 11 0 14 0;
#X connect 12 0 6 1;
#X connect 12 0 9 1;
#X connect 15 0 8 1;
#X connect 16 0 11 1;
#X connect 17 0 18 0;
#X connect 18 0 2 0;
#X connect 18 0 4 0;
#X restore 741 149 pd pan~;
#N canvas 0 50 450 300 (subpatch) 0;
#X array \$0-equal_power 181 float 3;
#A 0 1.52752e-08 0.0061705 0.0123405 0.0185097 0.0246774 0.0308432
0.0370066 0.0431673 0.0493248 0.0554784 0.0616277 0.0677723 0.073912
0.0800459 0.0861738 0.0922948 0.098409 0.104516 0.110615 0.116705 0.122786
0.128858 0.134921 0.140973 0.147014 0.153044 0.159063 0.165069 0.171063
0.177043 0.18301 0.188964 0.194903 0.200827 0.206735 0.212628 0.218506
0.224366 0.230209 0.236034 0.241842 0.247631 0.253402 0.259152 0.264884
0.270595 0.276286 0.281955 0.287603 0.293229 0.298833 0.304414 0.309972
0.315506 0.321016 0.326502 0.331963 0.337399 0.342808 0.348192 0.35355
0.35888 0.364183 0.369458 0.374705 0.379924 0.385114 0.390274 0.395404
0.400505 0.405576 0.410615 0.415622 0.420598 0.425543 0.430455 0.435334
0.440179 0.444992 0.449771 0.454515 0.459224 0.463898 0.468538 0.473142
0.47771 0.48224 0.486734 0.491192 0.495613 0.499995 0.504338 0.508644
0.512911 0.51714 0.521328 0.525476 0.529585 0.533655 0.537683 0.541669
0.545614 0.549518 0.553382 0.557202 0.560978 0.564713 0.568406 0.572056
0.57566 0.579221 0.582738 0.586212 0.58964 0.593022 0.59636 0.599653
0.602902 0.606102 0.609257 0.612365 0.615427 0.618443 0.62141 0.624331
0.627203 0.63003 0.632808 0.635537 0.638216 0.640849 0.643433 0.645968
0.648452 0.650887 0.653274 0.655612 0.657898 0.660133 0.662319 0.664456
0.666541 0.668576 0.670558 0.67249 0.674373 0.676203 0.677981 0.679706
0.681382 0.683005 0.684577 0.686095 0.687561 0.688976 0.690338 0.691648
0.692903 0.694107 0.695258 0.696357 0.697402 0.698392 0.699331 0.700217
0.701051 0.701828 0.702552 0.703224 0.703844 0.704409 0.704918 0.705375
0.705779 0.706131 0.706426 0.706667 0.706855 0.706991 0.707073 0.707098
;
#X coords 0 1 181 0 200 140 1;
#X restore 299 248 graph;
#N canvas 433 184 450 300 pan~ 0;
#X obj 62 82 inlet~;
#X obj 162 18 inlet;
#X obj 163 52 * 2;
#X obj 163 74 + 90;
#X obj 123 52 * -2;
#X obj 123 74 + 90;
#X obj 134 105 pack f 20;
#X obj 134 127 line~;
#X obj 119 183 *~;
#X obj 204 105 pack f 20;
#X obj 204 127 line~;
#X obj 189 183 *~;
#X obj 239 76 r \$0-fadetime;
#X obj 119 205 outlet~;
#X obj 189 205 outlet~;
#X obj 127 155 tabread4~ \$0-equal_power;
#X obj 279 155 tabread4~ \$0-equal_power;
#X obj 206 6 loadbang;
#X msg 206 26 0;
#X connect 0 0 8 0;
#X connect 0 0 11 0;
#X connect 1 0 4 0;
#X connect 1 0 2 0;
#X connect 2 0 3 0;
#X connect 3 0 9 0;
#X connect 4 0 5 0;
#X connect 5 0 6 0;
#X connect 6 0 7 0;
#X connect 7 0 15 0;
#X connect 8 0 13 0;
#X connect 9 0 10 0;
#X connect 10 0 16 0;
#X connect 11 0 14 0;
#X connect 12 0 6 1;
#X connect 12 0 9 1;
#X connect 15 0 8 1;
#X connect 16 0 11 1;
#X connect 17 0 18 0;
#X connect 18 0 2 0;
#X connect 18 0 4 0;
#X restore 851 149 pd pan~;
#N canvas 433 184 450 300 pan~ 0;
#X obj 62 82 inlet~;
#X obj 162 18 inlet;
#X obj 163 52 * 2;
#X obj 163 74 + 90;
#X obj 123 52 * -2;
#X obj 123 74 + 90;
#X obj 134 105 pack f 20;
#X obj 134 127 line~;
#X obj 119 183 *~;
#X obj 204 105 pack f 20;
#X obj 204 127 line~;
#X obj 189 183 *~;
#X obj 239 76 r \$0-fadetime;
#X obj 119 205 outlet~;
#X obj 189 205 outlet~;
#X obj 127 155 tabread4~ \$0-equal_power;
#X obj 279 155 tabread4~ \$0-equal_power;
#X obj 206 6 loadbang;
#X msg 206 26 0;
#X connect 0 0 8 0;
#X connect 0 0 11 0;
#X connect 1 0 4 0;
#X connect 1 0 2 0;
#X connect 2 0 3 0;
#X connect 3 0 9 0;
#X connect 4 0 5 0;
#X connect 5 0 6 0;
#X connect 6 0 7 0;
#X connect 7 0 15 0;
#X connect 8 0 13 0;
#X connect 9 0 10 0;
#X connect 10 0 16 0;
#X connect 11 0 14 0;
#X connect 12 0 6 1;
#X connect 12 0 9 1;
#X connect 15 0 8 1;
#X connect 16 0 11 1;
#X connect 17 0 18 0;
#X connect 18 0 2 0;
#X connect 18 0 4 0;
#X restore 961 149 pd pan~;
#N canvas 433 184 450 300 pan~ 0;
#X obj 62 82 inlet~;
#X obj 162 18 inlet;
#X obj 163 52 * 2;
#X obj 163 74 + 90;
#X obj 123 52 * -2;
#X obj 123 74 + 90;
#X obj 134 105 pack f 20;
#X obj 134 127 line~;
#X obj 119 183 *~;
#X obj 204 105 pack f 20;
#X obj 204 127 line~;
#X obj 189 183 *~;
#X obj 239 76 r \$0-fadetime;
#X obj 119 205 outlet~;
#X obj 189 205 outlet~;
#X obj 127 155 tabread4~ \$0-equal_power;
#X obj 279 155 tabread4~ \$0-equal_power;
#X obj 206 6 loadbang;
#X msg 206 26 0;
#X connect 0 0 8 0;
#X connect 0 0 11 0;
#X connect 1 0 4 0;
#X connect 1 0 2 0;
#X connect 2 0 3 0;
#X connect 3 0 9 0;
#X connect 4 0 5 0;
#X connect 5 0 6 0;
#X connect 6 0 7 0;
#X connect 7 0 15 0;
#X connect 8 0 13 0;
#X connect 9 0 10 0;
#X connect 10 0 16 0;
#X connect 11 0 14 0;
#X connect 12 0 6 1;
#X connect 12 0 9 1;
#X connect 15 0 8 1;
#X connect 16 0 11 1;
#X connect 17 0 18 0;
#X connect 18 0 2 0;
#X connect 18 0 4 0;
#X restore 1071 149 pd pan~;
#N canvas 433 184 450 300 pan~ 0;
#X obj 62 82 inlet~;
#X obj 162 18 inlet;
#X obj 163 52 * 2;
#X obj 163 74 + 90;
#X obj 123 52 * -2;
#X obj 123 74 + 90;
#X obj 134 105 pack f 20;
#X obj 134 127 line~;
#X obj 119 183 *~;
#X obj 204 105 pack f 20;
#X obj 204 127 line~;
#X obj 189 183 *~;
#X obj 239 76 r \$0-fadetime;
#X obj 119 205 outlet~;
#X obj 189 205 outlet~;
#X obj 127 155 tabread4~ \$0-equal_power;
#X obj 279 155 tabread4~ \$0-equal_power;
#X obj 206 6 loadbang;
#X msg 206 26 0;
#X connect 0 0 8 0;
#X connect 0 0 11 0;
#X connect 1 0 4 0;
#X connect 1 0 2 0;
#X connect 2 0 3 0;
#X connect 3 0 9 0;
#X connect 4 0 5 0;
#X connect 5 0 6 0;
#X connect 6 0 7 0;
#X connect 7 0 15 0;
#X connect 8 0 13 0;
#X connect 9 0 10 0;
#X connect 10 0 16 0;
#X connect 11 0 14 0;
#X connect 12 0 6 1;
#X connect 12 0 9 1;
#X connect 15 0 8 1;
#X connect 16 0 11 1;
#X connect 17 0 18 0;
#X connect 18 0 2 0;
#X connect 18 0 4 0;
#X restore 1171 149 pd pan~;
#N canvas 433 184 450 300 pan~ 0;
#X obj 62 82 inlet~;
#X obj 162 18 inlet;
#X obj 163 52 * 2;
#X obj 163 74 + 90;
#X obj 123 52 * -2;
#X obj 123 74 + 90;
#X obj 134 105 pack f 20;
#X obj 134 127 line~;
#X obj 119 183 *~;
#X obj 204 105 pack f 20;
#X obj 204 127 line~;
#X obj 189 183 *~;
#X obj 239 76 r \$0-fadetime;
#X obj 119 205 outlet~;
#X obj 189 205 outlet~;
#X obj 127 155 tabread4~ \$0-equal_power;
#X obj 279 155 tabread4~ \$0-equal_power;
#X obj 206 6 loadbang;
#X msg 206 26 0;
#X connect 0 0 8 0;
#X connect 0 0 11 0;
#X connect 1 0 4 0;
#X connect 1 0 2 0;
#X connect 2 0 3 0;
#X connect 3 0 9 0;
#X connect 4 0 5 0;
#X connect 5 0 6 0;
#X connect 6 0 7 0;
#X connect 7 0 15 0;
#X connect 8 0 13 0;
#X connect 9 0 10 0;
#X connect 10 0 16 0;
#X connect 11 0 14 0;
#X connect 12 0 6 1;
#X connect 12 0 9 1;
#X connect 15 0 8 1;
#X connect 16 0 11 1;
#X connect 17 0 18 0;
#X connect 18 0 2 0;
#X connect 18 0 4 0;
#X restore 1281 149 pd pan~;
#N canvas 433 184 450 300 pan~ 0;
#X obj 62 82 inlet~;
#X obj 162 18 inlet;
#X obj 163 52 * 2;
#X obj 163 74 + 90;
#X obj 123 52 * -2;
#X obj 123 74 + 90;
#X obj 134 105 pack f 20;
#X obj 134 127 line~;
#X obj 119 183 *~;
#X obj 204 105 pack f 20;
#X obj 204 127 line~;
#X obj 189 183 *~;
#X obj 239 76 r \$0-fadetime;
#X obj 119 205 outlet~;
#X obj 189 205 outlet~;
#X obj 127 155 tabread4~ \$0-equal_power;
#X obj 279 155 tabread4~ \$0-equal_power;
#X obj 206 6 loadbang;
#X msg 206 26 0;
#X connect 0 0 8 0;
#X connect 0 0 11 0;
#X connect 1 0 4 0;
#X connect 1 0 2 0;
#X connect 2 0 3 0;
#X connect 3 0 9 0;
#X connect 4 0 5 0;
#X connect 5 0 6 0;
#X connect 6 0 7 0;
#X connect 7 0 15 0;
#X connect 8 0 13 0;
#X connect 9 0 10 0;
#X connect 10 0 16 0;
#X connect 11 0 14 0;
#X connect 12 0 6 1;
#X connect 12 0 9 1;
#X connect 15 0 8 1;
#X connect 16 0 11 1;
#X connect 17 0 18 0;
#X connect 18 0 2 0;
#X connect 18 0 4 0;
#X restore 1391 149 pd pan~;
#N canvas 433 184 450 300 pan~ 0;
#X obj 62 82 inlet~;
#X obj 162 18 inlet;
#X obj 163 52 * 2;
#X obj 163 74 + 90;
#X obj 123 52 * -2;
#X obj 123 74 + 90;
#X obj 134 105 pack f 20;
#X obj 134 127 line~;
#X obj 119 183 *~;
#X obj 204 105 pack f 20;
#X obj 204 127 line~;
#X obj 189 183 *~;
#X obj 239 76 r \$0-fadetime;
#X obj 119 205 outlet~;
#X obj 189 205 outlet~;
#X obj 127 155 tabread4~ \$0-equal_power;
#X obj 279 155 tabread4~ \$0-equal_power;
#X obj 206 6 loadbang;
#X msg 206 26 0;
#X connect 0 0 8 0;
#X connect 0 0 11 0;
#X connect 1 0 4 0;
#X connect 1 0 2 0;
#X connect 2 0 3 0;
#X connect 3 0 9 0;
#X connect 4 0 5 0;
#X connect 5 0 6 0;
#X connect 6 0 7 0;
#X connect 7 0 15 0;
#X connect 8 0 13 0;
#X connect 9 0 10 0;
#X connect 10 0 16 0;
#X connect 11 0 14 0;
#X connect 12 0 6 1;
#X connect 12 0 9 1;
#X connect 15 0 8 1;
#X connect 16 0 11 1;
#X connect 17 0 18 0;
#X connect 18 0 2 0;
#X connect 18 0 4 0;
#X restore 1491 149 pd pan~;
#N canvas 433 184 450 300 pan~ 0;
#X obj 62 82 inlet~;
#X obj 162 18 inlet;
#X obj 163 52 * 2;
#X obj 163 74 + 90;
#X obj 123 52 * -2;
#X obj 123 74 + 90;
#X obj 134 105 pack f 20;
#X obj 134 127 line~;
#X obj 119 183 *~;
#X obj 204 105 pack f 20;
#X obj 204 127 line~;
#X obj 189 183 *~;
#X obj 239 76 r \$0-fadetime;
#X obj 119 205 outlet~;
#X obj 189 205 outlet~;
#X obj 127 155 tabread4~ \$0-equal_power;
#X obj 279 155 tabread4~ \$0-equal_power;
#X obj 206 6 loadbang;
#X msg 206 26 0;
#X connect 0 0 8 0;
#X connect 0 0 11 0;
#X connect 1 0 4 0;
#X connect 1 0 2 0;
#X connect 2 0 3 0;
#X connect 3 0 9 0;
#X connect 4 0 5 0;
#X connect 5 0 6 0;
#X connect 6 0 7 0;
#X connect 7 0 15 0;
#X connect 8 0 13 0;
#X connect 9 0 10 0;
#X connect 10 0 16 0;
#X connect 11 0 14 0;
#X connect 12 0 6 1;
#X connect 12 0 9 1;
#X connect 15 0 8 1;
#X connect 16 0 11 1;
#X connect 17 0 18 0;
#X connect 18 0 2 0;
#X connect 18 0 4 0;
#X restore 1601 149 pd pan~;
#N canvas 433 184 450 300 pan~ 0;
#X obj 62 82 inlet~;
#X obj 162 18 inlet;
#X obj 163 52 * 2;
#X obj 163 74 + 90;
#X obj 123 52 * -2;
#X obj 123 74 + 90;
#X obj 134 105 pack f 20;
#X obj 134 127 line~;
#X obj 119 183 *~;
#X obj 204 105 pack f 20;
#X obj 204 127 line~;
#X obj 189 183 *~;
#X obj 239 76 r \$0-fadetime;
#X obj 119 205 outlet~;
#X obj 189 205 outlet~;
#X obj 127 155 tabread4~ \$0-equal_power;
#X obj 279 155 tabread4~ \$0-equal_power;
#X obj 206 6 loadbang;
#X msg 206 26 0;
#X connect 0 0 8 0;
#X connect 0 0 11 0;
#X connect 1 0 4 0;
#X connect 1 0 2 0;
#X connect 2 0 3 0;
#X connect 3 0 9 0;
#X connect 4 0 5 0;
#X connect 5 0 6 0;
#X connect 6 0 7 0;
#X connect 7 0 15 0;
#X connect 8 0 13 0;
#X connect 9 0 10 0;
#X connect 10 0 16 0;
#X connect 11 0 14 0;
#X connect 12 0 6 1;
#X connect 12 0 9 1;
#X connect 15 0 8 1;
#X connect 16 0 11 1;
#X connect 17 0 18 0;
#X connect 18 0 2 0;
#X connect 18 0 4 0;
#X restore 1711 149 pd pan~;
#N canvas 433 184 450 300 pan~ 0;
#X obj 62 82 inlet~;
#X obj 162 18 inlet;
#X obj 163 52 * 2;
#X obj 163 74 + 90;
#X obj 123 52 * -2;
#X obj 123 74 + 90;
#X obj 134 105 pack f 20;
#X obj 134 127 line~;
#X obj 119 183 *~;
#X obj 204 105 pack f 20;
#X obj 204 127 line~;
#X obj 189 183 *~;
#X obj 239 76 r \$0-fadetime;
#X obj 119 205 outlet~;
#X obj 189 205 outlet~;
#X obj 127 155 tabread4~ \$0-equal_power;
#X obj 279 155 tabread4~ \$0-equal_power;
#X obj 206 6 loadbang;
#X msg 206 26 0;
#X connect 0 0 8 0;
#X connect 0 0 11 0;
#X connect 1 0 4 0;
#X connect 1 0 2 0;
#X connect 2 0 3 0;
#X connect 3 0 9 0;
#X connect 4 0 5 0;
#X connect 5 0 6 0;
#X connect 6 0 7 0;
#X connect 7 0 15 0;
#X connect 8 0 13 0;
#X connect 9 0 10 0;
#X connect 10 0 16 0;
#X connect 11 0 14 0;
#X connect 12 0 6 1;
#X connect 12 0 9 1;
#X connect 15 0 8 1;
#X connect 16 0 11 1;
#X connect 17 0 18 0;
#X connect 18 0 2 0;
#X connect 18 0 4 0;
#X restore 1821 149 pd pan~;
#N canvas 433 184 450 300 pan~ 0;
#X obj 62 82 inlet~;
#X obj 162 18 inlet;
#X obj 163 52 * 2;
#X obj 163 74 + 90;
#X obj 123 52 * -2;
#X obj 123 74 + 90;
#X obj 134 105 pack f 20;
#X obj 134 127 line~;
#X obj 119 183 *~;
#X obj 204 105 pack f 20;
#X obj 204 127 line~;
#X obj 189 183 *~;
#X obj 239 76 r \$0-fadetime;
#X obj 119 205 outlet~;
#X obj 189 205 outlet~;
#X obj 127 155 tabread4~ \$0-equal_power;
#X obj 279 155 tabread4~ \$0-equal_power;
#X obj 206 6 loadbang;
#X msg 206 26 0;
#X connect 0 0 8 0;
#X connect 0 0 11 0;
#X connect 1 0 4 0;
#X connect 1 0 2 0;
#X connect 2 0 3 0;
#X connect 3 0 9 0;
#X connect 4 0 5 0;
#X connect 5 0 6 0;
#X connect 6 0 7 0;
#X connect 7 0 15 0;
#X connect 8 0 13 0;
#X connect 9 0 10 0;
#X connect 10 0 16 0;
#X connect 11 0 14 0;
#X connect 12 0 6 1;
#X connect 12 0 9 1;
#X connect 15 0 8 1;
#X connect 16 0 11 1;
#X connect 17 0 18 0;
#X connect 18 0 2 0;
#X connect 18 0 4 0;
#X restore 1921 149 pd pan~;
#X obj 349 166 moonlib/mknob 18 181 -45 45 0 0 \$0-pan_12 \$0-pan_12-set
empty -2 -6 0 8 -1 -221145 -1 18000 1;
#X obj 324 166 moonlib/mknob 18 181 -45 45 0 0 \$0-pan_11 \$0-pan_11-set
empty -2 -6 0 8 -1 -236691 -1 0 1;
#X obj 299 166 moonlib/mknob 18 181 -45 45 0 0 \$0-pan_10 \$0-pan_10-set
empty -2 -6 0 8 -1 -260636 -1 18000 1;
#X obj 274 166 moonlib/mknob 18 181 -45 45 0 0 \$0-pan_9 \$0-pan_9-set
empty -2 -6 0 8 -1 -260135 -1 0 1;
#X obj 249 166 moonlib/mknob 18 181 -45 45 0 0 \$0-pan_8 \$0-pan_8-set
empty -2 -6 0 8 -1 -231218 -1 18000 1;
#X obj 224 166 moonlib/mknob 18 181 -45 45 0 0 \$0-pan_7 \$0-pan_7-set
empty -2 -6 0 8 -1 -194871 -1 0 1;
#X obj 199 166 moonlib/mknob 18 181 -45 45 0 0 \$0-pan_6 \$0-pan_6-set
empty -2 -6 0 8 -1 -154295 -1 18000 1;
#X obj 174 166 moonlib/mknob 18 181 -45 45 0 0 \$0-pan_5 \$0-pan_5-set
empty -2 -6 0 8 -1 -109248 -1 0 1;
#X obj 149 166 moonlib/mknob 18 181 -45 45 0 0 \$0-pan_4 \$0-pan_4-set
empty -2 -6 0 8 -1 -27324 -1 18000 1;
#X obj 124 166 moonlib/mknob 18 181 -45 45 0 0 \$0-pan_3 \$0-pan_3-set
empty -2 -6 0 8 -1 -28088 -1 0 1;
#X obj 99 166 moonlib/mknob 18 181 -45 45 0 0 \$0-pan_2 \$0-pan_2-set
empty -2 -6 0 8 -1 -28068 -1 18000 1;
#X obj 74 166 moonlib/mknob 18 181 -45 45 0 0 \$0-pan_1 \$0-pan_1-set
empty -2 -6 0 8 -1 -24198 -1 0 1;
#X obj 149 575 ekext/sieve;
#X obj 511 526 ext13/kalashnikov 12;
#X obj 859 881 ext13/kalashnikov 12;
#X obj 714 895 ext13/kalashnikov 12;
#X obj 2271 73 ext13/kalashnikov 12;
#X obj 2278 541 ext13/kalashnikov 60;
#X obj 2261 754 ext13/kalashnikov 12;
#X obj 169 414 ext13/kalashnikov 12;
#X obj 3492 790 ggee/serialize 102;
#X obj 308 26 declare -lib moonlib -lib ekext -lib ext13 -lib ggee
;
#X obj 129 21 declare -lib zexy;
#X connect 0 0 1 0;
#X connect 1 0 2 0;
#X connect 1 0 29 0;
#X connect 1 0 31 0;
#X connect 1 0 69 0;
#X connect 1 0 79 0;
#X connect 1 0 84 0;
#X connect 2 0 926 0;
#X connect 3 0 4 0;
#X connect 4 0 5 0;
#X connect 4 0 32 0;
#X connect 4 0 33 0;
#X connect 4 0 70 0;
#X connect 4 0 80 0;
#X connect 4 0 85 0;
#X connect 5 0 928 0;
#X connect 6 0 7 0;
#X connect 7 0 8 0;
#X connect 7 0 36 0;
#X connect 7 0 37 0;
#X connect 7 0 71 0;
#X connect 7 0 81 0;
#X connect 7 0 86 0;
#X connect 8 0 929 0;
#X connect 9 0 10 0;
#X connect 10 0 11 0;
#X connect 10 0 38 0;
#X connect 10 0 39 0;
#X connect 10 0 72 0;
#X connect 10 0 82 0;
#X connect 10 0 87 0;
#X connect 11 0 930 0;
#X connect 12 0 13 0;
#X connect 13 0 14 0;
#X connect 13 0 44 0;
#X connect 13 0 45 0;
#X connect 13 0 73 0;
#X connect 13 0 83 0;
#X connect 13 0 88 0;
#X connect 14 0 931 0;
#X connect 15 0 1 1;
#X connect 16 0 486 0;
#X connect 17 0 4 1;
#X connect 18 0 487 0;
#X connect 19 0 7 1;
#X connect 20 0 488 0;
#X connect 21 0 10 1;
#X connect 22 0 489 0;
#X connect 23 0 13 1;
#X connect 24 0 490 0;
#X connect 25 0 26 0;
#X connect 28 0 29 1;
#X connect 29 0 48 0;
#X connect 30 0 31 1;
#X connect 31 0 50 0;
#X connect 32 0 48 0;
#X connect 33 0 50 0;
#X connect 34 0 32 1;
#X connect 35 0 33 1;
#X connect 36 0 48 0;
#X connect 37 0 50 0;
#X connect 38 0 48 0;
#X connect 39 0 50 0;
#X connect 40 0 36 1;
#X connect 41 0 37 1;
#X connect 42 0 38 1;
#X connect 43 0 39 1;
#X connect 44 0 48 0;
#X connect 45 0 50 0;
#X connect 46 0 44 1;
#X connect 47 0 45 1;
#X connect 48 0 52 0;
#X connect 49 0 501 0;
#X connect 50 0 53 0;
#X connect 51 0 502 0;
#X connect 54 0 249 0;
#X connect 61 0 325 1;
#X connect 62 0 61 0;
#X connect 63 0 956 0;
#X connect 63 1 61 1;
#X connect 64 0 926 1;
#X connect 65 0 928 1;
#X connect 66 0 929 1;
#X connect 67 0 930 1;
#X connect 68 0 931 1;
#X connect 69 0 99 0;
#X connect 70 0 99 0;
#X connect 71 0 99 0;
#X connect 72 0 99 0;
#X connect 73 0 99 0;
#X connect 74 0 69 1;
#X connect 75 0 70 1;
#X connect 76 0 71 1;
#X connect 77 0 72 1;
#X connect 78 0 73 1;
#X connect 79 0 100 0;
#X connect 80 0 100 0;
#X connect 81 0 100 0;
#X connect 82 0 100 0;
#X connect 83 0 100 0;
#X connect 84 0 105 0;
#X connect 85 0 105 0;
#X connect 86 0 105 0;
#X connect 87 0 105 0;
#X connect 88 0 105 0;
#X connect 89 0 79 1;
#X connect 90 0 84 1;
#X connect 91 0 80 1;
#X connect 92 0 85 1;
#X connect 93 0 81 1;
#X connect 94 0 86 1;
#X connect 95 0 82 1;
#X connect 96 0 87 1;
#X connect 97 0 83 1;
#X connect 98 0 88 1;
#X connect 99 0 101 0;
#X connect 100 0 102 0;
#X connect 103 0 503 0;
#X connect 104 0 504 0;
#X connect 105 0 106 0;
#X connect 107 0 505 0;
#X connect 108 0 109 0;
#X connect 109 0 110 0;
#X connect 109 0 111 0;
#X connect 109 0 112 0;
#X connect 109 0 113 0;
#X connect 109 0 114 0;
#X connect 109 0 115 0;
#X connect 110 0 932 0;
#X connect 111 0 48 0;
#X connect 112 0 50 0;
#X connect 113 0 99 0;
#X connect 114 0 100 0;
#X connect 115 0 105 0;
#X connect 116 0 109 1;
#X connect 117 0 491 0;
#X connect 118 0 111 1;
#X connect 119 0 112 1;
#X connect 120 0 113 1;
#X connect 121 0 114 1;
#X connect 122 0 115 1;
#X connect 123 0 932 1;
#X connect 124 0 125 0;
#X connect 125 0 126 0;
#X connect 125 0 139 0;
#X connect 125 0 140 0;
#X connect 125 0 149 0;
#X connect 125 0 154 0;
#X connect 125 0 159 0;
#X connect 126 0 933 0;
#X connect 127 0 128 0;
#X connect 128 0 129 0;
#X connect 128 0 141 0;
#X connect 128 0 142 0;
#X connect 128 0 150 0;
#X connect 128 0 155 0;
#X connect 128 0 160 0;
#X connect 129 0 934 0;
#X connect 130 0 131 0;
#X connect 131 0 132 0;
#X connect 131 0 143 0;
#X connect 131 0 144 0;
#X connect 131 0 151 0;
#X connect 131 0 156 0;
#X connect 131 0 161 0;
#X connect 132 0 935 0;
#X connect 133 0 134 0;
#X connect 134 0 135 0;
#X connect 134 0 145 0;
#X connect 134 0 146 0;
#X connect 134 0 152 0;
#X connect 134 0 157 0;
#X connect 134 0 162 0;
#X connect 135 0 936 0;
#X connect 136 0 137 0;
#X connect 137 0 138 0;
#X connect 137 0 147 0;
#X connect 137 0 148 0;
#X connect 137 0 153 0;
#X connect 137 0 158 0;
#X connect 137 0 163 0;
#X connect 138 0 937 0;
#X connect 139 0 48 0;
#X connect 140 0 50 0;
#X connect 141 0 48 0;
#X connect 142 0 50 0;
#X connect 143 0 48 0;
#X connect 144 0 50 0;
#X connect 145 0 48 0;
#X connect 146 0 50 0;
#X connect 147 0 48 0;
#X connect 148 0 50 0;
#X connect 149 0 99 0;
#X connect 150 0 99 0;
#X connect 151 0 99 0;
#X connect 152 0 99 0;
#X connect 153 0 99 0;
#X connect 154 0 100 0;
#X connect 155 0 100 0;
#X connect 156 0 100 0;
#X connect 157 0 100 0;
#X connect 158 0 100 0;
#X connect 159 0 105 0;
#X connect 160 0 105 0;
#X connect 161 0 105 0;
#X connect 162 0 105 0;
#X connect 163 0 105 0;
#X connect 164 0 165 0;
#X connect 165 0 166 0;
#X connect 165 0 167 0;
#X connect 165 0 168 0;
#X connect 165 0 169 0;
#X connect 165 0 170 0;
#X connect 165 0 171 0;
#X connect 166 0 938 0;
#X connect 167 0 48 0;
#X connect 168 0 50 0;
#X connect 169 0 99 0;
#X connect 170 0 100 0;
#X connect 171 0 105 0;
#X connect 172 0 125 1;
#X connect 173 0 492 0;
#X connect 174 0 933 1;
#X connect 175 0 139 1;
#X connect 176 0 140 1;
#X connect 177 0 149 1;
#X connect 178 0 154 1;
#X connect 179 0 159 1;
#X connect 180 0 128 1;
#X connect 181 0 493 0;
#X connect 182 0 934 1;
#X connect 183 0 141 1;
#X connect 184 0 142 1;
#X connect 185 0 150 1;
#X connect 186 0 155 1;
#X connect 187 0 160 1;
#X connect 188 0 131 1;
#X connect 189 0 494 0;
#X connect 190 0 935 1;
#X connect 191 0 143 1;
#X connect 192 0 144 1;
#X connect 193 0 151 1;
#X connect 194 0 156 1;
#X connect 195 0 161 1;
#X connect 196 0 134 1;
#X connect 197 0 495 0;
#X connect 198 0 936 1;
#X connect 199 0 145 1;
#X connect 200 0 146 1;
#X connect 201 0 152 1;
#X connect 202 0 157 1;
#X connect 203 0 162 1;
#X connect 204 0 137 1;
#X connect 205 0 496 0;
#X connect 206 0 937 1;
#X connect 207 0 147 1;
#X connect 208 0 148 1;
#X connect 209 0 153 1;
#X connect 210 0 158 1;
#X connect 211 0 163 1;
#X connect 212 0 165 1;
#X connect 213 0 497 0;
#X connect 214 0 938 1;
#X connect 215 0 167 1;
#X connect 216 0 168 1;
#X connect 217 0 169 1;
#X connect 218 0 170 1;
#X connect 219 0 171 1;
#X connect 249 0 55 0;
#X connect 249 1 223 0;
#X connect 249 2 56 0;
#X connect 249 3 57 0;
#X connect 249 4 220 0;
#X connect 249 5 221 0;
#X connect 249 6 222 0;
#X connect 249 7 224 0;
#X connect 249 8 225 0;
#X connect 249 9 226 0;
#X connect 249 10 227 0;
#X connect 249 11 228 0;
#X connect 249 12 229 0;
#X connect 249 13 230 0;
#X connect 249 14 231 0;
#X connect 249 15 232 0;
#X connect 249 16 233 0;
#X connect 249 17 234 0;
#X connect 249 18 235 0;
#X connect 249 19 236 0;
#X connect 249 20 237 0;
#X connect 249 21 238 0;
#X connect 249 22 239 0;
#X connect 249 23 240 0;
#X connect 249 24 241 0;
#X connect 249 25 242 0;
#X connect 249 26 243 0;
#X connect 249 27 244 0;
#X connect 249 28 245 0;
#X connect 249 29 246 0;
#X connect 249 30 247 0;
#X connect 249 31 248 0;
#X connect 249 32 250 0;
#X connect 250 0 282 0;
#X connect 250 1 281 0;
#X connect 250 2 280 0;
#X connect 250 3 279 0;
#X connect 250 4 278 0;
#X connect 250 5 277 0;
#X connect 250 6 276 0;
#X connect 250 7 275 0;
#X connect 250 8 274 0;
#X connect 250 9 273 0;
#X connect 250 10 272 0;
#X connect 250 11 271 0;
#X connect 250 12 270 0;
#X connect 250 13 269 0;
#X connect 250 14 268 0;
#X connect 250 15 267 0;
#X connect 250 16 266 0;
#X connect 250 17 265 0;
#X connect 250 18 264 0;
#X connect 250 19 263 0;
#X connect 250 20 262 0;
#X connect 250 21 261 0;
#X connect 250 22 260 0;
#X connect 250 23 259 0;
#X connect 250 24 258 0;
#X connect 250 25 257 0;
#X connect 250 26 256 0;
#X connect 250 27 255 0;
#X connect 250 28 254 0;
#X connect 250 29 253 0;
#X connect 250 30 252 0;
#X connect 250 31 251 0;
#X connect 250 32 283 0;
#X connect 283 0 315 0;
#X connect 283 1 314 0;
#X connect 283 2 313 0;
#X connect 283 3 312 0;
#X connect 283 4 311 0;
#X connect 283 5 310 0;
#X connect 283 6 309 0;
#X connect 283 7 308 0;
#X connect 283 8 307 0;
#X connect 283 9 306 0;
#X connect 283 10 305 0;
#X connect 283 11 304 0;
#X connect 283 12 303 0;
#X connect 283 13 302 0;
#X connect 283 14 301 0;
#X connect 283 15 300 0;
#X connect 283 16 299 0;
#X connect 283 17 298 0;
#X connect 283 18 297 0;
#X connect 283 19 296 0;
#X connect 283 20 295 0;
#X connect 283 21 294 0;
#X connect 283 22 293 0;
#X connect 283 23 292 0;
#X connect 283 24 291 0;
#X connect 283 25 290 0;
#X connect 283 26 289 0;
#X connect 283 27 288 0;
#X connect 283 28 287 0;
#X connect 283 29 286 0;
#X connect 283 30 285 0;
#X connect 283 31 284 0;
#X connect 283 32 369 0;
#X connect 319 0 320 0;
#X connect 320 0 321 0;
#X connect 321 0 326 0;
#X connect 322 0 323 0;
#X connect 323 0 326 1;
#X connect 324 0 319 0;
#X connect 324 1 322 0;
#X connect 324 2 62 0;
#X connect 325 0 328 0;
#X connect 326 0 327 0;
#X connect 327 0 325 0;
#X connect 329 0 63 0;
#X connect 330 0 339 0;
#X connect 331 0 351 0;
#X connect 331 0 952 0;
#X connect 332 0 333 0;
#X connect 333 0 335 0;
#X connect 333 1 334 0;
#X connect 334 0 336 1;
#X connect 335 0 336 0;
#X connect 336 0 337 0;
#X connect 337 0 249 0;
#X connect 338 0 329 0;
#X connect 339 0 249 0;
#X connect 340 0 341 0;
#X connect 341 0 344 0;
#X connect 342 0 957 0;
#X connect 342 1 343 0;
#X connect 343 0 344 1;
#X connect 344 0 328 0;
#X connect 345 0 346 0;
#X connect 346 0 349 0;
#X connect 347 0 348 0;
#X connect 348 0 350 0;
#X connect 351 0 352 0;
#X connect 353 0 355 0;
#X connect 353 0 345 0;
#X connect 353 1 354 0;
#X connect 353 1 347 0;
#X connect 356 0 353 2;
#X connect 357 0 358 0;
#X connect 359 0 357 0;
#X connect 359 0 351 0;
#X connect 360 0 353 3;
#X connect 361 0 373 0;
#X connect 361 1 366 0;
#X connect 361 2 362 0;
#X connect 362 0 363 0;
#X connect 363 0 364 0;
#X connect 363 1 365 1;
#X connect 364 0 365 1;
#X connect 365 0 375 1;
#X connect 366 0 365 0;
#X connect 367 0 955 0;
#X connect 367 1 366 1;
#X connect 368 0 484 0;
#X connect 369 0 58 0;
#X connect 369 1 59 0;
#X connect 369 2 316 0;
#X connect 369 3 317 0;
#X connect 369 4 318 0;
#X connect 369 5 60 0;
#X connect 369 6 329 0;
#X connect 369 7 342 0;
#X connect 369 8 370 0;
#X connect 369 9 506 0;
#X connect 371 0 375 0;
#X connect 373 0 371 0;
#X connect 374 0 339 0;
#X connect 375 0 372 0;
#X connect 484 0 367 0;
#X connect 486 0 2 1;
#X connect 487 0 5 1;
#X connect 488 0 8 1;
#X connect 489 0 11 1;
#X connect 490 0 14 1;
#X connect 491 0 110 1;
#X connect 492 0 126 1;
#X connect 493 0 129 1;
#X connect 494 0 132 1;
#X connect 495 0 135 1;
#X connect 496 0 138 1;
#X connect 497 0 166 1;
#X connect 501 0 48 1;
#X connect 502 0 50 1;
#X connect 503 0 99 1;
#X connect 504 0 100 1;
#X connect 505 0 105 1;
#X connect 506 0 482 0;
#X connect 506 1 508 0;
#X connect 508 0 485 0;
#X connect 508 1 498 0;
#X connect 508 2 500 0;
#X connect 508 3 507 0;
#X connect 508 4 509 0;
#X connect 508 5 669 0;
#X connect 510 0 339 0;
#X connect 511 0 369 0;
#X connect 512 0 511 0;
#X connect 513 0 514 0;
#X connect 514 0 516 0;
#X connect 514 1 515 1;
#X connect 515 0 517 0;
#X connect 516 0 515 0;
#X connect 516 1 534 1;
#X connect 517 0 518 0;
#X connect 518 0 958 0;
#X connect 518 1 520 1;
#X connect 519 0 531 0;
#X connect 519 1 520 0;
#X connect 520 0 533 0;
#X connect 521 0 530 0;
#X connect 522 0 523 0;
#X connect 523 0 525 0;
#X connect 523 1 524 0;
#X connect 524 0 526 1;
#X connect 525 0 526 0;
#X connect 526 0 527 0;
#X connect 527 0 951 0;
#X connect 528 0 532 0;
#X connect 530 0 529 0;
#X connect 531 0 951 0;
#X connect 532 0 951 0;
#X connect 533 0 534 0;
#X connect 534 0 530 1;
#X connect 535 0 560 0;
#X connect 536 0 560 0;
#X connect 537 0 560 0;
#X connect 538 0 536 1;
#X connect 539 0 538 1;
#X connect 540 0 535 0;
#X connect 540 1 536 0;
#X connect 541 0 540 0;
#X connect 541 1 539 0;
#X connect 541 1 537 1;
#X connect 542 0 592 0;
#X connect 543 0 592 0;
#X connect 544 0 592 0;
#X connect 545 0 543 1;
#X connect 546 0 545 1;
#X connect 547 0 542 0;
#X connect 547 1 543 0;
#X connect 548 0 547 0;
#X connect 548 1 546 0;
#X connect 548 1 544 1;
#X connect 549 0 557 0;
#X connect 550 0 557 0;
#X connect 551 0 557 0;
#X connect 552 0 550 1;
#X connect 553 0 552 1;
#X connect 554 0 549 0;
#X connect 554 1 550 0;
#X connect 555 0 554 0;
#X connect 555 1 553 0;
#X connect 555 1 551 1;
#X connect 556 0 552 0;
#X connect 558 0 549 1;
#X connect 558 0 551 0;
#X connect 559 0 538 0;
#X connect 561 0 535 1;
#X connect 561 0 537 0;
#X connect 562 0 585 0;
#X connect 563 0 585 0;
#X connect 564 0 585 0;
#X connect 565 0 563 1;
#X connect 566 0 565 1;
#X connect 567 0 562 0;
#X connect 567 1 563 0;
#X connect 568 0 567 0;
#X connect 568 1 566 0;
#X connect 568 1 564 1;
#X connect 569 0 588 0;
#X connect 570 0 588 0;
#X connect 571 0 588 0;
#X connect 572 0 570 1;
#X connect 573 0 572 1;
#X connect 574 0 569 0;
#X connect 574 1 570 0;
#X connect 575 0 574 0;
#X connect 575 1 573 0;
#X connect 575 1 571 1;
#X connect 576 0 587 0;
#X connect 577 0 587 0;
#X connect 578 0 587 0;
#X connect 579 0 577 1;
#X connect 580 0 579 1;
#X connect 581 0 576 0;
#X connect 581 1 577 0;
#X connect 582 0 581 0;
#X connect 582 1 580 0;
#X connect 582 1 578 1;
#X connect 583 0 562 1;
#X connect 583 0 564 0;
#X connect 584 0 565 0;
#X connect 586 0 579 0;
#X connect 589 0 569 1;
#X connect 589 0 571 0;
#X connect 590 0 576 1;
#X connect 590 0 578 0;
#X connect 591 0 572 0;
#X connect 593 0 542 1;
#X connect 593 0 544 0;
#X connect 594 0 545 0;
#X connect 595 0 596 0;
#X connect 596 0 541 0;
#X connect 596 1 548 0;
#X connect 596 2 555 0;
#X connect 596 3 568 0;
#X connect 596 4 575 0;
#X connect 596 5 582 0;
#X connect 597 0 599 0;
#X connect 597 1 598 0;
#X connect 598 0 600 0;
#X connect 599 0 603 0;
#X connect 599 0 611 0;
#X connect 600 0 601 0;
#X connect 600 1 602 0;
#X connect 601 0 605 1;
#X connect 602 0 605 1;
#X connect 603 0 605 0;
#X connect 605 0 604 0;
#X connect 606 0 953 0;
#X connect 606 1 954 0;
#X connect 607 0 608 0;
#X connect 607 0 615 0;
#X connect 608 0 609 0;
#X connect 609 0 604 0;
#X connect 610 0 606 0;
#X connect 611 0 612 0;
#X connect 612 0 613 0;
#X connect 613 0 614 0;
#X connect 615 0 616 0;
#X connect 616 0 618 0;
#X connect 618 0 617 0;
#X connect 619 0 620 0;
#X connect 620 0 621 0;
#X connect 620 0 622 0;
#X connect 621 0 623 0;
#X connect 622 0 624 0;
#X connect 623 0 630 0;
#X connect 624 0 631 0;
#X connect 625 0 626 0;
#X connect 626 0 627 0;
#X connect 626 0 628 0;
#X connect 627 0 629 0;
#X connect 628 0 629 0;
#X connect 629 0 632 0;
#X connect 630 0 372 0;
#X connect 631 0 372 0;
#X connect 632 0 372 0;
#X connect 633 0 634 0;
#X connect 634 0 635 0;
#X connect 634 0 636 0;
#X connect 634 1 635 1;
#X connect 634 1 637 0;
#X connect 635 0 619 0;
#X connect 636 0 625 0;
#X connect 637 0 636 1;
#X connect 638 0 648 0;
#X connect 638 1 639 0;
#X connect 639 0 661 0;
#X connect 640 0 639 0;
#X connect 641 0 640 0;
#X connect 642 0 644 0;
#X connect 642 0 670 0;
#X connect 642 0 666 0;
#X connect 642 0 676 1;
#X connect 642 0 675 1;
#X connect 642 1 788 0;
#X connect 643 0 639 0;
#X connect 644 0 645 1;
#X connect 645 0 646 0;
#X connect 645 0 666 0;
#X connect 645 0 676 1;
#X connect 645 0 675 1;
#X connect 645 0 683 0;
#X connect 646 0 639 0;
#X connect 647 0 639 0;
#X connect 648 0 645 0;
#X connect 648 1 647 0;
#X connect 648 2 643 0;
#X connect 649 0 651 0;
#X connect 649 1 650 0;
#X connect 649 1 678 0;
#X connect 650 0 639 0;
#X connect 651 0 639 0;
#X connect 652 0 653 0;
#X connect 653 0 665 0;
#X connect 653 0 27 0;
#X connect 654 0 639 0;
#X connect 655 0 639 0;
#X connect 656 0 639 0;
#X connect 657 0 658 0;
#X connect 658 0 659 0;
#X connect 658 0 27 0;
#X connect 659 0 660 0;
#X connect 660 0 639 0;
#X connect 661 0 642 0;
#X connect 662 0 663 0;
#X connect 663 0 640 0;
#X connect 663 1 664 0;
#X connect 664 0 639 0;
#X connect 665 0 656 0;
#X connect 665 1 655 0;
#X connect 665 2 654 0;
#X connect 665 3 664 0;
#X connect 666 0 667 0;
#X connect 668 0 649 0;
#X connect 669 0 649 0;
#X connect 669 1 665 0;
#X connect 670 0 683 0;
#X connect 671 0 673 0;
#X connect 672 0 674 0;
#X connect 673 0 680 0;
#X connect 674 0 675 0;
#X connect 675 0 679 0;
#X connect 676 0 677 0;
#X connect 677 0 681 0;
#X connect 678 0 674 1;
#X connect 678 0 673 1;
#X connect 679 0 676 0;
#X connect 680 0 676 0;
#X connect 682 0 649 0;
#X connect 785 0 684 0;
#X connect 785 1 692 0;
#X connect 785 2 685 0;
#X connect 785 3 686 0;
#X connect 785 4 689 0;
#X connect 785 5 690 0;
#X connect 785 6 691 0;
#X connect 785 7 693 0;
#X connect 785 8 694 0;
#X connect 785 9 695 0;
#X connect 785 10 696 0;
#X connect 785 11 697 0;
#X connect 785 12 698 0;
#X connect 785 13 699 0;
#X connect 785 14 700 0;
#X connect 785 15 701 0;
#X connect 785 16 702 0;
#X connect 785 17 703 0;
#X connect 785 18 704 0;
#X connect 785 19 705 0;
#X connect 785 20 706 0;
#X connect 785 21 707 0;
#X connect 785 22 708 0;
#X connect 785 23 709 0;
#X connect 785 24 710 0;
#X connect 785 25 711 0;
#X connect 785 26 712 0;
#X connect 785 27 713 0;
#X connect 785 28 714 0;
#X connect 785 29 715 0;
#X connect 785 30 716 0;
#X connect 785 31 717 0;
#X connect 786 0 749 0;
#X connect 786 1 748 0;
#X connect 786 2 747 0;
#X connect 786 3 746 0;
#X connect 786 4 745 0;
#X connect 786 5 744 0;
#X connect 786 6 743 0;
#X connect 786 7 742 0;
#X connect 786 8 741 0;
#X connect 786 9 740 0;
#X connect 786 10 739 0;
#X connect 786 11 738 0;
#X connect 786 12 737 0;
#X connect 786 13 736 0;
#X connect 786 14 735 0;
#X connect 786 15 734 0;
#X connect 786 16 733 0;
#X connect 786 17 732 0;
#X connect 786 18 731 0;
#X connect 786 19 730 0;
#X connect 786 20 729 0;
#X connect 786 21 728 0;
#X connect 786 22 727 0;
#X connect 786 23 726 0;
#X connect 786 24 725 0;
#X connect 786 25 724 0;
#X connect 786 26 723 0;
#X connect 786 27 722 0;
#X connect 786 28 721 0;
#X connect 786 29 720 0;
#X connect 786 30 719 0;
#X connect 786 31 718 0;
#X connect 787 0 781 0;
#X connect 787 1 780 0;
#X connect 787 2 779 0;
#X connect 787 3 778 0;
#X connect 787 4 777 0;
#X connect 787 5 776 0;
#X connect 787 6 775 0;
#X connect 787 7 774 0;
#X connect 787 8 773 0;
#X connect 787 9 772 0;
#X connect 787 10 771 0;
#X connect 787 11 770 0;
#X connect 787 12 769 0;
#X connect 787 13 768 0;
#X connect 787 14 767 0;
#X connect 787 15 766 0;
#X connect 787 16 765 0;
#X connect 787 17 764 0;
#X connect 787 18 763 0;
#X connect 787 19 762 0;
#X connect 787 20 761 0;
#X connect 787 21 760 0;
#X connect 787 22 759 0;
#X connect 787 23 758 0;
#X connect 787 24 757 0;
#X connect 787 25 756 0;
#X connect 787 26 755 0;
#X connect 787 27 754 0;
#X connect 787 28 753 0;
#X connect 787 29 752 0;
#X connect 787 30 751 0;
#X connect 787 31 750 0;
#X connect 788 0 789 0;
#X connect 788 1 910 0;
#X connect 789 0 790 0;
#X connect 789 1 787 0;
#X connect 790 0 785 0;
#X connect 790 1 786 0;
#X connect 791 0 908 4;
#X connect 792 0 908 3;
#X connect 793 0 908 2;
#X connect 794 0 908 1;
#X connect 795 0 796 1;
#X connect 796 0 908 0;
#X connect 797 0 796 0;
#X connect 798 0 834 0;
#X connect 799 0 836 0;
#X connect 800 0 909 0;
#X connect 801 0 833 15;
#X connect 802 0 833 14;
#X connect 803 0 833 13;
#X connect 804 0 833 12;
#X connect 805 0 833 11;
#X connect 806 0 833 10;
#X connect 807 0 833 9;
#X connect 808 0 833 8;
#X connect 809 0 833 7;
#X connect 810 0 833 6;
#X connect 811 0 833 5;
#X connect 812 0 833 4;
#X connect 813 0 833 3;
#X connect 814 0 833 2;
#X connect 815 0 833 1;
#X connect 816 0 834 1;
#X connect 817 0 833 31;
#X connect 818 0 833 30;
#X connect 819 0 833 29;
#X connect 820 0 833 28;
#X connect 821 0 833 27;
#X connect 822 0 833 26;
#X connect 823 0 833 25;
#X connect 824 0 833 24;
#X connect 825 0 833 23;
#X connect 826 0 833 22;
#X connect 827 0 833 21;
#X connect 828 0 833 20;
#X connect 829 0 833 19;
#X connect 830 0 833 18;
#X connect 831 0 833 17;
#X connect 832 0 833 16;
#X connect 833 0 903 0;
#X connect 834 0 833 0;
#X connect 835 0 903 0;
#X connect 836 0 835 0;
#X connect 837 0 835 16;
#X connect 838 0 835 17;
#X connect 839 0 835 18;
#X connect 840 0 835 19;
#X connect 841 0 835 20;
#X connect 842 0 835 21;
#X connect 843 0 835 22;
#X connect 844 0 835 23;
#X connect 845 0 835 24;
#X connect 846 0 835 25;
#X connect 847 0 835 26;
#X connect 848 0 835 27;
#X connect 849 0 835 28;
#X connect 850 0 835 29;
#X connect 851 0 835 30;
#X connect 852 0 835 31;
#X connect 853 0 835 15;
#X connect 854 0 835 14;
#X connect 855 0 835 13;
#X connect 856 0 835 12;
#X connect 857 0 835 11;
#X connect 858 0 835 10;
#X connect 859 0 835 9;
#X connect 860 0 835 8;
#X connect 861 0 835 7;
#X connect 862 0 835 6;
#X connect 863 0 835 5;
#X connect 864 0 835 4;
#X connect 865 0 835 3;
#X connect 866 0 835 2;
#X connect 867 0 835 1;
#X connect 868 0 836 1;
#X connect 869 0 903 0;
#X connect 870 0 869 0;
#X connect 871 0 869 31;
#X connect 872 0 869 30;
#X connect 873 0 869 29;
#X connect 874 0 869 28;
#X connect 875 0 869 27;
#X connect 876 0 869 26;
#X connect 877 0 869 25;
#X connect 878 0 869 24;
#X connect 879 0 869 23;
#X connect 880 0 869 22;
#X connect 881 0 869 21;
#X connect 882 0 869 20;
#X connect 883 0 869 19;
#X connect 884 0 869 18;
#X connect 885 0 869 17;
#X connect 886 0 869 16;
#X connect 887 0 869 15;
#X connect 888 0 869 14;
#X connect 889 0 869 13;
#X connect 890 0 869 12;
#X connect 891 0 869 11;
#X connect 892 0 869 10;
#X connect 893 0 869 9;
#X connect 894 0 869 8;
#X connect 895 0 869 7;
#X connect 896 0 869 6;
#X connect 897 0 869 5;
#X connect 898 0 869 4;
#X connect 899 0 869 3;
#X connect 900 0 869 2;
#X connect 901 0 869 1;
#X connect 902 0 870 1;
#X connect 903 0 959 0;
#X connect 904 0 638 0;
#X connect 905 0 799 0;
#X connect 905 0 798 0;
#X connect 905 0 797 0;
#X connect 905 0 870 0;
#X connect 907 0 908 5;
#X connect 908 0 903 0;
#X connect 909 0 910 0;
#X connect 910 0 687 0;
#X connect 910 1 688 0;
#X connect 910 2 782 0;
#X connect 910 3 783 0;
#X connect 910 4 784 0;
#X connect 910 5 911 0;
#X connect 912 0 913 0;
#X connect 912 0 914 0;
#X connect 912 0 915 0;
#X connect 912 0 916 0;
#X connect 912 0 917 0;
#X connect 912 0 918 0;
#X connect 912 0 919 0;
#X connect 912 0 920 0;
#X connect 912 0 921 0;
#X connect 912 0 922 0;
#X connect 912 0 924 0;
#X connect 912 0 925 0;
#X connect 923 0 912 0;
#X connect 926 0 353 0;
#X connect 926 1 353 1;
#X connect 928 0 353 0;
#X connect 928 1 353 1;
#X connect 929 0 353 0;
#X connect 929 1 353 1;
#X connect 930 0 353 0;
#X connect 930 1 353 1;
#X connect 931 0 353 0;
#X connect 931 1 353 1;
#X connect 932 0 353 0;
#X connect 932 1 353 1;
#X connect 933 0 353 0;
#X connect 933 1 353 1;
#X connect 934 0 353 0;
#X connect 934 1 353 1;
#X connect 935 0 353 0;
#X connect 935 1 353 1;
#X connect 936 0 353 0;
#X connect 936 1 353 1;
#X connect 937 0 353 0;
#X connect 937 1 353 1;
#X connect 938 0 353 0;
#X connect 938 1 353 1;
#X connect 951 0 521 0;
#X connect 952 1 332 0;
#X connect 953 1 597 0;
#X connect 954 1 607 0;
#X connect 955 1 361 0;
#X connect 956 1 324 0;
#X connect 957 1 340 0;
#X connect 958 1 519 0;
#X connect 959 0 904 0;
#X coords 0 -1 1 1 446 120 1 70 70;
