#N canvas 3 89 1274 627 10;
#X declare -lib moonlib -lib ekext -lib ext13 -lib ggee;
#X declare -lib zexy;
#X obj 742 14 inlet~;
#X obj 742 55 *~;
#X obj 742 115 *~;
#X obj 851 14 inlet~;
#X obj 851 55 *~;
#X obj 851 115 *~;
#X obj 758 35 r \$0-1_in;
#X obj 758 75 r \$0-1_in_vol;
#X obj 867 35 r \$0-2_in;
#X obj 867 75 r \$0-2_in_vol;
#N canvas 405 358 840 439 patches 0;
#X obj 21 94 t b a;
#X obj 93 181 msgfile;
#X msg 174 151 add patches 0;
#X obj 171 113 loadbang;
#X obj 83 290 route patches;
#X msg 108 100 goto 0;
#X obj 36 159 + 1;
#X obj 20 176 f;
#X msg 20 229 replace patches \$1;
#X msg 71 150 this;
#X obj 20 124 t b b b;
#X obj 348 79 t b f;
#X msg 363 103 goto \$1;
#X msg 328 102 this;
#X obj 455 113 r \$0-patches_load;
#X obj 455 130 openpanel;
#X msg 529 164 read \$1;
#X msg 485 164 goto 0;
#X msg 455 164 this;
#X obj 635 43 r \$0-patches_save;
#X obj 635 71 savepanel;
#X obj 634 100 makesymbol %s.txt;
#X msg 630 124 write \$1;
#X obj 101 268 route list;
#X obj 189 67 r \$0-patches_clear;
#X obj 189 83 t b b;
#X msg 361 140 clear;
#X obj 455 147 t b b a b;
#X obj 399 22 inlet;
#X obj 737 302 outlet;
#X msg 87 363 range 1 \$1;
#X obj 87 385 s \$0-patch-range;
#X obj 417 75 r \$0-patch-set;
#X obj 375 46 route patch file;
#N canvas 181 50 1231 680 sort 0;
#X obj 39 366 s \$0-1_in_vol-set;
#X obj 60 332 s \$0-1_fx_1-set;
#X obj 71 315 s \$0-1_fx_2-set;
#X obj 1242 182 s \$0-fx_1_vol-set;
#X obj 1264 165 s \$0-fx_2_vol-set;
#X obj 82 298 s \$0-1_fx_3-set;
#X obj 93 281 s \$0-1_fx_4-set;
#X obj 104 264 s \$0-1_fx_5-set;
#X obj 49 349 s \$0-pan_1-set;
#X obj 115 247 s \$0-1_in-set;
#X obj 126 226 s \$0-2_in_vol-set;
#X obj 137 209 s \$0-pan_2-set;
#X obj 148 192 s \$0-2_fx_1-set;
#X obj 159 175 s \$0-2_fx_2-set;
#X obj 170 158 s \$0-2_fx_3-set;
#X obj 181 141 s \$0-2_fx_4-set;
#X obj 192 124 s \$0-2_fx_5-set;
#X obj 203 107 s \$0-2_in-set;
#X obj 1284 148 s \$0-fx_3_vol-set;
#X obj 1306 131 s \$0-fx_4_vol-set;
#X obj 1323 114 s \$0-fx_5_vol-set;
#X obj 1185 15 inlet;
#X obj 1259 11 loadbang;
#X obj 19 714 f;
#X obj 198 435 r \$0-2_in;
#X obj 187 452 r \$0-2_fx_5;
#X obj 176 469 r \$0-2_fx_4;
#X obj 165 486 r \$0-2_fx_3;
#X obj 154 503 r \$0-2_fx_2;
#X obj 143 520 r \$0-2_fx_1;
#X obj 132 537 r \$0-pan_2;
#X obj 121 554 r \$0-2_in_vol;
#X obj 110 575 r \$0-1_in;
#X obj 99 592 r \$0-1_fx_5;
#X obj 88 609 r \$0-1_fx_4;
#X obj 77 626 r \$0-1_fx_3;
#X obj 66 643 r \$0-1_fx_2;
#X obj 55 660 r \$0-1_fx_1;
#X obj 44 677 r \$0-pan_1;
#X obj 34 694 r \$0-1_in_vol;
#X obj 31 772 prepend add;
#X obj 31 793 outlet;
#X obj 806 393 r \$0-store_patch;
#X msg 1259 33 100 100 100 100 100 20;
#X obj 1242 60 unpack f f f f f f;
#X obj 1351 97 s \$0-fadetime-set;
#X obj 1185 39 niagara 16;
#X obj 39 60 unpack f f f f f f f f f f f f f f f f;
#X obj 246 543 r \$0-fx_5_vol;
#X obj 225 560 r \$0-fx_4_vol;
#X obj 205 577 r \$0-fx_3_vol;
#X obj 185 594 r \$0-fx_2_vol;
#X obj 171 611 r \$0-fx_1_vol;
#X obj 264 635 r \$0-fadetime;
#X obj 32 736 pack f f f f f f f f f f f f f f f f f f f f f f;
#X connect 21 0 46 0;
#X connect 22 0 43 0;
#X connect 23 0 54 0;
#X connect 24 0 54 15;
#X connect 25 0 54 14;
#X connect 26 0 54 13;
#X connect 27 0 54 12;
#X connect 28 0 54 11;
#X connect 29 0 54 10;
#X connect 30 0 54 9;
#X connect 31 0 54 8;
#X connect 32 0 54 7;
#X connect 33 0 54 6;
#X connect 34 0 54 5;
#X connect 35 0 54 4;
#X connect 36 0 54 3;
#X connect 37 0 54 2;
#X connect 38 0 54 1;
#X connect 39 0 23 1;
#X connect 40 0 41 0;
#X connect 42 0 23 0;
#X connect 43 0 44 0;
#X connect 44 0 3 0;
#X connect 44 1 4 0;
#X connect 44 2 18 0;
#X connect 44 3 19 0;
#X connect 44 4 20 0;
#X connect 44 5 45 0;
#X connect 46 0 47 0;
#X connect 46 1 44 0;
#X connect 47 0 0 0;
#X connect 47 1 8 0;
#X connect 47 2 1 0;
#X connect 47 3 2 0;
#X connect 47 4 5 0;
#X connect 47 5 6 0;
#X connect 47 6 7 0;
#X connect 47 7 9 0;
#X connect 47 8 10 0;
#X connect 47 9 11 0;
#X connect 47 10 12 0;
#X connect 47 11 13 0;
#X connect 47 12 14 0;
#X connect 47 13 15 0;
#X connect 47 14 16 0;
#X connect 47 15 17 0;
#X connect 48 0 54 20;
#X connect 49 0 54 19;
#X connect 50 0 54 18;
#X connect 51 0 54 17;
#X connect 52 0 54 16;
#X connect 53 0 54 21;
#X connect 54 0 40 0;
#X restore 215 194 pd sort;
#X floatatom 223 339 5 0 0 0 - - -;
#X obj 454 241 r \$0-store_plus;
#X obj 338 241 r \$0-store_minus;
#X obj 454 265 f;
#X obj 338 275 f;
#X obj 338 295 +;
#X obj 355 354 %;
#X obj 355 374 + 1;
#X obj 405 267 - 1;
#X obj 338 316 - 1;
#X obj 454 286 + 1;
#X obj 349 395 s \$0-patch-set;
#X obj 278 23 r \$0-patch-num;
#X obj 196 384 s \$0-patches-num;
#X connect 0 0 10 0;
#X connect 0 1 1 0;
#X connect 1 0 23 0;
#X connect 2 0 1 0;
#X connect 3 0 2 0;
#X connect 4 0 6 0;
#X connect 4 0 35 0;
#X connect 4 0 30 0;
#X connect 4 0 41 1;
#X connect 4 0 40 1;
#X connect 4 1 34 0;
#X connect 5 0 1 0;
#X connect 6 0 7 1;
#X connect 7 0 8 0;
#X connect 7 0 30 0;
#X connect 7 0 41 1;
#X connect 7 0 40 1;
#X connect 7 0 48 0;
#X connect 8 0 1 0;
#X connect 9 0 1 0;
#X connect 10 0 7 0;
#X connect 10 1 9 0;
#X connect 10 2 5 0;
#X connect 11 0 13 0;
#X connect 11 1 12 0;
#X connect 11 1 43 0;
#X connect 12 0 1 0;
#X connect 13 0 1 0;
#X connect 14 0 15 0;
#X connect 15 0 27 0;
#X connect 15 0 29 0;
#X connect 16 0 1 0;
#X connect 17 0 1 0;
#X connect 18 0 1 0;
#X connect 19 0 20 0;
#X connect 20 0 21 0;
#X connect 20 0 29 0;
#X connect 21 0 22 0;
#X connect 22 0 1 0;
#X connect 23 0 4 0;
#X connect 24 0 25 0;
#X connect 25 0 2 0;
#X connect 25 1 26 0;
#X connect 26 0 1 0;
#X connect 27 0 18 0;
#X connect 27 1 17 0;
#X connect 27 2 16 0;
#X connect 27 3 26 0;
#X connect 28 0 33 0;
#X connect 30 0 31 0;
#X connect 32 0 11 0;
#X connect 33 0 11 0;
#X connect 33 1 27 0;
#X connect 34 0 0 0;
#X connect 35 0 48 0;
#X connect 36 0 38 0;
#X connect 37 0 39 0;
#X connect 38 0 45 0;
#X connect 39 0 40 0;
#X connect 40 0 44 0;
#X connect 41 0 42 0;
#X connect 42 0 46 0;
#X connect 43 0 39 1;
#X connect 43 0 38 1;
#X connect 44 0 41 0;
#X connect 45 0 41 0;
#X connect 47 0 11 0;
#X restore 2205 491 pd patches;
#X obj 2038 491 bng 15 250 50 0 empty empty empty 0 -6 0 8 -262144
-1 -1;
#X obj 2035 516 s \$0-patches_clear;
#X obj 2205 599 outlet;
#X obj 568 211 r \$0-1_fx_1;
#X obj 553 305 *~;
#X obj 593 228 r \$0-1_fx_2;
#X obj 578 305 *~;
#X obj 694 305 *~;
#X obj 719 305 *~;
#X obj 709 211 r \$0-2_fx_1;
#X obj 734 228 r \$0-2_fx_2;
#X obj 1416 412 *~;
#X obj 1432 372 r \$0-fx_1_vol;
#X obj 1554 412 *~;
#X obj 1570 372 r \$0-fx_2_vol;
#X obj 1416 432 outlet~;
#X obj 1554 432 outlet~;
#X obj 2175 464 inlet;
#X obj 839 836 s \$0-1_in_vol-set;
#X obj 860 802 s \$0-1_fx_1-set;
#X obj 871 785 s \$0-1_fx_2-set;
#X obj 2067 838 s \$0-fx_1_vol-set;
#X obj 2089 821 s \$0-fx_2_vol-set;
#X obj 2219 834 s \$0-max-bng;
#X obj 2379 629 < 50;
#X obj 2379 609 random 100;
#X obj 2278 521 t b f;
#N canvas 5 94 450 300 init_pan 0;
#X msg 32 41 0;
#X obj 32 253 s \$0-pan_1-set;
#X obj 46 236 s \$0-pan_2-set;
#X obj 32 18 loadbang;
#X connect 0 0 1 0;
#X connect 0 0 2 0;
#X connect 3 0 0 0;
#X restore 82 27 pd init_pan;
#X obj 769 124 r \$0-pan_1;
#X obj 878 123 r \$0-pan_2;
#X obj 603 305 *~;
#X obj 744 305 *~;
#X obj 618 245 r \$0-1_fx_3;
#X obj 759 245 r \$0-2_fx_3;
#X obj 628 305 *~;
#X obj 769 305 *~;
#X obj 653 305 *~;
#X obj 794 305 *~;
#X obj 643 262 r \$0-1_fx_4;
#X obj 668 279 r \$0-1_fx_5;
#X obj 784 262 r \$0-2_fx_4;
#X obj 809 279 r \$0-2_fx_5;
#X obj 1695 412 *~;
#X obj 1833 412 *~;
#X obj 1695 432 outlet~;
#X obj 1833 432 outlet~;
#X obj 1711 372 r \$0-fx_3_vol;
#X obj 1849 372 r \$0-fx_4_vol;
#X obj 1973 412 *~;
#X obj 1973 432 outlet~;
#X obj 1989 372 r \$0-fx_5_vol;
#X obj 882 768 s \$0-1_fx_3-set;
#X obj 893 751 s \$0-1_fx_4-set;
#X obj 904 734 s \$0-1_fx_5-set;
#X obj 849 819 s \$0-pan_1-set;
#X obj 915 717 s \$0-1_in-set;
#X obj 926 696 s \$0-2_in_vol-set;
#X obj 937 679 s \$0-pan_2-set;
#X obj 948 662 s \$0-2_fx_1-set;
#X obj 959 645 s \$0-2_fx_2-set;
#X obj 970 628 s \$0-2_fx_3-set;
#X obj 981 611 s \$0-2_fx_4-set;
#X obj 992 594 s \$0-2_fx_5-set;
#X obj 1003 577 s \$0-2_in-set;
#X obj 2109 804 s \$0-fx_3_vol-set;
#X obj 2131 787 s \$0-fx_4_vol-set;
#X obj 2148 770 s \$0-fx_5_vol-set;
#X obj 2297 586 / 5;
#X obj 2297 603 i;
#X obj 2297 620 + 1;
#X obj 2332 585 % 5;
#X obj 2332 602 + 1;
#X obj 2318 561 t f f b;
#X obj 2369 705 pack s f;
#X obj 2283 652 pack f f;
#X obj 2283 672 makesymbol a%sa%s;
#X obj 2379 737 s \$0-randroute;
#X obj 2234 534 50;
#X obj 840 435 r \$0-randroute;
#X obj 640 454 r \$0-max;
#X obj 629 550 + 1;
#X obj 629 572 t f f;
#X obj 658 601 makefilename v%d;
#X obj 531 601 makefilename in%d;
#X obj 619 629 pack s s;
#X msg 618 655 \$1 1 \, \$2 100;
#X obj 2162 604 bng 15 250 50 0 empty empty empty 0 -6 0 10 -262144
-1 -1;
#X obj 840 496 route list;
#X obj 2301 776 + 1;
#X obj 2301 803 makefilename in%d;
#X obj 2258 735 t b b;
#X obj 2346 778 tgl 15 0 empty empty empty 0 -6 0 10 -262144 -1 -1
0 1;
#X obj 2303 826 pack s f;
#X obj 1092 249 env~;
#X obj 1092 269 - 100;
#X obj 1092 309 s \$0-level_R_mod;
#X msg 682 482 100;
#X obj 700 513 s \$0-out_dB-set;
#N canvas 6 75 450 300 limiting 0;
#X obj 83 31 inlet~;
#X obj 190 30 inlet~;
#N canvas 3 50 450 300 limiter 0;
#X obj 94 74 inlet~;
#X obj 203 71 inlet~;
#X obj 329 64 inlet;
#X obj 329 115 switch~;
#X obj 119 143 limiter~ 10 2;
#X obj 94 189 z~ 64;
#X obj 203 187 z~ 64;
#X obj 94 209 *~;
#X obj 203 207 *~;
#X obj 94 230 outlet~;
#X obj 203 228 outlet~;
#X connect 0 0 4 0;
#X connect 0 0 5 0;
#X connect 1 0 4 1;
#X connect 1 0 6 0;
#X connect 2 0 3 0;
#X connect 4 0 7 1;
#X connect 4 0 8 1;
#X connect 5 0 7 0;
#X connect 6 0 8 0;
#X connect 7 0 9 0;
#X connect 8 0 10 0;
#X restore 136 175 pd limiter;
#X obj 130 137 *~ 0;
#X obj 170 137 *~ 0;
#X obj 40 137 *~ 1;
#X obj 80 137 *~ 1;
#X obj 53 231 outlet~;
#X obj 113 230 outlet~;
#X obj 274 64 inlet;
#X obj 198 91 == 0;
#X obj 368 44 inlet;
#X obj 73 81 *~;
#X obj 142 86 *~;
#X obj 238 33 pack f 20;
#X obj 226 58 line~;
#X obj 364 69 dbtorms;
#X obj 304 18 r \$0-fadetime;
#X connect 0 0 12 0;
#X connect 1 0 13 0;
#X connect 2 0 7 0;
#X connect 2 1 8 0;
#X connect 3 0 2 0;
#X connect 4 0 2 1;
#X connect 5 0 7 0;
#X connect 6 0 8 0;
#X connect 9 0 2 2;
#X connect 9 0 4 1;
#X connect 9 0 3 1;
#X connect 9 0 10 0;
#X connect 10 0 5 1;
#X connect 10 0 6 1;
#X connect 11 0 16 0;
#X connect 12 0 5 0;
#X connect 12 0 3 0;
#X connect 13 0 6 0;
#X connect 13 0 4 0;
#X connect 14 0 15 0;
#X connect 15 0 13 1;
#X connect 15 0 12 1;
#X connect 16 0 14 0;
#X connect 17 0 14 1;
#X restore 875 183 pd limiting;
#X obj 965 206 outlet~;
#X obj 815 207 outlet~;
#X obj 917 142 r \$0-limit;
#X msg 380 461 0;
#X obj 373 501 s \$0-limit;
#X obj 382 428 loadbang;
#X obj 938 160 r \$0-out_dB-num;
#X obj 2311 93 t f b b;
#X obj 2405 117 random 2;
#X obj 2405 138 sel 0;
#X msg 2405 159 -1;
#X obj 2330 135 *;
#X obj 2330 115 random 46;
#X obj 2271 53 t b f;
#X obj 2271 11 r \$0-randpan;
#X obj 2008 716 route aux1 aux2 aux3 aux4 aux5 max randroute allin
randpan;
#X obj 2296 735 s \$0-randpan;
#X obj 2256 164 makefilename p%d;
#X obj 2303 222 s \$0-panroute;
#X obj 2255 141 + 1;
#X obj 935 498 r \$0-panroute;
#X obj 2302 197 pack s f;
#X obj 71 87 cnv 15 190 100 empty empty empty 302 6 0 8 -203904 -4160
0;
#X obj 121 73 cnv 15 140 110 empty empty empty 232 9 0 8 -203904 -4160
0;
#X obj 73 89 tgl 15 0 \$0-1_in \$0-1_in-set empty 0 -6 0 8 -24198 -42246
-42246 1 1;
#X obj 98 89 tgl 15 0 \$0-2_in \$0-2_in-set empty 0 -6 0 8 -28068 -1109
-1109 1 1;
#X obj 73 109 vsl 15 51 0 100 0 0 \$0-1_in_vol \$0-1_in_vol-set empty
0 -8 0 8 -24198 -42246 -42246 5000 0;
#X obj 98 109 vsl 15 51 0 100 0 0 \$0-2_in_vol \$0-2_in_vol-set empty
0 -8 0 8 -28068 -42246 -42246 5000 0;
#X obj 88 107 tgl 8 0 \$0-1_fx_1 \$0-1_fx_1-set f 2 -11 0 8 -211520
-90133 -90133 0 1;
#X obj 88 118 tgl 8 0 \$0-1_fx_2 \$0-1_fx_2-set x 2 -16 0 8 -260524
-143491 -143491 0 1;
#X obj 123 100 vsl 12 57 0 112 0 0 \$0-fx_1_vol \$0-fx_1_vol-set 1
3 -8 0 8 -211520 -90133 -90133 5000 0;
#X obj 138 100 vsl 12 57 0 112 0 0 \$0-fx_2_vol \$0-fx_2_vol-set 2
3 -8 0 8 -260525 -143491 -143491 5000 0;
#X obj 113 107 tgl 8 0 \$0-2_fx_1 \$0-2_fx_1-set f 2 -11 0 8 -211520
-90133 -90133 0 1;
#X obj 113 118 tgl 8 0 \$0-2_fx_2 \$0-2_fx_2-set x 2 -16 0 8 -260524
-143491 -143491 0 1;
#X obj 217 113 bng 12 250 50 0 \$0-max \$0-max-bng all -1 -5 0 8 -1
-262131 -86277;
#X obj 88 129 tgl 8 0 \$0-1_fx_3 \$0-1_fx_3-set empty 2 -11 0 8 -262113
-83269 -83269 0 1;
#X obj 88 140 tgl 8 0 \$0-1_fx_4 \$0-1_fx_4-set empty 2 -16 0 8 -53169
-13330 -13330 0 1;
#X obj 113 129 tgl 8 0 \$0-2_fx_3 \$0-2_fx_3-set empty 2 -11 0 8 -262113
-83269 -83269 0 1;
#X obj 113 140 tgl 8 0 \$0-2_fx_4 \$0-2_fx_4-set empty 2 -16 0 8 -53169
-13330 -13330 0 1;
#X obj 153 100 vsl 12 57 0 112 0 0 \$0-fx_3_vol \$0-fx_3_vol-set 3
3 -8 0 8 -262113 -83269 -83269 5000 0;
#X obj 168 100 vsl 12 57 0 112 0 0 \$0-fx_4_vol \$0-fx_4_vol-set 4
3 -8 0 8 -53169 -13330 -13330 5000 0;
#X obj 88 151 tgl 8 0 \$0-1_fx_5 \$0-1_fx_5-set empty 2 -16 0 8 -162368
-16662 -16662 0 1;
#X obj 113 151 tgl 8 0 \$0-2_fx_5 \$0-2_fx_5-set empty 2 -16 0 8 -162368
-16662 -16662 0 1;
#X obj 183 100 vsl 12 57 0 112 0 0 \$0-fx_5_vol \$0-fx_5_vol-set 5
3 -8 0 8 -162368 -16662 -16662 5000 0;
#X obj 199 91 vsl 12 57 0 112 0 0 \$0-out_dB \$0-out_dB-set out -2
-9 1 10 -86277 -261234 -86277 5600 1;
#X obj 199 151 nbx 3 10 0 112 0 0 \$0-out_dB-num \$0-out_dB empty 0
-8 0 8 -86277 -261234 -1 112 256;
#X obj 120 163 cnv 15 141 24 empty empty empty 20 12 0 14 -183672 -66577
0;
#X obj 122 173 nbx 3 12 0 120 0 0 empty empty empty -2 -6 0 7 -257472
-1109 -90133 0 256;
#X obj 164 173 nbx 3 12 1 2 0 0 \$0-patch-num \$0-patch-set select
0 -5 0 7 -17235 -261234 -17235 1 256;
#X obj 209 173 bng 12 250 50 0 \$0-store_patch \$0-store_patch-bng
store -3 -5 0 7 -17235 -262130 -17235;
#X obj 230 168 bng 10 250 50 0 \$0-patches_load \$0-patches_load-bng
load -5 16 0 7 -2498 -262144 -13381;
#X obj 243 168 bng 10 250 50 0 \$0-patches_save \$0-patches_save-bng
save 0 16 0 7 -159809 -262144 -86277;
#X obj 122 173 nbx 3 12 0 120 0 0 \$0-patches-dummy \$0-patches-num
patches 0 -5 0 7 -17235 -203904 -17235 0 256;
#X obj 195 177 bng 8 250 50 0 \$0-store_plus \$0-store_plus-bng + 2
-4 0 7 -17235 -198336 -17235;
#X obj 153 177 bng 8 250 50 0 \$0-store_minus \$0-store_minus-bng -
1 -5 0 10 -17235 -257985 -17235;
#X obj 236 82 vu 8 80 \$0-level_L_mod empty -1 -8 0 8 -1 -1 0 0;
#X obj 249 82 vu 8 80 \$0-level_R_mod empty -1 -8 0 8 -1 -1 0 0;
#X obj 217 135 tgl 12 0 \$0-limit \$0-limit-set limit -4 -4 0 7 -86277
-261234 -86277 0 1;
#X obj 2130 687 s \$0-stpan-set;
#X obj 217 89 tgl 12 0 \$0-stpan \$0-stpan-set pan -1 -6 0 8 -45076
-232576 -45076 0 1;
#X obj 2271 32 15;
#X obj 2032 682 s \$0-limit-set;
#N canvas 0 50 450 300 dbtoline 0;
#X obj 107 45 inlet;
#X obj 107 66 dbtorms;
#X obj 107 87 pack f 20;
#X obj 107 107 line~;
#X obj 107 127 outlet~;
#X obj 158 66 r \$0-fadetime;
#X connect 0 0 1 0;
#X connect 1 0 2 0;
#X connect 2 0 3 0;
#X connect 3 0 4 0;
#X connect 5 0 2 1;
#X restore 758 95 pd dbtoline;
#N canvas 3 89 450 300 dbtoline 0;
#X obj 107 45 inlet;
#X obj 107 66 dbtorms;
#X obj 107 87 pack f 20;
#X obj 107 107 line~;
#X obj 107 127 outlet~;
#X obj 158 66 r \$0-fadetime;
#X connect 0 0 1 0;
#X connect 1 0 2 0;
#X connect 2 0 3 0;
#X connect 3 0 4 0;
#X connect 5 0 2 1;
#X restore 867 95 pd dbtoline;
#N canvas 3 94 450 300 setpan 0;
#X obj 102 106 - 1;
#X obj 102 129 * 2;
#X obj 102 159 + 1;
#X obj 134 159 + 2;
#X obj 41 187 makefilename p%d;
#X obj 148 188 makefilename p%d;
#X obj 242 106 - 1;
#X obj 242 129 * 2;
#X obj 242 159 + 1;
#X obj 274 159 + 2;
#X obj 254 187 makefilename p%d;
#X obj 40 220 pack s -45;
#X obj 145 219 pack s 45;
#X obj 256 223 pack s 0;
#X obj 155 253 outlet;
#X obj 150 9 r \$0-stchan;
#X obj 150 28 unpack f f;
#X obj 130 68 spigot;
#X obj 174 68 spigot;
#X obj 207 48 == 0;
#X connect 0 0 1 0;
#X connect 1 0 2 0;
#X connect 1 0 3 0;
#X connect 2 0 4 0;
#X connect 3 0 5 0;
#X connect 4 0 11 0;
#X connect 5 0 12 0;
#X connect 6 0 7 0;
#X connect 7 0 8 0;
#X connect 7 0 9 0;
#X connect 8 0 10 0;
#X connect 9 0 10 0;
#X connect 10 0 13 0;
#X connect 11 0 14 0;
#X connect 12 0 14 0;
#X connect 13 0 14 0;
#X connect 15 0 16 0;
#X connect 16 0 17 0;
#X connect 16 0 18 0;
#X connect 16 1 17 1;
#X connect 16 1 19 0;
#X connect 17 0 0 0;
#X connect 18 0 6 0;
#X connect 19 0 18 1;
#X restore 2375 202 pd setpan;
#X obj 2121 665 s \$0-stchan;
#X obj 124 75 nbx 5 10 5 99999 1 0 \$0-fadetime \$0-fadetime-set t
55 5 1 10 -188403 -13381 -13381 20 256;
#X obj 2045 577 s \$0-fadetime-set;
#N canvas 0 50 450 300 dbtoline 0;
#X obj 107 45 inlet;
#X obj 107 66 dbtorms;
#X obj 108 89 pack f 20;
#X obj 107 107 line~;
#X obj 107 127 outlet~;
#X obj 218 126 r \$0-fadetime;
#X connect 0 0 1 0;
#X connect 1 0 2 0;
#X connect 2 0 3 0;
#X connect 3 0 4 0;
#X connect 5 0 2 1;
#X restore 1432 393 pd dbtoline;
#N canvas 0 50 450 300 dbtoline 0;
#X obj 107 45 inlet;
#X obj 107 66 dbtorms;
#X obj 107 87 pack f 20;
#X obj 107 107 line~;
#X obj 107 127 outlet~;
#X obj 228 136 r \$0-fadetime;
#X connect 0 0 1 0;
#X connect 1 0 2 0;
#X connect 2 0 3 0;
#X connect 3 0 4 0;
#X connect 5 0 2 1;
#X restore 1570 390 pd dbtoline;
#N canvas 0 50 450 300 dbtoline 0;
#X obj 107 45 inlet;
#X obj 107 66 dbtorms;
#X obj 107 87 pack f 20;
#X obj 107 107 line~;
#X obj 107 127 outlet~;
#X obj 238 146 r \$0-fadetime;
#X connect 0 0 1 0;
#X connect 1 0 2 0;
#X connect 2 0 3 0;
#X connect 3 0 4 0;
#X connect 5 0 2 1;
#X restore 1710 392 pd dbtoline;
#N canvas 0 50 450 300 dbtoline 0;
#X obj 107 45 inlet;
#X obj 107 66 dbtorms;
#X obj 107 87 pack f 20;
#X obj 107 107 line~;
#X obj 107 127 outlet~;
#X obj 248 156 r \$0-fadetime;
#X connect 0 0 1 0;
#X connect 1 0 2 0;
#X connect 2 0 3 0;
#X connect 3 0 4 0;
#X connect 5 0 2 1;
#X restore 1848 392 pd dbtoline;
#N canvas 0 50 450 300 dbtoline 0;
#X obj 107 45 inlet;
#X obj 107 66 dbtorms;
#X obj 107 87 pack f 20;
#X obj 107 107 line~;
#X obj 107 127 outlet~;
#X obj 258 166 r \$0-fadetime;
#X connect 0 0 1 0;
#X connect 1 0 2 0;
#X connect 2 0 3 0;
#X connect 3 0 4 0;
#X connect 5 0 2 1;
#X restore 1988 392 pd dbtoline;
#X obj 2130 627 route stmix;
#X obj 2229 695 s \$0-out_dB-set;
#X obj 2029 646 route limit stchan fadetime out randvol;
#X obj 2195 666 s \$0-randvol;
#N canvas 3 89 521 459 randvol 0;
#X obj 72 40 r \$0-randvol;
#X obj 72 60 unpack f f;
#X obj 94 105 *;
#X obj 72 80 t f f;
#X obj 94 130 * 100;
#X obj 94 157 t b f;
#X obj 121 209 t f b;
#X obj 297 265 random 30;
#X obj 144 366 makefilename v%d;
#X obj 155 246 r \$0-stchan;
#X obj 150 276 unpack;
#X obj 188 295 == 0;
#X obj 150 296 * 2;
#X obj 96 344 sieve;
#X obj 150 316 pack;
#X msg 150 336 set \$1 \$2;
#X obj 16 369 loadbang;
#X obj 276 411 s \$0-volroute;
#X obj 276 391 pack s f;
#X obj 92 242 + 1;
#X msg 16 400 map 0 1 1 1 1 1 1 1 1 1 1 1 1;
#X obj 297 285 * -0.0001;
#X obj 297 325 +;
#X obj 85 184 kalashnikov 2;
#X connect 0 0 1 0;
#X connect 1 0 3 0;
#X connect 1 1 2 1;
#X connect 2 0 4 0;
#X connect 3 0 2 0;
#X connect 3 1 22 1;
#X connect 4 0 5 0;
#X connect 5 0 23 0;
#X connect 5 1 7 1;
#X connect 6 0 19 0;
#X connect 6 1 7 0;
#X connect 7 0 21 0;
#X connect 8 0 18 0;
#X connect 9 0 10 0;
#X connect 10 0 12 0;
#X connect 10 1 11 0;
#X connect 11 0 14 1;
#X connect 12 0 14 0;
#X connect 13 0 8 0;
#X connect 14 0 15 0;
#X connect 15 0 13 0;
#X connect 16 0 20 0;
#X connect 18 0 17 0;
#X connect 19 0 13 0;
#X connect 20 0 13 0;
#X connect 21 0 22 0;
#X connect 22 0 18 1;
#X connect 23 1 6 0;
#X restore 2160 403 pd randvol;
#X obj 906 462 r \$0-volroute;
#N canvas 3 89 583 351 stereo 0;
#X obj 35 147 f;
#X obj 124 145 f;
#X obj 71 146 spigot;
#X obj 134 116 spigot;
#X obj 168 93 == 0;
#X obj 35 116 sel 1 0;
#X obj 62 36 t f f;
#X obj 141 51 r \$0-2_in_vol;
#X obj 32 192 s \$0-2_in_vol-set;
#X obj 29 66 r \$0-1_in_vol;
#X obj 187 134 r \$0-stchan;
#X obj 161 192 route 1 2 3 4 5 6;
#X obj 445 76 t f f;
#X obj 472 98 % 2;
#X obj 445 98 + 1;
#X obj 476 122 sel 0 1;
#X msg 472 146 -45;
#X msg 499 146 45;
#X obj 362 135 makefilename p%d;
#X obj 397 190 s \$0-panroute;
#X obj 397 169 pack s f;
#X obj 390 32 sel 1 0;
#X obj 347 88 + 1;
#X obj 323 109 makefilename p%d;
#X obj 303 140 pack s 0;
#X obj 365 5 r \$0-stpan;
#X obj 458 229 * 0.5;
#X obj 458 249 i;
#X obj 458 270 pack f 1;
#X obj 457 291 s \$0-stchan;
#X obj 355 228 * 0.5;
#X obj 355 248 i;
#X obj 354 290 s \$0-stchan;
#X obj 355 269 pack f 0;
#X obj 307 68 kalashnikov 2;
#X obj 405 56 kalashnikov 2;
#X connect 0 0 8 0;
#X connect 1 0 8 0;
#X connect 2 0 8 0;
#X connect 3 0 1 1;
#X connect 4 0 3 1;
#X connect 5 0 0 0;
#X connect 5 1 1 0;
#X connect 6 0 5 0;
#X connect 6 1 4 0;
#X connect 6 1 2 1;
#X connect 7 0 3 0;
#X connect 9 0 0 1;
#X connect 9 0 2 0;
#X connect 10 0 11 0;
#X connect 11 0 6 0;
#X connect 12 0 14 0;
#X connect 12 1 13 0;
#X connect 13 0 15 0;
#X connect 14 0 18 0;
#X connect 14 0 26 0;
#X connect 15 0 16 0;
#X connect 15 1 17 0;
#X connect 16 0 20 1;
#X connect 17 0 20 1;
#X connect 18 0 20 0;
#X connect 20 0 19 0;
#X connect 21 0 35 0;
#X connect 21 1 34 0;
#X connect 22 0 23 0;
#X connect 22 0 30 0;
#X connect 23 0 24 0;
#X connect 24 0 19 0;
#X connect 25 0 21 0;
#X connect 26 0 27 0;
#X connect 27 0 28 0;
#X connect 28 0 29 0;
#X connect 30 0 31 0;
#X connect 31 0 33 0;
#X connect 33 0 32 0;
#X connect 34 1 22 0;
#X connect 35 1 12 0;
#X restore 2259 380 pd stereo;
#X obj 74 166 mknob 18 181 -45 45 0 0 \$0-pan_1 \$0-pan_1-set empty
-2 -6 0 8 -1 -24198 -1 0 1;
#X msg 2248 447 randpan 0;
#X obj 2245 418 loadbang;
#X obj 99 166 mknob 18 181 -45 45 0 0 \$0-pan_2 \$0-pan_2-set empty
-2 -6 0 8 -1 -28068 -1 18000 1;
#X obj 1152 249 max;
#X obj 1177 249 f;
#X msg 1177 228 -1000;
#X obj 1140 208 metro 500;
#X obj 1137 269 f;
#X obj 1140 228 t b b;
#X msg 1140 188 1;
#X obj 1140 168 loadbang;
#X obj 1092 289 pack f f;
#X obj 933 253 env~;
#X obj 933 273 - 100;
#X obj 993 253 max;
#X obj 1018 253 f;
#X msg 1018 232 -1000;
#X obj 978 273 f;
#X obj 981 232 t b b;
#X obj 933 293 pack f f;
#X obj 933 313 s \$0-level_L_mod;
#X obj 839 530 route v1 p1 a1a1 a1a2 a1a3 a1a4 a1a5 in1 v2 p2 a2a1
a2a2 a2a3 a2a4 a2a5 in2;
#N canvas 0 50 450 300 (subpatch) 0;
#X array \$0-equal_power 181 float 3;
#A 0 1.52752e-08 0.0061705 0.0123405 0.0185097 0.0246774 0.0308432
0.0370066 0.0431673 0.0493248 0.0554784 0.0616277 0.0677723 0.073912
0.0800459 0.0861738 0.0922948 0.098409 0.104516 0.110615 0.116705 0.122786
0.128858 0.134921 0.140973 0.147014 0.153044 0.159063 0.165069 0.171063
0.177043 0.18301 0.188964 0.194903 0.200827 0.206735 0.212628 0.218506
0.224366 0.230209 0.236034 0.241842 0.247631 0.253402 0.259152 0.264884
0.270595 0.276286 0.281955 0.287603 0.293229 0.298833 0.304414 0.309972
0.315506 0.321016 0.326502 0.331963 0.337399 0.342808 0.348192 0.35355
0.35888 0.364183 0.369458 0.374705 0.379924 0.385114 0.390274 0.395404
0.400505 0.405576 0.410615 0.415622 0.420598 0.425543 0.430455 0.435334
0.440179 0.444992 0.449771 0.454515 0.459224 0.463898 0.468538 0.473142
0.47771 0.48224 0.486734 0.491192 0.495613 0.499995 0.504338 0.508644
0.512911 0.51714 0.521328 0.525476 0.529585 0.533655 0.537683 0.541669
0.545614 0.549518 0.553382 0.557202 0.560978 0.564713 0.568406 0.572056
0.57566 0.579221 0.582738 0.586212 0.58964 0.593022 0.59636 0.599653
0.602902 0.606102 0.609257 0.612365 0.615427 0.618443 0.62141 0.624331
0.627203 0.63003 0.632808 0.635537 0.638216 0.640849 0.643433 0.645968
0.648452 0.650887 0.653274 0.655612 0.657898 0.660133 0.662319 0.664456
0.666541 0.668576 0.670558 0.67249 0.674373 0.676203 0.677981 0.679706
0.681382 0.683005 0.684577 0.686095 0.687561 0.688976 0.690338 0.691648
0.692903 0.694107 0.695258 0.696357 0.697402 0.698392 0.699331 0.700217
0.701051 0.701828 0.702552 0.703224 0.703844 0.704409 0.704918 0.705375
0.705779 0.706131 0.706426 0.706667 0.706855 0.706991 0.707073 0.707099
;
#X coords 0 1 181 0 200 140 1;
#X restore 288 70 graph;
#N canvas 433 189 450 300 pan~ 0;
#X obj 62 82 inlet~;
#X obj 162 18 inlet;
#X obj 163 52 * 2;
#X obj 163 74 + 90;
#X obj 123 52 * -2;
#X obj 123 74 + 90;
#X obj 134 105 pack f 20;
#X obj 134 127 line~;
#X obj 119 183 *~;
#X obj 204 105 pack f 20;
#X obj 204 127 line~;
#X obj 189 183 *~;
#X obj 239 76 r \$0-fadetime;
#X obj 119 205 outlet~;
#X obj 189 205 outlet~;
#X obj 127 155 tabread4~ \$0-equal_power;
#X obj 279 155 tabread4~ \$0-equal_power;
#X obj 206 6 loadbang;
#X msg 206 26 0;
#X connect 0 0 8 0;
#X connect 0 0 11 0;
#X connect 1 0 4 0;
#X connect 1 0 2 0;
#X connect 2 0 3 0;
#X connect 3 0 9 0;
#X connect 4 0 5 0;
#X connect 5 0 6 0;
#X connect 6 0 7 0;
#X connect 7 0 15 0;
#X connect 8 0 13 0;
#X connect 9 0 10 0;
#X connect 10 0 16 0;
#X connect 11 0 14 0;
#X connect 12 0 6 1;
#X connect 12 0 9 1;
#X connect 15 0 8 1;
#X connect 16 0 11 1;
#X connect 17 0 18 0;
#X connect 18 0 2 0;
#X connect 18 0 4 0;
#X restore 742 152 pd pan~;
#N canvas 433 184 450 300 pan~ 0;
#X obj 62 82 inlet~;
#X obj 162 18 inlet;
#X obj 163 52 * 2;
#X obj 163 74 + 90;
#X obj 123 52 * -2;
#X obj 123 74 + 90;
#X obj 134 105 pack f 20;
#X obj 134 127 line~;
#X obj 119 183 *~;
#X obj 204 105 pack f 20;
#X obj 204 127 line~;
#X obj 189 183 *~;
#X obj 239 76 r \$0-fadetime;
#X obj 119 205 outlet~;
#X obj 189 205 outlet~;
#X obj 127 155 tabread4~ \$0-equal_power;
#X obj 279 155 tabread4~ \$0-equal_power;
#X msg 226 28 0;
#X obj 225 5 loadbang;
#X connect 0 0 8 0;
#X connect 0 0 11 0;
#X connect 1 0 4 0;
#X connect 1 0 2 0;
#X connect 2 0 3 0;
#X connect 3 0 9 0;
#X connect 4 0 5 0;
#X connect 5 0 6 0;
#X connect 6 0 7 0;
#X connect 7 0 15 0;
#X connect 8 0 13 0;
#X connect 9 0 10 0;
#X connect 10 0 16 0;
#X connect 11 0 14 0;
#X connect 12 0 6 1;
#X connect 12 0 9 1;
#X connect 15 0 8 1;
#X connect 16 0 11 1;
#X connect 17 0 2 0;
#X connect 17 0 4 0;
#X connect 18 0 17 0;
#X restore 851 149 pd pan~;
#X obj 234 12 declare -lib moonlib -lib ekext -lib ext13 -lib ggee
;
#X obj 516 514 ext13/kalashnikov 2;
#X obj 2261 754 ext13/kalashnikov 2;
#X obj 2271 73 ext13/kalashnikov 2;
#X obj 2278 541 ext13/kalashnikov 10;
#X obj 517 51 declare -lib zexy;
#X connect 0 0 1 0;
#X connect 1 0 2 0;
#X connect 1 0 15 0;
#X connect 1 0 17 0;
#X connect 1 0 41 0;
#X connect 1 0 45 0;
#X connect 1 0 47 0;
#X connect 2 0 214 0;
#X connect 3 0 4 0;
#X connect 4 0 5 0;
#X connect 4 0 18 0;
#X connect 4 0 19 0;
#X connect 4 0 42 0;
#X connect 4 0 46 0;
#X connect 4 0 48 0;
#X connect 5 0 215 0;
#X connect 6 0 1 1;
#X connect 7 0 172 0;
#X connect 8 0 4 1;
#X connect 9 0 173 0;
#X connect 10 0 13 0;
#X connect 11 0 12 0;
#X connect 14 0 15 1;
#X connect 15 0 22 0;
#X connect 16 0 17 1;
#X connect 17 0 24 0;
#X connect 18 0 22 0;
#X connect 19 0 24 0;
#X connect 20 0 18 1;
#X connect 21 0 19 1;
#X connect 22 0 26 0;
#X connect 23 0 178 0;
#X connect 24 0 27 0;
#X connect 25 0 179 0;
#X connect 28 0 212 0;
#X connect 35 0 84 1;
#X connect 36 0 35 0;
#X connect 37 0 220 0;
#X connect 37 1 35 1;
#X connect 39 0 214 1;
#X connect 40 0 215 1;
#X connect 41 0 53 0;
#X connect 42 0 53 0;
#X connect 43 0 41 1;
#X connect 44 0 42 1;
#X connect 45 0 54 0;
#X connect 46 0 54 0;
#X connect 47 0 59 0;
#X connect 48 0 59 0;
#X connect 49 0 45 1;
#X connect 50 0 47 1;
#X connect 51 0 46 1;
#X connect 52 0 48 1;
#X connect 53 0 55 0;
#X connect 54 0 56 0;
#X connect 57 0 180 0;
#X connect 58 0 181 0;
#X connect 59 0 60 0;
#X connect 61 0 182 0;
#X connect 78 0 79 0;
#X connect 79 0 80 0;
#X connect 80 0 85 0;
#X connect 81 0 82 0;
#X connect 82 0 85 1;
#X connect 83 0 78 0;
#X connect 83 1 81 0;
#X connect 83 2 36 0;
#X connect 84 0 87 0;
#X connect 85 0 86 0;
#X connect 86 0 84 0;
#X connect 88 0 37 0;
#X connect 89 0 98 0;
#X connect 90 0 107 0;
#X connect 90 0 217 0;
#X connect 91 0 92 0;
#X connect 92 0 94 0;
#X connect 92 1 93 0;
#X connect 93 0 95 1;
#X connect 94 0 95 0;
#X connect 95 0 96 0;
#X connect 96 0 212 0;
#X connect 97 0 88 0;
#X connect 98 0 212 0;
#X connect 99 0 100 0;
#X connect 100 0 103 0;
#X connect 101 0 218 0;
#X connect 101 1 102 0;
#X connect 102 0 103 1;
#X connect 103 0 87 0;
#X connect 104 0 105 0;
#X connect 105 0 194 0;
#X connect 105 0 202 0;
#X connect 107 0 108 0;
#X connect 109 0 111 0;
#X connect 109 0 203 0;
#X connect 109 1 110 0;
#X connect 109 1 104 0;
#X connect 112 0 109 2;
#X connect 113 0 114 0;
#X connect 115 0 113 0;
#X connect 115 0 107 0;
#X connect 116 0 109 3;
#X connect 117 0 129 0;
#X connect 117 1 122 0;
#X connect 117 2 118 0;
#X connect 118 0 119 0;
#X connect 119 0 120 0;
#X connect 119 1 121 1;
#X connect 120 0 121 1;
#X connect 121 0 131 1;
#X connect 122 0 121 0;
#X connect 123 0 219 0;
#X connect 123 1 122 1;
#X connect 124 0 170 0;
#X connect 125 0 32 0;
#X connect 125 1 33 0;
#X connect 125 2 75 0;
#X connect 125 3 76 0;
#X connect 125 4 77 0;
#X connect 125 5 34 0;
#X connect 125 6 88 0;
#X connect 125 7 101 0;
#X connect 125 8 126 0;
#X connect 125 9 10 0;
#X connect 125 9 183 0;
#X connect 127 0 131 0;
#X connect 129 0 127 0;
#X connect 130 0 98 0;
#X connect 131 0 128 0;
#X connect 170 0 123 0;
#X connect 172 0 2 1;
#X connect 173 0 5 1;
#X connect 174 0 128 0;
#X connect 178 0 22 1;
#X connect 179 0 24 1;
#X connect 180 0 53 1;
#X connect 181 0 54 1;
#X connect 182 0 59 1;
#X connect 183 0 168 0;
#X connect 183 1 185 0;
#X connect 185 0 171 0;
#X connect 185 1 175 0;
#X connect 185 2 177 0;
#X connect 185 3 184 0;
#X connect 185 4 186 0;
#X connect 188 0 98 0;
#X connect 191 0 125 0;
#X connect 192 0 191 0;
#X connect 194 0 195 0;
#X connect 194 0 198 1;
#X connect 195 0 194 1;
#X connect 196 0 195 0;
#X connect 197 0 199 0;
#X connect 197 0 209 0;
#X connect 198 0 202 1;
#X connect 199 0 196 0;
#X connect 199 1 198 0;
#X connect 200 0 197 0;
#X connect 201 0 200 0;
#X connect 202 0 106 0;
#X connect 203 0 204 0;
#X connect 204 0 205 0;
#X connect 204 0 210 0;
#X connect 205 0 206 0;
#X connect 205 0 208 1;
#X connect 206 0 205 1;
#X connect 207 0 206 0;
#X connect 208 0 210 1;
#X connect 209 0 207 0;
#X connect 209 1 208 0;
#X connect 210 0 211 0;
#X connect 212 0 29 0;
#X connect 212 1 65 0;
#X connect 212 2 30 0;
#X connect 212 3 31 0;
#X connect 212 4 62 0;
#X connect 212 5 63 0;
#X connect 212 6 64 0;
#X connect 212 7 66 0;
#X connect 212 8 67 0;
#X connect 212 9 68 0;
#X connect 212 10 69 0;
#X connect 212 11 70 0;
#X connect 212 12 71 0;
#X connect 212 13 72 0;
#X connect 212 14 73 0;
#X connect 212 15 74 0;
#X connect 212 16 125 0;
#X connect 214 0 109 0;
#X connect 214 1 109 1;
#X connect 215 0 109 0;
#X connect 215 1 109 1;
#X connect 217 1 91 0;
#X connect 218 1 99 0;
#X connect 219 1 117 0;
#X connect 220 1 83 0;
#X coords 0 -1 1 1 192 120 1 70 70;
