#N canvas 3 89 1274 627 10;
#X declare -lib moonlib -lib ekext -lib ext13 -lib ggee -lib motex
-lib zexy;
#X obj 101 117 cnv 15 230 98 empty empty empty 6 4 0 8 -225271 -13381
0;
#X obj 342 34 inlet~;
#X obj 358 115 dbtorms;
#X obj 342 75 *~;
#X obj 342 195 *~;
#X obj 451 35 inlet~;
#X obj 467 116 dbtorms;
#X obj 451 76 *~;
#X obj 451 196 *~;
#X obj 561 36 inlet~;
#X obj 577 117 dbtorms;
#X obj 561 77 *~;
#X obj 561 177 *~;
#X obj 668 37 inlet~;
#X obj 684 118 dbtorms;
#X obj 668 78 *~;
#X obj 668 178 *~;
#X obj 772 38 inlet~;
#X obj 788 119 dbtorms;
#X obj 772 79 *~;
#X obj 772 179 *~;
#X obj 358 55 r \$0-1_in;
#X obj 358 95 r \$0-1_in_vol;
#X obj 467 56 r \$0-2_in;
#X obj 467 96 r \$0-2_in_vol;
#X obj 577 57 r \$0-3_in;
#X obj 577 97 r \$0-3_in_vol;
#X obj 684 58 r \$0-4_in;
#X obj 684 98 r \$0-4_in_vol;
#X obj 788 59 r \$0-5_in;
#X obj 788 99 r \$0-5_in_vol;
#N canvas 10 89 890 627 patches 0;
#X obj 24 140 f;
#X obj 22 199 prepend add;
#X obj 19 232 t b a;
#X obj 91 319 msgfile;
#X msg 172 289 add patches 0;
#X obj 169 251 loadbang;
#X obj 76 436 route patches;
#X msg 106 238 goto 0;
#X obj 34 297 + 1;
#X obj 18 314 f;
#X msg 18 367 replace patches \$1;
#X msg 69 288 this;
#X obj 18 262 t b b b;
#X obj 346 217 t b f;
#X msg 361 241 goto \$1;
#X msg 326 240 this;
#X obj 453 251 r \$0-patches_load;
#X obj 453 268 openpanel;
#X msg 527 302 read \$1;
#X msg 483 302 goto 0;
#X msg 453 302 this;
#X obj 633 181 r \$0-patches_save;
#X obj 633 209 savepanel;
#X obj 632 238 makesymbol %s.txt;
#X msg 628 262 write \$1;
#X obj 80 406 route list;
#X obj 187 205 r \$0-patches_clear;
#X obj 187 221 t b b;
#X msg 359 278 clear;
#X obj 453 285 t b b a b;
#X obj 21 97 r \$0-patches_store;
#X obj 36 33 r \$0-1_in;
#X obj 50 52 r \$0-1_in_vol;
#X obj 138 31 r \$0-2_in;
#X obj 150 51 r \$0-2_in_vol;
#X obj 239 31 r \$0-3_in;
#X obj 246 50 r \$0-3_in_vol;
#X obj 308 29 r \$0-4_in;
#X obj 331 50 r \$0-4_in_vol;
#X obj 399 30 r \$0-5_in;
#X obj 414 51 r \$0-5_in_vol;
#X obj 65 453 s \$0-1_in-set;
#X obj 79 472 s \$0-1_in_vol-set;
#X obj 191 452 s \$0-2_in-set;
#X obj 203 472 s \$0-2_in_vol-set;
#X obj 220 499 s \$0-3_in-set;
#X obj 226 519 s \$0-3_in_vol-set;
#X obj 258 541 s \$0-4_in-set;
#X obj 285 561 s \$0-4_in_vol-set;
#X obj 313 469 s \$0-5_in-set;
#X obj 343 485 s \$0-5_in_vol-set;
#X obj 437 171 inlet;
#X obj 735 440 outlet;
#X msg 17 497 range 1 \$1;
#X obj 118 520 s \$0-patches-tot;
#X obj 475 33 r \$0-1_fx_1;
#X obj 495 49 r \$0-1_fx_2;
#X obj 547 32 r \$0-2_fx_1;
#X obj 567 48 r \$0-2_fx_2;
#X obj 620 31 r \$0-3_fx_1;
#X obj 640 47 r \$0-3_fx_2;
#X obj 692 31 r \$0-4_fx_1;
#X obj 712 47 r \$0-4_fx_2;
#X obj 766 31 r \$0-5_fx_1;
#X obj 786 47 r \$0-5_fx_2;
#X obj 510 95 r \$0-fx_1_vol;
#X obj 598 95 r \$0-fx_2_vol;
#X obj 359 386 s \$0-1_fx_1-set;
#X obj 379 402 s \$0-1_fx_2-set;
#X obj 400 427 s \$0-2_fx_1-set;
#X obj 420 443 s \$0-2_fx_2-set;
#X obj 452 464 s \$0-3_fx_1-set;
#X obj 472 480 s \$0-3_fx_2-set;
#X obj 494 504 s \$0-4_fx_1-set;
#X obj 514 520 s \$0-4_fx_2-set;
#X obj 546 543 s \$0-5_fx_1-set;
#X obj 566 559 s \$0-5_fx_2-set;
#X obj 510 385 s \$0-fx_1_vol-set;
#X obj 539 418 s \$0-fx_2_vol-set;
#X msg 594 341 1;
#X msg 632 338 100;
#X obj 613 310 r \$0-max;
#X obj 695 74 r \$0-pan_1;
#X obj 24 172 pack f f f f f f f f f f f f f f f f f f f f f f f f
f f f f;
#X obj 734 116 r \$0-pan_3;
#X obj 714 95 r \$0-pan_2;
#X obj 746 137 r \$0-pan_4;
#X obj 766 158 r \$0-pan_5;
#X obj 775 187 r \$0-limit;
#X obj 710 582 s \$0-limit-set;
#X obj 701 553 s \$0-pan_5-set;
#X obj 681 532 s \$0-pan_4-set;
#X obj 669 511 s \$0-pan_3-set;
#X obj 649 490 s \$0-pan_2-set;
#X obj 630 469 s \$0-pan_1-set;
#X obj 218 344 unpack f f f f f f f f f f f f f f f f f f f f f f f
f f f f f;
#X obj 767 361 random;
#X obj 413 195 route patch file randpatch;
#X obj 791 416 outlet;
#X obj 17 519 s \$0-patch-set;
#X obj 442 215 r \$0-patch;
#X obj 521 225 t b f b;
#X obj 628 288 outlet;
#X obj 580 281 outlet;
#X obj 404 264 outlet;
#X connect 0 0 83 0;
#X connect 1 0 2 0;
#X connect 2 0 12 0;
#X connect 2 1 3 0;
#X connect 3 0 25 0;
#X connect 4 0 3 0;
#X connect 5 0 4 0;
#X connect 6 0 8 0;
#X connect 6 0 96 1;
#X connect 6 1 95 0;
#X connect 7 0 3 0;
#X connect 8 0 9 1;
#X connect 9 0 10 0;
#X connect 9 0 53 0;
#X connect 9 0 54 0;
#X connect 9 0 96 1;
#X connect 10 0 3 0;
#X connect 11 0 3 0;
#X connect 12 0 9 0;
#X connect 12 1 11 0;
#X connect 12 2 7 0;
#X connect 13 0 15 0;
#X connect 13 1 14 0;
#X connect 14 0 3 0;
#X connect 15 0 3 0;
#X connect 16 0 17 0;
#X connect 17 0 29 0;
#X connect 17 0 52 0;
#X connect 18 0 3 0;
#X connect 19 0 3 0;
#X connect 20 0 3 0;
#X connect 21 0 22 0;
#X connect 22 0 23 0;
#X connect 22 0 52 0;
#X connect 23 0 24 0;
#X connect 24 0 3 0;
#X connect 25 0 6 0;
#X connect 26 0 27 0;
#X connect 27 0 4 0;
#X connect 27 1 28 0;
#X connect 28 0 3 0;
#X connect 29 0 20 0;
#X connect 29 1 19 0;
#X connect 29 2 18 0;
#X connect 29 3 28 0;
#X connect 30 0 0 0;
#X connect 31 0 0 1;
#X connect 32 0 83 1;
#X connect 33 0 83 2;
#X connect 34 0 83 3;
#X connect 35 0 83 4;
#X connect 36 0 83 5;
#X connect 37 0 83 6;
#X connect 38 0 83 7;
#X connect 39 0 83 8;
#X connect 40 0 83 9;
#X connect 51 0 97 0;
#X connect 53 0 99 0;
#X connect 55 0 83 10;
#X connect 56 0 83 11;
#X connect 57 0 83 12;
#X connect 58 0 83 13;
#X connect 59 0 83 14;
#X connect 60 0 83 15;
#X connect 61 0 83 16;
#X connect 62 0 83 17;
#X connect 63 0 83 18;
#X connect 64 0 83 19;
#X connect 65 0 83 20;
#X connect 66 0 83 21;
#X connect 79 0 41 0;
#X connect 79 0 43 0;
#X connect 79 0 45 0;
#X connect 79 0 47 0;
#X connect 79 0 49 0;
#X connect 80 0 42 0;
#X connect 80 0 44 0;
#X connect 80 0 46 0;
#X connect 80 0 48 0;
#X connect 80 0 50 0;
#X connect 81 0 79 0;
#X connect 81 0 80 0;
#X connect 82 0 83 22;
#X connect 83 0 1 0;
#X connect 84 0 83 24;
#X connect 85 0 83 23;
#X connect 86 0 83 25;
#X connect 87 0 83 26;
#X connect 88 0 83 27;
#X connect 95 0 41 0;
#X connect 95 1 42 0;
#X connect 95 2 43 0;
#X connect 95 3 44 0;
#X connect 95 4 45 0;
#X connect 95 5 46 0;
#X connect 95 6 47 0;
#X connect 95 7 48 0;
#X connect 95 8 49 0;
#X connect 95 9 50 0;
#X connect 95 10 67 0;
#X connect 95 11 68 0;
#X connect 95 12 69 0;
#X connect 95 13 70 0;
#X connect 95 14 71 0;
#X connect 95 15 72 0;
#X connect 95 16 73 0;
#X connect 95 17 74 0;
#X connect 95 18 75 0;
#X connect 95 19 76 0;
#X connect 95 20 77 0;
#X connect 95 21 78 0;
#X connect 95 22 94 0;
#X connect 95 23 93 0;
#X connect 95 24 92 0;
#X connect 95 25 91 0;
#X connect 95 26 90 0;
#X connect 95 27 89 0;
#X connect 96 0 98 0;
#X connect 97 0 99 0;
#X connect 97 1 29 0;
#X connect 97 2 96 0;
#X connect 97 3 104 0;
#X connect 100 0 101 0;
#X connect 101 0 103 0;
#X connect 101 1 13 0;
#X connect 101 2 102 0;
#X restore 1150 44 pd patches;
#X obj 983 44 bng 15 250 50 0 empty empty empty 0 -6 0 8 -262144 -1
-1;
#X obj 980 69 s \$0-patches_clear;
#X obj 1181 24 inlet;
#X obj 1150 152 outlet;
#X obj 416 253 r \$0-1_fx_1;
#X obj 403 285 *~;
#X obj 436 269 r \$0-1_fx_2;
#X obj 423 285 *~;
#X obj 494 285 *~;
#X obj 514 285 *~;
#X obj 507 253 r \$0-2_fx_1;
#X obj 527 269 r \$0-2_fx_2;
#X obj 586 285 *~;
#X obj 606 285 *~;
#X obj 677 285 *~;
#X obj 697 285 *~;
#X obj 599 253 r \$0-3_fx_1;
#X obj 619 269 r \$0-3_fx_2;
#X obj 690 253 r \$0-4_fx_1;
#X obj 710 269 r \$0-4_fx_2;
#X obj 777 285 *~;
#X obj 797 285 *~;
#X obj 790 253 r \$0-5_fx_1;
#X obj 810 269 r \$0-5_fx_2;
#X obj 544 341 dbtorms;
#X obj 528 361 *~;
#X obj 544 321 r \$0-fx_1_vol;
#X obj 632 341 dbtorms;
#X obj 616 361 *~;
#X obj 632 321 r \$0-fx_2_vol;
#X obj 529 382 outlet~;
#X obj 616 383 outlet~;
#X obj 776 357 s \$0-1_in_vol-set;
#X obj 900 357 s \$0-2_in_vol-set;
#X obj 923 404 s \$0-3_in_vol-set;
#X obj 982 446 s \$0-4_in_vol-set;
#X obj 1040 370 s \$0-5_in_vol-set;
#X obj 1056 271 s \$0-1_fx_1-set;
#X obj 1076 287 s \$0-1_fx_2-set;
#X obj 1097 312 s \$0-2_fx_1-set;
#X obj 1117 328 s \$0-2_fx_2-set;
#X obj 1149 349 s \$0-3_fx_1-set;
#X obj 1169 365 s \$0-3_fx_2-set;
#X obj 1191 389 s \$0-4_fx_1-set;
#X obj 1211 405 s \$0-4_fx_2-set;
#X obj 1243 428 s \$0-5_fx_1-set;
#X obj 1263 444 s \$0-5_fx_2-set;
#X obj 1207 270 s \$0-fx_1_vol-set;
#X obj 1236 303 s \$0-fx_2_vol-set;
#X obj 1278 250 s \$0-max-bng;
#X obj 1290 154 < 50;
#X obj 1290 134 random 100;
#X obj 1263 114 t f b;
#X obj 1223 74 t b f;
#X obj 1269 174 pack;
#X obj 1269 191 route 0 1 2 3 4 5 6 7 8 9;
#X msg 1282 21 60;
#X msg 1321 18 10;
#X obj 351 300 r \$0-pan_1;
#X obj 377 215 r \$0-pan_2;
#X obj 1285 341 s \$0-pan_1-set;
#X obj 1304 364 s \$0-pan_2-set;
#X obj 1325 385 s \$0-pan_3-set;
#X obj 1344 406 s \$0-pan_4-set;
#X obj 1361 429 s \$0-pan_5-set;
#X obj 473 204 r \$0-pan_3;
#X obj 540 205 r \$0-pan_4;
#X obj 615 204 r \$0-pan_5;
#X msg 1230 43 patch \$1;
#N canvas 3 89 450 300 limiting 0;
#X obj 301 79 inlet;
#X obj 297 118 switch~;
#X obj 92 99 limiter~ 10 2;
#X obj 67 154 *~;
#X obj 98 154 *~;
#X obj 115 133 z~ 64;
#X obj 67 134 z~ 64;
#X obj 91 44 inlet~;
#X obj 180 44 inlet~;
#X obj 67 213 outlet~;
#X obj 127 211 outlet~;
#X connect 0 0 1 0;
#X connect 2 0 3 1;
#X connect 2 0 4 0;
#X connect 3 0 9 0;
#X connect 4 0 10 0;
#X connect 5 0 4 1;
#X connect 6 0 3 0;
#X connect 7 0 2 0;
#X connect 7 0 6 0;
#X connect 8 0 2 1;
#X connect 8 0 5 0;
#X restore 351 446 pd limiting;
#X obj 282 410 *~ 1;
#X obj 315 410 *~ 1;
#X obj 374 388 == 0;
#X obj 407 364 r \$0-limit;
#X msg 687 409 0;
#X obj 685 441 s \$0-limit-set;
#X obj 274 491 outlet~;
#X obj 342 488 outlet~;
#X obj 677 360 loadbang;
#X obj 1363 259 s \$0-limit-set;
#X msg 1355 308 0;
#X obj 1352 285 loadbang;
#X obj 460 419 env~;
#X obj 422 445 - 100;
#X obj 509 419 env~;
#X obj 509 442 - 100;
#N canvas 3 89 1059 644 auto_out 0;
#X obj 73 37 r \$0-1_in;
#X obj 123 58 r \$0-1_in_vol;
#X obj 398 66 r \$0-fx_1_vol;
#X obj 486 66 r \$0-fx_2_vol;
#X obj 695 74 r \$0-pan_1;
#X obj 734 116 r \$0-pan_3;
#X obj 714 95 r \$0-pan_2;
#X obj 746 137 r \$0-pan_4;
#X obj 766 158 r \$0-pan_5;
#X obj 810 187 r \$0-limit;
#X obj 73 570 outlet;
#X obj 18 124 inlet;
#X obj 173 78 r \$0-2_in;
#X obj 223 99 r \$0-2_in_vol;
#X obj 273 119 r \$0-3_in;
#X obj 323 140 r \$0-3_in_vol;
#X obj 373 160 r \$0-4_in;
#X obj 423 181 r \$0-4_in_vol;
#X obj 473 201 r \$0-5_in;
#X obj 523 222 r \$0-5_in_vol;
#X obj 83 124 r \$0-1_fx_1;
#X obj 133 145 r \$0-1_fx_2;
#X obj 183 165 r \$0-2_fx_1;
#X obj 233 186 r \$0-2_fx_2;
#X obj 283 206 r \$0-3_fx_1;
#X obj 333 227 r \$0-3_fx_2;
#X obj 383 247 r \$0-4_fx_1;
#X obj 433 268 r \$0-4_fx_2;
#X obj 479 289 r \$0-5_fx_1;
#X obj 534 310 r \$0-5_fx_2;
#X obj 18 163 prepend file;
#X msg 73 58 in1 \$1;
#X msg 123 78 v1 \$1;
#X msg 173 99 in2 \$1;
#X msg 223 119 v2 \$1;
#X msg 273 140 in3 \$1;
#X msg 323 160 v3 \$1;
#X msg 373 181 in4 \$1;
#X msg 423 201 v4 \$1;
#X msg 473 222 in5 \$1;
#X msg 523 242 v5 \$1;
#X msg 83 145 a1a1 \$1;
#X msg 133 165 a1a2 \$1;
#X msg 183 186 a2a1 \$1;
#X msg 233 206 a2a2 \$1;
#X msg 283 227 a3a1 \$1;
#X msg 333 247 a3a2 \$1;
#X msg 383 268 a4a1 \$1;
#X msg 433 289 a4a2 \$1;
#X msg 479 310 a5a1 \$1;
#X msg 534 330 a5a2 \$1;
#X msg 417 107 send1 \$1;
#X msg 505 107 send2 \$1;
#X msg 632 207 pan1 \$1;
#X msg 682 227 pan2 \$1;
#X msg 732 248 pan3 \$1;
#X msg 782 268 pan4 \$1;
#X msg 832 289 pan5 \$1;
#X msg 882 309 limit \$1;
#X obj 73 509 spigot;
#X obj 835 395 inlet;
#X obj 899 396 inlet;
#X msg 900 431 0;
#X msg 832 430 1;
#X obj 955 395 loadbang;
#X msg 464 450 env_l \$1;
#X msg 524 451 env_r \$1;
#X obj 464 429 r \$0-envl;
#X obj 524 430 r \$0-envr;
#X connect 0 0 31 0;
#X connect 1 0 32 0;
#X connect 2 0 51 0;
#X connect 3 0 52 0;
#X connect 4 0 53 0;
#X connect 5 0 55 0;
#X connect 6 0 54 0;
#X connect 7 0 56 0;
#X connect 8 0 57 0;
#X connect 9 0 58 0;
#X connect 11 0 30 0;
#X connect 12 0 33 0;
#X connect 13 0 34 0;
#X connect 14 0 35 0;
#X connect 15 0 36 0;
#X connect 16 0 37 0;
#X connect 17 0 38 0;
#X connect 18 0 39 0;
#X connect 19 0 40 0;
#X connect 20 0 41 0;
#X connect 21 0 42 0;
#X connect 22 0 43 0;
#X connect 23 0 44 0;
#X connect 24 0 45 0;
#X connect 25 0 46 0;
#X connect 26 0 47 0;
#X connect 27 0 48 0;
#X connect 28 0 49 0;
#X connect 29 0 50 0;
#X connect 30 0 10 0;
#X connect 31 0 59 0;
#X connect 32 0 59 0;
#X connect 33 0 59 0;
#X connect 34 0 59 0;
#X connect 35 0 59 0;
#X connect 36 0 59 0;
#X connect 37 0 59 0;
#X connect 38 0 59 0;
#X connect 39 0 59 0;
#X connect 40 0 59 0;
#X connect 41 0 59 0;
#X connect 42 0 59 0;
#X connect 43 0 59 0;
#X connect 44 0 59 0;
#X connect 45 0 59 0;
#X connect 46 0 59 0;
#X connect 47 0 59 0;
#X connect 48 0 59 0;
#X connect 49 0 59 0;
#X connect 50 0 59 0;
#X connect 51 0 59 0;
#X connect 52 0 59 0;
#X connect 53 0 59 0;
#X connect 54 0 59 0;
#X connect 55 0 59 0;
#X connect 56 0 59 0;
#X connect 57 0 59 0;
#X connect 58 0 59 0;
#X connect 59 0 10 0;
#X connect 60 0 63 0;
#X connect 61 0 62 0;
#X connect 62 0 59 1;
#X connect 63 0 59 1;
#X connect 64 0 63 0;
#X connect 65 0 59 0;
#X connect 66 0 59 0;
#X connect 67 0 65 0;
#X connect 68 0 66 0;
#X restore 1150 125 pd auto_out;
#X obj 1096 601 s \$0-1_in-set;
#X obj 1102 466 route in1 in2 in3 in4 in5;
#X obj 1125 582 s \$0-2_in-set;
#X obj 1146 560 s \$0-3_in-set;
#X obj 1175 541 s \$0-4_in-set;
#X obj 1197 522 s \$0-5_in-set;
#X obj 893 195 route v1 a1a1 a1a2 v2 a2a1 a2a2 v3 a3a1 a3a2 v4 a4a1
a4a2 v5 a5a1 a5a2 send1 send2 max randroute p1 p2 p3 p4 p5 limit randpan
;
#X obj 1339 91 t f b b;
#X obj 1444 112 random 2;
#X obj 1442 134 sel 0;
#X msg 1443 157 -1;
#X obj 1358 133 *;
#X obj 1337 153 pack;
#X obj 1337 171 route 0 1 2 3 4;
#X obj 1358 113 random 46;
#X obj 1299 51 t b f;
#X msg 1358 22 10;
#X msg 1399 23 46;
#X obj 201 103 cnv 15 130 98 empty empty empty 6 4 0 8 -225271 -13381
0;
#X obj 105 123 tgl 15 0 \$0-1_in \$0-1_in-set empty 0 -6 0 8 -24198
-42246 -42246 0 1;
#X obj 131 123 tgl 15 0 \$0-2_in \$0-2_in-set empty 0 -6 0 8 -28068
-1109 -1109 0 1;
#X obj 157 123 tgl 15 0 \$0-3_in \$0-3_in-set empty 0 -6 0 8 -28088
-1109 -1109 0 1;
#X obj 182 123 tgl 15 0 \$0-4_in \$0-4_in-set empty 0 -6 0 8 -27324
-355 -355 0 1;
#X obj 208 123 tgl 15 0 \$0-5_in \$0-5_in-set empty 0 -6 0 8 -109248
-355 -355 0 1;
#X obj 105 143 vsl 15 26 0 100 0 0 \$0-1_in_vol \$0-1_in_vol-set empty
0 -8 0 8 -24198 -42246 -42246 0 0;
#X obj 131 143 vsl 15 26 0 100 0 0 \$0-2_in_vol \$0-2_in_vol-set empty
0 -8 0 8 -28068 -42246 -42246 0 0;
#X obj 157 143 vsl 15 26 0 100 0 0 \$0-3_in_vol \$0-3_in_vol-set empty
0 -8 0 8 -28088 -1109 -1109 0 0;
#X obj 182 143 vsl 15 26 0 100 0 0 \$0-4_in_vol \$0-4_in_vol-set empty
0 -8 0 8 -27324 -355 -355 0 0;
#X obj 208 143 vsl 15 26 0 100 0 0 \$0-5_in_vol \$0-5_in_vol-set empty
0 -8 0 8 -109248 -355 -355 0 0;
#X obj 243 200 bng 10 250 50 0 \$0-patches_load \$0-patches_load-bng
L 12 6 0 8 -118749 -1410 -13381;
#X obj 262 200 bng 10 250 50 0 \$0-patches_save \$0-patches_save-set
S 12 6 0 7 -260390 -86277 -86277;
#X obj 225 200 bng 10 250 50 0 \$0-patches_store \$0-patches_store-set
+ 12 6 0 7 -44926 -143491 -42246;
#X obj 105 198 nbx 3 12 -1e+37 1e+37 0 0 \$0-dum \$0-dumn empty 0 -6
0 7 -262144 -1 -1 0 256;
#X obj 105 198 nbx 3 12 0 1e+37 0 0 \$0-patches-dummy \$0-patches-tot
patches 31 6 0 8 -221174 -143491 -1 0 256;
#X obj 174 198 nbx 3 12 0 1e+37 0 0 \$0-patch \$0-patch-set pat 31
6 0 8 -221174 -143491 -1 0 256;
#X obj 120 151 tgl 8 0 \$0-1_fx_1 \$0-1_fx_1-set f 3 -13 0 8 -211520
-90133 -90133 0 1;
#X obj 120 164 tgl 8 0 \$0-1_fx_2 \$0-1_fx_2-set x 3 -19 0 8 -260524
-143491 -143491 0 1;
#X obj 243 117 vsl 12 51 0 100 0 0 \$0-fx_1_vol \$0-fx_1_vol-set 1-aux-
0 -7 0 7 -211520 -90133 -90133 4800 0;
#X obj 258 117 vsl 12 51 0 100 0 0 \$0-fx_2_vol \$0-fx_2_vol-set 2
9 -7 0 7 -260525 -143491 -143491 4800 0;
#X obj 146 151 tgl 8 0 \$0-2_fx_1 \$0-2_fx_1-set f 3 -13 0 8 -211520
-90133 -90133 0 1;
#X obj 146 164 tgl 8 0 \$0-2_fx_2 \$0-2_fx_2-set x 3 -19 0 8 -260524
-143491 -143491 0 1;
#X obj 172 151 tgl 8 0 \$0-3_fx_1 \$0-3_fx_1-set f 3 -13 0 8 -211520
-90133 -90133 0 1;
#X obj 172 164 tgl 8 0 \$0-3_fx_2 \$0-3_fx_2-set x 3 -19 0 8 -260524
-143491 -143491 0 1;
#X obj 197 151 tgl 8 0 \$0-4_fx_1 \$0-4_fx_1-set f 3 -13 0 8 -211520
-90133 -90133 0 1;
#X obj 197 164 tgl 8 0 \$0-4_fx_2 \$0-4_fx_2-set x 3 -19 0 8 -260524
-143491 -143491 0 1;
#X obj 223 151 tgl 8 0 \$0-5_fx_1 \$0-5_fx_1-set f 3 -13 0 8 -211520
-90133 -90133 0 1;
#X obj 223 164 tgl 8 0 \$0-5_fx_2 \$0-5_fx_2-set x 3 -19 0 8 -260524
-143491 -143491 0 1;
#X obj 205 106 bng 8 250 50 0 \$0-max \$0-max-bng max 10 4 0 8 -1 -262131
-258699;
#X obj 289 106 tgl 10 0 \$0-limit \$0-limit-set limit 13 5 0 8 -204786
-14854 -13381 0 1;
#X obj 284 122 vu 8 80 empty empty -1 -8 0 8 -1 -1 0 0;
#X obj 296 122 vu 8 80 empty empty -1 -8 0 8 -1 -1 1 0;
#X obj 240 177 bng 8 250 50 0 \$0-randpan \$0-randpan-bng random 10
4 0 8 -1 -262131 -258699;
#X obj 253 186 nbx 2 8 1 46 0 0 \$0-rpan-num \$0-rpan-set empty 0 -8
0 8 -262144 -1 -1 1 256;
#X obj 939 109 r \$0-rpan-num;
#X obj 1165 174 s \$0-rpan-set;
#X obj 1082 150 t b f;
#X obj 930 137 f;
#X obj 893 87 r \$0-randpan;
#X obj 1038 173 s \$0-randpan-bng;
#X obj 423 506 f;
#X obj 397 506 max;
#X obj 401 483 t f b;
#X obj 370 535 t b b;
#X obj 404 569 f;
#X msg 368 561 -200;
#X msg 225 492 1;
#X obj 151 457 loadbang;
#X obj 279 514 metro 500;
#X obj 540 528 f;
#X obj 514 528 max;
#X obj 518 505 t f b;
#X obj 487 557 t b b;
#X obj 521 591 f;
#X msg 485 583 -200;
#X floatatom 530 620 5 0 0 0 - - -, f 5;
#X floatatom 570 574 5 0 0 0 - - -, f 5;
#X obj 618 513 s \$0-envl;
#X obj 678 514 s \$0-envr;
#X floatatom 694 350 5 0 0 0 - - -, f 5;
#X obj 70 575 s \$0-fx_1_vol-set;
#X obj 94 554 s \$0-fx_2_vol-set;
#X msg 76 520 96;
#X obj 577 137 pack f 20;
#X obj 577 157 line~;
#X obj 687 137 pack f 20;
#X obj 687 157 line~;
#X obj 787 139 pack f 20;
#X obj 787 159 line~;
#X obj 357 137 pack f 20;
#X obj 357 157 line~;
#X obj 457 139 pack f 20;
#X obj 457 159 line~;
#X text 227 172 <-;
#X obj 105 175 mknob 20 181 -45 45 0 0 \$0-pan_1 \$0-pan_1-set empty
-2 -6 0 8 -24198 -42246 -1 9000 1;
#X obj 130 175 mknob 20 181 -45 45 0 0 \$0-pan_2 \$0-pan_2-set empty
-2 -6 0 8 -28068 -42246 -1 9000 1;
#X obj 155 175 mknob 20 181 -45 45 0 0 \$0-pan_3 \$0-pan_3-set empty
-2 -6 0 8 -28088 -1109 -1 9000 1;
#X obj 181 175 mknob 20 181 -45 45 0 0 \$0-pan_4 \$0-pan_4-set empty
-2 -6 0 8 -27324 -355 -1 9000 1;
#X obj 207 175 mknob 20 181 -45 45 0 0 \$0-pan_5 \$0-pan_5-set empty
-2 -6 0 8 -109248 -355 -1 9000 1;
#X obj 741 215 motex/pan~;
#X obj 543 231 motex/pan~;
#X obj 452 224 motex/pan~;
#X obj 356 235 motex/pan~;
#X obj 333 323 motex/pan~;
#X obj 1299 71 ext13/kalashnikov 5;
#X obj 1186 95 ext13/kalashnikov 10;
#X obj 625 559 declare -lib moonlib -lib ekext -lib ext13 -lib ggee
-lib motex -lib zexy;
#X connect 1 0 3 0;
#X connect 2 0 207 0;
#X connect 3 0 4 0;
#X connect 3 0 37 0;
#X connect 3 0 39 0;
#X connect 4 0 221 0;
#X connect 5 0 7 0;
#X connect 6 0 209 0;
#X connect 7 0 8 0;
#X connect 7 0 40 0;
#X connect 7 0 41 0;
#X connect 8 0 220 0;
#X connect 9 0 11 0;
#X connect 10 0 201 0;
#X connect 11 0 12 0;
#X connect 11 0 44 0;
#X connect 11 0 45 0;
#X connect 12 0 219 0;
#X connect 13 0 15 0;
#X connect 14 0 203 0;
#X connect 15 0 16 0;
#X connect 15 0 46 0;
#X connect 15 0 47 0;
#X connect 16 0 218 0;
#X connect 17 0 19 0;
#X connect 18 0 205 0;
#X connect 19 0 20 0;
#X connect 19 0 52 0;
#X connect 19 0 53 0;
#X connect 20 0 217 0;
#X connect 21 0 3 1;
#X connect 22 0 2 0;
#X connect 23 0 7 1;
#X connect 24 0 6 0;
#X connect 25 0 11 1;
#X connect 26 0 10 0;
#X connect 27 0 15 1;
#X connect 28 0 14 0;
#X connect 29 0 19 1;
#X connect 30 0 18 0;
#X connect 31 0 125 0;
#X connect 31 1 118 1;
#X connect 31 2 118 2;
#X connect 31 3 118 0;
#X connect 31 4 100 0;
#X connect 32 0 33 0;
#X connect 34 0 31 0;
#X connect 36 0 37 1;
#X connect 37 0 57 0;
#X connect 38 0 39 1;
#X connect 39 0 60 0;
#X connect 40 0 57 0;
#X connect 41 0 60 0;
#X connect 42 0 40 1;
#X connect 43 0 41 1;
#X connect 44 0 57 0;
#X connect 45 0 60 0;
#X connect 46 0 57 0;
#X connect 47 0 60 0;
#X connect 48 0 44 1;
#X connect 49 0 45 1;
#X connect 50 0 46 1;
#X connect 51 0 47 1;
#X connect 52 0 57 0;
#X connect 53 0 60 0;
#X connect 54 0 52 1;
#X connect 55 0 53 1;
#X connect 56 0 57 1;
#X connect 57 0 62 0;
#X connect 58 0 56 0;
#X connect 59 0 60 1;
#X connect 60 0 63 0;
#X connect 61 0 59 0;
#X connect 61 0 197 0;
#X connect 82 0 86 1;
#X connect 83 0 82 0;
#X connect 84 0 86 0;
#X connect 84 1 83 0;
#X connect 85 0 223 0;
#X connect 85 1 82 1;
#X connect 86 0 87 0;
#X connect 87 0 69 0;
#X connect 87 1 70 0;
#X connect 87 2 71 0;
#X connect 87 3 72 0;
#X connect 87 4 73 0;
#X connect 87 5 74 0;
#X connect 87 6 75 0;
#X connect 87 7 76 0;
#X connect 87 8 77 0;
#X connect 87 9 78 0;
#X connect 88 0 85 0;
#X connect 89 0 85 0;
#X connect 90 0 221 1;
#X connect 91 0 220 1;
#X connect 97 0 219 1;
#X connect 98 0 218 1;
#X connect 99 0 217 1;
#X connect 100 0 31 0;
#X connect 101 0 108 0;
#X connect 101 0 114 0;
#X connect 101 1 109 0;
#X connect 101 1 116 0;
#X connect 102 0 108 0;
#X connect 102 0 114 0;
#X connect 103 0 109 0;
#X connect 103 0 116 0;
#X connect 104 0 103 1;
#X connect 104 0 102 1;
#X connect 105 0 104 0;
#X connect 105 0 101 2;
#X connect 106 0 107 0;
#X connect 110 0 106 0;
#X connect 112 0 92 0;
#X connect 112 0 93 0;
#X connect 112 0 94 0;
#X connect 112 0 95 0;
#X connect 112 0 96 0;
#X connect 113 0 112 0;
#X connect 114 0 115 0;
#X connect 114 0 195 0;
#X connect 115 0 168 0;
#X connect 115 0 180 0;
#X connect 116 0 117 0;
#X connect 116 0 196 0;
#X connect 117 0 169 0;
#X connect 117 0 189 0;
#X connect 118 0 35 0;
#X connect 120 0 119 0;
#X connect 120 1 121 0;
#X connect 120 2 122 0;
#X connect 120 3 123 0;
#X connect 120 4 124 0;
#X connect 125 0 64 0;
#X connect 125 1 69 0;
#X connect 125 2 70 0;
#X connect 125 3 65 0;
#X connect 125 4 71 0;
#X connect 125 5 72 0;
#X connect 125 6 66 0;
#X connect 125 7 73 0;
#X connect 125 8 74 0;
#X connect 125 9 67 0;
#X connect 125 10 75 0;
#X connect 125 11 76 0;
#X connect 125 12 68 0;
#X connect 125 13 77 0;
#X connect 125 14 78 0;
#X connect 125 15 79 0;
#X connect 125 16 80 0;
#X connect 125 17 81 0;
#X connect 125 18 85 0;
#X connect 125 19 92 0;
#X connect 125 20 93 0;
#X connect 125 21 94 0;
#X connect 125 22 95 0;
#X connect 125 23 96 0;
#X connect 125 24 111 0;
#X connect 125 25 174 0;
#X connect 125 26 120 0;
#X connect 126 0 131 0;
#X connect 126 1 133 0;
#X connect 126 2 127 0;
#X connect 127 0 128 0;
#X connect 128 0 129 0;
#X connect 128 1 130 1;
#X connect 129 0 130 1;
#X connect 130 0 131 1;
#X connect 131 0 132 0;
#X connect 132 0 92 0;
#X connect 132 1 93 0;
#X connect 132 2 94 0;
#X connect 132 3 95 0;
#X connect 132 4 96 0;
#X connect 133 0 130 0;
#X connect 134 0 222 0;
#X connect 134 1 133 1;
#X connect 135 0 134 0;
#X connect 136 0 134 0;
#X connect 172 0 175 1;
#X connect 174 0 177 0;
#X connect 174 1 173 0;
#X connect 175 0 134 0;
#X connect 176 0 175 0;
#X connect 178 0 179 1;
#X connect 179 0 182 1;
#X connect 179 0 178 1;
#X connect 180 0 179 0;
#X connect 180 1 178 0;
#X connect 181 0 183 0;
#X connect 181 1 182 0;
#X connect 182 0 168 1;
#X connect 183 0 178 1;
#X connect 184 0 186 0;
#X connect 185 0 184 0;
#X connect 185 0 200 0;
#X connect 186 0 181 0;
#X connect 186 0 190 0;
#X connect 187 0 188 1;
#X connect 188 0 191 1;
#X connect 188 0 187 1;
#X connect 189 0 188 0;
#X connect 189 1 187 0;
#X connect 190 0 192 0;
#X connect 190 1 191 0;
#X connect 191 0 169 1;
#X connect 191 0 193 0;
#X connect 192 0 187 1;
#X connect 200 0 198 0;
#X connect 200 0 199 0;
#X connect 201 0 202 0;
#X connect 202 0 12 1;
#X connect 203 0 204 0;
#X connect 204 0 16 1;
#X connect 205 0 206 0;
#X connect 206 0 20 1;
#X connect 207 0 208 0;
#X connect 208 0 4 1;
#X connect 209 0 210 0;
#X connect 210 0 8 1;
#X connect 217 0 102 0;
#X connect 217 0 101 0;
#X connect 217 1 103 0;
#X connect 217 1 101 1;
#X connect 218 0 102 0;
#X connect 218 0 101 0;
#X connect 218 1 103 0;
#X connect 218 1 101 1;
#X connect 219 0 102 0;
#X connect 219 0 101 0;
#X connect 219 1 103 0;
#X connect 219 1 101 1;
#X connect 220 0 102 0;
#X connect 220 0 101 0;
#X connect 220 1 103 0;
#X connect 220 1 101 1;
#X connect 221 0 102 0;
#X connect 221 0 101 0;
#X connect 221 1 103 0;
#X connect 221 1 101 1;
#X connect 222 1 126 0;
#X connect 223 1 84 0;
#X coords 0 -1 1 1 232 118 1 100 100;
