#N canvas 1 109 1278 637 10;
#X obj 11 117 cnv 15 310 98 empty empty empty 6 4 0 8 -225271 -13381
0;
#X obj 342 34 inlet~;
#X obj 358 115 dbtorms;
#X obj 342 75 *~;
#X obj 342 195 *~;
#X obj 451 35 inlet~;
#X obj 467 116 dbtorms;
#X obj 451 76 *~;
#X obj 451 196 *~;
#X obj 561 36 inlet~;
#X obj 577 117 dbtorms;
#X obj 561 77 *~;
#X obj 561 177 *~;
#X obj 668 37 inlet~;
#X obj 684 118 dbtorms;
#X obj 668 78 *~;
#X obj 668 178 *~;
#X obj 772 38 inlet~;
#X obj 788 119 dbtorms;
#X obj 772 79 *~;
#X obj 772 179 *~;
#X obj 358 55 r \$0-1_in;
#X obj 358 95 r \$0-1_in_vol;
#X obj 467 56 r \$0-2_in;
#X obj 467 96 r \$0-2_in_vol;
#X obj 577 57 r \$0-3_in;
#X obj 577 97 r \$0-3_in_vol;
#X obj 684 58 r \$0-4_in;
#X obj 684 98 r \$0-4_in_vol;
#X obj 788 59 r \$0-5_in;
#X obj 788 99 r \$0-5_in_vol;
#N canvas 6 90 890 652 patches 0;
#X obj 24 140 f;
#X obj 19 212 prepend add;
#X obj 19 232 t b a;
#X obj 91 319 msgfile;
#X msg 172 289 add patches 0;
#X obj 169 251 loadbang;
#X obj 76 436 route patches;
#X msg 106 238 goto 0;
#X obj 34 297 + 1;
#X obj 18 314 f;
#X msg 18 367 replace patches \$1;
#X msg 69 288 this;
#X obj 18 262 t b b b;
#X obj 346 217 t b f;
#X msg 361 241 goto \$1;
#X msg 326 240 this;
#X obj 453 251 r \$0-patches_load;
#X obj 453 268 openpanel;
#X msg 527 302 read \$1;
#X msg 483 302 goto 0;
#X msg 453 302 this;
#X obj 633 181 r \$0-patches_save;
#X obj 633 209 savepanel;
#X obj 632 238 makesymbol %s.txt;
#X msg 628 262 write \$1;
#X obj 80 406 route list;
#X obj 187 205 r \$0-patches_clear;
#X obj 187 221 t b b;
#X msg 359 278 clear;
#X obj 453 285 t b b a b;
#X obj 23 85 r \$0-patches_store;
#X obj 36 33 r \$0-1_in;
#X obj 50 52 r \$0-1_in_vol;
#X obj 138 31 r \$0-2_in;
#X obj 150 51 r \$0-2_in_vol;
#X obj 239 31 r \$0-3_in;
#X obj 246 50 r \$0-3_in_vol;
#X obj 308 29 r \$0-4_in;
#X obj 331 50 r \$0-4_in_vol;
#X obj 399 30 r \$0-5_in;
#X obj 414 51 r \$0-5_in_vol;
#X obj 65 453 s \$0-1_in-set;
#X obj 79 472 s \$0-1_in_vol-set;
#X obj 191 452 s \$0-2_in-set;
#X obj 203 472 s \$0-2_in_vol-set;
#X obj 220 499 s \$0-3_in-set;
#X obj 226 519 s \$0-3_in_vol-set;
#X obj 258 541 s \$0-4_in-set;
#X obj 285 561 s \$0-4_in_vol-set;
#X obj 313 469 s \$0-5_in-set;
#X obj 343 485 s \$0-5_in_vol-set;
#X obj 355 193 inlet;
#X obj 735 440 outlet;
#X msg 17 497 range 1 \$1;
#X obj 118 520 s \$0-patches-tot;
#X obj 475 33 r \$0-1_fx_1;
#X obj 495 49 r \$0-1_fx_2;
#X obj 547 32 r \$0-2_fx_1;
#X obj 567 48 r \$0-2_fx_2;
#X obj 620 31 r \$0-3_fx_1;
#X obj 640 47 r \$0-3_fx_2;
#X obj 692 31 r \$0-4_fx_1;
#X obj 712 47 r \$0-4_fx_2;
#X obj 766 31 r \$0-5_fx_1;
#X obj 786 47 r \$0-5_fx_2;
#X obj 510 95 r \$0-fx_1_vol;
#X obj 598 95 r \$0-fx_2_vol;
#X obj 359 386 s \$0-1_fx_1-set;
#X obj 379 402 s \$0-1_fx_2-set;
#X obj 400 427 s \$0-2_fx_1-set;
#X obj 420 443 s \$0-2_fx_2-set;
#X obj 452 464 s \$0-3_fx_1-set;
#X obj 472 480 s \$0-3_fx_2-set;
#X obj 494 504 s \$0-4_fx_1-set;
#X obj 514 520 s \$0-4_fx_2-set;
#X obj 546 543 s \$0-5_fx_1-set;
#X obj 566 559 s \$0-5_fx_2-set;
#X obj 510 385 s \$0-fx_1_vol-set;
#X obj 539 418 s \$0-fx_2_vol-set;
#X msg 576 322 1;
#X msg 638 339 100;
#X obj 613 310 r \$0-max;
#X obj 695 74 r \$0-pan_1;
#X obj 734 116 r \$0-pan_3;
#X obj 714 95 r \$0-pan_2;
#X obj 746 137 r \$0-pan_4;
#X obj 766 158 r \$0-pan_5;
#X obj 775 187 r \$0-limit;
#X obj 710 582 s \$0-limit-set;
#X obj 701 553 s \$0-pan_5-set;
#X obj 681 532 s \$0-pan_4-set;
#X obj 669 511 s \$0-pan_3-set;
#X obj 649 490 s \$0-pan_2-set;
#X obj 630 469 s \$0-pan_1-set;
#X obj 218 344 unpack f f f f f f f f f f f f f f f f f f f f f f f
f f f f f;
#X obj 767 361 random;
#X obj 413 195 route patch file randpatch;
#X obj 791 416 outlet;
#X obj 17 519 s \$0-patch-set;
#X obj 442 215 r \$0-patch;
#X obj 521 225 t b f b;
#X obj 628 288 outlet;
#X obj 580 281 outlet;
#X obj 404 264 outlet;
#X obj 24 163 pack f f f f f f f f f f f f f f f f f f f f f f f f
f f f f;
#X obj 22 187 list append;
#X obj 861 211 pack f f f f f f f f f f f f f f f f f f f f f f f f
;
#X obj 784 466 s \$0-1_fx_3-set;
#X obj 800 485 s \$0-2_fx_3-set;
#X obj 816 504 s \$0-3_fx_3-set;
#X obj 832 524 s \$0-4_fx_3-set;
#X obj 848 544 s \$0-5_fx_3-set;
#X obj 865 564 s \$0-6_in_vol-set;
#X obj 881 583 s \$0-6_fx_1-set;
#X obj 897 602 s \$0-6_fx_2-set;
#X obj 913 621 s \$0-6_fx_3-set;
#X obj 929 464 s \$0-7_in_vol-set;
#X obj 946 483 s \$0-7_fx_1-set;
#X obj 962 502 s \$0-7_fx_2-set;
#X obj 978 521 s \$0-7_fx_3-set;
#X obj 994 540 s \$0-8_in_vol-set;
#X obj 1010 559 s \$0-8_fx_1-set;
#X obj 1027 578 s \$0-8_fx_2-set;
#X obj 1043 597 s \$0-8_fx_3-set;
#X obj 1059 464 s \$0-fx_3_vol-set;
#X obj 1075 483 s \$0-pan_6-set;
#X obj 1091 502 s \$0-pan_7-set;
#X obj 1108 521 s \$0-pan_8-set;
#X obj 1124 540 s \$0-6_in-set;
#X obj 1140 559 s \$0-7_in-set;
#X obj 1156 578 s \$0-8_in-set;
#X obj 880 31 r \$0-1_fx_3;
#X obj 896 50 r \$0-2_fx_3;
#X obj 912 69 r \$0-3_fx_3;
#X obj 928 89 r \$0-4_fx_3;
#X obj 944 109 r \$0-5_fx_3;
#X obj 961 129 r \$0-6_in_vol;
#X obj 977 148 r \$0-6_fx_1;
#X obj 993 167 r \$0-6_fx_2;
#X obj 1009 186 r \$0-6_fx_3;
#X obj 1025 29 r \$0-7_in_vol;
#X obj 1042 48 r \$0-7_fx_1;
#X obj 1058 67 r \$0-7_fx_2;
#X obj 1074 86 r \$0-7_fx_3;
#X obj 1090 105 r \$0-8_in_vol;
#X obj 1106 124 r \$0-8_fx_1;
#X obj 1123 143 r \$0-8_fx_2;
#X obj 1139 162 r \$0-8_fx_3;
#X obj 1155 29 r \$0-fx_3_vol;
#X obj 1171 47 r \$0-pan_6;
#X obj 1187 67 r \$0-pan_7;
#X obj 1204 86 r \$0-pan_8;
#X obj 1220 105 r \$0-6_in;
#X obj 1236 124 r \$0-7_in;
#X obj 1252 143 r \$0-8_in;
#X obj 219 314 list split 28;
#X obj 830 361 unpack f f f f f f f f f f f f f f f f f f f f f f f
f;
#X connect 0 0 104 0;
#X connect 1 0 2 0;
#X connect 2 0 12 0;
#X connect 2 1 3 0;
#X connect 3 0 25 0;
#X connect 4 0 3 0;
#X connect 5 0 4 0;
#X connect 6 0 8 0;
#X connect 6 0 95 1;
#X connect 6 1 155 0;
#X connect 7 0 3 0;
#X connect 8 0 9 1;
#X connect 9 0 10 0;
#X connect 9 0 53 0;
#X connect 9 0 54 0;
#X connect 9 0 95 1;
#X connect 10 0 3 0;
#X connect 11 0 3 0;
#X connect 12 0 9 0;
#X connect 12 1 11 0;
#X connect 12 2 7 0;
#X connect 13 0 15 0;
#X connect 13 1 14 0;
#X connect 14 0 3 0;
#X connect 15 0 3 0;
#X connect 16 0 17 0;
#X connect 17 0 29 0;
#X connect 17 0 52 0;
#X connect 18 0 3 0;
#X connect 19 0 3 0;
#X connect 20 0 3 0;
#X connect 21 0 22 0;
#X connect 22 0 23 0;
#X connect 22 0 52 0;
#X connect 23 0 24 0;
#X connect 24 0 3 0;
#X connect 25 0 6 0;
#X connect 26 0 27 0;
#X connect 27 0 4 0;
#X connect 27 1 28 0;
#X connect 28 0 3 0;
#X connect 29 0 20 0;
#X connect 29 1 19 0;
#X connect 29 2 18 0;
#X connect 29 3 28 0;
#X connect 30 0 0 0;
#X connect 31 0 0 1;
#X connect 32 0 104 1;
#X connect 33 0 104 2;
#X connect 34 0 104 3;
#X connect 35 0 104 4;
#X connect 36 0 104 5;
#X connect 37 0 104 6;
#X connect 38 0 104 7;
#X connect 39 0 104 8;
#X connect 40 0 104 9;
#X connect 51 0 96 0;
#X connect 53 0 98 0;
#X connect 55 0 104 10;
#X connect 56 0 104 11;
#X connect 57 0 104 12;
#X connect 58 0 104 13;
#X connect 59 0 104 14;
#X connect 60 0 104 15;
#X connect 61 0 104 16;
#X connect 62 0 104 17;
#X connect 63 0 104 18;
#X connect 64 0 104 19;
#X connect 65 0 104 20;
#X connect 66 0 104 21;
#X connect 79 0 41 0;
#X connect 79 0 43 0;
#X connect 79 0 45 0;
#X connect 79 0 47 0;
#X connect 79 0 49 0;
#X connect 79 0 128 0;
#X connect 79 0 129 0;
#X connect 79 0 130 0;
#X connect 80 0 42 0;
#X connect 80 0 44 0;
#X connect 80 0 46 0;
#X connect 80 0 48 0;
#X connect 80 0 50 0;
#X connect 80 0 112 0;
#X connect 80 0 116 0;
#X connect 80 0 120 0;
#X connect 81 0 79 0;
#X connect 81 0 80 0;
#X connect 82 0 104 22;
#X connect 83 0 104 24;
#X connect 84 0 104 23;
#X connect 85 0 104 25;
#X connect 86 0 104 26;
#X connect 87 0 104 27;
#X connect 94 0 41 0;
#X connect 94 1 42 0;
#X connect 94 2 43 0;
#X connect 94 3 44 0;
#X connect 94 4 45 0;
#X connect 94 5 46 0;
#X connect 94 6 47 0;
#X connect 94 7 48 0;
#X connect 94 8 49 0;
#X connect 94 9 50 0;
#X connect 94 10 67 0;
#X connect 94 11 68 0;
#X connect 94 12 69 0;
#X connect 94 13 70 0;
#X connect 94 14 71 0;
#X connect 94 15 72 0;
#X connect 94 16 73 0;
#X connect 94 17 74 0;
#X connect 94 18 75 0;
#X connect 94 19 76 0;
#X connect 94 20 77 0;
#X connect 94 21 78 0;
#X connect 94 22 93 0;
#X connect 94 23 92 0;
#X connect 94 24 91 0;
#X connect 94 25 90 0;
#X connect 94 26 89 0;
#X connect 94 27 88 0;
#X connect 95 0 97 0;
#X connect 96 0 98 0;
#X connect 96 1 29 0;
#X connect 96 2 95 0;
#X connect 96 3 103 0;
#X connect 99 0 100 0;
#X connect 100 0 102 0;
#X connect 100 1 13 0;
#X connect 100 2 101 0;
#X connect 104 0 105 0;
#X connect 105 0 1 0;
#X connect 106 0 105 1;
#X connect 131 0 106 0;
#X connect 132 0 106 1;
#X connect 133 0 106 2;
#X connect 134 0 106 3;
#X connect 135 0 106 4;
#X connect 136 0 106 5;
#X connect 137 0 106 6;
#X connect 138 0 106 7;
#X connect 139 0 106 8;
#X connect 140 0 106 9;
#X connect 141 0 106 10;
#X connect 142 0 106 11;
#X connect 143 0 106 12;
#X connect 144 0 106 13;
#X connect 145 0 106 14;
#X connect 146 0 106 15;
#X connect 147 0 106 16;
#X connect 148 0 106 17;
#X connect 149 0 106 18;
#X connect 150 0 106 19;
#X connect 151 0 106 20;
#X connect 152 0 106 21;
#X connect 153 0 106 22;
#X connect 154 0 106 23;
#X connect 155 0 94 0;
#X connect 155 1 156 0;
#X connect 156 0 107 0;
#X connect 156 1 108 0;
#X connect 156 2 109 0;
#X connect 156 3 110 0;
#X connect 156 4 111 0;
#X connect 156 5 112 0;
#X connect 156 6 113 0;
#X connect 156 7 114 0;
#X connect 156 8 115 0;
#X connect 156 9 116 0;
#X connect 156 10 117 0;
#X connect 156 11 118 0;
#X connect 156 12 119 0;
#X connect 156 13 120 0;
#X connect 156 14 121 0;
#X connect 156 15 122 0;
#X connect 156 16 123 0;
#X connect 156 17 124 0;
#X connect 156 18 125 0;
#X connect 156 19 126 0;
#X connect 156 20 127 0;
#X connect 156 21 128 0;
#X connect 156 22 129 0;
#X connect 156 23 130 0;
#X restore 1480 44 pd patches;
#X obj 1313 44 bng 15 250 50 0 empty empty empty 0 -6 0 8 -262144 -1
-1;
#X obj 1310 69 s \$0-patches_clear;
#X obj 1511 24 inlet;
#X obj 1480 152 outlet;
#X obj 416 253 r \$0-1_fx_1;
#X obj 403 285 *~;
#X obj 436 269 r \$0-1_fx_2;
#X obj 423 285 *~;
#X obj 494 285 *~;
#X obj 514 285 *~;
#X obj 507 253 r \$0-2_fx_1;
#X obj 527 269 r \$0-2_fx_2;
#X obj 586 285 *~;
#X obj 606 285 *~;
#X obj 677 285 *~;
#X obj 697 285 *~;
#X obj 599 253 r \$0-3_fx_1;
#X obj 619 269 r \$0-3_fx_2;
#X obj 690 253 r \$0-4_fx_1;
#X obj 710 269 r \$0-4_fx_2;
#X obj 777 285 *~;
#X obj 797 285 *~;
#X obj 790 253 r \$0-5_fx_1;
#X obj 810 269 r \$0-5_fx_2;
#X obj 544 381 dbtorms;
#X obj 528 401 *~;
#X obj 544 361 r \$0-fx_1_vol;
#X obj 632 381 dbtorms;
#X obj 616 401 *~;
#X obj 632 361 r \$0-fx_2_vol;
#X obj 529 422 outlet~;
#X obj 616 423 outlet~;
#X obj 1106 357 s \$0-1_in_vol-set;
#X obj 1230 357 s \$0-2_in_vol-set;
#X obj 1253 404 s \$0-3_in_vol-set;
#X obj 1312 446 s \$0-4_in_vol-set;
#X obj 1370 370 s \$0-5_in_vol-set;
#X obj 1386 271 s \$0-1_fx_1-set;
#X obj 1406 287 s \$0-1_fx_2-set;
#X obj 1427 312 s \$0-2_fx_1-set;
#X obj 1447 328 s \$0-2_fx_2-set;
#X obj 1479 349 s \$0-3_fx_1-set;
#X obj 1499 365 s \$0-3_fx_2-set;
#X obj 1521 389 s \$0-4_fx_1-set;
#X obj 1541 405 s \$0-4_fx_2-set;
#X obj 1573 428 s \$0-5_fx_1-set;
#X obj 1593 444 s \$0-5_fx_2-set;
#X obj 1537 270 s \$0-fx_1_vol-set;
#X obj 1566 303 s \$0-fx_2_vol-set;
#X obj 1608 250 s \$0-max-bng;
#X obj 1620 154 < 50;
#X obj 1620 134 random 100;
#X obj 1593 114 t f b;
#X obj 1553 74 t b f;
#X obj 1599 174 pack;
#X obj 1599 191 route 0 1 2 3 4 5 6 7 8 9;
#X obj 333 363 pan~;
#X obj 376 359 r \$0-pan_1;
#X obj 356 235 pan~;
#X obj 377 215 r \$0-pan_2;
#X obj 452 224 pan~;
#X obj 519 225 pan~;
#X obj 1615 341 s \$0-pan_1-set;
#X obj 1634 364 s \$0-pan_2-set;
#X obj 1655 385 s \$0-pan_3-set;
#X obj 1674 406 s \$0-pan_4-set;
#X obj 1691 429 s \$0-pan_5-set;
#X obj 473 204 r \$0-pan_3;
#X obj 540 205 r \$0-pan_4;
#X obj 594 224 pan~;
#X obj 615 204 r \$0-pan_5;
#X msg 1560 45 patch \$1;
#N canvas 1 74 450 300 limiting 0;
#X obj 301 79 inlet;
#X obj 297 118 switch~;
#X obj 92 99 limiter~ 10 2;
#X obj 67 154 *~;
#X obj 98 154 *~;
#X obj 115 133 z~ 64;
#X obj 67 134 z~ 64;
#X obj 91 44 inlet~;
#X obj 180 44 inlet~;
#X obj 67 213 outlet~;
#X obj 127 211 outlet~;
#X connect 0 0 1 0;
#X connect 2 0 3 1;
#X connect 2 0 4 0;
#X connect 3 0 9 0;
#X connect 4 0 10 0;
#X connect 5 0 4 1;
#X connect 6 0 3 0;
#X connect 7 0 2 0;
#X connect 7 0 6 0;
#X connect 8 0 2 1;
#X connect 8 0 5 0;
#X restore 351 486 pd limiting;
#X obj 282 450 *~ 1;
#X obj 315 450 *~ 1;
#X obj 374 428 == 0;
#X obj 407 404 r \$0-limit;
#X msg 795 559 0;
#X obj 793 591 s \$0-limit-set;
#X obj 274 531 outlet~;
#X obj 342 528 outlet~;
#X obj 785 510 loadbang;
#X obj 1693 259 s \$0-limit-set;
#X msg 1685 308 0;
#X obj 1682 285 loadbang;
#X obj 460 459 env~;
#X obj 422 485 - 100;
#X obj 509 459 env~;
#X obj 509 482 - 100;
#N canvas 1 74 1059 644 auto_out 0;
#X obj 73 37 r \$0-1_in;
#X obj 123 58 r \$0-1_in_vol;
#X obj 398 66 r \$0-fx_1_vol;
#X obj 486 66 r \$0-fx_2_vol;
#X obj 615 74 r \$0-pan_1;
#X obj 654 116 r \$0-pan_3;
#X obj 634 95 r \$0-pan_2;
#X obj 666 137 r \$0-pan_4;
#X obj 686 158 r \$0-pan_5;
#X obj 730 187 r \$0-limit;
#X obj 693 548 outlet;
#X obj 18 124 inlet;
#X obj 173 78 r \$0-2_in;
#X obj 223 99 r \$0-2_in_vol;
#X obj 273 119 r \$0-3_in;
#X obj 323 140 r \$0-3_in_vol;
#X obj 373 160 r \$0-4_in;
#X obj 423 181 r \$0-4_in_vol;
#X obj 473 201 r \$0-5_in;
#X obj 523 222 r \$0-5_in_vol;
#X obj 83 124 r \$0-1_fx_1;
#X obj 133 145 r \$0-1_fx_2;
#X obj 183 165 r \$0-2_fx_1;
#X obj 233 186 r \$0-2_fx_2;
#X obj 283 206 r \$0-3_fx_1;
#X obj 333 227 r \$0-3_fx_2;
#X obj 383 247 r \$0-4_fx_1;
#X obj 433 268 r \$0-4_fx_2;
#X obj 479 289 r \$0-5_fx_1;
#X obj 534 310 r \$0-5_fx_2;
#X obj 18 163 prepend file;
#X msg 73 58 in1 \$1;
#X msg 123 78 v1 \$1;
#X msg 173 99 in2 \$1;
#X msg 223 119 v2 \$1;
#X msg 273 140 in3 \$1;
#X msg 323 160 v3 \$1;
#X msg 373 181 in4 \$1;
#X msg 423 201 v4 \$1;
#X msg 473 222 in5 \$1;
#X msg 523 242 v5 \$1;
#X msg 83 145 a1a1 \$1;
#X msg 133 165 a1a2 \$1;
#X msg 183 186 a2a1 \$1;
#X msg 233 206 a2a2 \$1;
#X msg 283 227 a3a1 \$1;
#X msg 333 247 a3a2 \$1;
#X msg 383 268 a4a1 \$1;
#X msg 433 289 a4a2 \$1;
#X msg 479 310 a5a1 \$1;
#X msg 534 330 a5a2 \$1;
#X msg 417 107 send1 \$1;
#X msg 505 107 send2 \$1;
#X msg 632 207 pan1 \$1;
#X msg 652 227 pan2 \$1;
#X msg 672 248 pan3 \$1;
#X msg 692 268 pan4 \$1;
#X msg 712 289 pan5 \$1;
#X msg 732 309 limit \$1;
#X obj 691 505 spigot;
#X obj 835 395 inlet;
#X obj 899 396 inlet;
#X msg 900 431 0;
#X msg 832 430 1;
#X obj 955 395 loadbang;
#X msg 454 451 env_l \$1;
#X msg 524 451 env_r \$1;
#X obj 454 430 r \$0-envl;
#X obj 524 430 r \$0-envr;
#X obj 846 65 r \$0-1_fx_3;
#X obj 862 84 r \$0-2_fx_3;
#X obj 878 103 r \$0-3_fx_3;
#X obj 894 123 r \$0-4_fx_3;
#X obj 910 143 r \$0-5_fx_3;
#X obj 927 163 r \$0-6_in_vol;
#X obj 943 182 r \$0-6_fx_1;
#X obj 959 201 r \$0-6_fx_2;
#X obj 975 220 r \$0-6_fx_3;
#X obj 991 63 r \$0-7_in_vol;
#X obj 1008 82 r \$0-7_fx_1;
#X obj 1024 101 r \$0-7_fx_2;
#X obj 1040 120 r \$0-7_fx_3;
#X obj 1056 139 r \$0-8_in_vol;
#X obj 1072 158 r \$0-8_fx_1;
#X obj 1089 177 r \$0-8_fx_2;
#X obj 1105 196 r \$0-8_fx_3;
#X obj 1121 63 r \$0-fx_3_vol;
#X obj 1137 81 r \$0-pan_6;
#X obj 1153 101 r \$0-pan_7;
#X obj 1170 120 r \$0-pan_8;
#X obj 1186 139 r \$0-6_in;
#X obj 1202 158 r \$0-7_in;
#X obj 1218 177 r \$0-8_in;
#X msg 843 222 a5a3 \$1;
#X msg 833 200 a4a3 \$1;
#X msg 817 180 a3a3 \$1;
#X msg 800 157 a2a3 \$1;
#X msg 787 135 a1a3 \$1;
#X msg 861 244 v6 \$1;
#X msg 873 268 a6a1 \$1;
#X msg 887 289 a6a2 \$1;
#X msg 901 310 a6a3 \$1;
#X msg 991 255 v7 \$1;
#X msg 1003 279 a7a1 \$1;
#X msg 1016 300 a7a2 \$1;
#X msg 1028 325 a7a3 \$1;
#X msg 1039 347 v8 \$1;
#X msg 1048 371 a8a1 \$1;
#X msg 1062 393 a8a2 \$1;
#X msg 1071 415 a8a3 \$1;
#X msg 1176 309 in6 \$1;
#X msg 1180 331 in7 \$1;
#X msg 1190 355 in8 \$1;
#X msg 1165 289 pan8 \$1;
#X msg 1151 270 pan7 \$1;
#X msg 1138 249 pan6 \$1;
#X msg 1124 228 send3 \$1;
#X connect 0 0 31 0;
#X connect 1 0 32 0;
#X connect 2 0 51 0;
#X connect 3 0 52 0;
#X connect 4 0 53 0;
#X connect 5 0 55 0;
#X connect 6 0 54 0;
#X connect 7 0 56 0;
#X connect 8 0 57 0;
#X connect 9 0 58 0;
#X connect 11 0 30 0;
#X connect 12 0 33 0;
#X connect 13 0 34 0;
#X connect 14 0 35 0;
#X connect 15 0 36 0;
#X connect 16 0 37 0;
#X connect 17 0 38 0;
#X connect 18 0 39 0;
#X connect 19 0 40 0;
#X connect 20 0 41 0;
#X connect 21 0 42 0;
#X connect 22 0 43 0;
#X connect 23 0 44 0;
#X connect 24 0 45 0;
#X connect 25 0 46 0;
#X connect 26 0 47 0;
#X connect 27 0 48 0;
#X connect 28 0 49 0;
#X connect 29 0 50 0;
#X connect 30 0 10 0;
#X connect 31 0 59 0;
#X connect 32 0 59 0;
#X connect 33 0 59 0;
#X connect 34 0 59 0;
#X connect 35 0 59 0;
#X connect 36 0 59 0;
#X connect 37 0 59 0;
#X connect 38 0 59 0;
#X connect 39 0 59 0;
#X connect 40 0 59 0;
#X connect 41 0 59 0;
#X connect 42 0 59 0;
#X connect 43 0 59 0;
#X connect 44 0 59 0;
#X connect 45 0 59 0;
#X connect 46 0 59 0;
#X connect 47 0 59 0;
#X connect 48 0 59 0;
#X connect 49 0 59 0;
#X connect 50 0 59 0;
#X connect 51 0 59 0;
#X connect 52 0 59 0;
#X connect 53 0 59 0;
#X connect 54 0 59 0;
#X connect 55 0 59 0;
#X connect 56 0 59 0;
#X connect 57 0 59 0;
#X connect 58 0 59 0;
#X connect 59 0 10 0;
#X connect 60 0 63 0;
#X connect 61 0 62 0;
#X connect 62 0 59 1;
#X connect 63 0 59 1;
#X connect 64 0 63 0;
#X connect 65 0 59 0;
#X connect 66 0 59 0;
#X connect 67 0 65 0;
#X connect 68 0 66 0;
#X connect 69 0 97 0;
#X connect 70 0 96 0;
#X connect 71 0 95 0;
#X connect 72 0 94 0;
#X connect 73 0 93 0;
#X connect 74 0 98 0;
#X connect 75 0 99 0;
#X connect 76 0 100 0;
#X connect 77 0 101 0;
#X connect 78 0 102 0;
#X connect 79 0 103 0;
#X connect 80 0 104 0;
#X connect 81 0 105 0;
#X connect 82 0 106 0;
#X connect 83 0 107 0;
#X connect 84 0 108 0;
#X connect 85 0 109 0;
#X connect 86 0 116 0;
#X connect 87 0 115 0;
#X connect 88 0 114 0;
#X connect 89 0 113 0;
#X connect 90 0 110 0;
#X connect 91 0 111 0;
#X connect 92 0 112 0;
#X connect 93 0 59 0;
#X connect 94 0 59 0;
#X connect 95 0 59 0;
#X connect 96 0 59 0;
#X connect 97 0 59 0;
#X connect 98 0 59 0;
#X connect 99 0 59 0;
#X connect 100 0 59 0;
#X connect 101 0 59 0;
#X connect 102 0 59 0;
#X connect 103 0 59 0;
#X connect 104 0 59 0;
#X connect 105 0 59 0;
#X connect 106 0 59 0;
#X connect 107 0 59 0;
#X connect 108 0 59 0;
#X connect 109 0 59 0;
#X connect 110 0 59 0;
#X connect 111 0 59 0;
#X connect 112 0 59 0;
#X connect 113 0 59 0;
#X connect 114 0 59 0;
#X connect 115 0 59 0;
#X connect 116 0 59 0;
#X restore 1480 125 pd auto_out;
#X obj 1426 601 s \$0-1_in-set;
#X obj 1432 466 route in1 in2 in3 in4 in5;
#X obj 1455 582 s \$0-2_in-set;
#X obj 1476 560 s \$0-3_in-set;
#X obj 1505 541 s \$0-4_in-set;
#X obj 1527 522 s \$0-5_in-set;
#X obj 1223 195 route v1 a1a1 a1a2 v2 a2a1 a2a2 v3 a3a1 a3a2 v4 a4a1
a4a2 v5 a5a1 a5a2 send1 send2 max randroute p1 p2 p3 p4 p5 limit randpan
;
#X obj 1669 91 t f b b;
#X obj 1777 96 random 2;
#X obj 1775 118 sel 0;
#X msg 1776 141 -1;
#X obj 1688 133 *;
#X obj 1667 153 pack;
#X obj 1688 113 random 46;
#X obj 1629 51 t b f;
#X obj 191 103 cnv 15 130 98 empty empty empty 6 4 0 8 -225271 -13381
0;
#X obj 15 123 tgl 15 0 \$0-1_in \$0-1_in-set empty 0 -6 0 8 -24198
-42246 -42246 0 1;
#X obj 41 123 tgl 15 0 \$0-2_in \$0-2_in-set empty 0 -6 0 8 -28068
-1109 -1109 0 1;
#X obj 67 123 tgl 15 0 \$0-3_in \$0-3_in-set empty 0 -6 0 8 -28088
-1109 -1109 0 1;
#X obj 92 123 tgl 15 0 \$0-4_in \$0-4_in-set empty 0 -6 0 8 -27324
-355 -355 0 1;
#X obj 118 123 tgl 15 0 \$0-5_in \$0-5_in-set empty 0 -6 0 8 -109248
-355 -355 0 1;
#X obj 15 143 vsl 15 26 0 100 0 0 \$0-1_in_vol \$0-1_in_vol-set empty
0 -8 0 8 -24198 -42246 -42246 0 0;
#X obj 41 143 vsl 15 26 0 100 0 0 \$0-2_in_vol \$0-2_in_vol-set empty
0 -8 0 8 -28068 -42246 -42246 0 0;
#X obj 67 143 vsl 15 26 0 100 0 0 \$0-3_in_vol \$0-3_in_vol-set empty
0 -8 0 8 -28088 -1109 -1109 0 0;
#X obj 92 143 vsl 15 26 0 100 0 0 \$0-4_in_vol \$0-4_in_vol-set empty
0 -8 0 8 -27324 -355 -355 0 0;
#X obj 118 143 vsl 15 26 0 100 0 0 \$0-5_in_vol \$0-5_in_vol-set empty
0 -8 0 8 -109248 -355 -355 0 0;
#X obj 233 200 bng 10 250 50 0 \$0-patches_load \$0-patches_load-bng
L 12 6 0 8 -118749 -1410 -13381;
#X obj 252 200 bng 10 250 50 0 \$0-patches_save \$0-patches_save-set
S 12 6 0 7 -260390 -86277 -86277;
#X obj 215 200 bng 10 250 50 0 \$0-patches_store \$0-patches_store-set
+ 12 6 0 7 -44926 -143491 -42246;
#X obj 15 198 nbx 3 12 -1e+37 1e+37 0 0 \$0-dum \$0-dumn empty 0 -6
0 7 -262144 -1 -1 0 256;
#X obj 15 198 nbx 3 12 0 1e+37 0 0 \$0-patches-dummy \$0-patches-tot
patches 31 6 0 8 -221174 -143491 -1 0 256;
#X obj 84 198 nbx 3 12 0 1e+37 0 0 \$0-patch \$0-patch-set pat 31 6
0 8 -221174 -143491 -1 0 256;
#X obj 30 141 tgl 8 0 \$0-1_fx_1 \$0-1_fx_1-set f 3 -13 0 8 -211520
-90133 -90133 0 1;
#X obj 30 152 tgl 8 0 \$0-1_fx_2 \$0-1_fx_2-set x 3 -19 0 8 -260524
-143491 -143491 0 1;
#X obj 223 117 vsl 12 51 0 100 0 0 \$0-fx_1_vol \$0-fx_1_vol-set 1-aux-
0 -7 0 7 -211520 -90133 -90133 4800 0;
#X obj 238 117 vsl 12 51 0 100 0 0 \$0-fx_2_vol \$0-fx_2_vol-set 2
9 -7 0 7 -260525 -143491 -143491 4800 0;
#X obj 56 141 tgl 8 0 \$0-2_fx_1 \$0-2_fx_1-set f 3 -13 0 8 -211520
-90133 -90133 0 1;
#X obj 56 152 tgl 8 0 \$0-2_fx_2 \$0-2_fx_2-set x 3 -19 0 8 -260524
-143491 -143491 0 1;
#X obj 82 141 tgl 8 0 \$0-3_fx_1 \$0-3_fx_1-set f 3 -13 0 8 -211520
-90133 -90133 0 1;
#X obj 82 152 tgl 8 0 \$0-3_fx_2 \$0-3_fx_2-set x 3 -19 0 8 -260524
-143491 -143491 0 1;
#X obj 107 141 tgl 8 0 \$0-4_fx_1 \$0-4_fx_1-set f 3 -13 0 8 -211520
-90133 -90133 0 1;
#X obj 107 152 tgl 8 0 \$0-4_fx_2 \$0-4_fx_2-set x 3 -19 0 8 -260524
-143491 -143491 0 1;
#X obj 133 141 tgl 8 0 \$0-5_fx_1 \$0-5_fx_1-set f 3 -13 0 8 -211520
-90133 -90133 0 1;
#X obj 133 152 tgl 8 0 \$0-5_fx_2 \$0-5_fx_2-set x 3 -19 0 8 -260524
-143491 -143491 0 1;
#X obj 195 106 bng 8 250 50 0 \$0-max \$0-max-bng max 10 4 0 8 -1 -262131
-258699;
#X obj 279 106 tgl 10 0 \$0-limit \$0-limit-set limit 13 5 0 8 -204786
-14854 -13381 0 1;
#X obj 274 122 vu 8 80 empty empty -1 -8 0 8 -1 -1 0 0;
#X obj 286 122 vu 8 80 empty empty -1 -8 0 8 -1 -1 1 0;
#X obj 230 177 bng 8 250 50 0 \$0-randpan \$0-randpan-bng random 10
4 0 8 -1 -262131 -258699;
#X obj 243 186 nbx 2 8 1 46 0 0 \$0-rpan-num \$0-rpan-set empty 0 -8
0 8 -262144 -1 -1 1 256;
#X obj 1269 109 r \$0-rpan-num;
#X obj 1495 174 s \$0-rpan-set;
#X obj 1412 150 t b f;
#X obj 1260 137 f;
#X obj 1223 87 r \$0-randpan;
#X obj 1368 173 s \$0-randpan-bng;
#X obj 423 546 f;
#X obj 397 546 max;
#X obj 401 523 t f b;
#X obj 370 575 t b b;
#X obj 404 609 f;
#X msg 368 601 -200;
#X msg 225 532 1;
#X obj 151 497 loadbang;
#X obj 279 554 metro 500;
#X obj 540 568 f;
#X obj 514 568 max;
#X obj 518 545 t f b;
#X obj 487 597 t b b;
#X obj 521 631 f;
#X msg 485 623 -200;
#X floatatom 530 660 5 0 0 0 - - -;
#X floatatom 570 614 5 0 0 0 - - -;
#X obj 618 553 s \$0-envl;
#X obj 678 554 s \$0-envr;
#X obj 70 615 s \$0-fx_1_vol-set;
#X obj 94 594 s \$0-fx_2_vol-set;
#X msg 76 560 96;
#X obj 577 137 pack f 20;
#X obj 577 157 line~;
#X obj 687 137 pack f 20;
#X obj 687 157 line~;
#X obj 787 139 pack f 20;
#X obj 787 159 line~;
#X obj 357 137 pack f 20;
#X obj 357 157 line~;
#X obj 457 139 pack f 20;
#X obj 457 159 line~;
#X text 217 172 <-;
#X obj 166 33 import moonlib;
#X obj 15 175 mknob 20 181 -45 45 0 0 \$0-pan_1 \$0-pan_1-set empty
-2 -6 192 8 -24198 -42246 -1 9000 1;
#X obj 40 175 mknob 20 181 -45 45 0 0 \$0-pan_2 \$0-pan_2-set empty
-2 -6 192 8 -28068 -42246 -1 9000 1;
#X obj 65 175 mknob 20 181 -45 45 0 0 \$0-pan_3 \$0-pan_3-set empty
-2 -6 192 8 -28088 -1109 -1 9000 1;
#X obj 91 175 mknob 20 181 -45 45 0 0 \$0-pan_4 \$0-pan_4-set empty
-2 -6 192 8 -27324 -355 -1 9000 1;
#X obj 117 175 mknob 20 181 -45 45 0 0 \$0-pan_5 \$0-pan_5-set empty
-2 -6 192 8 -109248 -355 -1 9000 1;
#X obj 891 36 inlet~;
#X obj 907 117 dbtorms;
#X obj 891 77 *~;
#X obj 891 177 *~;
#X obj 998 37 inlet~;
#X obj 1014 118 dbtorms;
#X obj 998 78 *~;
#X obj 998 178 *~;
#X obj 1102 38 inlet~;
#X obj 1118 119 dbtorms;
#X obj 1102 79 *~;
#X obj 1102 179 *~;
#X obj 916 285 *~;
#X obj 936 285 *~;
#X obj 1007 285 *~;
#X obj 1027 285 *~;
#X obj 1107 285 *~;
#X obj 1127 285 *~;
#X obj 782 224 pan~;
#X obj 849 225 pan~;
#X obj 924 224 pan~;
#X obj 907 137 pack f 20;
#X obj 907 157 line~;
#X obj 1017 137 pack f 20;
#X obj 1017 157 line~;
#X obj 1117 139 pack f 20;
#X obj 1117 159 line~;
#X obj 907 57 r \$0-6_in;
#X obj 1014 58 r \$0-7_in;
#X obj 1118 59 r \$0-8_in;
#X obj 1118 99 r \$0-8_in_vol;
#X obj 1014 98 r \$0-7_in_vol;
#X obj 907 97 r \$0-6_in_vol;
#X obj 803 204 r \$0-pan_6;
#X obj 870 205 r \$0-pan_7;
#X obj 945 204 r \$0-pan_8;
#X obj 929 253 r \$0-6_fx_1;
#X obj 949 269 r \$0-6_fx_2;
#X obj 1020 253 r \$0-7_fx_1;
#X obj 1040 269 r \$0-7_fx_2;
#X obj 1120 253 r \$0-8_fx_1;
#X obj 1140 269 r \$0-8_fx_2;
#X obj 443 325 *~;
#X obj 534 325 *~;
#X obj 626 325 *~;
#X obj 717 325 *~;
#X obj 817 325 *~;
#X obj 956 325 *~;
#X obj 1047 325 *~;
#X obj 1147 325 *~;
#X obj 456 309 r \$0-1_fx_3;
#X obj 547 309 r \$0-2_fx_3;
#X obj 639 309 r \$0-3_fx_3;
#X obj 730 309 r \$0-4_fx_3;
#X obj 830 309 r \$0-5_fx_3;
#X obj 969 309 r \$0-6_fx_3;
#X obj 1059 309 r \$0-7_fx_3;
#X obj 1160 309 r \$0-8_fx_3;
#X obj 732 381 dbtorms;
#X obj 716 401 *~;
#X obj 716 423 outlet~;
#X obj 732 361 r \$0-fx_3_vol;
#X obj 144 123 tgl 15 0 \$0-6_in \$0-6_in-set empty 0 -6 0 8 -178624
-74523 -1109 0 1;
#X obj 169 123 tgl 15 0 \$0-7_in \$0-7_in-set empty 0 -6 0 8 -198839
-82705 -355 0 1;
#X obj 195 123 tgl 15 0 \$0-8_in \$0-8_in-set empty 0 -6 0 8 -227501
-107281 -355 0 1;
#X obj 144 143 vsl 15 26 0 100 0 0 \$0-6_in_vol \$0-6_in_vol-set empty
0 -8 0 8 -178624 -74523 -1109 0 0;
#X obj 169 143 vsl 15 26 0 100 0 0 \$0-7_in_vol \$0-7_in_vol-set empty
0 -8 0 8 -198839 -82705 -355 0 0;
#X obj 195 143 vsl 15 26 0 100 0 0 \$0-8_in_vol \$0-8_in_vol-set empty
0 -8 0 8 -227501 -107281 -355 0 0;
#X obj 159 141 tgl 8 0 \$0-6_fx_1 \$0-6_fx_1-set f 3 -13 0 8 -211520
-90133 -90133 0 1;
#X obj 159 152 tgl 8 0 \$0-6_fx_2 \$0-6_fx_2-set x 3 -19 0 8 -260524
-143491 -143491 0 1;
#X obj 184 141 tgl 8 0 \$0-7_fx_1 \$0-7_fx_1-set f 3 -13 0 8 -211520
-90133 -90133 0 1;
#X obj 184 152 tgl 8 0 \$0-7_fx_2 \$0-7_fx_2-set x 3 -19 0 8 -260524
-143491 -143491 0 1;
#X obj 210 141 tgl 8 0 \$0-8_fx_1 \$0-8_fx_1-set f 3 -13 0 8 -211520
-90133 -90133 0 1;
#X obj 210 152 tgl 8 0 \$0-8_fx_2 \$0-8_fx_2-set x 3 -19 0 8 -260524
-143491 -143491 0 1;
#X obj 142 175 mknob 20 181 -45 45 0 0 \$0-pan_6 \$0-pan_6-set empty
-2 -6 192 8 -178624 -74523 -1 0 1;
#X obj 168 175 mknob 20 181 -45 45 0 0 \$0-pan_7 \$0-pan_7-set empty
-2 -6 192 8 -198839 -82705 -1 0 1;
#X obj 194 175 mknob 20 181 -45 45 0 0 \$0-pan_8 \$0-pan_8-set empty
-2 -6 192 8 -227501 -107281 -1 0 1;
#X obj 30 163 tgl 8 0 \$0-1_fx_3 \$0-1_fx_3-set empty 3 -19 0 8 -180012
-13381 -143491 0 1;
#X obj 56 163 tgl 8 0 \$0-2_fx_3 \$0-2_fx_3-set empty 3 -19 0 8 -180012
-13381 -143491 0 1;
#X obj 82 163 tgl 8 0 \$0-3_fx_3 \$0-3_fx_3-set empty 3 -19 0 8 -180012
-13381 -143491 0 1;
#X obj 107 163 tgl 8 0 \$0-4_fx_3 \$0-4_fx_3-set empty 3 -19 0 8 -180012
-13381 -143491 0 1;
#X obj 133 163 tgl 8 0 \$0-5_fx_3 \$0-5_fx_3-set empty 3 -19 0 8 -180012
-13381 -13381 0 1;
#X obj 159 163 tgl 8 0 \$0-6_fx_3 \$0-6_fx_3-set empty 3 -19 0 8 -180012
-13381 -143491 0 1;
#X obj 184 163 tgl 8 0 \$0-7_fx_3 \$0-7_fx_3-set empty 3 -19 0 8 -180012
-13381 -143491 0 1;
#X obj 210 163 tgl 8 0 \$0-8_fx_3 \$0-8_fx_3-set empty 3 -19 0 8 -180012
-13381 -143491 0 1;
#X obj 1646 466 route a1a3 a2a3 a3a3 a4a3 a5a3 v6 a6a1 a6a2 a6a3 v7
a7a1 a7a2 a7a3 v8 a8a1 a8a2 a8a3 send3 p6 p7 p8 in6 in7 in8;
#X obj 253 117 vsl 12 51 0 100 0 0 \$0-fx_3_vol \$0-fx_3_vol-set 3
5 -7 0 7 -180012 -13381 -13381 0 0;
#X obj 1646 508 s \$0-1_fx_3-set;
#X obj 1662 527 s \$0-2_fx_3-set;
#X obj 1678 546 s \$0-3_fx_3-set;
#X obj 1694 566 s \$0-4_fx_3-set;
#X obj 1710 586 s \$0-5_fx_3-set;
#X obj 1727 606 s \$0-6_in_vol-set;
#X obj 1743 625 s \$0-6_fx_1-set;
#X obj 1759 644 s \$0-6_fx_2-set;
#X obj 1775 663 s \$0-6_fx_3-set;
#X obj 1791 506 s \$0-7_in_vol-set;
#X obj 1808 525 s \$0-7_fx_1-set;
#X obj 1824 544 s \$0-7_fx_2-set;
#X obj 1840 563 s \$0-7_fx_3-set;
#X obj 1856 582 s \$0-8_in_vol-set;
#X obj 1872 601 s \$0-8_fx_1-set;
#X obj 1889 620 s \$0-8_fx_2-set;
#X obj 1905 639 s \$0-8_fx_3-set;
#X obj 1921 506 s \$0-fx_3_vol-set;
#X obj 1937 525 s \$0-pan_6-set;
#X obj 1953 544 s \$0-pan_7-set;
#X obj 1970 563 s \$0-pan_8-set;
#X obj 1986 582 s \$0-6_in-set;
#X obj 2002 601 s \$0-7_in-set;
#X obj 2018 620 s \$0-8_in-set;
#X obj 1765 225 route 10 11 12 13 14 15 16 17 18 19 20 21 22 23;
#X obj 1553 94 kalashnikov 24;
#X obj 1629 71 kalashnikov 8;
#X obj 1667 171 route 0 1 2 3 4 5 6 7;
#X connect 1 0 3 0;
#X connect 2 0 206 0;
#X connect 3 0 4 0;
#X connect 3 0 37 0;
#X connect 3 0 39 0;
#X connect 3 0 259 0;
#X connect 4 0 88 0;
#X connect 5 0 7 0;
#X connect 6 0 208 0;
#X connect 7 0 8 0;
#X connect 7 0 40 0;
#X connect 7 0 41 0;
#X connect 7 0 260 0;
#X connect 8 0 90 0;
#X connect 9 0 11 0;
#X connect 10 0 200 0;
#X connect 11 0 12 0;
#X connect 11 0 44 0;
#X connect 11 0 45 0;
#X connect 11 0 261 0;
#X connect 12 0 92 0;
#X connect 13 0 15 0;
#X connect 14 0 202 0;
#X connect 15 0 16 0;
#X connect 15 0 46 0;
#X connect 15 0 47 0;
#X connect 15 0 262 0;
#X connect 16 0 93 0;
#X connect 17 0 19 0;
#X connect 18 0 204 0;
#X connect 19 0 20 0;
#X connect 19 0 52 0;
#X connect 19 0 53 0;
#X connect 19 0 263 0;
#X connect 20 0 101 0;
#X connect 21 0 3 1;
#X connect 22 0 2 0;
#X connect 23 0 7 1;
#X connect 24 0 6 0;
#X connect 25 0 11 1;
#X connect 26 0 10 0;
#X connect 27 0 15 1;
#X connect 28 0 14 0;
#X connect 29 0 19 1;
#X connect 30 0 18 0;
#X connect 31 0 128 0;
#X connect 31 1 121 1;
#X connect 31 2 121 2;
#X connect 31 3 121 0;
#X connect 31 4 103 0;
#X connect 32 0 33 0;
#X connect 34 0 31 0;
#X connect 36 0 37 1;
#X connect 37 0 57 0;
#X connect 38 0 39 1;
#X connect 39 0 60 0;
#X connect 40 0 57 0;
#X connect 41 0 60 0;
#X connect 42 0 40 1;
#X connect 43 0 41 1;
#X connect 44 0 57 0;
#X connect 45 0 60 0;
#X connect 46 0 57 0;
#X connect 47 0 60 0;
#X connect 48 0 44 1;
#X connect 49 0 45 1;
#X connect 50 0 46 1;
#X connect 51 0 47 1;
#X connect 52 0 57 0;
#X connect 53 0 60 0;
#X connect 54 0 52 1;
#X connect 55 0 53 1;
#X connect 56 0 57 1;
#X connect 57 0 62 0;
#X connect 58 0 56 0;
#X connect 59 0 60 1;
#X connect 60 0 63 0;
#X connect 61 0 59 0;
#X connect 82 0 86 1;
#X connect 83 0 82 0;
#X connect 84 0 86 0;
#X connect 84 1 83 0;
#X connect 85 0 329 0;
#X connect 85 1 82 1;
#X connect 86 0 87 0;
#X connect 87 0 69 0;
#X connect 87 1 70 0;
#X connect 87 2 71 0;
#X connect 87 3 72 0;
#X connect 87 4 73 0;
#X connect 87 5 74 0;
#X connect 87 6 75 0;
#X connect 87 7 76 0;
#X connect 87 8 77 0;
#X connect 87 9 78 0;
#X connect 87 10 328 0;
#X connect 88 0 105 0;
#X connect 88 0 104 0;
#X connect 88 1 106 0;
#X connect 88 1 104 1;
#X connect 89 0 88 1;
#X connect 90 0 105 0;
#X connect 90 0 104 0;
#X connect 90 1 106 0;
#X connect 90 1 104 1;
#X connect 91 0 90 1;
#X connect 92 0 105 0;
#X connect 92 0 104 0;
#X connect 92 1 106 0;
#X connect 92 1 104 1;
#X connect 93 0 105 0;
#X connect 93 0 104 0;
#X connect 93 1 106 0;
#X connect 93 1 104 1;
#X connect 99 0 92 1;
#X connect 100 0 93 1;
#X connect 101 0 105 0;
#X connect 101 0 104 0;
#X connect 101 1 106 0;
#X connect 101 1 104 1;
#X connect 102 0 101 1;
#X connect 103 0 31 0;
#X connect 104 0 111 0;
#X connect 104 0 117 0;
#X connect 104 1 112 0;
#X connect 104 1 119 0;
#X connect 105 0 111 0;
#X connect 105 0 117 0;
#X connect 106 0 112 0;
#X connect 106 0 119 0;
#X connect 107 0 106 1;
#X connect 107 0 105 1;
#X connect 108 0 107 0;
#X connect 108 0 104 2;
#X connect 109 0 110 0;
#X connect 113 0 109 0;
#X connect 115 0 94 0;
#X connect 115 0 95 0;
#X connect 115 0 96 0;
#X connect 115 0 97 0;
#X connect 115 0 98 0;
#X connect 116 0 115 0;
#X connect 117 0 118 0;
#X connect 117 0 195 0;
#X connect 118 0 168 0;
#X connect 118 0 180 0;
#X connect 119 0 120 0;
#X connect 119 0 196 0;
#X connect 120 0 169 0;
#X connect 120 0 189 0;
#X connect 121 0 35 0;
#X connect 123 0 122 0;
#X connect 123 1 124 0;
#X connect 123 2 125 0;
#X connect 123 3 126 0;
#X connect 123 4 127 0;
#X connect 123 5 302 0;
#X connect 128 0 64 0;
#X connect 128 1 69 0;
#X connect 128 2 70 0;
#X connect 128 3 65 0;
#X connect 128 4 71 0;
#X connect 128 5 72 0;
#X connect 128 6 66 0;
#X connect 128 7 73 0;
#X connect 128 8 74 0;
#X connect 128 9 67 0;
#X connect 128 10 75 0;
#X connect 128 11 76 0;
#X connect 128 12 68 0;
#X connect 128 13 77 0;
#X connect 128 14 78 0;
#X connect 128 15 79 0;
#X connect 128 16 80 0;
#X connect 128 17 81 0;
#X connect 128 18 85 0;
#X connect 128 19 94 0;
#X connect 128 20 95 0;
#X connect 128 21 96 0;
#X connect 128 22 97 0;
#X connect 128 23 98 0;
#X connect 128 24 114 0;
#X connect 128 25 174 0;
#X connect 128 26 123 0;
#X connect 129 0 134 0;
#X connect 129 1 135 0;
#X connect 129 2 130 0;
#X connect 130 0 131 0;
#X connect 131 0 132 0;
#X connect 131 1 133 1;
#X connect 132 0 133 1;
#X connect 133 0 134 1;
#X connect 134 0 331 0;
#X connect 135 0 133 0;
#X connect 136 0 330 0;
#X connect 136 1 135 1;
#X connect 172 0 175 1;
#X connect 174 0 177 0;
#X connect 174 1 173 0;
#X connect 175 0 136 0;
#X connect 176 0 175 0;
#X connect 178 0 179 1;
#X connect 179 0 182 1;
#X connect 179 0 178 1;
#X connect 180 0 179 0;
#X connect 180 1 178 0;
#X connect 181 0 183 0;
#X connect 181 1 182 0;
#X connect 182 0 168 1;
#X connect 183 0 178 1;
#X connect 184 0 186 0;
#X connect 185 0 184 0;
#X connect 185 0 199 0;
#X connect 186 0 181 0;
#X connect 186 0 190 0;
#X connect 187 0 188 1;
#X connect 188 0 191 1;
#X connect 188 0 187 1;
#X connect 189 0 188 0;
#X connect 189 1 187 0;
#X connect 190 0 192 0;
#X connect 190 1 191 0;
#X connect 191 0 169 1;
#X connect 191 0 193 0;
#X connect 192 0 187 1;
#X connect 199 0 197 0;
#X connect 199 0 198 0;
#X connect 200 0 201 0;
#X connect 201 0 12 1;
#X connect 202 0 203 0;
#X connect 203 0 16 1;
#X connect 204 0 205 0;
#X connect 205 0 20 1;
#X connect 206 0 207 0;
#X connect 207 0 4 1;
#X connect 208 0 209 0;
#X connect 209 0 8 1;
#X connect 217 0 219 0;
#X connect 218 0 238 0;
#X connect 219 0 220 0;
#X connect 219 0 229 0;
#X connect 219 0 230 0;
#X connect 219 0 264 0;
#X connect 220 0 235 0;
#X connect 221 0 223 0;
#X connect 222 0 240 0;
#X connect 223 0 224 0;
#X connect 223 0 231 0;
#X connect 223 0 232 0;
#X connect 223 0 265 0;
#X connect 224 0 236 0;
#X connect 225 0 227 0;
#X connect 226 0 242 0;
#X connect 227 0 228 0;
#X connect 227 0 233 0;
#X connect 227 0 234 0;
#X connect 227 0 266 0;
#X connect 228 0 237 0;
#X connect 229 0 57 0;
#X connect 230 0 60 0;
#X connect 231 0 57 0;
#X connect 232 0 60 0;
#X connect 233 0 57 0;
#X connect 234 0 60 0;
#X connect 235 0 105 0;
#X connect 235 0 104 0;
#X connect 235 1 106 0;
#X connect 235 1 104 1;
#X connect 236 0 105 0;
#X connect 236 0 104 0;
#X connect 236 1 106 0;
#X connect 236 1 104 1;
#X connect 237 0 105 0;
#X connect 237 0 104 0;
#X connect 237 1 106 0;
#X connect 237 1 104 1;
#X connect 238 0 239 0;
#X connect 239 0 220 1;
#X connect 240 0 241 0;
#X connect 241 0 224 1;
#X connect 242 0 243 0;
#X connect 243 0 228 1;
#X connect 244 0 219 1;
#X connect 245 0 223 1;
#X connect 246 0 227 1;
#X connect 247 0 226 0;
#X connect 248 0 222 0;
#X connect 249 0 218 0;
#X connect 250 0 235 1;
#X connect 251 0 236 1;
#X connect 252 0 237 1;
#X connect 253 0 229 1;
#X connect 254 0 230 1;
#X connect 255 0 231 1;
#X connect 256 0 232 1;
#X connect 257 0 233 1;
#X connect 258 0 234 1;
#X connect 259 0 276 0;
#X connect 260 0 276 0;
#X connect 261 0 276 0;
#X connect 262 0 276 0;
#X connect 263 0 276 0;
#X connect 264 0 276 0;
#X connect 265 0 276 0;
#X connect 266 0 276 0;
#X connect 267 0 259 1;
#X connect 268 0 260 1;
#X connect 269 0 261 1;
#X connect 270 0 262 1;
#X connect 271 0 263 1;
#X connect 272 0 264 1;
#X connect 273 0 265 1;
#X connect 274 0 266 1;
#X connect 275 0 276 1;
#X connect 276 0 277 0;
#X connect 278 0 275 0;
#X connect 302 0 304 0;
#X connect 302 1 305 0;
#X connect 302 2 306 0;
#X connect 302 3 307 0;
#X connect 302 4 308 0;
#X connect 302 5 309 0;
#X connect 302 6 310 0;
#X connect 302 7 311 0;
#X connect 302 8 312 0;
#X connect 302 9 313 0;
#X connect 302 10 314 0;
#X connect 302 11 315 0;
#X connect 302 12 316 0;
#X connect 302 13 317 0;
#X connect 302 14 318 0;
#X connect 302 15 319 0;
#X connect 302 16 320 0;
#X connect 302 17 321 0;
#X connect 302 18 322 0;
#X connect 302 19 323 0;
#X connect 302 20 324 0;
#X connect 302 21 325 0;
#X connect 302 22 326 0;
#X connect 302 23 327 0;
#X connect 328 0 304 0;
#X connect 328 1 305 0;
#X connect 328 2 306 0;
#X connect 328 3 307 0;
#X connect 328 4 308 0;
#X connect 328 5 310 0;
#X connect 328 6 311 0;
#X connect 328 7 312 0;
#X connect 328 8 314 0;
#X connect 328 9 315 0;
#X connect 328 10 316 0;
#X connect 328 11 318 0;
#X connect 328 12 319 0;
#X connect 328 13 320 0;
#X connect 329 1 84 0;
#X connect 330 1 129 0;
#X connect 331 0 94 0;
#X connect 331 1 95 0;
#X connect 331 2 96 0;
#X connect 331 3 97 0;
#X connect 331 4 98 0;
#X connect 331 5 322 0;
#X connect 331 6 323 0;
#X connect 331 7 324 0;
#X coords 0 -1 1 1 312 118 1 10 100;
