#N canvas 8 89 949 669 10;
#X declare -path motex -lib zexy;
#X obj 19 278 *~;
#X obj 35 170 dbtorms;
#X obj 35 18 inlet~;
#X obj 19 489 outlet~;
#X obj 78 489 outlet~;
#X obj 24 150 r \$0-volume-num;
#X obj 346 240 r \$0-pan-num;
#X obj 301 119 cnv 15 141 83 empty empty empty 6 5 0 8 -261681 -123526
0;
#X obj 306 162 hsl 57 12 0 112 0 0 \$0-volume \$0-volume-set volume
7 6 0 8 -261689 -258699 -143491 5000 1;
#X obj 303 174 nbx 3 10 0 124 0 0 \$0-volume-num \$0-volume empty 0
-6 0 8 -261689 -143491 -143491 100 256;
#X obj 376 162 hsl 57 12 -1 1 0 0 \$0-pan \$0-pan-set pan 17 6 0 8
-228992 -62784 -355 2800 1;
#X obj 410 174 nbx 3 10 -1e+37 1e+37 0 0 \$0-pan-num \$0-pan empty
0 -6 0 8 -228992 -355 -355 0 256;
#X msg 556 77 100;
#X msg 612 61 0;
#X obj 589 25 loadbang;
#X obj 555 101 s \$0-volume-set;
#X obj 610 80 s \$0-pan-set;
#X obj 19 465 pansig~;
#X obj 306 122 hsl 61 12 0.1 100 1 0 \$0-lfo_v_freq \$0-lfo_v_freq-set
vf 12 6 1 10 -261221 -201729 -136005 0 0;
#X obj 303 150 nbx 4 10 0.001 9999 0 0 \$0-lfo_v_freq-num \$0-lfo_v_freq
empty 0 -6 0 8 -261221 -201729 -136005 0.1 256;
#X obj 306 136 hsl 61 12 0 100 0 0 \$0-lfo_v_amp \$0-lfo_v_amp-set
va 12 6 1 10 -261221 -201729 -136005 0 0;
#X obj 340 150 nbx 3 10 0 124 0 0 \$0-lfo_v_amp-num \$0-lfo_v_amp empty
0 -6 0 8 -261221 -201729 -136005 0 256;
#X obj 120 200 osc~;
#X obj 120 60 r \$0-lfo_v_freq-num;
#X obj 120 80 pack f 30;
#X obj 120 100 line~;
#X obj 34 246 -~;
#X obj 120 220 *~;
#X obj 180 180 pack f 30;
#X obj 180 200 line~;
#X obj 180 80 r \$0-lfo_v_amp-num;
#X obj 375 122 hsl 61 12 0.1 100 1 0 \$0-lfo_p_freq \$0-lfo_p_freq-set
pf 12 6 1 10 -150656 -1074 -17250 0 0;
#X obj 375 136 hsl 61 12 0 1 0 0 \$0-lfo_p_amp \$0-lfo_p_amp-set pa
12 6 1 10 -150656 -1074 -17250 0 0;
#X obj 180 100 dbtorms;
#X obj 372 150 nbx 4 10 0.001 9999 0 0 \$0-lfo_p_freq-num \$0-lfo_p_freq
empty 0 -6 0 8 -150656 -1074 -17250 0.1 256;
#X obj 409 150 nbx 3 10 0 1 0 0 \$0-lfo_p_amp-num \$0-lfo_p_amp empty
0 -6 0 8 -150656 -1074 -17250 0 256;
#X obj 170 280 osc~;
#X obj 170 240 pack f 30;
#X obj 170 260 line~;
#X obj 170 340 *~;
#X obj 230 280 pack f 30;
#X obj 230 300 line~;
#X obj 58 444 +~;
#X obj 170 220 r \$0-lfo_p_freq-num;
#X obj 230 240 r \$0-lfo_p_amp-num;
#X obj 385 280 t b f;
#X msg 385 297 1;
#X obj 385 314 -;
#X obj 230 260 *;
#X obj 346 335 t b f;
#X obj 180 140 t f f;
#X obj 180 160 +;
#X obj 180 120 / 2;
#X obj 346 260 moses 0;
#X msg 227 403 -0.8;
#X floatatom 208 452 5 0 0 0 - - -;
#X msg 192 403 1;
#X obj 207 429 +;
#X obj 346 280 t b f;
#X msg 346 297 1;
#X obj 346 314 +;
#X obj 58 379 r \$0-pan-num;
#X obj 58 399 pack f 30;
#X obj 58 419 line~;
#X obj 35 190 pack f 30;
#X obj 35 210 line~;
#N canvas 59 123 1040 567 patches 0;
#X obj 24 140 f;
#X obj 21 97 r \$0-store_patch;
#X obj 22 199 prepend add;
#X obj 19 232 t b a;
#X obj 89 321 msgfile;
#X obj 356 382 spigot;
#X msg 400 381 0;
#X msg 401 364 1;
#X msg 172 289 add patches 0;
#X obj 169 251 loadbang;
#X obj 80 551 route patches;
#X msg 106 238 goto 0;
#X obj 34 297 + 1;
#X obj 18 314 f;
#X msg 18 367 replace patches \$1;
#X msg 69 288 this;
#X obj 18 262 t b b b;
#X msg 573 327 range 1 \$1;
#X obj 346 217 t b f;
#X msg 361 241 goto \$1;
#X msg 326 240 this;
#X obj 453 251 r \$0-patches_load;
#X obj 453 268 openpanel;
#X msg 527 302 read \$1;
#X msg 483 302 goto 0;
#X msg 453 302 this;
#X obj 633 181 r \$0-patches_save;
#X obj 633 209 savepanel;
#X obj 632 238 makesymbol %s.txt;
#X msg 630 282 write \$1;
#X msg 226 222 print;
#X obj 81 521 route list;
#X obj 453 285 t b b a b;
#X msg 469 362 clear;
#X obj 281 171 r \$0-patches_clear;
#X obj 279 197 t b b;
#X obj 846 125 inlet;
#X obj 849 373 outlet;
#X obj 813 170 symbol;
#X obj 910 161 inlet;
#X obj 963 418 random;
#X obj 981 510 outlet;
#X obj 450 120 r \$0-patch-num;
#X obj 356 399 s \$0-patches-num;
#X obj 573 344 s \$0-patch-set;
#X obj 195 465 t f f;
#X obj 36 33 r \$0-volume-num;
#X obj 50 52 r \$0-pan-num;
#X obj 134 33 r \$0-lfo_v_freq-num;
#X obj 158 52 r \$0-lfo_v_amp-num;
#X obj 169 71 r \$0-lfo_p_freq-num;
#X obj 178 90 r \$0-lfo_p_amp-num;
#X obj 31 451 s \$0-volume-set;
#X obj 79 472 s \$0-pan-set;
#X obj 163 513 s \$0-lfo_v_freq;
#X obj 219 493 s \$0-lfo_v_freq-set;
#X obj 385 465 t f f;
#X obj 353 513 s \$0-lfo_p_freq;
#X obj 409 493 s \$0-lfo_p_freq-set;
#X obj 238 457 s \$0-lfo_v_amp-set;
#X obj 418 437 s \$0-lfo_p_amp-set;
#X obj 24 177 pack f f f f f f f;
#X obj 199 115 r \$0-limit;
#X obj 238 333 unpack f f f f f f f;
#X obj 487 404 s \$0-limit-set;
#X obj 434 173 t b f b;
#X obj 431 206 outlet;
#X obj 489 206 outlet;
#X obj 468 230 outlet;
#X connect 0 0 61 0;
#X connect 1 0 0 0;
#X connect 2 0 3 0;
#X connect 3 0 16 0;
#X connect 3 1 4 0;
#X connect 4 0 31 0;
#X connect 5 0 6 0;
#X connect 5 0 17 0;
#X connect 5 0 43 0;
#X connect 6 0 5 1;
#X connect 7 0 5 1;
#X connect 8 0 4 0;
#X connect 9 0 8 0;
#X connect 10 0 12 0;
#X connect 10 0 5 0;
#X connect 10 0 40 1;
#X connect 10 1 63 0;
#X connect 11 0 4 0;
#X connect 12 0 13 1;
#X connect 13 0 14 0;
#X connect 13 0 17 0;
#X connect 13 0 40 1;
#X connect 13 0 43 0;
#X connect 14 0 4 0;
#X connect 15 0 4 0;
#X connect 16 0 13 0;
#X connect 16 1 15 0;
#X connect 16 2 11 0;
#X connect 17 0 44 0;
#X connect 18 0 20 0;
#X connect 18 1 19 0;
#X connect 19 0 4 0;
#X connect 20 0 4 0;
#X connect 21 0 22 0;
#X connect 22 0 32 0;
#X connect 22 0 37 0;
#X connect 23 0 4 0;
#X connect 24 0 4 0;
#X connect 25 0 4 0;
#X connect 26 0 27 0;
#X connect 27 0 28 0;
#X connect 28 0 29 0;
#X connect 28 0 37 0;
#X connect 29 0 4 0;
#X connect 30 0 4 0;
#X connect 31 0 10 0;
#X connect 32 0 25 0;
#X connect 32 1 24 0;
#X connect 32 1 7 0;
#X connect 32 2 23 0;
#X connect 32 3 33 0;
#X connect 33 0 4 0;
#X connect 34 0 35 0;
#X connect 35 0 8 0;
#X connect 35 1 33 0;
#X connect 36 0 38 0;
#X connect 38 0 32 0;
#X connect 39 0 40 0;
#X connect 40 0 41 0;
#X connect 42 0 65 0;
#X connect 45 0 54 0;
#X connect 45 1 55 0;
#X connect 46 0 0 1;
#X connect 47 0 61 1;
#X connect 48 0 61 2;
#X connect 49 0 61 3;
#X connect 50 0 61 4;
#X connect 51 0 61 5;
#X connect 56 0 57 0;
#X connect 56 1 58 0;
#X connect 61 0 2 0;
#X connect 62 0 61 5;
#X connect 63 0 52 0;
#X connect 63 1 53 0;
#X connect 63 2 45 0;
#X connect 63 3 59 0;
#X connect 63 4 56 0;
#X connect 63 5 60 0;
#X connect 63 6 64 0;
#X connect 65 0 66 0;
#X connect 65 1 18 0;
#X connect 65 1 68 0;
#X connect 65 2 67 0;
#X restore 611 310 pd patches;
#X obj 571 129 inlet;
#X obj 643 434 outlet;
#X obj 571 199 route patch file;
#X obj 571 332 s \$0-patch-set;
#X msg 678 310 patch \$1;
#N canvas 16 119 637 332 automation 0;
#X obj 62 31 inlet;
#X obj 558 167 outlet;
#X obj 195 215 t f f;
#X obj 31 201 s \$0-volume-set;
#X obj 79 222 s \$0-pan-set;
#X obj 163 263 s \$0-lfo_v_freq;
#X obj 219 243 s \$0-lfo_v_freq-set;
#X obj 385 215 t f f;
#X obj 353 263 s \$0-lfo_p_freq;
#X obj 409 243 s \$0-lfo_p_freq-set;
#X obj 238 207 s \$0-lfo_v_amp-set;
#X obj 418 187 s \$0-lfo_p_amp-set;
#X obj 38 81 route vol pan vf va pf pa randpat vphase pphase;
#X obj 373 129 s \$0-vphase;
#X obj 395 110 s \$0-pphase;
#X connect 0 0 12 0;
#X connect 2 0 5 0;
#X connect 2 1 6 0;
#X connect 7 0 8 0;
#X connect 7 1 9 0;
#X connect 12 0 3 0;
#X connect 12 1 4 0;
#X connect 12 2 2 0;
#X connect 12 3 10 0;
#X connect 12 4 7 0;
#X connect 12 5 11 0;
#X connect 12 6 1 0;
#X connect 12 7 13 0;
#X connect 12 8 14 0;
#X restore 662 265 pd automation;
#N canvas 6 75 621 448 auto_out 0;
#X obj 121 97 r \$0-volume-num;
#X obj 171 115 r \$0-pan-num;
#X obj 221 136 r \$0-lfo_v_freq-num;
#X obj 271 157 r \$0-lfo_v_amp-num;
#X obj 321 178 r \$0-lfo_p_freq-num;
#X obj 371 199 r \$0-lfo_p_amp-num;
#X obj 40 371 outlet;
#X obj 16 211 inlet;
#X obj 16 232 prepend file;
#X msg 140 137 vol \$1;
#X msg 185 162 pan \$1;
#X msg 240 178 vf \$1;
#X msg 290 199 va \$1;
#X msg 340 220 pf \$1;
#X msg 390 241 pa \$1;
#X msg 448 300 patch \$1;
#X obj 448 52 inlet;
#X obj 492 54 inlet;
#X obj 540 55 inlet;
#X msg 535 86 0;
#X msg 437 84 1;
#X obj 45 270 spigot;
#X obj 368 56 loadbang;
#X connect 0 0 9 0;
#X connect 1 0 10 0;
#X connect 2 0 11 0;
#X connect 3 0 12 0;
#X connect 4 0 13 0;
#X connect 5 0 14 0;
#X connect 7 0 8 0;
#X connect 8 0 6 0;
#X connect 9 0 21 0;
#X connect 10 0 21 0;
#X connect 11 0 21 0;
#X connect 12 0 21 0;
#X connect 13 0 21 0;
#X connect 14 0 21 0;
#X connect 15 0 6 0;
#X connect 16 0 20 0;
#X connect 17 0 15 0;
#X connect 18 0 19 0;
#X connect 19 0 21 1;
#X connect 20 0 21 1;
#X connect 21 0 6 0;
#X connect 22 0 20 0;
#X restore 618 371 pd auto_out;
#X obj 664 57 s mixpanlfo;
#X obj 301 188 cnv 15 141 23 empty empty empty 20 12 0 14 -183672 -66577
0;
#X obj 303 197 nbx 3 12 0 120 0 0 empty empty empty -2 -6 0 7 -257472
-1109 -90133 0 256;
#X obj 345 197 nbx 3 12 1 2 0 0 \$0-patch-num \$0-patch-set select
0 -5 0 7 -17235 -261234 -17235 1 256;
#X obj 390 197 bng 12 250 50 0 \$0-store_patch \$0-store_patch-bng
store -3 -5 0 7 -17235 -262130 -17235;
#X obj 411 192 bng 10 250 50 0 \$0-patches_load \$0-patches_load-bng
load -5 16 0 7 -2498 -262144 -13381;
#X obj 424 192 bng 10 250 50 0 \$0-patches_save \$0-patches_save-bng
save 0 16 0 7 -159809 -262144 -86277;
#X obj 303 197 nbx 3 12 0 120 0 0 \$0-patches-dummy \$0-patches-num
patches 0 -5 0 7 -17235 -203904 -17235 0 256;
#X obj 376 201 bng 8 250 50 0 \$0-store_plus \$0-store_plus-bng + 2
-4 0 7 -17235 -198336 -17235;
#X obj 334 201 bng 8 250 50 0 \$0-store_minus \$0-store_minus-bng -
1 -5 0 10 -17235 -257985 -17235;
#X obj 439 36 s \$0-lfo_p_freq-set;
#X obj 415 10 s \$0-lfo_v_freq-set;
#X obj 364 176 tgl 10 0 \$0-limit \$0-limit-set limit 11 6 0 8 -86277
-261234 -86277 0 1;
#N canvas 0 0 450 300 limiting 0;
#X obj 301 79 inlet;
#X obj 297 118 switch~;
#X obj 67 154 *~;
#X obj 67 134 z~ 64;
#X obj 91 44 inlet~;
#X obj 67 213 outlet~;
#X obj 92 99 limiter~;
#X connect 0 0 1 0;
#X connect 2 0 5 0;
#X connect 3 0 2 0;
#X connect 4 0 3 0;
#X connect 4 0 6 0;
#X connect 6 0 2 1;
#X restore 54 48 pd limiting;
#X obj 339 8 r \$0-limit;
#X obj 82 11 == 0;
#X obj 18 49 *~ 1;
#X msg 537 172 limit \$1;
#X msg 140 176 0;
#X msg 193 299 0;
#X obj 78 263 r \$0-vphase;
#X obj 88 285 r \$0-pphase;
#X obj 392 476 declare -path motex -lib zexy;
#X connect 0 0 17 0;
#X connect 1 0 64 0;
#X connect 2 0 87 0;
#X connect 2 0 90 0;
#X connect 5 0 1 0;
#X connect 6 0 53 0;
#X connect 12 0 15 0;
#X connect 13 0 16 0;
#X connect 14 0 12 0;
#X connect 14 0 13 0;
#X connect 14 0 74 0;
#X connect 14 0 85 0;
#X connect 14 0 84 0;
#X connect 17 0 3 0;
#X connect 17 1 4 0;
#X connect 22 0 27 0;
#X connect 23 0 24 0;
#X connect 24 0 25 0;
#X connect 25 0 22 0;
#X connect 26 0 0 1;
#X connect 27 0 26 1;
#X connect 28 0 29 0;
#X connect 29 0 27 1;
#X connect 30 0 33 0;
#X connect 33 0 52 0;
#X connect 36 0 39 0;
#X connect 37 0 38 0;
#X connect 38 0 36 0;
#X connect 39 0 42 1;
#X connect 40 0 41 0;
#X connect 41 0 39 1;
#X connect 42 0 17 1;
#X connect 43 0 37 0;
#X connect 44 0 48 0;
#X connect 45 0 46 0;
#X connect 45 1 47 1;
#X connect 46 0 47 0;
#X connect 47 0 49 0;
#X connect 48 0 40 0;
#X connect 49 0 48 0;
#X connect 49 1 48 1;
#X connect 50 0 51 0;
#X connect 50 1 51 1;
#X connect 51 0 28 0;
#X connect 52 0 50 0;
#X connect 53 0 58 0;
#X connect 53 1 45 0;
#X connect 54 0 57 1;
#X connect 56 0 57 0;
#X connect 57 0 55 0;
#X connect 58 0 59 0;
#X connect 58 1 60 1;
#X connect 59 0 60 0;
#X connect 60 0 49 0;
#X connect 61 0 62 0;
#X connect 62 0 63 0;
#X connect 63 0 42 0;
#X connect 64 0 65 0;
#X connect 65 0 26 0;
#X connect 66 0 73 1;
#X connect 66 1 73 2;
#X connect 66 2 73 3;
#X connect 66 3 73 0;
#X connect 66 4 71 0;
#X connect 67 0 69 0;
#X connect 69 0 70 0;
#X connect 69 1 66 0;
#X connect 69 2 72 0;
#X connect 71 0 69 0;
#X connect 72 0 66 1;
#X connect 73 0 68 0;
#X connect 87 0 0 0;
#X connect 88 0 89 0;
#X connect 88 0 91 0;
#X connect 88 0 87 1;
#X connect 89 0 90 1;
#X connect 90 0 0 0;
#X connect 91 0 68 0;
#X connect 92 0 22 1;
#X connect 94 0 22 1;
#X connect 95 0 36 1;
#X coords 0 -1 1 1 143 110 1 300 104;
