#N canvas 481 283 870 433 10;
#X declare -lib motex;
#X obj 97 238 *~;
#X obj 143 90 dbtorms;
#X obj 84 74 inlet~;
#X obj 57 339 outlet~;
#X obj 197 223 * 45;
#X obj 116 339 outlet~;
#X obj 301 114 cnv 15 70 29 empty empty empty 6 6 0 7 -261681 -123526
0;
#X obj 308 115 hsl 57 12 0 112 0 0 \$0-volume \$0-volume-set volume=100
4 6 0 8 -261689 -258699 -86147 5000 1;
#X obj 306 130 hsl 61 12 -1 1 0 0 \$0-pan \$0-pan-set pan=0 5 6 0 8
-228992 -62784 -355 3000 1;
#X obj 120 210 sig~;
#X msg 355 249 100;
#X msg 392 251 0;
#X obj 369 215 loadbang;
#X obj 335 291 s \$0-volume-set;
#X obj 390 270 s \$0-pan-set;
#X obj 445 222 inlet;
#X obj 396 165 outlet;
#X obj 581 352 s \$0-volume-set;
#X msg 579 318 label \$1;
#X obj 589 234 r \$0-volume;
#X msg 719 318 label \$1;
#X obj 713 165 r \$0-pan;
#X obj 721 352 s \$0-pan-set;
#X obj 247 33 r \$0-pan;
#X obj 112 25 r \$0-volume;
#X obj 713 191 * 1000;
#X obj 712 214 i;
#X obj 716 238 * 0.001;
#X msg 382 90 pan \$1;
#X msg 415 71 vol \$1;
#X obj 444 245 route vol pan;
#X obj 534 50 declare -lib motex;
#X obj 98 268 motex/pan~;
#X obj 595 277 makefilename volume=%s;
#X obj 735 277 makefilename pan=%s;
#X connect 0 0 32 0;
#X connect 1 0 9 0;
#X connect 2 0 0 0;
#X connect 4 0 32 1;
#X connect 9 0 0 1;
#X connect 10 0 13 0;
#X connect 11 0 14 0;
#X connect 12 0 10 0;
#X connect 12 0 11 0;
#X connect 15 0 30 0;
#X connect 18 0 17 0;
#X connect 19 0 33 0;
#X connect 20 0 22 0;
#X connect 21 0 25 0;
#X connect 23 0 4 0;
#X connect 23 0 28 0;
#X connect 24 0 1 0;
#X connect 24 0 29 0;
#X connect 25 0 26 0;
#X connect 26 0 27 0;
#X connect 27 0 34 0;
#X connect 28 0 16 0;
#X connect 29 0 16 0;
#X connect 30 0 13 0;
#X connect 30 1 14 0;
#X connect 32 0 3 0;
#X connect 32 1 5 0;
#X connect 33 0 18 0;
#X connect 34 0 20 0;
#X coords 0 -1 1 1 72 46 1 300 100;
