#N canvas 447 181 732 656 10;
#X obj 126 360 msgfile;
#X msg 246 170 add patches 0;
#X obj 246 108 bng 15 250 50 0 empty empty empty 17 7 0 10 -262144
-1 -1;
#N canvas 310 537 450 300 inrouter 0;
#X obj 20 40 inlet;
#X obj 80 40 inlet;
#X obj 20 150 outlet;
#X obj 40 90 route 1;
#X obj 20 70 select 1;
#X obj 20 110 lister;
#X obj 110 90 route 2;
#X obj 90 70 select 2;
#X obj 90 110 lister;
#X obj 180 90 route 3;
#X obj 160 70 select 3;
#X obj 160 110 lister;
#X obj 250 90 route 4;
#X obj 230 70 select 4;
#X obj 230 110 lister;
#X obj 320 90 route 5;
#X obj 300 70 select 5;
#X obj 300 110 lister;
#X obj 390 90 route 6;
#X obj 370 70 select 6;
#X obj 370 110 lister;
#X obj 460 90 route 7;
#X obj 440 70 select 7;
#X obj 440 110 lister;
#X obj 530 90 route 8;
#X obj 510 70 select 8;
#X obj 510 110 lister;
#X obj 600 90 route 9;
#X obj 580 70 select 9;
#X obj 580 110 lister;
#X obj 670 90 route 10;
#X obj 650 70 select 10;
#X obj 650 110 lister;
#X obj 740 90 route 11;
#X obj 720 70 select 11;
#X obj 720 110 lister;
#X obj 810 90 route 12;
#X obj 790 70 select 12;
#X obj 790 110 lister;
#X obj 880 90 route 13;
#X obj 860 70 select 13;
#X obj 860 110 lister;
#X obj 950 90 route 14;
#X obj 930 70 select 14;
#X obj 930 110 lister;
#X obj 1020 90 route 15;
#X obj 1000 70 select 15;
#X obj 1000 110 lister;
#X obj 1090 90 route 16;
#X obj 1070 70 select 16;
#X obj 1070 110 lister;
#X obj 1160 90 route 17;
#X obj 1140 70 select 17;
#X obj 1140 110 lister;
#X obj 1230 90 route 18;
#X obj 1210 70 select 18;
#X obj 1210 110 lister;
#X obj 1300 90 route 19;
#X obj 1280 70 select 19;
#X obj 1280 110 lister;
#X obj 1370 90 route 20;
#X obj 1350 70 select 20;
#X obj 1350 110 lister;
#X obj 40 90 route 1;
#X obj 20 70 select 1;
#X obj 20 110 lister;
#X obj 110 90 route 2;
#X obj 90 70 select 2;
#X obj 90 110 lister;
#X obj 180 90 route 3;
#X obj 160 70 select 3;
#X obj 160 110 lister;
#X obj 250 90 route 4;
#X obj 230 70 select 4;
#X obj 230 110 lister;
#X obj 320 90 route 5;
#X obj 300 70 select 5;
#X obj 300 110 lister;
#X obj 390 90 route 6;
#X obj 370 70 select 6;
#X obj 370 110 lister;
#X obj 460 90 route 7;
#X obj 440 70 select 7;
#X obj 440 110 lister;
#X obj 530 90 route 8;
#X obj 510 70 select 8;
#X obj 510 110 lister;
#X obj 600 90 route 9;
#X obj 580 70 select 9;
#X obj 580 110 lister;
#X obj 670 90 route 10;
#X obj 650 70 select 10;
#X obj 650 110 lister;
#X connect 0 0 4 0;
#X connect 0 0 7 0;
#X connect 0 0 10 0;
#X connect 0 0 13 0;
#X connect 0 0 16 0;
#X connect 0 0 19 0;
#X connect 0 0 22 0;
#X connect 0 0 25 0;
#X connect 0 0 28 0;
#X connect 0 0 31 0;
#X connect 0 0 34 0;
#X connect 0 0 37 0;
#X connect 0 0 40 0;
#X connect 0 0 43 0;
#X connect 0 0 46 0;
#X connect 0 0 49 0;
#X connect 0 0 52 0;
#X connect 0 0 55 0;
#X connect 0 0 58 0;
#X connect 0 0 61 0;
#X connect 0 0 4 0;
#X connect 0 0 7 0;
#X connect 0 0 10 0;
#X connect 0 0 13 0;
#X connect 0 0 16 0;
#X connect 0 0 19 0;
#X connect 0 0 22 0;
#X connect 0 0 25 0;
#X connect 0 0 28 0;
#X connect 0 0 31 0;
#X connect 1 0 3 0;
#X connect 1 0 6 0;
#X connect 1 0 9 0;
#X connect 1 0 12 0;
#X connect 1 0 15 0;
#X connect 1 0 18 0;
#X connect 1 0 21 0;
#X connect 1 0 24 0;
#X connect 1 0 27 0;
#X connect 1 0 30 0;
#X connect 1 0 33 0;
#X connect 1 0 36 0;
#X connect 1 0 39 0;
#X connect 1 0 42 0;
#X connect 1 0 45 0;
#X connect 1 0 48 0;
#X connect 1 0 51 0;
#X connect 1 0 54 0;
#X connect 1 0 57 0;
#X connect 1 0 60 0;
#X connect 1 0 3 0;
#X connect 1 0 6 0;
#X connect 1 0 9 0;
#X connect 1 0 12 0;
#X connect 1 0 15 0;
#X connect 1 0 18 0;
#X connect 1 0 21 0;
#X connect 1 0 24 0;
#X connect 1 0 27 0;
#X connect 1 0 30 0;
#X connect 3 0 5 1;
#X connect 3 0 5 1;
#X connect 4 0 5 0;
#X connect 4 0 5 0;
#X connect 5 0 2 0;
#X connect 5 0 2 0;
#X connect 6 0 8 1;
#X connect 6 0 8 1;
#X connect 7 0 8 0;
#X connect 7 0 8 0;
#X connect 8 0 2 0;
#X connect 8 0 2 0;
#X connect 9 0 11 1;
#X connect 9 0 11 1;
#X connect 10 0 11 0;
#X connect 10 0 11 0;
#X connect 11 0 2 0;
#X connect 11 0 2 0;
#X connect 12 0 14 1;
#X connect 12 0 14 1;
#X connect 13 0 14 0;
#X connect 13 0 14 0;
#X connect 14 0 2 0;
#X connect 14 0 2 0;
#X connect 15 0 17 1;
#X connect 15 0 17 1;
#X connect 16 0 17 0;
#X connect 16 0 17 0;
#X connect 17 0 2 0;
#X connect 17 0 2 0;
#X connect 18 0 20 1;
#X connect 18 0 20 1;
#X connect 19 0 20 0;
#X connect 19 0 20 0;
#X connect 20 0 2 0;
#X connect 20 0 2 0;
#X connect 21 0 23 1;
#X connect 21 0 23 1;
#X connect 22 0 23 0;
#X connect 22 0 23 0;
#X connect 23 0 2 0;
#X connect 23 0 2 0;
#X connect 24 0 26 1;
#X connect 24 0 26 1;
#X connect 25 0 26 0;
#X connect 25 0 26 0;
#X connect 26 0 2 0;
#X connect 26 0 2 0;
#X connect 27 0 29 1;
#X connect 27 0 29 1;
#X connect 28 0 29 0;
#X connect 28 0 29 0;
#X connect 29 0 2 0;
#X connect 29 0 2 0;
#X connect 30 0 32 1;
#X connect 30 0 32 1;
#X connect 31 0 32 0;
#X connect 31 0 32 0;
#X connect 32 0 2 0;
#X connect 32 0 2 0;
#X connect 33 0 35 1;
#X connect 34 0 35 0;
#X connect 35 0 2 0;
#X connect 36 0 38 1;
#X connect 37 0 38 0;
#X connect 38 0 2 0;
#X connect 39 0 41 1;
#X connect 40 0 41 0;
#X connect 41 0 2 0;
#X connect 42 0 44 1;
#X connect 43 0 44 0;
#X connect 44 0 2 0;
#X connect 45 0 47 1;
#X connect 46 0 47 0;
#X connect 47 0 2 0;
#X connect 48 0 50 1;
#X connect 49 0 50 0;
#X connect 50 0 2 0;
#X connect 51 0 53 1;
#X connect 52 0 53 0;
#X connect 53 0 2 0;
#X connect 54 0 56 1;
#X connect 55 0 56 0;
#X connect 56 0 2 0;
#X connect 57 0 59 1;
#X connect 58 0 59 0;
#X connect 59 0 2 0;
#X connect 60 0 62 1;
#X connect 61 0 62 0;
#X connect 62 0 2 0;
#X restore 328 247 pd inrouter;
#X obj 328 268 prepend add;
#X obj 270 147 loadbang;
#X text 332 212 store;
#X text 321 226 modpatch;
#X text 377 224 lists;
#X obj 391 117 inlet;
#X obj 150 155 * \$1;
#X obj 169 563 prepend;
#X obj 29 182 kalashnikov \$1;
#X obj 59 516 route patches;
#X msg 129 203 goto \$1;
#X obj 241 211 kalashnikov \$1;
#X obj 71 465 route list;
#X msg 112 312 goto 0;
#X obj 28 322 + 1;
#X obj 12 339 f;
#X msg 12 392 replace patches \$1;
#X msg 63 313 this;
#X obj 12 287 t b b b;
#X obj 69 203 + 1;
#X obj 169 584 outlet;
#X obj 403 281 r \$0-patches_load;
#X obj 403 298 openpanel;
#X msg 477 332 read \$1;
#X msg 433 332 goto 0;
#X msg 403 332 this;
#X obj 583 211 r \$0-patches_save;
#X obj 583 239 savepanel;
#X msg 580 312 write \$1;
#X obj 403 315 t b b a b;
#X msg 419 392 clear;
#X obj 191 291 r \$0-store_plus;
#X obj 288 291 r \$0-store_minus;
#N canvas 3 50 450 300 plumin 0;
#X obj 127 97 f;
#X obj 169 97 f;
#X obj 119 119 + 1;
#X obj 165 119 - 1;
#X obj 226 35 inlet;
#X obj 153 32 inlet;
#X obj 72 31 inlet;
#X obj 141 147 - 1;
#X obj 323 61 inlet;
#X obj 214 180 %;
#X obj 140 207 + 1;
#X obj 120 256 outlet;
#X obj 105 171 moses 0;
#X obj 92 221 f;
#X obj 87 193 b;
#X connect 0 0 2 0;
#X connect 1 0 3 0;
#X connect 2 0 7 0;
#X connect 3 0 7 0;
#X connect 4 0 1 1;
#X connect 4 0 0 1;
#X connect 5 0 1 0;
#X connect 6 0 0 0;
#X connect 7 0 12 0;
#X connect 8 0 9 1;
#X connect 8 0 13 1;
#X connect 9 0 10 0;
#X connect 10 0 11 0;
#X connect 12 0 14 0;
#X connect 12 1 9 0;
#X connect 13 0 11 0;
#X connect 14 0 13 0;
#X restore 242 318 pd plumin;
#X obj 208 341 s \$0-patch-set;
#X obj 501 399 prepend file;
#X obj 582 268 makesymbol %s.modpat;
#X obj 30 112 t b f;
#X obj 391 544 spigot;
#X msg 435 545 0;
#X msg 435 528 1;
#X msg 525 548 range 1 \$1;
#X obj 391 561 s \$0-patches-num;
#X obj 525 565 s \$0-patch-set;
#X obj 200 190 r \$0-store_patch;
#X obj 391 138 route patch file randpat;
#X obj 425 245 symbol;
#X obj 200 211 t b b;
#X obj 485 211 random;
#X msg 485 232 patch \$1;
#X obj 101 57 cnv 15 141 25 empty empty empty 20 12 0 14 -183672 -66577
0;
#X obj 103 68 nbx 3 12 0 120 0 0 empty empty empty -2 -6 0 7 -257472
-1109 -90133 0 256;
#X obj 145 68 nbx 3 12 1 13 0 0 \$0-patch-num \$0-patch-set select
0 -5 0 7 -17235 -261234 -17235 1 256;
#X obj 190 68 bng 12 250 50 0 \$0-store_patch \$0-store_patch-bng store
-3 -5 0 7 -17235 -262130 -17235;
#X obj 211 63 bng 10 250 50 0 \$0-patches_load \$0-patches_load-bng
load -5 16 0 7 -2498 -262144 -13381;
#X obj 224 63 bng 10 250 50 0 \$0-patches_save \$0-patches_save-bng
save 0 16 0 7 -159809 -262144 -86277;
#X obj 103 68 nbx 3 12 0 120 0 0 \$0-patches-dummy \$0-patches-num
patches 0 -5 0 7 -17235 -203904 -17235 0 256;
#X obj 176 72 bng 8 250 50 0 \$0-store_plus \$0-store_plus-bng + 2
-4 0 7 -17235 -198336 -17235;
#X obj 134 72 bng 8 250 50 0 \$0-store_minus \$0-store_minus-bng -
1 -5 0 10 -17235 -257985 -17235;
#X msg 249 565 patch \$1;
#X obj 129 182 + 1;
#X obj 367 37 loadbang;
#X obj 281 232 + 1;
#X msg 230 382 print;
#X obj 30 90 r \$0-patch-num;
#X obj 107 136 - 1;
#X obj 68 228 t b f;
#X obj 169 542 prepend all;
#X obj 504 69 r pd-inrouter;
#X obj 504 96 print;
#X obj 162 233 del 50;
#N canvas 30 163 450 550 makeroute 0;
#X obj 209 466 s pd-inrouter;
#X msg 307 393 obj 20 40 inlet;
#X msg 169 286 obj \$1 \$2 route \$3;
#X msg 164 387 obj \$1 \$2 lister;
#X obj 68 57 kalashnikov \$1;
#X obj 45 133 * 70;
#X obj 99 133 + 1;
#X msg 73 133 70;
#X obj 45 155 + 20;
#X obj 45 178 pack f f f;
#X obj 53 222 pack f f;
#X obj 20 303 f;
#X obj 53 201 f;
#X obj 51 25 inlet;
#X msg 211 348 obj \$1 \$2 select \$3;
#X obj 169 220 * 70;
#X obj 169 265 pack f f f;
#X msg 101 201 110;
#X msg 197 220 90;
#X obj 169 242 + 40;
#X obj 155 121 * 3;
#X obj 105 79 t b b f f f;
#X obj 19 325 pack f f f;
#X msg 33 399 connect \$1 0 \$3 1;
#X obj 36 279 + 3;
#X obj 74 278 + 4;
#X obj 113 278 + 5;
#X msg 47 462 connect \$2 0 \$3 0;
#X msg 63 351 connect \$3 0 2 0;
#X msg 44 371 connect 1 0 \$1 0;
#X msg 33 431 connect 0 0 \$2 0;
#X msg 309 425 obj 80 40 inlet;
#X msg 306 452 obj 20 150 outlet;
#X connect 1 0 0 0;
#X connect 2 0 0 0;
#X connect 3 0 0 0;
#X connect 4 1 21 0;
#X connect 5 0 8 0;
#X connect 6 0 9 2;
#X connect 6 0 16 2;
#X connect 7 0 9 1;
#X connect 8 0 9 0;
#X connect 8 0 12 1;
#X connect 9 0 14 0;
#X connect 10 0 3 0;
#X connect 11 0 22 0;
#X connect 12 0 10 0;
#X connect 13 0 4 0;
#X connect 14 0 0 0;
#X connect 15 0 19 0;
#X connect 16 0 2 0;
#X connect 17 0 10 1;
#X connect 18 0 16 1;
#X connect 19 0 16 0;
#X connect 20 0 24 0;
#X connect 20 0 25 0;
#X connect 20 0 26 0;
#X connect 21 0 11 0;
#X connect 21 1 12 0;
#X connect 21 2 5 0;
#X connect 21 3 15 0;
#X connect 21 4 20 0;
#X connect 21 4 17 0;
#X connect 21 4 6 0;
#X connect 21 4 7 0;
#X connect 21 4 18 0;
#X connect 22 0 23 0;
#X connect 22 0 29 0;
#X connect 22 0 28 0;
#X connect 22 0 30 0;
#X connect 22 0 27 0;
#X connect 23 0 0 0;
#X connect 24 0 11 1;
#X connect 25 0 22 1;
#X connect 26 0 22 2;
#X connect 27 0 0 0;
#X connect 28 0 0 0;
#X connect 29 0 0 0;
#X connect 30 0 0 0;
#X connect 31 0 0 0;
#X connect 32 0 0 0;
#X restore 370 64 pd makeroute \$1;
#X connect 0 0 16 0;
#X connect 1 0 0 0;
#X connect 2 0 1 0;
#X connect 3 0 4 0;
#X connect 4 0 0 0;
#X connect 5 0 1 0;
#X connect 9 0 49 0;
#X connect 10 0 64 0;
#X connect 11 0 24 0;
#X connect 12 1 23 0;
#X connect 13 0 18 0;
#X connect 13 0 52 1;
#X connect 13 0 42 0;
#X connect 13 1 71 0;
#X connect 14 0 0 0;
#X connect 15 1 66 0;
#X connect 16 0 13 0;
#X connect 17 0 0 0;
#X connect 18 0 19 1;
#X connect 19 0 20 0;
#X connect 19 0 46 0;
#X connect 19 0 45 0;
#X connect 19 0 52 1;
#X connect 19 0 37 3;
#X connect 20 0 0 0;
#X connect 21 0 0 0;
#X connect 22 0 19 0;
#X connect 22 1 21 0;
#X connect 22 2 17 0;
#X connect 23 0 70 0;
#X connect 25 0 26 0;
#X connect 26 0 33 0;
#X connect 26 0 39 0;
#X connect 27 0 0 0;
#X connect 28 0 0 0;
#X connect 29 0 0 0;
#X connect 30 0 31 0;
#X connect 31 0 40 0;
#X connect 32 0 0 0;
#X connect 33 0 29 0;
#X connect 33 1 28 0;
#X connect 33 1 44 0;
#X connect 33 2 27 0;
#X connect 33 3 34 0;
#X connect 34 0 0 0;
#X connect 35 0 37 0;
#X connect 36 0 37 1;
#X connect 37 0 38 0;
#X connect 39 0 24 0;
#X connect 40 0 32 0;
#X connect 40 0 39 0;
#X connect 41 0 12 0;
#X connect 41 1 37 2;
#X connect 41 1 63 0;
#X connect 41 1 69 0;
#X connect 42 0 43 0;
#X connect 42 0 45 0;
#X connect 42 0 46 0;
#X connect 42 0 37 3;
#X connect 43 0 42 1;
#X connect 44 0 42 1;
#X connect 45 0 47 0;
#X connect 48 0 51 0;
#X connect 49 0 47 0;
#X connect 49 1 50 0;
#X connect 49 2 52 0;
#X connect 49 3 3 1;
#X connect 50 0 33 0;
#X connect 51 0 74 0;
#X connect 51 1 15 0;
#X connect 52 0 53 0;
#X connect 53 0 49 0;
#X connect 63 0 24 0;
#X connect 64 0 14 0;
#X connect 65 0 75 0;
#X connect 66 0 3 0;
#X connect 67 0 0 0;
#X connect 68 0 41 0;
#X connect 69 0 10 0;
#X connect 70 0 0 0;
#X connect 70 1 11 1;
#X connect 71 0 11 0;
#X connect 72 0 73 0;
#X connect 74 0 22 0;
#X coords 0 -1 1 1 143 45 1 100 40;
