#N canvas 4 71 1272 844 10;
#X obj 148 254 mvcf~;
#X msg 27 233 safe 0;
#X obj 161 158 clip~ 0 1;
#X text 835 14 fc \, Q \, [eg_depth a d s r](x2);
#N canvas 8 63 450 300 envelopes 0;
#N canvas 0 0 749 654 adsr-------- 0;
#X obj 105 111 inlet;
#X obj 435 151 inlet;
#X text 101 86 trigger;
#X obj 105 139 sel 0;
#X obj 244 155 t b;
#X obj 166 264 f \$1;
#X obj 166 289 pack 0 \$2;
#X obj 492 151 inlet;
#X obj 438 281 del \$2;
#X obj 458 429 line~;
#X obj 462 304 f \$4;
#X obj 501 379 pack 0 \$3;
#X obj 554 151 inlet;
#X obj 616 151 inlet;
#X obj 689 150 inlet;
#X msg 105 170 stop;
#X obj 612 306 pack 0 \$5;
#X text 435 129 level;
#X obj 501 355 * \$1;
#X obj 458 454 outlet~;
#X text 102 378 and pack with;
#X text 103 398 attack time;
#X text 31 126 if zero;
#X text 32 143 release;
#X text 12 160 and cancel;
#X text 43 177 decay;
#X text 284 272 on attack \, set a;
#X text 278 305 recall sustain value;
#X text 315 378 pack with decay time;
#X text 605 332 on release ramp;
#X text 606 349 back to zero;
#X obj 462 329 * 0.01;
#X text 47 567 Objects such as "f" and "pack" can be given dollar sign
arguments to initialize their contents from adsr's creation arguments.
Inlets are supplied to change them on the fly.;
#X text 13 2 ADSR ENVELOPE;
#X text 488 129 attack;
#X text 555 128 decay;
#X text 609 129 sustain;
#X text 686 129 release;
#X text 202 71 attack;
#X obj 204 92 moses;
#X obj 194 122 t b b;
#X msg 128 290 0;
#X text 20 273 optionally;
#X text 10 291 bash to zero;
#X text 25 246 ATTACK:;
#X text 49 477 When you send this patch a positive trigger it schedules
a line~ to do an attack and decay \, and if zero \, it starts the release
ramp.;
#X text 495 629 Updated for Pd version 0.37;
#X text 255 89 test for negative trigger;
#X text 253 113 if so \, zero;
#X text 254 129 the output;
#X text 278 165 in any case;
#X text 303 355 multiply by peak level;
#X text 280 286 delay for sustain;
#X text 276 328 convert from percent;
#X text 155 340 ... then;
#X text 103 359 recall peak level;
#X text 439 113 peak;
#X text 281 149 ... do this;
#X text 47 529 Negative triggers cause the output to jump to zero and
then attack (instead of attacking from the current location).;
#X text 208 1 Arguments: level \, attack time \, decay time \, sustain
level \, release time. A \, D \, and R are in msec and S is in percent.
This patch is used as an abstraction in various examples.;
#X connect 0 0 3 0;
#X connect 1 0 5 1;
#X connect 1 0 18 1;
#X connect 3 0 15 0;
#X connect 3 0 16 0;
#X connect 3 1 39 0;
#X connect 4 0 5 0;
#X connect 4 0 8 0;
#X connect 5 0 6 0;
#X connect 6 0 9 0;
#X connect 7 0 6 1;
#X connect 7 0 8 1;
#X connect 8 0 10 0;
#X connect 9 0 19 0;
#X connect 10 0 31 0;
#X connect 11 0 9 0;
#X connect 12 0 11 1;
#X connect 13 0 10 1;
#X connect 14 0 16 1;
#X connect 15 0 8 0;
#X connect 16 0 9 0;
#X connect 18 0 11 0;
#X connect 31 0 18 0;
#X connect 39 0 40 0;
#X connect 39 1 4 0;
#X connect 40 0 4 0;
#X connect 40 1 41 0;
#X connect 41 0 9 0;
#X restore 60 192 pd adsr--------;
#X obj 60 215 +~;
#N canvas 4 55 749 654 adsr-------- 0;
#X obj 105 111 inlet;
#X obj 435 151 inlet;
#X text 101 86 trigger;
#X obj 105 139 sel 0;
#X obj 244 155 t b;
#X obj 166 264 f \$1;
#X obj 166 289 pack 0 \$2;
#X obj 492 151 inlet;
#X obj 438 281 del \$2;
#X obj 458 429 line~;
#X obj 462 304 f \$4;
#X obj 501 379 pack 0 \$3;
#X obj 554 151 inlet;
#X obj 616 151 inlet;
#X obj 689 150 inlet;
#X msg 105 170 stop;
#X obj 612 306 pack 0 \$5;
#X text 435 129 level;
#X obj 501 355 * \$1;
#X obj 458 454 outlet~;
#X text 102 378 and pack with;
#X text 103 398 attack time;
#X text 31 126 if zero;
#X text 32 143 release;
#X text 12 160 and cancel;
#X text 43 177 decay;
#X text 284 272 on attack \, set a;
#X text 278 305 recall sustain value;
#X text 315 378 pack with decay time;
#X text 605 332 on release ramp;
#X text 606 349 back to zero;
#X obj 462 329 * 0.01;
#X text 47 567 Objects such as "f" and "pack" can be given dollar sign
arguments to initialize their contents from adsr's creation arguments.
Inlets are supplied to change them on the fly.;
#X text 13 2 ADSR ENVELOPE;
#X text 488 129 attack;
#X text 555 128 decay;
#X text 609 129 sustain;
#X text 686 129 release;
#X text 202 71 attack;
#X obj 204 92 moses;
#X obj 194 122 t b b;
#X msg 128 290 0;
#X text 20 273 optionally;
#X text 10 291 bash to zero;
#X text 25 246 ATTACK:;
#X text 49 477 When you send this patch a positive trigger it schedules
a line~ to do an attack and decay \, and if zero \, it starts the release
ramp.;
#X text 495 629 Updated for Pd version 0.37;
#X text 255 89 test for negative trigger;
#X text 253 113 if so \, zero;
#X text 254 129 the output;
#X text 278 165 in any case;
#X text 303 355 multiply by peak level;
#X text 280 286 delay for sustain;
#X text 276 328 convert from percent;
#X text 155 340 ... then;
#X text 103 359 recall peak level;
#X text 439 113 peak;
#X text 281 149 ... do this;
#X text 47 529 Negative triggers cause the output to jump to zero and
then attack (instead of attacking from the current location).;
#X text 208 1 Arguments: level \, attack time \, decay time \, sustain
level \, release time. A \, D \, and R are in msec and S is in percent.
This patch is used as an abstraction in various examples.;
#X connect 0 0 3 0;
#X connect 1 0 5 1;
#X connect 1 0 18 1;
#X connect 3 0 15 0;
#X connect 3 0 16 0;
#X connect 3 1 39 0;
#X connect 4 0 5 0;
#X connect 4 0 8 0;
#X connect 5 0 6 0;
#X connect 6 0 9 0;
#X connect 7 0 6 1;
#X connect 7 0 8 1;
#X connect 8 0 10 0;
#X connect 9 0 19 0;
#X connect 10 0 31 0;
#X connect 11 0 9 0;
#X connect 12 0 11 1;
#X connect 13 0 10 1;
#X connect 14 0 16 1;
#X connect 15 0 8 0;
#X connect 16 0 9 0;
#X connect 18 0 11 0;
#X connect 31 0 18 0;
#X connect 39 0 40 0;
#X connect 39 1 4 0;
#X connect 40 0 4 0;
#X connect 40 1 41 0;
#X connect 41 0 9 0;
#X restore 252 195 pd adsr--------;
#X obj 60 236 outlet~;
#X text 59 10 trig [peak a d s r] [peak a d s r];
#X obj 94 109 r \$0-a1;
#X obj 112 128 r \$0-d1;
#X obj 129 147 r \$0-s1;
#X obj 147 166 r \$0-r1;
#X obj 286 109 r \$0-a2;
#X obj 304 128 r \$0-d2;
#X obj 321 147 r \$0-s2;
#X obj 339 166 r \$0-r2;
#X obj 60 68 route trig1 trig2 trig;
#X obj 35 34 inlet;
#X obj 211 88 outlet;
#X obj 77 90 r \$0-eg1_level;
#X obj 269 90 r \$0-eg2_level;
#X connect 0 0 1 0;
#X connect 1 0 3 0;
#X connect 2 0 1 1;
#X connect 5 0 0 2;
#X connect 6 0 0 3;
#X connect 7 0 0 4;
#X connect 8 0 0 5;
#X connect 9 0 2 2;
#X connect 10 0 2 3;
#X connect 11 0 2 4;
#X connect 12 0 2 5;
#X connect 13 0 0 0;
#X connect 13 1 2 0;
#X connect 13 2 0 0;
#X connect 13 2 2 0;
#X connect 13 3 15 0;
#X connect 14 0 13 0;
#X connect 16 0 0 1;
#X connect 17 0 2 1;
#X restore 161 45 pd envelopes;
#X text 591 14 trig [peak a d s r] [peak a d s r];
#X obj 162 131 +~;
#X obj 177 106 line~;
#X obj 177 86 pack f 20;
#X obj 161 21 inlet;
#X obj 28 158 inlet~;
#X obj 148 273 outlet~;
#X obj 27 214 loadbang;
#X obj 233 124 r \$0-q;
#N canvas 0 0 450 300 init 0;
#X obj 71 113 s \$0-eg1-set;
#X msg 73 88 0;
#X obj 74 61 loadbang;
#X obj 155 114 s \$0-eg2-set;
#X msg 247 92 1;
#X obj 247 111 s \$0-fc-set;
#X obj 328 112 s \$0-q-set;
#X msg 324 83 0.2;
#X connect 1 0 0 0;
#X connect 1 0 3 0;
#X connect 2 0 1 0;
#X connect 2 0 4 0;
#X connect 2 0 7 0;
#X connect 4 0 5 0;
#X connect 7 0 6 0;
#X restore 561 48 pd init;
#X obj 333 188 cnv 15 196 84 empty empty empty 20 12 0 14 -203904 -66577
0;
#X obj 429 173 cnv 15 100 60 empty empty moofilter~ 10 8 0 14 -203904
-45076 0;
#X obj 338 202 mknob 25 300 0.001 1 1 0 \$0-fc \$0-fc-set fc -2 -6
192 8 -232576 -45076 -45076 6800 1;
#X obj 338 242 mknob 25 300 0 1 0 0 \$0-q-knob \$0-q-set q -2 -6 192
8 -232576 -45076 -45076 26100 1;
#X obj 398 202 mknob 25 300 1.5 10000 1 0 \$0-a1 \$0-a1-set a -2 -6
192 8 -45076 -232576 -45076 1500 1;
#X obj 428 202 mknob 25 300 1.5 10000 1 0 \$0-d1 \$0-d1-set d -2 -6
192 8 -45076 -232576 -45076 15400 1;
#X obj 458 202 mknob 25 300 0 100 0 0 \$0-s1 \$0-s1-set s -2 -6 192
8 -45076 -232576 -45076 16100 1;
#X obj 488 202 mknob 25 300 1.5 10000 1 0 \$0-r1 \$0-r1-set r -2 -6
192 8 -45076 -232576 -45076 22500 1;
#X obj 368 202 mknob 25 300 -1 1 0 0 \$0-eg1 \$0-eg1-set eg1 -2 -6
192 8 -232576 -45076 -45076 21200 1;
#X obj 398 242 mknob 25 300 1.5 10000 1 0 \$0-a2 \$0-a2-set a -2 -6
192 8 -45076 -232576 -45076 22100 1;
#X obj 428 242 mknob 25 300 1.5 10000 1 0 \$0-d2 \$0-d2-set d -2 -6
192 8 -45076 -232576 -45076 19000 1;
#X obj 458 242 mknob 25 300 0 100 0 0 \$0-s2 \$0-s2-set s -2 -6 192
8 -45076 -232576 -45076 16900 1;
#X obj 488 242 mknob 25 300 1.5 10000 1 0 \$0-r2 \$0-r2-set r -2 -6
192 8 -45076 -232576 -45076 19900 1;
#X obj 368 242 mknob 25 300 -1 1 0 0 \$0-eg2 \$0-eg2-set eg2 -2 -6
192 8 -232576 -45076 -45076 22900 1;
#X obj 177 66 r \$0-fc;
#N canvas 5 57 466 471 automation 0;
#X obj 57 107 route fc q eg1 a1 d1 s1 r1 eg2 a2 d2 s2 r2 on;
#X obj 57 79 inlet;
#X obj 57 380 s \$0-fc-set;
#X obj 77 361 s \$0-q-set;
#X obj 98 342 s \$0-eg1-set;
#X obj 118 323 s \$0-a1-set;
#X obj 139 304 s \$0-d1-set;
#X obj 159 285 s \$0-s1-set;
#X obj 180 266 s \$0-r1-set;
#X obj 200 247 s \$0-eg2-set;
#X obj 221 228 s \$0-a2-set;
#X obj 241 209 s \$0-d2-set;
#X obj 262 190 s \$0-s2-set;
#X obj 282 171 s \$0-r2-set;
#X obj 303 152 s \$0-on-set;
#X msg 339 126 1;
#X obj 385 106 loadbang;
#X obj 391 127 outlet;
#X obj 324 337 route qrange;
#X obj 324 358 s \$0-q_range-set;
#X connect 0 0 2 0;
#X connect 0 1 3 0;
#X connect 0 2 4 0;
#X connect 0 3 5 0;
#X connect 0 4 6 0;
#X connect 0 5 7 0;
#X connect 0 6 8 0;
#X connect 0 7 9 0;
#X connect 0 8 10 0;
#X connect 0 9 11 0;
#X connect 0 10 12 0;
#X connect 0 11 13 0;
#X connect 0 12 14 0;
#X connect 0 13 17 0;
#X connect 0 13 18 0;
#X connect 1 0 0 0;
#X connect 15 0 14 0;
#X connect 16 0 15 0;
#X connect 18 0 19 0;
#X restore 433 65 pd automation;
#X obj 233 164 line~;
#X obj 233 144 pack f 20;
#X obj 234 189 +~;
#X obj 330 115 inlet~;
#X obj 256 85 inlet~;
#X obj 517 173 cnv 15 34 99 empty empty empty 20 12 0 14 -183672 -66577
0;
#X obj 520 183 nbx 3 12 0 120 0 0 empty empty empty -2 -6 0 7 -257472
-1109 -90133 0 256;
#X obj 520 205 nbx 3 12 1 16 0 0 \$0-patch-num \$0-patch-set select
0 -5 0 7 -17235 -261234 -17235 1 256;
#X obj 522 237 bng 12 250 50 0 \$0-store_patch \$0-store_patch-bng
store -3 -5 0 7 -17235 -262130 -17235;
#X obj 519 260 bng 10 250 50 0 \$0-patches_load \$0-patches_load-bng
load -1 -5 0 7 -2498 -262144 -13381;
#X obj 538 252 bng 10 250 50 0 \$0-patches_save \$0-patches_save-bng
save -4 16 0 7 -159809 -262144 -86277;
#X obj 520 183 nbx 3 12 0 120 0 0 \$0-patches-dummy \$0-patches-num
patches 0 -5 0 7 -17235 -203904 -17235 0 256;
#X obj 540 220 bng 8 250 50 0 \$0-store_plus \$0-store_plus-bng + -7
4 0 10 -17235 -198336 -17235;
#X obj 520 220 bng 8 250 50 0 \$0-store_minus \$0-store_minus-bng -
8 3 0 10 -17235 -257985 -17235;
#X obj 540 241 bng 8 250 50 0 \$0-resave \$0-resave-bng re 0 -6 0 7
-159809 -262144 -86277;
#X obj 658 175 f;
#X obj 655 132 r \$0-store_patch;
#X obj 656 234 prepend add;
#X obj 653 267 t b a;
#X obj 723 356 msgfile;
#X obj 1045 579 spigot;
#X msg 1089 580 0;
#X msg 1089 563 1;
#X msg 806 324 add patches 0;
#X obj 803 286 loadbang;
#X obj 714 586 route patches;
#X msg 740 273 goto 0;
#X obj 668 332 + 1;
#X obj 652 349 f;
#X msg 652 402 replace patches \$1;
#X msg 703 323 this;
#X obj 652 297 t b b b;
#X msg 1179 583 range 1 \$1;
#X obj 980 252 t b f;
#X msg 995 276 goto \$1;
#X msg 960 275 this;
#X obj 1087 286 r \$0-patches_load;
#X obj 1087 303 openpanel;
#X msg 1161 337 read \$1;
#X msg 1117 337 goto 0;
#X msg 1087 337 this;
#X obj 1267 216 r \$0-patches_save;
#X obj 1267 244 savepanel;
#X msg 1264 317 write \$1;
#X msg 860 257 print;
#X obj 715 556 route list;
#X obj 1087 320 t b b a b;
#X msg 1103 397 clear;
#X obj 915 206 r \$0-patches_clear;
#X obj 913 232 t b b;
#X obj 1368 132 symbol;
#X obj 1464 444 random;
#X obj 1045 596 s \$0-patches-num;
#X obj 1179 600 s \$0-patch-set;
#X obj 875 296 r \$0-store_plus;
#X obj 972 296 r \$0-store_minus;
#N canvas 4 55 450 300 plumin 0;
#X obj 127 97 f;
#X obj 169 97 f;
#X obj 119 119 + 1;
#X obj 165 119 - 1;
#X obj 226 35 inlet;
#X obj 153 32 inlet;
#X obj 72 31 inlet;
#X obj 141 147 - 1;
#X obj 323 61 inlet;
#X obj 214 180 %;
#X obj 140 207 + 1;
#X obj 120 256 outlet;
#X obj 105 171 moses 0;
#X obj 92 221 f;
#X obj 87 193 b;
#X connect 0 0 2 0;
#X connect 1 0 3 0;
#X connect 2 0 7 0;
#X connect 3 0 7 0;
#X connect 4 0 1 1;
#X connect 4 0 0 1;
#X connect 5 0 1 0;
#X connect 6 0 0 0;
#X connect 7 0 12 0;
#X connect 8 0 9 1;
#X connect 8 0 13 1;
#X connect 9 0 10 0;
#X connect 10 0 11 0;
#X connect 12 0 14 0;
#X connect 12 1 9 0;
#X connect 13 0 11 0;
#X connect 14 0 13 0;
#X restore 926 323 pd plumin;
#X obj 896 350 s \$0-patch-set;
#X obj 1266 273 makesymbol %s.pat;
#X obj 1484 247 r \$0-resave;
#X msg 1495 298 set write \$1;
#X obj 670 68 r \$0-fc;
#X obj 684 87 r \$0-q;
#X obj 731 69 r \$0-eg1;
#X obj 741 90 r \$0-eg2;
#X obj 759 110 r \$0-a1;
#X obj 776 130 r \$0-d1;
#X obj 788 150 r \$0-s1;
#X obj 801 170 r \$0-r1;
#X obj 845 110 r \$0-a2;
#X obj 860 131 r \$0-d2;
#X obj 873 152 r \$0-s2;
#X obj 885 172 r \$0-r2;
#X obj 658 207 pack f f f f f f f f f f f f;
#X obj 1049 522 s \$0-r2-set;
#X obj 1037 502 s \$0-s2-set;
#X obj 1024 481 s \$0-d2-set;
#X obj 1009 460 s \$0-a2-set;
#X obj 965 520 s \$0-r1-set;
#X obj 952 500 s \$0-s1-set;
#X obj 940 480 s \$0-d1-set;
#X obj 923 460 s \$0-a1-set;
#X obj 905 440 s \$0-eg2-set;
#X obj 895 419 s \$0-eg1-set;
#X obj 817 431 s \$0-q-set;
#X obj 803 412 s \$0-fc-set;
#X obj 852 379 unpack f f f f f f f f f f f f;
#X msg 1484 321;
#X obj 1015 118 r \$0-patch-num;
#X obj 470 117 s \$0-patch-set;
#X obj 471 91 route patch file randpat;
#X obj 101 346 r \$0-eg1;
#X obj 141 391 moses 0;
#X obj 101 367 t f f;
#X msg 187 411 1;
#X msg 141 411 -1;
#X obj 89 406 *;
#X obj 123 470 *;
#X obj 122 490 s \$0-eg1_level;
#X obj 299 391 moses 0;
#X obj 259 367 t f f;
#X msg 345 411 1;
#X msg 299 411 -1;
#X obj 247 406 *;
#X obj 281 470 *;
#X obj 280 490 s \$0-eg2_level;
#X obj 259 346 r \$0-eg2;
#X obj 99 436 *;
#X obj 257 436 *;
#X obj 176 226 clip~ 0 1;
#X msg 1464 465 patch \$1;
#X obj 464 543 r \$0-fc;
#X obj 478 562 r \$0-q;
#X obj 495 584 r \$0-eg1;
#X obj 505 605 r \$0-eg2;
#X obj 534 540 r \$0-a1;
#X obj 551 560 r \$0-d1;
#X obj 563 580 r \$0-s1;
#X obj 576 600 r \$0-r1;
#X obj 620 540 r \$0-a2;
#X obj 635 561 r \$0-d2;
#X obj 648 582 r \$0-s2;
#X obj 660 602 r \$0-r2;
#X obj 548 772 outlet;
#X msg 471 655 fc \$1;
#X msg 481 675 q \$1;
#X msg 491 695 eg1 \$1;
#X msg 501 715 eg2 \$1;
#X msg 553 649 a1 \$1;
#X msg 563 669 d1 \$1;
#X msg 573 689 s1 \$1;
#X msg 583 709 r1 \$1;
#X msg 623 649 a2 \$1;
#X msg 633 669 d2 \$1;
#X msg 643 689 s2 \$1;
#X msg 653 709 r2 \$1;
#X obj 333 263 tgl 8 0 \$0-q_range \$0-q_range-set empty 17 7 0 10
-232576 -45076 -45076 1 1;
#X obj 429 464 s \$0-q_range-set;
#X msg 440 441 set 1;
#X obj 470 420 loadbang;
#X obj 248 641 * 0.735;
#X obj 315 567 sel 0 1;
#X obj 340 542 r \$0-q_range;
#X obj 296 611 t b f;
#X msg 298 589 1;
#X msg 333 590 0.735;
#X obj 223 567 r \$0-q-knob;
#X obj 250 676 s \$0-q;
#X connect 0 0 11 0;
#X connect 1 0 0 0;
#X connect 2 0 0 1;
#X connect 4 0 6 0;
#X connect 4 1 30 0;
#X connect 6 0 2 0;
#X connect 7 0 6 1;
#X connect 8 0 7 0;
#X connect 9 0 4 0;
#X connect 10 0 0 0;
#X connect 12 0 1 0;
#X connect 13 0 32 0;
#X connect 29 0 8 0;
#X connect 30 0 121 0;
#X connect 31 0 33 0;
#X connect 32 0 31 0;
#X connect 33 0 140 0;
#X connect 34 0 33 1;
#X connect 35 0 2 0;
#X connect 46 0 104 0;
#X connect 47 0 46 0;
#X connect 48 0 49 0;
#X connect 49 0 62 0;
#X connect 49 1 50 0;
#X connect 50 0 76 0;
#X connect 51 0 52 0;
#X connect 51 0 63 0;
#X connect 51 0 83 0;
#X connect 51 0 87 3;
#X connect 52 0 51 1;
#X connect 53 0 51 1;
#X connect 54 0 50 0;
#X connect 55 0 54 0;
#X connect 56 0 58 0;
#X connect 56 0 51 0;
#X connect 56 0 82 1;
#X connect 56 1 117 0;
#X connect 57 0 50 0;
#X connect 58 0 59 1;
#X connect 59 0 60 0;
#X connect 59 0 63 0;
#X connect 59 0 82 1;
#X connect 59 0 83 0;
#X connect 60 0 50 0;
#X connect 61 0 50 0;
#X connect 62 0 59 0;
#X connect 62 1 61 0;
#X connect 62 2 57 0;
#X connect 63 0 84 0;
#X connect 64 0 66 0;
#X connect 64 1 65 0;
#X connect 64 1 87 2;
#X connect 65 0 50 0;
#X connect 66 0 50 0;
#X connect 67 0 68 0;
#X connect 68 0 77 0;
#X connect 68 0 91 0;
#X connect 69 0 50 0;
#X connect 70 0 50 0;
#X connect 71 0 50 0;
#X connect 72 0 73 0;
#X connect 73 0 89 0;
#X connect 74 0 50 0;
#X connect 75 0 50 0;
#X connect 76 0 56 0;
#X connect 77 0 71 0;
#X connect 77 1 70 0;
#X connect 77 1 53 0;
#X connect 77 2 69 0;
#X connect 77 3 78 0;
#X connect 78 0 50 0;
#X connect 79 0 80 0;
#X connect 80 0 54 0;
#X connect 80 1 78 0;
#X connect 81 0 77 0;
#X connect 81 0 91 0;
#X connect 82 0 141 0;
#X connect 85 0 87 0;
#X connect 86 0 87 1;
#X connect 87 0 88 0;
#X connect 89 0 74 0;
#X connect 89 0 91 0;
#X connect 90 0 118 0;
#X connect 91 0 118 0;
#X connect 92 0 46 1;
#X connect 93 0 104 1;
#X connect 94 0 104 2;
#X connect 95 0 104 3;
#X connect 96 0 104 4;
#X connect 97 0 104 5;
#X connect 98 0 104 6;
#X connect 99 0 104 7;
#X connect 100 0 104 8;
#X connect 101 0 104 9;
#X connect 102 0 104 10;
#X connect 103 0 104 11;
#X connect 104 0 48 0;
#X connect 117 0 116 0;
#X connect 117 1 115 0;
#X connect 117 2 114 0;
#X connect 117 3 113 0;
#X connect 117 4 112 0;
#X connect 117 5 111 0;
#X connect 117 6 110 0;
#X connect 117 7 109 0;
#X connect 117 8 108 0;
#X connect 117 9 107 0;
#X connect 117 10 106 0;
#X connect 117 11 105 0;
#X connect 118 0 50 0;
#X connect 119 0 64 0;
#X connect 121 0 120 0;
#X connect 121 1 81 0;
#X connect 121 2 82 0;
#X connect 122 0 124 0;
#X connect 123 0 126 0;
#X connect 123 1 125 0;
#X connect 124 0 127 0;
#X connect 124 1 123 0;
#X connect 124 1 127 1;
#X connect 124 1 138 1;
#X connect 125 0 128 1;
#X connect 126 0 128 1;
#X connect 127 0 138 0;
#X connect 128 0 129 0;
#X connect 130 0 133 0;
#X connect 130 1 132 0;
#X connect 131 0 134 0;
#X connect 131 1 130 0;
#X connect 131 1 134 1;
#X connect 131 1 139 1;
#X connect 132 0 135 1;
#X connect 133 0 135 1;
#X connect 134 0 139 0;
#X connect 135 0 136 0;
#X connect 137 0 131 0;
#X connect 138 0 128 0;
#X connect 139 0 135 0;
#X connect 140 0 0 2;
#X connect 141 0 121 0;
#X connect 142 0 155 0;
#X connect 143 0 156 0;
#X connect 144 0 157 0;
#X connect 145 0 158 0;
#X connect 146 0 159 0;
#X connect 147 0 160 0;
#X connect 148 0 161 0;
#X connect 149 0 162 0;
#X connect 150 0 163 0;
#X connect 151 0 164 0;
#X connect 152 0 165 0;
#X connect 153 0 166 0;
#X connect 155 0 154 0;
#X connect 156 0 154 0;
#X connect 157 0 154 0;
#X connect 158 0 154 0;
#X connect 159 0 154 0;
#X connect 160 0 154 0;
#X connect 161 0 154 0;
#X connect 162 0 154 0;
#X connect 163 0 154 0;
#X connect 164 0 154 0;
#X connect 165 0 154 0;
#X connect 166 0 154 0;
#X connect 169 0 168 0;
#X connect 170 0 169 0;
#X connect 171 0 178 0;
#X connect 172 0 175 0;
#X connect 172 1 176 0;
#X connect 173 0 172 0;
#X connect 174 0 171 0;
#X connect 174 1 171 1;
#X connect 175 0 174 0;
#X connect 176 0 174 0;
#X connect 177 0 171 0;
#X coords 0 -1 1 1 220 105 1 332 170;
