#N canvas 126 101 735 622 10;
#X obj 57 177 inlet~;
#X obj 301 118 inlet;
#X obj 388 123 ftom;
#X msg 388 154 set \$1;
#X obj 364 325 s \$0-pitch-set;
#X obj 337 344 s \$0-freq-set;
#X obj 377 180 s \$0-pitch-set;
#X msg 470 159 set \$1;
#X obj 470 180 s \$0-freq-set;
#X obj 470 139 mtof;
#X obj 401 300 s \$0-glide-set;
#X obj 380 371 t b f;
#X obj 397 389 t b f;
#X obj 413 407 t b f;
#X obj 317 561 outlet;
#X obj 283 516 prepend all;
#X msg 308 489 pitch \$1;
#X msg 391 527 freq \$1;
#X obj 392 506 change;
#X obj 308 468 change;
#X obj 445 505 change;
#X obj 469 546 change;
#X msg 468 567 glide \$1;
#X obj 290 371 r \$0-freq;
#X obj 273 397 r \$0-pitch;
#X obj 439 364 r \$0-glide;
#X obj 480 97 r \$0-pitch;
#X obj 39 150 inlet~;
#X obj 131 97 cnv 15 120 47 empty empty empty 6 8 0 10 -73774 -204800
0;
#X obj 181 83 cnv 15 80 61 empty empty empty 6 8 0 10 -73774 -204800
0;
#X obj 387 96 r \$0-freq;
#X obj 180 127 nbx 8 12 2e-05 999999 0 0 \$0-freq \$0-freq-set f -7
6 0 10 -151872 -225280 -225280 2e-05 256;
#X obj 197 113 nbx 6 12 -200 154 0 0 \$0-pitch \$0-pitch-set p -7 6
0 10 -151872 -225280 -225280 0 256;
#X obj 214 85 nbx 4 12 0 9999 0 0 \$0-glide \$0-glide-set glide -31
6 0 10 -151872 -225280 -225280 0 256;
#X obj 39 471 outlet~;
#X obj 214 99 nbx 4 12 0 400 0 0 \$0-q_pc \$0-q_pc-set empty -36 6
0 10 -90649 -204800 -203904 0 256;
#X obj 214 99 nbx 4 12 0 400 0 0 \$0-q \$0-q-set Q -10 6 0 10 -151872
-225280 -225280 0 256;
#X obj 238 202 r \$0-q_pc;
#X obj 238 223 / 100;
#X obj 238 245 s \$0-q-set;
#X obj 76 204 inlet~;
#X obj 337 233 route freq pitch glide q;
#X obj 444 260 * 100;
#X obj 510 373 r \$0-q;
#X obj 321 434 pack f f f f;
#X msg 444 526 q \$1;
#X obj 444 280 s \$0-q_pc-set;
#X obj 514 217 unpack f f f f;
#X obj 514 131 b;
#X obj 545 280 s \$0-q_pc;
#X obj 501 300 s \$0-glide;
#X obj 464 325 s \$0-pitch;
#X obj 437 344 s \$0-freq;
#X obj 311 159 t a a;
#X obj 137 108 tgl 25 0 \$0-on \$0-on-set on 5 12 0 12 -191407 -258699
-90133 1 1;
#N canvas 0 0 342 323 filter~ 0;
#X obj 22 36 inlet~;
#X obj 45 60 inlet~;
#X obj 22 279 outlet~;
#X obj 170 183 inlet~;
#X obj 44 185 +~;
#X obj 126 117 r \$0-q;
#X floatatom 126 138 5 0 0 0 - - -;
#X obj 126 179 line~;
#X obj 126 158 pack f 20;
#X obj 59 84 r \$0-freq;
#X obj 59 105 pack f 20;
#X obj 121 84 r \$0-glide;
#X obj 59 126 line~;
#X obj 126 199 +~;
#X obj 36 219 clip~ 0 22050;
#X obj 125 38 samplerate~;
#X obj 125 59 / 2;
#X obj 125 18 loadbang;
#X obj 126 219 clip~ 0 4;
#X obj 234 113 inlet;
#X obj 234 133 switch~;
#X obj 22 258 muug~;
#X connect 0 0 21 0;
#X connect 1 0 4 0;
#X connect 3 0 13 1;
#X connect 4 0 14 0;
#X connect 5 0 6 0;
#X connect 6 0 8 0;
#X connect 7 0 13 0;
#X connect 8 0 7 0;
#X connect 9 0 10 0;
#X connect 10 0 12 0;
#X connect 11 0 10 1;
#X connect 12 0 4 1;
#X connect 13 0 18 0;
#X connect 14 0 21 1;
#X connect 15 0 16 0;
#X connect 16 0 14 2;
#X connect 17 0 15 0;
#X connect 18 0 21 2;
#X connect 19 0 20 0;
#X connect 21 0 2 0;
#X restore 38 373 pd filter~;
#X obj 95 351 r \$0-on;
#X obj 610 280 s \$0-on-set;
#X obj 532 418 r \$0-on;
#X msg 532 438 on \$1;
#X msg 627 214 1;
#X obj 626 186 loadbang;
#X obj 105 373 == 0;
#X obj 54 424 *~ 0;
#X obj 514 197 route all on;
#X obj 527 243 route freq pitch glide q on;
#X obj 104 240 noise~;
#X obj 104 261 *~ 3.58489e-05;
#X connect 0 0 55 1;
#X connect 1 0 53 0;
#X connect 2 0 3 0;
#X connect 2 0 19 0;
#X connect 3 0 6 0;
#X connect 7 0 8 0;
#X connect 9 0 7 0;
#X connect 9 0 18 0;
#X connect 11 0 44 0;
#X connect 11 1 44 1;
#X connect 12 0 44 0;
#X connect 12 1 44 2;
#X connect 13 0 44 0;
#X connect 13 1 44 3;
#X connect 15 0 14 0;
#X connect 16 0 14 0;
#X connect 17 0 14 0;
#X connect 18 0 17 0;
#X connect 19 0 16 0;
#X connect 20 0 45 0;
#X connect 21 0 22 0;
#X connect 22 0 14 0;
#X connect 23 0 18 0;
#X connect 23 0 44 0;
#X connect 24 0 19 0;
#X connect 24 0 11 0;
#X connect 25 0 21 0;
#X connect 25 0 12 0;
#X connect 26 0 9 0;
#X connect 26 0 48 0;
#X connect 27 0 55 0;
#X connect 27 0 63 0;
#X connect 30 0 2 0;
#X connect 37 0 38 0;
#X connect 38 0 39 0;
#X connect 40 0 55 2;
#X connect 41 0 5 0;
#X connect 41 1 4 0;
#X connect 41 2 10 0;
#X connect 41 3 42 0;
#X connect 41 4 64 0;
#X connect 42 0 46 0;
#X connect 43 0 20 0;
#X connect 43 0 13 0;
#X connect 44 0 15 0;
#X connect 45 0 14 0;
#X connect 47 0 5 0;
#X connect 47 1 4 0;
#X connect 47 2 10 0;
#X connect 47 3 42 0;
#X connect 48 0 8 0;
#X connect 53 0 41 0;
#X connect 53 1 65 0;
#X connect 55 0 34 0;
#X connect 56 0 62 0;
#X connect 56 0 55 3;
#X connect 58 0 59 0;
#X connect 59 0 14 0;
#X connect 60 0 57 0;
#X connect 61 0 60 0;
#X connect 62 0 63 1;
#X connect 63 0 34 0;
#X connect 64 0 47 0;
#X connect 64 1 57 0;
#X connect 65 0 52 0;
#X connect 65 1 51 0;
#X connect 65 2 50 0;
#X connect 65 3 49 0;
#X connect 65 4 57 0;
#X connect 66 0 67 0;
#X connect 67 0 55 0;
#X coords 0 -1 1 1 132 67 1 130 80;
