#N canvas 380 59 896 669 10;
#X obj 706 14 import tof;
#X obj 44 388 phasorshot~;
#X floatatom 38 164 0 0 0 0 - - -;
#X obj 38 204 exp;
#X floatatom 38 224 0 0 0 0 - - -;
#X text 67 212 speed;
#X text 67 225 change;
#X obj 181 488 cnv 15 257 246 empty empty empty 20 12 0 14 -188213
-18065 0;
#X obj 181 523 cnv 15 194 190 empty empty empty 20 12 0 14 -183806
-66577 0;
#X obj 640 617 cnv 15 100 60 empty empty empty 20 12 0 14 -233017 -66577
0;
#X obj 650 627 cnv 15 100 60 empty empty empty 20 12 0 14 -233017 -66577
0;
#X obj 660 637 cnv 15 100 60 empty empty empty 20 12 0 14 -233017 -66577
0;
#X obj 670 647 cnv 15 100 60 empty empty empty 20 12 0 14 -233017 -66577
0;
#X obj 680 657 cnv 15 100 60 empty empty empty 20 12 0 14 -233017 -66577
0;
#X obj 690 667 cnv 15 100 60 empty empty empty 20 12 0 14 -233017 -66577
0;
#X obj 700 677 cnv 15 100 60 empty empty empty 20 12 0 14 -233017 -66577
0;
#X obj 259 506 nbx 5 14 1 2899 0 0 \$0-chunksamp \$0-chunksamp-set
chunk 0 -6 0 12 -262144 -1 -1 1 256;
#X obj 543 267 nbx 5 14 -1e+37 1e+37 0 0 empty empty empty 0 -8 0 10
-262144 -1 -1 0 256;
#X obj 38 184 * 0.0577623;
#X obj 131 23 inlet;
#X obj 126 102 - 60;
#X obj 371 202 pack f f;
#X obj 371 222 makesymbol chunk_%s_%s;
#X obj 45 488 tabread4~ chunk_1_1;
#X floatatom 75 369 5 0 0 0 - - -;
#X obj 324 506 nbx 3 14 0 100 0 0 \$0-phase \$0-phase-set phase 0 -8
0 10 -262144 -1 -1 0 256;
#X obj 90 261 r \$0-phase;
#X msg 326 249 get \$1 \$2;
#X obj 326 270 send getinfo;
#X obj 46 674 outlet~;
#X obj 46 602 *~;
#X msg 192 409 set \$1;
#X obj 184 506 hradio 14 1 0 5 \$0-chunks-rad \$0-chunks-set chunks
0 -6 0 12 -262144 -1 -1 0;
#X obj 750 152 r \$0-chunks-rad;
#X obj 832 174 + 1;
#X obj 516 111 route low lowmid mid highmid high;
#X obj 525 204 f;
#X obj 564 203 f;
#X obj 603 203 f;
#X obj 642 202 f;
#X obj 681 203 f;
#X obj 741 177 sel 0 1 2 3 4;
#X msg 527 227 range 1 \$1;
#X obj 528 247 s \$0-chunksamp-set;
#X obj 371 119 r \$0-chunks;
#X obj 790 205 s \$0-chunks;
#X obj 389 162 r \$0-chunksamp;
#X obj 726 269 route 1 2 3 4 5;
#X obj 726 243 route data;
#N canvas 0 0 980 639 datasort 0;
#X obj 86 38 inlet;
#X obj 464 234 list-len;
#X obj 653 128 unpack f f f f f f;
#X obj 653 167 t f b;
#X obj 680 187 samplerate~;
#X obj 680 208 * 0.001;
#X obj 653 230 /;
#X obj 495 400 list-insert;
#X obj 465 274 kalashnikov;
#X obj 415 254 - 1;
#X obj 558 324 list-math -;
#X obj 580 158 list-len;
#X obj 580 178 - 1;
#X obj 574 270 f;
#X obj 502 206 t a b a;
#X obj 574 290 / 1;
#X obj 607 266 moses 1;
#X obj 525 330 * 2;
#X obj 525 350 + 1;
#X msg 703 394 duration \$1;
#X obj 613 85 t b f;
#X msg 613 107 100;
#X obj 613 128 -;
#X obj 558 345 list-math /;
#X obj 558 366 list-clip 0 1;
#X obj 500 177 lister;
#X obj 497 151 r \$0-amp2eg1;
#X obj 581 429 r \$0-list_limit;
#X obj 581 449 - 3;
#X obj 581 469 * 2;
#X obj 581 488 + 5;
#X obj 530 509 niagara 5;
#X obj 580 198 moses 4;
#X obj 502 85 r \$0-list_limit;
#X obj 610 238 f;
#X obj 610 218 t b;
#X obj 564 110 - 1;
#X obj 415 234 moses 4;
#X obj 440 274 f;
#X obj 440 254 t b;
#X obj 495 372 f;
#X obj 495 302 t b f;
#X obj 568 401 l;
#X obj 496 506 l;
#X obj 665 458 s \$0-r_eg_1;
#X obj 67 188 lister;
#X obj 67 168 r \$0-hasc2eg2;
#X obj 518 51 route amp;
#X obj 85 124 route hasc pitch;
#X obj 204 234 list-len;
#X obj 235 400 list-insert;
#X obj 205 274 kalashnikov;
#X obj 155 254 - 1;
#X obj 298 310 list-math -;
#X obj 320 158 list-len;
#X obj 320 178 - 1;
#X obj 314 270 f;
#X obj 242 206 t a b a;
#X obj 314 290 / 1;
#X obj 265 330 * 2;
#X obj 265 350 + 1;
#X obj 353 85 t b f;
#X obj 353 128 -;
#X obj 298 330 list-math /;
#X obj 298 378 list-clip 0 1;
#X obj 321 449 - 3;
#X obj 321 469 * 2;
#X obj 321 488 + 5;
#X obj 270 509 niagara 5;
#X obj 320 198 moses 4;
#X obj 350 238 f;
#X obj 350 218 t b;
#X obj 304 110 - 1;
#X obj 155 234 moses 4;
#X obj 180 274 f;
#X obj 180 254 t b;
#X obj 235 372 f;
#X obj 235 302 t b f;
#X obj 308 401 l;
#X obj 236 506 l;
#X obj 671 519 s \$0-r_eg_2;
#X obj 349 268 moses 1;
#X msg 353 107 511;
#X obj 321 429 r \$0-list_limit;
#X obj 298 354 list-math *;
#X obj 242 85 r \$0-list_limit;
#X obj 735 306 s \$0-duration;
#X obj 707 160 s \$0-length;
#X obj 823 110 r \$0-phase;
#X obj 373 174 r \$0-hasc_extent-num;
#X obj 352 64 r \$0-hasc_floor-num;
#X obj 612 64 r \$0-amp_floor-num;
#X obj 387 404 list-minmax;
#X obj 694 363 f;
#X msg 762 486 duration \$1;
#X obj 753 455 f;
#X obj 723 256 inlet;
#X obj 817 255 inlet;
#X obj 430 438 s \$0-eg_2_max;
#X connect 0 0 48 0;
#X connect 1 0 9 0;
#X connect 2 0 3 0;
#X connect 2 0 87 0;
#X connect 3 0 6 0;
#X connect 3 1 4 0;
#X connect 4 0 5 0;
#X connect 5 0 6 1;
#X connect 6 0 13 1;
#X connect 6 0 56 1;
#X connect 6 0 86 0;
#X connect 6 0 93 0;
#X connect 6 0 95 0;
#X connect 7 0 31 0;
#X connect 7 0 42 0;
#X connect 8 1 41 0;
#X connect 8 2 43 0;
#X connect 9 0 37 0;
#X connect 10 0 23 0;
#X connect 11 0 12 0;
#X connect 12 0 32 0;
#X connect 13 0 15 0;
#X connect 14 0 1 0;
#X connect 14 1 13 0;
#X connect 14 2 11 0;
#X connect 14 2 10 0;
#X connect 15 0 40 1;
#X connect 16 1 15 1;
#X connect 17 0 18 0;
#X connect 18 0 7 1;
#X connect 19 0 44 0;
#X connect 20 0 21 0;
#X connect 20 1 10 1;
#X connect 20 1 22 1;
#X connect 21 0 22 0;
#X connect 22 0 23 1;
#X connect 23 0 24 0;
#X connect 24 0 7 2;
#X connect 25 0 14 0;
#X connect 26 0 25 0;
#X connect 27 0 28 0;
#X connect 28 0 29 0;
#X connect 29 0 30 0;
#X connect 30 0 31 1;
#X connect 31 0 43 1;
#X connect 32 0 16 0;
#X connect 32 1 35 0;
#X connect 33 0 32 1;
#X connect 33 0 36 0;
#X connect 33 0 37 1;
#X connect 34 0 16 0;
#X connect 35 0 34 0;
#X connect 36 0 34 1;
#X connect 36 0 38 1;
#X connect 37 0 8 0;
#X connect 37 1 39 0;
#X connect 38 0 8 0;
#X connect 39 0 38 0;
#X connect 40 0 7 0;
#X connect 41 0 40 0;
#X connect 41 1 17 0;
#X connect 42 0 7 2;
#X connect 43 0 44 0;
#X connect 45 0 57 0;
#X connect 46 0 45 0;
#X connect 47 0 25 1;
#X connect 47 1 2 0;
#X connect 48 0 45 1;
#X connect 48 2 47 0;
#X connect 49 0 52 0;
#X connect 50 0 68 0;
#X connect 50 0 78 0;
#X connect 51 1 77 0;
#X connect 51 2 79 0;
#X connect 52 0 73 0;
#X connect 53 0 63 0;
#X connect 54 0 55 0;
#X connect 55 0 69 0;
#X connect 56 0 58 0;
#X connect 57 0 49 0;
#X connect 57 1 56 0;
#X connect 57 2 54 0;
#X connect 57 2 53 0;
#X connect 58 0 76 1;
#X connect 59 0 60 0;
#X connect 60 0 50 1;
#X connect 61 0 82 0;
#X connect 61 1 53 1;
#X connect 61 1 62 1;
#X connect 62 0 63 1;
#X connect 63 0 84 0;
#X connect 64 0 50 2;
#X connect 64 0 92 0;
#X connect 65 0 66 0;
#X connect 66 0 67 0;
#X connect 67 0 68 1;
#X connect 68 0 79 1;
#X connect 69 0 81 0;
#X connect 69 1 71 0;
#X connect 70 0 81 0;
#X connect 71 0 70 0;
#X connect 72 0 70 1;
#X connect 72 0 74 1;
#X connect 73 0 51 0;
#X connect 73 1 75 0;
#X connect 74 0 51 0;
#X connect 75 0 74 0;
#X connect 76 0 50 0;
#X connect 77 0 76 0;
#X connect 77 1 59 0;
#X connect 78 0 50 2;
#X connect 79 0 80 0;
#X connect 81 1 58 1;
#X connect 82 0 62 0;
#X connect 83 0 65 0;
#X connect 84 0 64 0;
#X connect 85 0 69 1;
#X connect 85 0 72 0;
#X connect 85 0 73 1;
#X connect 89 0 84 1;
#X connect 90 0 61 0;
#X connect 91 0 20 0;
#X connect 92 1 98 0;
#X connect 93 0 19 0;
#X connect 94 0 80 0;
#X connect 95 0 94 0;
#X connect 96 0 93 0;
#X connect 97 0 95 0;
#X restore 710 444 pd datasort;
#X obj 638 338 spigot;
#X obj 671 316 == 1;
#X obj 671 296 r \$0-chunks;
#X obj 682 357 spigot;
#X obj 715 315 r \$0-chunks;
#X obj 716 378 spigot;
#X obj 749 336 r \$0-chunks;
#X obj 749 399 spigot;
#X obj 782 357 r \$0-chunks;
#X obj 783 420 spigot;
#X obj 816 378 r \$0-chunks;
#X obj 107 368 r \$0-loop;
#X obj 90 281 / 100;
#X obj 715 335 == 2;
#X obj 749 356 == 3;
#X obj 782 377 == 4;
#X obj 816 398 == 5;
#X obj 383 530 vsl 14 48 0 94 0 0 \$0-amp_floor \$0-amp_floor-set floor
-2 -7 0 8 -134643 -21575 -34315 0 1;
#X obj 383 581 nbx 2 10 0 99 0 0 \$0-amp_floor-num \$0-amp_floor empty
0 -6 0 8 -134643 -21575 -21575 0 256;
#X obj 384 476 nbx 5 10 0 99999 0 0 empty \$0-duration duration -51
5 0 10 -262144 -1 -1 0 256;
#X obj 379 674 bng 12 250 50 0 \$0-reset_eg_2 \$0-reset_eg_2-bng reset
15 6 0 8 -200695 -13381 -13381;
#X obj 402 539 bng 12 250 50 0 \$0-amp2eg1 \$0-amp2eg1-bng get -2 -6
0 10 -134643 -21575 -21575;
#X obj 187 530 breakpoints 180 41 1000 \$0-r_eg_1 \$0-s_eg_1 \$0-d_eg_1
;
#X msg 513 514 breakpoints 180 41 3000 \$0-r_eg_1 \$0-s_eg_1 \$0-d_eg_1
;
#X msg 513 534 breakpoints 180 81 3000 \$0-r_eg_2 \$0-s_eg_2 \$0-d_eg_2
;
#X obj 389 182 t b f;
#X obj 390 501 nbx 3 14 3 100 0 0 \$0-list_limit \$0-list_limit-set
limit 0 -6 0 10 -167925 -13330 -13330 5 256;
#N canvas 618 139 490 300 init 0;
#X msg 147 116 5;
#X obj 146 150 s \$0-list_limit-set;
#X obj 147 75 loadbang;
#X msg 90 116 1;
#X obj 88 172 s \$0-hasc_extent-set;
#X obj 270 177 s \$0-hasc_floor-set;
#X msg 270 117 0;
#X obj 108 273 s \$0-r_eg_1;
#X msg 317 252 0.5 3000 0.5;
#X obj 317 273 s \$0-r_eg_2;
#X msg 213 273 duration 3000;
#X obj 186 228 t b b;
#X obj 227 206 bng 15 250 50 0 empty empty empty 17 7 0 10 -262144
-1 -1;
#X obj 316 218 r \$0-reset_eg_2;
#X obj 262 198 r \$0-reset_eg_1;
#X obj 134 226 t b b;
#X msg 45 228 duration 3000;
#X obj 448 271 outlet;
#X obj 404 270 outlet;
#X obj 411 242 del 0;
#X obj 456 243 del 0;
#X msg 108 252 0 230 0.86 800 1 1000 0.707 170 0;
#X connect 0 0 1 0;
#X connect 2 0 0 0;
#X connect 2 0 3 0;
#X connect 2 0 6 0;
#X connect 2 0 11 0;
#X connect 2 0 15 0;
#X connect 3 0 4 0;
#X connect 6 0 5 0;
#X connect 8 0 9 0;
#X connect 10 0 9 0;
#X connect 11 0 8 0;
#X connect 11 1 10 0;
#X connect 12 0 11 0;
#X connect 12 0 0 0;
#X connect 12 0 6 0;
#X connect 12 0 3 0;
#X connect 12 0 15 0;
#X connect 13 0 11 0;
#X connect 13 0 20 0;
#X connect 14 0 15 0;
#X connect 14 0 19 0;
#X connect 15 0 21 0;
#X connect 15 1 16 0;
#X connect 16 0 7 0;
#X connect 19 0 18 0;
#X connect 20 0 17 0;
#X connect 21 0 7 0;
#X restore 784 444 pd init;
#X obj 398 611 bng 12 250 50 0 \$0-hasc2eg2 \$0-hasc2eg2-bng get -2
-6 0 10 -171507 -21575 -21575;
#X obj 379 606 vsl 14 52 0 510 0 0 \$0-hasc_floor \$0-hasc_floor-set
floor -2 -7 0 8 -171507 -21575 -34315 0 1;
#X obj 379 661 nbx 3 10 0 510 0 0 \$0-hasc_floor-num \$0-hasc_floor
empty 0 -6 0 8 -171507 -21575 -21575 0 256;
#X obj 417 604 vsl 10 41 0.25 4 1 0 \$0-hasc_extent \$0-hasc_extent-set
* 2 8 0 10 -171507 -21575 -34315 2000 1;
#X obj 401 648 nbx 4 10 0 510 0 0 \$0-hasc_extent-num \$0-hasc_extent
empty 0 -6 0 8 -171507 -21575 -21575 1 256;
#X obj 87 542 r \$0-s_eg_1;
#X obj 87 575 line~;
#X obj 219 205 r \$0-duration;
#X obj 219 225 expr 1000/$f1;
#X obj 38 253 *;
#X obj 31 17 r \$0-s_eg_2;
#X obj 187 583 breakpoints 180 121 3000 \$0-r_eg_2 \$0-s_eg_2 \$0-d_eg_2
;
#X obj 38 144 +;
#X obj 147 164 s \$0-r_eg_1;
#X obj 147 183 s \$0-r_eg_2;
#X obj 126 122 t b f;
#X obj 30 57 * 121;
#X obj 30 77 - 60;
#X obj 31 37 unpack;
#X msg 181 42 pitch 60;
#X obj 45 436 *~;
#X obj 88 416 r \$0-length;
#X floatatom 88 444 5 0 0 0 - - -;
#X msg 153 142 bang;
#X obj 377 699 nbx 3 12 1 121 0 0 \$0-eg_2_depth-num \$0-eg_2_depth-set
depth 0 -6 0 10 -262144 -1 -1 1 256;
#X obj 37 279 pack;
#X obj 37 300 line~;
#X obj 280 19 r \$0-eg_2_depth-num;
#X obj 280 60 / 2;
#X obj 280 40 - 1;
#X obj 328 581 nbx 4 10 -1e+37 1e+37 0 0 empty empty empty 0 -8 0 10
-262144 -1 -1 0 256;
#X obj 328 581 nbx 4 10 0 9 0 0 empty \$0-eg_2_max max -21 5 0 10 -262144
-1 -1 0 256;
#X obj 409 564 bng 12 250 50 0 \$0-reset_eg_1 \$0-reset_eg_1-bng reset
-6 -5 0 8 -200695 -13381 -13381;
#X obj 418 694 bng 12 250 50 0 \$0-testit \$0-testit-bng test -3 -5
0 10 -13381 -204786 -13381;
#X text 249 559 amplitude;
#X text 258 577 pitch;
#N canvas 0 0 551 318 automation 0;
#X obj 57 62 route phase chunks chunk limit afloor aget hfloor hget
hmul;
#X obj 45 31 inlet;
#X obj 96 246 s \$0-chunks-set;
#X obj 57 266 s \$0-phase-set;
#X obj 135 226 s \$0-chunksamp-set;
#X obj 174 206 s \$0-list_limit-set;
#X obj 213 186 s \$0-amp_floor-set;
#X obj 252 166 s \$0-amp2eg1-bng;
#X obj 291 146 s \$0-hasc_floor-set;
#X obj 330 126 s \$0-hasc2eg2-bng;
#X obj 369 105 s \$0-hasc_extent-set;
#X obj 419 83 s \$0-loop-set;
#X obj 399 228 s \$0-eg_2_depth-set;
#X obj 419 62 route loop depth;
#X connect 0 0 3 0;
#X connect 0 1 2 0;
#X connect 0 2 4 0;
#X connect 0 3 5 0;
#X connect 0 4 6 0;
#X connect 0 5 7 0;
#X connect 0 6 8 0;
#X connect 0 7 9 0;
#X connect 0 8 10 0;
#X connect 0 9 13 0;
#X connect 1 0 0 0;
#X connect 13 0 11 0;
#X connect 13 1 12 0;
#X restore 224 91 pd automation;
#X obj 181 22 r \$0-testit;
#X obj 131 70 route pitch trig;
#X obj 75 349 f;
#N canvas 0 0 450 495 auto_out 0;
#X obj 256 199 r \$0-phase;
#X obj 245 129 r \$0-chunks-rad;
#X obj 153 129 r \$0-chunksamp;
#X obj 110 254 r \$0-loop;
#X obj 67 129 r \$0-duration;
#X msg 245 149 chunks \$1;
#X msg 153 149 chunksamp \$1;
#X msg 213 341 0;
#X obj 104 364 spigot 1;
#X msg 166 342 1;
#X msg 67 149 duration \$1;
#X msg 256 219 phase \$1;
#X msg 110 273 loop \$1;
#X obj 106 412 outlet;
#X connect 0 0 11 0;
#X connect 1 0 5 0;
#X connect 2 0 6 0;
#X connect 3 0 12 0;
#X connect 4 0 10 0;
#X connect 5 0 8 0;
#X connect 6 0 8 0;
#X connect 7 0 8 1;
#X connect 8 0 13 0;
#X connect 9 0 8 1;
#X connect 10 0 8 0;
#X connect 11 0 8 0;
#X connect 12 0 8 0;
#X restore 447 385 pd auto_out;
#X obj 362 506 tgl 14 0 \$0-loop \$0-loop-set loop -5 -6 0 10 -262144
-1 -1 0 1;
#X obj 450 417 outlet;
#X obj 46 643 hip~ 24;
#N canvas 0 0 505 321 5---spigots---------------- 0;
#X obj 56 130 inlet;
#X obj 416 118 inlet;
#X obj 89 155 == 0;
#X obj 56 176 spigot;
#X obj 56 197 outlet;
#X obj 136 130 inlet;
#X obj 136 176 spigot;
#X obj 136 197 outlet;
#X obj 216 130 inlet;
#X obj 216 176 spigot;
#X obj 216 197 outlet;
#X obj 296 130 inlet;
#X obj 296 176 spigot;
#X obj 296 197 outlet;
#X obj 376 130 inlet;
#X obj 376 176 spigot;
#X obj 376 197 outlet;
#X obj 169 155 == 1;
#X obj 249 155 == 2;
#X obj 329 155 == 3;
#X obj 409 155 == 4;
#X connect 0 0 3 0;
#X connect 1 0 2 0;
#X connect 1 0 20 0;
#X connect 1 0 19 0;
#X connect 1 0 18 0;
#X connect 1 0 17 0;
#X connect 2 0 3 1;
#X connect 3 0 4 0;
#X connect 5 0 6 0;
#X connect 6 0 7 0;
#X connect 8 0 9 0;
#X connect 9 0 10 0;
#X connect 11 0 12 0;
#X connect 12 0 13 0;
#X connect 14 0 15 0;
#X connect 15 0 16 0;
#X connect 17 0 6 1;
#X connect 18 0 9 1;
#X connect 19 0 12 1;
#X connect 20 0 15 1;
#X restore 526 177 pd 5---spigots----------------;
#X obj 187 717 tgl 12 0 \$0-follow \$0-follow-set follow 15 6 0 9 -183680
-16662 -16662 0 1;
#X obj 238 717 nbx 5 12 0 2898 0 0 \$0-follow_rnd \$0-follow_rnd-set
random 52 6 0 9 -183680 -16662 -16662 0 256;
#X obj 401 336 s \$0-follow_rnd-set;
#X msg 401 302 range 0 \$1;
#N canvas 0 0 450 389 follow 0;
#X obj 102 63 r \$0-follow;
#X obj 68 194 spigot;
#X obj 38 64 inlet;
#X obj 97 246 random 1;
#X obj 127 141 + 1;
#X obj 70 222 t f b;
#X obj 70 266 -;
#X obj 70 341 s \$0-chunksamp-set;
#X obj 133 105 r \$0-follow_rnd;
#X obj 236 39 inlet;
#X obj 197 39 inlet;
#X msg 236 60 0;
#X msg 197 59 1;
#X obj 34 130 spigot 1;
#X connect 0 0 1 1;
#X connect 1 0 5 0;
#X connect 2 0 13 0;
#X connect 3 0 6 1;
#X connect 4 0 3 1;
#X connect 5 0 6 0;
#X connect 5 1 3 0;
#X connect 6 0 7 0;
#X connect 8 0 4 0;
#X connect 9 0 11 0;
#X connect 10 0 12 0;
#X connect 11 0 13 1;
#X connect 12 0 13 1;
#X connect 13 0 1 0;
#X restore 525 346 pd follow;
#X obj 433 253 - 1;
#X obj 125 389 s \$0-done;
#X obj 188 142 s \$0-start;
#X obj 592 314 r \$0-start;
#X obj 554 295 r \$0-done;
#X obj 516 82 inlet;
#X connect 1 0 98 0;
#X connect 1 2 129 0;
#X connect 2 0 18 0;
#X connect 3 0 4 0;
#X connect 4 0 87 0;
#X connect 18 0 3 0;
#X connect 19 0 116 0;
#X connect 20 0 93 0;
#X connect 21 0 22 0;
#X connect 21 0 27 0;
#X connect 22 0 31 0;
#X connect 23 0 30 0;
#X connect 24 0 1 1;
#X connect 26 0 62 0;
#X connect 27 0 28 0;
#X connect 30 0 121 0;
#X connect 31 0 23 0;
#X connect 33 0 34 0;
#X connect 33 0 41 0;
#X connect 33 0 122 5;
#X connect 34 0 45 0;
#X connect 35 0 36 1;
#X connect 35 0 122 0;
#X connect 35 1 37 1;
#X connect 35 1 122 1;
#X connect 35 2 38 1;
#X connect 35 2 122 2;
#X connect 35 3 39 1;
#X connect 35 3 122 3;
#X connect 35 4 40 1;
#X connect 35 4 122 4;
#X connect 35 5 48 0;
#X connect 36 0 42 0;
#X connect 36 0 128 0;
#X connect 36 0 127 0;
#X connect 37 0 42 0;
#X connect 37 0 128 0;
#X connect 37 0 127 0;
#X connect 38 0 42 0;
#X connect 38 0 128 0;
#X connect 38 0 127 0;
#X connect 39 0 42 0;
#X connect 39 0 128 0;
#X connect 39 0 127 0;
#X connect 40 0 42 0;
#X connect 40 0 128 0;
#X connect 40 0 127 0;
#X connect 41 0 36 0;
#X connect 41 1 37 0;
#X connect 41 2 38 0;
#X connect 41 3 39 0;
#X connect 41 4 40 0;
#X connect 42 0 43 0;
#X connect 44 0 21 0;
#X connect 46 0 75 0;
#X connect 47 0 50 0;
#X connect 47 1 53 0;
#X connect 47 2 55 0;
#X connect 47 3 57 0;
#X connect 47 4 59 0;
#X connect 48 0 47 0;
#X connect 50 0 49 0;
#X connect 51 0 50 1;
#X connect 52 0 51 0;
#X connect 53 0 49 0;
#X connect 54 0 63 0;
#X connect 55 0 49 0;
#X connect 56 0 64 0;
#X connect 57 0 49 0;
#X connect 58 0 65 0;
#X connect 59 0 49 0;
#X connect 60 0 66 0;
#X connect 61 0 1 2;
#X connect 62 0 117 1;
#X connect 63 0 53 1;
#X connect 64 0 55 1;
#X connect 65 0 57 1;
#X connect 66 0 59 1;
#X connect 75 0 21 0;
#X connect 75 1 21 1;
#X connect 77 0 49 1;
#X connect 77 1 49 2;
#X connect 83 0 84 0;
#X connect 84 0 30 1;
#X connect 85 0 86 0;
#X connect 86 0 87 1;
#X connect 87 0 103 0;
#X connect 88 0 96 0;
#X connect 90 0 2 0;
#X connect 93 0 91 0;
#X connect 93 0 92 0;
#X connect 93 1 90 1;
#X connect 93 1 101 0;
#X connect 94 0 95 0;
#X connect 95 0 90 0;
#X connect 96 0 94 0;
#X connect 96 1 103 1;
#X connect 97 0 116 0;
#X connect 98 0 23 0;
#X connect 99 0 98 1;
#X connect 99 0 100 0;
#X connect 101 0 117 0;
#X connect 101 0 130 0;
#X connect 103 0 104 0;
#X connect 104 0 1 0;
#X connect 105 0 94 1;
#X connect 105 0 107 0;
#X connect 106 0 95 1;
#X connect 107 0 106 0;
#X connect 115 0 97 0;
#X connect 116 0 20 0;
#X connect 116 1 20 0;
#X connect 116 2 114 0;
#X connect 117 0 24 0;
#X connect 118 0 120 0;
#X connect 121 0 29 0;
#X connect 122 0 36 0;
#X connect 122 1 37 0;
#X connect 122 2 38 0;
#X connect 122 3 39 0;
#X connect 122 4 40 0;
#X connect 126 0 125 0;
#X connect 128 0 126 0;
#X connect 131 0 127 2;
#X connect 132 0 127 1;
#X connect 133 0 35 0;
#X coords 0 -1 1 1 259 265 1 180 472;
