#N canvas 35 186 983 643 10;
#X obj 55 -179 r \$0-pitch;
#X obj 300 -66 r \$0-samp_offset;
#X obj 91 -115 r \$0-samp_num;
#X obj 134 -139 r \$0-loop;
#X obj 183 -168 r \$0-adsr_a;
#X obj 199 -150 r \$0-adsr_d;
#X obj 240 -98 r \$0-adsr_r;
#X obj 320 -96 r \$0-duration;
#X obj 103 -83 r \$0-bank;
#X obj 414 -38 r \$0-direction_alt;
#X obj 617 -96 r \$0-gpoly;
#X msg 620 -25 label MONO;
#X msg 703 -25 label POLY;
#X obj 619 15 s \$0-gpoly-set;
#X obj 617 -65 sel 0 1;
#X obj 58 -7 pack f f f f f f f f f f f f;
#X obj 63 -78 f;
#X obj 219 -125 r \$0-adsr_s_pc;
#N canvas 5 48 879 300 init 0;
#X obj 48 196 s \$0-adsr_a-init;
#X msg 48 166 10;
#X obj 154 196 s \$0-adsr_d-init;
#X obj 262 197 s \$0-adsr_s_pc-init;
#X obj 388 201 s \$0-adsr_r-init;
#X msg 158 169 130;
#X msg 259 160 50;
#X msg 388 174 1000;
#X obj 684 100 loadbang;
#X obj 499 202 s \$0-pitch-set;
#X msg 509 167 60;
#X obj 594 201 s \$0-bank-set;
#X msg 593 166 0;
#X obj 687 201 s \$0-duration;
#X obj 780 201 s \$0-gpoly-set;
#X msg 781 178 1;
#X msg 693 163 0;
#X obj 523 254 s \$0-samp_num-set;
#X connect 1 0 0 0;
#X connect 5 0 2 0;
#X connect 6 0 3 0;
#X connect 7 0 4 0;
#X connect 8 0 1 0;
#X connect 8 0 5 0;
#X connect 8 0 6 0;
#X connect 8 0 7 0;
#X connect 8 0 10 0;
#X connect 8 0 12 0;
#X connect 8 0 15 0;
#X connect 8 0 16 0;
#X connect 10 0 9 0;
#X connect 12 0 11 0;
#X connect 15 0 14 0;
#X connect 15 0 17 0;
#X connect 16 0 13 0;
#X restore 568 53 pd init;
#X obj 321 -41 r \$0-direction;
#X obj 58 38 outlet;
#X obj 61 97 cnv 15 402 32 empty empty empty 20 12 0 14 -175673 -66577
0;
#X obj 526 178 inlet;
#X obj 526 317 s \$0-poly-set;
#X obj 557 300 s \$0-direction_alt-set;
#X obj 589 283 s \$0-bank-set;
#X obj 589 266 - 1;
#X obj 621 266 s \$0-file_load;
#X obj 617 390 s \$0-adsr_a-set;
#X obj 623 358 moses 0;
#X obj 672 358 moses 0;
#X obj 721 358 moses 0;
#X obj 711 415 s \$0-adsr_d-set;
#X obj 741 396 s \$0-adsr_s_pc-set;
#X obj 760 377 s \$0-adsr_r-set;
#X text 512 161 global-set;
#X text 434 -145 pitch sample bank a d s r duration offset direction
loop alternate_direction;
#X obj 727 304 s \$0-duration-set;
#X obj 743 287 s \$0-samp_offset-set;
#X obj 759 270 s \$0-direction-set;
#X obj 775 253 s \$0-loop-set;
#X obj 653 338 unpack f f f f;
#X obj 860 253 s \$0-pitch-set;
#X obj 38 -129 inlet;
#X obj 126 83 cnv 15 336 32 empty empty empty 20 12 0 14 -175673 -66577
0;
#X obj 131 95 nbx 3 12 1 32 0 0 \$0-samp_num \$0-samp_num-set sample
0 -6 0 9 -225280 -1109 -1109 1 256;
#X obj 166 95 nbx 3 12 0 128 0 0 \$0-pitch \$0-pitch-set pitch 0 -6
0 9 -225280 -1109 -1109 57 256;
#X obj 201 95 nbx 4 12 0 127 0 0 \$0-samp_offset \$0-samp_offset-set
offset 0 -6 0 8 -225280 -1109 -1109 0 256;
#X obj 67 113 tgl 10 0 \$0-loop \$0-loop-set loop -5 -5 0 9 -13330
-204800 -13330 0 1;
#X obj 101 113 tgl 10 0 \$0-direction \$0-direction-set fwd -2 -5 0
9 -13330 -204800 -13330 0 1;
#X obj 84 105 tgl 10 0 \$0-direction_alt \$0-direction_alt-set alt
-1 17 0 9 -13330 -204800 -13330 0 1;
#X obj 241 95 nbx 5 12 0 99999 0 0 \$0-adsr_a \$0-adsr_a-set attack
0 -6 0 9 -104373 -204800 -16662 10.002 256;
#X obj 291 95 nbx 5 12 0 99999 0 0 \$0-adsr_d \$0-adsr_d-set decay
0 -6 0 9 -104373 -204800 -16662 129.953 256;
#X obj 341 95 nbx 4 12 0 100 0 0 \$0-adsr_s_pc \$0-adsr_s_pc-set sustain
0 -6 0 9 -104373 -204800 -16662 50 256;
#X obj 384 95 nbx 5 12 0 99999 0 0 \$0-adsr_r \$0-adsr_r-set release
0 -6 0 9 -104373 -204800 -16662 1000.13 256;
#X obj 187 110 nbx 6 10 0 1e+07 0 0 \$0-duration \$0-duration-set duration
0 15 0 8 -105717 -66856 -13330 0 256;
#X obj 144 110 hradio 10 1 0 4 \$0-bank \$0-bank-set bank -26 4 0 10
-86853 -261682 -86853 0;
#X obj 244 109 hsl 43 12 1 3000 1 0 \$0-adsr_a-set \$0-adsr_a-init
empty -2 -8 0 10 -104373 -204800 -16662 1208 1;
#X obj 294 109 hsl 43 12 30 3000 1 0 \$0-adsr_d-set \$0-adsr_d-init
empty -2 -8 0 10 -104373 -204800 -16662 1337 1;
#X obj 387 109 hsl 43 12 60 6000 1 0 \$0-adsr_r-set \$0-adsr_r-init
empty -2 -8 0 10 -104373 -204800 -16662 2566 1;
#X obj 344 109 hsl 36 12 0 100 0 0 \$0-adsr_s_pc-set \$0-adsr_s_pc-init
empty -2 -8 0 10 -104373 -204800 -16662 1750 1;
#X obj 435 96 tgl 25 0 \$0-gpoly \$0-gpoly-set POLY 1 -6 0 10 -13381
-204786 -13381 1 1;
#X msg 782 -74 poly \$1;
#X obj 526 200 route poly alt bank file eg sample dur offset dir loop
a d s r s_pc pitch all;
#X obj 619 169 unpack f f f f f f f f f f f f;
#X obj 476 26 prepend all;
#N canvas 0 0 558 347 auto-out 0;
#X obj 19 6 r \$0-pitch;
#X obj 316 55 r \$0-samp_offset;
#X obj 88 6 r \$0-samp_num;
#X obj 56 -115 r \$0-loop;
#X obj 116 -115 r \$0-adsr_a;
#X obj 190 -115 r \$0-adsr_d;
#X obj 353 -115 r \$0-adsr_r;
#X obj 256 28 r \$0-duration;
#X obj 175 7 r \$0-bank;
#X obj 436 53 r \$0-direction_alt;
#X obj 263 -115 r \$0-adsr_s_pc;
#X obj 392 28 r \$0-direction;
#X obj 19 26 change;
#X msg 19 46 pitch \$1;
#X obj 88 27 change;
#X msg 88 47 sample \$1;
#X obj 175 28 change;
#X msg 175 48 bank \$1;
#X msg 56 -75 loop \$1;
#X obj 56 -95 change;
#X obj 116 -95 change;
#X msg 116 -75 a \$1;
#X obj 190 -95 change;
#X msg 190 -75 d \$1;
#X obj 263 -95 change;
#X msg 263 -75 s \$1;
#X obj 353 -95 change;
#X msg 353 -75 r \$1;
#X obj 256 75 change;
#X obj 316 75 change;
#X obj 390 75 change;
#X obj 463 75 change;
#X msg 256 95 dur \$1;
#X msg 316 95 offset \$1;
#X msg 390 96 dir \$1;
#X msg 463 95 alt \$1;
#X obj 186 129 outlet;
#X connect 0 0 12 0;
#X connect 1 0 29 0;
#X connect 2 0 14 0;
#X connect 3 0 19 0;
#X connect 4 0 20 0;
#X connect 5 0 22 0;
#X connect 6 0 26 0;
#X connect 7 0 28 0;
#X connect 8 0 16 0;
#X connect 9 0 31 0;
#X connect 10 0 24 0;
#X connect 11 0 30 0;
#X connect 12 0 13 0;
#X connect 13 0 36 0;
#X connect 14 0 15 0;
#X connect 15 0 36 0;
#X connect 16 0 17 0;
#X connect 17 0 36 0;
#X connect 18 0 36 0;
#X connect 19 0 18 0;
#X connect 20 0 21 0;
#X connect 21 0 36 0;
#X connect 22 0 23 0;
#X connect 23 0 36 0;
#X connect 24 0 25 0;
#X connect 25 0 36 0;
#X connect 26 0 27 0;
#X connect 27 0 36 0;
#X connect 28 0 32 0;
#X connect 29 0 33 0;
#X connect 30 0 34 0;
#X connect 31 0 35 0;
#X connect 32 0 36 0;
#X connect 33 0 36 0;
#X connect 34 0 36 0;
#X connect 35 0 36 0;
#X restore 530 81 pd auto-out;
#X obj 519 120 outlet;
#X obj 348 -1 pack f f f f f f f f f f f f;
#X obj 58 15 prepend note;
#X obj 96 -40 + 1;
#X obj 206 -43 + 1;
#X obj 642 238 s \$0-samp_num-set;
#X connect 0 0 16 1;
#X connect 0 0 68 0;
#X connect 1 0 15 8;
#X connect 1 0 68 8;
#X connect 2 0 15 1;
#X connect 2 0 68 1;
#X connect 3 0 15 10;
#X connect 3 0 68 10;
#X connect 4 0 15 3;
#X connect 4 0 68 3;
#X connect 5 0 15 4;
#X connect 5 0 68 4;
#X connect 6 0 15 6;
#X connect 6 0 68 6;
#X connect 7 0 15 7;
#X connect 7 0 68 7;
#X connect 8 0 70 0;
#X connect 8 0 71 0;
#X connect 9 0 15 11;
#X connect 9 0 68 11;
#X connect 10 0 62 0;
#X connect 10 0 14 0;
#X connect 11 0 13 0;
#X connect 12 0 13 0;
#X connect 14 0 11 0;
#X connect 14 1 12 0;
#X connect 15 0 69 0;
#X connect 16 0 15 0;
#X connect 17 0 15 5;
#X connect 17 0 68 5;
#X connect 19 0 15 9;
#X connect 19 0 68 9;
#X connect 22 0 63 0;
#X connect 26 0 25 0;
#X connect 29 1 28 0;
#X connect 30 1 32 0;
#X connect 31 1 34 0;
#X connect 41 0 29 0;
#X connect 41 1 30 0;
#X connect 41 2 33 0;
#X connect 41 3 31 0;
#X connect 43 0 16 0;
#X connect 62 0 67 0;
#X connect 63 0 23 0;
#X connect 63 1 24 0;
#X connect 63 2 26 0;
#X connect 63 3 27 0;
#X connect 63 4 41 0;
#X connect 63 5 72 0;
#X connect 63 6 37 0;
#X connect 63 7 38 0;
#X connect 63 8 39 0;
#X connect 63 9 40 0;
#X connect 63 10 29 0;
#X connect 63 11 30 0;
#X connect 63 12 33 0;
#X connect 63 13 31 0;
#X connect 63 14 33 0;
#X connect 63 15 42 0;
#X connect 63 16 64 0;
#X connect 64 0 42 0;
#X connect 64 1 72 0;
#X connect 64 2 26 0;
#X connect 64 3 28 0;
#X connect 64 4 32 0;
#X connect 64 5 33 0;
#X connect 64 6 34 0;
#X connect 64 7 37 0;
#X connect 64 8 38 0;
#X connect 64 9 39 0;
#X connect 64 10 40 0;
#X connect 64 11 24 0;
#X connect 65 0 67 0;
#X connect 66 0 67 0;
#X connect 68 0 65 0;
#X connect 69 0 20 0;
#X connect 70 0 15 2;
#X connect 71 0 68 2;
#X coords 0 -1 1 1 404 52 1 60 80;
