#N canvas 0 0 450 300 10;
#X obj 110 188 == 0;
#X obj 211 118 r \$0-switch;
#X obj 210 85 s \$0-switch-set;
#X obj 210 50 route \$1;
#X obj 210 28 inlet;
#X obj 65 208 spigot 1;
#X obj 169 209 spigot;
#X obj 65 228 outlet;
#X obj 65 142 inlet;
#X obj 65 165 f;
#X obj 211 138 t b f;
#X obj 169 229 outlet;
#X obj 238 209 prepend \$1;
#X obj 238 229 outlet;
#X obj 31 45 cnv 15 80 22 empty empty empty 20 12 0 14 -41681 -66577
0;
#X obj 33 47 tgl 18 0 \$0-switch \$0-switch-set mysw 21 9 0 9 -67290
-163392 -163836 0 1;
#X obj 328 45 symbol \$1;
#X msg 328 65 label \$1;
#X obj 328 25 loadbang;
#X connect 0 0 5 1;
#X connect 1 0 10 0;
#X connect 3 0 2 0;
#X connect 4 0 3 0;
#X connect 5 0 7 0;
#X connect 6 0 11 0;
#X connect 8 0 9 0;
#X connect 9 0 5 0;
#X connect 9 0 6 0;
#X connect 10 0 9 0;
#X connect 10 1 6 1;
#X connect 10 1 0 0;
#X connect 10 1 12 0;
#X connect 12 0 13 0;
#X connect 16 0 17 0;
#X connect 17 0 2 0;
#X connect 18 0 16 0;
#X coords 0 -1 1 1 82 40 1 30 30;
