#N canvas 14 123 856 300 10;
#X obj 24 72 inlet~;
#N canvas 0 0 450 300 (subpatch) 0;
#X array \$0-oscilloscope 32768 float 4;
#X coords 0 1 32767 -1 384 161 1;
#X restore 202 128 graph;
#X obj 24 156 tabwrite~ \$0-oscilloscope;
#X obj 44 119 bang~;
#X obj 192 69 switch~ 4096 1 1;
#X msg 197 35 set \$1 1 1;
#X floatatom 369 76 5 0 0 0 - - -;
#X msg 369 55 256;
#X msg 394 54 512;
#X msg 420 54 1024;
#X msg 450 54 2048;
#X msg 481 55 4096;
#X msg 513 56 8192;
#X msg 545 56 16384;
#X msg 582 56 32768;
#X obj 409 114 hradio 12 1 0 10 empty empty size 0 -8 0 10 -262144
-1 -1 8;
#X obj 384 105 tgl 21 0 empty empty ON 4 10 0 10 -262144 -258113 -86277
1 1;
#X obj 532 112 nbx 5 14 -1e+37 1e+37 0 0 empty empty empty 0 -8 0 10
-262144 -1 -1 32768 256;
#X obj 159 178 \$1;
#X obj 107 85 loadbang;
#X obj 27 200 symbol \$0-oscilloscope;
#X obj 41 227 pack s f;
#X obj 27 179 t b f;
#X msg 25 252 \; \$1 resize \$2;
#X obj 398 34 sel 0 1 2 3 4 5 6 7 8 9;
#X msg 623 55 65536;
#X msg 662 54 131072;
#X connect 0 0 2 0;
#X connect 3 0 2 0;
#X connect 5 0 4 0;
#X connect 6 0 17 0;
#X connect 7 0 6 0;
#X connect 8 0 6 0;
#X connect 9 0 6 0;
#X connect 10 0 6 0;
#X connect 11 0 6 0;
#X connect 12 0 6 0;
#X connect 13 0 6 0;
#X connect 14 0 6 0;
#X connect 15 0 24 0;
#X connect 16 0 4 0;
#X connect 17 0 18 0;
#X connect 17 0 5 0;
#X connect 18 0 22 0;
#X connect 19 0 18 0;
#X connect 20 0 21 0;
#X connect 21 0 23 0;
#X connect 22 0 20 0;
#X connect 22 1 21 1;
#X connect 24 0 7 0;
#X connect 24 1 8 0;
#X connect 24 2 9 0;
#X connect 24 3 10 0;
#X connect 24 4 11 0;
#X connect 24 5 12 0;
#X connect 24 6 13 0;
#X connect 24 7 14 0;
#X connect 24 8 25 0;
#X connect 24 9 26 0;
#X connect 25 0 6 0;
#X connect 26 0 6 0;
#X coords 0 -1 1 1 388 191 1 200 100;
