#N canvas 5 49 1077 324 10;
#X obj 45 194 r \$0-samp_1;
#X obj 29 215 f;
#X obj 110 216 f;
#X obj 126 195 r \$0-samp_2;
#X obj 29 148 inlet;
#X obj 84 244 outlet;
#N canvas 51 22 845 667 patches 0;
#X obj 24 140 f;
#X obj 21 97 r \$0-store_patch;
#X obj 22 199 prepend add;
#X obj 19 232 t b a;
#X obj 91 319 msgfile;
#X obj 356 382 spigot;
#X msg 400 381 0;
#X msg 401 364 1;
#X msg 172 289 add patches 0;
#X obj 169 251 loadbang;
#X obj 76 436 route patches;
#X msg 106 238 goto 0;
#X obj 34 297 + 1;
#X obj 18 314 f;
#X msg 18 367 replace patches \$1;
#X msg 69 288 this;
#X obj 18 262 t b b b;
#X obj 346 217 t b f;
#X msg 361 241 goto \$1;
#X msg 326 240 this;
#X obj 453 251 r \$0-patches_load;
#X obj 453 268 openpanel;
#X msg 527 302 read \$1;
#X msg 483 302 goto 0;
#X msg 453 302 this;
#X obj 633 181 r \$0-patches_save;
#X obj 633 209 savepanel;
#X obj 632 238 makesymbol %s.txt;
#X msg 628 262 write \$1;
#X obj 80 406 route list;
#X obj 281 171 r \$0-patches_clear;
#X obj 279 197 t b b;
#X msg 359 278 clear;
#X obj 453 285 t b b a b;
#X obj 37 31 r \$0-samp_1;
#X obj 118 32 r \$0-samp_2;
#X obj 199 31 r \$0-samp_3;
#X obj 280 32 r \$0-samp_4;
#X obj 361 31 r \$0-samp_5;
#X obj 442 32 r \$0-samp_6;
#X obj 523 31 r \$0-samp_7;
#X obj 604 32 r \$0-samp_8;
#X obj 371 82 r \$0-samp_9;
#X obj 452 81 r \$0-samp_10;
#X obj 540 82 r \$0-samp_11;
#X obj 628 83 r \$0-split;
#X obj 155 572 s \$0-samp_1-set;
#X obj 172 553 s \$0-samp_2-set;
#X obj 192 534 s \$0-samp_3-set;
#X obj 211 515 s \$0-samp_4-set;
#X obj 226 496 s \$0-samp_5-set;
#X obj 245 475 s \$0-samp_6-set;
#X obj 278 453 s \$0-samp_7-set;
#X obj 305 432 s \$0-samp_8-set;
#X obj 378 492 s \$0-samp_9-set;
#X obj 398 473 s \$0-samp_10-set;
#X obj 421 454 s \$0-samp_11-set;
#X obj 455 434 s \$0-split-set;
#X msg 489 550 1;
#X msg 501 532 2;
#X msg 513 515 3;
#X msg 525 497 4;
#X msg 535 480 5;
#X msg 546 465 6;
#X msg 559 447 7;
#X msg 571 429 8;
#X msg 592 515 9;
#X msg 598 497 10;
#X msg 603 478 11;
#X obj 585 380 r \$0-reset;
#X msg 585 403 0;
#X obj 537 397 b;
#X obj 497 376 loadbang;
#X msg 573 327 range 1 \$1;
#X obj 575 160 inlet;
#X obj 648 575 outlet;
#X obj 542 221 symbol;
#X obj 348 194 r \$0-patch-num;
#X obj 573 344 s \$0-patch-set;
#X obj 431 121 r \$0-store_plus;
#X obj 528 121 r \$0-store_minus;
#N canvas 3 50 450 300 plumin 0;
#X obj 127 97 f;
#X obj 169 97 f;
#X obj 119 119 + 1;
#X obj 165 119 - 1;
#X obj 226 35 inlet;
#X obj 153 32 inlet;
#X obj 72 31 inlet;
#X obj 141 147 - 1;
#X obj 323 61 inlet;
#X obj 214 180 %;
#X obj 140 207 + 1;
#X obj 120 256 outlet;
#X obj 105 171 moses 0;
#X obj 92 221 f;
#X obj 87 193 b;
#X connect 0 0 2 0;
#X connect 1 0 3 0;
#X connect 2 0 7 0;
#X connect 3 0 7 0;
#X connect 4 0 1 1;
#X connect 4 0 0 1;
#X connect 5 0 1 0;
#X connect 6 0 0 0;
#X connect 7 0 12 0;
#X connect 8 0 9 1;
#X connect 8 0 13 1;
#X connect 9 0 10 0;
#X connect 10 0 11 0;
#X connect 12 0 14 0;
#X connect 12 1 9 0;
#X connect 13 0 11 0;
#X connect 14 0 13 0;
#X restore 482 148 pd plumin;
#X obj 448 171 s \$0-patch-set;
#X msg 452 389 12;
#X obj 24 172 pack f f f f f f f f f f f f f;
#X obj 324 410 s \$0-patches-num;
#X obj 438 413 s \$0-samp_12-set;
#X obj 636 56 r \$0-samp_12;
#X obj 218 344 unpack f f f f f f f f f f f f f;
#X connect 0 0 84 0;
#X connect 1 0 0 0;
#X connect 2 0 3 0;
#X connect 3 0 16 0;
#X connect 3 1 4 0;
#X connect 4 0 29 0;
#X connect 5 0 6 0;
#X connect 5 0 73 0;
#X connect 5 0 85 0;
#X connect 6 0 5 1;
#X connect 7 0 5 1;
#X connect 8 0 4 0;
#X connect 9 0 8 0;
#X connect 10 0 12 0;
#X connect 10 0 5 0;
#X connect 10 0 81 3;
#X connect 10 1 88 0;
#X connect 11 0 4 0;
#X connect 12 0 13 1;
#X connect 13 0 14 0;
#X connect 13 0 73 0;
#X connect 13 0 81 3;
#X connect 13 0 85 0;
#X connect 14 0 4 0;
#X connect 15 0 4 0;
#X connect 16 0 13 0;
#X connect 16 1 15 0;
#X connect 16 2 11 0;
#X connect 17 0 19 0;
#X connect 17 1 18 0;
#X connect 17 1 81 2;
#X connect 18 0 4 0;
#X connect 19 0 4 0;
#X connect 20 0 21 0;
#X connect 21 0 33 0;
#X connect 22 0 4 0;
#X connect 23 0 4 0;
#X connect 24 0 4 0;
#X connect 25 0 26 0;
#X connect 26 0 27 0;
#X connect 27 0 28 0;
#X connect 28 0 4 0;
#X connect 29 0 10 0;
#X connect 30 0 31 0;
#X connect 31 0 8 0;
#X connect 31 1 32 0;
#X connect 32 0 4 0;
#X connect 33 0 24 0;
#X connect 33 1 23 0;
#X connect 33 1 7 0;
#X connect 33 2 22 0;
#X connect 33 2 75 0;
#X connect 33 3 32 0;
#X connect 34 0 0 1;
#X connect 35 0 84 1;
#X connect 36 0 84 2;
#X connect 37 0 84 3;
#X connect 38 0 84 4;
#X connect 39 0 84 5;
#X connect 40 0 84 6;
#X connect 41 0 84 7;
#X connect 42 0 84 8;
#X connect 43 0 84 9;
#X connect 44 0 84 10;
#X connect 45 0 84 12;
#X connect 58 0 46 0;
#X connect 59 0 47 0;
#X connect 60 0 48 0;
#X connect 61 0 49 0;
#X connect 62 0 50 0;
#X connect 63 0 51 0;
#X connect 64 0 52 0;
#X connect 65 0 53 0;
#X connect 66 0 54 0;
#X connect 67 0 55 0;
#X connect 68 0 56 0;
#X connect 69 0 70 0;
#X connect 69 0 71 0;
#X connect 70 0 57 0;
#X connect 71 0 58 0;
#X connect 71 0 59 0;
#X connect 71 0 60 0;
#X connect 71 0 61 0;
#X connect 71 0 62 0;
#X connect 71 0 63 0;
#X connect 71 0 64 0;
#X connect 71 0 65 0;
#X connect 71 0 66 0;
#X connect 71 0 67 0;
#X connect 71 0 68 0;
#X connect 71 0 83 0;
#X connect 72 0 71 0;
#X connect 72 0 70 0;
#X connect 73 0 78 0;
#X connect 74 0 76 0;
#X connect 76 0 33 0;
#X connect 77 0 17 0;
#X connect 79 0 81 0;
#X connect 80 0 81 1;
#X connect 81 0 82 0;
#X connect 83 0 86 0;
#X connect 84 0 2 0;
#X connect 87 0 84 11;
#X connect 88 0 46 0;
#X connect 88 1 47 0;
#X connect 88 2 48 0;
#X connect 88 3 49 0;
#X connect 88 4 50 0;
#X connect 88 5 51 0;
#X connect 88 6 52 0;
#X connect 88 7 53 0;
#X connect 88 8 54 0;
#X connect 88 9 55 0;
#X connect 88 10 56 0;
#X connect 88 11 86 0;
#X connect 88 12 57 0;
#X restore 752 87 pd patches;
#X obj 191 215 f;
#X obj 272 216 f;
#X obj 207 194 r \$0-samp_3;
#X obj 288 195 r \$0-samp_4;
#X obj 353 215 f;
#X obj 434 216 f;
#X obj 515 215 f;
#X obj 596 216 f;
#X obj 369 194 r \$0-samp_5;
#X obj 450 195 r \$0-samp_6;
#X obj 531 194 r \$0-samp_7;
#X obj 612 195 r \$0-samp_8;
#X obj 473 264 spigot;
#X obj 677 215 f;
#X obj 758 214 f;
#X obj 846 215 f;
#X obj 693 194 r \$0-samp_9;
#X obj 774 193 r \$0-samp_10;
#X obj 862 194 r \$0-samp_11;
#X obj 549 271 == 0;
#X obj 548 243 r \$0-split;
#X obj 624 268 spigot;
#X obj 678 268 outlet;
#X obj 684 23 r \$0-split;
#N canvas 0 22 724 321 labelcolor 0;
#X msg 46 68 color 5 -5.54908e+06 26;
#X msg 217 68 color -5.54908e+06 5 26;
#X obj 46 34 sel 0 1;
#X msg 68 134 label s8;
#X msg 139 134 label p1;
#X obj 46 9 inlet;
#X msg 213 134 label s9;
#X msg 284 134 label p2;
#X msg 66 206 label s10;
#X msg 137 206 label p3;
#X msg 211 206 label s11;
#X msg 282 206 label p4;
#X obj 68 160 s \$0-samp_8-set;
#X obj 213 160 s \$0-samp_9-set;
#X obj 211 232 s \$0-samp_11-set;
#X obj 66 232 s \$0-samp_10-set;
#X obj 342 233 s \$0-samp_12-set;
#X msg 342 207 label s12;
#X msg 413 207 label p5;
#X connect 0 0 12 0;
#X connect 0 0 13 0;
#X connect 0 0 15 0;
#X connect 0 0 14 0;
#X connect 0 0 16 0;
#X connect 1 0 12 0;
#X connect 1 0 13 0;
#X connect 1 0 15 0;
#X connect 1 0 14 0;
#X connect 1 0 16 0;
#X connect 2 0 0 0;
#X connect 2 0 3 0;
#X connect 2 0 6 0;
#X connect 2 0 8 0;
#X connect 2 0 10 0;
#X connect 2 0 17 0;
#X connect 2 1 1 0;
#X connect 2 1 4 0;
#X connect 2 1 7 0;
#X connect 2 1 9 0;
#X connect 2 1 11 0;
#X connect 2 1 18 0;
#X connect 3 0 12 0;
#X connect 4 0 12 0;
#X connect 5 0 2 0;
#X connect 6 0 13 0;
#X connect 7 0 13 0;
#X connect 8 0 15 0;
#X connect 9 0 15 0;
#X connect 10 0 14 0;
#X connect 11 0 14 0;
#X connect 17 0 16 0;
#X connect 18 0 16 0;
#X restore 680 47 pd labelcolor;
#X obj 614 102 inlet;
#X obj 821 129 r \$0-samplemap_patch-num;
#X obj 820 150 outlet;
#X obj 610 133 route patch file;
#X obj 856 274 outlet;
#X msg 547 119 1;
#X msg 545 139 2;
#X obj 607 161 s \$0-sampmap_patch-set;
#X obj 151 33 cnv 15 172 58 empty empty empty 10 10 0 10 -187840 -1109
0;
#X obj 952 213 f;
#X obj 968 192 r \$0-samp_12;
#X obj 71 48 cnv 15 252 57 empty empty empty 10 10 0 10 -187840 -1109
0;
#X obj 29 169 sel 1 2 3 4 5 6 7 8 9 10 11 12;
#X obj 289 33 cnv 15 34 72 empty empty empty 20 12 0 14 -183672 -66577
0;
#X obj 253 78 cnv 15 34 27 empty empty empty 20 12 0 14 -183672 -66577
0;
#X obj 292 43 nbx 3 12 0 999 0 0 empty empty empty -2 -6 0 7 -257472
-1109 -90133 0 256;
#X obj 292 67 nbx 3 12 1 151 0 0 \$0-patch-num \$0-patch-set select
0 17 0 7 -17235 -261234 -17235 1 256;
#X obj 292 43 nbx 3 12 0 999 0 0 \$0-patches-dummy \$0-patches-num
patches 0 -5 0 7 -17235 -203904 -17235 0 256;
#X obj 312 57 bng 8 250 50 0 \$0-store_plus \$0-store_plus-bng + -7
4 0 10 -17235 -198336 -17235;
#X obj 292 57 bng 8 250 50 0 \$0-store_minus \$0-store_minus-bng -
8 3 0 10 -17235 -257985 -17235;
#X obj 76 60 nbx 2 12 1 64 0 0 \$0-samp_1 \$0-samp_1-set s1 0 -6 0
10 -262131 -88838 -1109 1 256;
#X obj 106 60 nbx 2 12 1 64 0 0 \$0-samp_2 \$0-samp_2-set s2 0 -6 0
10 -262131 -88838 -1109 2 256;
#X obj 136 60 nbx 2 12 1 64 0 0 \$0-samp_3 \$0-samp_3-set s3 0 -6 0
10 -262131 -88838 -1109 3 256;
#X obj 166 60 nbx 2 12 1 64 0 0 \$0-samp_4 \$0-samp_4-set s4 0 -6 0
10 -262131 -88838 -1109 4 256;
#X obj 196 60 nbx 2 12 1 64 0 0 \$0-samp_5 \$0-samp_5-set s5 0 -6 0
10 -262131 -88838 -1109 5 256;
#X obj 226 60 nbx 2 12 1 64 0 0 \$0-samp_6 \$0-samp_6-set s6 0 -6 0
10 -262131 -88838 -1109 6 256;
#X obj 256 60 nbx 2 12 1 64 0 0 \$0-samp_7 \$0-samp_7-set s7 0 -6 0
10 -262131 -88838 -1109 7 256;
#X obj 77 86 nbx 2 12 1 64 0 0 \$0-samp_8 \$0-samp_8-set s8 0 -6 0
10 -262131 -88774 -42246 8 256;
#X obj 107 86 nbx 2 12 1 64 0 0 \$0-samp_9 \$0-samp_9-set s9 0 -6 0
10 -262131 -88774 -42246 9 256;
#X obj 137 86 nbx 2 12 1 64 0 0 \$0-samp_10 \$0-samp_10-set s10 0 -6
0 10 -262131 -88774 -42246 10 256;
#X obj 167 86 nbx 2 12 1 64 0 0 \$0-samp_11 \$0-samp_11-set s11 0 -6
0 10 -262131 -88774 -42246 11 256;
#X obj 227 86 tgl 12 0 \$0-split \$0-split-set split -5 -6 0 8 -262131
-42246 -1109 0 1;
#X obj 240 36 bng 8 250 50 0 \$0-reset empty reset 13 4 0 8 -262131
-88838 -1109;
#X obj 197 86 nbx 2 12 1 64 0 0 \$0-samp_12 \$0-samp_12-set s12 0 -6
0 10 -262131 -88774 -42246 12 256;
#X obj 309 90 bng 10 250 50 0 \$0-store_patch \$0-store_patch-bng stor
-17 4 0 7 -17235 -262130 -17235;
#X obj 255 91 bng 10 250 50 0 \$0-patches_load \$0-patches_load-bng
load -1 -5 0 7 -2498 -262144 -13381;
#X obj 274 85 bng 10 250 50 0 \$0-patches_save \$0-patches_save-bng
save -4 14 0 7 -159809 -262144 -86277;
#X text 367 45 could be done with a sieve object and msgfiles?;
#X connect 0 0 1 1;
#X connect 1 0 5 0;
#X connect 2 0 5 0;
#X connect 3 0 2 1;
#X connect 4 0 44 0;
#X connect 6 0 36 0;
#X connect 7 0 5 0;
#X connect 8 0 5 0;
#X connect 9 0 7 1;
#X connect 10 0 8 1;
#X connect 11 0 5 0;
#X connect 12 0 5 0;
#X connect 13 0 5 0;
#X connect 14 0 19 0;
#X connect 14 0 28 0;
#X connect 15 0 11 1;
#X connect 16 0 12 1;
#X connect 17 0 13 1;
#X connect 18 0 14 1;
#X connect 19 0 5 0;
#X connect 20 0 19 0;
#X connect 20 0 28 0;
#X connect 21 0 19 0;
#X connect 21 0 28 0;
#X connect 22 0 19 0;
#X connect 22 0 28 0;
#X connect 23 0 20 1;
#X connect 24 0 21 1;
#X connect 25 0 22 1;
#X connect 26 0 19 1;
#X connect 27 0 26 0;
#X connect 27 0 28 1;
#X connect 28 0 29 0;
#X connect 30 0 31 0;
#X connect 32 0 35 0;
#X connect 33 0 34 0;
#X connect 35 0 39 0;
#X connect 35 1 6 0;
#X connect 37 0 39 0;
#X connect 38 0 39 0;
#X connect 41 0 28 0;
#X connect 41 0 19 0;
#X connect 42 0 41 1;
#X connect 44 0 1 0;
#X connect 44 1 2 0;
#X connect 44 2 7 0;
#X connect 44 3 8 0;
#X connect 44 4 11 0;
#X connect 44 5 12 0;
#X connect 44 6 13 0;
#X connect 44 7 14 0;
#X connect 44 8 20 0;
#X connect 44 9 21 0;
#X connect 44 10 22 0;
#X connect 44 11 41 0;
#X coords 0 -1 1 1 254 78 1 70 30;
