#N canvas 43 159 1227 730 10;
#X obj 52 263 mtof;
#X floatatom 52 243 5 0 0 0 - - -;
#X obj 531 79 cnv 15 400 120 empty empty empty 10 6 0 12 -158291 -83269
0;
#X obj 204 3 r \$0-attack_pha-num;
#X obj 219 22 r \$0-decay_pha-num;
#X obj 254 40 r \$0-sustain_pha-num;
#X obj 249 60 r \$0-release_pha-num;
#X obj 25 -6 inlet;
#X obj 136 444 eadsr~ 0 0;
#X obj 150 356 r \$0-attack_a-num;
#X obj 164 375 r \$0-decay_a-num;
#X obj 287 363 r \$0-sustain_a-num;
#X obj 193 413 r \$0-release_a-num;
#X obj 197 140 r \$0-pha_offset;
#X obj 197 157 t b f;
#X msg 197 174 1;
#X obj 197 191 -;
#X obj 181 210 f;
#X msg 60 98 start;
#X msg 47 115 stop;
#X obj 145 274 +~ 1;
#X obj 145 254 *~ -1;
#X obj 197 234 r \$0-pha_invert;
#X obj 195 257 sel 0 1;
#X msg 195 278 -1;
#X msg 195 298 1;
#X msg 221 278 1;
#X msg 220 298 0;
#X obj 119 477 *~;
#X floatatom 221 211 5 0 0 0 - - -;
#X obj 144 227 +~;
#X msg 85 264 0;
#X msg 97 90 1;
#X msg 79 115 0;
#N canvas 8 73 784 514 adsr 0;
#X obj 105 111 inlet;
#X obj 435 151 inlet;
#X text 101 86 trigger;
#X obj 105 139 sel 0;
#X obj 244 155 t b;
#X obj 166 264 f \$1;
#X obj 166 289 pack 0 \$2;
#X obj 492 151 inlet;
#X obj 438 281 del \$2;
#X obj 458 429 line~;
#X obj 462 304 f \$4;
#X obj 501 379 pack 0 \$3;
#X obj 554 151 inlet;
#X obj 616 151 inlet;
#X obj 689 150 inlet;
#X msg 105 170 stop;
#X obj 612 306 pack 0 \$5;
#X text 435 129 level;
#X obj 501 355 * \$1;
#X obj 458 454 outlet~;
#X text 102 378 and pack with;
#X text 103 398 attack time;
#X text 31 126 if zero;
#X text 32 143 release;
#X text 12 160 and cancel;
#X text 43 177 decay;
#X text 284 272 on attack \, set a;
#X text 278 305 recall sustain value;
#X text 315 378 pack with decay time;
#X text 605 332 on release ramp;
#X text 606 349 back to zero;
#X obj 462 329 * 0.01;
#X text 47 567 Objects such as "f" and "pack" can be given dollar sign
arguments to initialize their contents from adsr's creation arguments.
Inlets are supplied to change them on the fly.;
#X text 13 2 ADSR ENVELOPE;
#X text 488 129 attack;
#X text 555 128 decay;
#X text 609 129 sustain;
#X text 686 129 release;
#X text 202 71 attack;
#X obj 204 92 moses;
#X obj 194 122 t b b;
#X msg 128 290 0;
#X text 20 273 optionally;
#X text 10 291 bash to zero;
#X text 25 246 ATTACK:;
#X text 49 477 When you send this patch a positive trigger it schedules
a line~ to do an attack and decay \, and if zero \, it starts the release
ramp.;
#X text 495 629 Updated for Pd version 0.37;
#X text 255 89 test for negative trigger;
#X text 253 113 if so \, zero;
#X text 254 129 the output;
#X text 278 165 in any case;
#X text 303 355 multiply by peak level;
#X text 280 286 delay for sustain;
#X text 276 328 convert from percent;
#X text 155 340 ... then;
#X text 103 359 recall peak level;
#X text 439 113 peak;
#X text 281 149 ... do this;
#X text 47 529 Negative triggers cause the output to jump to zero and
then attack (instead of attacking from the current location).;
#X text 208 1 Arguments: level \, attack time \, decay time \, sustain
level \, release time. A \, D \, and R are in msec and S is in percent.
This patch is used as an abstraction in various examples.;
#X connect 0 0 3 0;
#X connect 1 0 5 1;
#X connect 1 0 18 1;
#X connect 3 0 15 0;
#X connect 3 0 16 0;
#X connect 3 1 39 0;
#X connect 4 0 5 0;
#X connect 4 0 8 0;
#X connect 5 0 6 0;
#X connect 6 0 9 0;
#X connect 7 0 6 1;
#X connect 7 0 8 1;
#X connect 8 0 10 0;
#X connect 9 0 19 0;
#X connect 10 0 31 0;
#X connect 11 0 9 0;
#X connect 12 0 11 1;
#X connect 13 0 10 1;
#X connect 14 0 16 1;
#X connect 15 0 8 0;
#X connect 16 0 9 0;
#X connect 18 0 11 0;
#X connect 31 0 18 0;
#X connect 39 0 40 0;
#X connect 39 1 4 0;
#X connect 40 0 4 0;
#X connect 40 1 41 0;
#X connect 41 0 9 0;
#X restore 135 96 pd adsr 1 10 300 40 500;
#X obj 155 65 r \$0-pha_depth;
#X obj 284 314 osc~ 440;
#X floatatom 284 277 5 0 0 0 - - -;
#X obj 642 275 r \$0-harmonic_a;
#X obj 642 295 moses 0;
#X obj 582 359 t b f;
#X obj 284 294 * 2.02;
#X obj 592 337 abs;
#X obj 582 399 /;
#X msg 582 379 1;
#X obj 681 315 + 2;
#X floatatom 582 418 5 0 0 0 - - -;
#X obj 705 342 makefilename h_%d;
#X obj 721 366 makefilename sh_1/%d;
#X obj 592 317 moses -1;
#X obj 637 337 abs;
#X obj 736 389 prepend set;
#X obj 736 411 s \$0-harmonic_a-lbl;
#X obj 523 388 +;
#X obj 471 270 r \$0-hundredths_a;
#X obj 519 345 t b f;
#X obj 474 355 * 0.01;
#X floatatom 522 413 5 0 0 0 - - -;
#X obj 483 332 +;
#X obj 479 295 t b f;
#X obj 434 305 * 0.01;
#X obj 448 252 r \$0-tenthous_a;
#X obj 512 320 s \$0-fines_a;
#X obj 101 565 hip~ 18;
#N canvas 5 48 784 514 adsr 0;
#X obj 105 111 inlet;
#X obj 435 151 inlet;
#X text 101 86 trigger;
#X obj 105 139 sel 0;
#X obj 244 155 t b;
#X obj 166 264 f \$1;
#X obj 166 289 pack 0 \$2;
#X obj 492 151 inlet;
#X obj 438 281 del \$2;
#X obj 458 429 line~;
#X obj 462 304 f \$4;
#X obj 501 379 pack 0 \$3;
#X obj 554 151 inlet;
#X obj 616 151 inlet;
#X obj 689 150 inlet;
#X msg 105 170 stop;
#X obj 612 306 pack 0 \$5;
#X text 435 129 level;
#X obj 501 355 * \$1;
#X obj 458 454 outlet~;
#X text 102 378 and pack with;
#X text 103 398 attack time;
#X text 31 126 if zero;
#X text 32 143 release;
#X text 12 160 and cancel;
#X text 43 177 decay;
#X text 284 272 on attack \, set a;
#X text 278 305 recall sustain value;
#X text 315 378 pack with decay time;
#X text 605 332 on release ramp;
#X text 606 349 back to zero;
#X obj 462 329 * 0.01;
#X text 47 567 Objects such as "f" and "pack" can be given dollar sign
arguments to initialize their contents from adsr's creation arguments.
Inlets are supplied to change them on the fly.;
#X text 13 2 ADSR ENVELOPE;
#X text 488 129 attack;
#X text 555 128 decay;
#X text 609 129 sustain;
#X text 686 129 release;
#X text 202 71 attack;
#X obj 204 92 moses;
#X obj 194 122 t b b;
#X msg 128 290 0;
#X text 20 273 optionally;
#X text 10 291 bash to zero;
#X text 25 246 ATTACK:;
#X text 49 477 When you send this patch a positive trigger it schedules
a line~ to do an attack and decay \, and if zero \, it starts the release
ramp.;
#X text 495 629 Updated for Pd version 0.37;
#X text 255 89 test for negative trigger;
#X text 253 113 if so \, zero;
#X text 254 129 the output;
#X text 278 165 in any case;
#X text 303 355 multiply by peak level;
#X text 280 286 delay for sustain;
#X text 276 328 convert from percent;
#X text 155 340 ... then;
#X text 103 359 recall peak level;
#X text 439 113 peak;
#X text 281 149 ... do this;
#X text 47 529 Negative triggers cause the output to jump to zero and
then attack (instead of attacking from the current location).;
#X text 208 1 Arguments: level \, attack time \, decay time \, sustain
level \, release time. A \, D \, and R are in msec and S is in percent.
This patch is used as an abstraction in various examples.;
#X connect 0 0 3 0;
#X connect 1 0 5 1;
#X connect 1 0 18 1;
#X connect 3 0 15 0;
#X connect 3 0 16 0;
#X connect 3 1 39 0;
#X connect 4 0 5 0;
#X connect 4 0 8 0;
#X connect 5 0 6 0;
#X connect 6 0 9 0;
#X connect 7 0 6 1;
#X connect 7 0 8 1;
#X connect 8 0 10 0;
#X connect 9 0 19 0;
#X connect 10 0 31 0;
#X connect 11 0 9 0;
#X connect 12 0 11 1;
#X connect 13 0 10 1;
#X connect 14 0 16 1;
#X connect 15 0 8 0;
#X connect 16 0 9 0;
#X connect 18 0 11 0;
#X connect 31 0 18 0;
#X connect 39 0 40 0;
#X connect 39 1 4 0;
#X connect 40 0 4 0;
#X connect 40 1 41 0;
#X connect 41 0 9 0;
#X restore 321 534 pd adsr 1 10 300 40 500;
#X obj 390 441 r \$0-attack_phb-num;
#X obj 405 460 r \$0-decay_phb-num;
#X obj 420 479 r \$0-sustain_phb-num;
#X obj 435 498 r \$0-release_phb-num;
#X obj 341 503 r \$0-phb_depth;
#X obj 594 573 +~ 1;
#X obj 594 553 *~ -1;
#X obj 644 556 sel 0 1;
#X msg 644 577 -1;
#X msg 644 597 1;
#X msg 670 577 1;
#X msg 669 597 0;
#X obj 646 533 r \$0-phb_invert;
#X obj 62 195 spigot;
#X text 550 3 b0fcd8;
#X text 550 15 fcb0d8;
#X obj 83 297 r \$0-phase_a-num;
#X obj 321 192 r \$0-phase_b-num;
#X obj 70 347 f;
#X obj 92 175 r \$0-phase_init;
#X obj 324 235 f;
#X obj 262 336 *~;
#X obj 80 322 * 0.01;
#X obj 321 214 * 0.01;
#X text 773 -4 336x126;
#N canvas 127 197 1106 631 init_auto 0;
#X obj 78 369 s \$0-pha_depth-set;
#X msg 89 302 1;
#X obj 263 227 loadbang;
#X obj 471 316 s \$0-phase_b-set;
#X obj 509 361 s \$0-phase_init-set;
#X msg 508 339 1;
#X msg 204 361 17;
#X msg 240 360 380;
#X msg 280 360 48;
#X msg 316 360 1400;
#X obj 204 383 s \$0-attack_pha-set;
#X obj 219 402 s \$0-decay_pha-set;
#X obj 234 421 s \$0-sustain_pha-set;
#X obj 249 440 s \$0-release_pha-set;
#X obj 551 290 s \$0-harmonic_a-set;
#X msg 551 270 0;
#X msg 628 315 0;
#X msg 595 315 0;
#X obj 628 352 s \$0-tenthous_a-set;
#X obj 595 335 s \$0-hundredths_a-set;
#X obj 444 385 s \$0-phase_a-set;
#X msg 723 270 9;
#X msg 749 270 155;
#X msg 775 270 0.96;
#X msg 807 270 2404;
#X obj 723 312 s \$0-attack_a-set;
#X obj 737 331 s \$0-decay_a-set;
#X obj 751 350 s \$0-sustain_a-set;
#X obj 766 369 s \$0-release_a-set;
#X obj 381 455 s \$0-attack_phb-set;
#X obj 396 474 s \$0-decay_phb-set;
#X obj 411 493 s \$0-sustain_phb-set;
#X obj 426 512 s \$0-release_phb-set;
#X obj 94 418 s \$0-phb_depth-set;
#X msg 395 414 13;
#X msg 421 414 107;
#X msg 447 414 57;
#X msg 473 414 300;
#X msg 94 396 1;
#X obj 110 448 s \$0-pha_offset-set;
#X obj 197 504 s \$0-pha_invert-set;
#X obj 154 475 s \$0-phb_offset-set;
#X obj 210 530 s \$0-phb_invert-set;
#X obj 111 27 inlet;
#X obj 80 75 route pha_depth phb_depth pha_off phb_off pha_inv phb_inv
phaa phad phas phar phba phbd phbs phbr;
#X msg 467 294 50;
#X obj 726 229 s \$0-vol-set;
#X obj 733 206 s \$0-pboost-set;
#X obj 740 184 s \$0-retrig-set;
#X msg 932 97 1;
#X obj 929 60 loadbang;
#X obj 910 167 s \$0-phase_pc-set;
#X obj 940 144 s \$0-phasync-set;
#X obj 854 233 t f f;
#X obj 884 256 s \$0-porta-set;
#X obj 841 279 s \$0-porta;
#X obj 912 214 s \$0-smooth-set;
#X obj 901 233 s \$0-smooth;
#X obj 897 192 t f f;
#X obj 736 124 outlet;
#X obj 483 78 route pha_set phb_set ph_init harm hundr tenthou ampa
ampd amps ampr vol pboost retrig on smooth porta phase phasync;
#X connect 1 0 0 0;
#X connect 2 0 1 0;
#X connect 2 0 45 0;
#X connect 2 0 5 0;
#X connect 2 0 6 0;
#X connect 2 0 7 0;
#X connect 2 0 8 0;
#X connect 2 0 9 0;
#X connect 2 0 15 0;
#X connect 2 0 16 0;
#X connect 2 0 17 0;
#X connect 2 0 21 0;
#X connect 2 0 22 0;
#X connect 2 0 23 0;
#X connect 2 0 24 0;
#X connect 2 0 38 0;
#X connect 2 0 34 0;
#X connect 2 0 35 0;
#X connect 2 0 36 0;
#X connect 2 0 37 0;
#X connect 5 0 4 0;
#X connect 6 0 10 0;
#X connect 7 0 11 0;
#X connect 8 0 12 0;
#X connect 9 0 13 0;
#X connect 15 0 14 0;
#X connect 15 0 39 0;
#X connect 15 0 40 0;
#X connect 15 0 42 0;
#X connect 15 0 41 0;
#X connect 16 0 18 0;
#X connect 16 0 20 0;
#X connect 17 0 19 0;
#X connect 21 0 25 0;
#X connect 22 0 26 0;
#X connect 23 0 27 0;
#X connect 24 0 28 0;
#X connect 34 0 29 0;
#X connect 35 0 30 0;
#X connect 36 0 31 0;
#X connect 37 0 32 0;
#X connect 38 0 33 0;
#X connect 43 0 44 0;
#X connect 44 0 0 0;
#X connect 44 1 33 0;
#X connect 44 2 39 0;
#X connect 44 3 41 0;
#X connect 44 4 40 0;
#X connect 44 5 42 0;
#X connect 44 6 10 0;
#X connect 44 7 11 0;
#X connect 44 8 12 0;
#X connect 44 9 13 0;
#X connect 44 10 29 0;
#X connect 44 11 30 0;
#X connect 44 12 31 0;
#X connect 44 13 32 0;
#X connect 44 14 60 0;
#X connect 45 0 3 0;
#X connect 49 0 48 0;
#X connect 50 0 49 0;
#X connect 53 0 55 0;
#X connect 53 1 54 0;
#X connect 58 0 57 0;
#X connect 58 1 56 0;
#X connect 60 0 20 0;
#X connect 60 1 3 0;
#X connect 60 2 4 0;
#X connect 60 3 14 0;
#X connect 60 4 19 0;
#X connect 60 5 18 0;
#X connect 60 6 25 0;
#X connect 60 7 26 0;
#X connect 60 8 27 0;
#X connect 60 9 28 0;
#X connect 60 10 46 0;
#X connect 60 11 47 0;
#X connect 60 12 48 0;
#X connect 60 13 59 0;
#X connect 60 14 58 0;
#X connect 60 15 53 0;
#X connect 60 16 51 0;
#X connect 60 17 52 0;
#X restore 1067 198 pd init_auto;
#X obj 1067 218 s \$0-patch_on-set;
#X obj 870 449 r \$0-patch_on;
#X obj 870 475 switch~;
#N canvas 117 154 1149 655 patches 0;
#X obj 24 140 f;
#X obj 21 97 r \$0-store_patch;
#X obj 22 199 prepend add;
#X obj 19 232 t b a;
#X obj 89 321 msgfile;
#X obj 356 382 spigot;
#X msg 400 381 0;
#X msg 401 364 1;
#X msg 172 299 add patches 0;
#X obj 169 281 loadbang;
#X obj 80 551 route patches;
#X msg 106 238 goto 0;
#X obj 34 297 + 1;
#X obj 18 314 f;
#X msg 18 367 replace patches \$1;
#X msg 69 288 this;
#X obj 18 262 t b b b;
#X msg 573 327 range 1 \$1;
#X obj 346 247 t b f;
#X msg 361 271 goto \$1;
#X msg 326 270 this;
#X obj 453 251 r \$0-patches_load;
#X obj 453 268 openpanel;
#X msg 527 302 read \$1;
#X msg 483 302 goto 0;
#X msg 453 302 this;
#X obj 633 181 r \$0-patches_save;
#X obj 633 209 savepanel;
#X msg 630 282 write \$1;
#X msg 226 252 print;
#X obj 81 521 route list;
#X obj 453 285 t b b a b;
#X msg 469 362 clear;
#X obj 281 201 r \$0-patches_clear;
#X obj 279 227 t b b;
#X obj 846 125 inlet;
#X obj 849 373 outlet;
#X obj 813 170 symbol;
#X obj 910 161 inlet;
#X obj 963 418 random;
#X obj 981 510 outlet;
#X obj 348 224 r \$0-patch-num;
#X obj 356 399 s \$0-patches-num;
#X obj 573 344 s \$0-patch-set;
#X obj 139 457 s \$0-pha_depth-set;
#X obj 532 404 s \$0-phase_b-set;
#X obj 570 449 s \$0-phase_init-set;
#X obj 265 471 s \$0-attack_pha-set;
#X obj 280 490 s \$0-decay_pha-set;
#X obj 295 509 s \$0-sustain_pha-set;
#X obj 310 528 s \$0-release_pha-set;
#X obj 615 498 s \$0-harmonic_a-set;
#X obj 689 440 s \$0-tenthous_a-set;
#X obj 656 423 s \$0-hundredths_a-set;
#X obj 505 473 s \$0-phase_a-set;
#X obj 784 400 s \$0-attack_a-set;
#X obj 798 419 s \$0-decay_a-set;
#X obj 812 438 s \$0-sustain_a-set;
#X obj 827 457 s \$0-release_a-set;
#X obj 442 543 s \$0-attack_phb-set;
#X obj 457 562 s \$0-decay_phb-set;
#X obj 472 581 s \$0-sustain_phb-set;
#X obj 487 600 s \$0-release_phb-set;
#X obj 155 506 s \$0-phb_depth-set;
#X obj 171 536 s \$0-pha_offset-set;
#X obj 258 592 s \$0-pha_invert-set;
#X obj 215 563 s \$0-phb_offset-set;
#X obj 271 618 s \$0-phb_invert-set;
#X obj 78 19 r \$0-pha_depth;
#X obj 94 38 r \$0-phb_depth;
#X obj 110 68 r \$0-pha_offset;
#X obj 124 87 r \$0-phb_offset;
#X obj 138 107 r \$0-pha_invert;
#X obj 151 126 r \$0-phb_invert;
#X obj 204 23 r \$0-attack_pha-num;
#X obj 219 42 r \$0-decay_pha-num;
#X obj 234 61 r \$0-sustain_pha-num;
#X obj 249 80 r \$0-release_pha-num;
#X obj 333 23 r \$0-attack_phb-num;
#X obj 348 42 r \$0-decay_phb-num;
#X obj 363 61 r \$0-sustain_phb-num;
#X obj 378 80 r \$0-release_phb-num;
#X obj 449 4 r \$0-phase_a-num;
#X obj 471 36 r \$0-phase_b-num;
#X obj 509 55 r \$0-phase_init;
#X obj 595 29 r \$0-hundredths_a;
#X obj 628 46 r \$0-tenthous_a;
#X obj 723 6 r \$0-attack_a-num;
#X obj 737 25 r \$0-decay_a-num;
#X obj 751 43 r \$0-sustain_a-num;
#X obj 766 62 r \$0-release_a-num;
#X obj 820 499 s \$0-vol-set;
#X obj 754 98 r \$0-vol;
#X obj 724 127 r \$0-pboost-num;
#X obj 831 311 s \$0-pboost-set;
#X obj 718 150 r \$0-retrig;
#X obj 814 276 s \$0-retrig-set;
#X obj 199 160 pack f f f f f f f f f f f f f f f f f f f f f f f f
f f f f f f f;
#X obj 804 86 r \$0-phase_real;
#X obj 891 64 r \$0-phasync;
#X obj 906 94 r \$0-porta-num;
#X obj 934 119 r \$0-smooth-num;
#X obj 182 338 unwonk f f f f f f f f f f f f f f f f f f f f f f f
f f f f;
#X obj 966 298 unpack f f f f;
#X obj 864 346 s \$0-phase_pc-set;
#X obj 927 324 * 100;
#X obj 916 371 s \$0-phasync-set;
#X obj 1009 428 t f f;
#X obj 1039 451 s \$0-porta-set;
#X obj 996 474 s \$0-porta;
#X obj 1043 373 s \$0-smooth-set;
#X obj 1032 392 s \$0-smooth;
#X obj 1028 351 t f f;
#X obj 551 10 r \$0-harmonic_a;
#X obj 794 538 r \$0-store_plus;
#X obj 678 538 r \$0-store_minus;
#X obj 794 562 f;
#X obj 678 572 f;
#X obj 678 592 +;
#X obj 723 589 %;
#X obj 723 609 + 1;
#X obj 646 517 - 1;
#X obj 678 613 - 1;
#X obj 794 583 + 1;
#X obj 717 630 s \$0-patch-set;
#X obj 632 238 makesymbol %s.pat;
#X connect 0 0 97 0;
#X connect 1 0 0 0;
#X connect 2 0 3 0;
#X connect 3 0 16 0;
#X connect 3 1 4 0;
#X connect 4 0 30 0;
#X connect 5 0 6 0;
#X connect 5 0 17 0;
#X connect 5 0 42 0;
#X connect 6 0 5 1;
#X connect 7 0 5 1;
#X connect 8 0 4 0;
#X connect 9 0 8 0;
#X connect 10 0 12 0;
#X connect 10 0 5 0;
#X connect 10 0 39 1;
#X connect 10 0 118 1;
#X connect 10 0 119 1;
#X connect 10 1 102 0;
#X connect 11 0 4 0;
#X connect 12 0 13 1;
#X connect 13 0 14 0;
#X connect 13 0 17 0;
#X connect 13 0 39 1;
#X connect 13 0 42 0;
#X connect 13 0 118 1;
#X connect 13 0 119 1;
#X connect 14 0 4 0;
#X connect 15 0 4 0;
#X connect 16 0 13 0;
#X connect 16 1 15 0;
#X connect 16 2 11 0;
#X connect 17 0 43 0;
#X connect 18 0 20 0;
#X connect 18 1 19 0;
#X connect 18 1 121 0;
#X connect 19 0 4 0;
#X connect 20 0 4 0;
#X connect 21 0 22 0;
#X connect 22 0 31 0;
#X connect 22 0 36 0;
#X connect 23 0 4 0;
#X connect 24 0 4 0;
#X connect 25 0 4 0;
#X connect 26 0 27 0;
#X connect 27 0 125 0;
#X connect 28 0 4 0;
#X connect 29 0 4 0;
#X connect 30 0 10 0;
#X connect 31 0 25 0;
#X connect 31 1 24 0;
#X connect 31 1 7 0;
#X connect 31 2 23 0;
#X connect 31 3 32 0;
#X connect 32 0 4 0;
#X connect 33 0 34 0;
#X connect 34 0 8 0;
#X connect 34 1 32 0;
#X connect 35 0 37 0;
#X connect 37 0 31 0;
#X connect 38 0 39 0;
#X connect 39 0 40 0;
#X connect 41 0 18 0;
#X connect 68 0 0 1;
#X connect 69 0 97 1;
#X connect 70 0 97 2;
#X connect 71 0 97 3;
#X connect 72 0 97 4;
#X connect 73 0 97 5;
#X connect 74 0 97 6;
#X connect 75 0 97 7;
#X connect 76 0 97 8;
#X connect 77 0 97 9;
#X connect 78 0 97 10;
#X connect 79 0 97 11;
#X connect 80 0 97 12;
#X connect 81 0 97 13;
#X connect 82 0 97 14;
#X connect 83 0 97 15;
#X connect 84 0 97 16;
#X connect 85 0 97 18;
#X connect 86 0 97 19;
#X connect 87 0 97 20;
#X connect 88 0 97 21;
#X connect 89 0 97 22;
#X connect 90 0 97 23;
#X connect 92 0 97 24;
#X connect 93 0 97 25;
#X connect 95 0 97 26;
#X connect 97 0 2 0;
#X connect 98 0 97 27;
#X connect 99 0 97 28;
#X connect 100 0 97 29;
#X connect 101 0 97 30;
#X connect 102 0 44 0;
#X connect 102 1 63 0;
#X connect 102 2 64 0;
#X connect 102 3 66 0;
#X connect 102 4 65 0;
#X connect 102 5 67 0;
#X connect 102 6 47 0;
#X connect 102 7 48 0;
#X connect 102 8 49 0;
#X connect 102 9 50 0;
#X connect 102 10 59 0;
#X connect 102 11 60 0;
#X connect 102 12 61 0;
#X connect 102 13 62 0;
#X connect 102 14 54 0;
#X connect 102 15 45 0;
#X connect 102 16 46 0;
#X connect 102 17 51 0;
#X connect 102 18 53 0;
#X connect 102 19 52 0;
#X connect 102 20 55 0;
#X connect 102 21 56 0;
#X connect 102 22 57 0;
#X connect 102 23 58 0;
#X connect 102 24 91 0;
#X connect 102 25 94 0;
#X connect 102 26 96 0;
#X connect 102 27 103 0;
#X connect 103 0 105 0;
#X connect 103 1 106 0;
#X connect 103 2 107 0;
#X connect 103 3 112 0;
#X connect 105 0 104 0;
#X connect 107 0 109 0;
#X connect 107 1 108 0;
#X connect 112 0 111 0;
#X connect 112 1 110 0;
#X connect 113 0 97 17;
#X connect 114 0 116 0;
#X connect 115 0 117 0;
#X connect 116 0 123 0;
#X connect 117 0 118 0;
#X connect 118 0 122 0;
#X connect 119 0 120 0;
#X connect 120 0 124 0;
#X connect 121 0 117 1;
#X connect 121 0 116 1;
#X connect 122 0 119 0;
#X connect 123 0 119 0;
#X connect 125 0 28 0;
#X connect 125 0 36 0;
#X restore 1020 238 pd patches;
#X obj 974 151 inlet;
#X obj 488 595 outlet;
#X obj 928 238 s \$0-patch-set;
#X msg 1087 238 patch \$1;
#X obj 763 540 outlet~;
#X obj 121 650 outlet~;
#X obj 407 333 t b f;
#X obj 185 33 b;
#X obj 351 474 b;
#X obj 1134 129 inlet~;
#X obj 888 335 s \$0-vol-set;
#X obj 159 484 pack f 20;
#X obj 156 507 line~;
#X obj 116 506 *~;
#X msg 888 315 100;
#X obj 207 440 r \$0-vol;
#X obj 196 465 dbtorms;
#X obj 1061 96 s \$0-pboost-set;
#X msg 1060 69 1;
#X obj 1061 40 loadbang;
#X obj 146 335 *~ 1;
#X obj 330 394 r \$0-pboost-num;
#X obj 763 520 *~ 1;
#X obj 758 466 r \$0-pboost-num;
#X obj 813 540 outlet~;
#X obj 666 13 hradio 12 1 0 5 \$0-retrig \$0-retrig-set retrig 63 6
0 10 -204800 -4160 -13330 1;
#X symbolatom 627 9 6 0 0 0 - #0-retrig-lbl -;
#X obj 8 345 pack f 5;
#X obj 962 60 s \$0-smooth-set;
#X obj 1097 70 s \$0-porta-set;
#X msg 1125 48 5;
#X obj 10 281 r \$0-porta-num;
#X obj 83 392 r \$0-smooth-num;
#X obj 18 177 spigot;
#X obj 50 141 r \$0-phasync;
#X obj -12 218 r \$0-phase_real;
#X obj 18 249 f;
#X obj 428 49 / 100;
#X obj 429 18 r \$0-phase_pc;
#X obj 388 79 s \$0-phase_real-set;
#X obj 16 69 sel 0 1;
#X obj 397 103 r \$0-poly;
#N canvas 18 175 600 300 polyset 0;
#X obj 56 59 inlet;
#X obj 58 104 sel 0 1;
#X obj 47 182 s \$0-poly-set;
#X msg 47 149 label mono;
#X msg 121 147 label poly;
#X msg 193 166 0;
#X obj 224 131 loadbang;
#X msg 307 139 1;
#X msg 307 171 0;
#X msg 368 140 0;
#X msg 368 171 1;
#X obj 399 164 outlet;
#X obj 489 194 outlet;
#X connect 0 0 1 0;
#X connect 1 0 3 0;
#X connect 1 0 7 0;
#X connect 1 0 8 0;
#X connect 1 1 4 0;
#X connect 1 1 9 0;
#X connect 1 1 10 0;
#X connect 3 0 2 0;
#X connect 4 0 2 0;
#X connect 5 0 2 0;
#X connect 6 0 5 0;
#X connect 7 0 11 0;
#X connect 8 0 12 0;
#X connect 9 0 11 0;
#X connect 10 0 12 0;
#X restore 397 123 pd polyset;
#X obj 421 143 spigot;
#N canvas 18 175 450 300 poly 0;
#X msg 173 161 1;
#X obj 19 159 spigot;
#X msg 170 207 0;
#X obj 45 66 inlet;
#X obj 172 110 t b b;
#X obj 224 110 inlet;
#X obj 22 229 outlet;
#X msg 280 149 1;
#X msg 227 198 0;
#X obj 207 223 spigot;
#X obj 223 247 outlet;
#X obj 275 73 loadbang;
#X obj 175 77 inlet;
#X obj 173 131 delay 4000;
#X connect 0 0 1 1;
#X connect 1 0 6 0;
#X connect 2 0 1 1;
#X connect 3 0 1 0;
#X connect 3 0 9 0;
#X connect 4 0 13 0;
#X connect 4 1 2 0;
#X connect 4 1 7 0;
#X connect 5 0 13 1;
#X connect 7 0 9 1;
#X connect 8 0 9 1;
#X connect 9 0 10 0;
#X connect 11 0 0 0;
#X connect 11 0 8 0;
#X connect 12 0 4 0;
#X connect 13 0 0 0;
#X connect 13 0 8 0;
#X restore 421 164 pd poly;
#X obj 465 143 r \$0-dur;
#X obj 16 23 spigot;
#X obj 1099 372 outlet;
#X obj 30 46 route duration;
#X obj 73 66 s \$0-dur;
#X floatatom 85 375 5 0 0 0 - - -;
#X floatatom 231 118 5 0 0 0 - - -;
#X obj 607 63 cnv 15 324 136 empty empty empty 10 6 0 12 -158291 -83269
0;
#X obj 540 140 hsl 64 12 0.05 5000 1 1 \$0-attack_a \$0-attack_a-set
amp_attack 8 6 0 8 -183744 -16662 -355 2842 0;
#X obj 540 154 hsl 64 12 0.05 5000 1 1 \$0-decay_a \$0-decay_a-set
amp_decay 8 6 0 8 -183744 -1109 -355 4399 0;
#X obj 540 168 hsl 64 12 0 112 0 1 \$0-sustain_a \$0-sustain_a-set
amp_sustain 8 6 0 8 -183744 -1109 -355 54 0;
#X obj 540 182 hsl 64 12 10 10000 1 1 \$0-release_a \$0-release_a-set
amp_release 8 6 0 8 -183744 -1109 -355 5000 0;
#X floatatom 610 140 5 0 0 0 - #0-attack_a #0-attack_a-num;
#X floatatom 610 154 5 0 0 0 - #0-decay_a #0-decay_a-num;
#X floatatom 610 168 5 0 0 0 - #0-sustain_a #0-sustain_a-num;
#X floatatom 610 182 5 0 0 0 - #0-release_a #0-release_a-num;
#X obj 540 83 hsl 64 12 0.05 5000 1 1 \$0-attack_pha \$0-attack_pha-set
a-phase-A 8 6 0 8 -184311 -1109 -42246 3190 0;
#X obj 540 97 hsl 64 12 0.05 5000 1 1 \$0-decay_pha \$0-decay_pha-set
d-phase-A 8 6 0 8 -184311 -1109 -42246 4890 0;
#X obj 540 111 hsl 64 12 0 100 0 1 \$0-sustain_pha \$0-sustain_pha-set
s-phase-A 8 6 0 8 -184311 -1109 -42246 3024 0;
#X obj 540 125 hsl 64 12 10 10000 1 1 \$0-release_pha \$0-release_pha-set
r-phase-A 8 6 0 8 -184311 -1109 -42246 4507 0;
#X floatatom 610 83 5 0 0 0 - #0-attack_pha #0-attack_pha-num;
#X floatatom 610 97 5 0 0 0 - #0-decay_pha #0-decay_pha-num;
#X floatatom 610 111 5 0 0 0 - #0-sustain_pha #0-sustain_pha-num;
#X floatatom 610 125 5 0 0 0 - #0-release_pha #0-release_pha-num;
#X obj 645 85 vsl 12 50 0 1 0 0 \$0-pha_depth \$0-pha_depth-set A 4
4 0 7 -184311 -42246 -1109 4900 0;
#X obj 645 142 vsl 12 51 0 100 0 0 \$0-vol \$0-vol-set dB 1 4 0 7 -183744
-13330 -16662 5000 1;
#X obj 659 140 tgl 12 0 \$0-a_vel \$0-a_vel-set v 3 6 0 10 -183744
-1109 -355 0 1;
#X obj 659 83 tgl 12 0 \$0-pha_vel \$0-pha_vel-set v 3 6 0 10 -184311
-42246 -1109 0 1;
#X obj 659 103 tgl 12 0 \$0-pha_invert \$0-pha_invert-set i 3 6 0 10
-184311 -42246 -1109 0 1;
#X obj 673 85 vsl 12 50 0.01 1 1 0 \$0-pha_offset \$0-pha_offset-set
off 1 4 0 7 -184311 -42246 -1109 0 0;
#X floatatom 805 154 5 0 0 0 - #0-fines_a #0-fines_a-num;
#X obj 676 140 hsl 127 12 -64 62 0 0 \$0-harmonic_a \$0-harmonic_a-set
harmonic 25 6 0 10 -232576 -45076 -45076 6400 1;
#X obj 702 154 hsl 101 12 0 100 0 0 \$0-hundredths_a \$0-hundredths_a-set
detune 24 6 0 10 -232576 -45076 -45076 0 1;
#X symbolatom 805 140 7 0 0 0 - #0-harmonic_a-lbl -;
#X obj 736 168 hsl 101 12 0 100 0 0 \$0-tenthous_a \$0-tenthous_a-set
fine 30 6 0 10 -232576 -45076 -45076 0 1;
#X obj 736 182 hsl 101 12 0 100 0 0 \$0-phb_offset \$0-phb_offset-set
offset 30 6 0 10 -45076 -232576 -232576 0 1;
#X obj 691 83 hsl 64 12 0.05 5000 1 1 \$0-attack_phb \$0-attack_phb-set
a-phase-B 8 6 0 8 -260919 -86277 -86277 3043 0;
#X obj 691 97 hsl 64 12 0.05 5000 1 1 \$0-decay_phb \$0-decay_phb-set
d-phase-B 8 6 0 8 -260919 -86277 -86277 4196 0;
#X obj 691 111 hsl 64 12 0 100 0 1 \$0-sustain_phb \$0-sustain_phb-set
s-phase-B 8 6 0 8 -260919 -86277 -86277 3591 0;
#X obj 691 125 hsl 64 12 10 10000 1 1 \$0-release_phb \$0-release_phb-set
r-phase-B 8 6 0 8 -260919 -86277 -86277 3102 0;
#X floatatom 761 83 5 0 0 0 - #0-attack_phb #0-attack_phb-num;
#X floatatom 761 97 5 0 0 0 - #0-decay_phb #0-decay_phb-num;
#X floatatom 761 111 5 0 0 0 - #0-sustain_phb #0-sustain_phb-num;
#X floatatom 761 125 5 0 0 0 - #0-release_phb #0-release_phb-num;
#X obj 796 85 vsl 12 50 0 1 0 0 \$0-phb_depth \$0-phb_depth-set B 4
4 0 7 -260919 -86277 -86277 4900 0;
#X obj 810 83 tgl 12 0 \$0-phb_vel \$0-phb_vel-set v 3 6 0 10 -260919
-86277 -86277 0 1;
#X obj 810 103 tgl 12 0 \$0-phb_invert \$0-phb_invert-set i 3 6 0 10
-260919 -86277 -86277 0 1;
#X obj 659 156 tgl 12 0 \$0-phase_init \$0-phase_init-set init 15 6
0 10 -260919 -86277 -13381 1 1;
#X obj 659 170 nbx 3 12 0 100 0 0 \$0-phase_a-num \$0-phase_a-set init
37 6 0 10 -184311 -13381 -13381 0 256;
#X obj 659 184 nbx 3 12 0 100 0 0 \$0-phase_b-num \$0-phase_b-set init
37 6 0 10 -260919 -86277 -86277 50 256;
#X obj 906 171 tgl 20 0 \$0-patch_on \$0-patch_on-set On 5 11 0 8 -191407
-258113 -258113 1 1;
#X obj 774 66 nbx 3 12 0.1 100 0 0 \$0-pboost-num \$0-pboost-set boost
37 6 0 10 -261682 -86853 -86853 1 256;
#X obj 843 74 vsl 12 61 0.01 1000 1 0 \$0-porta \$0-porta-set porta
0 -7 0 10 -12946 -203904 -12946 3239 1;
#X obj 853 141 nbx 4 10 0 9999 0 0 \$0-porta-num \$0-porta empty 0
-8 0 8 -12946 -203904 -12946 5.00226 256;
#X obj 849 154 nbx 4 10 1e-07 9999 0 0 \$0-smooth-num \$0-smooth smooth
10 15 0 9 -70276 -261682 -70276 1 256;
#X obj 862 74 vsl 12 61 0.1 1000 1 0 \$0-smooth \$0-smooth-set empty
0 -7 0 10 -70276 -261682 -70276 1500 1;
#X obj 889 184 tgl 12 0 \$0-phasync \$0-phasync-set empty 14 7 0 10
-183744 -13330 -13330 1 1;
#X obj 843 184 nbx 5 12 0 100 0 0 \$0-phase_pc \$0-phase_pc-set empty
0 -6 1 9 -262144 -1 -1 0 256;
#X obj 843 184 nbx 5 12 0 100 0 0 \$0-phase_real \$0-phase_real-set
sync_phase 0 -5 1 9 -183744 -13330 -13330 0 256;
#X obj 610 65 tgl 15 0 \$0-poly \$0-poly-set mono 17 7 0 10 -13330
-204800 -13330 0 1;
#X text 531 60 phasynth~;
#X obj 808 25 tgl 15 0 \$0-limit \$0-limit-set limit 17 7 0 10 -13330
-204800 -13330 1 1;
#N canvas 3 50 450 300 limit 0;
#X obj 234 83 switch~;
#X obj 234 59 inlet;
#X obj 72 61 inlet~;
#X obj 45 182 *~;
#X obj 51 213 outlet~;
#X obj 73 112 limiter~ 3;
#X obj 45 162 z~ 32;
#X connect 1 0 0 0;
#X connect 2 0 5 0;
#X connect 2 0 6 0;
#X connect 3 0 4 0;
#X connect 5 0 3 1;
#X connect 6 0 3 0;
#X restore 151 588 pd limit;
#X obj 107 589 *~ 0;
#X obj 240 541 r \$0-limit;
#X obj 174 545 == 0;
#X msg 916 295 1;
#X obj 916 315 s \$0-limit-set;
#X obj 916 275 loadbang;
#N canvas 9 100 562 625 trisawmod~ 0;
#X obj 53 78 phasor~ 8;
#X msg 104 57 0;
#X obj 53 109 *~;
#X floatatom 54 8 5 0 0 0 - - -;
#X obj 230 91 lop~ 1;
#X floatatom 271 70 5 1 10000 0 - - -;
#X obj 233 -26 hsl 129 15 0.02 200 1 0 empty empty empty -2 -6 0 10
-262144 -1 -1 6400 1;
#X floatatom 230 12 5 0 0 0 - - -;
#X obj 230 -8 pow 2;
#X obj 230 29 / 4;
#X obj 230 49 + 1;
#X floatatom 230 69 0 0 0 0 - - -;
#X obj 229 129 -~ 1;
#X obj 110 198 /~;
#X obj 383 -23 loadbang;
#X msg 383 -3 2;
#X obj 110 153 -~ 1;
#X obj 67 293 +~;
#X obj 109 248 foldback~ 0 1;
#X obj 109 224 +~ 1;
#X obj 53 132 split~ 1;
#X obj 110 173 diode~ 1;
#X obj 43 412 outlet~;
#X obj 56 -42 inlet;
#X obj 413 92 inlet~;
#X obj 167 -22 inlet;
#X obj 105 273 split~ 1;
#X obj 139 0 moses 1e-07;
#X obj 140 80 sig~ 2;
#X obj 276 38 inlet;
#X obj 53 30 pack f 20;
#X obj 53 53 line~;
#X obj 56 -19 unpack f f;
#X floatatom 95 6 5 0 0 0 - - -;
#X floatatom 327 -4 5 0 0 0 - - -;
#X floatatom 340 22 5 0 0 0 - - -;
#X obj 125 33 inlet;
#X text 125 17 phase;
#X text 163 -36 shape;
#X text 277 22 smoothe;
#X text 419 75 mod;
#X floatatom 224 296 5 0 0 0 - - -;
#X obj 148 440 line~;
#X obj 224 317 spigot;
#X obj 224 256 envrms~;
#X obj 222 337 t f f;
#X obj 264 336 > 0;
#X obj 222 359 spigot;
#X obj 222 380 moses 1;
#X obj 250 402 t b f;
#X obj 252 443 /;
#X msg 250 422 1;
#X msg 218 403 1;
#X floatatom 166 378 5 0 0 0 - - -;
#X obj 25 371 *~;
#X obj 129 322 == 0;
#X obj 112 370 line~;
#X obj 133 295 r \$0-limit;
#X obj 67 374 *~;
#X obj 162 321 sel 0;
#X msg 181 344 0;
#X obj 72 319 * -1;
#X obj 32 341 clip~ -1 1;
#X obj 224 276 mavg 20;
#X obj 147 418 pack f 20;
#X obj 112 345 pack f 20;
#X connect 0 0 2 0;
#X connect 1 0 0 1;
#X connect 2 0 20 0;
#X connect 3 0 30 0;
#X connect 4 0 2 1;
#X connect 4 0 12 0;
#X connect 5 0 4 1;
#X connect 6 0 8 0;
#X connect 6 0 34 0;
#X connect 7 0 9 0;
#X connect 8 0 7 0;
#X connect 9 0 10 0;
#X connect 10 0 11 0;
#X connect 11 0 4 0;
#X connect 12 0 13 1;
#X connect 13 0 19 0;
#X connect 14 0 15 0;
#X connect 15 0 6 0;
#X connect 16 0 21 0;
#X connect 17 0 44 0;
#X connect 17 0 62 0;
#X connect 18 0 26 0;
#X connect 19 0 18 0;
#X connect 20 0 17 0;
#X connect 20 1 16 0;
#X connect 21 0 13 0;
#X connect 23 0 32 0;
#X connect 24 0 12 0;
#X connect 24 0 2 1;
#X connect 25 0 27 0;
#X connect 26 0 17 1;
#X connect 27 0 7 0;
#X connect 27 1 6 0;
#X connect 28 0 2 1;
#X connect 29 0 5 0;
#X connect 30 0 31 0;
#X connect 31 0 0 0;
#X connect 32 0 3 0;
#X connect 32 1 33 0;
#X connect 33 0 30 1;
#X connect 36 0 0 1;
#X connect 41 0 43 0;
#X connect 42 0 58 1;
#X connect 43 0 45 0;
#X connect 44 0 63 0;
#X connect 45 0 47 0;
#X connect 45 1 46 0;
#X connect 46 0 47 1;
#X connect 47 0 48 0;
#X connect 48 0 52 0;
#X connect 48 1 49 0;
#X connect 49 0 51 0;
#X connect 49 1 50 1;
#X connect 49 1 61 0;
#X connect 49 1 62 2;
#X connect 50 0 53 0;
#X connect 51 0 50 0;
#X connect 52 0 53 0;
#X connect 52 0 61 0;
#X connect 52 0 62 2;
#X connect 53 0 64 0;
#X connect 54 0 22 0;
#X connect 55 0 65 0;
#X connect 56 0 54 1;
#X connect 57 0 43 1;
#X connect 57 0 55 0;
#X connect 57 0 59 0;
#X connect 58 0 22 0;
#X connect 59 0 60 0;
#X connect 60 0 53 0;
#X connect 61 0 62 1;
#X connect 62 0 54 0;
#X connect 62 0 58 0;
#X connect 63 0 41 0;
#X connect 64 0 42 0;
#X connect 65 0 56 0;
#X restore 36 436 pd trisawmod~;
#X obj 144 201 *~ 1;
#X obj 266 390 dbtorms;
#X obj 212 565 == 1;
#N canvas 0 0 450 300 clip 0;
#X obj 224 52 inlet;
#X obj 91 145 clip~ -1 1;
#X obj 229 101 switch~;
#X obj 78 87 inlet~;
#X obj 94 222 outlet~;
#X connect 0 0 2 0;
#X connect 1 0 4 0;
#X connect 3 0 1 0;
#X restore 212 612 pd clip;
#X obj 249 567 == 2;
#X obj 657 67 hradio 12 1 0 3 \$0-limit \$0-limit-set limit 39 6 0
10 -13330 -204800 -13330 1;
#X obj 897 63 cnv 15 34 99 empty empty empty 20 12 0 14 -183672 -66577
0;
#X obj 900 73 nbx 3 12 0 120 0 0 empty empty empty -2 -6 0 7 -257472
-1109 -90133 0 256;
#X obj 900 96 nbx 3 12 1 7 0 0 \$0-patch-num \$0-patch-set select 0
-5 0 7 -17235 -261234 -17235 1 256;
#X obj 907 129 bng 12 250 50 0 \$0-store_patch \$0-store_patch-bng
store -3 -4 0 7 -17235 -262130 -17235;
#X obj 899 151 bng 10 250 50 0 \$0-patches_load \$0-patches_load-bng
load -1 -4 0 7 -2498 -262144 -13381;
#X obj 918 143 bng 10 250 50 0 \$0-patches_save \$0-patches_save-bng
save -4 15 0 7 -159809 -262144 -86277;
#X obj 900 73 nbx 3 12 0 120 0 0 \$0-patches-dummy \$0-patches-num
patches 0 -5 0 7 -17235 -203904 -17235 0 256;
#X obj 920 111 bng 8 250 50 0 \$0-store_plus \$0-store_plus-bng + -7
4 0 10 -17235 -198336 -17235;
#X obj 900 111 bng 8 250 50 0 \$0-store_minus \$0-store_minus-bng -
8 3 0 10 -17235 -257985 -17235;
#X obj 974 171 route patch file randpat;
#N canvas 0 0 450 300 names 0;
#X msg 75 148 label straight;
#X msg 142 181 label limit;
#X msg 170 210 label clip;
#X obj 119 95 r \$0-limit;
#X obj 99 260 s \$0-limit-set;
#X obj 92 122 sel 0 1 2;
#X connect 0 0 4 0;
#X connect 1 0 4 0;
#X connect 2 0 4 0;
#X connect 3 0 5 0;
#X connect 5 0 0 0;
#X connect 5 1 1 0;
#X connect 5 2 2 0;
#X restore 334 600 pd names;
#X obj 648 456 t b f;
#X msg 648 473 1;
#X obj 648 490 -;
#X obj 595 500 *~;
#X obj 632 509 f;
#X obj 595 526 +~;
#X obj 648 439 r \$0-phb_offset;
#X msg 105 4 1;
#X msg 989 126 pitch 60;
#X msg 138 3 0;
#X obj 174 566 * 0.16;
#X connect 0 0 37 0;
#X connect 0 0 122 0;
#X connect 1 0 0 0;
#X connect 3 0 34 2;
#X connect 4 0 34 3;
#X connect 4 0 102 0;
#X connect 5 0 34 4;
#X connect 5 0 102 0;
#X connect 6 0 34 5;
#X connect 6 0 102 0;
#X connect 7 0 141 0;
#X connect 7 0 138 0;
#X connect 8 0 28 1;
#X connect 9 0 8 1;
#X connect 10 0 8 2;
#X connect 11 0 211 0;
#X connect 12 0 8 4;
#X connect 13 0 14 0;
#X connect 13 0 30 1;
#X connect 14 0 15 0;
#X connect 14 1 16 1;
#X connect 15 0 16 0;
#X connect 16 0 17 1;
#X connect 17 0 29 0;
#X connect 17 0 210 1;
#X connect 18 0 8 0;
#X connect 19 0 8 0;
#X connect 20 0 115 0;
#X connect 20 0 117 0;
#X connect 21 0 20 0;
#X connect 22 0 23 0;
#X connect 23 0 24 0;
#X connect 23 0 25 0;
#X connect 23 1 26 0;
#X connect 23 1 27 0;
#X connect 24 0 21 1;
#X connect 25 0 20 1;
#X connect 26 0 21 1;
#X connect 27 0 20 1;
#X connect 28 0 108 0;
#X connect 30 0 21 0;
#X connect 32 0 34 0;
#X connect 32 0 64 0;
#X connect 33 0 34 0;
#X connect 33 0 64 0;
#X connect 34 0 210 0;
#X connect 35 0 34 1;
#X connect 35 0 146 0;
#X connect 36 0 86 0;
#X connect 37 0 41 0;
#X connect 38 0 39 0;
#X connect 39 0 49 0;
#X connect 39 1 45 0;
#X connect 40 0 44 0;
#X connect 40 1 43 1;
#X connect 41 0 36 0;
#X connect 42 0 40 0;
#X connect 42 0 48 0;
#X connect 43 0 46 0;
#X connect 44 0 43 0;
#X connect 45 0 47 0;
#X connect 45 0 46 0;
#X connect 46 0 55 0;
#X connect 47 0 51 0;
#X connect 48 0 51 0;
#X connect 49 0 42 0;
#X connect 49 1 50 0;
#X connect 50 0 47 0;
#X connect 50 0 46 0;
#X connect 51 0 52 0;
#X connect 53 0 57 0;
#X connect 53 0 101 0;
#X connect 54 0 59 0;
#X connect 55 0 53 0;
#X connect 55 1 53 1;
#X connect 56 0 53 0;
#X connect 56 0 62 0;
#X connect 58 0 56 0;
#X connect 59 0 58 0;
#X connect 59 1 58 1;
#X connect 60 0 58 0;
#X connect 61 0 60 0;
#X connect 63 0 202 0;
#X connect 63 0 203 0;
#X connect 63 0 213 0;
#X connect 64 0 230 0;
#X connect 65 0 64 2;
#X connect 65 0 103 0;
#X connect 66 0 64 3;
#X connect 66 0 103 0;
#X connect 67 0 64 4;
#X connect 67 0 103 0;
#X connect 68 0 64 5;
#X connect 68 0 103 0;
#X connect 69 0 64 1;
#X connect 70 0 86 1;
#X connect 71 0 70 0;
#X connect 72 0 73 0;
#X connect 72 0 74 0;
#X connect 72 1 75 0;
#X connect 72 1 76 0;
#X connect 73 0 71 1;
#X connect 74 0 70 1;
#X connect 75 0 71 1;
#X connect 76 0 70 1;
#X connect 77 0 72 0;
#X connect 78 0 83 0;
#X connect 78 0 85 0;
#X connect 81 0 87 0;
#X connect 82 0 88 0;
#X connect 83 0 209 1;
#X connect 84 0 78 1;
#X connect 85 0 36 1;
#X connect 86 0 119 0;
#X connect 86 0 115 0;
#X connect 87 0 83 1;
#X connect 88 0 85 1;
#X connect 90 0 91 0;
#X connect 92 0 93 0;
#X connect 94 0 96 0;
#X connect 94 1 98 0;
#X connect 95 0 225 0;
#X connect 98 0 225 0;
#X connect 101 0 41 0;
#X connect 101 1 41 1;
#X connect 102 0 34 2;
#X connect 103 0 64 2;
#X connect 104 0 115 0;
#X connect 106 0 107 0;
#X connect 107 0 108 1;
#X connect 108 0 63 0;
#X connect 109 0 105 0;
#X connect 110 0 111 0;
#X connect 111 0 106 0;
#X connect 113 0 112 0;
#X connect 113 0 123 0;
#X connect 114 0 113 0;
#X connect 114 0 125 0;
#X connect 115 0 209 4;
#X connect 116 0 115 1;
#X connect 117 0 99 0;
#X connect 118 0 117 1;
#X connect 122 0 209 0;
#X connect 125 0 124 0;
#X connect 126 0 122 1;
#X connect 127 0 209 3;
#X connect 128 0 131 0;
#X connect 129 0 128 1;
#X connect 130 0 131 1;
#X connect 131 0 209 2;
#X connect 132 0 134 0;
#X connect 133 0 132 0;
#X connect 135 0 33 0;
#X connect 135 0 19 0;
#X connect 135 1 18 0;
#X connect 135 1 32 0;
#X connect 135 1 128 0;
#X connect 135 1 78 0;
#X connect 135 1 139 1;
#X connect 135 1 17 0;
#X connect 135 1 231 0;
#X connect 135 2 1 0;
#X connect 136 0 137 0;
#X connect 137 0 141 1;
#X connect 137 1 138 1;
#X connect 138 0 139 0;
#X connect 139 0 143 0;
#X connect 139 1 142 0;
#X connect 140 0 139 2;
#X connect 141 0 143 0;
#X connect 143 0 144 0;
#X connect 143 1 135 0;
#X connect 202 0 100 0;
#X connect 203 0 100 0;
#X connect 204 0 205 0;
#X connect 204 0 212 0;
#X connect 204 0 214 0;
#X connect 205 0 237 0;
#X connect 206 0 207 0;
#X connect 208 0 206 0;
#X connect 208 0 109 0;
#X connect 209 0 28 0;
#X connect 210 0 30 0;
#X connect 211 0 8 3;
#X connect 212 0 202 1;
#X connect 213 0 100 0;
#X connect 214 0 213 1;
#X connect 225 0 97 0;
#X connect 225 1 94 0;
#X connect 225 2 94 1;
#X connect 225 3 90 0;
#X connect 227 0 228 0;
#X connect 227 1 229 1;
#X connect 228 0 229 0;
#X connect 229 0 231 1;
#X connect 230 0 232 0;
#X connect 231 0 230 1;
#X connect 232 0 71 0;
#X connect 233 0 227 0;
#X connect 233 0 232 1;
#X connect 234 0 135 0;
#X connect 235 0 225 0;
#X connect 236 0 135 0;
#X connect 237 0 203 1;
#X coords 0 -1 1 1 402 141 1 530 60;
