#N canvas 264 112 1013 653 10;
#X declare -lib bsaylor;
#X declare -lib zexy;
#X obj 842 14 declare -lib bsaylor;
#X obj 842 35 declare -lib zexy;
#X obj 543 214 makesymbol s32-%s-%s;
#X obj 451 234 makefilename sizes-32-%d;
#X obj 451 174 + 1;
#X obj 543 194 pack 1 1;
#X obj 543 174 t b f;
#X obj 449 273 tabread sizes-32-1;
#X msg 451 254 set \$1;
#X msg 543 254 setarray \$1;
#X obj 141 271 inlet;
#X obj 533 441 inlet~;
#X obj 663 522 inlet~;
#X text 687 44 #423508 \, #334308 \, #164208;
#X obj 429 347 *;
#X obj 387 266 r \$0-go;
#X obj 549 488 r \$0-pvoc;
#X obj 510 347 *;
#X obj 457 437 pack f f f;
#X obj 474 373 -;
#X obj 429 327 1;
#X obj 509 328 0;
#X obj 444 307 r \$0-end;
#X obj 525 307 r \$0-start;
#X obj 563 355 samplerate~;
#X obj 387 286 t b b b;
#X obj 669 317 r \$0-stretch-num;
#X msg 720 377 0;
#X msg 669 377 1;
#X obj 424 381 f;
#X obj 710 420 s \$0-duration-set;
#X obj 682 440 s \$0-duration;
#X obj 669 357 t b b f b;
#X obj 682 420 f;
#X obj 773 317 r \$0-duration-num;
#X msg 824 377 0;
#X msg 773 377 1;
#X obj 773 357 t b b f b;
#X obj 669 337 spigot 1;
#X obj 773 337 spigot 1;
#X obj 820 431 f;
#X obj 848 431 s \$0-stretch-set;
#X obj 820 451 s \$0-stretch;
#X obj 848 411 / 1000;
#X obj 710 400 * 44.1;
#X obj 530 398 abs;
#X msg 424 503 \$3 \, \$1 \$2;
#X obj 424 524 line~;
#X text 741 34 #acff9c;
#X floatatom 671 138 0 0 0 0 - - -;
#X floatatom 671 214 0 0 0 0 - - -;
#X obj 671 168 * 0.0577623;
#X obj 671 194 exp;
#X obj 530 418 / 44.1;
#X msg 754 485 notedur \$1;
#X obj 754 506 outlet;
#X msg 722 254 0;
#X msg 671 254 1;
#X obj 671 117 spigot 1;
#X obj 671 234 t b f f b;
#X obj 787 137 * 261.626;
#X obj 787 158 ftom;
#X obj 787 179 - 60;
#X msg 838 219 0;
#X msg 787 219 1;
#X obj 787 199 t b f f b;
#X obj 671 96 r \$0-transpose-num;
#X obj 787 117 spigot 1;
#X obj 821 239 s \$0-transpose-set;
#X obj 804 259 s \$0-transpose;
#X obj 352 440 pack f f f;
#X msg 352 503 \$3 \, \$1 \$2;
#X obj 352 523 line;
#X msg 352 544 set \$1;
#X obj 352 565 s \$0-position-set;
#X obj 614 523 line~;
#X obj 290 279 r \$0-position;
#N canvas 5 106 899 655 patches 0;
#X obj 24 140 f;
#X obj 21 97 r \$0-store_patch;
#X obj 19 211 prepend add;
#X obj 19 232 t b a;
#X obj 89 321 msgfile;
#X obj 411 584 spigot;
#X msg 455 585 0;
#X msg 455 568 1;
#X msg 172 289 add patches 0;
#X obj 169 251 loadbang;
#X obj 80 591 route patches;
#X msg 106 238 goto 0;
#X obj 34 297 + 1;
#X obj 18 314 f;
#X msg 18 367 replace patches \$1;
#X msg 69 288 this;
#X obj 18 262 t b b b;
#X msg 545 588 range 1 \$1;
#X obj 346 217 t b f;
#X msg 361 241 goto \$1;
#X msg 326 240 this;
#X obj 453 251 r \$0-patches_load;
#X obj 453 268 openpanel;
#X msg 527 302 read \$1;
#X msg 483 302 goto 0;
#X msg 453 302 this;
#X obj 633 181 r \$0-patches_save;
#X obj 633 209 savepanel;
#X msg 630 282 write \$1;
#X msg 226 222 print;
#X obj 81 561 route list;
#X obj 453 285 t b b a b;
#X msg 469 362 clear;
#X obj 279 193 r \$0-patches_clear;
#X obj 279 214 t b b;
#X obj 753 125 inlet;
#X obj 731 355 outlet;
#X obj 753 170 symbol;
#X obj 830 165 inlet;
#X obj 830 409 random;
#X obj 830 501 outlet;
#X obj 411 601 s \$0-patches-num;
#X obj 545 605 s \$0-patch-set;
#X obj 241 261 r \$0-store_plus;
#X obj 338 261 r \$0-store_minus;
#N canvas 3 50 450 300 plumin 0;
#X obj 127 97 f;
#X obj 169 97 f;
#X obj 119 119 + 1;
#X obj 165 119 - 1;
#X obj 226 35 inlet;
#X obj 153 32 inlet;
#X obj 72 31 inlet;
#X obj 141 147 - 1;
#X obj 323 61 inlet;
#X obj 214 180 %;
#X obj 140 207 + 1;
#X obj 120 256 outlet;
#X obj 105 171 moses 0;
#X obj 92 221 f;
#X obj 87 193 b;
#X connect 0 0 2 0;
#X connect 1 0 3 0;
#X connect 2 0 7 0;
#X connect 3 0 7 0;
#X connect 4 0 1 1;
#X connect 4 0 0 1;
#X connect 5 0 1 0;
#X connect 6 0 0 0;
#X connect 7 0 12 0;
#X connect 8 0 9 1;
#X connect 8 0 13 1;
#X connect 9 0 10 0;
#X connect 10 0 11 0;
#X connect 12 0 14 0;
#X connect 12 1 9 0;
#X connect 13 0 11 0;
#X connect 14 0 13 0;
#X restore 292 288 pd plumin;
#X obj 262 315 s \$0-patch-set;
#X obj 796 129 inlet;
#X obj 632 238 makesymbol %s.pat;
#X obj 417 89 r \$0-sample;
#X obj 433 113 r \$0-samplebox;
#X obj 92 41 r \$0-end;
#X obj 109 61 r \$0-start;
#X obj 72 21 r \$0-duration-num;
#X obj 58 1 r \$0-transpose-num;
#X obj 125 81 r \$0-loop;
#X obj 141 101 r \$0-boomerang;
#X text 337 19 altsamp altsize sbox sample;
#X obj 156 121 r \$0-position;
#X obj 219 61 r \$0-slew;
#X obj 207 40 r \$0-porta;
#X obj 193 19 r \$0-stretch-num;
#X obj 19 190 pack f f f f f f f f f f f s f f f;
#X obj 218 344 unpack f f f f f f f f f f f s f f f;
#X obj 470 537 s \$0-altsamp;
#X obj 470 517 pack s f;
#X obj 107 520 s \$0-transpose-set;
#X obj 87 540 s \$0-transpose;
#X obj 87 499 t f f;
#X obj 125 458 t f f;
#X obj 145 479 s \$0-duration-set;
#X obj 125 499 s \$0-duration;
#X obj 258 474 s \$0-end-set;
#X obj 269 501 s \$0-start-set;
#X obj 285 521 s \$0-loop-set;
#X obj 301 541 s \$0-boomerang-set;
#X obj 316 561 s \$0-position-set;
#X obj 367 480 s \$0-porta-set;
#X obj 379 501 s \$0-slew-set;
#X obj 313 413 t f f;
#X obj 351 372 t f f;
#X obj 351 413 s \$0-stretch;
#X obj 371 393 s \$0-stretch-set;
#X obj 523 493 s \$0-sample-set;
#X obj 549 515 s \$0-samplebox-set;
#X obj 312 52 r \$0-altsamp;
#X obj 310 77 unpack s f;
#X obj 174 0 r \$0-fspeed-num;
#X obj 333 434 s \$0-fspeed-set;
#X obj 313 454 s \$0-fspeed;
#X connect 0 0 62 0;
#X connect 1 0 0 0;
#X connect 2 0 3 0;
#X connect 3 0 16 0;
#X connect 3 1 4 0;
#X connect 4 0 30 0;
#X connect 5 0 6 0;
#X connect 5 0 17 0;
#X connect 5 0 41 0;
#X connect 5 0 45 3;
#X connect 6 0 5 1;
#X connect 7 0 5 1;
#X connect 8 0 4 0;
#X connect 9 0 8 0;
#X connect 10 0 12 0;
#X connect 10 0 5 0;
#X connect 10 0 39 1;
#X connect 10 1 63 0;
#X connect 11 0 4 0;
#X connect 12 0 13 1;
#X connect 13 0 14 0;
#X connect 13 0 17 0;
#X connect 13 0 39 1;
#X connect 13 0 41 0;
#X connect 14 0 4 0;
#X connect 15 0 4 0;
#X connect 16 0 13 0;
#X connect 16 1 15 0;
#X connect 16 2 11 0;
#X connect 17 0 42 0;
#X connect 18 0 20 0;
#X connect 18 1 19 0;
#X connect 18 1 45 2;
#X connect 19 0 4 0;
#X connect 20 0 4 0;
#X connect 21 0 22 0;
#X connect 22 0 31 0;
#X connect 22 0 36 0;
#X connect 23 0 4 0;
#X connect 24 0 4 0;
#X connect 25 0 4 0;
#X connect 26 0 27 0;
#X connect 27 0 48 0;
#X connect 28 0 4 0;
#X connect 29 0 4 0;
#X connect 30 0 10 0;
#X connect 31 0 25 0;
#X connect 31 1 24 0;
#X connect 31 1 7 0;
#X connect 31 2 23 0;
#X connect 31 3 32 0;
#X connect 32 0 4 0;
#X connect 33 0 34 0;
#X connect 34 0 8 0;
#X connect 34 1 32 0;
#X connect 35 0 37 0;
#X connect 37 0 31 0;
#X connect 38 0 39 0;
#X connect 39 0 40 0;
#X connect 43 0 45 0;
#X connect 44 0 45 1;
#X connect 45 0 46 0;
#X connect 47 0 18 0;
#X connect 48 0 28 0;
#X connect 48 0 36 0;
#X connect 49 0 62 13;
#X connect 50 0 62 14;
#X connect 51 0 62 2;
#X connect 52 0 62 3;
#X connect 53 0 62 1;
#X connect 54 0 0 1;
#X connect 55 0 62 4;
#X connect 56 0 62 5;
#X connect 58 0 62 6;
#X connect 59 0 62 10;
#X connect 60 0 62 9;
#X connect 61 0 62 8;
#X connect 62 0 2 0;
#X connect 63 0 68 0;
#X connect 63 1 69 0;
#X connect 63 2 72 0;
#X connect 63 3 73 0;
#X connect 63 4 74 0;
#X connect 63 5 75 0;
#X connect 63 6 76 0;
#X connect 63 7 79 0;
#X connect 63 8 80 0;
#X connect 63 9 77 0;
#X connect 63 10 78 0;
#X connect 63 11 65 0;
#X connect 63 12 65 1;
#X connect 63 13 83 0;
#X connect 63 14 84 0;
#X connect 65 0 64 0;
#X connect 68 0 67 0;
#X connect 68 1 66 0;
#X connect 69 0 71 0;
#X connect 69 1 70 0;
#X connect 79 0 89 0;
#X connect 79 1 88 0;
#X connect 80 0 81 0;
#X connect 80 1 82 0;
#X connect 85 0 86 0;
#X connect 86 0 62 11;
#X connect 86 1 62 12;
#X connect 87 0 62 7;
#X restore 171 345 pd patches;
#X obj 141 418 outlet;
#N canvas 103 284 1049 481 automation 0;
#X obj 158 79 inlet;
#X obj 571 215 outlet;
#X obj 666 171 outlet;
#X obj 513 381 s \$0-altsamp;
#X obj 513 361 pack s f;
#X obj 150 364 s \$0-transpose-set;
#X obj 130 384 s \$0-transpose;
#X obj 130 343 t f f;
#X obj 168 302 t f f;
#X obj 188 323 s \$0-duration-set;
#X obj 168 343 s \$0-duration;
#X obj 301 318 s \$0-end-set;
#X obj 312 345 s \$0-start-set;
#X obj 328 365 s \$0-loop-set;
#X obj 344 385 s \$0-boomerang-set;
#X obj 359 405 s \$0-position-set;
#X obj 410 324 s \$0-porta-set;
#X obj 422 345 s \$0-slew-set;
#X obj 356 257 t f f;
#X obj 394 216 t f f;
#X obj 394 257 s \$0-stretch;
#X obj 414 237 s \$0-stretch-set;
#X obj 566 337 s \$0-sample-set;
#X obj 592 359 s \$0-samplebox-set;
#X obj 605 104 s \$0-pvoc;
#X obj 376 278 s \$0-fspeed-set;
#X obj 356 298 s \$0-fspeed;
#X obj 487 282 t b f;
#X obj 494 152 - 1;
#X msg 677 116 1;
#X obj 679 92 loadbang;
#X obj 581 187 dbtorms;
#X obj 763 274 s \$0-volrms;
#X obj 341 213 del 0;
#X obj 329 191 t b;
#X msg 594 310 pos \$1 \$2;
#X obj 590 275 pack;
#X floatatom 640 243 5 0 0 0 - - -;
#X floatatom 579 257 5 0 0 0 - - -;
#X obj 611 230 b;
#X obj 452 72 s \$0-wave-set;
#X msg 698 304 pos 603 45;
#X msg 711 332 pos 552 45;
#X msg 727 224 pos 450 45;
#X obj 158 108 route trans dur end start loop boomer pos fspeed stretch
porta slew altsamp altsize sample samplebox randpat on bank vol wave
waves;
#X msg 462 45 range 1 \$1;
#X msg 873 499 label_font 1 10;
#X msg 883 509 label_font 1 10;
#X msg 893 519 label_font 1 10;
#N canvas 3 89 1032 620 globlabel 0;
#X obj 571 215 outlet;
#X obj 666 171 outlet;
#X obj 513 381 s \$0-altsamp;
#X obj 513 361 pack s f;
#X obj 150 364 s \$0-transpose-set;
#X obj 130 384 s \$0-transpose;
#X obj 130 343 t f f;
#X obj 168 302 t f f;
#X obj 188 323 s \$0-duration-set;
#X obj 168 343 s \$0-duration;
#X obj 301 318 s \$0-end-set;
#X obj 312 345 s \$0-start-set;
#X obj 328 365 s \$0-loop-set;
#X obj 344 385 s \$0-boomerang-set;
#X obj 359 405 s \$0-position-set;
#X obj 410 324 s \$0-porta-set;
#X obj 422 345 s \$0-slew-set;
#X obj 356 257 t f f;
#X obj 394 216 t f f;
#X obj 394 257 s \$0-stretch;
#X obj 414 237 s \$0-stretch-set;
#X obj 566 337 s \$0-sample-set;
#X obj 592 359 s \$0-samplebox-set;
#X obj 605 104 s \$0-pvoc;
#X obj 376 278 s \$0-fspeed-set;
#X obj 356 298 s \$0-fspeed;
#X obj 487 282 t b f;
#X obj 494 152 - 1;
#X msg 677 116 1;
#X obj 679 92 loadbang;
#X obj 581 187 dbtorms;
#X obj 763 274 s \$0-volrms;
#X obj 341 213 del 0;
#X obj 329 191 t b;
#X msg 594 310 pos \$1 \$2;
#X obj 590 275 pack;
#X floatatom 640 243 5 0 0 0 - - -;
#X floatatom 579 257 5 0 0 0 - - -;
#X obj 611 230 b;
#X obj 452 72 s \$0-wave-set;
#X msg 698 304 pos 603 45;
#X msg 711 332 pos 552 45;
#X msg 727 224 pos 450 45;
#X msg 462 45 range 1 \$1;
#X msg 609 403 label_font 1 10;
#X msg 253 274 label_font 1 12;
#X connect 3 0 2 0;
#X connect 6 0 5 0;
#X connect 6 1 4 0;
#X connect 7 0 9 0;
#X connect 7 1 8 0;
#X connect 17 0 25 0;
#X connect 17 1 24 0;
#X connect 18 0 19 0;
#X connect 18 1 20 0;
#X connect 26 0 3 0;
#X connect 26 1 3 1;
#X connect 27 0 22 0;
#X connect 28 0 20 0;
#X connect 29 0 28 0;
#X connect 30 0 31 0;
#X connect 32 0 19 0;
#X connect 33 0 32 0;
#X connect 34 0 22 0;
#X connect 35 0 34 0;
#X connect 36 0 35 1;
#X connect 36 0 38 0;
#X connect 37 0 35 0;
#X connect 38 0 37 0;
#X connect 43 0 39 0;
#X connect 45 0 8 0;
#X connect 45 0 39 0;
#X connect 45 0 23 0;
#X connect 45 0 31 0;
#X connect 45 0 2 0;
#X connect 45 0 22 0;
#X connect 45 0 21 0;
#X connect 45 0 20 0;
#X connect 45 0 19 0;
#X connect 45 0 24 0;
#X connect 45 0 5 0;
#X connect 45 0 9 0;
#X connect 45 0 25 0;
#X connect 45 0 15 0;
#X connect 45 0 16 0;
#X connect 45 0 14 0;
#X connect 45 0 13 0;
#X connect 45 0 12 0;
#X connect 45 0 11 0;
#X connect 45 0 10 0;
#X connect 45 0 4 0;
#X restore 818 73 pd globlabel;
#X connect 0 0 44 0;
#X connect 4 0 3 0;
#X connect 7 0 6 0;
#X connect 7 1 5 0;
#X connect 8 0 10 0;
#X connect 8 1 9 0;
#X connect 18 0 26 0;
#X connect 18 1 25 0;
#X connect 19 0 20 0;
#X connect 19 1 21 0;
#X connect 27 0 4 0;
#X connect 27 1 4 1;
#X connect 28 0 23 0;
#X connect 29 0 21 0;
#X connect 30 0 29 0;
#X connect 31 0 32 0;
#X connect 33 0 20 0;
#X connect 34 0 33 0;
#X connect 35 0 23 0;
#X connect 36 0 35 0;
#X connect 37 0 36 1;
#X connect 37 0 39 0;
#X connect 38 0 36 0;
#X connect 39 0 38 0;
#X connect 44 0 7 0;
#X connect 44 1 8 0;
#X connect 44 2 11 0;
#X connect 44 3 12 0;
#X connect 44 4 13 0;
#X connect 44 5 14 0;
#X connect 44 6 15 0;
#X connect 44 7 18 0;
#X connect 44 8 19 0;
#X connect 44 8 34 0;
#X connect 44 9 16 0;
#X connect 44 10 17 0;
#X connect 44 11 4 0;
#X connect 44 12 27 0;
#X connect 44 13 22 0;
#X connect 44 14 23 0;
#X connect 44 15 1 0;
#X connect 44 16 2 0;
#X connect 44 17 28 0;
#X connect 44 18 31 0;
#X connect 44 19 40 0;
#X connect 44 20 45 0;
#X connect 44 21 24 0;
#X connect 45 0 40 0;
#X restore 71 317 pd automation;
#X obj 91 291 route patch file;
#X obj 62 387 s \$0-patch_on-set;
#N canvas 479 91 884 492 send-automation 0;
#X obj 18 359 r \$0-patch-num;
#X obj 18 78 inlet;
#X obj 18 99 prepend file;
#X msg 18 399 patch \$1;
#X obj 711 172 r \$0-patch_on;
#X msg 711 192 on \$1;
#X obj 71 55 change;
#X obj 138 79 change;
#X obj 171 105 change;
#X obj 226 118 change;
#X obj 292 139 change;
#X obj 337 149 change;
#X obj 379 173 change;
#X obj 431 197 change;
#X obj 488 210 change;
#X obj 547 233 change;
#X obj 592 257 change;
#X obj 648 274 change;
#X obj 682 337 change;
#X obj 705 40 inlet;
#X obj 646 42 inlet;
#X obj 108 440 outlet;
#X obj 108 339 spigot;
#X msg 704 73 0;
#X msg 646 72 1;
#X obj 618 20 loadbang;
#X obj 18 379 change;
#X msg 125 383 patches \$1;
#X obj 125 363 r \$0-patches-num;
#X obj 651 251 r \$0-sample;
#X obj 717 311 r \$0-samplebox;
#X obj 189 79 r \$0-end;
#X obj 244 95 r \$0-start;
#X obj 138 58 r \$0-duration-num;
#X obj 71 33 r \$0-transpose-num;
#X obj 309 116 r \$0-loop;
#X obj 380 123 r \$0-boomerang;
#X obj 382 151 r \$0-position;
#X obj 600 232 r \$0-slew;
#X obj 549 210 r \$0-porta;
#X obj 521 187 r \$0-stretch-num;
#X msg 71 77 trans \$1;
#X msg 119 99 dur \$1;
#X msg 161 129 end \$1;
#X msg 217 139 start \$1;
#X msg 277 161 loop \$1;
#X msg 311 186 boomer \$1;
#X msg 378 195 pos \$1;
#X msg 480 229 stretch \$1;
#X msg 525 260 porta \$1;
#X msg 591 279 slew \$1;
#X msg 652 307 sample \$1;
#X msg 677 359 samplebox \$1;
#X obj 307 299 r \$0-altsamp;
#X obj 307 319 unpack s f;
#X msg 279 353 altsamp \$1;
#X msg 359 351 altsize \$1;
#X obj 431 174 r \$0-fspeed-num;
#X msg 422 220 fspeed \$1;
#X connect 0 0 26 0;
#X connect 1 0 2 0;
#X connect 2 0 22 0;
#X connect 3 0 21 0;
#X connect 4 0 5 0;
#X connect 5 0 22 0;
#X connect 6 0 41 0;
#X connect 7 0 42 0;
#X connect 8 0 43 0;
#X connect 9 0 44 0;
#X connect 10 0 45 0;
#X connect 11 0 46 0;
#X connect 12 0 47 0;
#X connect 13 0 58 0;
#X connect 14 0 48 0;
#X connect 15 0 49 0;
#X connect 16 0 50 0;
#X connect 17 0 51 0;
#X connect 18 0 52 0;
#X connect 19 0 23 0;
#X connect 20 0 24 0;
#X connect 22 0 21 0;
#X connect 23 0 22 1;
#X connect 24 0 22 1;
#X connect 25 0 24 0;
#X connect 26 0 3 0;
#X connect 27 0 21 0;
#X connect 28 0 27 0;
#X connect 29 0 17 0;
#X connect 30 0 18 0;
#X connect 31 0 8 0;
#X connect 32 0 9 0;
#X connect 33 0 7 0;
#X connect 34 0 6 0;
#X connect 35 0 10 0;
#X connect 36 0 11 0;
#X connect 37 0 12 0;
#X connect 38 0 16 0;
#X connect 39 0 15 0;
#X connect 40 0 14 0;
#X connect 41 0 22 0;
#X connect 42 0 22 0;
#X connect 43 0 22 0;
#X connect 44 0 22 0;
#X connect 45 0 22 0;
#X connect 46 0 22 0;
#X connect 47 0 22 0;
#X connect 48 0 22 0;
#X connect 49 0 22 0;
#X connect 50 0 22 0;
#X connect 51 0 22 0;
#X connect 52 0 22 0;
#X connect 53 0 54 0;
#X connect 54 0 55 0;
#X connect 54 1 56 0;
#X connect 55 0 22 0;
#X connect 56 0 22 0;
#X connect 57 0 13 0;
#X connect 58 0 22 0;
#X restore 176 394 pd send-automation;
#X obj 195 311 t b f b;
#X obj 195 291 r \$0-patch-num;
#X obj 125 367 s \$0-patch-set;
#X obj 672 490 r \$0-porta;
#X obj 359 347 r \$0-slew;
#X obj 314 347 *;
#X obj 494 566 hip~ 18;
#X obj 56 616 outlet~;
#X obj 533 462 *~ 44.1;
#X obj 183 420 delay 1000;
#X obj 216 439 r \$0-loop;
#X obj 183 460 spigot;
#X obj 230 460 r \$0-boomerang;
#X obj 183 486 spigot;
#X obj 274 486 == 0;
#X obj 250 520 spigot;
#X msg 823 485 samps \$1;
#X obj 579 124 r \$0-altsamp;
#X obj 596 174 route none;
#X obj 269 241 s \$0-altsamp-set;
#X obj 600 193 unpack s f;
#X obj 566 274 f;
#X obj 352 420 f;
#X obj 183 507 t b b;
#X obj 269 221 pack s 0;
#X msg 269 201 none;
#X obj 210 528 tgl 15 0 empty empty empty 17 7 0 10 -262144 -1 -1 0
1;
#X obj 230 486 sel 1;
#X obj 147 547 spigot;
#X obj 210 547 == 0;
#X obj 190 573 spigot;
#X obj 322 439 f;
#X obj 424 441 f;
#X obj 332 464 pack f f;
#X obj 413 465 pack f f;
#X msg 294 394 stop;
#X obj 37 129 inlet;
#X obj 37 148 route bang;
#X obj 37 222 s \$0-go-bng;
#X obj 133 206 s \$0-transpose-set;
#X obj 113 226 s \$0-transpose;
#X obj 614 502 pack f 0;
#X obj 316 367 pack f 5;
#X obj 787 96 r \$0-fspeed-num;
#X obj 705 274 s \$0-fspeed-set;
#X obj 688 294 s \$0-fspeed;
#X obj 645 465 r \$0-fspeed-num;
#X obj 563 377 * 0.001;
#X obj 552 331 r \$0-duration-num;
#X obj 777 583 switch~;
#X obj 774 558 r \$0-patch_on;
#X obj 167 176 ==;
#X obj 149 148 f;
#X obj 94 186 t b f f;
#X obj 24 247 spigot;
#X floatatom 11 324 0 0 0 0 - - -;
#X obj 11 278 * 0.0577623;
#X obj 11 304 exp;
#X obj 253 550 sel 0;
#X obj 628 255 t b;
#X obj 628 273 delay 0;
#X obj 628 292 t b b b;
#X obj 94 167 - 60;
#X obj 454 592 line~;
#X obj 498 594 pack f 20;
#X obj 409 594 *~;
#X msg 583 577 1;
#X obj 629 576 loadbang;
#X obj 687 547 r \$0-volrms;
#X obj 695 606 \$1;
#X obj 677 631 /;
#X obj 620 605 samplerate~;
#X obj 688 580 t b b;
#X obj 617 627 * 0.001;
#X obj 870 145 cnv 15 482 60 empty empty empty 20 12 0 14 -180200 -66577
0;
#X obj 543 148 r \$0-sample;
#X obj 451 148 r \$0-samplebox;
#X obj 31 49 cnv 15 610 66 empty empty empty 20 12 0 14 -180200 -66577
0;
#X obj 159 33 cnv 15 482 60 empty empty empty 20 12 0 14 -180200 -66577
0;
#X obj 36 89 hsl 600 12 0 1 0 0 \$0-position \$0-position-set position
272 6 1 12 -50179 -204786 -204786 59900 0;
#X obj 36 77 hsl 600 10 0 1 0 0 \$0-start \$0-start-set start 280 5
1 12 -50179 -204786 -262130 34200 0;
#X obj 36 103 hsl 600 10 0 1 0 0 \$0-end \$0-end-set end 285 5 1 12
-50179 -204786 -262130 59900 0;
#X obj 36 64 hsl 121 10 0.125 8 1 0 \$0-stretch \$0-stretch-set stretch
38 5 1 12 -50179 -204786 -262130 6000 1;
#X obj 159 64 nbx 7 10 1e-06 1e+37 1 0 \$0-stretch-num \$0-stretch
empty 0 -8 1 12 -50179 -262130 -50179 1 256;
#X obj 246 64 hsl 318 10 10 999999 1 0 \$0-duration \$0-duration-set
duration 43 5 1 12 -50179 -204786 -262130 4086 1;
#X obj 569 64 nbx 7 10 1 1e+37 1 0 \$0-duration-num \$0-duration empty
0 -8 1 10 -50179 -262130 -50179 44.1 256;
#X obj 225 35 hsl 121 10 -60 60 0 0 \$0-transpose \$0-transpose-set
transpose 30 5 1 12 -21507 -204786 -204786 6000 1;
#X obj 351 35 nbx 5 10 -84 84 0 0 \$0-transpose-num \$0-transpose empty
0 -8 1 12 -21507 -204786 -50179 0 256;
#X obj 225 48 hsl 121 10 0.125 8 1 0 \$0-fspeed \$0-fspeed-set fspeed
38 5 1 12 -21507 -204786 -204786 6000 1;
#X obj 351 48 nbx 5 10 0.0078125 128 1 0 \$0-fspeed-num \$0-fspeed
empty 0 -8 1 12 -21507 -204786 -50179 1 256;
#N canvas 3 89 450 300 init 0;
#X msg 128 105 1;
#X obj 128 126 s \$0-end-set;
#X obj 128 84 loadbang;
#X msg 265 104 0;
#X obj 253 138 s \$0-transpose-set;
#X obj 103 220 s \$0-position-set;
#X obj 368 62 r \$0-reset_stretch;
#X msg 368 84 1;
#X obj 368 106 s \$0-stretch-set;
#X connect 0 0 1 0;
#X connect 0 0 5 0;
#X connect 2 0 0 0;
#X connect 2 0 3 0;
#X connect 3 0 4 0;
#X connect 6 0 7 0;
#X connect 7 0 8 0;
#X restore 214 152 pd init;
#X obj 97 51 bng 10 150 50 0 \$0-go \$0-go-bng go 12 7 0 8 -21515 -204800
-21515;
#X obj 175 35 nbx 4 10 0 9999 0 0 \$0-porta \$0-porta-set porta 0 15
1 10 -21507 -204786 -21507 0 256;
#X obj 33 51 nbx 3 10 5 999 0 0 \$0-slew \$0-slew-set slew 36 5 1 12
-66371 -262130 -66371 5 256;
#X obj 121 51 tgl 10 0 \$0-loop \$0-loop-set loop 12 7 1 10 -21515
-204800 -21515 0 1;
#X obj 155 51 tgl 10 0 \$0-boomerang \$0-boomerang-set boomerang 12
7 1 10 -21515 -204800 -21515 0 1;
#X text 345 133 altsamp altsize sbox sample;
#X text 30 12 phasevocoder~ 2048 45;
#X obj 160 35 tgl 13 0 \$0-patch_on \$0-patch_on-set empty 17 7 0 10
-228856 -258113 -86277 0 1;
#X obj 552 42 hradio 10 1 0 4 \$0-samplebox \$0-samplebox-set samplebox
0 -5 1 8 -66371 -261682 -66371 0;
#X obj 603 42 nbx 3 10 1 32 0 0 \$0-sample \$0-sample-set sample 0
-6 1 10 -66371 -261682 -66371 1 256;
#X obj 407 33 cnv 15 141 25 empty empty empty 20 12 0 14 -183672 -66577
0;
#X obj 409 44 nbx 3 12 0 120 0 0 empty empty empty -2 -6 0 7 -257472
-1109 -90133 0 256;
#X obj 451 44 nbx 3 12 1 2 0 0 \$0-patch-num \$0-patch-set select 0
-5 0 7 -17235 -261234 -17235 1 256;
#X obj 496 44 bng 12 250 50 0 \$0-store_patch \$0-store_patch-bng store
-3 -5 0 7 -17235 -262130 -17235;
#X obj 517 39 bng 10 250 50 0 \$0-patches_load \$0-patches_load-bng
load -5 16 0 7 -2498 -262144 -13381;
#X obj 530 39 bng 10 250 50 0 \$0-patches_save \$0-patches_save-bng
save 0 16 0 7 -159809 -262144 -86277;
#X obj 409 44 nbx 3 12 0 120 0 0 \$0-patches-dummy \$0-patches-num
patches 0 -5 0 7 -17235 -203904 -17235 0 256;
#X obj 482 48 bng 8 250 50 0 \$0-store_plus \$0-store_plus-bng + 2
-4 0 7 -17235 -198336 -17235;
#X obj 440 48 bng 8 250 50 0 \$0-store_minus \$0-store_minus-bng -
1 -5 0 10 -17235 -257985 -17235;
#X obj 342 152 r \$0-wave;
#N canvas 0 0 450 300 format_numbers 0;
#X obj 87 86 moses 10;
#X obj 132 106 moses 100;
#X obj 211 125 moses 1000;
#X obj 169 244 outlet;
#X obj 87 37 inlet;
#X obj 212 192 makesymbol wave_%s;
#X obj 159 172 makesymbol wave_0%s;
#X obj 96 152 makesymbol wave_00%s;
#X obj 27 132 makesymbol wave_000%s;
#X connect 0 0 8 0;
#X connect 0 1 1 0;
#X connect 1 0 7 0;
#X connect 1 1 2 0;
#X connect 2 0 6 0;
#X connect 2 1 5 0;
#X connect 4 0 0 0;
#X connect 5 0 3 0;
#X connect 6 0 3 0;
#X connect 7 0 3 0;
#X connect 8 0 3 0;
#X restore 342 173 pd format_numbers;
#X obj 339 195 tabread wavesizes;
#X obj 579 52 nbx 4 10 1 9999 0 0 \$0-wave \$0-wave-set wave -27 5
1 10 -66371 -261682 -66371 1 256;
#X obj 493 547 bsaylor/pvoc~ s32-1-1 \$1 \$2;
#X obj 231 64 bng 10 150 50 0 \$0-reset_stretch \$0-reset_stretch-bng
empty 12 7 0 8 -50179 -204800 -50179;
#X connect 2 0 9 0;
#X connect 3 0 8 0;
#X connect 4 0 3 0;
#X connect 4 0 5 0;
#X connect 5 0 2 0;
#X connect 6 0 5 0;
#X connect 6 0 108 0;
#X connect 6 1 5 1;
#X connect 6 1 7 0;
#X connect 7 0 14 1;
#X connect 7 0 17 1;
#X connect 7 0 99 0;
#X connect 7 0 88 1;
#X connect 7 0 91 1;
#X connect 7 0 142 0;
#X connect 8 0 7 0;
#X connect 9 0 197 0;
#X connect 10 0 80 0;
#X connect 11 0 91 0;
#X connect 12 0 197 1;
#X connect 14 0 19 0;
#X connect 14 0 29 1;
#X connect 15 0 25 0;
#X connect 16 0 197 0;
#X connect 17 0 18 2;
#X connect 17 0 19 1;
#X connect 17 0 115 1;
#X connect 18 0 46 0;
#X connect 19 0 45 0;
#X connect 20 0 14 0;
#X connect 20 0 105 1;
#X connect 21 0 17 0;
#X connect 21 0 70 2;
#X connect 21 0 114 1;
#X connect 22 0 20 1;
#X connect 23 0 21 1;
#X connect 24 0 130 0;
#X connect 25 0 29 0;
#X connect 25 0 92 0;
#X connect 25 0 105 0;
#X connect 25 1 20 0;
#X connect 25 2 21 0;
#X connect 25 2 24 0;
#X connect 26 0 38 0;
#X connect 27 0 39 1;
#X connect 28 0 39 1;
#X connect 29 0 18 0;
#X connect 32 0 28 0;
#X connect 32 1 33 0;
#X connect 32 2 44 0;
#X connect 32 3 27 0;
#X connect 33 0 31 0;
#X connect 34 0 39 0;
#X connect 34 0 54 0;
#X connect 34 0 92 1;
#X connect 35 0 38 1;
#X connect 36 0 38 1;
#X connect 37 0 36 0;
#X connect 37 1 40 0;
#X connect 37 2 43 0;
#X connect 37 3 35 0;
#X connect 38 0 32 0;
#X connect 39 0 37 0;
#X connect 40 0 42 0;
#X connect 43 0 40 1;
#X connect 43 0 41 0;
#X connect 44 0 33 1;
#X connect 44 0 30 0;
#X connect 45 0 53 0;
#X connect 46 0 47 0;
#X connect 47 0 197 0;
#X connect 49 0 51 0;
#X connect 50 0 59 0;
#X connect 51 0 52 0;
#X connect 52 0 50 0;
#X connect 53 0 43 1;
#X connect 53 0 44 1;
#X connect 54 0 55 0;
#X connect 56 0 67 1;
#X connect 57 0 67 1;
#X connect 58 0 49 0;
#X connect 59 0 57 0;
#X connect 59 1 128 0;
#X connect 59 2 127 0;
#X connect 59 3 56 0;
#X connect 60 0 61 0;
#X connect 61 0 62 0;
#X connect 62 0 65 0;
#X connect 63 0 58 1;
#X connect 64 0 58 1;
#X connect 65 0 64 0;
#X connect 65 1 69 0;
#X connect 65 2 68 0;
#X connect 65 3 63 0;
#X connect 66 0 58 0;
#X connect 67 0 60 0;
#X connect 70 0 71 0;
#X connect 71 0 72 0;
#X connect 72 0 73 0;
#X connect 73 0 74 0;
#X connect 75 0 197 1;
#X connect 76 0 88 0;
#X connect 76 0 118 0;
#X connect 76 0 72 0;
#X connect 77 0 82 0;
#X connect 77 1 85 0;
#X connect 79 0 77 2;
#X connect 79 1 81 0;
#X connect 80 0 85 0;
#X connect 80 1 77 0;
#X connect 80 2 79 0;
#X connect 82 0 78 0;
#X connect 83 0 82 1;
#X connect 83 1 77 1;
#X connect 83 2 82 2;
#X connect 84 0 83 0;
#X connect 86 0 124 1;
#X connect 87 0 125 1;
#X connect 88 0 125 0;
#X connect 89 0 148 0;
#X connect 91 0 197 0;
#X connect 92 0 94 0;
#X connect 93 0 94 1;
#X connect 94 0 98 0;
#X connect 94 0 96 0;
#X connect 95 0 96 1;
#X connect 95 0 97 0;
#X connect 95 0 110 0;
#X connect 96 0 106 0;
#X connect 97 0 98 1;
#X connect 98 0 25 0;
#X connect 99 0 55 0;
#X connect 100 0 101 0;
#X connect 101 1 103 0;
#X connect 103 0 9 0;
#X connect 103 1 104 0;
#X connect 104 0 88 1;
#X connect 104 0 14 1;
#X connect 104 0 91 1;
#X connect 104 0 99 0;
#X connect 105 0 70 0;
#X connect 106 0 111 0;
#X connect 106 0 113 0;
#X connect 106 1 92 0;
#X connect 106 1 109 0;
#X connect 107 0 102 0;
#X connect 108 0 107 0;
#X connect 109 0 111 1;
#X connect 109 0 112 0;
#X connect 109 0 141 0;
#X connect 110 1 109 0;
#X connect 111 0 114 0;
#X connect 111 0 115 0;
#X connect 112 0 113 1;
#X connect 113 0 105 0;
#X connect 113 0 29 0;
#X connect 114 0 116 0;
#X connect 115 0 117 0;
#X connect 116 0 72 0;
#X connect 117 0 47 0;
#X connect 118 0 92 0;
#X connect 119 0 120 0;
#X connect 120 0 121 0;
#X connect 120 1 145 0;
#X connect 124 0 75 0;
#X connect 125 0 47 0;
#X connect 126 0 67 0;
#X connect 129 0 124 0;
#X connect 130 0 53 1;
#X connect 131 0 18 1;
#X connect 131 0 117 1;
#X connect 131 0 70 1;
#X connect 131 0 116 1;
#X connect 133 0 132 0;
#X connect 134 0 137 1;
#X connect 135 0 134 1;
#X connect 135 0 137 0;
#X connect 136 0 121 0;
#X connect 136 0 135 0;
#X connect 136 1 123 0;
#X connect 136 2 122 0;
#X connect 136 2 134 0;
#X connect 136 2 135 1;
#X connect 137 0 139 0;
#X connect 138 0 75 0;
#X connect 139 0 140 0;
#X connect 140 0 138 0;
#X connect 141 0 21 0;
#X connect 141 0 20 0;
#X connect 142 0 143 0;
#X connect 143 0 144 0;
#X connect 144 0 41 0;
#X connect 144 1 20 0;
#X connect 144 2 21 0;
#X connect 144 2 24 0;
#X connect 145 0 136 0;
#X connect 146 0 148 1;
#X connect 147 0 146 0;
#X connect 148 0 90 0;
#X connect 149 0 147 0;
#X connect 150 0 149 0;
#X connect 150 0 155 0;
#X connect 151 0 147 0;
#X connect 152 0 153 1;
#X connect 153 0 147 1;
#X connect 154 0 156 0;
#X connect 155 0 154 0;
#X connect 155 1 152 0;
#X connect 156 0 153 0;
#X connect 158 0 6 0;
#X connect 159 0 4 0;
#X connect 193 0 194 0;
#X connect 193 0 195 0;
#X connect 194 0 9 0;
#X connect 195 0 88 1;
#X connect 195 0 14 1;
#X connect 195 0 91 1;
#X connect 195 0 17 1;
#X connect 195 0 142 0;
#X connect 197 0 89 0;
#X coords 0 -1 1 1 612 88 1 30 30;
