#N canvas 3 89 450 300 10;
#X obj 110 112 osc~;
#X floatatom 213 68 5 0 5000 1 attack - -;
#X floatatom 213 84 5 0 5000 1 decay - -;
#X msg 203 16 1;
#X msg 266 14 40;
#X obj 317 15 loadbang;
#X obj 116 215 vline~;
#X obj 70 5 inlet;
#X obj 82 60 t b f;
#X msg 130 91 0;
#X msg 150 176 1 \$1 \, 0 \$2 \$1;
#X obj 97 249 *~;
#X obj 142 143 pack f f;
#X obj 98 280 outlet~;
#X obj 143 115 f;
#X obj 79 34 440;
#X connect 0 0 11 0;
#X connect 1 0 14 1;
#X connect 2 0 12 1;
#X connect 3 0 1 0;
#X connect 4 0 2 0;
#X connect 5 0 4 0;
#X connect 5 0 3 0;
#X connect 6 0 11 1;
#X connect 7 0 15 0;
#X connect 8 0 14 0;
#X connect 8 1 0 0;
#X connect 8 1 9 0;
#X connect 9 0 0 1;
#X connect 10 0 6 0;
#X connect 11 0 13 0;
#X connect 12 0 10 0;
#X connect 14 0 12 0;
#X connect 15 0 8 0;
#X coords 0 -1 1 1 85 53 1 210 50;
