#N canvas 6 97 800 659 10;
#X floatatom 28 126 0 0 0 0 - - -;
#X obj 106 404 *~;
#X obj 201 329 line~;
#X floatatom 201 128 0 0 0 0 - - -;
#X obj 201 303 pack 0 200;
#X obj 28 182 exp;
#X floatatom 28 202 0 0 0 0 - - -;
#X obj 28 263 /;
#X obj 147 219 * 0.001;
#X obj 327 405 line~;
#X obj 327 377 pack 0 200;
#X floatatom 327 297 0 0 0 0 - - -;
#X text 358 298 delay (msec);
#X obj 106 424 +~;
#X obj 28 476 *~;
#X obj 28 506 +~;
#X obj 115 356 wrap~;
#X obj 277 399 *~;
#X obj 277 426 +~;
#X obj 197 486 *~;
#X obj 147 240 t b f;
#X floatatom 28 283 0 0 0 0 - - -;
#X obj 28 351 phasor~ 0;
#X obj 115 329 +~ 0.5;
#X floatatom 201 196 0 0 0 0 - - -;
#X obj 28 222 - 1;
#X obj 28 242 * -1;
#X text 62 125 <-- transposition;
#X text 105 138 (halftones);
#X text 70 203 speed;
#X text 70 216 change;
#X text 209 102 <--window (msec);
#X text 61 274 tape head;
#X text 65 284 rotation speed;
#X obj 25 39 inlet~;
#X obj 28 615 outlet~;
#X obj 236 573 *~;
#X obj 253 550 / 127;
#X obj 28 593 *~;
#X obj 117 593 *~;
#X obj 133 551 expr 1 - $f1;
#X obj 44 572 line~ 20;
#X obj 133 572 line~ 20;
#X obj 28 403 -~ 0.5;
#X obj 198 404 -~ 0.5;
#X obj 28 425 *~ 0.5;
#X obj 198 425 *~ 0.5;
#X obj 28 450 cos~;
#X obj 198 451 cos~;
#X obj 29 531 hip~ 15;
#X obj 29 329 line~;
#X obj 28 304 pack 0 200;
#X obj 201 148 moses 0.0422304;
#X msg 201 174 0.0422304;
#X obj 327 324 moses 0;
#X msg 327 350 0;
#X text 411 529 just a gui for Miller's G09.pitchshift patch!;
#X obj 487 369 +;
#X obj 451 369 t b f;
#X obj 598 357 r \$0-pish_on;
#X obj 69 101 r \$0-pish_p;
#X obj 451 335 r \$0-pish_pf;
#X obj 487 352 r \$0-pish_pc;
#X obj 106 464 hip~ 18;
#X obj 277 466 hip~ 18;
#X obj 519 441 r \$0-pish_mix_pc;
#X obj 519 468 / 100;
#X obj 106 484 lop~ 20000;
#X obj 277 486 lop~ 20000;
#X obj 93 519 r \$0-pish_mix;
#X obj 526 108 nbx 3 12 0 120 0 0 empty empty empty -2 -6 0 7 -257472
-1109 -90133 0 256;
#X obj 568 108 nbx 3 12 1 2 0 0 \$0-patch-num \$0-patch-set select
0 -5 0 7 -17235 -261234 -17235 1 256;
#X obj 526 108 nbx 3 12 0 120 0 0 \$0-patches-dummy \$0-patches-num
patches 0 -5 0 7 -17235 -203904 -17235 0 256;
#X text 461 179 pitchshift~;
#X text 462 179 pitchshift~;
#X obj 18 75 delwrite~ \$0-pish 16384;
#X obj 106 444 vd~ \$0-pish;
#X obj 277 446 vd~ \$0-pish;
#X msg 691 359 1;
#X obj 691 332 loadbang;
#X obj 598 376 switch~ 4 1 1;
#X obj 308 271 r \$0-pish_dl;
#X obj 487 399 s \$0-pish_p;
#X obj 369 410 r \$0-pish_hp;
#X obj 369 433 r \$0-pish_lp;
#X obj 518 495 s \$0-pish_mix;
#X obj 253 529 r \$0-pish_fb;
#X obj 167 73 r \$0-pish_win;
#X obj 243 242 r \$0-pish_porta;
#X obj 28 156 * 0.0577623;
#N canvas 51 294 761 546 automation 0;
#X obj 146 89 inlet;
#X text 168 126 win;
#X text 258 125 delay;
#X text 325 128 feedback;
#X text 397 127 mix;
#X obj 107 298 t f f;
#X obj 107 373 -;
#X msg 101 180 0;
#X msg 53 254 46;
#X msg 57 222 1;
#X obj 35 153 loadbang;
#X msg 50 328 200;
#X obj 107 394 i;
#X obj 377 194 outlet;
#X obj 122 320 wrap -0.499999 0.5;
#X obj 453 186 outlet;
#X msg 571 176 20000;
#X msg 544 214 18;
#X obj 567 116 loadbang;
#X obj 376 401 s \$0-patch-set;
#X msg 588 344 1;
#X obj 588 317 loadbang;
#X obj 145 110 route trans win delay fb mix porta patch file on randpat
hpf lpf pc pf;
#X obj 107 416 s \$0-pish_pc;
#X obj 129 340 s \$0-pish_pf;
#X obj 201 299 s \$0-pish_dl;
#X obj 242 208 s \$0-pish_fb;
#X obj 294 241 s \$0-pish_mix_pc;
#X obj 305 299 s \$0-pish_win;
#X obj 330 347 s \$0-pish_porta;
#X obj 430 218 s \$0-pish_on;
#X obj 539 270 s \$0-pish_hp;
#X obj 568 245 s \$0-pish_lp;
#X connect 0 0 22 0;
#X connect 5 0 6 0;
#X connect 5 1 14 0;
#X connect 6 0 12 0;
#X connect 7 0 5 0;
#X connect 7 0 25 0;
#X connect 7 0 26 0;
#X connect 8 0 28 0;
#X connect 9 0 27 0;
#X connect 10 0 8 0;
#X connect 10 0 9 0;
#X connect 10 0 7 0;
#X connect 10 0 11 0;
#X connect 11 0 29 0;
#X connect 12 0 23 0;
#X connect 14 0 6 1;
#X connect 14 0 24 0;
#X connect 16 0 32 0;
#X connect 17 0 31 0;
#X connect 18 0 17 0;
#X connect 18 0 16 0;
#X connect 20 0 30 0;
#X connect 21 0 20 0;
#X connect 22 0 5 0;
#X connect 22 1 28 0;
#X connect 22 2 25 0;
#X connect 22 3 26 0;
#X connect 22 4 27 0;
#X connect 22 5 29 0;
#X connect 22 6 19 0;
#X connect 22 7 13 0;
#X connect 22 8 30 0;
#X connect 22 9 15 0;
#X connect 22 10 31 0;
#X connect 22 11 32 0;
#X connect 22 12 23 0;
#X connect 22 13 24 0;
#X restore 328 64 pd automation;
#N canvas 107 197 831 643 patches 0;
#X obj 21 140 f;
#X obj 21 14 r \$0-store_patch;
#X obj 18 222 prepend add;
#X obj 18 242 t b a;
#X obj 91 319 msgfile;
#X obj 356 382 spigot;
#X msg 400 381 0;
#X msg 401 364 1;
#X msg 172 289 add patches 0;
#X obj 169 251 loadbang;
#X obj 182 353 route patches;
#X msg 106 238 goto 0;
#X obj 34 297 + 1;
#X obj 18 314 f;
#X msg 18 367 replace patches \$1;
#X msg 69 288 this;
#X obj 18 262 t b b b;
#X msg 573 327 range 1 \$1;
#X obj 346 217 t b f;
#X msg 361 241 goto \$1;
#X msg 326 240 this;
#X obj 453 251 r \$0-patches_load;
#X obj 453 268 openpanel;
#X msg 527 302 read \$1;
#X msg 483 302 goto 0;
#X msg 453 302 this;
#X obj 633 181 r \$0-patches_save;
#X obj 633 209 savepanel;
#X obj 632 238 makesymbol %s.txt;
#X msg 628 262 write \$1;
#X obj 182 334 route list;
#X obj 281 171 r \$0-patches_clear;
#X obj 279 197 t b b;
#X msg 359 278 clear;
#X obj 453 285 t b b a b;
#X obj 36 33 r \$0-pish-pf;
#X obj 87 123 r \$0-pish-mix;
#X obj 77 106 r \$0-pish-fb;
#X obj 67 89 r \$0-pish-dl;
#X obj 58 72 r \$0-pish-win;
#X obj 50 52 r \$0-pish-pc;
#X obj 104 141 r \$0-pish-porta;
#X obj 41 529 s \$0-pish-pf-set;
#X obj 82 510 s \$0-pish-pc-set;
#X obj 190 526 s \$0-pish-win-set;
#X obj 228 506 s \$0-pish-dl-set;
#X obj 260 487 s \$0-pish-fb-set;
#X obj 366 527 s \$0-pish-mix-set;
#X obj 369 499 s \$0-pish-porta-set;
#X obj 559 175 inlet;
#X obj 566 482 outlet;
#X obj 528 214 symbol;
#X obj 440 83 r \$0-pish_plus;
#X obj 440 127 + 1;
#X obj 402 128 - 1;
#X obj 402 103 f;
#X obj 402 63 r \$0-pish_minus;
#X obj 440 103 f;
#X obj 425 154 % 1;
#X obj 123 159 r \$0-pish_hp-num;
#X obj 144 176 r \$0-pish_lp-num;
#X obj 18 202 pack f f f f f f f f f;
#X obj 370 478 s \$0-pish_hp-set;
#X obj 387 459 s \$0-pish_lp-set;
#X obj 179 421 unpack f f f f f f f f f;
#X obj 631 409 random;
#X obj 687 482 outlet;
#X obj 724 136 inlet;
#X obj 425 174 s \$0-patch-set;
#X obj 324 410 s \$0-patches-num;
#X obj 573 344 s \$0-patch-set;
#X obj 348 194 inlet;
#X connect 0 0 61 0;
#X connect 1 0 0 0;
#X connect 2 0 3 0;
#X connect 3 0 16 0;
#X connect 3 1 4 0;
#X connect 4 0 30 0;
#X connect 5 0 6 0;
#X connect 5 0 17 0;
#X connect 5 0 69 0;
#X connect 6 0 5 1;
#X connect 7 0 5 1;
#X connect 8 0 4 0;
#X connect 9 0 8 0;
#X connect 10 0 12 0;
#X connect 10 0 5 0;
#X connect 10 0 58 1;
#X connect 10 0 65 1;
#X connect 10 1 64 0;
#X connect 11 0 4 0;
#X connect 12 0 13 1;
#X connect 13 0 14 0;
#X connect 13 0 17 0;
#X connect 13 0 58 1;
#X connect 13 0 65 1;
#X connect 13 0 69 0;
#X connect 14 0 4 0;
#X connect 15 0 4 0;
#X connect 16 0 13 0;
#X connect 16 1 15 0;
#X connect 16 2 11 0;
#X connect 17 0 70 0;
#X connect 18 0 20 0;
#X connect 18 1 19 0;
#X connect 19 0 4 0;
#X connect 20 0 4 0;
#X connect 21 0 22 0;
#X connect 22 0 34 0;
#X connect 22 0 50 0;
#X connect 23 0 4 0;
#X connect 24 0 4 0;
#X connect 25 0 4 0;
#X connect 26 0 27 0;
#X connect 27 0 28 0;
#X connect 28 0 29 0;
#X connect 28 0 50 0;
#X connect 29 0 4 0;
#X connect 30 0 10 0;
#X connect 31 0 32 0;
#X connect 32 0 8 0;
#X connect 32 1 33 0;
#X connect 33 0 4 0;
#X connect 34 0 25 0;
#X connect 34 1 24 0;
#X connect 34 1 7 0;
#X connect 34 2 23 0;
#X connect 34 3 33 0;
#X connect 35 0 0 1;
#X connect 36 0 61 5;
#X connect 37 0 61 4;
#X connect 38 0 61 3;
#X connect 39 0 61 2;
#X connect 40 0 61 1;
#X connect 41 0 61 6;
#X connect 49 0 51 0;
#X connect 51 0 34 0;
#X connect 52 0 57 0;
#X connect 53 0 58 0;
#X connect 54 0 58 0;
#X connect 55 0 54 0;
#X connect 56 0 55 0;
#X connect 57 0 53 0;
#X connect 58 0 68 0;
#X connect 59 0 61 7;
#X connect 60 0 61 8;
#X connect 61 0 2 0;
#X connect 64 0 42 0;
#X connect 64 1 43 0;
#X connect 64 2 44 0;
#X connect 64 3 45 0;
#X connect 64 4 46 0;
#X connect 64 5 47 0;
#X connect 64 6 48 0;
#X connect 64 7 62 0;
#X connect 64 8 63 0;
#X connect 65 0 66 0;
#X connect 67 0 65 0;
#X connect 71 0 18 0;
#X connect 71 0 55 1;
#X connect 71 0 57 1;
#X restore 335 141 pd patches;
#X obj 345 199 outlet;
#X obj 328 43 inlet;
#X msg 402 141 patch \$1;
#N canvas 6 75 767 703 auto_out 0;
#X obj 36 33 r \$0-pish-pf;
#X obj 217 133 r \$0-pish-mix;
#X obj 168 112 r \$0-pish-fb;
#X obj 112 92 r \$0-pish-dl;
#X obj 63 72 r \$0-pish-win;
#X obj 50 52 r \$0-pish-pc;
#X obj 266 154 r \$0-pish-porta;
#X obj 326 174 r \$0-pish_hp-num;
#X obj 376 194 r \$0-pish_lp-num;
#X obj 65 590 outlet;
#X obj 531 185 inlet;
#X obj 668 316 inlet;
#X obj 63 93 change;
#X obj 112 113 change;
#X obj 168 133 change;
#X obj 217 154 change;
#X obj 266 174 change;
#X obj 326 194 change;
#X obj 376 214 change;
#X obj 531 246 prepend file;
#X obj 42 115 change;
#X obj 12 139 change;
#X msg 569 341 patch \$1;
#X msg 378 242 lpf \$1;
#X msg 318 226 hpf \$1;
#X msg 254 215 porta \$1;
#X msg 209 186 mix \$1;
#X msg 153 170 fb \$1;
#X msg 109 133 delay \$1;
#X msg 71 170 win \$1;
#X obj 630 317 inlet;
#X msg 669 340 0;
#X msg 633 340 1;
#X obj 302 611;
#X obj 93 529 spigot 1;
#X msg 31 195 pc \$1;
#X msg 20 235 pf \$1;
#X obj 559 306 inlet;
#X connect 0 0 21 0;
#X connect 1 0 15 0;
#X connect 2 0 14 0;
#X connect 3 0 13 0;
#X connect 4 0 12 0;
#X connect 5 0 20 0;
#X connect 6 0 16 0;
#X connect 7 0 17 0;
#X connect 8 0 18 0;
#X connect 10 0 19 0;
#X connect 11 0 31 0;
#X connect 12 0 29 0;
#X connect 13 0 28 0;
#X connect 14 0 27 0;
#X connect 15 0 26 0;
#X connect 16 0 25 0;
#X connect 17 0 24 0;
#X connect 18 0 23 0;
#X connect 19 0 9 0;
#X connect 20 0 35 0;
#X connect 21 0 36 0;
#X connect 22 0 9 0;
#X connect 23 0 34 0;
#X connect 24 0 34 0;
#X connect 25 0 34 0;
#X connect 26 0 34 0;
#X connect 27 0 34 0;
#X connect 28 0 34 0;
#X connect 29 0 34 0;
#X connect 30 0 32 0;
#X connect 31 0 34 1;
#X connect 32 0 34 1;
#X connect 34 0 9 0;
#X connect 35 0 34 0;
#X connect 37 0 22 0;
#X restore 343 172 pd auto_out;
#X obj 416 87 r \$0-patch-num;
#X obj 417 111 t b f b;
#X connect 0 0 89 0;
#X connect 1 0 13 0;
#X connect 2 0 1 1;
#X connect 2 0 17 1;
#X connect 3 0 52 0;
#X connect 4 0 2 0;
#X connect 5 0 6 0;
#X connect 6 0 25 0;
#X connect 7 0 21 0;
#X connect 8 0 20 0;
#X connect 9 0 13 1;
#X connect 9 0 18 1;
#X connect 10 0 9 0;
#X connect 11 0 54 0;
#X connect 13 0 76 0;
#X connect 14 0 15 0;
#X connect 15 0 49 0;
#X connect 16 0 17 0;
#X connect 16 0 44 0;
#X connect 17 0 18 0;
#X connect 18 0 77 0;
#X connect 19 0 15 1;
#X connect 20 0 7 0;
#X connect 20 1 7 1;
#X connect 21 0 51 0;
#X connect 22 0 1 0;
#X connect 22 0 23 0;
#X connect 22 0 43 0;
#X connect 23 0 16 0;
#X connect 24 0 4 0;
#X connect 24 0 8 0;
#X connect 25 0 26 0;
#X connect 26 0 7 0;
#X connect 34 0 39 0;
#X connect 34 0 75 0;
#X connect 36 0 75 0;
#X connect 37 0 36 1;
#X connect 38 0 35 0;
#X connect 39 0 35 0;
#X connect 40 0 42 0;
#X connect 41 0 38 1;
#X connect 42 0 39 1;
#X connect 43 0 45 0;
#X connect 44 0 46 0;
#X connect 45 0 47 0;
#X connect 46 0 48 0;
#X connect 47 0 14 0;
#X connect 48 0 19 0;
#X connect 49 0 36 0;
#X connect 49 0 38 0;
#X connect 50 0 22 0;
#X connect 51 0 50 0;
#X connect 52 0 53 0;
#X connect 52 1 24 0;
#X connect 53 0 24 0;
#X connect 54 0 55 0;
#X connect 54 1 10 0;
#X connect 55 0 10 0;
#X connect 57 0 82 0;
#X connect 58 0 57 0;
#X connect 58 1 57 1;
#X connect 59 0 80 0;
#X connect 60 0 0 0;
#X connect 61 0 58 0;
#X connect 62 0 57 0;
#X connect 63 0 67 0;
#X connect 64 0 68 0;
#X connect 65 0 66 0;
#X connect 66 0 85 0;
#X connect 67 0 14 1;
#X connect 68 0 19 1;
#X connect 69 0 40 0;
#X connect 69 0 41 0;
#X connect 76 0 63 0;
#X connect 77 0 64 0;
#X connect 78 0 80 0;
#X connect 79 0 78 0;
#X connect 81 0 11 0;
#X connect 83 0 64 1;
#X connect 83 0 63 1;
#X connect 84 0 68 1;
#X connect 84 0 67 1;
#X connect 86 0 37 0;
#X connect 87 0 3 0;
#X connect 88 0 10 1;
#X connect 88 0 4 1;
#X connect 88 0 51 1;
#X connect 89 0 5 0;
#X connect 90 0 91 1;
#X connect 90 1 91 2;
#X connect 91 0 95 0;
#X connect 91 1 94 0;
#X connect 93 0 90 0;
#X connect 94 0 90 0;
#X connect 95 0 92 0;
#X connect 96 0 97 0;
#X connect 97 0 95 2;
#X connect 97 1 91 0;
#X connect 97 1 95 1;
#X connect 97 2 95 3;
#X coords 0 0 1 1 322 97 0;
