#N canvas 3 89 1084 659 10;
#X declare -lib zexy;
#X obj 1385 23 declare -lib zexy;
#X floatatom 28 126 0 0 0 0 - - -;
#X obj 106 404 *~;
#X obj 201 329 line~;
#X floatatom 201 128 0 0 0 0 - - -;
#X obj 201 303 pack 0 200;
#X obj 28 182 exp;
#X floatatom 28 202 0 0 0 0 - - -;
#X obj 28 263 /;
#X obj 147 219 * 0.001;
#X obj 327 405 line~;
#X obj 327 377 pack 0 200;
#X floatatom 327 297 0 0 0 0 - - -;
#X text 358 298 delay (msec);
#X obj 106 424 +~;
#X obj 28 476 *~;
#X obj 28 506 +~;
#X obj 115 356 wrap~;
#X obj 277 399 *~;
#X obj 277 426 +~;
#X obj 197 486 *~;
#X obj 147 240 t b f;
#X floatatom 28 283 0 0 0 0 - - -;
#X obj 28 351 phasor~ 0;
#X obj 115 329 +~ 0.5;
#X floatatom 201 196 0 0 0 0 - - -;
#X obj 28 222 - 1;
#X obj 28 242 * -1;
#X text 62 125 <-- transposition;
#X text 105 138 (halftones);
#X text 70 203 speed;
#X text 70 216 change;
#X text 209 102 <--window (msec);
#X text 61 274 tape head;
#X text 65 284 rotation speed;
#X obj 25 39 inlet~;
#X obj 28 615 outlet~;
#X obj 236 573 *~;
#X obj 253 550 / 127;
#X obj 28 593 *~;
#X obj 117 593 *~;
#X obj 133 551 expr 1 - $f1;
#X obj 44 572 line~ 20;
#X obj 133 572 line~ 20;
#X obj 28 403 -~ 0.5;
#X obj 198 404 -~ 0.5;
#X obj 28 425 *~ 0.5;
#X obj 198 425 *~ 0.5;
#X obj 28 450 cos~;
#X obj 198 451 cos~;
#X obj 29 531 hip~ 15;
#X obj 29 329 line~;
#X obj 28 304 pack 0 200;
#X obj 201 148 moses 0.0422304;
#X msg 201 174 0.0422304;
#X obj 327 324 moses 0;
#X msg 327 350 0;
#X text 411 529 just a gui for Miller's G09.pitchshift patch!;
#X obj 461 197 cnv 15 320 76 empty empty empty 5 8 0 12 -170616 -24977
0;
#X obj 487 369 +;
#X obj 451 369 t b f;
#X obj 598 357 r \$0-pish_on;
#X obj 69 101 r \$0-pish_p;
#X obj 451 335 r \$0-pish_pf;
#X obj 487 352 r \$0-pish_pc;
#X obj 487 399 s \$0-pish_p-set;
#X obj 167 73 r \$0-pish_win-num;
#X obj 308 271 r \$0-pish_dl-num;
#X obj 253 529 r \$0-pish_fb-num;
#X obj 106 464 hip~ 18;
#X obj 277 466 hip~ 18;
#X obj 519 441 r \$0-pish_mix_pc;
#X obj 520 468 / 100;
#X obj 518 495 s \$0-pish_mix-set;
#X obj 106 484 lop~ 20000;
#X obj 277 486 lop~ 20000;
#X obj 369 410 r \$0-pish_hp-num;
#X obj 369 433 r \$0-pish_lp-num;
#X obj 93 519 r \$0-pish_mix;
#X obj 533 183 cnv 15 248 90 empty empty empty 5 28 0 42 -170616 -24977
0;
#X obj 469 230 hsl 128 12 0 4064 0 0 \$0-pish_dl \$0-pish_dl-set delay_time
20 6 0 8 -204288 -1109 -1109 0 1;
#X obj 538 188 hsl 181 12 -1 1 0 1 \$0-pish_pf \$0-pish_pf-set pitch_fine
24 6 0 8 -208384 -1109 -1109 9150 1;
#X obj 723 188 nbx 6 12 0.1 100000 1 0 \$0-pish_porta \$0-pish_porta-set
porta 30 18 1 10 -204288 -1109 -1109 200 256;
#X obj 667 245 tgl 25 0 \$0-pish_on \$0-pish_on-set on 4 12 0 12 -191407
-258699 -90133 1 1;
#X obj 466 202 nbx 7 12 -127 127 0 0 \$0-pish_p \$0-pish_p-set empty
0 -8 1 10 -204288 -13330 -13330 -0.983333 256;
#X obj 522 245 cnv 15 141 25 empty empty empty 20 12 0 14 -183672 -66577
0;
#X obj 524 256 nbx 3 12 0 120 0 0 empty empty empty -2 -6 0 7 -257472
-1109 -90133 0 256;
#X obj 566 256 nbx 3 12 1 2 0 0 \$0-patch-num \$0-patch-set select
0 -5 0 7 -17235 -261234 -17235 1 256;
#X obj 611 256 bng 12 250 50 0 \$0-store_patch \$0-store_patch-bng
store -3 -5 0 7 -17235 -262130 -17235;
#X obj 632 251 bng 10 250 50 0 \$0-patches_load \$0-patches_load-bng
load -5 16 0 7 -2498 -262144 -13381;
#X obj 645 251 bng 10 250 50 0 \$0-patches_save \$0-patches_save-bng
save 0 16 0 7 -159809 -262144 -86277;
#X obj 524 256 nbx 3 12 0 120 0 0 \$0-patches-dummy \$0-patches-num
patches 0 -5 0 7 -17235 -203904 -17235 0 256;
#X obj 597 260 bng 8 250 50 0 \$0-store_plus \$0-store_plus-bng + 2
-4 0 7 -17235 -198336 -17235;
#X obj 555 260 bng 8 250 50 0 \$0-store_minus \$0-store_minus-bng -
1 -5 0 10 -17235 -257985 -17235;
#X obj 543 202 hsl 201 12 -100 100 0 0 \$0-pish_pc \$0-pish_pc-set
pitch_coarse 20 6 0 8 -204288 -1109 -1109 9900 1;
#X obj 466 216 nbx 5 12 1e-07 16384 0 0 \$0-pish_win-num \$0-pish_win
empty 0 -8 1 10 -204288 -13330 -13330 223.556 256;
#X obj 518 216 hsl 256 12 1 16384 1 0 \$0-pish_win \$0-pish_win-set
window_ms 26 6 0 8 -204288 -1109 -1109 14215 1;
#X obj 466 242 nbx 5 12 0 4095 0 0 \$0-pish_dl-num \$0-pish_dl empty
0 -8 1 10 -204288 -13330 -13330 0 256;
#X obj 619 230 nbx 3 12 -127 127 0 0 \$0-pish_fb-num \$0-pish_fb empty
0 -8 1 10 -204288 -13330 -13330 0 256;
#X obj 653 230 hsl 121 12 0 127 0 0 \$0-pish_fb \$0-pish_fb-set feedback
20 6 0 8 -204288 -1109 -1109 0 1;
#X obj 484 258 nbx 3 12 0 100 0 0 \$0-pish_mix_pc \$0-pish_mix_pc-set
empty 0 -8 1 10 -204288 -13330 -13330 100 256;
#X obj 728 245 nbx 4 12 2 2000 1 0 \$0-pish_hp-num \$0-pish_hp-set
hpf -18 6 1 10 -204288 -13330 -13330 18 256;
#X obj 484 258 nbx 3 12 0 100 0 0 \$0-pish_mix \$0-pish_mix-set mix
-20 6 1 10 -204288 -13330 -13330 1 256;
#X obj 723 260 nbx 5 12 200 20000 1 0 \$0-pish_lp-num \$0-pish_lp-set
lpf -18 6 1 10 -204288 -13330 -13330 20000 256;
#X obj 18 75 delwrite~ \$0-pish 16384;
#X obj 106 444 vd~ \$0-pish;
#X obj 277 446 vd~ \$0-pish;
#X obj 598 383 switch~ 4 1 1;
#X obj 648 493 s \$0-pish_mix_pc-set;
#X msg 666 465 100;
#X obj 666 444 loadbang;
#X obj 28 156 * 0.0577623;
#X obj 1071 329 r \$0-patch-num;
#X obj 1072 353 t b f b;
#X obj 243 242 r \$0-pish_porta;
#X obj 995 39 inlet;
#X text 1018 101 win;
#X text 1108 100 delay;
#X text 1175 103 feedback;
#X text 1247 102 mix;
#X obj 1193 161 s \$0-pish_on-set;
#X obj 951 205 t f f;
#X obj 951 280 -;
#X msg 944 99 0;
#X msg 928 156 46;
#X msg 932 124 1;
#X obj 922 76 loadbang;
#X msg 892 182 200;
#X obj 951 301 i;
#X obj 997 129 s \$0-pish_fb-set;
#X obj 998 200 s \$0-pish_win-set;
#X obj 1017 172 s \$0-pish_dl-set;
#X obj 973 247 s \$0-pish_pf-set;
#X obj 951 323 s \$0-pish_pc-set;
#X obj 966 227 wrap -0.499999 0.5;
#X obj 1045 150 s \$0-pish_mix_pc-set;
#X obj 1331 238 s \$0-pish_hp-set;
#X obj 1360 213 s \$0-pish_lp-set;
#X msg 1357 178 20000;
#X msg 1330 216 18;
#X obj 1339 157 loadbang;
#X obj 1143 266 s \$0-patch-set;
#X msg 1272 130 1;
#X obj 1320 94 loadbang;
#X obj 1108 239 s \$0-pish_porta-set;
#X obj 994 60 route trans win delay fb mix porta patch file on randpat
hpf lpf pc pf;
#X obj 821 400 f;
#X obj 821 274 r \$0-store_patch;
#X obj 818 482 prepend add;
#X obj 818 502 t b a;
#X obj 891 579 msgfile;
#X obj 1156 642 spigot;
#X msg 1200 641 0;
#X msg 1201 624 1;
#X msg 972 549 add patches 0;
#X obj 969 511 loadbang;
#X obj 982 613 route patches;
#X msg 906 498 goto 0;
#X obj 834 557 + 1;
#X obj 818 574 f;
#X msg 818 627 replace patches \$1;
#X msg 869 548 this;
#X obj 818 522 t b b b;
#X msg 1373 587 range 1 \$1;
#X obj 1146 477 t b f;
#X msg 1161 501 goto \$1;
#X msg 1126 500 this;
#X obj 1253 511 r \$0-patches_load;
#X obj 1253 528 openpanel;
#X msg 1327 562 read \$1;
#X msg 1283 562 goto 0;
#X msg 1253 562 this;
#X obj 1433 441 r \$0-patches_save;
#X obj 1433 469 savepanel;
#X obj 1432 498 makesymbol %s.txt;
#X msg 1428 522 write \$1;
#X obj 982 594 route list;
#X obj 1081 431 r \$0-patches_clear;
#X obj 1079 457 t b b;
#X msg 1159 538 clear;
#X obj 1253 545 t b b a b;
#X obj 836 293 r \$0-pish-pf;
#X obj 887 383 r \$0-pish-mix;
#X obj 877 366 r \$0-pish-fb;
#X obj 867 349 r \$0-pish-dl;
#X obj 858 332 r \$0-pish-win;
#X obj 850 312 r \$0-pish-pc;
#X obj 904 401 r \$0-pish-porta;
#X obj 841 789 s \$0-pish-pf-set;
#X obj 882 770 s \$0-pish-pc-set;
#X obj 990 786 s \$0-pish-win-set;
#X obj 1028 766 s \$0-pish-dl-set;
#X obj 1060 747 s \$0-pish-fb-set;
#X obj 1166 787 s \$0-pish-mix-set;
#X obj 1169 759 s \$0-pish-porta-set;
#X obj 1214 195 symbol;
#X obj 1240 343 r \$0-pish_plus;
#X obj 1240 387 + 1;
#X obj 1202 388 - 1;
#X obj 1202 363 f;
#X obj 1202 323 r \$0-pish_minus;
#X obj 1240 363 f;
#X obj 1225 414 % 1;
#X obj 923 419 r \$0-pish_hp-num;
#X obj 944 436 r \$0-pish_lp-num;
#X obj 818 462 pack f f f f f f f f f;
#X obj 1170 738 s \$0-pish_hp-set;
#X obj 1187 719 s \$0-pish_lp-set;
#X obj 979 681 unpack f f f f f f f f f;
#X obj 1348 379 random;
#X obj 1225 434 s \$0-patch-set;
#X obj 1140 682 s \$0-patches-num;
#X obj 1373 604 s \$0-patch-set;
#X obj 918 814 r \$0-pish-pf;
#X obj 1099 914 r \$0-pish-mix;
#X obj 1050 893 r \$0-pish-fb;
#X obj 994 873 r \$0-pish-dl;
#X obj 945 853 r \$0-pish-win;
#X obj 932 833 r \$0-pish-pc;
#X obj 1148 935 r \$0-pish-porta;
#X obj 1208 955 r \$0-pish_hp-num;
#X obj 1258 975 r \$0-pish_lp-num;
#X obj 1044 1071 outlet;
#X obj 945 874 change;
#X obj 994 894 change;
#X obj 1050 914 change;
#X obj 1099 935 change;
#X obj 1148 955 change;
#X obj 1208 975 change;
#X obj 1258 995 change;
#X obj 1361 708 prepend file;
#X obj 924 896 change;
#X obj 894 920 change;
#X msg 1025 388 patch \$1;
#X msg 1260 1023 lpf \$1;
#X msg 1200 1007 hpf \$1;
#X msg 1136 996 porta \$1;
#X msg 1091 967 mix \$1;
#X msg 1035 951 fb \$1;
#X msg 991 914 delay \$1;
#X msg 953 951 win \$1;
#X msg 1125 387 0;
#X msg 1089 387 1;
#X obj 1055 1039 spigot 1;
#X msg 913 976 pc \$1;
#X msg 902 1016 pf \$1;
#X connect 1 0 111 0;
#X connect 2 0 14 0;
#X connect 3 0 2 1;
#X connect 3 0 18 1;
#X connect 4 0 53 0;
#X connect 5 0 3 0;
#X connect 6 0 7 0;
#X connect 7 0 26 0;
#X connect 8 0 22 0;
#X connect 9 0 21 0;
#X connect 10 0 14 1;
#X connect 10 0 19 1;
#X connect 11 0 10 0;
#X connect 12 0 55 0;
#X connect 14 0 105 0;
#X connect 15 0 16 0;
#X connect 16 0 50 0;
#X connect 17 0 18 0;
#X connect 17 0 45 0;
#X connect 18 0 19 0;
#X connect 19 0 106 0;
#X connect 20 0 16 1;
#X connect 21 0 8 0;
#X connect 21 1 8 1;
#X connect 22 0 52 0;
#X connect 23 0 2 0;
#X connect 23 0 24 0;
#X connect 23 0 44 0;
#X connect 24 0 17 0;
#X connect 25 0 5 0;
#X connect 25 0 9 0;
#X connect 26 0 27 0;
#X connect 27 0 8 0;
#X connect 35 0 40 0;
#X connect 35 0 104 0;
#X connect 37 0 104 0;
#X connect 38 0 37 1;
#X connect 39 0 36 0;
#X connect 40 0 36 0;
#X connect 41 0 43 0;
#X connect 42 0 39 1;
#X connect 43 0 40 1;
#X connect 44 0 46 0;
#X connect 45 0 47 0;
#X connect 46 0 48 0;
#X connect 47 0 49 0;
#X connect 48 0 15 0;
#X connect 49 0 20 0;
#X connect 50 0 37 0;
#X connect 50 0 39 0;
#X connect 51 0 23 0;
#X connect 52 0 51 0;
#X connect 53 0 54 0;
#X connect 53 1 25 0;
#X connect 54 0 25 0;
#X connect 55 0 56 0;
#X connect 55 1 11 0;
#X connect 56 0 11 0;
#X connect 59 0 65 0;
#X connect 60 0 59 0;
#X connect 60 1 59 1;
#X connect 61 0 107 0;
#X connect 62 0 1 0;
#X connect 63 0 60 0;
#X connect 64 0 59 0;
#X connect 66 0 4 0;
#X connect 67 0 12 0;
#X connect 68 0 38 0;
#X connect 69 0 74 0;
#X connect 70 0 75 0;
#X connect 71 0 72 0;
#X connect 72 0 73 0;
#X connect 74 0 15 1;
#X connect 75 0 20 1;
#X connect 76 0 70 1;
#X connect 76 0 69 1;
#X connect 77 0 75 1;
#X connect 77 0 74 1;
#X connect 78 0 41 0;
#X connect 78 0 42 0;
#X connect 105 0 69 0;
#X connect 106 0 70 0;
#X connect 109 0 108 0;
#X connect 110 0 109 0;
#X connect 111 0 6 0;
#X connect 112 0 113 0;
#X connect 113 0 242 0;
#X connect 113 1 233 0;
#X connect 113 1 164 0;
#X connect 113 2 241 0;
#X connect 114 0 11 1;
#X connect 114 0 5 1;
#X connect 114 0 52 1;
#X connect 115 0 145 0;
#X connect 121 0 122 0;
#X connect 121 1 134 0;
#X connect 122 0 128 0;
#X connect 123 0 121 0;
#X connect 123 0 129 0;
#X connect 123 0 131 0;
#X connect 124 0 130 0;
#X connect 125 0 135 0;
#X connect 126 0 124 0;
#X connect 126 0 125 0;
#X connect 126 0 123 0;
#X connect 126 0 127 0;
#X connect 127 0 144 0;
#X connect 128 0 133 0;
#X connect 134 0 122 1;
#X connect 134 0 132 0;
#X connect 138 0 137 0;
#X connect 139 0 136 0;
#X connect 140 0 139 0;
#X connect 140 0 138 0;
#X connect 142 0 120 0;
#X connect 143 0 142 0;
#X connect 145 0 121 0;
#X connect 145 1 130 0;
#X connect 145 2 131 0;
#X connect 145 3 129 0;
#X connect 145 4 135 0;
#X connect 145 5 144 0;
#X connect 145 6 141 0;
#X connect 145 7 195 0;
#X connect 145 8 120 0;
#X connect 145 9 209 0;
#X connect 145 10 136 0;
#X connect 145 11 137 0;
#X connect 145 12 133 0;
#X connect 145 13 132 0;
#X connect 146 0 205 0;
#X connect 147 0 146 0;
#X connect 148 0 149 0;
#X connect 149 0 162 0;
#X connect 149 1 150 0;
#X connect 150 0 176 0;
#X connect 151 0 152 0;
#X connect 151 0 163 0;
#X connect 151 0 211 0;
#X connect 152 0 151 1;
#X connect 153 0 151 1;
#X connect 154 0 150 0;
#X connect 155 0 154 0;
#X connect 156 0 158 0;
#X connect 156 0 151 0;
#X connect 156 0 202 1;
#X connect 156 0 209 1;
#X connect 156 1 208 0;
#X connect 157 0 150 0;
#X connect 158 0 159 1;
#X connect 159 0 160 0;
#X connect 159 0 163 0;
#X connect 159 0 202 1;
#X connect 159 0 209 1;
#X connect 159 0 211 0;
#X connect 160 0 150 0;
#X connect 161 0 150 0;
#X connect 162 0 159 0;
#X connect 162 1 161 0;
#X connect 162 2 157 0;
#X connect 163 0 212 0;
#X connect 164 0 166 0;
#X connect 164 1 165 0;
#X connect 165 0 150 0;
#X connect 166 0 150 0;
#X connect 167 0 168 0;
#X connect 168 0 180 0;
#X connect 168 0 230 0;
#X connect 169 0 150 0;
#X connect 170 0 150 0;
#X connect 171 0 150 0;
#X connect 172 0 173 0;
#X connect 173 0 174 0;
#X connect 174 0 175 0;
#X connect 174 0 230 0;
#X connect 175 0 150 0;
#X connect 176 0 156 0;
#X connect 177 0 178 0;
#X connect 178 0 154 0;
#X connect 178 1 179 0;
#X connect 179 0 150 0;
#X connect 180 0 171 0;
#X connect 180 1 170 0;
#X connect 180 1 153 0;
#X connect 180 2 169 0;
#X connect 180 3 179 0;
#X connect 181 0 146 1;
#X connect 182 0 205 5;
#X connect 183 0 205 4;
#X connect 184 0 205 3;
#X connect 185 0 205 2;
#X connect 186 0 205 1;
#X connect 187 0 205 6;
#X connect 195 0 180 0;
#X connect 196 0 201 0;
#X connect 197 0 202 0;
#X connect 198 0 202 0;
#X connect 199 0 198 0;
#X connect 200 0 199 0;
#X connect 201 0 197 0;
#X connect 202 0 210 0;
#X connect 203 0 205 7;
#X connect 204 0 205 8;
#X connect 205 0 148 0;
#X connect 208 0 188 0;
#X connect 208 1 189 0;
#X connect 208 2 190 0;
#X connect 208 3 191 0;
#X connect 208 4 192 0;
#X connect 208 5 193 0;
#X connect 208 6 194 0;
#X connect 208 7 206 0;
#X connect 208 8 207 0;
#X connect 209 0 141 0;
#X connect 213 0 232 0;
#X connect 214 0 226 0;
#X connect 215 0 225 0;
#X connect 216 0 224 0;
#X connect 217 0 223 0;
#X connect 218 0 231 0;
#X connect 219 0 227 0;
#X connect 220 0 228 0;
#X connect 221 0 229 0;
#X connect 223 0 240 0;
#X connect 224 0 239 0;
#X connect 225 0 238 0;
#X connect 226 0 237 0;
#X connect 227 0 236 0;
#X connect 228 0 235 0;
#X connect 229 0 234 0;
#X connect 230 0 222 0;
#X connect 231 0 244 0;
#X connect 232 0 245 0;
#X connect 233 0 222 0;
#X connect 234 0 243 0;
#X connect 235 0 243 0;
#X connect 236 0 243 0;
#X connect 237 0 243 0;
#X connect 238 0 243 0;
#X connect 239 0 243 0;
#X connect 240 0 243 0;
#X connect 241 0 243 1;
#X connect 242 0 243 1;
#X connect 243 0 222 0;
#X connect 244 0 243 0;
#X connect 245 0 243 0;
#X coords 0 -1 1 1 322 96 1 460 180;
