#N canvas 496 181 939 656 10;
#X obj 78 24 inlet;
#X obj 555 58 inlet;
#X obj 440 390 xgroove~ \$0-sample;
#X obj 501 134 openpanel;
#X obj 501 114 bng 15 250 50 0 empty \$0-load_file empty 17 7 0 10
-262144 -1 -1;
#X obj 61 233 cnv 15 340 90 empty empty empty 20 12 0 14 -24905 -66577
0;
#X obj 173 383 cnv 15 100 60 empty empty empty 20 12 0 14 -150115 -66577
0;
#X obj 509 231 soundfiler;
#X obj 553 157 symbol \$0-sample;
#X obj 501 157 t a b;
#X msg 508 208 read -resize \$1 \$2;
#X obj 508 186 pack s s;
#X obj 35 48 route trig file play loop speed trans porta;
#X obj 20 81 s \$0-playbang;
#X msg 427 211 stop;
#X obj 429 173 sel 0 1;
#X obj 164 85 s \$0-loop;
#X obj 229 86 s \$0-speed;
#X obj 299 87 s \$0-trans;
#X obj 368 84 s \$0-porta;
#N canvas 20 117 755 394 tweak 0;
#X obj 89 26 r \$0-tweak;
#X obj 87 48 sel 0 1 2 3 4 5 6 7;
#X msg 74 250 set samples;
#X msg 104 198 set samples_x100;
#X msg 94 228 set samples_x10;
#X msg 147 146 set ms;
#X msg 177 96 set ms_x100;
#X msg 164 121 set ms_x10;
#X msg 194 75 set seconds;
#X msg 124 178 set samples_x1000;
#X obj 165 268 s \$0-tweak_label;
#N canvas 98 499 716 398 start_convert 0;
#X obj 195 55 inlet;
#X obj 168 117 sel 0 1 2 3 4 5 6 7;
#X obj 426 335 s \$0-start_tweak-set;
#X obj 68 166 *;
#X obj 381 23 samplerate~;
#X msg 165 139 1;
#X msg 183 139 10;
#X msg 203 139 100;
#X msg 223 139 1000;
#X obj 165 169 f;
#X obj 330 62 * 0.001;
#X obj 380 62 * 0.01;
#X obj 430 62 * 0.1;
#X obj 259 141 44.1;
#X obj 289 141 441;
#X obj 319 141 4410;
#X obj 349 141 44100;
#X obj 244 194 *;
#X msg 415 139 1;
#X obj 415 166 f;
#X obj 502 141 44.1;
#X obj 188 89 t f b f b;
#X obj 319 205 r \$0-start_ms-num;
#X obj 425 261 *;
#X msg 433 139 0.1;
#X msg 453 139 0.01;
#X msg 473 139 0.001;
#X obj 538 142 4.41;
#X obj 569 141 0.441;
#X obj 624 141 0.0441;
#X obj 411 104 sel 0 1 2 3 4 5 6 7;
#X obj 487 53 * 0.0001;
#X obj 550 51 * 1e-05;
#X obj 610 51 * 1e-06;
#X msg 428 291 set \$1;
#X obj 364 238 f;
#X obj 145 224 / 1;
#X obj 152 252 s \$0-start_ms;
#X text 106 17 comment;
#X obj 48 43 r \$0-start_tweak;
#X obj 34 253 s \$0-start_samples;
#X connect 0 0 21 0;
#X connect 1 0 5 0;
#X connect 1 1 6 0;
#X connect 1 2 7 0;
#X connect 1 3 8 0;
#X connect 1 4 13 0;
#X connect 1 5 14 0;
#X connect 1 6 15 0;
#X connect 1 7 16 0;
#X connect 3 0 36 0;
#X connect 3 0 40 0;
#X connect 4 0 10 0;
#X connect 4 0 11 0;
#X connect 4 0 12 0;
#X connect 4 0 16 1;
#X connect 4 0 29 1;
#X connect 4 0 31 0;
#X connect 4 0 32 0;
#X connect 4 0 33 0;
#X connect 5 0 3 1;
#X connect 5 0 9 0;
#X connect 6 0 3 1;
#X connect 6 0 9 0;
#X connect 7 0 3 1;
#X connect 7 0 9 0;
#X connect 8 0 3 1;
#X connect 8 0 9 0;
#X connect 10 0 13 1;
#X connect 10 0 20 1;
#X connect 10 0 36 1;
#X connect 11 0 14 1;
#X connect 12 0 15 1;
#X connect 13 0 3 1;
#X connect 13 0 9 0;
#X connect 14 0 3 1;
#X connect 14 0 9 0;
#X connect 15 0 3 1;
#X connect 15 0 9 0;
#X connect 16 0 3 1;
#X connect 16 0 9 0;
#X connect 18 0 19 0;
#X connect 19 0 23 1;
#X connect 20 0 19 0;
#X connect 21 0 1 0;
#X connect 21 1 35 0;
#X connect 21 2 30 0;
#X connect 21 3 4 0;
#X connect 22 0 35 0;
#X connect 23 0 34 0;
#X connect 24 0 19 0;
#X connect 25 0 19 0;
#X connect 26 0 19 0;
#X connect 27 0 19 0;
#X connect 28 0 19 0;
#X connect 29 0 19 0;
#X connect 30 0 20 0;
#X connect 30 1 27 0;
#X connect 30 2 28 0;
#X connect 30 3 29 0;
#X connect 30 4 18 0;
#X connect 30 5 24 0;
#X connect 30 6 25 0;
#X connect 30 7 26 0;
#X connect 31 0 27 1;
#X connect 32 0 28 1;
#X connect 33 0 29 0;
#X connect 34 0 2 0;
#X connect 35 0 23 0;
#X connect 36 0 37 0;
#X connect 39 0 3 0;
#X restore 164 27 pd start_convert;
#N canvas 529 429 716 398 length_convert 0;
#X obj 195 55 inlet;
#X obj 168 117 sel 0 1 2 3 4 5 6 7;
#X obj 68 166 *;
#X obj 381 23 samplerate~;
#X msg 165 139 1;
#X msg 183 139 10;
#X msg 203 139 100;
#X msg 223 139 1000;
#X obj 348 174 f;
#X obj 330 62 * 0.001;
#X obj 380 62 * 0.01;
#X obj 430 62 * 0.1;
#X obj 259 141 44.1;
#X obj 289 141 441;
#X obj 319 141 4410;
#X obj 349 141 44100;
#X msg 415 139 1;
#X obj 415 166 f;
#X obj 502 141 44.1;
#X obj 188 89 t f b f b;
#X obj 425 261 *;
#X msg 433 139 0.1;
#X msg 453 139 0.01;
#X msg 473 139 0.001;
#X obj 538 142 4.41;
#X obj 569 141 0.441;
#X obj 624 141 0.0441;
#X obj 411 104 sel 0 1 2 3 4 5 6 7;
#X obj 487 53 * 0.0001;
#X obj 550 51 * 1e-05;
#X obj 610 51 * 1e-06;
#X msg 425 287 set \$1;
#X obj 370 225 f;
#X obj 145 224 / 1;
#X text 106 17 comment;
#X obj 48 43 r \$0-length_tweak;
#X obj 300 202 r \$0-length_ms-num;
#X obj 458 339 s \$0-length_tweak-set;
#X obj 147 321 s \$0-length_ms;
#X obj 224 234 r \$0-file_samples;
#X obj 209 265 >;
#X obj 340 292 f;
#X obj 237 264 sel 1;
#X obj 277 264 del 0;
#X obj 30 242 t b f;
#X obj 32 313 s \$0-end_samples;
#X obj 77 225 +;
#X obj 370 266 f;
#X obj 372 292 *;
#X obj 341 313 -;
#X obj 16 197 r \$0-start_samples;
#X obj 319 262 t b;
#X obj 380 321 /;
#X obj 341 334 i;
#X connect 0 0 19 0;
#X connect 1 0 4 0;
#X connect 1 1 5 0;
#X connect 1 2 6 0;
#X connect 1 3 7 0;
#X connect 1 4 12 0;
#X connect 1 5 13 0;
#X connect 1 6 14 0;
#X connect 1 7 15 0;
#X connect 2 0 33 0;
#X connect 2 0 46 0;
#X connect 2 0 45 0;
#X connect 3 0 9 0;
#X connect 3 0 10 0;
#X connect 3 0 11 0;
#X connect 3 0 15 1;
#X connect 3 0 26 1;
#X connect 3 0 28 0;
#X connect 3 0 29 0;
#X connect 3 0 30 0;
#X connect 4 0 2 1;
#X connect 4 0 8 0;
#X connect 5 0 2 1;
#X connect 5 0 8 0;
#X connect 6 0 2 1;
#X connect 6 0 8 0;
#X connect 7 0 2 1;
#X connect 7 0 8 0;
#X connect 8 0 52 1;
#X connect 9 0 12 1;
#X connect 9 0 18 1;
#X connect 9 0 33 1;
#X connect 10 0 13 1;
#X connect 11 0 14 1;
#X connect 12 0 2 1;
#X connect 12 0 8 0;
#X connect 13 0 2 1;
#X connect 13 0 8 0;
#X connect 14 0 2 1;
#X connect 14 0 8 0;
#X connect 15 0 2 1;
#X connect 15 0 8 0;
#X connect 16 0 17 0;
#X connect 17 0 20 1;
#X connect 17 0 48 1;
#X connect 18 0 17 0;
#X connect 19 0 1 0;
#X connect 19 1 32 0;
#X connect 19 2 27 0;
#X connect 19 3 3 0;
#X connect 20 0 31 0;
#X connect 21 0 17 0;
#X connect 22 0 17 0;
#X connect 23 0 17 0;
#X connect 24 0 17 0;
#X connect 25 0 17 0;
#X connect 26 0 17 0;
#X connect 27 0 18 0;
#X connect 27 1 24 0;
#X connect 27 2 25 0;
#X connect 27 3 26 0;
#X connect 27 4 16 0;
#X connect 27 5 21 0;
#X connect 27 6 22 0;
#X connect 27 7 23 0;
#X connect 28 0 24 1;
#X connect 29 0 25 1;
#X connect 30 0 26 0;
#X connect 31 0 37 0;
#X connect 32 0 20 0;
#X connect 33 0 38 0;
#X connect 35 0 2 0;
#X connect 36 0 32 0;
#X connect 36 0 47 1;
#X connect 39 0 40 1;
#X connect 39 0 41 1;
#X connect 40 0 42 0;
#X connect 41 0 49 0;
#X connect 42 0 43 0;
#X connect 43 0 51 0;
#X connect 44 0 46 0;
#X connect 44 1 46 1;
#X connect 44 1 49 1;
#X connect 46 0 40 0;
#X connect 47 0 48 0;
#X connect 49 0 53 0;
#X connect 50 0 44 0;
#X connect 51 0 41 0;
#X connect 52 0 37 0;
#X connect 53 0 52 0;
#X restore 343 53 pd length_convert;
#X msg 398 243 4;
#X obj 397 275 s \$0-tweak-set;
#X obj 398 218 loadbang;
#X connect 0 0 1 0;
#X connect 0 0 11 0;
#X connect 0 0 12 0;
#X connect 1 0 2 0;
#X connect 1 1 4 0;
#X connect 1 2 3 0;
#X connect 1 3 9 0;
#X connect 1 4 5 0;
#X connect 1 5 7 0;
#X connect 1 6 6 0;
#X connect 1 7 8 0;
#X connect 2 0 10 0;
#X connect 3 0 10 0;
#X connect 4 0 10 0;
#X connect 5 0 10 0;
#X connect 6 0 10 0;
#X connect 7 0 10 0;
#X connect 8 0 10 0;
#X connect 9 0 10 0;
#X connect 13 0 14 0;
#X connect 15 0 13 0;
#X restore 681 298 pd tweak;
#X obj 508 255 s \$0-file_samples;
#X obj 65 236 cnv 12 60 18 empty empty empty 20 12 0 14 -228856 -66577
0;
#X obj 65 250 cnv 12 204 33 empty empty empty 20 12 0 14 -162280 -66577
0;
#N canvas 0 0 450 300 (subpatch) 0;
#X array \$0-sample 619311 float 2;
#X coords 0 1 619311 -1 200 31 1;
#X restore 67 251 graph;
#X obj 189 301 nbx 6 16 0 1e+37 0 0 \$0-start_tweak \$0-start_tweak-set
empty 0 -8 0 14 -142168 -42308 -142168 0 256;
#X obj 189 301 nbx 6 16 0 1e+37 0 0 \$0-start_ms-num \$0-start_ms start
0 -8 0 14 -142168 -42308 -142168 0 256;
#X obj 277 301 nbx 6 16 0 1e+37 0 0 \$0-length_tweak \$0-length_tweak-set
empty 0 -8 0 14 -185827 -86219 -86219 0 256;
#X obj 277 301 nbx 6 16 0 1e+37 0 0 \$0-length_ms-num \$0-length_ms
length 0 -8 0 14 -185827 -86219 -185827 0 256;
#X obj 66 302 hradio 15 1 0 8 \$0-tweak \$0-tweak-set tweak 0 -8 0
10 -96430 -12950 -96430 4;
#X symbolatom 106 286 13 0 0 0 - #0-tweak_label -;
#X obj 272 269 nbx 5 14 0.001 10000 1 0 \$0-speed-num \$0-speed speed
0 -8 0 12 -41679 -146217 -146217 1 256;
#X obj 312 251 nbx 5 14 0 1e+37 0 0 \$0-porta-num £0-porta porta 0
-8 0 12 -45963 -182820 -182820 0 256;
#X obj 337 269 nbx 5 14 -200 1e+37 0 0 \$0-pitch-num £0-pitch pitch
0 21 0 12 -57996 -166125 -166125 0 256;
#X obj 134 236 bng 10 250 50 0 \$0-load_file empty load 12 5 0 10 -128992
-260225 -191407;
#X obj 725 498 exp;
#X floatatom 725 518 0 0 0 0 - - -;
#X obj 725 478 * 0.057762;
#X floatatom 725 459 5 0 0 0 - - -;
#X obj 723 423 r \$0-pitch-num;
#X obj 723 544 s \$0-speed;
#X floatatom 634 490 0 0 0 0 - - -;
#X floatatom 634 431 5 0 0 0 - - -;
#X obj 632 395 r \$0-speed-num;
#X obj 631 560 s \$0-pitch;
#X msg 629 524 set \$1;
#X obj 634 450 log;
#X obj 634 470 / 0.057762;
#X obj 462 317 pack f f;
#X obj 463 345 line~;
#X obj 526 316 r \$0-porta-num;
#X obj 462 284 r \$0-speed;
#X obj 773 182 inlet~;
#X obj 454 368 +~;
#X msg 794 518 1;
#X obj 809 490 loadbang;
#X obj 223 169 bng 15 250 50 0 empty empty empty 17 7 0 10 -262144
-1 -1;
#X obj 177 236 bng 10 150 10 0 \$0-go \$0-playbang play 12 5 0 10 -29960
-106434 -106434;
#X obj 228 236 hradio 10 1 0 3 \$0-loop_mode \$0-loop off 34 5 0 10
-29960 -106434 -106434 0;
#X obj 688 81 r \$0-loop_mode;
#X obj 215 236 tgl 10 0 \$0-play \$0-play-set empty 17 7 0 10 -29960
-106434 -106434 0 1;
#X msg 681 128 loop \$1;
#X obj 327 142 r \$0-play;
#X obj 109 108 s \$0-play-set;
#X obj 434 37 r \$0-go;
#X obj 437 60 t b b;
#X msg 450 82 reset;
#X obj 402 524 outlet~;
#X obj 476 521 outlet~;
#X obj 523 344 r \$0-start_samples;
#X obj 645 346 r \$0-end_samples;
#N canvas 35 186 450 440 automation_out 0;
#X obj 219 60 r \$0-go;
#X msg 220 93 trig;
#X obj 72 79 r \$0-play;
#X obj 109 126 r \$0-speed-num;
#X obj 147 146 r \$0-pitch-num;
#X obj 182 168 r \$0-porta-num;
#X msg 73 159 play \$1;
#X obj 219 194 r \$0-loop_mode;
#X obj 246 226 r \$0-start_samples;
#X obj 296 264 r \$0-end_samples;
#X msg 242 310 starts \$1;
#X msg 314 317 ends \$1;
#X msg 189 264 loop \$1;
#X msg 101 203 speed \$1;
#X msg 112 231 pitch \$1;
#X msg 169 206 porta \$1;
#X obj 39 303 inlet;
#X obj 41 334 prepend file;
#X obj 88 404 outlet;
#X obj 88 380 spigot;
#X msg 205 369 1;
#X obj 251 366 loadbang;
#X msg 335 364 0;
#X obj 290 116 r \$0-looped-bng;
#X msg 287 144 looped;
#X obj 92 29 r \$0-file_samples;
#X msg 91 55 filesize \$1;
#X connect 0 0 1 0;
#X connect 1 0 19 0;
#X connect 2 0 6 0;
#X connect 3 0 13 0;
#X connect 4 0 14 0;
#X connect 5 0 15 0;
#X connect 6 0 19 0;
#X connect 7 0 12 0;
#X connect 8 0 10 0;
#X connect 9 0 11 0;
#X connect 10 0 19 0;
#X connect 11 0 19 0;
#X connect 12 0 19 0;
#X connect 13 0 19 0;
#X connect 14 0 19 0;
#X connect 15 0 19 0;
#X connect 16 0 17 0;
#X connect 17 0 18 0;
#X connect 19 0 18 0;
#X connect 20 0 19 1;
#X connect 21 0 20 0;
#X connect 22 0 19 1;
#X connect 23 0 24 0;
#X connect 24 0 19 0;
#X connect 25 0 26 0;
#X connect 26 0 19 0;
#X restore 752 265 pd automation_out;
#X obj 754 305 outlet;
#X obj 290 235 bng 12 120 10 0 \$0-looped-bng \$0-looped empty 17 7
0 10 -24905 -260097 -1;
#X obj 525 435 s \$0-looped;
#N canvas 5 48 450 300 lbl 0;
#X obj 138 49 r \$0-loop_mode;
#X obj 104 101 sel 0 1 2;
#X msg 98 146 label off;
#X msg 301 219 label loop;
#X obj 320 187 loadbang;
#X obj 95 235 s \$0-loop;
#X msg 165 146 label fwd;
#X msg 229 147 label alt;
#X connect 0 0 1 0;
#X connect 1 0 2 0;
#X connect 1 1 6 0;
#X connect 1 2 7 0;
#X connect 2 0 5 0;
#X connect 3 0 5 0;
#X connect 4 0 3 0;
#X connect 6 0 5 0;
#X connect 7 0 5 0;
#X restore 783 116 pd lbl;
#X connect 0 0 12 0;
#X connect 1 0 3 0;
#X connect 2 0 67 0;
#X connect 2 1 68 0;
#X connect 2 4 74 0;
#X connect 3 0 9 0;
#X connect 4 0 3 0;
#X connect 7 0 21 0;
#X connect 8 0 11 1;
#X connect 9 0 11 0;
#X connect 9 0 71 0;
#X connect 9 1 8 0;
#X connect 10 0 7 0;
#X connect 11 0 10 0;
#X connect 12 0 13 0;
#X connect 12 1 9 0;
#X connect 12 2 63 0;
#X connect 12 3 16 0;
#X connect 12 4 17 0;
#X connect 12 5 18 0;
#X connect 12 6 19 0;
#X connect 14 0 2 0;
#X connect 15 0 14 0;
#X connect 15 1 2 0;
#X connect 35 0 36 0;
#X connect 36 0 40 0;
#X connect 37 0 35 0;
#X connect 38 0 37 0;
#X connect 39 0 38 0;
#X connect 41 0 45 0;
#X connect 42 0 46 0;
#X connect 43 0 42 0;
#X connect 45 0 44 0;
#X connect 46 0 47 0;
#X connect 47 0 41 0;
#X connect 48 0 49 0;
#X connect 49 0 53 0;
#X connect 50 0 48 1;
#X connect 51 0 48 0;
#X connect 52 0 53 1;
#X connect 53 0 2 0;
#X connect 54 0 40 0;
#X connect 55 0 54 0;
#X connect 59 0 61 0;
#X connect 61 0 2 0;
#X connect 62 0 15 0;
#X connect 64 0 65 0;
#X connect 65 0 2 0;
#X connect 65 1 66 0;
#X connect 66 0 2 0;
#X connect 69 0 2 1;
#X connect 70 0 2 2;
#X connect 71 0 72 0;
#X coords 0 -1 1 1 342 96 1 60 230;
