#N canvas 77 142 1222 548 10;
#X declare -lib ekext;
#X obj 964 336 import ekext;
#X obj 47 28 inlet;
#X obj 261 142 msgfile;
#X msg 195 45 read \$1;
#X obj 59 168 random;
#X obj 204 191 route chunks;
#X obj 59 148 t b;
#X obj 65 209 %;
#X obj 65 189 +;
#X msg 236 243 range 0 \$1;
#X obj 234 211 - 1;
#X obj 1061 100 nbx 3 12 0 364 0 0 \$0-offset \$0-offset-set offset
0 -5 0 8 -262144 -1 -1 0 256;
#X obj 1091 100 nbx 3 12 0 365 0 0 \$0-variance \$0-variance-set rndvar
2 -5 0 8 -262144 -1 -1 0 256;
#X msg 271 219 range 0 \$1;
#X msg 199 139 goto \$1;
#X obj 276 39 openpanel;
#X obj 317 146 soundfiler;
#X obj 1069 23 bng 12 250 50 0 \$0-load \$0-load-bng load -4 -5 0 9
-232576 -159808 -45076;
#N canvas 0 22 450 300 (subpatch) 0;
#X array input3 441000 float 2;
#X coords 0 1 441000 -1 300 51 1;
#X restore 884 37 graph;
#X obj 887 92 hsl 51 14 0 10 0 0 \$0-onset_threshold \$0-onset_threshold-set
detect 5 7 0 10 -170560 -4160 -16662 500 1;
#X obj 491 293 r \$0-onset_threshold;
#X obj 317 166 t b b;
#X obj 317 186 tabplay~ input3;
#X obj 288 65 t a b b;
#X msg 165 104 add chunks 0;
#X msg 249 103 clear;
#X obj 493 373 f;
#X obj 493 393 + 1;
#X msg 520 433 goto 0;
#X obj 493 413 t f b;
#X msg 368 395 replace chunks \$1;
#X obj 1124 100 nbx 3 12 0 100 0 0 \$0-reverse_prob \$0-reverse_prob-set
rev 4 -5 0 8 -262144 -1 -1 0 256;
#X obj 1154 100 nbx 3 12 -99 99 0 0 \$0-trans \$0-transpose-set trans
4 -5 0 8 -262144 -1 -1 0 256;
#X obj 116 198 r \$0-offset;
#X obj 236 267 s \$0-offset-set;
#X obj 97 50 r \$0-variance;
#X obj 271 310 s \$0-variance-set;
#X obj 65 481 outlet~;
#X obj 979 100 nbx 4 10 -1e+037 1e+037 0 0 empty empty empty -38 6
0 8 -262144 -1 -1 0 256;
#X obj 979 100 nbx 4 10 -1e+037 1e+037 0 0 \$0-chunks-num \$0-chunks
chunks -1 -5 0 8 -262144 -1 -1 0 256;
#X obj 66 250 t b f;
#X obj 236 8 r \$0-load;
#X obj 1111 321 nbx 5 12 10 99999 1 0 \$0-spdlim \$0-spdlim-set min_spd
5 -4 0 8 -262144 -1 -1 10 256;
#X obj 115 76 r \$0-spdlim;
#X msg 317 126 read -resize \$1 \$2;
#X obj 361 86 symbol input3;
#X obj 316 106 pack s s;
#X obj 1086 23 bng 10 750 50 0 empty \$0-finished empty 0 -6 0 10 -1
-257985 -258113;
#X obj 480 269 s \$0-finished;
#X obj 204 170 route list;
#X obj 133 225 r \$0-chunks;
#X obj 141 172 + 1;
#X obj 868 359 r \$0-trans;
#X obj 868 385 * -1;
#X obj 868 412 s \$0-transpose;
#X obj 887 123 hsl 101 12 0.1 1000 1 0 \$0-attack \$0-attack-set attack
25 6 0 10 -204786 -4034 -13381 2500 1;
#X obj 990 123 nbx 3 12 0 999 0 0 \$0-attack-num \$0-attack empty 0
-6 0 10 -204786 -13381 -1 1 256;
#X obj 1025 123 hsl 101 12 0.1 1000 1 0 \$0-decay \$0-decay-set decay
25 6 0 10 -204786 -4034 -13381 2500 1;
#X obj 1128 123 nbx 3 12 0 999 0 0 \$0-decay-num \$0-decay empty 0
-6 0 10 -204786 -13381 -1 1 256;
#X obj 884 138 tgl 12 0 \$0-monopoly \$0-monopoly-set mono 15 6 0 10
-262144 -1 -1 0 1;
#X obj 162 481 outlet~;
#X obj 65 418 catch~ \$0-left;
#X obj 162 418 catch~ \$0-right;
#N canvas 122 207 597 605 player1~ 0;
#N canvas 10 71 450 300 spigle 0;
#X obj 200 61 inlet;
#X obj 72 61 inlet;
#X obj 74 143 spigot;
#X obj 105 122 == 0;
#X obj 191 146 spigot;
#X obj 79 209 outlet;
#X obj 194 208 outlet;
#X connect 0 0 3 0;
#X connect 0 0 4 1;
#X connect 1 0 2 0;
#X connect 1 0 4 0;
#X connect 2 0 5 0;
#X connect 3 0 2 1;
#X connect 4 0 6 0;
#X restore 36 69 pd spigle;
#X obj 124 11 r \$0-reverse_prob;
#X obj 109 34 random 100;
#X obj 109 54 < 0;
#X obj 162 125 exp;
#X floatatom 162 145 0 0 0 0 - - -;
#X obj 162 105 * 0.057762;
#X floatatom 162 91 5 0 0 2 transpose #0-transpose -;
#X obj 52 362 pack f f f;
#X obj 52 405 line~;
#X msg 52 384 \$1 \, \$2 \$3;
#X obj 52 426 tabread4~ input3;
#X obj 279 13 inlet;
#X obj 367 33 loadbang;
#X obj 195 293 delay 100;
#X obj 422 83 spigot;
#X msg 384 61 1;
#X msg 383 85 0;
#X obj 422 105 outlet;
#X obj 193 247 t b;
#X obj 95 212 *;
#X obj 63 187 +;
#X obj 43 155 t f f;
#X obj 24 207 +;
#X obj 272 395 vline~;
#X floatatom 384 243 5 0 0 0 - - -;
#X floatatom 426 257 5 0 0 0 - - -;
#X obj 315 310 pack f f f f;
#X obj 311 164 -;
#X obj 332 231 -;
#X obj 311 184 t f f;
#X msg 315 330 0 \, 1 \$3 \, 1 \$2 \$3 \, 0 \$4 \$1;
#X obj 52 446 *~;
#X obj 392 202 r \$0-attack-num;
#X obj 427 228 r \$0-decay-num;
#X obj 458 41 sel 0;
#X msg 501 64 0;
#X obj 208 271 spigot;
#X obj 422 61 spigot;
#X obj 75 488 throw~ \$0-right;
#X obj 53 507 throw~ \$0-left;
#X obj 53 468 pan~;
#X obj 255 523 r \$0-pan;
#X obj 240 542 +;
#X obj 357 377 random;
#X obj 390 357 r \$0-pan_variance;
#X obj 357 418 - 45;
#X obj 357 397 * 0.091;
#X floatatom 357 439 5 0 0 0 - - -;
#X floatatom 410 404 5 0 0 0 - - -;
#X obj 410 377 * 0.045;
#X obj 451 423 t b f;
#X obj 410 421 * -1;
#X obj 410 441 +;
#X obj 410 472 moses -45;
#X obj 503 335 moses 0;
#X obj 503 311 r \$0-pan;
#X obj 542 355 t b f;
#X msg 542 372 0;
#X obj 542 390 -;
#X floatatom 451 409 5 0 0 0 - - -;
#X obj 410 489 t b f;
#X obj 410 523 -;
#X floatatom 278 493 5 0 0 0 - - -;
#X msg 410 506 -45;
#X obj 242 488 *;
#X msg 528 418 -1;
#X msg 506 418 1;
#X msg 461 489 0;
#X obj 356 468 +;
#X floatatom 237 571 5 0 0 0 - - -;
#X obj 430 22 t f f;
#X obj 491 12 r \$0-monopoly;
#X obj 38 36 t a b;
#X obj 254 56 spigot;
#X msg 297 81 0;
#X obj 59 112 t f f;
#X msg 297 53 1;
#X obj 255 79 t b;
#X obj 256 103 delay 0;
#X floatatom 114 75 5 0 0 0 - - -;
#X floatatom 163 60 5 0 0 0 - - -;
#X obj 60 92 unpack f f;
#X obj 43 135 unpack f f;
#X obj 532 104 inlet;
#X obj 51 299 +;
#X obj 80 300 +;
#X obj 17 320 moses 0;
#X msg 17 340 0;
#X obj 77 320 moses 0;
#X msg 77 340 0;
#X obj 532 135 outlet;
#X obj 114 234 r \$0-sampup;
#X obj 22 269 * 44.1;
#X obj 80 270 * 44.1;
#X obj 474 160 r \$0-repeat;
#X obj 457 182 / 1;
#X obj 442 132 r \$0-duration;
#X obj 370 151 r \$0-clamp;
#X obj 354 189 == 0;
#X obj 332 211 spigot 1;
#X obj 393 181 spigot;
#X obj 329 269 moses 0;
#X msg 329 290 0;
#X floatatom 408 294 5 0 0 0 - - -;
#X obj 328 250 - 10;
#X connect 0 0 83 0;
#X connect 0 1 82 0;
#X connect 1 0 3 1;
#X connect 2 0 3 0;
#X connect 2 0 81 0;
#X connect 3 0 0 1;
#X connect 3 0 80 0;
#X connect 4 0 5 0;
#X connect 5 0 20 1;
#X connect 6 0 4 0;
#X connect 7 0 6 0;
#X connect 8 0 10 0;
#X connect 9 0 11 0;
#X connect 10 0 9 0;
#X connect 11 0 32 0;
#X connect 12 0 74 0;
#X connect 12 0 38 0;
#X connect 13 0 17 0;
#X connect 13 0 77 0;
#X connect 14 0 17 0;
#X connect 14 0 77 0;
#X connect 15 0 18 0;
#X connect 16 0 15 1;
#X connect 17 0 15 1;
#X connect 19 0 14 0;
#X connect 20 0 8 2;
#X connect 20 0 28 0;
#X connect 20 0 37 0;
#X connect 21 0 94 0;
#X connect 22 0 19 0;
#X connect 22 0 93 0;
#X connect 22 1 21 0;
#X connect 23 0 93 0;
#X connect 24 0 32 1;
#X connect 25 0 27 2;
#X connect 25 0 29 1;
#X connect 26 0 28 1;
#X connect 26 0 27 3;
#X connect 27 0 31 0;
#X connect 28 0 30 0;
#X connect 29 0 105 0;
#X connect 30 0 27 0;
#X connect 30 1 100 0;
#X connect 31 0 24 0;
#X connect 32 0 41 0;
#X connect 33 0 25 0;
#X connect 34 0 26 0;
#X connect 35 0 36 0;
#X connect 35 0 77 0;
#X connect 36 0 14 1;
#X connect 37 0 14 1;
#X connect 38 0 15 0;
#X connect 41 0 40 0;
#X connect 41 1 39 0;
#X connect 42 0 43 1;
#X connect 43 0 41 1;
#X connect 43 0 70 0;
#X connect 44 0 47 0;
#X connect 45 0 44 1;
#X connect 45 0 50 0;
#X connect 46 0 48 0;
#X connect 47 0 46 0;
#X connect 48 0 69 0;
#X connect 49 0 46 1;
#X connect 49 0 52 0;
#X connect 50 0 49 0;
#X connect 51 0 53 0;
#X connect 51 1 53 1;
#X connect 52 0 53 0;
#X connect 53 0 54 0;
#X connect 54 0 61 0;
#X connect 54 1 68 0;
#X connect 55 0 60 0;
#X connect 55 0 67 0;
#X connect 55 1 57 0;
#X connect 55 1 66 0;
#X connect 56 0 55 0;
#X connect 57 0 58 0;
#X connect 57 1 59 1;
#X connect 58 0 59 0;
#X connect 59 0 60 0;
#X connect 60 0 51 0;
#X connect 61 0 64 0;
#X connect 61 1 62 1;
#X connect 62 0 63 0;
#X connect 63 0 65 0;
#X connect 64 0 62 0;
#X connect 65 0 69 1;
#X connect 66 0 65 1;
#X connect 67 0 65 1;
#X connect 68 0 63 0;
#X connect 69 0 43 0;
#X connect 71 0 37 1;
#X connect 71 0 38 1;
#X connect 71 1 35 0;
#X connect 72 0 71 0;
#X connect 73 0 0 0;
#X connect 73 1 2 0;
#X connect 73 1 44 0;
#X connect 74 0 75 0;
#X connect 74 0 73 0;
#X connect 74 0 78 0;
#X connect 75 0 74 1;
#X connect 76 0 23 0;
#X connect 76 0 19 0;
#X connect 76 1 94 0;
#X connect 77 0 74 1;
#X connect 78 0 79 0;
#X connect 79 0 16 0;
#X connect 82 0 76 0;
#X connect 82 1 23 1;
#X connect 82 1 20 0;
#X connect 83 0 22 0;
#X connect 83 1 20 0;
#X connect 83 1 21 1;
#X connect 84 0 85 1;
#X connect 84 0 86 1;
#X connect 84 0 91 0;
#X connect 85 0 87 0;
#X connect 86 0 89 0;
#X connect 87 0 88 0;
#X connect 87 1 8 0;
#X connect 88 0 8 0;
#X connect 89 0 90 0;
#X connect 89 1 8 1;
#X connect 90 0 8 1;
#X connect 92 0 93 1;
#X connect 92 0 94 1;
#X connect 93 0 85 0;
#X connect 94 0 86 0;
#X connect 95 0 96 1;
#X connect 96 0 101 0;
#X connect 97 0 96 0;
#X connect 98 0 99 0;
#X connect 98 0 101 1;
#X connect 99 0 100 1;
#X connect 100 0 29 0;
#X connect 101 0 29 0;
#X connect 102 0 103 0;
#X connect 102 1 27 1;
#X connect 102 1 104 0;
#X connect 103 0 27 1;
#X connect 103 0 104 0;
#X connect 105 0 102 0;
#X restore 48 303 pd player1~;
#X obj 929 137 hsl 91 12 -45 45 0 0 \$0-pan \$0-pan-set pan 38 6 0
10 -203904 -4160 -16662 4500 1;
#X obj 1027 137 hsl 101 12 0 1000 0 0 \$0-pan_variance \$0-pan_variance-set
random 31 6 0 10 -203904 -4160 -16662 0 1;
#N canvas 204 111 601 586 player~ 0;
#N canvas 5 49 450 300 spigle 0;
#X obj 200 61 inlet;
#X obj 72 61 inlet;
#X obj 74 143 spigot;
#X obj 105 122 == 0;
#X obj 191 146 spigot;
#X obj 79 209 outlet;
#X obj 194 208 outlet;
#X connect 0 0 3 0;
#X connect 0 0 4 1;
#X connect 1 0 2 0;
#X connect 1 0 4 0;
#X connect 2 0 5 0;
#X connect 3 0 2 1;
#X connect 4 0 6 0;
#X restore 58 75 pd spigle;
#X obj 131 11 r \$0-reverse_prob;
#X obj 109 34 random 100;
#X obj 109 54 < 0;
#X obj 172 125 exp;
#X floatatom 172 145 0 0 0 0 - - -;
#X obj 172 105 * 0.057762;
#X floatatom 172 91 5 0 0 2 transpose #0-transpose -;
#X obj 52 369 pack f f f;
#X obj 52 403 line~;
#X msg 52 386 \$1 \, \$2 \$3;
#X obj 52 420 tabread4~ input3;
#X obj 290 1 inlet;
#X obj 367 11 loadbang;
#X obj 203 158 delay 100;
#X obj 448 73 spigot;
#X msg 259 24 1;
#X msg 495 73 0;
#X obj 448 125 outlet;
#X obj 203 136 t b;
#X obj 95 212 *;
#X obj 66 227 +;
#X obj 43 155 t f f;
#X obj 16 147 +;
#X floatatom 348 153 5 0 0 0 - - -;
#X obj 315 329 vline~;
#X floatatom 384 243 5 0 0 0 - - -;
#X floatatom 426 257 5 0 0 0 - - -;
#X obj 316 284 pack f f f f;
#X obj 311 194 -;
#X obj 336 253 -;
#X obj 311 219 t f f;
#X msg 315 310 0 \, 1 \$3 \, 1 \$2 \$3 \, 0 \$4 \$1;
#X obj 52 448 *~;
#X obj 392 202 r \$0-attack-num;
#X obj 427 228 r \$0-decay-num;
#X obj 487 34 switch~;
#X obj 74 488 throw~ \$0-right;
#X obj 52 507 throw~ \$0-left;
#X obj 52 468 pan~;
#X obj 255 523 r \$0-pan;
#X obj 240 542 +;
#X obj 357 377 random;
#X obj 390 357 r \$0-pan_variance;
#X obj 357 418 - 45;
#X obj 357 397 * 0.091;
#X floatatom 357 439 5 0 0 0 - - -;
#X floatatom 410 404 5 0 0 0 - - -;
#X obj 410 377 * 0.045;
#X obj 451 423 t b f;
#X obj 410 421 * -1;
#X obj 410 441 +;
#X obj 410 472 moses -45;
#X obj 503 335 moses 0;
#X obj 503 311 r \$0-pan;
#X obj 542 355 t b f;
#X msg 542 372 0;
#X obj 542 390 -;
#X floatatom 451 409 5 0 0 0 - - -;
#X obj 410 489 t b f;
#X obj 410 523 -;
#X floatatom 278 493 5 0 0 0 - - -;
#X msg 410 506 -45;
#X obj 242 488 *;
#X msg 528 418 -1;
#X msg 506 418 1;
#X msg 461 489 0;
#X obj 356 468 +;
#X obj 423 5 r \$0-monopoly;
#X obj 58 52 t a b;
#X obj 213 45 spigot;
#X msg 326 89 0;
#X msg 414 73 1;
#X obj 41 113 t f f;
#X obj 238 66 t b;
#X obj 240 86 delay 0;
#X obj 54 94 unpack f f;
#X obj 43 135 unpack f f;
#X obj 528 106 inlet;
#X obj 47 301 +;
#X obj 76 302 +;
#X obj 13 322 moses 0;
#X msg 13 342 0;
#X obj 73 322 moses 0;
#X msg 73 342 0;
#X obj 528 137 outlet;
#X obj 109 241 r \$0-sampup;
#X obj 24 268 * 44.1;
#X obj 80 269 * 44.1;
#X connect 0 0 77 0;
#X connect 0 1 76 0;
#X connect 1 0 3 1;
#X connect 2 0 3 0;
#X connect 3 0 0 1;
#X connect 4 0 5 0;
#X connect 5 0 20 1;
#X connect 6 0 4 0;
#X connect 7 0 6 0;
#X connect 8 0 10 0;
#X connect 9 0 11 0;
#X connect 10 0 9 0;
#X connect 11 0 33 0;
#X connect 12 0 70 0;
#X connect 12 0 15 0;
#X connect 13 0 17 0;
#X connect 13 0 16 0;
#X connect 14 0 17 0;
#X connect 14 0 16 0;
#X connect 15 0 18 0;
#X connect 16 0 70 1;
#X connect 17 0 15 1;
#X connect 19 0 14 0;
#X connect 20 0 8 2;
#X connect 20 0 29 0;
#X connect 20 0 14 1;
#X connect 21 0 88 0;
#X connect 22 0 19 0;
#X connect 22 0 87 0;
#X connect 22 1 21 0;
#X connect 23 0 87 0;
#X connect 25 0 33 1;
#X connect 26 0 28 2;
#X connect 26 0 30 1;
#X connect 27 0 29 1;
#X connect 27 0 28 3;
#X connect 28 0 32 0;
#X connect 29 0 31 0;
#X connect 30 0 28 1;
#X connect 31 0 28 0;
#X connect 31 1 30 0;
#X connect 32 0 25 0;
#X connect 33 0 39 0;
#X connect 34 0 26 0;
#X connect 35 0 27 0;
#X connect 39 0 38 0;
#X connect 39 1 37 0;
#X connect 40 0 41 1;
#X connect 41 0 39 1;
#X connect 42 0 45 0;
#X connect 43 0 42 1;
#X connect 43 0 48 0;
#X connect 44 0 46 0;
#X connect 45 0 44 0;
#X connect 46 0 67 0;
#X connect 47 0 44 1;
#X connect 47 0 50 0;
#X connect 48 0 47 0;
#X connect 49 0 51 0;
#X connect 49 1 51 1;
#X connect 50 0 51 0;
#X connect 51 0 52 0;
#X connect 52 0 59 0;
#X connect 52 1 66 0;
#X connect 53 0 58 0;
#X connect 53 0 65 0;
#X connect 53 1 55 0;
#X connect 53 1 64 0;
#X connect 54 0 53 0;
#X connect 55 0 56 0;
#X connect 55 1 57 1;
#X connect 56 0 57 0;
#X connect 57 0 58 0;
#X connect 58 0 49 0;
#X connect 59 0 62 0;
#X connect 59 1 60 1;
#X connect 60 0 61 0;
#X connect 61 0 63 0;
#X connect 62 0 60 0;
#X connect 63 0 67 1;
#X connect 64 0 63 1;
#X connect 65 0 63 1;
#X connect 66 0 61 0;
#X connect 67 0 41 0;
#X connect 68 0 36 0;
#X connect 69 0 0 0;
#X connect 69 1 2 0;
#X connect 69 1 42 0;
#X connect 70 0 69 0;
#X connect 70 0 74 0;
#X connect 71 0 70 1;
#X connect 72 0 15 1;
#X connect 73 0 23 0;
#X connect 73 0 19 0;
#X connect 73 1 88 0;
#X connect 74 0 75 0;
#X connect 75 0 71 0;
#X connect 75 0 72 0;
#X connect 76 0 73 0;
#X connect 76 1 23 1;
#X connect 76 1 20 0;
#X connect 77 0 22 0;
#X connect 77 1 20 0;
#X connect 77 1 21 1;
#X connect 78 0 79 1;
#X connect 78 0 80 1;
#X connect 78 0 85 0;
#X connect 79 0 81 0;
#X connect 80 0 83 0;
#X connect 81 0 82 0;
#X connect 81 1 8 0;
#X connect 82 0 8 0;
#X connect 83 0 84 0;
#X connect 83 1 8 1;
#X connect 84 0 8 1;
#X connect 86 0 87 1;
#X connect 86 0 88 1;
#X connect 87 0 79 0;
#X connect 88 0 80 0;
#X restore 48 323 pd player~;
#X msg 414 273 1;
#X msg 446 273 0;
#X obj 935 153 nbx 3 14 0 112 0 0 \$0-volume \$0-volume-set vol -19
6 0 10 -261234 -258113 -86277 100 256;
#X obj 65 439 *~;
#X obj 162 439 *~;
#X obj 278 362 r \$0-volume;
#X obj 278 382 dbtorms;
#X obj 278 402 pack f 30;
#X obj 278 422 line~;
#X obj 27 109 spigot;
#X msg 82 110 0;
#X obj 104 110 delay 100;
#X msg 102 130 1;
#X obj 104 151 loadbang;
#X obj 790 87 bng 12 250 50 0 \$0-loadall \$0-loadall-set loadall -9
-5 0 8 -45076 -232576 -45076;
#X obj 466 76 inlet;
#X obj 337 39 r \$0-preload;
#X obj 135 7 r \$0-postload;
#X obj 466 98 route duration;
#X obj 775 87 bng 12 250 50 0 \$0-saveanal \$0-saveanal-bng save -3
15 0 8 -262144 -159808 -45076;
#N canvas 10 71 450 300 save 0;
#X obj 153 51 stripfilename -4;
#X obj 153 23 inlet;
#X obj 119 193 symbol;
#X obj 55 37 r \$0-saveanal;
#X msg 119 232 write \$1;
#X obj 119 259 outlet;
#X obj 230 130 r \$0-postload;
#X obj 223 213 makesymbol %s.%s;
#X obj 226 158 t a b;
#X obj 314 162 cup;
#X msg 347 163 1;
#X obj 361 131 loadbang;
#X obj 356 98 r \$0-loadall;
#X obj 224 187 pack s f;
#X obj 153 68 makesymbol %s.pchunks;
#X obj 277 43 makesymbol %s.gchunks;
#X obj 348 200 symbol;
#X msg 348 239 write \$1;
#X obj 348 266 outlet;
#X connect 0 0 14 0;
#X connect 0 0 15 0;
#X connect 1 0 0 0;
#X connect 2 0 4 0;
#X connect 3 0 2 0;
#X connect 3 0 16 0;
#X connect 4 0 5 0;
#X connect 6 0 8 0;
#X connect 7 0 2 1;
#X connect 8 0 13 0;
#X connect 8 1 9 0;
#X connect 9 0 13 1;
#X connect 10 0 9 0;
#X connect 12 0 10 0;
#X connect 13 0 7 0;
#X connect 14 0 2 1;
#X connect 15 0 16 1;
#X connect 16 0 17 0;
#X connect 17 0 18 0;
#X restore 234 68 pd save;
#X obj 18 50 spigot;
#X msg 98 29 1;
#X msg 61 50 0;
#X obj 11 70 t b b;
#X obj 11 90 timer;
#X obj 466 169 s \$0-duration;
#X obj 477 146 s \$0-timer_stop;
#X obj 477 123 t b;
#X obj 14 7 r \$0-timer_stop;
#X obj 489 497 s \$0-duration;
#N canvas 140 197 1097 534 automation 0;
#X obj 29 30 inlet;
#X obj 29 450 s \$0-pcomp-set;
#X obj 49 433 s \$0-preset-bng;
#X obj 69 416 s \$0-onset_threshold-set;
#X obj 89 399 s \$0-offset-set;
#X obj 110 382 s \$0-variance-set;
#X obj 150 348 s \$0-transpose-set;
#X obj 171 331 s \$0-spdlim-set;
#X obj 130 365 s \$0-reverse_prob-set;
#X obj 29 51 route pcomp preset thresh offset var reverse trans spd
new attack decay pan panrand monopoly repeat loadall saveanal;
#X obj 191 314 s \$0-load-bng;
#X obj 216 280 s \$0-attack-set;
#X obj 211 260 t f f;
#X obj 231 206 t f f;
#X obj 211 297 s \$0-attack;
#X obj 231 243 s \$0-decay;
#X obj 236 226 s \$0-decay-set;
#X obj 252 189 s \$0-pan-set;
#X obj 272 172 s \$0-pan_variance-set;
#X obj 292 155 s \$0-monopoly-set;
#X obj 313 138 s \$0-repeat-set;
#X obj 333 121 s \$0-loadall-bng;
#X obj 353 104 s \$0-saveanal-bng;
#X obj 386 87 s \$0-rpt_random-set;
#X obj 488 111 s \$0-catches-set;
#X obj 437 128 s \$0-catchit-set;
#X obj 539 171 s \$0-on-set;
#X obj 386 70 route rptrnd catch catches;
#X obj 539 150 route on;
#X obj 552 91 s \$0-preload;
#X obj 552 65 route preload postload record resize clist adoff minlen
;
#X obj 588 334 soundfiler;
#X msg 588 314 read -resize \$1 \$2;
#X obj 588 294 pack s s;
#X obj 540 234 stripfilename -4;
#X obj 540 254 makesymbol analysed/%s.chunks;
#X obj 598 212 t a b;
#X obj 540 274 s \$0-postload;
#X obj 633 274 symbol input3;
#X obj 889 65 route recnow;
#X obj 889 85 s \$0-recnow;
#X obj 785 125 s \$0-addoff-set;
#X obj 832 105 s \$0-min_length-set;
#X obj 692 108 s \$0-resize;
#X obj 718 88 s \$0-clist;
#X obj 645 128 s \$0-record-set;
#X msg 645 108 1;
#X msg 852 44 10;
#X obj 852 24 loadbang;
#X connect 0 0 9 0;
#X connect 9 0 1 0;
#X connect 9 1 2 0;
#X connect 9 2 3 0;
#X connect 9 3 4 0;
#X connect 9 4 5 0;
#X connect 9 5 8 0;
#X connect 9 6 6 0;
#X connect 9 7 7 0;
#X connect 9 8 10 0;
#X connect 9 9 12 0;
#X connect 9 10 13 0;
#X connect 9 11 17 0;
#X connect 9 12 18 0;
#X connect 9 13 19 0;
#X connect 9 14 20 0;
#X connect 9 15 21 0;
#X connect 9 16 22 0;
#X connect 9 17 27 0;
#X connect 12 0 14 0;
#X connect 12 1 11 0;
#X connect 13 0 15 0;
#X connect 13 1 16 0;
#X connect 27 0 23 0;
#X connect 27 1 25 0;
#X connect 27 2 24 0;
#X connect 27 3 28 0;
#X connect 27 3 30 0;
#X connect 28 0 26 0;
#X connect 30 0 29 0;
#X connect 30 1 36 0;
#X connect 30 2 46 0;
#X connect 30 3 43 0;
#X connect 30 4 44 0;
#X connect 30 5 41 0;
#X connect 30 6 42 0;
#X connect 30 7 39 0;
#X connect 32 0 31 0;
#X connect 33 0 32 0;
#X connect 34 0 35 0;
#X connect 35 0 37 0;
#X connect 36 0 34 0;
#X connect 36 0 33 0;
#X connect 36 1 38 0;
#X connect 38 0 33 1;
#X connect 39 0 40 0;
#X connect 46 0 45 0;
#X connect 47 0 42 0;
#X connect 48 0 47 0;
#X restore 515 123 pd automation;
#N canvas 25 137 581 556 rpt 0;
#X obj 181 404 monorhythm;
#X obj 238 355 r \$0-duration;
#X obj 159 144 r \$0-repeat;
#X obj 72 8 inlet;
#X obj 96 182 f;
#X obj 181 184 > 1;
#X obj 136 184 == 1;
#X obj 81 213 spigot;
#X obj 80 513 outlet;
#X obj 249 187 r \$0-rpt_random;
#X obj 200 292 == 0;
#X obj 143 212 spigot;
#X obj 143 271 kalashnikov;
#X obj 143 254 f;
#X obj 224 455 f;
#X obj 167 355 serialize;
#X msg 331 378 nonexclusive;
#X obj 376 354 loadbang;
#X obj 167 309 spigot;
#X msg 167 333 1;
#X obj 232 305 spigot;
#X obj 232 329 random 3;
#X obj 122 340 > 0;
#X obj 142 231 t b f b;
#X obj 128 437 cup;
#X msg 139 382 1;
#X obj 122 357 sel 1;
#X obj 120 409 cup;
#X obj 150 437 >=;
#X obj 150 454 sel 1;
#X msg 168 377 start;
#X text 327 251 this generates a one-time rhythm within;
#X text 327 265 a single beat-pulse. random accentation;
#X text 330 279 may be applied \, so the number of intra-;
#X text 332 292 pulses is counted before starting the;
#X text 327 305 rhythm. this is used to stop the rhythm;
#X text 337 317 at the end \, by counting the intra-pulses;
#X text 337 329 as they happen.;
#X msg 150 471 stop;
#N canvas 30 159 658 369 catch-the-rhythm 0;
#X obj 68 36 inlet;
#X obj 197 37 r \$0-catchit;
#X obj 63 111 spigot;
#X obj 96 91 == 0;
#X obj 275 103 spigot;
#X obj 113 281 sieve;
#X obj 65 134 t b f;
#X obj 92 321 outlet;
#X msg 113 147 0;
#X obj 113 164 cup;
#X obj 123 121 loadbang;
#X obj 155 165 sel 1;
#X obj 155 182 del 0;
#X obj 113 206 pack f f;
#X msg 113 226 set \$1 \$2;
#X msg 275 147 0;
#X obj 275 164 cup;
#X obj 317 165 sel 1;
#X obj 317 182 del 0;
#X obj 224 71 sel 1;
#X obj 219 147 f;
#X obj 219 164 + 32;
#X obj 219 181 -;
#X obj 219 198 % 32;
#X obj 285 127 t b;
#X obj 277 220 +;
#X obj 277 240 % 32;
#X text 405 89 this catches n previous events so;
#X text 408 103 that sequences can be generated;
#X obj 340 38 r \$0-catches;
#X obj 340 60 - 1;
#X obj 155 148 >= 63;
#X obj 317 148 >= 63;
#X connect 0 0 2 0;
#X connect 0 0 4 0;
#X connect 1 0 3 0;
#X connect 1 0 4 1;
#X connect 1 0 19 0;
#X connect 2 0 6 0;
#X connect 3 0 2 1;
#X connect 4 0 24 0;
#X connect 5 1 7 0;
#X connect 6 0 9 0;
#X connect 6 1 7 0;
#X connect 6 1 13 1;
#X connect 8 0 9 0;
#X connect 9 0 13 0;
#X connect 9 0 20 1;
#X connect 9 0 31 0;
#X connect 10 0 8 0;
#X connect 11 0 12 0;
#X connect 12 0 8 0;
#X connect 13 0 14 0;
#X connect 14 0 5 0;
#X connect 15 0 16 0;
#X connect 16 0 25 0;
#X connect 16 0 32 0;
#X connect 17 0 18 0;
#X connect 18 0 15 0;
#X connect 19 0 20 0;
#X connect 19 0 15 0;
#X connect 20 0 21 0;
#X connect 21 0 22 0;
#X connect 22 0 23 0;
#X connect 23 0 25 1;
#X connect 24 0 16 0;
#X connect 25 0 26 0;
#X connect 26 0 5 0;
#X connect 29 0 30 0;
#X connect 30 0 22 1;
#X connect 30 0 32 1;
#X connect 31 0 11 0;
#X connect 32 0 17 0;
#X restore 96 58 pd catch-the-rhythm;
#X obj 267 456 s \$0-rechunks;
#X obj 375 439 outlet;
#X obj 281 417 f;
#X connect 0 0 14 0;
#X connect 0 0 24 0;
#X connect 0 0 40 0;
#X connect 0 1 14 0;
#X connect 0 2 42 0;
#X connect 1 0 0 2;
#X connect 2 0 6 0;
#X connect 2 0 5 0;
#X connect 2 0 13 1;
#X connect 2 0 15 1;
#X connect 3 0 39 0;
#X connect 4 0 7 0;
#X connect 4 0 11 0;
#X connect 5 0 11 1;
#X connect 6 0 7 1;
#X connect 7 0 8 0;
#X connect 7 0 40 0;
#X connect 9 0 10 0;
#X connect 9 0 20 1;
#X connect 10 0 18 1;
#X connect 11 0 23 0;
#X connect 12 0 18 0;
#X connect 12 0 20 0;
#X connect 12 2 30 0;
#X connect 13 0 12 0;
#X connect 14 0 8 0;
#X connect 15 0 0 1;
#X connect 16 0 0 0;
#X connect 17 0 16 0;
#X connect 18 0 19 0;
#X connect 19 0 15 0;
#X connect 19 0 22 0;
#X connect 20 0 21 0;
#X connect 21 0 15 0;
#X connect 21 0 22 0;
#X connect 22 0 26 0;
#X connect 23 0 13 0;
#X connect 23 1 14 1;
#X connect 23 1 42 1;
#X connect 23 2 25 0;
#X connect 24 0 28 0;
#X connect 25 0 24 0;
#X connect 25 0 27 0;
#X connect 26 0 27 0;
#X connect 27 0 28 1;
#X connect 28 0 29 0;
#X connect 29 0 38 0;
#X connect 30 0 0 0;
#X connect 38 0 0 0;
#X connect 39 0 4 0;
#X connect 42 0 41 0;
#X restore 12 170 pd rpt;
#X obj 976 153 tgl 14 0 \$0-catchit \$0-catchit-set <catch> 17 7 0
10 -4160 -257985 -4160 0 1;
#X obj 1037 153 nbx 2 14 1 64 0 0 \$0-catches \$0-catches-set empty
-43 3 0 12 -4160 -262144 -4160 16 256;
#X obj 133 245 moses 1;
#X obj 964 359 r \$0-offset;
#X obj 964 385 t b;
#X obj 964 413 s \$0-variance-set;
#X msg 166 134 this;
#X msg 265 122 print;
#N canvas 45 273 341 359 timers 0;
#X obj 44 42 inlet;
#X obj 55 104 t b b;
#X obj 55 126 timer;
#X floatatom 55 149 5 0 0 0 - - -;
#X msg 163 62 0;
#X obj 163 33 inlet;
#X obj 102 132 timer;
#X msg 188 103 1;
#X obj 82 247 prepend add;
#X obj 82 268 outlet;
#X obj 79 189 swap;
#X msg 149 130 0;
#X obj 236 133 cup;
#X obj 233 164 s \$0-chunks;
#X obj 82 227 pack f f;
#X obj 165 244 prepend add;
#X obj 165 265 outlet;
#X obj 165 224 pack f f 1;
#X obj 143 14 r \$0-min_length;
#X obj 44 71 spigot 1;
#X obj 101 71 delay 10;
#X msg 91 47 0;
#X msg 118 47 1;
#X connect 0 0 19 0;
#X connect 1 0 2 0;
#X connect 1 0 6 1;
#X connect 1 1 2 1;
#X connect 1 1 12 0;
#X connect 1 1 21 0;
#X connect 1 1 20 0;
#X connect 2 0 3 0;
#X connect 3 0 10 0;
#X connect 5 0 4 0;
#X connect 5 0 6 0;
#X connect 5 0 7 0;
#X connect 5 0 11 0;
#X connect 5 0 2 0;
#X connect 6 0 10 1;
#X connect 7 0 12 0;
#X connect 8 0 9 0;
#X connect 10 0 14 0;
#X connect 10 0 17 0;
#X connect 10 1 14 1;
#X connect 10 1 17 1;
#X connect 11 0 10 1;
#X connect 12 0 13 0;
#X connect 14 0 8 0;
#X connect 15 0 16 0;
#X connect 17 0 15 0;
#X connect 18 0 20 1;
#X connect 19 0 1 0;
#X connect 20 0 22 0;
#X connect 21 0 19 1;
#X connect 22 0 19 1;
#X restore 376 354 pd timers;
#X obj 64 230 + 1;
#X obj 513 345 r \$0-chunks;
#X obj 172 265 del 0;
#X obj 172 285 t b;
#X obj 65 460 hip~ 18;
#X obj 162 460 hip~ 18;
#X obj 597 329 r \$0-chunks;
#X obj 741 284 r \$0-rechunks;
#X obj 11 272 s \$0-newchunk;
#X obj 676 328 r \$0-newchunk;
#X obj 710 367 outlet;
#X obj 884 153 tgl 14 0 \$0-on \$0-on-set on 17 7 0 10 -191407 -258113
-86277 1 1;
#X obj 363 455 switch~;
#X obj 363 435 r \$0-on;
#N canvas 5 49 450 300 audio_analyse 0;
#X obj 24 79 inlet~;
#X obj 96 38 inlet;
#X obj 24 243 outlet;
#X obj 192 51 inlet;
#X obj 181 104 switch~;
#X obj 28 161 bonk~;
#X obj 97 58 t f f;
#X obj 126 82 * 10;
#X obj 102 103 pack;
#X msg 119 128 thresh \$1 \$2;
#X obj 176 155 r \$0-spdlim;
#X obj 31 187 t b;
#X msg 170 177 debounce \$1;
#X obj 268 124 r \$0-bonk;
#X obj 95 81 * 7;
#X obj 92 210 bng 15 250 50 0 empty empty empty 17 7 0 10 -262144 -1
-1;
#X connect 0 0 5 0;
#X connect 1 0 6 0;
#X connect 3 0 4 0;
#X connect 5 0 11 0;
#X connect 5 0 15 0;
#X connect 6 0 14 0;
#X connect 6 1 7 0;
#X connect 7 0 8 1;
#X connect 8 0 9 0;
#X connect 9 0 5 0;
#X connect 10 0 12 0;
#X connect 11 0 2 0;
#X connect 12 0 5 0;
#X connect 13 0 5 0;
#X connect 14 0 8 0;
#X restore 390 323 pd audio_analyse;
#X msg 597 350 chunks \$1;
#X msg 679 348 newchunk \$1;
#X msg 741 305 rechunks \$1;
#X floatatom 57 87 5 0 0 0 - - -;
#X obj 612 36 inlet~;
#X obj 623 93 tabwrite~ input3;
#X obj 863 255 t f b;
#X obj 863 275 pack f s;
#X msg 863 295 \; \$2 resize \$1;
#X obj 783 122 bng 10 250 50 0 \$0-anal \$0-anal-bng anal 13 5 0 10
-262144 -258113 -86277;
#X obj 577 156 / 44.1;
#X obj 483 188 delay;
#X obj 372 12 t b b b;
#X obj 632 225 msgfile;
#X msg 701 121 stop;
#X obj 98 284 r \$0-addoff;
#N canvas 0 22 705 321 init 0;
#X obj 193 225 s \$0-onset_threshold-set;
#X msg 274 121 1;
#X obj 116 16 loadbang;
#X obj 276 198 s \$0-pan-set;
#X msg 273 176 0;
#X msg 457 146 0;
#X obj 315 170 s \$0-transpose-set;
#X obj 125 255 s \$0-pan_variance-set;
#X obj 24 244 s \$0-volume-set;
#X obj 299 251 s \$0-monopoly;
#X obj 406 247 s \$0-attack-set;
#X obj 502 247 s \$0-decay-set;
#X obj 455 218 s \$0-repeat-set;
#X obj 554 195 s \$0-rpt_random-set;
#X obj 452 193 s \$0-catchit-set;
#X obj 107 166 s \$0-catches-set;
#X msg 82 220 100;
#X msg 107 146 16;
#X obj 457 39 r \$0-monopoly;
#X obj 457 60 sel 0 1;
#X msg 457 81 label mono;
#X obj 457 108 s \$0-monopoly-set;
#X msg 531 81 label poly;
#X connect 1 0 0 0;
#X connect 1 0 10 0;
#X connect 1 0 11 0;
#X connect 1 0 12 0;
#X connect 2 0 1 0;
#X connect 2 0 4 0;
#X connect 2 0 5 0;
#X connect 2 0 16 0;
#X connect 2 0 17 0;
#X connect 4 0 3 0;
#X connect 4 0 7 0;
#X connect 4 0 9 0;
#X connect 5 0 6 0;
#X connect 5 0 13 0;
#X connect 5 0 14 0;
#X connect 16 0 8 0;
#X connect 17 0 15 0;
#X connect 18 0 19 0;
#X connect 19 0 20 0;
#X connect 19 1 22 0;
#X connect 20 0 21 0;
#X connect 22 0 21 0;
#X restore 363 476 pd init;
#N canvas 204 111 601 586 player~ 0;
#N canvas 5 49 450 300 spigle 0;
#X obj 200 61 inlet;
#X obj 72 61 inlet;
#X obj 74 143 spigot;
#X obj 105 122 == 0;
#X obj 191 146 spigot;
#X obj 79 209 outlet;
#X obj 194 208 outlet;
#X connect 0 0 3 0;
#X connect 0 0 4 1;
#X connect 1 0 2 0;
#X connect 1 0 4 0;
#X connect 2 0 5 0;
#X connect 3 0 2 1;
#X connect 4 0 6 0;
#X restore 58 75 pd spigle;
#X obj 131 11 r \$0-reverse_prob;
#X obj 109 34 random 100;
#X obj 109 54 < 0;
#X obj 172 125 exp;
#X floatatom 172 145 0 0 0 0 - - -;
#X obj 172 105 * 0.057762;
#X floatatom 172 91 5 0 0 2 transpose #0-transpose -;
#X obj 52 369 pack f f f;
#X obj 52 403 line~;
#X msg 52 386 \$1 \, \$2 \$3;
#X obj 52 420 tabread4~ input3;
#X obj 290 1 inlet;
#X obj 367 11 loadbang;
#X obj 203 158 delay 100;
#X obj 448 73 spigot;
#X msg 259 24 1;
#X msg 495 73 0;
#X obj 448 125 outlet;
#X obj 203 136 t b;
#X obj 95 212 *;
#X obj 66 227 +;
#X obj 43 155 t f f;
#X obj 16 147 +;
#X floatatom 348 153 5 0 0 0 - - -;
#X obj 315 329 vline~;
#X floatatom 384 243 5 0 0 0 - - -;
#X floatatom 426 257 5 0 0 0 - - -;
#X obj 316 284 pack f f f f;
#X obj 311 194 -;
#X obj 336 253 -;
#X obj 311 219 t f f;
#X msg 315 310 0 \, 1 \$3 \, 1 \$2 \$3 \, 0 \$4 \$1;
#X obj 52 448 *~;
#X obj 392 202 r \$0-attack-num;
#X obj 427 228 r \$0-decay-num;
#X obj 487 34 switch~;
#X obj 74 488 throw~ \$0-right;
#X obj 52 507 throw~ \$0-left;
#X obj 52 468 pan~;
#X obj 255 523 r \$0-pan;
#X obj 240 542 +;
#X obj 357 377 random;
#X obj 390 357 r \$0-pan_variance;
#X obj 357 418 - 45;
#X obj 357 397 * 0.091;
#X floatatom 357 439 5 0 0 0 - - -;
#X floatatom 410 404 5 0 0 0 - - -;
#X obj 410 377 * 0.045;
#X obj 451 423 t b f;
#X obj 410 421 * -1;
#X obj 410 441 +;
#X obj 410 472 moses -45;
#X obj 503 335 moses 0;
#X obj 503 311 r \$0-pan;
#X obj 542 355 t b f;
#X msg 542 372 0;
#X obj 542 390 -;
#X floatatom 451 409 5 0 0 0 - - -;
#X obj 410 489 t b f;
#X obj 410 523 -;
#X floatatom 278 493 5 0 0 0 - - -;
#X msg 410 506 -45;
#X obj 242 488 *;
#X msg 528 418 -1;
#X msg 506 418 1;
#X msg 461 489 0;
#X obj 356 468 +;
#X obj 423 5 r \$0-monopoly;
#X obj 58 52 t a b;
#X obj 213 45 spigot;
#X msg 326 89 0;
#X msg 414 73 1;
#X obj 41 113 t f f;
#X obj 238 66 t b;
#X obj 240 86 delay 0;
#X obj 54 94 unpack f f;
#X obj 43 135 unpack f f;
#X obj 528 106 inlet;
#X obj 47 301 +;
#X obj 76 302 +;
#X obj 13 322 moses 0;
#X msg 13 342 0;
#X obj 73 322 moses 0;
#X msg 73 342 0;
#X obj 528 137 outlet;
#X obj 109 241 r \$0-sampup;
#X obj 24 268 * 44.1;
#X obj 80 269 * 44.1;
#X connect 0 0 77 0;
#X connect 0 1 76 0;
#X connect 1 0 3 1;
#X connect 2 0 3 0;
#X connect 3 0 0 1;
#X connect 4 0 5 0;
#X connect 5 0 20 1;
#X connect 6 0 4 0;
#X connect 7 0 6 0;
#X connect 8 0 10 0;
#X connect 9 0 11 0;
#X connect 10 0 9 0;
#X connect 11 0 33 0;
#X connect 12 0 70 0;
#X connect 12 0 15 0;
#X connect 13 0 17 0;
#X connect 13 0 16 0;
#X connect 14 0 17 0;
#X connect 14 0 16 0;
#X connect 15 0 18 0;
#X connect 16 0 70 1;
#X connect 17 0 15 1;
#X connect 19 0 14 0;
#X connect 20 0 8 2;
#X connect 20 0 29 0;
#X connect 20 0 14 1;
#X connect 21 0 88 0;
#X connect 22 0 19 0;
#X connect 22 0 87 0;
#X connect 22 1 21 0;
#X connect 23 0 87 0;
#X connect 25 0 33 1;
#X connect 26 0 28 2;
#X connect 26 0 30 1;
#X connect 27 0 29 1;
#X connect 27 0 28 3;
#X connect 28 0 32 0;
#X connect 29 0 31 0;
#X connect 30 0 28 1;
#X connect 31 0 28 0;
#X connect 31 1 30 0;
#X connect 32 0 25 0;
#X connect 33 0 39 0;
#X connect 34 0 26 0;
#X connect 35 0 27 0;
#X connect 39 0 38 0;
#X connect 39 1 37 0;
#X connect 40 0 41 1;
#X connect 41 0 39 1;
#X connect 42 0 45 0;
#X connect 43 0 42 1;
#X connect 43 0 48 0;
#X connect 44 0 46 0;
#X connect 45 0 44 0;
#X connect 46 0 67 0;
#X connect 47 0 44 1;
#X connect 47 0 50 0;
#X connect 48 0 47 0;
#X connect 49 0 51 0;
#X connect 49 1 51 1;
#X connect 50 0 51 0;
#X connect 51 0 52 0;
#X connect 52 0 59 0;
#X connect 52 1 66 0;
#X connect 53 0 58 0;
#X connect 53 0 65 0;
#X connect 53 1 55 0;
#X connect 53 1 64 0;
#X connect 54 0 53 0;
#X connect 55 0 56 0;
#X connect 55 1 57 1;
#X connect 56 0 57 0;
#X connect 57 0 58 0;
#X connect 58 0 49 0;
#X connect 59 0 62 0;
#X connect 59 1 60 1;
#X connect 60 0 61 0;
#X connect 61 0 63 0;
#X connect 62 0 60 0;
#X connect 63 0 67 1;
#X connect 64 0 63 1;
#X connect 65 0 63 1;
#X connect 66 0 61 0;
#X connect 67 0 41 0;
#X connect 68 0 36 0;
#X connect 69 0 0 0;
#X connect 69 1 2 0;
#X connect 69 1 42 0;
#X connect 70 0 69 0;
#X connect 70 0 74 0;
#X connect 71 0 70 1;
#X connect 72 0 15 1;
#X connect 73 0 23 0;
#X connect 73 0 19 0;
#X connect 73 1 88 0;
#X connect 74 0 75 0;
#X connect 75 0 71 0;
#X connect 75 0 72 0;
#X connect 76 0 73 0;
#X connect 76 1 23 1;
#X connect 76 1 20 0;
#X connect 77 0 22 0;
#X connect 77 1 20 0;
#X connect 77 1 21 1;
#X connect 78 0 79 1;
#X connect 78 0 80 1;
#X connect 78 0 85 0;
#X connect 79 0 81 0;
#X connect 80 0 83 0;
#X connect 81 0 82 0;
#X connect 81 1 8 0;
#X connect 82 0 8 0;
#X connect 83 0 84 0;
#X connect 83 1 8 1;
#X connect 84 0 8 1;
#X connect 86 0 87 1;
#X connect 86 0 88 1;
#X connect 87 0 79 0;
#X connect 88 0 80 0;
#X restore 48 343 pd player~;
#N canvas 204 111 601 586 player~ 0;
#N canvas 5 49 450 300 spigle 0;
#X obj 200 61 inlet;
#X obj 72 61 inlet;
#X obj 74 143 spigot;
#X obj 105 122 == 0;
#X obj 191 146 spigot;
#X obj 79 209 outlet;
#X obj 194 208 outlet;
#X connect 0 0 3 0;
#X connect 0 0 4 1;
#X connect 1 0 2 0;
#X connect 1 0 4 0;
#X connect 2 0 5 0;
#X connect 3 0 2 1;
#X connect 4 0 6 0;
#X restore 58 75 pd spigle;
#X obj 131 11 r \$0-reverse_prob;
#X obj 109 34 random 100;
#X obj 109 54 < 0;
#X obj 172 125 exp;
#X floatatom 172 145 0 0 0 0 - - -;
#X obj 172 105 * 0.057762;
#X floatatom 172 91 5 0 0 2 transpose #0-transpose -;
#X obj 52 369 pack f f f;
#X obj 52 403 line~;
#X msg 52 386 \$1 \, \$2 \$3;
#X obj 52 420 tabread4~ input3;
#X obj 290 1 inlet;
#X obj 367 11 loadbang;
#X obj 203 158 delay 100;
#X obj 448 73 spigot;
#X msg 259 24 1;
#X msg 495 73 0;
#X obj 448 125 outlet;
#X obj 203 136 t b;
#X obj 95 212 *;
#X obj 66 227 +;
#X obj 43 155 t f f;
#X obj 16 147 +;
#X floatatom 348 153 5 0 0 0 - - -;
#X obj 315 329 vline~;
#X floatatom 384 243 5 0 0 0 - - -;
#X floatatom 426 257 5 0 0 0 - - -;
#X obj 316 284 pack f f f f;
#X obj 311 194 -;
#X obj 336 253 -;
#X obj 311 219 t f f;
#X msg 315 310 0 \, 1 \$3 \, 1 \$2 \$3 \, 0 \$4 \$1;
#X obj 52 448 *~;
#X obj 392 202 r \$0-attack-num;
#X obj 427 228 r \$0-decay-num;
#X obj 487 34 switch~;
#X obj 74 488 throw~ \$0-right;
#X obj 52 507 throw~ \$0-left;
#X obj 52 468 pan~;
#X obj 255 523 r \$0-pan;
#X obj 240 542 +;
#X obj 357 377 random;
#X obj 390 357 r \$0-pan_variance;
#X obj 357 418 - 45;
#X obj 357 397 * 0.091;
#X floatatom 357 439 5 0 0 0 - - -;
#X floatatom 410 404 5 0 0 0 - - -;
#X obj 410 377 * 0.045;
#X obj 451 423 t b f;
#X obj 410 421 * -1;
#X obj 410 441 +;
#X obj 410 472 moses -45;
#X obj 503 335 moses 0;
#X obj 503 311 r \$0-pan;
#X obj 542 355 t b f;
#X msg 542 372 0;
#X obj 542 390 -;
#X floatatom 451 409 5 0 0 0 - - -;
#X obj 410 489 t b f;
#X obj 410 523 -;
#X floatatom 278 493 5 0 0 0 - - -;
#X msg 410 506 -45;
#X obj 242 488 *;
#X msg 528 418 -1;
#X msg 506 418 1;
#X msg 461 489 0;
#X obj 356 468 +;
#X obj 423 5 r \$0-monopoly;
#X obj 58 52 t a b;
#X obj 213 45 spigot;
#X msg 326 89 0;
#X msg 414 73 1;
#X obj 41 113 t f f;
#X obj 238 66 t b;
#X obj 240 86 delay 0;
#X obj 54 94 unpack f f;
#X obj 43 135 unpack f f;
#X obj 528 106 inlet;
#X obj 47 301 +;
#X obj 76 302 +;
#X obj 13 322 moses 0;
#X msg 13 342 0;
#X obj 73 322 moses 0;
#X msg 73 342 0;
#X obj 528 137 outlet;
#X obj 109 241 r \$0-sampup;
#X obj 24 268 * 44.1;
#X obj 80 269 * 44.1;
#X connect 0 0 77 0;
#X connect 0 1 76 0;
#X connect 1 0 3 1;
#X connect 2 0 3 0;
#X connect 3 0 0 1;
#X connect 4 0 5 0;
#X connect 5 0 20 1;
#X connect 6 0 4 0;
#X connect 7 0 6 0;
#X connect 8 0 10 0;
#X connect 9 0 11 0;
#X connect 10 0 9 0;
#X connect 11 0 33 0;
#X connect 12 0 70 0;
#X connect 12 0 15 0;
#X connect 13 0 17 0;
#X connect 13 0 16 0;
#X connect 14 0 17 0;
#X connect 14 0 16 0;
#X connect 15 0 18 0;
#X connect 16 0 70 1;
#X connect 17 0 15 1;
#X connect 19 0 14 0;
#X connect 20 0 8 2;
#X connect 20 0 29 0;
#X connect 20 0 14 1;
#X connect 21 0 88 0;
#X connect 22 0 19 0;
#X connect 22 0 87 0;
#X connect 22 1 21 0;
#X connect 23 0 87 0;
#X connect 25 0 33 1;
#X connect 26 0 28 2;
#X connect 26 0 30 1;
#X connect 27 0 29 1;
#X connect 27 0 28 3;
#X connect 28 0 32 0;
#X connect 29 0 31 0;
#X connect 30 0 28 1;
#X connect 31 0 28 0;
#X connect 31 1 30 0;
#X connect 32 0 25 0;
#X connect 33 0 39 0;
#X connect 34 0 26 0;
#X connect 35 0 27 0;
#X connect 39 0 38 0;
#X connect 39 1 37 0;
#X connect 40 0 41 1;
#X connect 41 0 39 1;
#X connect 42 0 45 0;
#X connect 43 0 42 1;
#X connect 43 0 48 0;
#X connect 44 0 46 0;
#X connect 45 0 44 0;
#X connect 46 0 67 0;
#X connect 47 0 44 1;
#X connect 47 0 50 0;
#X connect 48 0 47 0;
#X connect 49 0 51 0;
#X connect 49 1 51 1;
#X connect 50 0 51 0;
#X connect 51 0 52 0;
#X connect 52 0 59 0;
#X connect 52 1 66 0;
#X connect 53 0 58 0;
#X connect 53 0 65 0;
#X connect 53 1 55 0;
#X connect 53 1 64 0;
#X connect 54 0 53 0;
#X connect 55 0 56 0;
#X connect 55 1 57 1;
#X connect 56 0 57 0;
#X connect 57 0 58 0;
#X connect 58 0 49 0;
#X connect 59 0 62 0;
#X connect 59 1 60 1;
#X connect 60 0 61 0;
#X connect 61 0 63 0;
#X connect 62 0 60 0;
#X connect 63 0 67 1;
#X connect 64 0 63 1;
#X connect 65 0 63 1;
#X connect 66 0 61 0;
#X connect 67 0 41 0;
#X connect 68 0 36 0;
#X connect 69 0 0 0;
#X connect 69 1 2 0;
#X connect 69 1 42 0;
#X connect 70 0 69 0;
#X connect 70 0 74 0;
#X connect 71 0 70 1;
#X connect 72 0 15 1;
#X connect 73 0 23 0;
#X connect 73 0 19 0;
#X connect 73 1 88 0;
#X connect 74 0 75 0;
#X connect 75 0 71 0;
#X connect 75 0 72 0;
#X connect 76 0 73 0;
#X connect 76 1 23 1;
#X connect 76 1 20 0;
#X connect 77 0 22 0;
#X connect 77 1 20 0;
#X connect 77 1 21 1;
#X connect 78 0 79 1;
#X connect 78 0 80 1;
#X connect 78 0 85 0;
#X connect 79 0 81 0;
#X connect 80 0 83 0;
#X connect 81 0 82 0;
#X connect 81 1 8 0;
#X connect 82 0 8 0;
#X connect 83 0 84 0;
#X connect 83 1 8 1;
#X connect 84 0 8 1;
#X connect 86 0 87 1;
#X connect 86 0 88 1;
#X connect 87 0 79 0;
#X connect 88 0 80 0;
#X restore 48 363 pd player~;
#N canvas 204 111 601 586 player~ 0;
#N canvas 5 49 450 300 spigle 0;
#X obj 200 61 inlet;
#X obj 72 61 inlet;
#X obj 74 143 spigot;
#X obj 105 122 == 0;
#X obj 191 146 spigot;
#X obj 79 209 outlet;
#X obj 194 208 outlet;
#X connect 0 0 3 0;
#X connect 0 0 4 1;
#X connect 1 0 2 0;
#X connect 1 0 4 0;
#X connect 2 0 5 0;
#X connect 3 0 2 1;
#X connect 4 0 6 0;
#X restore 58 75 pd spigle;
#X obj 131 11 r \$0-reverse_prob;
#X obj 109 34 random 100;
#X obj 109 54 < 0;
#X obj 172 125 exp;
#X floatatom 172 145 0 0 0 0 - - -;
#X obj 172 105 * 0.057762;
#X floatatom 172 91 5 0 0 2 transpose #0-transpose -;
#X obj 52 369 pack f f f;
#X obj 52 403 line~;
#X msg 52 386 \$1 \, \$2 \$3;
#X obj 52 420 tabread4~ input3;
#X obj 290 1 inlet;
#X obj 367 11 loadbang;
#X obj 203 158 delay 100;
#X obj 448 73 spigot;
#X msg 259 24 1;
#X msg 495 73 0;
#X obj 448 125 outlet;
#X obj 203 136 t b;
#X obj 95 212 *;
#X obj 66 227 +;
#X obj 43 155 t f f;
#X obj 16 147 +;
#X floatatom 348 153 5 0 0 0 - - -;
#X obj 315 329 vline~;
#X floatatom 384 243 5 0 0 0 - - -;
#X floatatom 426 257 5 0 0 0 - - -;
#X obj 316 284 pack f f f f;
#X obj 311 194 -;
#X obj 336 253 -;
#X obj 311 219 t f f;
#X msg 315 310 0 \, 1 \$3 \, 1 \$2 \$3 \, 0 \$4 \$1;
#X obj 52 448 *~;
#X obj 392 202 r \$0-attack-num;
#X obj 427 228 r \$0-decay-num;
#X obj 487 34 switch~;
#X obj 74 488 throw~ \$0-right;
#X obj 52 507 throw~ \$0-left;
#X obj 52 468 pan~;
#X obj 255 523 r \$0-pan;
#X obj 240 542 +;
#X obj 357 377 random;
#X obj 390 357 r \$0-pan_variance;
#X obj 357 418 - 45;
#X obj 357 397 * 0.091;
#X floatatom 357 439 5 0 0 0 - - -;
#X floatatom 410 404 5 0 0 0 - - -;
#X obj 410 377 * 0.045;
#X obj 451 423 t b f;
#X obj 410 421 * -1;
#X obj 410 441 +;
#X obj 410 472 moses -45;
#X obj 503 335 moses 0;
#X obj 503 311 r \$0-pan;
#X obj 542 355 t b f;
#X msg 542 372 0;
#X obj 542 390 -;
#X floatatom 451 409 5 0 0 0 - - -;
#X obj 410 489 t b f;
#X obj 410 523 -;
#X floatatom 278 493 5 0 0 0 - - -;
#X msg 410 506 -45;
#X obj 242 488 *;
#X msg 528 418 -1;
#X msg 506 418 1;
#X msg 461 489 0;
#X obj 356 468 +;
#X obj 423 5 r \$0-monopoly;
#X obj 58 52 t a b;
#X obj 213 45 spigot;
#X msg 326 89 0;
#X msg 414 73 1;
#X obj 41 113 t f f;
#X obj 238 66 t b;
#X obj 240 86 delay 0;
#X obj 54 94 unpack f f;
#X obj 43 135 unpack f f;
#X obj 528 106 inlet;
#X obj 47 301 +;
#X obj 76 302 +;
#X obj 13 322 moses 0;
#X msg 13 342 0;
#X obj 73 322 moses 0;
#X msg 73 342 0;
#X obj 528 137 outlet;
#X obj 109 241 r \$0-sampup;
#X obj 24 268 * 44.1;
#X obj 80 269 * 44.1;
#X connect 0 0 77 0;
#X connect 0 1 76 0;
#X connect 1 0 3 1;
#X connect 2 0 3 0;
#X connect 3 0 0 1;
#X connect 4 0 5 0;
#X connect 5 0 20 1;
#X connect 6 0 4 0;
#X connect 7 0 6 0;
#X connect 8 0 10 0;
#X connect 9 0 11 0;
#X connect 10 0 9 0;
#X connect 11 0 33 0;
#X connect 12 0 70 0;
#X connect 12 0 15 0;
#X connect 13 0 17 0;
#X connect 13 0 16 0;
#X connect 14 0 17 0;
#X connect 14 0 16 0;
#X connect 15 0 18 0;
#X connect 16 0 70 1;
#X connect 17 0 15 1;
#X connect 19 0 14 0;
#X connect 20 0 8 2;
#X connect 20 0 29 0;
#X connect 20 0 14 1;
#X connect 21 0 88 0;
#X connect 22 0 19 0;
#X connect 22 0 87 0;
#X connect 22 1 21 0;
#X connect 23 0 87 0;
#X connect 25 0 33 1;
#X connect 26 0 28 2;
#X connect 26 0 30 1;
#X connect 27 0 29 1;
#X connect 27 0 28 3;
#X connect 28 0 32 0;
#X connect 29 0 31 0;
#X connect 30 0 28 1;
#X connect 31 0 28 0;
#X connect 31 1 30 0;
#X connect 32 0 25 0;
#X connect 33 0 39 0;
#X connect 34 0 26 0;
#X connect 35 0 27 0;
#X connect 39 0 38 0;
#X connect 39 1 37 0;
#X connect 40 0 41 1;
#X connect 41 0 39 1;
#X connect 42 0 45 0;
#X connect 43 0 42 1;
#X connect 43 0 48 0;
#X connect 44 0 46 0;
#X connect 45 0 44 0;
#X connect 46 0 67 0;
#X connect 47 0 44 1;
#X connect 47 0 50 0;
#X connect 48 0 47 0;
#X connect 49 0 51 0;
#X connect 49 1 51 1;
#X connect 50 0 51 0;
#X connect 51 0 52 0;
#X connect 52 0 59 0;
#X connect 52 1 66 0;
#X connect 53 0 58 0;
#X connect 53 0 65 0;
#X connect 53 1 55 0;
#X connect 53 1 64 0;
#X connect 54 0 53 0;
#X connect 55 0 56 0;
#X connect 55 1 57 1;
#X connect 56 0 57 0;
#X connect 57 0 58 0;
#X connect 58 0 49 0;
#X connect 59 0 62 0;
#X connect 59 1 60 1;
#X connect 60 0 61 0;
#X connect 61 0 63 0;
#X connect 62 0 60 0;
#X connect 63 0 67 1;
#X connect 64 0 63 1;
#X connect 65 0 63 1;
#X connect 66 0 61 0;
#X connect 67 0 41 0;
#X connect 68 0 36 0;
#X connect 69 0 0 0;
#X connect 69 1 2 0;
#X connect 69 1 42 0;
#X connect 70 0 69 0;
#X connect 70 0 74 0;
#X connect 71 0 70 1;
#X connect 72 0 15 1;
#X connect 73 0 23 0;
#X connect 73 0 19 0;
#X connect 73 1 88 0;
#X connect 74 0 75 0;
#X connect 75 0 71 0;
#X connect 75 0 72 0;
#X connect 76 0 73 0;
#X connect 76 1 23 1;
#X connect 76 1 20 0;
#X connect 77 0 22 0;
#X connect 77 1 20 0;
#X connect 77 1 21 1;
#X connect 78 0 79 1;
#X connect 78 0 80 1;
#X connect 78 0 85 0;
#X connect 79 0 81 0;
#X connect 80 0 83 0;
#X connect 81 0 82 0;
#X connect 81 1 8 0;
#X connect 82 0 8 0;
#X connect 83 0 84 0;
#X connect 83 1 8 1;
#X connect 84 0 8 1;
#X connect 86 0 87 1;
#X connect 86 0 88 1;
#X connect 87 0 79 0;
#X connect 88 0 80 0;
#X restore 48 383 pd player~;
#N canvas 204 111 601 586 player~ 0;
#N canvas 5 49 450 300 spigle 0;
#X obj 200 61 inlet;
#X obj 72 61 inlet;
#X obj 74 143 spigot;
#X obj 105 122 == 0;
#X obj 191 146 spigot;
#X obj 79 209 outlet;
#X obj 194 208 outlet;
#X connect 0 0 3 0;
#X connect 0 0 4 1;
#X connect 1 0 2 0;
#X connect 1 0 4 0;
#X connect 2 0 5 0;
#X connect 3 0 2 1;
#X connect 4 0 6 0;
#X restore 58 75 pd spigle;
#X obj 131 11 r \$0-reverse_prob;
#X obj 109 34 random 100;
#X obj 109 54 < 0;
#X obj 172 125 exp;
#X floatatom 172 145 0 0 0 0 - - -;
#X obj 172 105 * 0.057762;
#X floatatom 172 91 5 0 0 2 transpose #0-transpose -;
#X obj 52 369 pack f f f;
#X obj 52 403 line~;
#X msg 52 386 \$1 \, \$2 \$3;
#X obj 52 420 tabread4~ input3;
#X obj 290 1 inlet;
#X obj 367 11 loadbang;
#X obj 203 158 delay 100;
#X obj 448 73 spigot;
#X msg 259 24 1;
#X msg 495 73 0;
#X obj 448 125 outlet;
#X obj 203 136 t b;
#X obj 95 212 *;
#X obj 66 227 +;
#X obj 43 155 t f f;
#X obj 16 147 +;
#X floatatom 348 153 5 0 0 0 - - -;
#X obj 315 329 vline~;
#X floatatom 384 243 5 0 0 0 - - -;
#X floatatom 426 257 5 0 0 0 - - -;
#X obj 316 284 pack f f f f;
#X obj 311 194 -;
#X obj 336 253 -;
#X obj 311 219 t f f;
#X msg 315 310 0 \, 1 \$3 \, 1 \$2 \$3 \, 0 \$4 \$1;
#X obj 52 448 *~;
#X obj 392 202 r \$0-attack-num;
#X obj 427 228 r \$0-decay-num;
#X obj 487 34 switch~;
#X obj 74 488 throw~ \$0-right;
#X obj 52 507 throw~ \$0-left;
#X obj 52 468 pan~;
#X obj 255 523 r \$0-pan;
#X obj 240 542 +;
#X obj 357 377 random;
#X obj 390 357 r \$0-pan_variance;
#X obj 357 418 - 45;
#X obj 357 397 * 0.091;
#X floatatom 357 439 5 0 0 0 - - -;
#X floatatom 410 404 5 0 0 0 - - -;
#X obj 410 377 * 0.045;
#X obj 451 423 t b f;
#X obj 410 421 * -1;
#X obj 410 441 +;
#X obj 410 472 moses -45;
#X obj 503 335 moses 0;
#X obj 503 311 r \$0-pan;
#X obj 542 355 t b f;
#X msg 542 372 0;
#X obj 542 390 -;
#X floatatom 451 409 5 0 0 0 - - -;
#X obj 410 489 t b f;
#X obj 410 523 -;
#X floatatom 278 493 5 0 0 0 - - -;
#X msg 410 506 -45;
#X obj 242 488 *;
#X msg 528 418 -1;
#X msg 506 418 1;
#X msg 461 489 0;
#X obj 356 468 +;
#X obj 423 5 r \$0-monopoly;
#X obj 58 52 t a b;
#X obj 213 45 spigot;
#X msg 326 89 0;
#X msg 414 73 1;
#X obj 41 113 t f f;
#X obj 238 66 t b;
#X obj 240 86 delay 0;
#X obj 54 94 unpack f f;
#X obj 43 135 unpack f f;
#X obj 528 106 inlet;
#X obj 47 301 +;
#X obj 76 302 +;
#X obj 13 322 moses 0;
#X msg 13 342 0;
#X obj 73 322 moses 0;
#X msg 73 342 0;
#X obj 528 137 outlet;
#X obj 109 241 r \$0-sampup;
#X obj 24 268 * 44.1;
#X obj 80 269 * 44.1;
#X connect 0 0 77 0;
#X connect 0 1 76 0;
#X connect 1 0 3 1;
#X connect 2 0 3 0;
#X connect 3 0 0 1;
#X connect 4 0 5 0;
#X connect 5 0 20 1;
#X connect 6 0 4 0;
#X connect 7 0 6 0;
#X connect 8 0 10 0;
#X connect 9 0 11 0;
#X connect 10 0 9 0;
#X connect 11 0 33 0;
#X connect 12 0 70 0;
#X connect 12 0 15 0;
#X connect 13 0 17 0;
#X connect 13 0 16 0;
#X connect 14 0 17 0;
#X connect 14 0 16 0;
#X connect 15 0 18 0;
#X connect 16 0 70 1;
#X connect 17 0 15 1;
#X connect 19 0 14 0;
#X connect 20 0 8 2;
#X connect 20 0 29 0;
#X connect 20 0 14 1;
#X connect 21 0 88 0;
#X connect 22 0 19 0;
#X connect 22 0 87 0;
#X connect 22 1 21 0;
#X connect 23 0 87 0;
#X connect 25 0 33 1;
#X connect 26 0 28 2;
#X connect 26 0 30 1;
#X connect 27 0 29 1;
#X connect 27 0 28 3;
#X connect 28 0 32 0;
#X connect 29 0 31 0;
#X connect 30 0 28 1;
#X connect 31 0 28 0;
#X connect 31 1 30 0;
#X connect 32 0 25 0;
#X connect 33 0 39 0;
#X connect 34 0 26 0;
#X connect 35 0 27 0;
#X connect 39 0 38 0;
#X connect 39 1 37 0;
#X connect 40 0 41 1;
#X connect 41 0 39 1;
#X connect 42 0 45 0;
#X connect 43 0 42 1;
#X connect 43 0 48 0;
#X connect 44 0 46 0;
#X connect 45 0 44 0;
#X connect 46 0 67 0;
#X connect 47 0 44 1;
#X connect 47 0 50 0;
#X connect 48 0 47 0;
#X connect 49 0 51 0;
#X connect 49 1 51 1;
#X connect 50 0 51 0;
#X connect 51 0 52 0;
#X connect 52 0 59 0;
#X connect 52 1 66 0;
#X connect 53 0 58 0;
#X connect 53 0 65 0;
#X connect 53 1 55 0;
#X connect 53 1 64 0;
#X connect 54 0 53 0;
#X connect 55 0 56 0;
#X connect 55 1 57 1;
#X connect 56 0 57 0;
#X connect 57 0 58 0;
#X connect 58 0 49 0;
#X connect 59 0 62 0;
#X connect 59 1 60 1;
#X connect 60 0 61 0;
#X connect 61 0 63 0;
#X connect 62 0 60 0;
#X connect 63 0 67 1;
#X connect 64 0 63 1;
#X connect 65 0 63 1;
#X connect 66 0 61 0;
#X connect 67 0 41 0;
#X connect 68 0 36 0;
#X connect 69 0 0 0;
#X connect 69 1 2 0;
#X connect 69 1 42 0;
#X connect 70 0 69 0;
#X connect 70 0 74 0;
#X connect 71 0 70 1;
#X connect 72 0 15 1;
#X connect 73 0 23 0;
#X connect 73 0 19 0;
#X connect 73 1 88 0;
#X connect 74 0 75 0;
#X connect 75 0 71 0;
#X connect 75 0 72 0;
#X connect 76 0 73 0;
#X connect 76 1 23 1;
#X connect 76 1 20 0;
#X connect 77 0 22 0;
#X connect 77 1 20 0;
#X connect 77 1 21 1;
#X connect 78 0 79 1;
#X connect 78 0 80 1;
#X connect 78 0 85 0;
#X connect 79 0 81 0;
#X connect 80 0 83 0;
#X connect 81 0 82 0;
#X connect 81 1 8 0;
#X connect 82 0 8 0;
#X connect 83 0 84 0;
#X connect 83 1 8 1;
#X connect 84 0 8 1;
#X connect 86 0 87 1;
#X connect 86 0 88 1;
#X connect 87 0 79 0;
#X connect 88 0 80 0;
#X restore 118 323 pd player~;
#N canvas 204 111 601 586 player~ 0;
#N canvas 5 49 450 300 spigle 0;
#X obj 200 61 inlet;
#X obj 72 61 inlet;
#X obj 74 143 spigot;
#X obj 105 122 == 0;
#X obj 191 146 spigot;
#X obj 79 209 outlet;
#X obj 194 208 outlet;
#X connect 0 0 3 0;
#X connect 0 0 4 1;
#X connect 1 0 2 0;
#X connect 1 0 4 0;
#X connect 2 0 5 0;
#X connect 3 0 2 1;
#X connect 4 0 6 0;
#X restore 58 75 pd spigle;
#X obj 131 11 r \$0-reverse_prob;
#X obj 109 34 random 100;
#X obj 109 54 < 0;
#X obj 172 125 exp;
#X floatatom 172 145 0 0 0 0 - - -;
#X obj 172 105 * 0.057762;
#X floatatom 172 91 5 0 0 2 transpose #0-transpose -;
#X obj 52 369 pack f f f;
#X obj 52 403 line~;
#X msg 52 386 \$1 \, \$2 \$3;
#X obj 52 420 tabread4~ input3;
#X obj 290 1 inlet;
#X obj 367 11 loadbang;
#X obj 203 158 delay 100;
#X obj 448 73 spigot;
#X msg 259 24 1;
#X msg 495 73 0;
#X obj 448 125 outlet;
#X obj 203 136 t b;
#X obj 95 212 *;
#X obj 66 227 +;
#X obj 43 155 t f f;
#X obj 16 147 +;
#X floatatom 348 153 5 0 0 0 - - -;
#X obj 315 329 vline~;
#X floatatom 384 243 5 0 0 0 - - -;
#X floatatom 426 257 5 0 0 0 - - -;
#X obj 316 284 pack f f f f;
#X obj 311 194 -;
#X obj 336 253 -;
#X obj 311 219 t f f;
#X msg 315 310 0 \, 1 \$3 \, 1 \$2 \$3 \, 0 \$4 \$1;
#X obj 52 448 *~;
#X obj 392 202 r \$0-attack-num;
#X obj 427 228 r \$0-decay-num;
#X obj 487 34 switch~;
#X obj 74 488 throw~ \$0-right;
#X obj 52 507 throw~ \$0-left;
#X obj 52 468 pan~;
#X obj 255 523 r \$0-pan;
#X obj 240 542 +;
#X obj 357 377 random;
#X obj 390 357 r \$0-pan_variance;
#X obj 357 418 - 45;
#X obj 357 397 * 0.091;
#X floatatom 357 439 5 0 0 0 - - -;
#X floatatom 410 404 5 0 0 0 - - -;
#X obj 410 377 * 0.045;
#X obj 451 423 t b f;
#X obj 410 421 * -1;
#X obj 410 441 +;
#X obj 410 472 moses -45;
#X obj 503 335 moses 0;
#X obj 503 311 r \$0-pan;
#X obj 542 355 t b f;
#X msg 542 372 0;
#X obj 542 390 -;
#X floatatom 451 409 5 0 0 0 - - -;
#X obj 410 489 t b f;
#X obj 410 523 -;
#X floatatom 278 493 5 0 0 0 - - -;
#X msg 410 506 -45;
#X obj 242 488 *;
#X msg 528 418 -1;
#X msg 506 418 1;
#X msg 461 489 0;
#X obj 356 468 +;
#X obj 423 5 r \$0-monopoly;
#X obj 58 52 t a b;
#X obj 213 45 spigot;
#X msg 326 89 0;
#X msg 414 73 1;
#X obj 41 113 t f f;
#X obj 238 66 t b;
#X obj 240 86 delay 0;
#X obj 54 94 unpack f f;
#X obj 43 135 unpack f f;
#X obj 528 106 inlet;
#X obj 47 301 +;
#X obj 76 302 +;
#X obj 13 322 moses 0;
#X msg 13 342 0;
#X obj 73 322 moses 0;
#X msg 73 342 0;
#X obj 528 137 outlet;
#X obj 109 241 r \$0-sampup;
#X obj 24 268 * 44.1;
#X obj 80 269 * 44.1;
#X connect 0 0 77 0;
#X connect 0 1 76 0;
#X connect 1 0 3 1;
#X connect 2 0 3 0;
#X connect 3 0 0 1;
#X connect 4 0 5 0;
#X connect 5 0 20 1;
#X connect 6 0 4 0;
#X connect 7 0 6 0;
#X connect 8 0 10 0;
#X connect 9 0 11 0;
#X connect 10 0 9 0;
#X connect 11 0 33 0;
#X connect 12 0 70 0;
#X connect 12 0 15 0;
#X connect 13 0 17 0;
#X connect 13 0 16 0;
#X connect 14 0 17 0;
#X connect 14 0 16 0;
#X connect 15 0 18 0;
#X connect 16 0 70 1;
#X connect 17 0 15 1;
#X connect 19 0 14 0;
#X connect 20 0 8 2;
#X connect 20 0 29 0;
#X connect 20 0 14 1;
#X connect 21 0 88 0;
#X connect 22 0 19 0;
#X connect 22 0 87 0;
#X connect 22 1 21 0;
#X connect 23 0 87 0;
#X connect 25 0 33 1;
#X connect 26 0 28 2;
#X connect 26 0 30 1;
#X connect 27 0 29 1;
#X connect 27 0 28 3;
#X connect 28 0 32 0;
#X connect 29 0 31 0;
#X connect 30 0 28 1;
#X connect 31 0 28 0;
#X connect 31 1 30 0;
#X connect 32 0 25 0;
#X connect 33 0 39 0;
#X connect 34 0 26 0;
#X connect 35 0 27 0;
#X connect 39 0 38 0;
#X connect 39 1 37 0;
#X connect 40 0 41 1;
#X connect 41 0 39 1;
#X connect 42 0 45 0;
#X connect 43 0 42 1;
#X connect 43 0 48 0;
#X connect 44 0 46 0;
#X connect 45 0 44 0;
#X connect 46 0 67 0;
#X connect 47 0 44 1;
#X connect 47 0 50 0;
#X connect 48 0 47 0;
#X connect 49 0 51 0;
#X connect 49 1 51 1;
#X connect 50 0 51 0;
#X connect 51 0 52 0;
#X connect 52 0 59 0;
#X connect 52 1 66 0;
#X connect 53 0 58 0;
#X connect 53 0 65 0;
#X connect 53 1 55 0;
#X connect 53 1 64 0;
#X connect 54 0 53 0;
#X connect 55 0 56 0;
#X connect 55 1 57 1;
#X connect 56 0 57 0;
#X connect 57 0 58 0;
#X connect 58 0 49 0;
#X connect 59 0 62 0;
#X connect 59 1 60 1;
#X connect 60 0 61 0;
#X connect 61 0 63 0;
#X connect 62 0 60 0;
#X connect 63 0 67 1;
#X connect 64 0 63 1;
#X connect 65 0 63 1;
#X connect 66 0 61 0;
#X connect 67 0 41 0;
#X connect 68 0 36 0;
#X connect 69 0 0 0;
#X connect 69 1 2 0;
#X connect 69 1 42 0;
#X connect 70 0 69 0;
#X connect 70 0 74 0;
#X connect 71 0 70 1;
#X connect 72 0 15 1;
#X connect 73 0 23 0;
#X connect 73 0 19 0;
#X connect 73 1 88 0;
#X connect 74 0 75 0;
#X connect 75 0 71 0;
#X connect 75 0 72 0;
#X connect 76 0 73 0;
#X connect 76 1 23 1;
#X connect 76 1 20 0;
#X connect 77 0 22 0;
#X connect 77 1 20 0;
#X connect 77 1 21 1;
#X connect 78 0 79 1;
#X connect 78 0 80 1;
#X connect 78 0 85 0;
#X connect 79 0 81 0;
#X connect 80 0 83 0;
#X connect 81 0 82 0;
#X connect 81 1 8 0;
#X connect 82 0 8 0;
#X connect 83 0 84 0;
#X connect 83 1 8 1;
#X connect 84 0 8 1;
#X connect 86 0 87 1;
#X connect 86 0 88 1;
#X connect 87 0 79 0;
#X connect 88 0 80 0;
#X restore 118 343 pd player~;
#N canvas 204 111 601 586 player~ 0;
#N canvas 5 49 450 300 spigle 0;
#X obj 200 61 inlet;
#X obj 72 61 inlet;
#X obj 74 143 spigot;
#X obj 105 122 == 0;
#X obj 191 146 spigot;
#X obj 79 209 outlet;
#X obj 194 208 outlet;
#X connect 0 0 3 0;
#X connect 0 0 4 1;
#X connect 1 0 2 0;
#X connect 1 0 4 0;
#X connect 2 0 5 0;
#X connect 3 0 2 1;
#X connect 4 0 6 0;
#X restore 58 75 pd spigle;
#X obj 131 11 r \$0-reverse_prob;
#X obj 109 34 random 100;
#X obj 109 54 < 0;
#X obj 172 125 exp;
#X floatatom 172 145 0 0 0 0 - - -;
#X obj 172 105 * 0.057762;
#X floatatom 172 91 5 0 0 2 transpose #0-transpose -;
#X obj 52 369 pack f f f;
#X obj 52 403 line~;
#X msg 52 386 \$1 \, \$2 \$3;
#X obj 52 420 tabread4~ input3;
#X obj 290 1 inlet;
#X obj 367 11 loadbang;
#X obj 203 158 delay 100;
#X obj 448 73 spigot;
#X msg 259 24 1;
#X msg 495 73 0;
#X obj 448 125 outlet;
#X obj 203 136 t b;
#X obj 95 212 *;
#X obj 66 227 +;
#X obj 43 155 t f f;
#X obj 16 147 +;
#X floatatom 348 153 5 0 0 0 - - -;
#X obj 315 329 vline~;
#X floatatom 384 243 5 0 0 0 - - -;
#X floatatom 426 257 5 0 0 0 - - -;
#X obj 316 284 pack f f f f;
#X obj 311 194 -;
#X obj 336 253 -;
#X obj 311 219 t f f;
#X msg 315 310 0 \, 1 \$3 \, 1 \$2 \$3 \, 0 \$4 \$1;
#X obj 52 448 *~;
#X obj 392 202 r \$0-attack-num;
#X obj 427 228 r \$0-decay-num;
#X obj 487 34 switch~;
#X obj 74 488 throw~ \$0-right;
#X obj 52 507 throw~ \$0-left;
#X obj 52 468 pan~;
#X obj 255 523 r \$0-pan;
#X obj 240 542 +;
#X obj 357 377 random;
#X obj 390 357 r \$0-pan_variance;
#X obj 357 418 - 45;
#X obj 357 397 * 0.091;
#X floatatom 357 439 5 0 0 0 - - -;
#X floatatom 410 404 5 0 0 0 - - -;
#X obj 410 377 * 0.045;
#X obj 451 423 t b f;
#X obj 410 421 * -1;
#X obj 410 441 +;
#X obj 410 472 moses -45;
#X obj 503 335 moses 0;
#X obj 503 311 r \$0-pan;
#X obj 542 355 t b f;
#X msg 542 372 0;
#X obj 542 390 -;
#X floatatom 451 409 5 0 0 0 - - -;
#X obj 410 489 t b f;
#X obj 410 523 -;
#X floatatom 278 493 5 0 0 0 - - -;
#X msg 410 506 -45;
#X obj 242 488 *;
#X msg 528 418 -1;
#X msg 506 418 1;
#X msg 461 489 0;
#X obj 356 468 +;
#X obj 423 5 r \$0-monopoly;
#X obj 58 52 t a b;
#X obj 213 45 spigot;
#X msg 326 89 0;
#X msg 414 73 1;
#X obj 41 113 t f f;
#X obj 238 66 t b;
#X obj 240 86 delay 0;
#X obj 54 94 unpack f f;
#X obj 43 135 unpack f f;
#X obj 528 106 inlet;
#X obj 47 301 +;
#X obj 76 302 +;
#X obj 13 322 moses 0;
#X msg 13 342 0;
#X obj 73 322 moses 0;
#X msg 73 342 0;
#X obj 528 137 outlet;
#X obj 109 241 r \$0-sampup;
#X obj 24 268 * 44.1;
#X obj 80 269 * 44.1;
#X connect 0 0 77 0;
#X connect 0 1 76 0;
#X connect 1 0 3 1;
#X connect 2 0 3 0;
#X connect 3 0 0 1;
#X connect 4 0 5 0;
#X connect 5 0 20 1;
#X connect 6 0 4 0;
#X connect 7 0 6 0;
#X connect 8 0 10 0;
#X connect 9 0 11 0;
#X connect 10 0 9 0;
#X connect 11 0 33 0;
#X connect 12 0 70 0;
#X connect 12 0 15 0;
#X connect 13 0 17 0;
#X connect 13 0 16 0;
#X connect 14 0 17 0;
#X connect 14 0 16 0;
#X connect 15 0 18 0;
#X connect 16 0 70 1;
#X connect 17 0 15 1;
#X connect 19 0 14 0;
#X connect 20 0 8 2;
#X connect 20 0 29 0;
#X connect 20 0 14 1;
#X connect 21 0 88 0;
#X connect 22 0 19 0;
#X connect 22 0 87 0;
#X connect 22 1 21 0;
#X connect 23 0 87 0;
#X connect 25 0 33 1;
#X connect 26 0 28 2;
#X connect 26 0 30 1;
#X connect 27 0 29 1;
#X connect 27 0 28 3;
#X connect 28 0 32 0;
#X connect 29 0 31 0;
#X connect 30 0 28 1;
#X connect 31 0 28 0;
#X connect 31 1 30 0;
#X connect 32 0 25 0;
#X connect 33 0 39 0;
#X connect 34 0 26 0;
#X connect 35 0 27 0;
#X connect 39 0 38 0;
#X connect 39 1 37 0;
#X connect 40 0 41 1;
#X connect 41 0 39 1;
#X connect 42 0 45 0;
#X connect 43 0 42 1;
#X connect 43 0 48 0;
#X connect 44 0 46 0;
#X connect 45 0 44 0;
#X connect 46 0 67 0;
#X connect 47 0 44 1;
#X connect 47 0 50 0;
#X connect 48 0 47 0;
#X connect 49 0 51 0;
#X connect 49 1 51 1;
#X connect 50 0 51 0;
#X connect 51 0 52 0;
#X connect 52 0 59 0;
#X connect 52 1 66 0;
#X connect 53 0 58 0;
#X connect 53 0 65 0;
#X connect 53 1 55 0;
#X connect 53 1 64 0;
#X connect 54 0 53 0;
#X connect 55 0 56 0;
#X connect 55 1 57 1;
#X connect 56 0 57 0;
#X connect 57 0 58 0;
#X connect 58 0 49 0;
#X connect 59 0 62 0;
#X connect 59 1 60 1;
#X connect 60 0 61 0;
#X connect 61 0 63 0;
#X connect 62 0 60 0;
#X connect 63 0 67 1;
#X connect 64 0 63 1;
#X connect 65 0 63 1;
#X connect 66 0 61 0;
#X connect 67 0 41 0;
#X connect 68 0 36 0;
#X connect 69 0 0 0;
#X connect 69 1 2 0;
#X connect 69 1 42 0;
#X connect 70 0 69 0;
#X connect 70 0 74 0;
#X connect 71 0 70 1;
#X connect 72 0 15 1;
#X connect 73 0 23 0;
#X connect 73 0 19 0;
#X connect 73 1 88 0;
#X connect 74 0 75 0;
#X connect 75 0 71 0;
#X connect 75 0 72 0;
#X connect 76 0 73 0;
#X connect 76 1 23 1;
#X connect 76 1 20 0;
#X connect 77 0 22 0;
#X connect 77 1 20 0;
#X connect 77 1 21 1;
#X connect 78 0 79 1;
#X connect 78 0 80 1;
#X connect 78 0 85 0;
#X connect 79 0 81 0;
#X connect 80 0 83 0;
#X connect 81 0 82 0;
#X connect 81 1 8 0;
#X connect 82 0 8 0;
#X connect 83 0 84 0;
#X connect 83 1 8 1;
#X connect 84 0 8 1;
#X connect 86 0 87 1;
#X connect 86 0 88 1;
#X connect 87 0 79 0;
#X connect 88 0 80 0;
#X restore 118 363 pd player~;
#N canvas 204 111 601 586 player~ 0;
#N canvas 5 49 450 300 spigle 0;
#X obj 200 61 inlet;
#X obj 72 61 inlet;
#X obj 74 143 spigot;
#X obj 105 122 == 0;
#X obj 191 146 spigot;
#X obj 79 209 outlet;
#X obj 194 208 outlet;
#X connect 0 0 3 0;
#X connect 0 0 4 1;
#X connect 1 0 2 0;
#X connect 1 0 4 0;
#X connect 2 0 5 0;
#X connect 3 0 2 1;
#X connect 4 0 6 0;
#X restore 58 75 pd spigle;
#X obj 131 11 r \$0-reverse_prob;
#X obj 109 34 random 100;
#X obj 109 54 < 0;
#X obj 172 125 exp;
#X floatatom 172 145 0 0 0 0 - - -;
#X obj 172 105 * 0.057762;
#X floatatom 172 91 5 0 0 2 transpose #0-transpose -;
#X obj 52 369 pack f f f;
#X obj 52 403 line~;
#X msg 52 386 \$1 \, \$2 \$3;
#X obj 52 420 tabread4~ input3;
#X obj 290 1 inlet;
#X obj 367 11 loadbang;
#X obj 203 158 delay 100;
#X obj 448 73 spigot;
#X msg 259 24 1;
#X msg 495 73 0;
#X obj 448 125 outlet;
#X obj 203 136 t b;
#X obj 95 212 *;
#X obj 66 227 +;
#X obj 43 155 t f f;
#X obj 16 147 +;
#X floatatom 348 153 5 0 0 0 - - -;
#X obj 315 329 vline~;
#X floatatom 384 243 5 0 0 0 - - -;
#X floatatom 426 257 5 0 0 0 - - -;
#X obj 316 284 pack f f f f;
#X obj 311 194 -;
#X obj 336 253 -;
#X obj 311 219 t f f;
#X msg 315 310 0 \, 1 \$3 \, 1 \$2 \$3 \, 0 \$4 \$1;
#X obj 52 448 *~;
#X obj 392 202 r \$0-attack-num;
#X obj 427 228 r \$0-decay-num;
#X obj 487 34 switch~;
#X obj 74 488 throw~ \$0-right;
#X obj 52 507 throw~ \$0-left;
#X obj 52 468 pan~;
#X obj 255 523 r \$0-pan;
#X obj 240 542 +;
#X obj 357 377 random;
#X obj 390 357 r \$0-pan_variance;
#X obj 357 418 - 45;
#X obj 357 397 * 0.091;
#X floatatom 357 439 5 0 0 0 - - -;
#X floatatom 410 404 5 0 0 0 - - -;
#X obj 410 377 * 0.045;
#X obj 451 423 t b f;
#X obj 410 421 * -1;
#X obj 410 441 +;
#X obj 410 472 moses -45;
#X obj 503 335 moses 0;
#X obj 503 311 r \$0-pan;
#X obj 542 355 t b f;
#X msg 542 372 0;
#X obj 542 390 -;
#X floatatom 451 409 5 0 0 0 - - -;
#X obj 410 489 t b f;
#X obj 410 523 -;
#X floatatom 278 493 5 0 0 0 - - -;
#X msg 410 506 -45;
#X obj 242 488 *;
#X msg 528 418 -1;
#X msg 506 418 1;
#X msg 461 489 0;
#X obj 356 468 +;
#X obj 423 5 r \$0-monopoly;
#X obj 58 52 t a b;
#X obj 213 45 spigot;
#X msg 326 89 0;
#X msg 414 73 1;
#X obj 41 113 t f f;
#X obj 238 66 t b;
#X obj 240 86 delay 0;
#X obj 54 94 unpack f f;
#X obj 43 135 unpack f f;
#X obj 528 106 inlet;
#X obj 47 301 +;
#X obj 76 302 +;
#X obj 13 322 moses 0;
#X msg 13 342 0;
#X obj 73 322 moses 0;
#X msg 73 342 0;
#X obj 528 137 outlet;
#X obj 109 241 r \$0-sampup;
#X obj 24 268 * 44.1;
#X obj 80 269 * 44.1;
#X connect 0 0 77 0;
#X connect 0 1 76 0;
#X connect 1 0 3 1;
#X connect 2 0 3 0;
#X connect 3 0 0 1;
#X connect 4 0 5 0;
#X connect 5 0 20 1;
#X connect 6 0 4 0;
#X connect 7 0 6 0;
#X connect 8 0 10 0;
#X connect 9 0 11 0;
#X connect 10 0 9 0;
#X connect 11 0 33 0;
#X connect 12 0 70 0;
#X connect 12 0 15 0;
#X connect 13 0 17 0;
#X connect 13 0 16 0;
#X connect 14 0 17 0;
#X connect 14 0 16 0;
#X connect 15 0 18 0;
#X connect 16 0 70 1;
#X connect 17 0 15 1;
#X connect 19 0 14 0;
#X connect 20 0 8 2;
#X connect 20 0 29 0;
#X connect 20 0 14 1;
#X connect 21 0 88 0;
#X connect 22 0 19 0;
#X connect 22 0 87 0;
#X connect 22 1 21 0;
#X connect 23 0 87 0;
#X connect 25 0 33 1;
#X connect 26 0 28 2;
#X connect 26 0 30 1;
#X connect 27 0 29 1;
#X connect 27 0 28 3;
#X connect 28 0 32 0;
#X connect 29 0 31 0;
#X connect 30 0 28 1;
#X connect 31 0 28 0;
#X connect 31 1 30 0;
#X connect 32 0 25 0;
#X connect 33 0 39 0;
#X connect 34 0 26 0;
#X connect 35 0 27 0;
#X connect 39 0 38 0;
#X connect 39 1 37 0;
#X connect 40 0 41 1;
#X connect 41 0 39 1;
#X connect 42 0 45 0;
#X connect 43 0 42 1;
#X connect 43 0 48 0;
#X connect 44 0 46 0;
#X connect 45 0 44 0;
#X connect 46 0 67 0;
#X connect 47 0 44 1;
#X connect 47 0 50 0;
#X connect 48 0 47 0;
#X connect 49 0 51 0;
#X connect 49 1 51 1;
#X connect 50 0 51 0;
#X connect 51 0 52 0;
#X connect 52 0 59 0;
#X connect 52 1 66 0;
#X connect 53 0 58 0;
#X connect 53 0 65 0;
#X connect 53 1 55 0;
#X connect 53 1 64 0;
#X connect 54 0 53 0;
#X connect 55 0 56 0;
#X connect 55 1 57 1;
#X connect 56 0 57 0;
#X connect 57 0 58 0;
#X connect 58 0 49 0;
#X connect 59 0 62 0;
#X connect 59 1 60 1;
#X connect 60 0 61 0;
#X connect 61 0 63 0;
#X connect 62 0 60 0;
#X connect 63 0 67 1;
#X connect 64 0 63 1;
#X connect 65 0 63 1;
#X connect 66 0 61 0;
#X connect 67 0 41 0;
#X connect 68 0 36 0;
#X connect 69 0 0 0;
#X connect 69 1 2 0;
#X connect 69 1 42 0;
#X connect 70 0 69 0;
#X connect 70 0 74 0;
#X connect 71 0 70 1;
#X connect 72 0 15 1;
#X connect 73 0 23 0;
#X connect 73 0 19 0;
#X connect 73 1 88 0;
#X connect 74 0 75 0;
#X connect 75 0 71 0;
#X connect 75 0 72 0;
#X connect 76 0 73 0;
#X connect 76 1 23 1;
#X connect 76 1 20 0;
#X connect 77 0 22 0;
#X connect 77 1 20 0;
#X connect 77 1 21 1;
#X connect 78 0 79 1;
#X connect 78 0 80 1;
#X connect 78 0 85 0;
#X connect 79 0 81 0;
#X connect 80 0 83 0;
#X connect 81 0 82 0;
#X connect 81 1 8 0;
#X connect 82 0 8 0;
#X connect 83 0 84 0;
#X connect 83 1 8 1;
#X connect 84 0 8 1;
#X connect 86 0 87 1;
#X connect 86 0 88 1;
#X connect 87 0 79 0;
#X connect 88 0 80 0;
#X restore 118 383 pd player~;
#N canvas 204 111 601 586 player~ 0;
#N canvas 5 49 450 300 spigle 0;
#X obj 200 61 inlet;
#X obj 72 61 inlet;
#X obj 74 143 spigot;
#X obj 105 122 == 0;
#X obj 191 146 spigot;
#X obj 79 209 outlet;
#X obj 194 208 outlet;
#X connect 0 0 3 0;
#X connect 0 0 4 1;
#X connect 1 0 2 0;
#X connect 1 0 4 0;
#X connect 2 0 5 0;
#X connect 3 0 2 1;
#X connect 4 0 6 0;
#X restore 58 75 pd spigle;
#X obj 131 11 r \$0-reverse_prob;
#X obj 109 34 random 100;
#X obj 109 54 < 0;
#X obj 172 125 exp;
#X floatatom 172 145 0 0 0 0 - - -;
#X obj 172 105 * 0.057762;
#X floatatom 172 91 5 0 0 2 transpose #0-transpose -;
#X obj 52 369 pack f f f;
#X obj 52 403 line~;
#X msg 52 386 \$1 \, \$2 \$3;
#X obj 52 420 tabread4~ input3;
#X obj 290 1 inlet;
#X obj 367 11 loadbang;
#X obj 203 158 delay 100;
#X obj 448 73 spigot;
#X msg 259 24 1;
#X msg 495 73 0;
#X obj 448 125 outlet;
#X obj 203 136 t b;
#X obj 95 212 *;
#X obj 66 227 +;
#X obj 43 155 t f f;
#X obj 16 147 +;
#X floatatom 348 153 5 0 0 0 - - -;
#X obj 315 329 vline~;
#X floatatom 384 243 5 0 0 0 - - -;
#X floatatom 426 257 5 0 0 0 - - -;
#X obj 316 284 pack f f f f;
#X obj 311 194 -;
#X obj 336 253 -;
#X obj 311 219 t f f;
#X msg 315 310 0 \, 1 \$3 \, 1 \$2 \$3 \, 0 \$4 \$1;
#X obj 52 448 *~;
#X obj 392 202 r \$0-attack-num;
#X obj 427 228 r \$0-decay-num;
#X obj 487 34 switch~;
#X obj 74 488 throw~ \$0-right;
#X obj 52 507 throw~ \$0-left;
#X obj 52 468 pan~;
#X obj 255 523 r \$0-pan;
#X obj 240 542 +;
#X obj 357 377 random;
#X obj 390 357 r \$0-pan_variance;
#X obj 357 418 - 45;
#X obj 357 397 * 0.091;
#X floatatom 357 439 5 0 0 0 - - -;
#X floatatom 410 404 5 0 0 0 - - -;
#X obj 410 377 * 0.045;
#X obj 451 423 t b f;
#X obj 410 421 * -1;
#X obj 410 441 +;
#X obj 410 472 moses -45;
#X obj 503 335 moses 0;
#X obj 503 311 r \$0-pan;
#X obj 542 355 t b f;
#X msg 542 372 0;
#X obj 542 390 -;
#X floatatom 451 409 5 0 0 0 - - -;
#X obj 410 489 t b f;
#X obj 410 523 -;
#X floatatom 278 493 5 0 0 0 - - -;
#X msg 410 506 -45;
#X obj 242 488 *;
#X msg 528 418 -1;
#X msg 506 418 1;
#X msg 461 489 0;
#X obj 356 468 +;
#X obj 423 5 r \$0-monopoly;
#X obj 58 52 t a b;
#X obj 213 45 spigot;
#X msg 326 89 0;
#X msg 414 73 1;
#X obj 41 113 t f f;
#X obj 238 66 t b;
#X obj 240 86 delay 0;
#X obj 54 94 unpack f f;
#X obj 43 135 unpack f f;
#X obj 528 106 inlet;
#X obj 47 301 +;
#X obj 76 302 +;
#X obj 13 322 moses 0;
#X msg 13 342 0;
#X obj 73 322 moses 0;
#X msg 73 342 0;
#X obj 528 137 outlet;
#X obj 109 241 r \$0-sampup;
#X obj 24 268 * 44.1;
#X obj 80 269 * 44.1;
#X connect 0 0 77 0;
#X connect 0 1 76 0;
#X connect 1 0 3 1;
#X connect 2 0 3 0;
#X connect 3 0 0 1;
#X connect 4 0 5 0;
#X connect 5 0 20 1;
#X connect 6 0 4 0;
#X connect 7 0 6 0;
#X connect 8 0 10 0;
#X connect 9 0 11 0;
#X connect 10 0 9 0;
#X connect 11 0 33 0;
#X connect 12 0 70 0;
#X connect 12 0 15 0;
#X connect 13 0 17 0;
#X connect 13 0 16 0;
#X connect 14 0 17 0;
#X connect 14 0 16 0;
#X connect 15 0 18 0;
#X connect 16 0 70 1;
#X connect 17 0 15 1;
#X connect 19 0 14 0;
#X connect 20 0 8 2;
#X connect 20 0 29 0;
#X connect 20 0 14 1;
#X connect 21 0 88 0;
#X connect 22 0 19 0;
#X connect 22 0 87 0;
#X connect 22 1 21 0;
#X connect 23 0 87 0;
#X connect 25 0 33 1;
#X connect 26 0 28 2;
#X connect 26 0 30 1;
#X connect 27 0 29 1;
#X connect 27 0 28 3;
#X connect 28 0 32 0;
#X connect 29 0 31 0;
#X connect 30 0 28 1;
#X connect 31 0 28 0;
#X connect 31 1 30 0;
#X connect 32 0 25 0;
#X connect 33 0 39 0;
#X connect 34 0 26 0;
#X connect 35 0 27 0;
#X connect 39 0 38 0;
#X connect 39 1 37 0;
#X connect 40 0 41 1;
#X connect 41 0 39 1;
#X connect 42 0 45 0;
#X connect 43 0 42 1;
#X connect 43 0 48 0;
#X connect 44 0 46 0;
#X connect 45 0 44 0;
#X connect 46 0 67 0;
#X connect 47 0 44 1;
#X connect 47 0 50 0;
#X connect 48 0 47 0;
#X connect 49 0 51 0;
#X connect 49 1 51 1;
#X connect 50 0 51 0;
#X connect 51 0 52 0;
#X connect 52 0 59 0;
#X connect 52 1 66 0;
#X connect 53 0 58 0;
#X connect 53 0 65 0;
#X connect 53 1 55 0;
#X connect 53 1 64 0;
#X connect 54 0 53 0;
#X connect 55 0 56 0;
#X connect 55 1 57 1;
#X connect 56 0 57 0;
#X connect 57 0 58 0;
#X connect 58 0 49 0;
#X connect 59 0 62 0;
#X connect 59 1 60 1;
#X connect 60 0 61 0;
#X connect 61 0 63 0;
#X connect 62 0 60 0;
#X connect 63 0 67 1;
#X connect 64 0 63 1;
#X connect 65 0 63 1;
#X connect 66 0 61 0;
#X connect 67 0 41 0;
#X connect 68 0 36 0;
#X connect 69 0 0 0;
#X connect 69 1 2 0;
#X connect 69 1 42 0;
#X connect 70 0 69 0;
#X connect 70 0 74 0;
#X connect 71 0 70 1;
#X connect 72 0 15 1;
#X connect 73 0 23 0;
#X connect 73 0 19 0;
#X connect 73 1 88 0;
#X connect 74 0 75 0;
#X connect 75 0 71 0;
#X connect 75 0 72 0;
#X connect 76 0 73 0;
#X connect 76 1 23 1;
#X connect 76 1 20 0;
#X connect 77 0 22 0;
#X connect 77 1 20 0;
#X connect 77 1 21 1;
#X connect 78 0 79 1;
#X connect 78 0 80 1;
#X connect 78 0 85 0;
#X connect 79 0 81 0;
#X connect 80 0 83 0;
#X connect 81 0 82 0;
#X connect 81 1 8 0;
#X connect 82 0 8 0;
#X connect 83 0 84 0;
#X connect 83 1 8 1;
#X connect 84 0 8 1;
#X connect 86 0 87 1;
#X connect 86 0 88 1;
#X connect 87 0 79 0;
#X connect 88 0 80 0;
#X restore 188 323 pd player~;
#N canvas 204 111 601 586 player~ 0;
#N canvas 5 49 450 300 spigle 0;
#X obj 200 61 inlet;
#X obj 72 61 inlet;
#X obj 74 143 spigot;
#X obj 105 122 == 0;
#X obj 191 146 spigot;
#X obj 79 209 outlet;
#X obj 194 208 outlet;
#X connect 0 0 3 0;
#X connect 0 0 4 1;
#X connect 1 0 2 0;
#X connect 1 0 4 0;
#X connect 2 0 5 0;
#X connect 3 0 2 1;
#X connect 4 0 6 0;
#X restore 58 75 pd spigle;
#X obj 131 11 r \$0-reverse_prob;
#X obj 109 34 random 100;
#X obj 109 54 < 0;
#X obj 172 125 exp;
#X floatatom 172 145 0 0 0 0 - - -;
#X obj 172 105 * 0.057762;
#X floatatom 172 91 5 0 0 2 transpose #0-transpose -;
#X obj 52 369 pack f f f;
#X obj 52 403 line~;
#X msg 52 386 \$1 \, \$2 \$3;
#X obj 52 420 tabread4~ input3;
#X obj 290 1 inlet;
#X obj 367 11 loadbang;
#X obj 203 158 delay 100;
#X obj 448 73 spigot;
#X msg 259 24 1;
#X msg 495 73 0;
#X obj 448 125 outlet;
#X obj 203 136 t b;
#X obj 95 212 *;
#X obj 66 227 +;
#X obj 43 155 t f f;
#X obj 16 147 +;
#X floatatom 348 153 5 0 0 0 - - -;
#X obj 315 329 vline~;
#X floatatom 384 243 5 0 0 0 - - -;
#X floatatom 426 257 5 0 0 0 - - -;
#X obj 316 284 pack f f f f;
#X obj 311 194 -;
#X obj 336 253 -;
#X obj 311 219 t f f;
#X msg 315 310 0 \, 1 \$3 \, 1 \$2 \$3 \, 0 \$4 \$1;
#X obj 52 448 *~;
#X obj 392 202 r \$0-attack-num;
#X obj 427 228 r \$0-decay-num;
#X obj 487 34 switch~;
#X obj 74 488 throw~ \$0-right;
#X obj 52 507 throw~ \$0-left;
#X obj 52 468 pan~;
#X obj 255 523 r \$0-pan;
#X obj 240 542 +;
#X obj 357 377 random;
#X obj 390 357 r \$0-pan_variance;
#X obj 357 418 - 45;
#X obj 357 397 * 0.091;
#X floatatom 357 439 5 0 0 0 - - -;
#X floatatom 410 404 5 0 0 0 - - -;
#X obj 410 377 * 0.045;
#X obj 451 423 t b f;
#X obj 410 421 * -1;
#X obj 410 441 +;
#X obj 410 472 moses -45;
#X obj 503 335 moses 0;
#X obj 503 311 r \$0-pan;
#X obj 542 355 t b f;
#X msg 542 372 0;
#X obj 542 390 -;
#X floatatom 451 409 5 0 0 0 - - -;
#X obj 410 489 t b f;
#X obj 410 523 -;
#X floatatom 278 493 5 0 0 0 - - -;
#X msg 410 506 -45;
#X obj 242 488 *;
#X msg 528 418 -1;
#X msg 506 418 1;
#X msg 461 489 0;
#X obj 356 468 +;
#X obj 423 5 r \$0-monopoly;
#X obj 58 52 t a b;
#X obj 213 45 spigot;
#X msg 326 89 0;
#X msg 414 73 1;
#X obj 41 113 t f f;
#X obj 238 66 t b;
#X obj 240 86 delay 0;
#X obj 54 94 unpack f f;
#X obj 43 135 unpack f f;
#X obj 528 106 inlet;
#X obj 47 301 +;
#X obj 76 302 +;
#X obj 13 322 moses 0;
#X msg 13 342 0;
#X obj 73 322 moses 0;
#X msg 73 342 0;
#X obj 528 137 outlet;
#X obj 109 241 r \$0-sampup;
#X obj 24 268 * 44.1;
#X obj 80 269 * 44.1;
#X connect 0 0 77 0;
#X connect 0 1 76 0;
#X connect 1 0 3 1;
#X connect 2 0 3 0;
#X connect 3 0 0 1;
#X connect 4 0 5 0;
#X connect 5 0 20 1;
#X connect 6 0 4 0;
#X connect 7 0 6 0;
#X connect 8 0 10 0;
#X connect 9 0 11 0;
#X connect 10 0 9 0;
#X connect 11 0 33 0;
#X connect 12 0 70 0;
#X connect 12 0 15 0;
#X connect 13 0 17 0;
#X connect 13 0 16 0;
#X connect 14 0 17 0;
#X connect 14 0 16 0;
#X connect 15 0 18 0;
#X connect 16 0 70 1;
#X connect 17 0 15 1;
#X connect 19 0 14 0;
#X connect 20 0 8 2;
#X connect 20 0 29 0;
#X connect 20 0 14 1;
#X connect 21 0 88 0;
#X connect 22 0 19 0;
#X connect 22 0 87 0;
#X connect 22 1 21 0;
#X connect 23 0 87 0;
#X connect 25 0 33 1;
#X connect 26 0 28 2;
#X connect 26 0 30 1;
#X connect 27 0 29 1;
#X connect 27 0 28 3;
#X connect 28 0 32 0;
#X connect 29 0 31 0;
#X connect 30 0 28 1;
#X connect 31 0 28 0;
#X connect 31 1 30 0;
#X connect 32 0 25 0;
#X connect 33 0 39 0;
#X connect 34 0 26 0;
#X connect 35 0 27 0;
#X connect 39 0 38 0;
#X connect 39 1 37 0;
#X connect 40 0 41 1;
#X connect 41 0 39 1;
#X connect 42 0 45 0;
#X connect 43 0 42 1;
#X connect 43 0 48 0;
#X connect 44 0 46 0;
#X connect 45 0 44 0;
#X connect 46 0 67 0;
#X connect 47 0 44 1;
#X connect 47 0 50 0;
#X connect 48 0 47 0;
#X connect 49 0 51 0;
#X connect 49 1 51 1;
#X connect 50 0 51 0;
#X connect 51 0 52 0;
#X connect 52 0 59 0;
#X connect 52 1 66 0;
#X connect 53 0 58 0;
#X connect 53 0 65 0;
#X connect 53 1 55 0;
#X connect 53 1 64 0;
#X connect 54 0 53 0;
#X connect 55 0 56 0;
#X connect 55 1 57 1;
#X connect 56 0 57 0;
#X connect 57 0 58 0;
#X connect 58 0 49 0;
#X connect 59 0 62 0;
#X connect 59 1 60 1;
#X connect 60 0 61 0;
#X connect 61 0 63 0;
#X connect 62 0 60 0;
#X connect 63 0 67 1;
#X connect 64 0 63 1;
#X connect 65 0 63 1;
#X connect 66 0 61 0;
#X connect 67 0 41 0;
#X connect 68 0 36 0;
#X connect 69 0 0 0;
#X connect 69 1 2 0;
#X connect 69 1 42 0;
#X connect 70 0 69 0;
#X connect 70 0 74 0;
#X connect 71 0 70 1;
#X connect 72 0 15 1;
#X connect 73 0 23 0;
#X connect 73 0 19 0;
#X connect 73 1 88 0;
#X connect 74 0 75 0;
#X connect 75 0 71 0;
#X connect 75 0 72 0;
#X connect 76 0 73 0;
#X connect 76 1 23 1;
#X connect 76 1 20 0;
#X connect 77 0 22 0;
#X connect 77 1 20 0;
#X connect 77 1 21 1;
#X connect 78 0 79 1;
#X connect 78 0 80 1;
#X connect 78 0 85 0;
#X connect 79 0 81 0;
#X connect 80 0 83 0;
#X connect 81 0 82 0;
#X connect 81 1 8 0;
#X connect 82 0 8 0;
#X connect 83 0 84 0;
#X connect 83 1 8 1;
#X connect 84 0 8 1;
#X connect 86 0 87 1;
#X connect 86 0 88 1;
#X connect 87 0 79 0;
#X connect 88 0 80 0;
#X restore 188 343 pd player~;
#N canvas 204 111 601 586 player~ 0;
#N canvas 5 49 450 300 spigle 0;
#X obj 200 61 inlet;
#X obj 72 61 inlet;
#X obj 74 143 spigot;
#X obj 105 122 == 0;
#X obj 191 146 spigot;
#X obj 79 209 outlet;
#X obj 194 208 outlet;
#X connect 0 0 3 0;
#X connect 0 0 4 1;
#X connect 1 0 2 0;
#X connect 1 0 4 0;
#X connect 2 0 5 0;
#X connect 3 0 2 1;
#X connect 4 0 6 0;
#X restore 58 75 pd spigle;
#X obj 131 11 r \$0-reverse_prob;
#X obj 109 34 random 100;
#X obj 109 54 < 0;
#X obj 172 125 exp;
#X floatatom 172 145 0 0 0 0 - - -;
#X obj 172 105 * 0.057762;
#X floatatom 172 91 5 0 0 2 transpose #0-transpose -;
#X obj 52 369 pack f f f;
#X obj 52 403 line~;
#X msg 52 386 \$1 \, \$2 \$3;
#X obj 52 420 tabread4~ input3;
#X obj 290 1 inlet;
#X obj 367 11 loadbang;
#X obj 203 158 delay 100;
#X obj 448 73 spigot;
#X msg 259 24 1;
#X msg 495 73 0;
#X obj 448 125 outlet;
#X obj 203 136 t b;
#X obj 95 212 *;
#X obj 66 227 +;
#X obj 43 155 t f f;
#X obj 16 147 +;
#X floatatom 348 153 5 0 0 0 - - -;
#X obj 315 329 vline~;
#X floatatom 384 243 5 0 0 0 - - -;
#X floatatom 426 257 5 0 0 0 - - -;
#X obj 316 284 pack f f f f;
#X obj 311 194 -;
#X obj 336 253 -;
#X obj 311 219 t f f;
#X msg 315 310 0 \, 1 \$3 \, 1 \$2 \$3 \, 0 \$4 \$1;
#X obj 52 448 *~;
#X obj 392 202 r \$0-attack-num;
#X obj 427 228 r \$0-decay-num;
#X obj 487 34 switch~;
#X obj 74 488 throw~ \$0-right;
#X obj 52 507 throw~ \$0-left;
#X obj 52 468 pan~;
#X obj 255 523 r \$0-pan;
#X obj 240 542 +;
#X obj 357 377 random;
#X obj 390 357 r \$0-pan_variance;
#X obj 357 418 - 45;
#X obj 357 397 * 0.091;
#X floatatom 357 439 5 0 0 0 - - -;
#X floatatom 410 404 5 0 0 0 - - -;
#X obj 410 377 * 0.045;
#X obj 451 423 t b f;
#X obj 410 421 * -1;
#X obj 410 441 +;
#X obj 410 472 moses -45;
#X obj 503 335 moses 0;
#X obj 503 311 r \$0-pan;
#X obj 542 355 t b f;
#X msg 542 372 0;
#X obj 542 390 -;
#X floatatom 451 409 5 0 0 0 - - -;
#X obj 410 489 t b f;
#X obj 410 523 -;
#X floatatom 278 493 5 0 0 0 - - -;
#X msg 410 506 -45;
#X obj 242 488 *;
#X msg 528 418 -1;
#X msg 506 418 1;
#X msg 461 489 0;
#X obj 356 468 +;
#X obj 423 5 r \$0-monopoly;
#X obj 58 52 t a b;
#X obj 213 45 spigot;
#X msg 326 89 0;
#X msg 414 73 1;
#X obj 41 113 t f f;
#X obj 238 66 t b;
#X obj 240 86 delay 0;
#X obj 54 94 unpack f f;
#X obj 43 135 unpack f f;
#X obj 528 106 inlet;
#X obj 47 301 +;
#X obj 76 302 +;
#X obj 13 322 moses 0;
#X msg 13 342 0;
#X obj 73 322 moses 0;
#X msg 73 342 0;
#X obj 528 137 outlet;
#X obj 109 241 r \$0-sampup;
#X obj 24 268 * 44.1;
#X obj 80 269 * 44.1;
#X connect 0 0 77 0;
#X connect 0 1 76 0;
#X connect 1 0 3 1;
#X connect 2 0 3 0;
#X connect 3 0 0 1;
#X connect 4 0 5 0;
#X connect 5 0 20 1;
#X connect 6 0 4 0;
#X connect 7 0 6 0;
#X connect 8 0 10 0;
#X connect 9 0 11 0;
#X connect 10 0 9 0;
#X connect 11 0 33 0;
#X connect 12 0 70 0;
#X connect 12 0 15 0;
#X connect 13 0 17 0;
#X connect 13 0 16 0;
#X connect 14 0 17 0;
#X connect 14 0 16 0;
#X connect 15 0 18 0;
#X connect 16 0 70 1;
#X connect 17 0 15 1;
#X connect 19 0 14 0;
#X connect 20 0 8 2;
#X connect 20 0 29 0;
#X connect 20 0 14 1;
#X connect 21 0 88 0;
#X connect 22 0 19 0;
#X connect 22 0 87 0;
#X connect 22 1 21 0;
#X connect 23 0 87 0;
#X connect 25 0 33 1;
#X connect 26 0 28 2;
#X connect 26 0 30 1;
#X connect 27 0 29 1;
#X connect 27 0 28 3;
#X connect 28 0 32 0;
#X connect 29 0 31 0;
#X connect 30 0 28 1;
#X connect 31 0 28 0;
#X connect 31 1 30 0;
#X connect 32 0 25 0;
#X connect 33 0 39 0;
#X connect 34 0 26 0;
#X connect 35 0 27 0;
#X connect 39 0 38 0;
#X connect 39 1 37 0;
#X connect 40 0 41 1;
#X connect 41 0 39 1;
#X connect 42 0 45 0;
#X connect 43 0 42 1;
#X connect 43 0 48 0;
#X connect 44 0 46 0;
#X connect 45 0 44 0;
#X connect 46 0 67 0;
#X connect 47 0 44 1;
#X connect 47 0 50 0;
#X connect 48 0 47 0;
#X connect 49 0 51 0;
#X connect 49 1 51 1;
#X connect 50 0 51 0;
#X connect 51 0 52 0;
#X connect 52 0 59 0;
#X connect 52 1 66 0;
#X connect 53 0 58 0;
#X connect 53 0 65 0;
#X connect 53 1 55 0;
#X connect 53 1 64 0;
#X connect 54 0 53 0;
#X connect 55 0 56 0;
#X connect 55 1 57 1;
#X connect 56 0 57 0;
#X connect 57 0 58 0;
#X connect 58 0 49 0;
#X connect 59 0 62 0;
#X connect 59 1 60 1;
#X connect 60 0 61 0;
#X connect 61 0 63 0;
#X connect 62 0 60 0;
#X connect 63 0 67 1;
#X connect 64 0 63 1;
#X connect 65 0 63 1;
#X connect 66 0 61 0;
#X connect 67 0 41 0;
#X connect 68 0 36 0;
#X connect 69 0 0 0;
#X connect 69 1 2 0;
#X connect 69 1 42 0;
#X connect 70 0 69 0;
#X connect 70 0 74 0;
#X connect 71 0 70 1;
#X connect 72 0 15 1;
#X connect 73 0 23 0;
#X connect 73 0 19 0;
#X connect 73 1 88 0;
#X connect 74 0 75 0;
#X connect 75 0 71 0;
#X connect 75 0 72 0;
#X connect 76 0 73 0;
#X connect 76 1 23 1;
#X connect 76 1 20 0;
#X connect 77 0 22 0;
#X connect 77 1 20 0;
#X connect 77 1 21 1;
#X connect 78 0 79 1;
#X connect 78 0 80 1;
#X connect 78 0 85 0;
#X connect 79 0 81 0;
#X connect 80 0 83 0;
#X connect 81 0 82 0;
#X connect 81 1 8 0;
#X connect 82 0 8 0;
#X connect 83 0 84 0;
#X connect 83 1 8 1;
#X connect 84 0 8 1;
#X connect 86 0 87 1;
#X connect 86 0 88 1;
#X connect 87 0 79 0;
#X connect 88 0 80 0;
#X restore 188 363 pd player~;
#N canvas 204 111 601 586 player~ 0;
#N canvas 5 49 450 300 spigle 0;
#X obj 200 61 inlet;
#X obj 72 61 inlet;
#X obj 74 143 spigot;
#X obj 105 122 == 0;
#X obj 191 146 spigot;
#X obj 79 209 outlet;
#X obj 194 208 outlet;
#X connect 0 0 3 0;
#X connect 0 0 4 1;
#X connect 1 0 2 0;
#X connect 1 0 4 0;
#X connect 2 0 5 0;
#X connect 3 0 2 1;
#X connect 4 0 6 0;
#X restore 58 75 pd spigle;
#X obj 131 11 r \$0-reverse_prob;
#X obj 109 34 random 100;
#X obj 109 54 < 0;
#X obj 172 125 exp;
#X floatatom 172 145 0 0 0 0 - - -;
#X obj 172 105 * 0.057762;
#X floatatom 172 91 5 0 0 2 transpose #0-transpose -;
#X obj 52 369 pack f f f;
#X obj 52 403 line~;
#X msg 52 386 \$1 \, \$2 \$3;
#X obj 52 420 tabread4~ input3;
#X obj 290 1 inlet;
#X obj 367 11 loadbang;
#X obj 203 158 delay 100;
#X obj 448 73 spigot;
#X msg 259 24 1;
#X msg 495 73 0;
#X obj 448 125 outlet;
#X obj 203 136 t b;
#X obj 95 212 *;
#X obj 66 227 +;
#X obj 43 155 t f f;
#X obj 16 147 +;
#X floatatom 348 153 5 0 0 0 - - -;
#X obj 315 329 vline~;
#X floatatom 384 243 5 0 0 0 - - -;
#X floatatom 426 257 5 0 0 0 - - -;
#X obj 316 284 pack f f f f;
#X obj 311 194 -;
#X obj 336 253 -;
#X obj 311 219 t f f;
#X msg 315 310 0 \, 1 \$3 \, 1 \$2 \$3 \, 0 \$4 \$1;
#X obj 52 448 *~;
#X obj 392 202 r \$0-attack-num;
#X obj 427 228 r \$0-decay-num;
#X obj 487 34 switch~;
#X obj 74 488 throw~ \$0-right;
#X obj 52 507 throw~ \$0-left;
#X obj 52 468 pan~;
#X obj 255 523 r \$0-pan;
#X obj 240 542 +;
#X obj 357 377 random;
#X obj 390 357 r \$0-pan_variance;
#X obj 357 418 - 45;
#X obj 357 397 * 0.091;
#X floatatom 357 439 5 0 0 0 - - -;
#X floatatom 410 404 5 0 0 0 - - -;
#X obj 410 377 * 0.045;
#X obj 451 423 t b f;
#X obj 410 421 * -1;
#X obj 410 441 +;
#X obj 410 472 moses -45;
#X obj 503 335 moses 0;
#X obj 503 311 r \$0-pan;
#X obj 542 355 t b f;
#X msg 542 372 0;
#X obj 542 390 -;
#X floatatom 451 409 5 0 0 0 - - -;
#X obj 410 489 t b f;
#X obj 410 523 -;
#X floatatom 278 493 5 0 0 0 - - -;
#X msg 410 506 -45;
#X obj 242 488 *;
#X msg 528 418 -1;
#X msg 506 418 1;
#X msg 461 489 0;
#X obj 356 468 +;
#X obj 423 5 r \$0-monopoly;
#X obj 58 52 t a b;
#X obj 213 45 spigot;
#X msg 326 89 0;
#X msg 414 73 1;
#X obj 41 113 t f f;
#X obj 238 66 t b;
#X obj 240 86 delay 0;
#X obj 54 94 unpack f f;
#X obj 43 135 unpack f f;
#X obj 528 106 inlet;
#X obj 47 301 +;
#X obj 76 302 +;
#X obj 13 322 moses 0;
#X msg 13 342 0;
#X obj 73 322 moses 0;
#X msg 73 342 0;
#X obj 528 137 outlet;
#X obj 109 241 r \$0-sampup;
#X obj 24 268 * 44.1;
#X obj 80 269 * 44.1;
#X connect 0 0 77 0;
#X connect 0 1 76 0;
#X connect 1 0 3 1;
#X connect 2 0 3 0;
#X connect 3 0 0 1;
#X connect 4 0 5 0;
#X connect 5 0 20 1;
#X connect 6 0 4 0;
#X connect 7 0 6 0;
#X connect 8 0 10 0;
#X connect 9 0 11 0;
#X connect 10 0 9 0;
#X connect 11 0 33 0;
#X connect 12 0 70 0;
#X connect 12 0 15 0;
#X connect 13 0 17 0;
#X connect 13 0 16 0;
#X connect 14 0 17 0;
#X connect 14 0 16 0;
#X connect 15 0 18 0;
#X connect 16 0 70 1;
#X connect 17 0 15 1;
#X connect 19 0 14 0;
#X connect 20 0 8 2;
#X connect 20 0 29 0;
#X connect 20 0 14 1;
#X connect 21 0 88 0;
#X connect 22 0 19 0;
#X connect 22 0 87 0;
#X connect 22 1 21 0;
#X connect 23 0 87 0;
#X connect 25 0 33 1;
#X connect 26 0 28 2;
#X connect 26 0 30 1;
#X connect 27 0 29 1;
#X connect 27 0 28 3;
#X connect 28 0 32 0;
#X connect 29 0 31 0;
#X connect 30 0 28 1;
#X connect 31 0 28 0;
#X connect 31 1 30 0;
#X connect 32 0 25 0;
#X connect 33 0 39 0;
#X connect 34 0 26 0;
#X connect 35 0 27 0;
#X connect 39 0 38 0;
#X connect 39 1 37 0;
#X connect 40 0 41 1;
#X connect 41 0 39 1;
#X connect 42 0 45 0;
#X connect 43 0 42 1;
#X connect 43 0 48 0;
#X connect 44 0 46 0;
#X connect 45 0 44 0;
#X connect 46 0 67 0;
#X connect 47 0 44 1;
#X connect 47 0 50 0;
#X connect 48 0 47 0;
#X connect 49 0 51 0;
#X connect 49 1 51 1;
#X connect 50 0 51 0;
#X connect 51 0 52 0;
#X connect 52 0 59 0;
#X connect 52 1 66 0;
#X connect 53 0 58 0;
#X connect 53 0 65 0;
#X connect 53 1 55 0;
#X connect 53 1 64 0;
#X connect 54 0 53 0;
#X connect 55 0 56 0;
#X connect 55 1 57 1;
#X connect 56 0 57 0;
#X connect 57 0 58 0;
#X connect 58 0 49 0;
#X connect 59 0 62 0;
#X connect 59 1 60 1;
#X connect 60 0 61 0;
#X connect 61 0 63 0;
#X connect 62 0 60 0;
#X connect 63 0 67 1;
#X connect 64 0 63 1;
#X connect 65 0 63 1;
#X connect 66 0 61 0;
#X connect 67 0 41 0;
#X connect 68 0 36 0;
#X connect 69 0 0 0;
#X connect 69 1 2 0;
#X connect 69 1 42 0;
#X connect 70 0 69 0;
#X connect 70 0 74 0;
#X connect 71 0 70 1;
#X connect 72 0 15 1;
#X connect 73 0 23 0;
#X connect 73 0 19 0;
#X connect 73 1 88 0;
#X connect 74 0 75 0;
#X connect 75 0 71 0;
#X connect 75 0 72 0;
#X connect 76 0 73 0;
#X connect 76 1 23 1;
#X connect 76 1 20 0;
#X connect 77 0 22 0;
#X connect 77 1 20 0;
#X connect 77 1 21 1;
#X connect 78 0 79 1;
#X connect 78 0 80 1;
#X connect 78 0 85 0;
#X connect 79 0 81 0;
#X connect 80 0 83 0;
#X connect 81 0 82 0;
#X connect 81 1 8 0;
#X connect 82 0 8 0;
#X connect 83 0 84 0;
#X connect 83 1 8 1;
#X connect 84 0 8 1;
#X connect 86 0 87 1;
#X connect 86 0 88 1;
#X connect 87 0 79 0;
#X connect 88 0 80 0;
#X restore 188 383 pd player~;
#X obj 703 396 r \$0-on;
#X obj 703 436 samplerate~;
#X obj 703 456 * 0.001;
#X obj 703 476 s \$0-sampup;
#X obj 703 416 sel 1;
#X obj 632 285 prepend pchunk;
#X obj 632 183 t b f;
#X msg 665 203 goto \$1;
#X msg 632 203 this;
#X obj 434 48 t b b b;
#X obj 514 68 *~ 0;
#X msg 516 39 1;
#X msg 489 39 0;
#X obj 1163 123 tgl 12 0 \$0-clamp \$0-clamp-set clamp -6 -5 0 8 -204786
-13381 -13381 0 1;
#X obj 610 136 r \$0-sampup;
#X obj 372 -14 r \$0-anal;
#X obj 1084 273 s \$0-on-set;
#X msg 1084 253 1;
#X obj 1084 233 loadbang;
#X obj 1020 99 nbx 4 10 -9999 9999 0 0 \$0-adoff_ms \$0-adoff_ms-set
offset_ms -4 16 0 8 -262144 -1 -1 0 256;
#X obj 632 245 unpack;
#X obj 632 265 pack f f 1;
#X msg 522 228 set 0;
#X obj 1101 16 tgl 15 0 \$0-record \$0-record-set record 17 7 0 18
-86277 -258113 -258113 0 1;
#X obj 522 248 s \$0-record-set;
#X obj 434 8 r \$0-record;
#X obj 434 28 sel 1;
#N canvas 0 22 450 300 shortest 0;
#X obj 112 124 min;
#X obj 43 77 spigot 1;
#X obj 350 57 r \$0-shrt;
#X obj 329 78 == 0;
#X obj 146 67 spigot;
#X obj 204 96 sel 1;
#X msg 198 122 1e+007;
#X obj 142 123 f;
#X obj 69 33 inlet;
#X obj 75 229 outlet;
#X obj 73 181 spigot 1;
#X obj 266 174 r \$0-freeze_dur;
#X obj 192 188 == 0;
#X connect 0 0 7 0;
#X connect 0 0 10 0;
#X connect 1 0 10 0;
#X connect 2 0 3 0;
#X connect 2 0 4 1;
#X connect 2 0 5 0;
#X connect 3 0 1 1;
#X connect 4 0 0 0;
#X connect 5 0 6 0;
#X connect 6 0 0 1;
#X connect 7 0 0 1;
#X connect 8 0 1 0;
#X connect 8 0 4 0;
#X connect 10 0 9 0;
#X connect 11 0 12 0;
#X connect 12 0 10 1;
#X restore 449 461 pd shortest;
#X obj 1140 145 nbx 2 12 1 99 0 0 \$0-repeat \$0-repeat-set repeat
-6 -6 0 10 -231936 -159808 -45076 1 256;
#X obj 1108 157 nbx 4 10 -1e+037 1e+037 0 0 empty empty empty 0 -6
0 10 -262144 -1 -1 0 256;
#X obj 1108 157 nbx 4 10 -1e+037 1e+037 0 0 \$0-duration-num \$0-duration
empty 0 -6 0 10 -262144 -1 -1 0 256;
#X obj 1167 149 tgl 8 0 \$0-rpt_random \$0-rpt_random-set rnd 0 -4
0 8 -231936 -159808 -45076 0 1;
#X obj 1098 157 tgl 10 0 \$0-shrt \$0-shrt-set short -27 5 0 8 -262144
-1 -1 0 1;
#X obj 1151 157 tgl 10 0 \$0-freeze_dur \$0-freeze_dur-set freez 11
5 0 8 -262144 -1 -1 0 1;
#X obj 940 100 nbx 4 10 1 9999 0 0 \$0-min_length \$0-min_length-set
minlen 3 -5 0 8 -262144 -1 -1 10 256;
#X obj 403 213 delay 150;
#X msg 494 228 1;
#X obj 494 208 r \$0-recnow;
#X obj 633 158 r \$0-clist;
#X obj 725 151 r \$0-resize;
#X obj 901 255 symbol input3;
#X obj 1041 443 r \$0-sampup;
#X obj 943 443 r \$0-adoff_ms;
#X obj 947 487 s \$0-adoff;
#X obj 949 465 * 44.1;
#X connect 1 0 76 0;
#X connect 1 0 88 0;
#X connect 2 0 49 0;
#X connect 3 0 2 0;
#X connect 4 0 99 0;
#X connect 5 0 10 0;
#X connect 5 0 13 0;
#X connect 5 0 7 1;
#X connect 5 0 51 0;
#X connect 5 1 63 0;
#X connect 6 0 4 0;
#X connect 6 0 78 0;
#X connect 7 0 109 0;
#X connect 8 0 7 0;
#X connect 9 0 34 0;
#X connect 10 0 9 0;
#X connect 13 0 36 0;
#X connect 14 0 2 0;
#X connect 15 0 23 0;
#X connect 16 0 21 0;
#X connect 20 0 123 1;
#X connect 21 0 22 0;
#X connect 21 1 108 1;
#X connect 21 1 67 0;
#X connect 22 0 123 0;
#X connect 22 1 187 0;
#X connect 23 0 46 0;
#X connect 23 1 24 0;
#X connect 23 2 25 0;
#X connect 23 2 45 0;
#X connect 23 2 89 0;
#X connect 24 0 2 0;
#X connect 24 0 137 0;
#X connect 25 0 2 0;
#X connect 25 0 137 0;
#X connect 26 0 27 0;
#X connect 27 0 29 0;
#X connect 28 0 2 0;
#X connect 28 0 137 0;
#X connect 29 0 30 0;
#X connect 29 0 10 0;
#X connect 29 0 13 0;
#X connect 29 1 28 0;
#X connect 30 0 2 0;
#X connect 30 0 137 0;
#X connect 33 0 8 1;
#X connect 35 0 4 1;
#X connect 40 0 106 0;
#X connect 40 1 14 0;
#X connect 41 0 15 0;
#X connect 41 0 89 0;
#X connect 43 0 78 1;
#X connect 44 0 16 0;
#X connect 45 0 46 1;
#X connect 46 0 44 0;
#X connect 49 0 5 0;
#X connect 50 0 102 0;
#X connect 51 0 4 1;
#X connect 51 0 7 1;
#X connect 52 0 53 0;
#X connect 53 0 54 0;
#X connect 61 0 70 0;
#X connect 62 0 71 0;
#X connect 63 0 66 0;
#X connect 63 1 66 1;
#X connect 66 0 141 0;
#X connect 66 1 141 1;
#X connect 67 0 123 2;
#X connect 68 0 123 2;
#X connect 70 0 113 0;
#X connect 71 0 114 0;
#X connect 72 0 73 0;
#X connect 73 0 74 0;
#X connect 74 0 75 0;
#X connect 75 0 71 1;
#X connect 75 0 70 1;
#X connect 76 0 6 0;
#X connect 76 0 77 0;
#X connect 77 0 76 1;
#X connect 78 0 79 0;
#X connect 79 0 76 1;
#X connect 80 0 79 0;
#X connect 82 0 85 0;
#X connect 83 0 23 0;
#X connect 83 0 87 0;
#X connect 84 0 3 0;
#X connect 84 0 89 0;
#X connect 85 0 93 0;
#X connect 85 0 95 0;
#X connect 85 1 98 0;
#X connect 87 0 2 0;
#X connect 87 1 137 0;
#X connect 88 0 91 0;
#X connect 89 0 88 1;
#X connect 90 0 88 1;
#X connect 91 0 92 0;
#X connect 91 1 92 1;
#X connect 92 0 127 0;
#X connect 92 0 179 0;
#X connect 95 0 94 0;
#X connect 96 0 90 0;
#X connect 99 0 8 0;
#X connect 99 1 117 0;
#X connect 102 1 13 0;
#X connect 102 1 9 0;
#X connect 102 1 51 0;
#X connect 102 1 111 0;
#X connect 103 0 104 0;
#X connect 104 0 105 0;
#X connect 106 0 2 0;
#X connect 107 0 2 0;
#X connect 108 0 2 0;
#X connect 108 1 137 0;
#X connect 109 0 40 0;
#X connect 110 0 26 1;
#X connect 111 0 112 0;
#X connect 112 0 36 0;
#X connect 113 0 37 0;
#X connect 114 0 60 0;
#X connect 115 0 124 0;
#X connect 116 0 126 0;
#X connect 118 0 125 0;
#X connect 122 0 121 0;
#X connect 123 0 108 0;
#X connect 124 0 119 0;
#X connect 125 0 119 0;
#X connect 126 0 119 0;
#X connect 128 0 129 0;
#X connect 128 0 162 0;
#X connect 130 0 131 0;
#X connect 130 1 192 0;
#X connect 131 0 132 0;
#X connect 134 0 135 1;
#X connect 135 0 164 0;
#X connect 135 0 174 0;
#X connect 135 0 187 0;
#X connect 136 0 22 0;
#X connect 136 1 24 0;
#X connect 136 1 67 0;
#X connect 136 1 108 1;
#X connect 136 2 25 0;
#X connect 136 2 89 0;
#X connect 137 0 172 0;
#X connect 138 0 135 0;
#X connect 139 0 63 1;
#X connect 141 0 142 0;
#X connect 141 1 142 1;
#X connect 142 0 143 0;
#X connect 142 1 143 1;
#X connect 143 0 144 0;
#X connect 143 1 144 1;
#X connect 144 0 145 0;
#X connect 144 1 145 1;
#X connect 145 0 146 0;
#X connect 145 1 146 1;
#X connect 146 0 147 0;
#X connect 146 1 147 1;
#X connect 147 0 148 0;
#X connect 147 1 148 1;
#X connect 148 0 149 0;
#X connect 148 1 149 1;
#X connect 149 0 150 0;
#X connect 149 1 150 1;
#X connect 150 0 151 0;
#X connect 150 1 151 1;
#X connect 152 0 156 0;
#X connect 153 0 154 0;
#X connect 154 0 155 0;
#X connect 156 0 153 0;
#X connect 157 0 119 0;
#X connect 158 0 160 0;
#X connect 158 1 159 0;
#X connect 159 0 137 0;
#X connect 160 0 137 0;
#X connect 161 0 89 0;
#X connect 161 0 163 0;
#X connect 161 0 135 0;
#X connect 161 1 108 1;
#X connect 161 1 67 0;
#X connect 161 2 25 0;
#X connect 161 2 129 0;
#X connect 161 2 138 0;
#X connect 162 0 123 0;
#X connect 163 0 162 1;
#X connect 164 0 162 1;
#X connect 166 0 134 1;
#X connect 167 0 136 0;
#X connect 169 0 168 0;
#X connect 170 0 169 0;
#X connect 172 0 173 0;
#X connect 172 1 173 1;
#X connect 173 0 157 0;
#X connect 174 0 176 0;
#X connect 177 0 178 0;
#X connect 178 0 161 0;
#X connect 179 0 97 0;
#X connect 187 0 26 0;
#X connect 187 0 48 0;
#X connect 187 0 68 0;
#X connect 188 0 176 0;
#X connect 189 0 188 0;
#X connect 190 0 158 0;
#X connect 191 0 134 0;
#X connect 191 0 130 0;
#X connect 192 0 131 1;
#X connect 193 0 196 1;
#X connect 194 0 196 0;
#X connect 196 0 195 0;
#X coords 0 -1 1 1 308 160 1 880 10;
