#N canvas 3 89 1074 621 10;
#X declare -lib zexy;
#X obj 190 180 tgl 20 0 empty empty empty 17 7 0 10 -262144 -1 -1 0
1;
#X obj 41 158 spigot 1;
#X obj 164 137 == 0;
#X obj 176 158 spigot;
#X msg 155 111 wave \$1;
#X msg 206 111 vol \$1;
#X obj 239 225 tgl 20 0 empty empty empty 17 7 0 10 -262144 -1 -1 0
1;
#X obj 213 182 == 0;
#X obj 225 203 spigot;
#X obj 296 272 tgl 20 0 empty empty empty 17 7 0 10 -262144 -1 -1 0
1;
#X obj 167 250 spigot 1;
#X obj 270 229 == 0;
#X obj 282 250 spigot;
#X obj 353 319 tgl 20 0 empty empty empty 17 7 0 10 -262144 -1 -1 0
1;
#X obj 234 297 spigot 1;
#X obj 327 276 == 0;
#X obj 339 297 spigot;
#X obj 410 366 tgl 20 0 empty empty empty 17 7 0 10 -262144 -1 -1 0
1;
#X obj 301 344 spigot 1;
#X obj 384 323 == 0;
#X obj 396 344 spigot;
#X obj 467 413 tgl 20 0 empty empty empty 17 7 0 10 -262144 -1 -1 0
1;
#X obj 368 391 spigot 1;
#X obj 441 370 == 0;
#X obj 453 391 spigot;
#X obj 524 460 tgl 20 0 empty empty empty 17 7 0 10 -262144 -1 -1 0
1;
#X obj 435 438 spigot 1;
#X obj 498 417 == 0;
#X obj 510 438 spigot;
#X obj 100 205 spigot 1;
#X obj 456 44 declare -lib zexy;
#X obj 503 265 *~;
#X obj 547 179 dbtorms;
#X obj 503 355 outlet~;
#X obj 782 99 s \$0-volume-set;
#X msg 802 43 100;
#X obj 839 14 loadbang;
#X obj 605 252 outlet;
#X obj 760 306 s \$0-volume-set;
#X msg 758 272 label \$1;
#X obj 566 114 r \$0-volume;
#X obj 768 188 r \$0-volume;
#N canvas 3 89 450 300 limiting 0;
#X obj 301 79 inlet;
#X obj 297 118 switch~;
#X obj 67 154 *~;
#X obj 67 134 z~ 64;
#X obj 91 44 inlet~;
#X obj 67 213 outlet~;
#X obj 92 99 limiter~;
#X connect 0 0 1 0;
#X connect 2 0 5 0;
#X connect 3 0 2 0;
#X connect 4 0 3 0;
#X connect 4 0 6 0;
#X connect 6 0 2 1;
#X restore 538 304 pd limiting;
#X obj 559 76 r \$0-limit;
#X obj 812 146 s \$0-limit-set;
#X msg 811 124 0;
#X obj 539 270 == 0;
#X obj 503 316 *~ 1;
#X msg 599 155 vol \$1;
#X msg 628 183 limit \$1;
#X obj 645 98 s \$0-limit-set;
#X obj 537 232 line~;
#X obj 536 207 pack f 20;
#X obj 774 231 makefilename volume=%d;
#X obj 107 7 inlet;
#X obj 392 104 cnv 15 100 30 empty empty empty 20 12 0 14 -204786 -66577
0;
#X obj 564 510 tgl 20 0 empty empty empty 17 7 0 10 -262144 -1 -1 0
1;
#X obj 475 488 spigot 1;
#X obj 550 488 spigot;
#X obj 397 118 nbx 4 14 0 9999 0 0 empty empty wave 0 -8 0 10 -262144
-1 -1 16 256;
#X obj 445 118 nbx 3 14 0 136 0 0 empty empty pitch 0 -8 0 10 -262144
-1 -1 65 256;
#X obj 261 117 cnv 15 130 15 empty empty empty 6 6 0 7 -261681 -123526
0;
#X obj 349 103 cnv 15 42 29 empty empty empty 4 6 0 7 -261681 -123526
0;
#X obj 268 119 hsl 113 12 0 112 0 0 \$0-volume \$0-volume-set volume=100
4 6 0 8 -261689 -258699 -86147 10000 1;
#X obj 352 106 tgl 10 0 \$0-limit \$0-limit-set limit 11 6 0 8 -86277
-261234 -86277 0 1;
#X obj 84 79 t b b f;
#X obj 166 91 f;
#X obj 88 118 f;
#X obj 350 54 inlet;
#X obj 349 76 route wave pitch;
#X obj 633 63 route vol limit fadetime poly;
#X obj 492 103 cnv 15 25 30 empty empty poly 1 6 0 10 -204800 -13330
0;
#X obj 107 28 spigot 1;
#X msg 493 74 1;
#X obj 590 30 loadbang;
#X msg 383 201 poly \$1;
#X obj 491 119 hradio 8 1 0 3 empty empty empty 0 -8 0 10 -262144 -1
-1 2;
#X obj 208 9 spigot;
#X obj 256 19 == 2;
#X obj 203 54 random 8;
#X obj 212 77 pack f s f f f;
#X obj 300 18 loadbang;
#X obj 208 30 t b f;
#X obj 233 149 route 0 1 2 3 4 5 6 7;
#X msg 291 36 symbol pvoice;
#X obj 477 150 sel 0;
#X msg 477 171 0;
#X obj 41 180 wavevoice~ \$1;
#X obj 100 225 wavevoice~ \$1;
#X obj 167 272 wavevoice~ \$1;
#X obj 234 319 wavevoice~ \$1;
#X obj 301 366 wavevoice~ \$1;
#X obj 368 413 wavevoice~ \$1;
#X obj 435 460 wavevoice~ \$1;
#X obj 475 510 wavevoice~ \$1;
#X obj 383 171 >= 1;
#X obj 166 33 == 1;
#X connect 0 0 3 1;
#X connect 0 0 2 0;
#X connect 1 0 87 0;
#X connect 2 0 1 1;
#X connect 3 0 29 0;
#X connect 3 0 8 0;
#X connect 4 0 1 0;
#X connect 4 0 3 0;
#X connect 5 0 1 0;
#X connect 5 0 3 0;
#X connect 6 0 8 1;
#X connect 6 0 7 0;
#X connect 7 0 29 1;
#X connect 8 0 10 0;
#X connect 8 0 12 0;
#X connect 9 0 12 1;
#X connect 9 0 11 0;
#X connect 10 0 89 0;
#X connect 11 0 10 1;
#X connect 12 0 14 0;
#X connect 12 0 16 0;
#X connect 13 0 16 1;
#X connect 13 0 15 0;
#X connect 14 0 90 0;
#X connect 15 0 14 1;
#X connect 16 0 18 0;
#X connect 16 0 20 0;
#X connect 17 0 20 1;
#X connect 17 0 19 0;
#X connect 18 0 91 0;
#X connect 19 0 18 1;
#X connect 20 0 22 0;
#X connect 20 0 24 0;
#X connect 21 0 24 1;
#X connect 21 0 23 0;
#X connect 22 0 92 0;
#X connect 23 0 22 1;
#X connect 24 0 26 0;
#X connect 24 0 28 0;
#X connect 25 0 28 1;
#X connect 25 0 27 0;
#X connect 26 0 93 0;
#X connect 27 0 26 1;
#X connect 28 0 57 0;
#X connect 28 0 58 0;
#X connect 29 0 88 0;
#X connect 31 0 47 0;
#X connect 31 0 42 0;
#X connect 32 0 52 0;
#X connect 35 0 34 0;
#X connect 36 0 35 0;
#X connect 36 0 45 0;
#X connect 39 0 38 0;
#X connect 40 0 32 0;
#X connect 40 0 48 0;
#X connect 41 0 53 0;
#X connect 42 0 33 0;
#X connect 43 0 42 1;
#X connect 43 0 46 0;
#X connect 43 0 49 0;
#X connect 45 0 44 0;
#X connect 46 0 47 1;
#X connect 47 0 33 0;
#X connect 48 0 37 0;
#X connect 49 0 37 0;
#X connect 51 0 31 1;
#X connect 52 0 51 0;
#X connect 53 0 39 0;
#X connect 54 0 72 0;
#X connect 54 0 77 0;
#X connect 56 0 58 1;
#X connect 57 0 94 0;
#X connect 59 0 66 1;
#X connect 59 0 80 4;
#X connect 60 0 67 1;
#X connect 60 0 80 2;
#X connect 65 0 67 0;
#X connect 65 1 66 0;
#X connect 65 2 5 0;
#X connect 66 0 4 0;
#X connect 67 0 1 0;
#X connect 68 0 69 0;
#X connect 69 0 59 0;
#X connect 69 1 60 0;
#X connect 69 2 70 0;
#X connect 70 0 34 0;
#X connect 70 1 50 0;
#X connect 70 2 52 1;
#X connect 70 3 76 0;
#X connect 72 0 65 0;
#X connect 73 0 76 0;
#X connect 74 0 73 0;
#X connect 75 0 87 0;
#X connect 75 0 88 0;
#X connect 75 0 89 0;
#X connect 75 0 90 0;
#X connect 75 0 91 0;
#X connect 75 0 92 0;
#X connect 75 0 93 0;
#X connect 75 0 94 0;
#X connect 76 0 78 0;
#X connect 76 0 85 0;
#X connect 76 0 95 0;
#X connect 76 0 96 0;
#X connect 77 0 82 0;
#X connect 78 0 77 1;
#X connect 79 0 80 0;
#X connect 80 0 83 0;
#X connect 81 0 84 0;
#X connect 82 0 79 0;
#X connect 82 1 80 3;
#X connect 83 0 87 0;
#X connect 83 1 88 0;
#X connect 83 2 89 0;
#X connect 83 3 90 0;
#X connect 83 4 91 0;
#X connect 83 5 92 0;
#X connect 83 6 93 0;
#X connect 83 7 94 0;
#X connect 84 0 80 1;
#X connect 85 0 86 0;
#X connect 86 0 0 0;
#X connect 86 0 6 0;
#X connect 86 0 9 0;
#X connect 86 0 13 0;
#X connect 86 0 17 0;
#X connect 86 0 21 0;
#X connect 86 0 25 0;
#X connect 86 0 56 0;
#X connect 87 0 31 0;
#X connect 87 1 0 0;
#X connect 88 0 31 0;
#X connect 88 1 6 0;
#X connect 89 0 31 0;
#X connect 89 1 9 0;
#X connect 90 0 31 0;
#X connect 90 1 13 0;
#X connect 91 0 31 0;
#X connect 91 1 17 0;
#X connect 92 0 31 0;
#X connect 92 1 21 0;
#X connect 93 0 31 0;
#X connect 93 1 25 0;
#X connect 94 0 31 0;
#X connect 94 1 56 0;
#X connect 95 0 75 0;
#X connect 96 0 72 1;
#X coords 0 -1 1 1 258 37 1 260 100;
