#N canvas 0 0 1343 665 10;
#X obj 656 5 cnv 15 130 170 empty empty Term_TOP 20 8 1 14 -204786
-13381 0;
#X obj 426 172 cnv 15 900 260 empty empty Dline_input 20 12 1 14 -203904
-16662 0;
#X obj 421 433 cnv 15 600 170 empty empty Scattering 20 12 1 14 -204800
-13330 0;
#X obj 438 604 cnv 15 900 260 empty empty Dline_output 20 12 1 14 -203904
-16662 0;
#X obj 729 452 *~;
#X obj 765 452 *~;
#X obj 740 473 +~;
#X obj 740 493 *~ 2;
#X obj 758 529 /~;
#X text 770 280 V+_1;
#X text 833 436 V+_2;
#X text 756 547 V_J;
#X obj 701 551 -~;
#X obj 790 549 -~;
#X text 723 589 V-_1;
#X text 526 654 V-_2;
#X obj 591 448 loadbang;
#X floatatom 504 543 5 1 60 0 - - -;
#X floatatom 568 542 5 1 60 1 Resistor_2 - -;
#X obj 576 474 16;
#X obj 618 474 1;
#X obj 804 451 delread~ \$0-C 0;
#X obj 659 571 delwrite~ \$0-B 10;
#X obj 514 247 +~;
#X obj 679 185 *~ 0.5;
#X obj 839 143 inlet~;
#X obj 727 247 +~;
#X text 733 177 IN 2;
#X obj 909 187 r \$0-z_IN;
#X obj 727 266 delwrite~ \$0-A 10;
#X obj 727 190 delread~ \$0-B 0;
#X obj 673 24 delread~ \$0-A 0;
#X text 716 631 IN 2;
#X text 756 788 OUT 1;
#X obj 685 709 +~;
#X obj 708 1110 outlet~;
#X obj 718 647 delread~ \$0-D 0;
#X obj 679 773 delwrite~ \$0-C 10;
#X text 539 300 V+_2;
#X obj 948 724 *;
#X obj 1015 724 *;
#X obj 1030 662 -;
#X obj 922 643 t b;
#X msg 1030 643 1;
#X obj 1015 693 t b;
#X obj 948 662 f 0;
#X obj 948 643 r \$0-z_OUT;
#X obj 1030 616 r \$0-pos_OUT;
#X obj 438 865 cnv 15 130 170 empty empty Term_BOTTOM 20 8 1 14 -204786
-13381 0;
#X obj 452 997 delwrite~ \$0-D 10;
#X text 590 1030 OUTPUT;
#X text 839 128 INPUT;
#X obj 718 685 vd~ \$0-OUTL_2 0;
#X obj 494 689 vd~ \$0-OUTR_1 0;
#X obj 494 747 vd~ \$0-OUTR_2 0;
#X obj 718 743 vd~ \$0-OUTL_1 0;
#X obj 948 762 line~;
#X obj 1015 762 line~;
#X obj 727 228 vd~ \$0-INL_2 0;
#X obj 514 228 vd~ \$0-INR_1 0;
#X obj 514 285 vd~ \$0-INR_2 0;
#X obj 907 331 line~;
#X obj 1177 759 r \$0-outpostime;
#X obj 1083 21 r \$0-inpos_st-num;
#X obj 1083 40 * 0.01;
#X obj 726 44 r \$0-topfreq-num;
#X obj 908 46 * 0.01;
#X obj 908 27 r \$0-inpos_ed-num;
#X obj 1064 67 f;
#X obj 897 69 f;
#X obj 1022 37 t b b;
#N canvas 0 0 462 414 originalnotes 0;
#X text 34 154 2-port scattering junction;
#X text 33 175 Creation arguments: 2port <ID> <R1> <R2>;
#X text 33 191 R1 & R2 default to 1;
#X text 33 207 External control s/r: <ID>-R1 = Resistance 1 <ID>-R2
= Resistance 2;
#X text 53 289 Bidirectional Delay Line with variable input;
#X text 51 301 Creation arguments: dline-IN <ID> <delay in ms>;
#X text 51 313 External control s/r: <ID>-z = delay in ms \, <ID>-pos
= input position [0-1];
#X text 127 17 Termination;
#X text 126 31 Creation arguments: Term <ID> <damping freq>;
#X text 125 49 External control s/r: <ID>-f = damping frequency;
#X restore 65 349 pd originalnotes;
#X obj 515 885 r \$0-botfreq-num;
#X obj 1160 627 r \$0-start_OUT;
#X obj 1063 711 *;
#X obj 1108 709 *;
#X obj 1064 87 s \$0-start_IN;
#X obj 1164 647 t b f;
#X obj 1166 683 -;
#X msg 1164 665 1;
#X obj 898 93 s \$0-end_IN;
#X obj 1137 783 line;
#X obj 1114 759 pack f 30;
#X obj 1114 737 r \$0-end_OUT;
#X obj 1137 821 s \$0-outpos-set;
#X obj 1039 813 s \$0-pos_OUT;
#X obj 1032 792 r \$0-outpos;
#X obj 1163 500 * 0.01;
#X obj 988 506 * 0.01;
#X obj 1144 527 f;
#X obj 977 529 f;
#X obj 1112 497 t b b;
#X obj 1144 547 s \$0-start_OUT;
#X obj 978 553 s \$0-end_OUT;
#X obj 988 487 r \$0-outpos_ed-num;
#X obj 1163 481 r \$0-outpos_st-num;
#X obj 1214 48 inlet;
#N canvas 0 0 766 648 automation 0;
#X obj 57 44 inlet;
#X obj 76 501 t f f;
#X obj 96 444 t f f;
#X obj 116 425 s \$0-inpos_st-set;
#X obj 136 406 s \$0-outpos_st-set;
#X obj 156 387 s \$0-inpos_ed-set;
#X obj 176 368 s \$0-outpos_ed-set;
#X obj 196 311 t f f;
#X obj 204 330 s \$0-inpitch-set;
#X obj 196 349 s \$0-inpitch;
#X obj 216 254 t f f;
#X obj 216 292 s \$0-outpitch;
#X obj 224 273 s \$0-outpitch-set;
#X obj 236 235 s \$0-infreq;
#X obj 256 216 s \$0-outfreq;
#X obj 276 197 s \$0-inms;
#X obj 296 178 s \$0-outms;
#X obj 316 159 s \$0-r1;
#X obj 336 140 s \$0-r2;
#X obj 356 121 s \$0-topfreq-set;
#X obj 376 102 s \$0-botfreq-set;
#X obj 96 520 s \$0-inpos_t-set;
#X obj 76 539 s \$0-inpos_t;
#X obj 96 482 s \$0-outpos_t;
#X obj 116 463 s \$0-outpos_t-set;
#X obj 57 67 route slide intime outtime inst outst ined outed pin pout
fin fout msin msout r1 r2 nut bridge;
#X obj 57 558 s \$0-slide-bng;
#X obj 296 551 s \$0-f_ratio_dir-set;
#X obj 309 487 * 100;
#X obj 284 513 s \$0-f_ratio_pc-set;
#X obj 479 528 s \$0-outpos-set;
#X obj 436 553 s \$0-inpos-set;
#X obj 519 508 s \$0-inpline;
#X obj 560 487 s \$0-outpline;
#X obj 651 485 s \$0-porta-set;
#X obj 632 529 s \$0-limit-set;
#X obj 349 455 route frat frd inpos outpos inpline outpline porta limit
on;
#X obj 714 458 outlet;
#X connect 0 0 25 0;
#X connect 1 0 22 0;
#X connect 1 1 21 0;
#X connect 2 0 23 0;
#X connect 2 1 24 0;
#X connect 7 0 9 0;
#X connect 7 1 8 0;
#X connect 10 0 11 0;
#X connect 10 1 12 0;
#X connect 25 0 26 0;
#X connect 25 1 1 0;
#X connect 25 2 2 0;
#X connect 25 3 3 0;
#X connect 25 4 4 0;
#X connect 25 5 5 0;
#X connect 25 6 6 0;
#X connect 25 7 7 0;
#X connect 25 8 10 0;
#X connect 25 9 13 0;
#X connect 25 10 14 0;
#X connect 25 11 15 0;
#X connect 25 12 16 0;
#X connect 25 13 17 0;
#X connect 25 14 18 0;
#X connect 25 15 19 0;
#X connect 25 16 20 0;
#X connect 25 17 36 0;
#X connect 28 0 29 0;
#X connect 36 0 28 0;
#X connect 36 1 27 0;
#X connect 36 2 31 0;
#X connect 36 3 30 0;
#X connect 36 4 32 0;
#X connect 36 5 33 0;
#X connect 36 6 34 0;
#X connect 36 7 35 0;
#X connect 36 8 37 0;
#X restore 1214 67 pd automation;
#N canvas 671 25 502 606 init 0;
#X obj 76 539 s \$0-inpos_t-set;
#X obj 96 482 s \$0-outpos_t-set;
#X obj 116 425 s \$0-inpos_st-set;
#X obj 136 406 s \$0-outpos_st-set;
#X obj 156 387 s \$0-inpos_ed-set;
#X obj 176 368 s \$0-outpos_ed-set;
#X obj 204 330 s \$0-inpitch-set;
#X obj 186 269 s \$0-outpitch-set;
#X obj 228 240 s \$0-r1;
#X obj 248 221 s \$0-r2;
#X msg 204 303 45;
#X msg 184 247 57;
#X msg 218 197 2;
#X msg 250 184 4;
#X obj 77 69 loadbang;
#X obj 77 107 s \$0-topfreq-set;
#X msg 77 88 4714;
#X obj 181 107 s \$0-botfreq-set;
#X msg 181 85 3600;
#X obj 36 206 loadbang;
#X msg 96 361 60;
#X msg 72 393 1;
#X msg 152 302 99;
#X msg 123 329 60;
#X msg 34 513 2500;
#X msg 48 460 1700;
#X obj 337 221 r \$0-f_ratio_pc;
#X obj 337 244 * 0.01;
#X obj 336 267 s \$0-f_ratio;
#X obj 320 198 s \$0-f_ratio_pc-set;
#X obj 317 156 loadbang;
#X msg 320 177 100;
#X connect 10 0 6 0;
#X connect 11 0 7 0;
#X connect 14 0 16 0;
#X connect 14 0 18 0;
#X connect 16 0 15 0;
#X connect 18 0 17 0;
#X connect 19 0 11 0;
#X connect 19 0 10 0;
#X connect 19 0 22 0;
#X connect 19 0 23 0;
#X connect 19 0 20 0;
#X connect 19 0 25 0;
#X connect 19 0 21 0;
#X connect 19 0 24 0;
#X connect 20 0 3 0;
#X connect 21 0 2 0;
#X connect 22 0 5 0;
#X connect 23 0 4 0;
#X connect 24 0 0 0;
#X connect 25 0 1 0;
#X connect 26 0 27 0;
#X connect 27 0 28 0;
#X connect 30 0 31 0;
#X connect 31 0 29 0;
#X restore 1177 121 pd init;
#X obj 170 163 bng 10 250 50 0 \$0-slide \$0-slide-bng slide -27 4
0 9 -45076 -257985 -45076;
#X obj 1016 11 r \$0-slide;
#X obj 1112 462 r \$0-slide;
#X text 26 305 NEXT: get a signal-rate pitch input going for each \,
vibrato gen \, FM string etc;
#X obj 526 495 s \$0-r1;
#X obj 618 493 s \$0-r2;
#X obj 456 514 r \$0-r1-num;
#X obj 536 514 r \$0-r2-num;
#X obj 193 252 hradio 12 1 0 3 \$0-f_ratio_dir \$0-f_ratio_dir-set
in->out 0 18 0 10 -13330 -155444 -13330 0;
#X obj 514 209 delwrite~ \$0-INR_1 10000;
#X obj 514 266 delwrite~ \$0-INR_2 10000;
#X obj 727 209 delwrite~ \$0-INL_2 10000;
#X obj 494 670 delwrite~ \$0-OUTR_1 10000;
#X obj 718 666 delwrite~ \$0-OUTL_2 10000;
#X obj 718 724 delwrite~ \$0-OUTL_1 10000;
#X obj 494 728 delwrite~ \$0-OUTR_2 10000;
#X obj 687 830 hip~ 18;
#X obj 1015 743 pack 0 20;
#X obj 948 743 pack 0 20;
#X obj 1069 678 t b f;
#X text 883 143 <- Excitation input;
#X obj 907 312 pack 0 5;
#X obj 1228 695 unpack;
#X obj 1228 673 r \$0-outpline;
#X obj 1022 234 r \$0-porta;
#X obj 1122 604 r \$0-porta;
#X obj 184 167 nbx 5 10 1 10000 1 0 \$0-porta \$0-porta-set porta 0
-6 0 8 -192251 -13330 -13330 1 256;
#X obj 504 559 pack f 30;
#X obj 504 578 line~;
#X obj 568 558 pack f 30;
#X obj 568 577 line~;
#X obj 777 507 +~;
#X floatatom 186 191 8 20 20000 2 Nut_freq #0-topfreq-set #0-topfreq-num
;
#X obj 81 545 r \$0-inpitch-num;
#X obj 81 564 mtof;
#X obj 81 602 s \$0-infreq;
#X msg 81 583 set \$1;
#X msg 181 583 set \$1;
#X obj 181 545 r \$0-infreq-num;
#X obj 181 602 s \$0-inpitch;
#X obj 181 564 ftom;
#X obj 260 602 s \$0-inpitch-set;
#X obj 114 680 s \$0-inms;
#X obj 114 623 expr 1000/$f1;
#X msg 114 661 set \$1;
#X obj 180 680 s \$0-z_IN;
#X obj 137 498 r \$0-inms-num;
#X obj 49 519 expr 1000/$f1;
#X obj 314 643 == 1;
#X obj 281 663 spigot;
#X obj 281 683 *;
#X obj 327 663 t b f;
#X obj 275 643 f;
#X obj 314 623 r \$0-f_ratio_dir;
#X obj 345 643 r \$0-f_ratio-num;
#X obj 281 703 ftom;
#X obj 308 743 s \$0-outpitch-set;
#X obj 281 723 t f f;
#X obj 281 763 s \$0-outpitch;
#X obj 49 538 * 1;
#X text 10 542 * 0.5;
#X obj 114 642 * 1;
#X text 84 642 * 2;
#X obj 83 802 mtof;
#X msg 83 821 set \$1;
#X msg 183 821 set \$1;
#X obj 183 802 ftom;
#X obj 116 861 expr 1000/$f1;
#X msg 116 899 set \$1;
#X obj 51 757 expr 1000/$f1;
#X obj 139 736 r \$0-outms-num;
#X obj 83 783 r \$0-outpitch-num;
#X obj 195 782 r \$0-outfreq-num;
#X obj 83 840 s \$0-outfreq;
#X obj 183 840 s \$0-outpitch;
#X obj 262 840 s \$0-outpitch-set;
#X obj 116 918 s \$0-outms;
#X obj 182 918 s \$0-z_OUT;
#X obj 283 901 spigot;
#X obj 283 921 *;
#X obj 329 902 t b f;
#X obj 277 881 f;
#X obj 316 861 r \$0-f_ratio_dir;
#X obj 347 881 r \$0-f_ratio-num;
#X obj 283 941 ftom;
#X obj 283 961 t f f;
#X obj 316 881 == 2;
#X obj 310 981 s \$0-inpitch-set;
#X obj 283 1005 s \$0-inpitch;
#X obj 51 776 * 1;
#X text 13 776 * 0.5;
#X text 89 879 * 2;
#X obj 116 880 * 1;
#X obj 318 365 r \$0-f_ratio-num;
#X obj 184 370 r \$0-f_ratio_int;
#X obj 254 457 i;
#X obj 165 438 t b b;
#X obj 42 397 r \$0-f_ratio_dir;
#X obj 75 419 == 1;
#X obj 142 419 == 2;
#X obj 42 439 spigot;
#X obj 109 439 spigot;
#X obj 42 459 s \$0-inpitch-set;
#X obj 146 459 s \$0-outpitch-set;
#X obj 391 15 r \$0-f_ratio_dir;
#X obj 389 36 sel 0 1 2;
#X obj 395 118 s \$0-f_ratio_dir-set;
#X obj 452 928 *~ -1;
#X obj 452 949 lop~ 500;
#X obj 452 970 hip~ 20;
#X obj 673 93 *~ -1;
#X obj 673 114 lop~ 500;
#X obj 673 135 hip~ 20;
#X floatatom 34 190 5 -52 111 2 Inpitch #0-inpitch-set #0-inpitch-num
;
#X floatatom 85 190 7 0.1 5512 2 Infreq #0-infreq #0-infreq-num;
#X floatatom 186 218 8 20 20000 2 Bridge_freq #0-botfreq-set #0-botfreq-num
;
#X floatatom 91 260 8 20 20000 2 Slide #0-outpos_t-set #0-outpostime
;
#X floatatom 36 260 5 0 100 2 Out_start #0-outpos_st-set #0-outpos_st-num
;
#X floatatom 144 260 5 0 100 2 Out_end #0-outpos_ed-set #0-outpos_ed-num
;
#X floatatom 34 218 5 -76 111 2 Outpitch #0-outpitch-set #0-outpitch-num
;
#X floatatom 85 218 7 0.1 5512 2 Outfreq #0-outfreq #0-outfreq-num
;
#X floatatom 138 218 7 1.5 10000 2 Out_ms #0-outms #0-outms-num;
#X floatatom 246 191 5 1 60 2 scatter #0-r1 #0-r1-num;
#X floatatom 246 218 5 1 60 1 - #0-r2 #0-r2-num;
#X msg 388 58 label off;
#X msg 418 78 label in->out;
#X msg 440 98 label out->in;
#X floatatom 138 190 7 1.56 10000 2 In_ms #0-inms #0-inms-num;
#X obj 37 234 hsl 145 12 0 1 0 0 \$0-outpos \$0-outpos-set Pickup_position
25 6 0 10 -262144 -1 -1 0 1;
#X obj 278 398 f;
#X obj 314 398 f;
#X obj 278 438 i;
#X obj 314 438 i;
#X obj 349 436 i;
#X obj 388 436 i;
#X obj 348 398 f;
#X obj 384 398 f;
#X obj 178 393 sel 0 1 2 3 4;
#X obj 186 416 t b b;
#X obj 202 438 t b b;
#X obj 223 416 t b b;
#X obj 239 438 t b b;
#X obj 234 258 hradio 10 1 0 5 \$0-f_ratio_int \$0-f_ratio_int-set
subharmonic -2 -4 0 8 -13381 -204800 -13381 0;
#X obj 220 234 nbx 6 12 1 10000 0 0 \$0-f_ratio_pc \$0-f_ratio_pc-set
empty -45 6 0 10 -13330 -155444 -13330 100 256;
#X obj 220 234 nbx 6 12 0.01 100 0 0 \$0-f_ratio-num \$0-f_ratio io_fr
-31 6 0 10 -13330 -155444 -13330 1 256;
#X obj 1033 1280 clip~ -0.99999 0.99999;
#X obj 696 870 env~;
#X obj 761 929 swap 100;
#X obj 761 952 -;
#X obj 761 985 dbtorms;
#X obj 726 1042 line~;
#X obj 690 910 moses 0;
#X msg 685 929 100;
#X obj 690 967 dbtorms;
#X obj 707 1061 *~;
#X msg 718 929 set 0;
#X obj 690 948 change;
#X obj 696 891 - 99;
#X obj 726 1021 pack f 1.56;
#X obj 690 986 pack f 45;
#X obj 230 166 nbx 5 12 60 112 0 0 \$0-threshold \$0-threshold-set
threshold 0 -6 0 10 -262144 -1 -1 100 256;
#X obj 247 102 s \$0-threshold-set;
#X msg 248 79 100;
#X obj 244 56 loadbang;
#X obj 271 506 s \$0-f_ratio_pc-set;
#X obj 254 480 * 100;
#X obj 278 417 * 2;
#X obj 314 417 * 3;
#X obj 350 417 * 4;
#X obj 388 417 * 5;
#X obj 390 458 * 25;
#X obj 373 484 * 20;
#X obj 320 458 * 33.3333;
#X obj 280 458 * 50;
#X obj 738 872 r \$0-threshold;
#X obj 1242 128 switch~ 1 1 1;
#X obj 126 159 tgl 15 0 \$0-on \$0-on-set on -14 7 0 10 -262144 -1
-1 0 1;
#X connect 4 0 6 0;
#X connect 5 0 6 1;
#X connect 6 0 7 0;
#X connect 7 0 8 0;
#X connect 8 0 12 0;
#X connect 8 0 13 0;
#X connect 12 0 22 0;
#X connect 13 0 111 0;
#X connect 16 0 19 0;
#X connect 16 0 20 0;
#X connect 17 0 126 0;
#X connect 18 0 128 0;
#X connect 19 0 103 0;
#X connect 20 0 104 0;
#X connect 21 0 13 1;
#X connect 21 0 5 0;
#X connect 23 0 109 0;
#X connect 24 0 23 1;
#X connect 24 0 26 1;
#X connect 25 0 24 0;
#X connect 26 0 29 0;
#X connect 28 0 120 0;
#X connect 30 0 110 0;
#X connect 31 0 209 0;
#X connect 34 0 115 0;
#X connect 36 0 112 0;
#X connect 39 0 117 0;
#X connect 40 0 116 0;
#X connect 41 0 40 1;
#X connect 41 0 44 0;
#X connect 42 0 45 0;
#X connect 43 0 41 0;
#X connect 44 0 40 0;
#X connect 45 0 39 0;
#X connect 45 0 40 0;
#X connect 46 0 45 0;
#X connect 46 0 118 0;
#X connect 47 0 41 1;
#X connect 47 0 43 0;
#X connect 47 0 39 1;
#X connect 47 0 42 0;
#X connect 52 0 34 1;
#X connect 52 0 113 0;
#X connect 53 0 34 0;
#X connect 53 0 114 0;
#X connect 54 0 206 0;
#X connect 55 0 37 0;
#X connect 56 0 53 0;
#X connect 56 0 55 0;
#X connect 57 0 52 0;
#X connect 57 0 54 0;
#X connect 58 0 26 0;
#X connect 59 0 23 0;
#X connect 60 0 4 0;
#X connect 60 0 12 1;
#X connect 61 0 59 0;
#X connect 61 0 58 0;
#X connect 62 0 82 1;
#X connect 63 0 64 0;
#X connect 64 0 68 1;
#X connect 65 0 210 1;
#X connect 66 0 69 1;
#X connect 67 0 66 0;
#X connect 68 0 76 0;
#X connect 69 0 80 0;
#X connect 70 0 69 0;
#X connect 70 1 68 0;
#X connect 72 0 207 1;
#X connect 73 0 74 0;
#X connect 73 0 77 0;
#X connect 74 0 56 0;
#X connect 75 0 57 0;
#X connect 77 0 79 0;
#X connect 77 1 78 1;
#X connect 77 1 81 0;
#X connect 78 0 75 0;
#X connect 79 0 78 0;
#X connect 81 0 84 0;
#X connect 82 0 81 0;
#X connect 83 0 82 0;
#X connect 86 0 85 0;
#X connect 87 0 89 1;
#X connect 88 0 90 1;
#X connect 89 0 92 0;
#X connect 90 0 93 0;
#X connect 91 0 90 0;
#X connect 91 1 89 0;
#X connect 94 0 88 0;
#X connect 95 0 87 0;
#X connect 96 0 97 0;
#X connect 97 0 274 0;
#X connect 100 0 70 0;
#X connect 101 0 91 0;
#X connect 105 0 17 0;
#X connect 106 0 18 0;
#X connect 115 0 245 0;
#X connect 115 0 253 0;
#X connect 116 0 57 0;
#X connect 117 0 56 0;
#X connect 118 0 74 0;
#X connect 118 0 75 0;
#X connect 118 1 75 1;
#X connect 118 1 74 1;
#X connect 120 0 61 0;
#X connect 121 0 82 0;
#X connect 121 1 82 1;
#X connect 122 0 121 0;
#X connect 123 0 120 1;
#X connect 124 0 116 1;
#X connect 124 0 117 1;
#X connect 126 0 127 0;
#X connect 127 0 130 0;
#X connect 127 0 4 1;
#X connect 128 0 129 0;
#X connect 129 0 130 1;
#X connect 129 0 5 1;
#X connect 130 0 8 1;
#X connect 132 0 133 0;
#X connect 133 0 135 0;
#X connect 133 0 142 0;
#X connect 133 0 151 0;
#X connect 135 0 134 0;
#X connect 136 0 138 0;
#X connect 136 0 140 0;
#X connect 137 0 139 0;
#X connect 137 0 142 0;
#X connect 137 0 151 0;
#X connect 139 0 136 0;
#X connect 142 0 160 0;
#X connect 143 0 141 0;
#X connect 145 0 146 0;
#X connect 145 0 144 0;
#X connect 146 0 158 0;
#X connect 147 0 148 1;
#X connect 148 0 149 0;
#X connect 149 0 154 0;
#X connect 150 0 151 0;
#X connect 150 1 149 1;
#X connect 151 0 148 0;
#X connect 152 0 147 0;
#X connect 153 0 150 0;
#X connect 154 0 156 0;
#X connect 156 0 157 0;
#X connect 156 1 155 0;
#X connect 158 0 135 0;
#X connect 158 0 139 0;
#X connect 160 0 143 0;
#X connect 160 0 144 0;
#X connect 162 0 163 0;
#X connect 162 0 166 0;
#X connect 162 0 180 0;
#X connect 163 0 172 0;
#X connect 164 0 173 0;
#X connect 164 0 174 0;
#X connect 165 0 164 0;
#X connect 166 0 191 0;
#X connect 167 0 175 0;
#X connect 168 0 188 0;
#X connect 169 0 168 0;
#X connect 169 0 176 0;
#X connect 170 0 162 0;
#X connect 171 0 165 0;
#X connect 171 0 166 0;
#X connect 171 0 180 0;
#X connect 177 0 178 0;
#X connect 178 0 183 0;
#X connect 179 0 180 0;
#X connect 179 1 178 1;
#X connect 180 0 177 0;
#X connect 181 0 185 0;
#X connect 182 0 179 0;
#X connect 183 0 184 0;
#X connect 184 0 187 0;
#X connect 184 1 186 0;
#X connect 185 0 177 1;
#X connect 188 0 163 0;
#X connect 188 0 165 0;
#X connect 191 0 167 0;
#X connect 191 0 176 0;
#X connect 192 0 194 1;
#X connect 192 0 228 1;
#X connect 192 0 229 1;
#X connect 192 0 234 1;
#X connect 192 0 235 1;
#X connect 193 0 236 0;
#X connect 194 0 264 0;
#X connect 195 0 200 0;
#X connect 195 0 199 0;
#X connect 195 1 194 0;
#X connect 196 0 197 0;
#X connect 196 0 198 0;
#X connect 197 0 199 1;
#X connect 198 0 200 1;
#X connect 199 0 201 0;
#X connect 200 0 202 0;
#X connect 203 0 204 0;
#X connect 204 0 223 0;
#X connect 204 1 224 0;
#X connect 204 2 225 0;
#X connect 206 0 207 0;
#X connect 207 0 208 0;
#X connect 208 0 49 0;
#X connect 209 0 210 0;
#X connect 210 0 211 0;
#X connect 211 0 108 0;
#X connect 223 0 205 0;
#X connect 224 0 205 0;
#X connect 225 0 205 0;
#X connect 228 0 265 0;
#X connect 229 0 266 0;
#X connect 230 0 272 0;
#X connect 231 0 271 0;
#X connect 232 0 269 0;
#X connect 233 0 270 0;
#X connect 234 0 267 0;
#X connect 235 0 268 0;
#X connect 236 0 195 0;
#X connect 236 1 237 0;
#X connect 236 2 238 0;
#X connect 236 3 239 0;
#X connect 236 4 240 0;
#X connect 237 0 200 0;
#X connect 237 0 199 0;
#X connect 237 1 228 0;
#X connect 238 0 199 0;
#X connect 238 0 200 0;
#X connect 238 1 229 0;
#X connect 239 0 200 0;
#X connect 239 0 199 0;
#X connect 239 1 234 0;
#X connect 240 0 200 0;
#X connect 240 0 199 0;
#X connect 240 1 235 0;
#X connect 245 0 256 0;
#X connect 246 0 247 0;
#X connect 246 1 247 1;
#X connect 247 0 248 0;
#X connect 248 0 257 0;
#X connect 249 0 253 1;
#X connect 250 0 251 0;
#X connect 250 1 246 0;
#X connect 250 1 254 0;
#X connect 251 0 255 0;
#X connect 252 0 258 0;
#X connect 253 0 35 0;
#X connect 254 0 255 0;
#X connect 255 0 252 0;
#X connect 256 0 250 0;
#X connect 257 0 249 0;
#X connect 258 0 249 0;
#X connect 261 0 260 0;
#X connect 262 0 261 0;
#X connect 264 0 263 0;
#X connect 265 0 230 0;
#X connect 266 0 231 0;
#X connect 267 0 232 0;
#X connect 268 0 233 0;
#X connect 269 0 263 0;
#X connect 270 0 263 0;
#X connect 271 0 263 0;
#X connect 272 0 263 0;
#X connect 273 0 256 1;
#X coords 0 -1 1 1 260 124 1 30 153;
