#N canvas 353 115 1013 653 10;
#X obj 735 70 import bsaylor;
#X obj 543 214 makesymbol s32-%s-%s;
#X obj 451 234 makefilename sizes-32-%d;
#X obj 451 174 + 1;
#X obj 543 194 pack 1 1;
#X obj 543 174 t b f;
#X obj 449 273 tabread sizes-32-1;
#X msg 451 254 set \$1;
#X msg 543 254 setarray \$1;
#X obj 141 271 inlet;
#X obj 533 441 inlet~;
#X obj 663 522 inlet~;
#X text 687 44 #423508 \, #334308 \, #164208;
#X obj 429 347 *;
#X obj 387 266 r \$0-go;
#X obj 549 488 r \$0-pvoc;
#X obj 510 347 *;
#X obj 457 437 pack f f f;
#X obj 474 373 -;
#X obj 429 327 1;
#X obj 509 328 0;
#X obj 444 307 r \$0-end;
#X obj 525 307 r \$0-start;
#X obj 563 355 samplerate~;
#X obj 387 286 t b b b;
#X msg 720 377 0;
#X msg 669 377 1;
#X obj 424 381 f;
#X obj 682 440 s \$0-duration;
#X obj 669 357 t b b f b;
#X obj 682 420 f;
#X msg 824 377 0;
#X msg 773 377 1;
#X obj 773 357 t b b f b;
#X obj 669 337 spigot 1;
#X obj 773 337 spigot 1;
#X obj 820 431 f;
#X obj 820 451 s \$0-stretch;
#X obj 848 411 / 1000;
#X obj 710 400 * 44.1;
#X obj 530 398 abs;
#X msg 424 503 \$3 \, \$1 \$2;
#X obj 424 524 line~;
#X text 732 32 #acff9c;
#X floatatom 671 138 0 0 0 0 - - -;
#X floatatom 671 214 0 0 0 0 - - -;
#X obj 671 168 * 0.0577623;
#X obj 671 194 exp;
#X obj 530 418 / 44.1;
#X msg 754 485 notedur \$1;
#X obj 754 506 outlet;
#X msg 722 254 0;
#X msg 671 254 1;
#X obj 671 117 spigot 1;
#X obj 787 137 * 261.626;
#X obj 787 158 ftom;
#X obj 787 179 - 60;
#X msg 825 219 0;
#X msg 787 219 1;
#X obj 787 117 spigot 1;
#X obj 804 259 s \$0-transpose;
#X obj 352 440 pack f f f;
#X msg 352 503 \$3 \, \$1 \$2;
#X obj 352 523 line;
#X msg 352 544 set \$1;
#X obj 352 565 s \$0-position-set;
#X obj 614 523 line~;
#X obj 290 279 r \$0-position;
#N canvas 5 106 899 655 patches 0;
#X obj 24 140 f;
#X obj 21 97 r \$0-store_patch;
#X obj 19 211 prepend add;
#X obj 19 232 t b a;
#X obj 89 321 msgfile;
#X obj 411 584 spigot;
#X msg 455 585 0;
#X msg 455 568 1;
#X msg 172 289 add patches 0;
#X obj 169 251 loadbang;
#X obj 80 591 route patches;
#X msg 106 238 goto 0;
#X obj 34 297 + 1;
#X obj 18 314 f;
#X msg 18 367 replace patches \$1;
#X msg 69 288 this;
#X obj 18 262 t b b b;
#X msg 545 588 range 1 \$1;
#X obj 346 217 t b f;
#X msg 361 241 goto \$1;
#X msg 326 240 this;
#X obj 453 251 r \$0-patches_load;
#X obj 453 268 openpanel;
#X msg 527 302 read \$1;
#X msg 483 302 goto 0;
#X msg 453 302 this;
#X obj 633 181 r \$0-patches_save;
#X obj 633 209 savepanel;
#X msg 630 282 write \$1;
#X msg 226 222 print;
#X obj 81 561 route list;
#X obj 453 285 t b b a b;
#X msg 469 362 clear;
#X obj 279 193 r \$0-patches_clear;
#X obj 279 214 t b b;
#X obj 753 125 inlet;
#X obj 731 355 outlet;
#X obj 753 170 symbol;
#X obj 830 165 inlet;
#X obj 830 409 random;
#X obj 830 501 outlet;
#X obj 411 601 s \$0-patches-num;
#X obj 545 605 s \$0-patch-set;
#X obj 241 261 r \$0-store_plus;
#X obj 338 261 r \$0-store_minus;
#N canvas 3 50 450 300 plumin 0;
#X obj 127 97 f;
#X obj 169 97 f;
#X obj 119 119 + 1;
#X obj 165 119 - 1;
#X obj 226 35 inlet;
#X obj 153 32 inlet;
#X obj 72 31 inlet;
#X obj 141 147 - 1;
#X obj 323 61 inlet;
#X obj 214 180 %;
#X obj 140 207 + 1;
#X obj 120 256 outlet;
#X obj 105 171 moses 0;
#X obj 92 221 f;
#X obj 87 193 b;
#X connect 0 0 2 0;
#X connect 1 0 3 0;
#X connect 2 0 7 0;
#X connect 3 0 7 0;
#X connect 4 0 1 1;
#X connect 4 0 0 1;
#X connect 5 0 1 0;
#X connect 6 0 0 0;
#X connect 7 0 12 0;
#X connect 8 0 9 1;
#X connect 8 0 13 1;
#X connect 9 0 10 0;
#X connect 10 0 11 0;
#X connect 12 0 14 0;
#X connect 12 1 9 0;
#X connect 13 0 11 0;
#X connect 14 0 13 0;
#X restore 292 288 pd plumin;
#X obj 262 315 s \$0-patch-set;
#X obj 796 129 inlet;
#X obj 632 238 makesymbol %s.pat;
#X obj 417 89 r \$0-sample;
#X obj 433 113 r \$0-samplebox;
#X obj 92 41 r \$0-end;
#X obj 109 61 r \$0-start;
#X obj 72 21 r \$0-duration-num;
#X obj 58 1 r \$0-transpose-num;
#X obj 125 81 r \$0-loop;
#X obj 141 101 r \$0-boomerang;
#X text 337 19 altsamp altsize sbox sample;
#X obj 156 121 r \$0-position;
#X obj 219 61 r \$0-slew;
#X obj 207 40 r \$0-porta;
#X obj 193 19 r \$0-stretch-num;
#X obj 19 190 pack f f f f f f f f f f f s f f f;
#X obj 218 344 unpack f f f f f f f f f f f s f f f;
#X obj 470 537 s \$0-altsamp;
#X obj 470 517 pack s f;
#X obj 107 520 s \$0-transpose-set;
#X obj 87 540 s \$0-transpose;
#X obj 87 499 t f f;
#X obj 125 458 t f f;
#X obj 145 479 s \$0-duration-set;
#X obj 125 499 s \$0-duration;
#X obj 258 474 s \$0-end-set;
#X obj 269 501 s \$0-start-set;
#X obj 285 521 s \$0-loop-set;
#X obj 301 541 s \$0-boomerang-set;
#X obj 316 561 s \$0-position-set;
#X obj 367 480 s \$0-porta-set;
#X obj 379 501 s \$0-slew-set;
#X obj 313 413 t f f;
#X obj 351 372 t f f;
#X obj 351 413 s \$0-stretch;
#X obj 371 393 s \$0-stretch-set;
#X obj 523 493 s \$0-sample-set;
#X obj 549 515 s \$0-samplebox-set;
#X obj 312 52 r \$0-altsamp;
#X obj 310 77 unpack s f;
#X obj 174 0 r \$0-fspeed-num;
#X obj 333 434 s \$0-fspeed-set;
#X obj 313 454 s \$0-fspeed;
#X connect 0 0 62 0;
#X connect 1 0 0 0;
#X connect 2 0 3 0;
#X connect 3 0 16 0;
#X connect 3 1 4 0;
#X connect 4 0 30 0;
#X connect 5 0 6 0;
#X connect 5 0 17 0;
#X connect 5 0 41 0;
#X connect 5 0 45 3;
#X connect 6 0 5 1;
#X connect 7 0 5 1;
#X connect 8 0 4 0;
#X connect 9 0 8 0;
#X connect 10 0 12 0;
#X connect 10 0 5 0;
#X connect 10 0 39 1;
#X connect 10 1 63 0;
#X connect 11 0 4 0;
#X connect 12 0 13 1;
#X connect 13 0 14 0;
#X connect 13 0 17 0;
#X connect 13 0 39 1;
#X connect 13 0 41 0;
#X connect 14 0 4 0;
#X connect 15 0 4 0;
#X connect 16 0 13 0;
#X connect 16 1 15 0;
#X connect 16 2 11 0;
#X connect 17 0 42 0;
#X connect 18 0 20 0;
#X connect 18 1 19 0;
#X connect 18 1 45 2;
#X connect 19 0 4 0;
#X connect 20 0 4 0;
#X connect 21 0 22 0;
#X connect 22 0 31 0;
#X connect 22 0 36 0;
#X connect 23 0 4 0;
#X connect 24 0 4 0;
#X connect 25 0 4 0;
#X connect 26 0 27 0;
#X connect 27 0 48 0;
#X connect 28 0 4 0;
#X connect 29 0 4 0;
#X connect 30 0 10 0;
#X connect 31 0 25 0;
#X connect 31 1 24 0;
#X connect 31 1 7 0;
#X connect 31 2 23 0;
#X connect 31 3 32 0;
#X connect 32 0 4 0;
#X connect 33 0 34 0;
#X connect 34 0 8 0;
#X connect 34 1 32 0;
#X connect 35 0 37 0;
#X connect 37 0 31 0;
#X connect 38 0 39 0;
#X connect 39 0 40 0;
#X connect 43 0 45 0;
#X connect 44 0 45 1;
#X connect 45 0 46 0;
#X connect 47 0 18 0;
#X connect 48 0 28 0;
#X connect 48 0 36 0;
#X connect 49 0 62 13;
#X connect 50 0 62 14;
#X connect 51 0 62 2;
#X connect 52 0 62 3;
#X connect 53 0 62 1;
#X connect 54 0 0 1;
#X connect 55 0 62 4;
#X connect 56 0 62 5;
#X connect 58 0 62 6;
#X connect 59 0 62 10;
#X connect 60 0 62 9;
#X connect 61 0 62 8;
#X connect 62 0 2 0;
#X connect 63 0 68 0;
#X connect 63 1 69 0;
#X connect 63 2 72 0;
#X connect 63 3 73 0;
#X connect 63 4 74 0;
#X connect 63 5 75 0;
#X connect 63 6 76 0;
#X connect 63 7 79 0;
#X connect 63 8 80 0;
#X connect 63 9 77 0;
#X connect 63 10 78 0;
#X connect 63 11 65 0;
#X connect 63 12 65 1;
#X connect 63 13 83 0;
#X connect 63 14 84 0;
#X connect 65 0 64 0;
#X connect 68 0 67 0;
#X connect 68 1 66 0;
#X connect 69 0 71 0;
#X connect 69 1 70 0;
#X connect 79 0 89 0;
#X connect 79 1 88 0;
#X connect 80 0 81 0;
#X connect 80 1 82 0;
#X connect 85 0 86 0;
#X connect 86 0 62 11;
#X connect 86 1 62 12;
#X connect 87 0 62 7;
#X restore 171 345 pd patches;
#X obj 141 418 outlet;
#N canvas 103 287 1049 481 automation 0;
#X obj 158 79 inlet;
#X obj 571 215 outlet;
#X obj 666 171 outlet;
#X obj 513 381 s \$0-altsamp;
#X obj 513 361 pack s f;
#X obj 130 384 s \$0-transpose;
#X obj 168 343 s \$0-duration;
#X obj 394 257 s \$0-stretch;
#X obj 605 104 s \$0-pvoc;
#X obj 356 298 s \$0-fspeed;
#X obj 487 282 t b f;
#X obj 581 187 dbtorms;
#X obj 763 274 s \$0-volrms;
#X obj 158 108 route trans dur end start loop boomer pos fspeed stretch
porta slew altsamp altsize sample samplebox randpat on bank vol wave
waves;
#X obj 301 318 s \$0-end;
#X obj 312 345 s \$0-start;
#X obj 359 405 s \$0-position;
#X obj 410 324 s \$0-porta;
#X obj 422 345 s \$0-slew;
#X obj 566 337 s \$0-sample;
#X obj 592 359 s \$0-samplebox;
#X obj 328 365 s \$0-loop;
#X obj 344 385 s \$0-boomerang;
#X obj 570 277 s \$0-wave;
#X connect 0 0 13 0;
#X connect 4 0 3 0;
#X connect 10 0 4 0;
#X connect 10 1 4 1;
#X connect 11 0 12 0;
#X connect 13 0 5 0;
#X connect 13 1 6 0;
#X connect 13 2 14 0;
#X connect 13 3 15 0;
#X connect 13 4 21 0;
#X connect 13 5 22 0;
#X connect 13 6 16 0;
#X connect 13 7 9 0;
#X connect 13 8 7 0;
#X connect 13 9 17 0;
#X connect 13 10 18 0;
#X connect 13 11 4 0;
#X connect 13 12 10 0;
#X connect 13 13 19 0;
#X connect 13 14 20 0;
#X connect 13 15 1 0;
#X connect 13 16 2 0;
#X connect 13 17 20 0;
#X connect 13 18 11 0;
#X connect 13 19 23 0;
#X connect 13 21 8 0;
#X restore 71 317 pd automation;
#X obj 91 291 route patch file;
#N canvas 482 91 884 492 send-automation 0;
#X obj 18 359 r \$0-patch-num;
#X obj 18 78 inlet;
#X obj 18 99 prepend file;
#X msg 18 399 patch \$1;
#X obj 711 172 r \$0-patch_on;
#X msg 711 192 on \$1;
#X obj 71 55 change;
#X obj 138 79 change;
#X obj 171 105 change;
#X obj 226 118 change;
#X obj 292 139 change;
#X obj 337 149 change;
#X obj 379 173 change;
#X obj 431 197 change;
#X obj 488 210 change;
#X obj 547 233 change;
#X obj 592 257 change;
#X obj 648 274 change;
#X obj 682 337 change;
#X obj 705 40 inlet;
#X obj 646 42 inlet;
#X obj 108 440 outlet;
#X obj 108 339 spigot;
#X msg 704 73 0;
#X msg 646 72 1;
#X obj 618 20 loadbang;
#X obj 18 379 change;
#X msg 125 383 patches \$1;
#X obj 125 363 r \$0-patches-num;
#X obj 651 251 r \$0-sample;
#X obj 717 311 r \$0-samplebox;
#X obj 189 79 r \$0-end;
#X obj 244 95 r \$0-start;
#X obj 138 58 r \$0-duration-num;
#X obj 71 33 r \$0-transpose-num;
#X obj 309 116 r \$0-loop;
#X obj 380 123 r \$0-boomerang;
#X obj 382 151 r \$0-position;
#X obj 600 232 r \$0-slew;
#X obj 549 210 r \$0-porta;
#X obj 521 187 r \$0-stretch-num;
#X msg 71 77 trans \$1;
#X msg 119 99 dur \$1;
#X msg 161 129 end \$1;
#X msg 217 139 start \$1;
#X msg 277 161 loop \$1;
#X msg 311 186 boomer \$1;
#X msg 378 195 pos \$1;
#X msg 480 229 stretch \$1;
#X msg 525 260 porta \$1;
#X msg 591 279 slew \$1;
#X msg 652 307 sample \$1;
#X msg 677 359 samplebox \$1;
#X obj 307 299 r \$0-altsamp;
#X obj 307 319 unpack s f;
#X msg 279 353 altsamp \$1;
#X msg 359 351 altsize \$1;
#X obj 431 174 r \$0-fspeed-num;
#X msg 422 220 fspeed \$1;
#X connect 0 0 26 0;
#X connect 1 0 2 0;
#X connect 2 0 22 0;
#X connect 3 0 21 0;
#X connect 4 0 5 0;
#X connect 5 0 22 0;
#X connect 6 0 41 0;
#X connect 7 0 42 0;
#X connect 8 0 43 0;
#X connect 9 0 44 0;
#X connect 10 0 45 0;
#X connect 11 0 46 0;
#X connect 12 0 47 0;
#X connect 13 0 58 0;
#X connect 14 0 48 0;
#X connect 15 0 49 0;
#X connect 16 0 50 0;
#X connect 17 0 51 0;
#X connect 18 0 52 0;
#X connect 19 0 23 0;
#X connect 20 0 24 0;
#X connect 22 0 21 0;
#X connect 23 0 22 1;
#X connect 24 0 22 1;
#X connect 25 0 24 0;
#X connect 26 0 3 0;
#X connect 27 0 21 0;
#X connect 28 0 27 0;
#X connect 29 0 17 0;
#X connect 30 0 18 0;
#X connect 31 0 8 0;
#X connect 32 0 9 0;
#X connect 33 0 7 0;
#X connect 34 0 6 0;
#X connect 35 0 10 0;
#X connect 36 0 11 0;
#X connect 37 0 12 0;
#X connect 38 0 16 0;
#X connect 39 0 15 0;
#X connect 40 0 14 0;
#X connect 41 0 22 0;
#X connect 42 0 22 0;
#X connect 43 0 22 0;
#X connect 44 0 22 0;
#X connect 45 0 22 0;
#X connect 46 0 22 0;
#X connect 47 0 22 0;
#X connect 48 0 22 0;
#X connect 49 0 22 0;
#X connect 50 0 22 0;
#X connect 51 0 22 0;
#X connect 52 0 22 0;
#X connect 53 0 54 0;
#X connect 54 0 55 0;
#X connect 54 1 56 0;
#X connect 55 0 22 0;
#X connect 56 0 22 0;
#X connect 57 0 13 0;
#X connect 58 0 22 0;
#X restore 176 394 pd send-automation;
#X obj 195 311 t b f b;
#X obj 195 291 r \$0-patch-num;
#X obj 672 490 r \$0-porta;
#X obj 359 347 r \$0-slew;
#X obj 314 347 *;
#X obj 494 566 hip~ 18;
#X obj 56 616 outlet~;
#X obj 533 462 *~ 44.1;
#X obj 183 420 delay 1000;
#X obj 216 439 r \$0-loop;
#X obj 183 460 spigot;
#X obj 230 460 r \$0-boomerang;
#X obj 183 486 spigot;
#X obj 274 486 == 0;
#X obj 250 520 spigot;
#X msg 823 485 samps \$1;
#X obj 579 124 r \$0-altsamp;
#X obj 596 174 route none;
#X obj 600 193 unpack s f;
#X obj 566 274 f;
#X obj 352 420 f;
#X obj 183 507 t b b;
#X obj 210 528 tgl 15 0 empty empty empty 17 7 0 10 -262144 -1 -1 0
1;
#X obj 230 486 sel 1;
#X obj 147 547 spigot;
#X obj 210 547 == 0;
#X obj 190 573 spigot;
#X obj 322 439 f;
#X obj 424 441 f;
#X obj 332 464 pack f f;
#X obj 413 465 pack f f;
#X msg 294 394 stop;
#X obj 37 129 inlet;
#X obj 37 148 route bang;
#X obj 113 226 s \$0-transpose;
#X obj 614 502 pack f 0;
#X obj 316 367 pack f 5;
#X obj 688 294 s \$0-fspeed;
#X obj 563 377 * 0.001;
#X obj 167 176 ==;
#X obj 149 148 f;
#X obj 94 186 t b f f;
#X obj 24 247 spigot;
#X floatatom 11 324 0 0 0 0 - - -;
#X obj 11 278 * 0.0577623;
#X obj 11 304 exp;
#X obj 253 550 sel 0;
#X obj 493 547 bsaylor/pvoc~ s32-1-1 \$1 \$2;
#X obj 628 255 t b;
#X obj 628 273 delay 0;
#X obj 628 292 t b b b;
#X obj 94 167 - 60;
#X obj 454 592 line~;
#X obj 498 594 pack f 20;
#X obj 409 594 *~;
#X msg 583 577 1;
#X obj 629 576 loadbang;
#X obj 687 547 r \$0-volrms;
#X obj 695 606 \$1;
#X obj 677 631 /;
#X obj 620 605 samplerate~;
#X obj 688 580 t b b;
#X obj 617 627 * 0.001;
#X obj 543 148 r \$0-sample;
#X obj 451 148 r \$0-samplebox;
#N canvas 0 0 450 300 init 0;
#X msg 128 105 1;
#X obj 128 126 s \$0-end-set;
#X obj 128 84 loadbang;
#X msg 265 104 0;
#X obj 253 138 s \$0-transpose-set;
#X obj 103 220 s \$0-position-set;
#X connect 0 0 1 0;
#X connect 0 0 5 0;
#X connect 2 0 0 0;
#X connect 2 0 3 0;
#X connect 3 0 4 0;
#X restore 214 152 pd init;
#X text 345 133 altsamp altsize sbox sample;
#X text 30 12 phasevocoder~ 2048 45;
#X obj 319 152 r \$0-wave;
#N canvas 0 0 450 300 format_numbers 0;
#X obj 87 86 moses 10;
#X obj 132 106 moses 100;
#X obj 211 125 moses 1000;
#X obj 169 244 outlet;
#X obj 87 37 inlet;
#X obj 212 192 makesymbol wave_%s;
#X obj 159 172 makesymbol wave_0%s;
#X obj 96 152 makesymbol wave_00%s;
#X obj 27 132 makesymbol wave_000%s;
#X connect 0 0 8 0;
#X connect 0 1 1 0;
#X connect 1 0 7 0;
#X connect 1 1 2 0;
#X connect 2 0 6 0;
#X connect 2 1 5 0;
#X connect 4 0 0 0;
#X connect 5 0 3 0;
#X connect 6 0 3 0;
#X connect 7 0 3 0;
#X connect 8 0 3 0;
#X restore 342 173 pd format_numbers;
#X obj 339 195 tabread wavesizes;
#X obj 787 96 r \$0-fspeed;
#X obj 671 96 r \$0-transpose;
#X obj 787 199 t b f b;
#X obj 671 234 t b f b;
#X obj 773 317 r \$0-duration;
#X obj 669 317 r \$0-stretch;
#X obj 552 331 r \$0-duration;
#X obj 645 465 r \$0-fspeed;
#X obj 37 222 s \$0-go;
#X obj 62 387 switch~;
#X obj 125 367 s \$0-patch-num;
#X connect 1 0 8 0;
#X connect 2 0 7 0;
#X connect 3 0 2 0;
#X connect 3 0 4 0;
#X connect 4 0 1 0;
#X connect 5 0 4 0;
#X connect 5 1 4 1;
#X connect 5 1 6 0;
#X connect 6 0 13 1;
#X connect 6 0 16 1;
#X connect 6 0 88 0;
#X connect 6 0 77 1;
#X connect 6 0 80 1;
#X connect 6 0 121 0;
#X connect 7 0 6 0;
#X connect 8 0 120 0;
#X connect 9 0 71 0;
#X connect 10 0 80 0;
#X connect 11 0 120 1;
#X connect 13 0 18 0;
#X connect 13 0 27 1;
#X connect 14 0 24 0;
#X connect 15 0 120 0;
#X connect 16 0 17 2;
#X connect 16 0 18 1;
#X connect 16 0 101 1;
#X connect 17 0 41 0;
#X connect 18 0 40 0;
#X connect 19 0 13 0;
#X connect 19 0 93 1;
#X connect 20 0 16 0;
#X connect 20 0 61 2;
#X connect 20 0 100 1;
#X connect 21 0 19 1;
#X connect 22 0 20 1;
#X connect 23 0 111 0;
#X connect 24 0 27 0;
#X connect 24 0 81 0;
#X connect 24 0 93 0;
#X connect 24 1 19 0;
#X connect 24 2 20 0;
#X connect 24 2 23 0;
#X connect 25 0 35 1;
#X connect 26 0 35 1;
#X connect 27 0 17 0;
#X connect 29 0 26 0;
#X connect 29 1 30 0;
#X connect 29 2 39 0;
#X connect 29 3 25 0;
#X connect 30 0 28 0;
#X connect 31 0 34 1;
#X connect 32 0 34 1;
#X connect 33 0 32 0;
#X connect 33 1 36 0;
#X connect 33 2 38 0;
#X connect 33 3 31 0;
#X connect 34 0 29 0;
#X connect 35 0 33 0;
#X connect 36 0 37 0;
#X connect 38 0 36 1;
#X connect 39 0 30 1;
#X connect 40 0 48 0;
#X connect 41 0 42 0;
#X connect 42 0 120 0;
#X connect 44 0 46 0;
#X connect 45 0 147 0;
#X connect 46 0 47 0;
#X connect 47 0 45 0;
#X connect 48 0 38 1;
#X connect 48 0 39 1;
#X connect 49 0 50 0;
#X connect 51 0 59 1;
#X connect 52 0 59 1;
#X connect 53 0 44 0;
#X connect 54 0 55 0;
#X connect 55 0 56 0;
#X connect 56 0 146 0;
#X connect 57 0 53 1;
#X connect 58 0 53 1;
#X connect 59 0 54 0;
#X connect 61 0 62 0;
#X connect 62 0 63 0;
#X connect 63 0 64 0;
#X connect 64 0 65 0;
#X connect 66 0 120 1;
#X connect 67 0 77 0;
#X connect 67 0 104 0;
#X connect 67 0 63 0;
#X connect 68 0 72 0;
#X connect 68 1 154 0;
#X connect 70 0 68 2;
#X connect 70 1 153 0;
#X connect 71 0 154 0;
#X connect 71 1 68 0;
#X connect 71 2 70 0;
#X connect 72 0 69 0;
#X connect 73 0 72 1;
#X connect 73 1 68 1;
#X connect 73 2 72 2;
#X connect 74 0 73 0;
#X connect 75 0 108 1;
#X connect 76 0 109 1;
#X connect 77 0 109 0;
#X connect 78 0 127 0;
#X connect 80 0 120 0;
#X connect 81 0 83 0;
#X connect 82 0 83 1;
#X connect 83 0 87 0;
#X connect 83 0 85 0;
#X connect 84 0 85 1;
#X connect 84 0 86 0;
#X connect 84 0 96 0;
#X connect 85 0 94 0;
#X connect 86 0 87 1;
#X connect 87 0 24 0;
#X connect 88 0 50 0;
#X connect 89 0 90 0;
#X connect 90 1 91 0;
#X connect 91 0 8 0;
#X connect 91 1 92 0;
#X connect 92 0 77 1;
#X connect 92 0 13 1;
#X connect 92 0 80 1;
#X connect 92 0 88 0;
#X connect 93 0 61 0;
#X connect 94 0 97 0;
#X connect 94 0 99 0;
#X connect 94 1 81 0;
#X connect 94 1 95 0;
#X connect 95 0 97 1;
#X connect 95 0 98 0;
#X connect 95 0 119 0;
#X connect 96 1 95 0;
#X connect 97 0 100 0;
#X connect 97 0 101 0;
#X connect 98 0 99 1;
#X connect 99 0 93 0;
#X connect 99 0 27 0;
#X connect 100 0 102 0;
#X connect 101 0 103 0;
#X connect 102 0 63 0;
#X connect 103 0 42 0;
#X connect 104 0 81 0;
#X connect 105 0 106 0;
#X connect 106 0 152 0;
#X connect 106 1 124 0;
#X connect 108 0 66 0;
#X connect 109 0 42 0;
#X connect 111 0 48 1;
#X connect 112 0 115 1;
#X connect 113 0 112 1;
#X connect 113 0 115 0;
#X connect 114 0 113 0;
#X connect 114 0 152 0;
#X connect 114 1 107 0;
#X connect 114 2 112 0;
#X connect 114 2 113 1;
#X connect 115 0 117 0;
#X connect 116 0 66 0;
#X connect 117 0 118 0;
#X connect 118 0 116 0;
#X connect 119 0 20 0;
#X connect 119 0 19 0;
#X connect 120 0 78 0;
#X connect 121 0 122 0;
#X connect 122 0 123 0;
#X connect 123 1 19 0;
#X connect 123 2 20 0;
#X connect 123 2 23 0;
#X connect 124 0 114 0;
#X connect 125 0 127 1;
#X connect 126 0 125 0;
#X connect 127 0 79 0;
#X connect 128 0 126 0;
#X connect 129 0 128 0;
#X connect 129 0 134 0;
#X connect 130 0 126 0;
#X connect 131 0 132 1;
#X connect 132 0 126 1;
#X connect 133 0 135 0;
#X connect 134 0 133 0;
#X connect 134 1 131 0;
#X connect 135 0 132 0;
#X connect 136 0 5 0;
#X connect 137 0 3 0;
#X connect 141 0 142 0;
#X connect 141 0 143 0;
#X connect 142 0 8 0;
#X connect 143 0 77 1;
#X connect 143 0 13 1;
#X connect 143 0 80 1;
#X connect 143 0 16 1;
#X connect 143 0 121 0;
#X connect 144 0 59 0;
#X connect 145 0 53 0;
#X connect 146 0 58 0;
#X connect 146 1 60 0;
#X connect 146 2 57 0;
#X connect 147 0 52 0;
#X connect 147 1 110 0;
#X connect 147 2 51 0;
#X connect 148 0 35 0;
#X connect 148 0 49 0;
#X connect 148 0 81 1;
#X connect 149 0 34 0;
#X connect 150 0 17 1;
#X connect 150 0 103 1;
#X connect 150 0 61 1;
#X connect 150 0 102 1;
#X connect 151 0 108 0;
#X coords 0 0 1 1 612 88 0;
