#N canvas 25 123 706 521 10;
#X obj 42 405 *~ 1;
#X obj 42 425 +~ 0;
#X obj 166 326 r \$0-bipolar;
#X obj 163 349 sel 0 1;
#X msg 105 345 1;
#X msg 101 382 0;
#X msg 130 347 0.5;
#X msg 132 381 0.5;
#N canvas 5 48 450 300 init 0;
#X obj 144 162 s \$0-bipolar-set;
#X msg 147 128 1;
#X obj 147 101 loadbang;
#X msg 255 128 0;
#X obj 258 161 s \$0-pw-set;
#X connect 1 0 0 0;
#X connect 2 0 1 0;
#X connect 2 0 3 0;
#X connect 3 0 4 0;
#X restore 362 215 pd init;
#X obj 37 458 outlet~;
#X obj 26 133 inlet;
#X obj 101 77 cnv 15 240 36 empty empty empty 6 8 0 10 -86853 -261682
0;
#X obj 27 275 spigot;
#X obj 60 253 r \$0-sync;
#X obj 88 285 r \$0-phase;
#X obj 27 240 b;
#X obj 143 247 s \$0-phase_deg-set;
#X obj 348 291 / 360;
#X obj 348 268 r \$0-phase_deg;
#X obj 126 427 s \$0-bipolar-set;
#X obj 348 314 s \$0-phase;
#X obj 206 225 s \$0-sync-set;
#X obj 414 77 r \$0-pitch;
#X obj 388 131 mtof;
#X msg 330 165 set \$1;
#X obj 296 191 s \$0-freq-set;
#X obj 483 105 r \$0-freq;
#X obj 482 133 ftom;
#X msg 479 159 set \$1;
#X obj 480 189 s \$0-pitch-set;
#X obj 35 304 line~;
#X obj 125 307 pack f 5;
#X obj 198 284 r \$0-glide;
#X obj 29 478 s \$0-freq-set;
#X obj 57 500 s \$0-pitch-set;
#X obj 265 387 s \$0-glide-set;
#X obj 277 358 s \$0-bipolar-set;
#X msg 161 377 label +-;
#X msg 157 404 label +;
#X obj 574 144 inlet~;
#X obj 38 324 +~;
#X obj 280 489 outlet~;
#X obj 456 222 t b f;
#X obj 474 242 t b f;
#X obj 514 219 t b f;
#X obj 533 236 t b f;
#X obj 548 253 t b f;
#X obj 421 443 outlet;
#X obj 78 211 s \$0-pbang-bng;
#X obj 59 233 r \$0-pbang;
#X obj 73 305 0;
#X obj 410 399 prepend all;
#X msg 412 371 pitch \$1;
#X msg 495 409 freq \$1;
#X obj 496 388 change;
#X obj 412 350 change;
#X obj 512 337 change;
#X msg 511 358 phase \$1;
#X obj 549 387 change;
#X msg 548 408 sync \$1;
#X obj 573 428 change;
#X msg 572 449 glide \$1;
#X obj 610 361 change;
#X msg 609 382 bip \$1;
#X obj 638 151 inlet~;
#X obj 461 309 pack f f f f f f f;
#X obj 38 186 unpack f f f f f f f;
#X obj 573 276 t b f;
#X obj 637 412 change;
#X obj 172 63 cnv 15 169 50 empty empty empty 6 8 0 10 -86853 -261682
0;
#X obj 260 67 nbx 8 12 2e-05 64000 0 0 \$0-freq \$0-freq-set freq -26
6 0 10 -128961 -200668 -102355 2e-05 256;
#X obj 181 95 tgl 14 0 \$0-bipolar \$0-bipolar-set +- 2 -7 0 10 -128961
-200668 -102355 1 1;
#X obj 160 80 tgl 14 0 \$0-sync \$0-sync-set sync -5 18 0 10 -128961
-200668 -200668 0 1;
#X obj 108 93 nbx 4 14 0 360 0 0 \$0-phase_deg \$0-phase_deg-set phase
0 -8 0 10 -128961 -200668 -200668 0 256;
#X obj 277 81 nbx 6 12 -200 154 0 0 \$0-pitch \$0-pitch-set p -9 6
0 10 -128961 -200668 -102355 0 256;
#X obj 294 95 nbx 4 12 0 9999 0 0 \$0-glide \$0-glide-set glide -31
6 0 10 -128961 -200668 -102355 0 256;
#X obj 150 80 bng 10 100 50 0 \$0-pbang \$0-pbang-bng empty 17 7 0
10 -128961 -262130 -262130;
#X msg 278 293 1;
#X obj 277 260 loadbang;
#X msg 641 435 pw \$1;
#N canvas 5 48 450 300 pwosc~ 0;
#X obj 58 94 phasor~ 110;
#X obj 58 115 *~ 2;
#X obj 58 136 -~ 1;
#X obj 58 213 blosc~ comparator;
#X obj 58 156 -~;
#X obj 113 29 inlet;
#X obj 236 45 inlet;
#X obj 54 31 inlet~;
#X obj 58 180 -~;
#X obj 307 54 inlet~;
#X obj 55 244 outlet~;
#X connect 0 0 1 0;
#X connect 1 0 2 0;
#X connect 2 0 4 0;
#X connect 3 0 10 0;
#X connect 4 0 8 0;
#X connect 5 0 0 1;
#X connect 6 0 4 1;
#X connect 7 0 0 0;
#X connect 8 0 3 0;
#X connect 9 0 8 1;
#X restore 38 357 pd pwosc~;
#X obj 74 324 r \$0-pw;
#X obj 212 96 nbx 4 12 -100 100 0 0 \$0-pwalt \$0-pwalt-set empty -14
6 0 10 -128961 -200668 -102355 0 256;
#X obj 212 96 nbx 4 12 -1 1 0 0 \$0-pw \$0-pw-set pw -14 6 0 10 -128961
-200668 -102355 0 256;
#X obj 287 436 s \$0-pwalt-set;
#X obj 525 50 / 100;
#X obj 522 80 s \$0-pw-set;
#X obj 286 417 * 100;
#X obj 525 17 r \$0-pwalt;
#X msg 334 407 0;
#X obj 154 460 t b;
#X obj 159 488 delay 0;
#X obj 16 156 route freq pitch pbang phase sync glide bip pw all;
#X obj 426 107 change;
#X obj 427 129 t b;
#X obj 421 154 del 0;
#X obj 529 126 change;
#X obj 529 145 t b;
#X obj 529 165 del 0;
#X connect 0 0 1 0;
#X connect 1 0 9 0;
#X connect 2 0 3 0;
#X connect 2 0 46 0;
#X connect 3 0 6 0;
#X connect 3 0 7 0;
#X connect 3 0 38 0;
#X connect 3 1 4 0;
#X connect 3 1 5 0;
#X connect 3 1 37 0;
#X connect 4 0 0 1;
#X connect 5 0 1 1;
#X connect 6 0 0 1;
#X connect 7 0 1 1;
#X connect 10 0 92 0;
#X connect 12 0 48 0;
#X connect 12 0 50 0;
#X connect 13 0 12 1;
#X connect 13 0 44 0;
#X connect 14 0 43 0;
#X connect 14 0 50 1;
#X connect 15 0 12 0;
#X connect 17 0 20 0;
#X connect 18 0 17 0;
#X connect 22 0 23 0;
#X connect 22 0 42 0;
#X connect 22 0 55 0;
#X connect 22 0 93 0;
#X connect 23 0 24 0;
#X connect 23 0 31 0;
#X connect 24 0 25 0;
#X connect 26 0 27 0;
#X connect 26 0 31 0;
#X connect 26 0 54 0;
#X connect 26 0 65 0;
#X connect 26 0 96 0;
#X connect 27 0 28 0;
#X connect 28 0 29 0;
#X connect 30 0 40 0;
#X connect 31 0 30 0;
#X connect 32 0 31 1;
#X connect 32 0 45 0;
#X connect 37 0 19 0;
#X connect 38 0 19 0;
#X connect 39 0 40 1;
#X connect 40 0 41 0;
#X connect 40 0 80 0;
#X connect 42 0 65 0;
#X connect 42 1 65 1;
#X connect 43 0 65 0;
#X connect 43 1 56 0;
#X connect 43 1 65 2;
#X connect 44 0 65 0;
#X connect 44 1 58 0;
#X connect 44 1 65 3;
#X connect 45 0 65 0;
#X connect 45 1 60 0;
#X connect 45 1 65 4;
#X connect 46 0 65 0;
#X connect 46 1 62 0;
#X connect 46 1 65 5;
#X connect 49 0 50 0;
#X connect 50 0 80 1;
#X connect 51 0 47 0;
#X connect 52 0 47 0;
#X connect 53 0 47 0;
#X connect 54 0 53 0;
#X connect 55 0 52 0;
#X connect 56 0 57 0;
#X connect 57 0 47 0;
#X connect 58 0 59 0;
#X connect 59 0 47 0;
#X connect 60 0 61 0;
#X connect 61 0 47 0;
#X connect 62 0 63 0;
#X connect 63 0 47 0;
#X connect 64 0 80 3;
#X connect 65 0 51 0;
#X connect 66 0 33 0;
#X connect 66 0 15 0;
#X connect 66 1 34 0;
#X connect 66 1 15 0;
#X connect 66 2 16 0;
#X connect 66 3 21 0;
#X connect 66 4 35 0;
#X connect 66 5 36 0;
#X connect 66 6 87 0;
#X connect 67 0 65 0;
#X connect 67 1 65 6;
#X connect 67 1 68 0;
#X connect 68 0 79 0;
#X connect 77 0 36 0;
#X connect 78 0 77 0;
#X connect 78 0 89 0;
#X connect 79 0 47 0;
#X connect 80 0 0 0;
#X connect 81 0 80 2;
#X connect 85 0 86 0;
#X connect 85 0 67 0;
#X connect 87 0 84 0;
#X connect 88 0 85 0;
#X connect 89 0 87 0;
#X connect 90 0 91 0;
#X connect 91 0 33 0;
#X connect 92 0 15 0;
#X connect 92 0 33 0;
#X connect 92 1 15 0;
#X connect 92 1 34 0;
#X connect 92 1 90 0;
#X connect 92 2 48 0;
#X connect 92 3 16 0;
#X connect 92 4 21 0;
#X connect 92 5 35 0;
#X connect 92 6 36 0;
#X connect 92 7 87 0;
#X connect 92 8 66 0;
#X connect 93 0 94 0;
#X connect 94 0 95 0;
#X connect 95 0 25 0;
#X connect 96 0 97 0;
#X connect 97 0 98 0;
#X connect 98 0 29 0;
#X coords 0 -1 1 1 242 56 1 100 60;
