#N canvas 13 73 1186 506 10;
#X obj 88 67 inlet;
#X obj 88 148 moses -1500;
#X obj 68 180 sel -1501;
#X msg 68 213 0;
#X obj 144 225 t f b;
#X obj 201 225 f;
#X obj 232 176 f;
#X obj 121 124 moses -1;
#X obj 196 122 moses 1;
#X obj 172 149 spigot 1;
#X obj 232 149 spigot 1;
#X obj 423 84 tgl 12 0 empty empty vol 16 6 0 12 -262144 -1 -1 1 1
;
#X obj 463 84 tgl 12 0 empty empty pat 16 6 0 12 -262144 -1 -1 1 1
;
#X obj 1183 40 inlet;
#X msg 411 54 1;
#X obj 388 27 loadbang;
#X floatatom 382 83 3 0 0 1 P+ - -;
#X obj 143 205 +;
#X obj 386 183 == 0;
#X obj 346 211 spigot;
#X msg 346 233 127;
#X msg 240 233 patch \$1;
#X obj 429 381 outlet;
#X obj 235 201 change;
#X obj 303 150 sel 0;
#X msg 281 174 set -1;
#X obj 824 102 inlet;
#X obj 795 172 moses -1500;
#X obj 775 204 sel -1501;
#X msg 775 237 0;
#X obj 851 249 t f b;
#X obj 908 249 f;
#X obj 939 200 f;
#X obj 828 148 moses -1;
#X obj 903 146 moses 1;
#X obj 879 173 spigot 1;
#X obj 939 173 spigot 1;
#X obj 594 84 tgl 12 0 empty empty vol 16 6 0 12 -262144 -1 -1 1 1
;
#X obj 634 84 tgl 12 0 empty empty pat 16 6 0 12 -262144 -1 -1 1 1
;
#X obj 1231 38 inlet;
#X msg 717 61 1;
#X obj 748 41 loadbang;
#X floatatom 553 83 3 0 0 1 P+ - -;
#X obj 850 229 +;
#X obj 1093 207 == 0;
#X obj 1053 235 spigot;
#X msg 1053 257 127;
#X msg 947 257 patch \$1;
#X obj 1039 82 pack;
#X obj 1134 331 outlet;
#X obj 942 225 change;
#X obj 1026 171 sel 0;
#X msg 988 198 set -1;
#X msg 1121 267 slide;
#X msg 1169 268 pin \$1;
#X msg 1222 268 pout \$1;
#X msg 1259 236 r1 \$1;
#X msg 1287 258 r2 \$1;
#X msg 1310 232 nut \$1;
#X msg 1335 252 bridge \$1;
#X msg 1385 205 frat \$1;
#X msg 1412 185 frd \$1;
#X msg 1474 187 inpos \$1;
#X msg 1497 209 outpos \$1;
#X msg 1548 181 porta \$1;
#X obj 1083 37 inlet;
#X obj 1084 59 unpack f f f f f f f f;
#X obj 824 123 unpack f f f f;
#X obj 117 97 unpack f f f f;
#X msg 425 187 rspect;
#X msg 449 213 ntype \$1;
#X msg 463 238 warp \$1;
#X msg 621 346 porta \$1;
#X msg 478 261 attack \$1;
#X msg 492 285 decay \$1;
#X msg 508 307 release \$1;
#X msg 525 328 fm_trans \$1;
#X msg 573 370 wmult \$1;
#X msg 547 347 noise \$1;
#X msg 193 263 vol \$1;
#X msg 554 248 bias \$1;
#X msg 568 272 tail \$1;
#X obj 357 135 route 31 32 33 34 35 36 37 38 39 40 41 42 43;
#X msg 654 370 shape \$1;
#X obj 979 107 spigot 1;
#X obj 672 84 tgl 12 0 empty empty auto 16 6 0 12 -262144 -1 -1 1 1
;
#X obj 846 62 route vol patch trans auto;
#X msg 863 290 vol \$1;
#X obj 496 50 route vol patch trans auto;
#X obj 503 84 tgl 12 0 empty empty auto 16 6 0 12 -262144 -1 -1 1 1
;
#X obj 468 106 spigot 1;
#X obj 1479 344 outlet;
#X msg 943 351 pin \$1;
#X obj 1194 154 route 61 62 63 64 65 66 67 68 69 70 71 72;
#X msg 998 351 pout \$1;
#X obj 942 321 spigot 1;
#X obj 1006 321 spigot;
#X obj 985 301 < 2;
#X obj 1044 300 > 1;
#X connect 0 0 68 0;
#X connect 1 0 2 0;
#X connect 1 1 17 0;
#X connect 2 0 3 0;
#X connect 3 0 79 0;
#X connect 4 0 22 0;
#X connect 4 1 9 0;
#X connect 4 1 10 0;
#X connect 4 1 19 0;
#X connect 5 0 79 0;
#X connect 6 0 23 0;
#X connect 7 1 5 1;
#X connect 8 1 6 1;
#X connect 9 0 5 0;
#X connect 10 0 6 0;
#X connect 11 0 9 1;
#X connect 11 0 18 0;
#X connect 12 0 10 1;
#X connect 12 0 24 0;
#X connect 13 0 88 0;
#X connect 14 0 11 0;
#X connect 14 0 12 0;
#X connect 14 0 89 0;
#X connect 15 0 14 0;
#X connect 16 0 17 1;
#X connect 17 0 4 0;
#X connect 18 0 19 1;
#X connect 19 0 20 0;
#X connect 20 0 79 0;
#X connect 21 0 22 0;
#X connect 23 0 21 0;
#X connect 24 0 25 0;
#X connect 25 0 23 0;
#X connect 26 0 67 0;
#X connect 27 0 28 0;
#X connect 27 1 43 0;
#X connect 28 0 29 0;
#X connect 29 0 87 0;
#X connect 30 0 95 0;
#X connect 30 0 96 0;
#X connect 30 1 35 0;
#X connect 30 1 36 0;
#X connect 30 1 45 0;
#X connect 31 0 87 0;
#X connect 32 0 50 0;
#X connect 33 1 31 1;
#X connect 34 1 32 1;
#X connect 35 0 31 0;
#X connect 36 0 32 0;
#X connect 37 0 35 1;
#X connect 37 0 44 0;
#X connect 38 0 36 1;
#X connect 38 0 51 0;
#X connect 39 0 86 0;
#X connect 40 0 37 0;
#X connect 40 0 38 0;
#X connect 40 0 85 0;
#X connect 41 0 40 0;
#X connect 42 0 43 1;
#X connect 43 0 30 0;
#X connect 44 0 45 1;
#X connect 45 0 46 0;
#X connect 46 0 87 0;
#X connect 47 0 49 0;
#X connect 48 0 84 0;
#X connect 48 0 90 0;
#X connect 48 0 91 0;
#X connect 50 0 47 0;
#X connect 51 0 52 0;
#X connect 52 0 50 0;
#X connect 53 0 49 0;
#X connect 54 0 49 0;
#X connect 55 0 49 0;
#X connect 56 0 49 0;
#X connect 57 0 49 0;
#X connect 58 0 49 0;
#X connect 59 0 49 0;
#X connect 60 0 49 0;
#X connect 61 0 49 0;
#X connect 62 0 49 0;
#X connect 63 0 49 0;
#X connect 64 0 49 0;
#X connect 65 0 66 0;
#X connect 66 0 48 0;
#X connect 66 1 48 1;
#X connect 66 2 48 0;
#X connect 66 3 48 1;
#X connect 66 4 48 0;
#X connect 66 5 48 1;
#X connect 66 6 48 0;
#X connect 66 7 48 1;
#X connect 67 0 27 0;
#X connect 67 1 33 0;
#X connect 67 2 34 0;
#X connect 68 0 1 0;
#X connect 68 1 7 0;
#X connect 68 2 8 0;
#X connect 69 0 22 0;
#X connect 70 0 22 0;
#X connect 71 0 22 0;
#X connect 72 0 22 0;
#X connect 73 0 22 0;
#X connect 74 0 22 0;
#X connect 75 0 22 0;
#X connect 76 0 22 0;
#X connect 77 0 22 0;
#X connect 78 0 22 0;
#X connect 79 0 22 0;
#X connect 80 0 22 0;
#X connect 81 0 22 0;
#X connect 82 0 69 0;
#X connect 82 1 70 0;
#X connect 82 2 71 0;
#X connect 82 3 73 0;
#X connect 82 4 74 0;
#X connect 82 5 75 0;
#X connect 82 6 80 0;
#X connect 82 7 81 0;
#X connect 82 8 76 0;
#X connect 82 9 78 0;
#X connect 82 10 77 0;
#X connect 82 11 72 0;
#X connect 82 12 83 0;
#X connect 83 0 22 0;
#X connect 84 0 93 0;
#X connect 85 0 84 1;
#X connect 86 0 37 0;
#X connect 86 1 38 0;
#X connect 86 2 42 0;
#X connect 86 3 85 0;
#X connect 87 0 49 0;
#X connect 88 0 11 0;
#X connect 88 1 12 0;
#X connect 88 2 16 0;
#X connect 89 0 90 1;
#X connect 90 0 82 0;
#X connect 92 0 49 0;
#X connect 93 0 53 0;
#X connect 93 1 54 0;
#X connect 93 2 55 0;
#X connect 93 3 56 0;
#X connect 93 4 57 0;
#X connect 93 5 58 0;
#X connect 93 6 59 0;
#X connect 93 7 60 0;
#X connect 93 8 61 0;
#X connect 93 8 97 0;
#X connect 93 8 98 0;
#X connect 93 9 62 0;
#X connect 93 10 63 0;
#X connect 93 11 64 0;
#X connect 94 0 49 0;
#X connect 95 0 92 0;
#X connect 96 0 94 0;
#X connect 97 0 95 1;
#X connect 98 0 96 1;
#X coords 0 -1 1 1 420 20 1 300 80;
