#N canvas 3 89 1149 676 10;
#X obj 593 328 tgl 15 0 empty empty empty 17 7 0 10 -262144 -1 -1 1
1;
#X msg 593 347 hp \$1;
#X text 586 311 highpass**;
#X floatatom 302 186 5 0 0 0 - - -;
#X text 297 159 decay;
#X text 293 169 modify***;
#X msg 616 203 ftype \$1;
#X msg 722 202 q \$1;
#X msg 425 230 off+ \$1;
#X msg 483 227 noise \$1;
#X msg 798 236 ntype \$1;
#X msg 549 242 warp \$1;
#X msg 381 231 egx \$1;
#X obj 381 185 vsl 15 21 0.25 4 1 1 empty empty empty 0 -9 0 10 -262144
-1 -1 1000 1;
#X floatatom 381 212 5 0 0 0 - - -;
#X obj 437 185 vsl 15 21 -99 99 0 1 empty empty empty 0 -9 0 10 -262144
-1 -1 1000 1;
#X floatatom 437 212 5 0 0 0 - - -;
#X text 369 167 depth;
#X text 430 167 offset;
#X text 369 146 filter frequency;
#X text 369 157 multipliers******;
#X obj 798 216 hradio 17 1 0 3 empty empty White 0 -8 0 10 -262144
-1 -1 0;
#N canvas 0 50 450 300 lbl 0;
#X obj 96 62 inlet;
#X obj 102 154 outlet;
#X obj 94 89 sel 0 1 2;
#X msg 59 118 label White;
#X msg 151 120 label Pink;
#X msg 231 121 label FM;
#X connect 0 0 2 0;
#X connect 2 0 3 0;
#X connect 2 1 4 0;
#X connect 2 2 5 0;
#X connect 3 0 1 0;
#X connect 4 0 1 0;
#X connect 5 0 1 0;
#X restore 850 216 pd lbl;
#X floatatom 483 208 3 0 100 0 - - -;
#X text 477 180 noise;
#X text 477 192 level;
#X obj 616 182 hradio 17 1 0 3 empty empty Low 0 -8 0 10 -262144 -1
-1 0;
#N canvas 0 50 450 300 lbl 0;
#X obj 96 62 inlet;
#X obj 102 154 outlet;
#X obj 94 89 sel 0 1 2;
#X msg 55 118 label Low;
#X msg 124 117 label High;
#X msg 202 118 label Band;
#X connect 0 0 2 0;
#X connect 2 0 3 0;
#X connect 2 1 4 0;
#X connect 2 2 5 0;
#X connect 3 0 1 0;
#X connect 4 0 1 0;
#X connect 5 0 1 0;
#X restore 668 182 pd lbl;
#X floatatom 549 180 5 0 0 2 - - -;
#X obj 549 200 / 10;
#X floatatom 549 221 5 0 0 0 - - -;
#X text 531 153 modulation;
#X text 545 163 index;
#X text 393 250 filter;
#X text 398 263 type;
#X obj 722 184 nbx 5 14 0 1 0 0 empty empty filter_q 0 -8 0 10 -262144
-1 -1 0 256;
#X msg 831 185 rspect;
#X text 821 154 randomized;
#X text 810 166 fm frequencies;
#X msg 302 208 dmodify \$1;
#X msg 239 211 patch \$1;
#X obj 31 374 moses -1500;
#X obj 31 267 inlet;
#X obj 31 600 outlet;
#X obj 92 570 +;
#X obj 31 321 unpack f f f f;
#X obj 593 269 loadbang;
#X msg 593 291 1;
#X obj 298 27 inlet;
#X obj 298 48 unpack f f f f f f f f f f f f f f f f;
#X obj 298 71 pack;
#X obj 328 71 pack;
#X obj 358 71 pack;
#X obj 388 71 pack;
#X obj 418 71 pack;
#X obj 448 71 pack;
#X obj 478 71 pack;
#X obj 508 71 pack;
#X obj 481 602 outlet;
#X floatatom 124 256 5 0 0 0 +/- - -;
#X obj 159 257 tgl 15 0 empty empty pitch 17 7 1 10 -262144 -1 -1 1
1;
#X obj 92 548 spigot 1;
#X obj 104 191 loadbang;
#X msg 104 213 1;
#X obj 204 257 tgl 15 0 empty empty vol 17 7 1 10 -262144 -1 -1 0 1
;
#X obj 31 547 spigot;
#X obj 64 526 == 0;
#X obj 31 569 t b;
#X msg 481 534 vol \$1;
#X obj 481 514 spigot;
#X obj 298 121 route 10 11 12 13 14 15 16 17 18 19;
#X obj 481 494 spigot;
#X obj 31 489 spigot;
#X obj 64 468 == 1;
#X obj 514 473 == 1;
#X obj 161 600 outlet;
#X obj 161 489 spigot;
#X obj 301 600 outlet;
#X obj 301 489 spigot;
#X obj 194 468 == 2;
#X obj 334 468 == 3;
#X obj 1253 328 tgl 15 0 empty empty empty 17 7 0 10 -262144 -1 -1
1 1;
#X msg 1253 347 hp \$1;
#X text 1246 311 highpass**;
#X floatatom 962 186 5 0 0 0 - - -;
#X text 957 159 decay;
#X text 953 169 modify***;
#X msg 1276 203 ftype \$1;
#X msg 1382 202 q \$1;
#X msg 1085 230 off+ \$1;
#X msg 1143 227 noise \$1;
#X msg 1458 236 ntype \$1;
#X msg 1209 242 warp \$1;
#X msg 1041 231 egx \$1;
#X obj 1041 185 vsl 15 21 0.25 4 1 1 empty empty empty 0 -9 0 10 -262144
-1 -1 1000 1;
#X floatatom 1041 212 5 0 0 0 - - -;
#X obj 1097 185 vsl 15 21 -99 99 0 1 empty empty empty 0 -9 0 10 -262144
-1 -1 1000 1;
#X floatatom 1097 212 5 0 0 0 - - -;
#X text 1029 167 depth;
#X text 1090 167 offset;
#X text 1029 146 filter frequency;
#X text 1029 157 multipliers******;
#X obj 1458 216 hradio 17 1 0 3 empty empty White 0 -8 0 10 -262144
-1 -1 0;
#N canvas 0 50 450 300 lbl 0;
#X obj 96 62 inlet;
#X obj 102 154 outlet;
#X obj 94 89 sel 0 1 2;
#X msg 59 118 label White;
#X msg 151 120 label Pink;
#X msg 231 121 label FM;
#X connect 0 0 2 0;
#X connect 2 0 3 0;
#X connect 2 1 4 0;
#X connect 2 2 5 0;
#X connect 3 0 1 0;
#X connect 4 0 1 0;
#X connect 5 0 1 0;
#X restore 1510 216 pd lbl;
#X floatatom 1143 208 3 0 100 0 - - -;
#X text 1137 180 noise;
#X text 1137 192 level;
#X obj 1276 182 hradio 17 1 0 3 empty empty Low 0 -8 0 10 -262144 -1
-1 0;
#N canvas 0 50 450 300 lbl 0;
#X obj 96 62 inlet;
#X obj 102 154 outlet;
#X obj 94 89 sel 0 1 2;
#X msg 55 118 label Low;
#X msg 124 117 label High;
#X msg 202 118 label Band;
#X connect 0 0 2 0;
#X connect 2 0 3 0;
#X connect 2 1 4 0;
#X connect 2 2 5 0;
#X connect 3 0 1 0;
#X connect 4 0 1 0;
#X connect 5 0 1 0;
#X restore 1328 182 pd lbl;
#X floatatom 1209 180 5 0 0 2 - - -;
#X obj 1209 200 / 10;
#X floatatom 1209 221 5 0 0 0 - - -;
#X text 1191 153 modulation;
#X text 1205 163 index;
#X text 1053 250 filter;
#X text 1058 263 type;
#X obj 1382 184 nbx 5 14 0 1 0 0 empty empty filter_q 0 -8 0 10 -262144
-1 -1 0 256;
#X msg 1491 185 rspect;
#X text 1481 154 randomized;
#X text 1470 166 fm frequencies;
#X msg 962 208 dmodify \$1;
#X msg 899 211 patch \$1;
#X obj 1253 269 loadbang;
#X msg 1253 291 1;
#X obj 551 602 outlet;
#X obj 1913 328 tgl 15 0 empty empty empty 17 7 0 10 -262144 -1 -1
1 1;
#X msg 1913 347 hp \$1;
#X text 1906 311 highpass**;
#X floatatom 1622 186 5 0 0 0 - - -;
#X text 1617 159 decay;
#X text 1613 169 modify***;
#X msg 1936 203 ftype \$1;
#X msg 2042 202 q \$1;
#X msg 1745 230 off+ \$1;
#X msg 1803 227 noise \$1;
#X msg 2118 236 ntype \$1;
#X msg 1869 242 warp \$1;
#X msg 1701 231 egx \$1;
#X obj 1701 185 vsl 15 21 0.25 4 1 1 empty empty empty 0 -9 0 10 -262144
-1 -1 1000 1;
#X floatatom 1701 212 5 0 0 0 - - -;
#X obj 1757 185 vsl 15 21 -99 99 0 1 empty empty empty 0 -9 0 10 -262144
-1 -1 1000 1;
#X floatatom 1757 212 5 0 0 0 - - -;
#X text 1689 167 depth;
#X text 1750 167 offset;
#X text 1689 146 filter frequency;
#X text 1689 157 multipliers******;
#X obj 2118 216 hradio 17 1 0 3 empty empty White 0 -8 0 10 -262144
-1 -1 0;
#N canvas 0 50 450 300 lbl 0;
#X obj 96 62 inlet;
#X obj 102 154 outlet;
#X obj 94 89 sel 0 1 2;
#X msg 59 118 label White;
#X msg 151 120 label Pink;
#X msg 231 121 label FM;
#X connect 0 0 2 0;
#X connect 2 0 3 0;
#X connect 2 1 4 0;
#X connect 2 2 5 0;
#X connect 3 0 1 0;
#X connect 4 0 1 0;
#X connect 5 0 1 0;
#X restore 2170 216 pd lbl;
#X floatatom 1803 208 3 0 100 0 - - -;
#X text 1797 180 noise;
#X text 1797 192 level;
#X obj 1936 182 hradio 17 1 0 3 empty empty Low 0 -8 0 10 -262144 -1
-1 0;
#N canvas 0 50 450 300 lbl 0;
#X obj 96 62 inlet;
#X obj 102 154 outlet;
#X obj 94 89 sel 0 1 2;
#X msg 55 118 label Low;
#X msg 124 117 label High;
#X msg 202 118 label Band;
#X connect 0 0 2 0;
#X connect 2 0 3 0;
#X connect 2 1 4 0;
#X connect 2 2 5 0;
#X connect 3 0 1 0;
#X connect 4 0 1 0;
#X connect 5 0 1 0;
#X restore 1988 182 pd lbl;
#X floatatom 1869 180 5 0 0 2 - - -;
#X obj 1869 200 / 10;
#X floatatom 1869 221 5 0 0 0 - - -;
#X text 1851 153 modulation;
#X text 1865 163 index;
#X text 1713 250 filter;
#X text 1718 263 type;
#X obj 2042 184 nbx 5 14 0 1 0 0 empty empty filter_q 0 -8 0 10 -262144
-1 -1 0 256;
#X msg 2151 185 rspect;
#X text 2141 154 randomized;
#X text 2130 166 fm frequencies;
#X msg 1622 208 dmodify \$1;
#X msg 1559 211 patch \$1;
#X obj 1913 269 loadbang;
#X msg 1913 291 1;
#X obj 621 602 outlet;
#X obj 958 121 route 20 21 22 23 24 25 26 27 28 29;
#X obj 1618 121 route 30 31 32 33 34 35 36 37 38 39;
#X obj 551 494 spigot;
#X obj 621 494 spigot;
#X obj 584 473 == 2;
#X obj 654 473 == 3;
#X floatatom 124 274 5 0 0 0 +/- - -;
#X obj 159 275 tgl 15 0 empty empty pitch 17 7 1 10 -262144 -1 -1 0
1;
#X obj 204 275 tgl 15 0 empty empty vol 17 7 1 10 -262144 -1 -1 0 1
;
#X floatatom 124 292 5 0 0 0 +/- - -;
#X obj 159 293 tgl 15 0 empty empty pitch 17 7 1 10 -262144 -1 -1 0
1;
#X obj 204 293 tgl 15 0 empty empty vol 17 7 1 10 -262144 -1 -1 0 1
;
#X msg 551 534 vol \$1;
#X obj 551 514 spigot;
#X msg 621 534 vol \$1;
#X obj 621 514 spigot;
#X obj 222 570 +;
#X obj 222 548 spigot 1;
#X obj 161 547 spigot;
#X obj 194 526 == 0;
#X obj 161 569 t b;
#X obj 362 570 +;
#X obj 362 548 spigot 1;
#X obj 301 547 spigot;
#X obj 334 526 == 0;
#X obj 301 569 t b;
#X obj 77 108 route 1 2 3 4 5 6 7 8 9;
#X connect 0 0 1 0;
#X connect 1 0 58 0;
#X connect 3 0 39 0;
#X connect 6 0 58 0;
#X connect 7 0 58 0;
#X connect 8 0 58 0;
#X connect 9 0 58 0;
#X connect 10 0 58 0;
#X connect 11 0 58 0;
#X connect 12 0 58 0;
#X connect 13 0 14 0;
#X connect 14 0 12 0;
#X connect 15 0 16 0;
#X connect 16 0 8 0;
#X connect 21 0 10 0;
#X connect 21 0 22 0;
#X connect 22 0 21 0;
#X connect 23 0 9 0;
#X connect 26 0 27 0;
#X connect 26 0 6 0;
#X connect 27 0 26 0;
#X connect 28 0 29 0;
#X connect 29 0 30 0;
#X connect 30 0 11 0;
#X connect 35 0 7 0;
#X connect 36 0 58 0;
#X connect 39 0 58 0;
#X connect 40 0 58 0;
#X connect 41 1 72 0;
#X connect 41 1 76 0;
#X connect 41 1 78 0;
#X connect 42 0 45 0;
#X connect 44 0 43 0;
#X connect 45 0 41 0;
#X connect 45 1 71 0;
#X connect 45 1 171 0;
#X connect 45 1 172 0;
#X connect 45 2 73 0;
#X connect 45 2 80 0;
#X connect 45 2 79 0;
#X connect 45 2 174 0;
#X connect 45 2 173 0;
#X connect 45 2 74 0;
#X connect 46 0 47 0;
#X connect 47 0 0 0;
#X connect 48 0 49 0;
#X connect 49 0 50 0;
#X connect 49 1 50 1;
#X connect 49 2 51 0;
#X connect 49 3 51 1;
#X connect 49 4 52 0;
#X connect 49 5 52 1;
#X connect 49 6 53 0;
#X connect 49 7 53 1;
#X connect 49 8 54 0;
#X connect 49 9 54 1;
#X connect 49 10 55 0;
#X connect 49 11 55 1;
#X connect 49 12 56 0;
#X connect 49 13 56 1;
#X connect 49 14 57 0;
#X connect 49 15 57 1;
#X connect 50 0 70 0;
#X connect 51 0 70 0;
#X connect 52 0 70 0;
#X connect 53 0 70 0;
#X connect 54 0 70 0;
#X connect 55 0 70 0;
#X connect 56 0 70 0;
#X connect 57 0 70 0;
#X connect 59 0 44 1;
#X connect 60 0 61 1;
#X connect 60 0 66 0;
#X connect 61 0 44 0;
#X connect 62 0 63 0;
#X connect 63 0 60 0;
#X connect 64 0 69 1;
#X connect 65 0 67 0;
#X connect 66 0 65 1;
#X connect 67 0 43 0;
#X connect 68 0 58 0;
#X connect 69 0 68 0;
#X connect 70 0 40 0;
#X connect 70 1 3 0;
#X connect 70 2 13 0;
#X connect 70 3 15 0;
#X connect 70 4 23 0;
#X connect 70 5 28 0;
#X connect 70 6 26 0;
#X connect 70 7 35 0;
#X connect 70 8 21 0;
#X connect 70 9 36 0;
#X connect 70 10 169 0;
#X connect 70 10 195 0;
#X connect 71 0 69 0;
#X connect 72 0 65 0;
#X connect 72 0 61 0;
#X connect 73 0 72 1;
#X connect 74 0 71 1;
#X connect 76 0 187 0;
#X connect 76 0 186 0;
#X connect 78 0 192 0;
#X connect 78 0 191 0;
#X connect 79 0 76 1;
#X connect 80 0 78 1;
#X connect 81 0 82 0;
#X connect 82 0 124 0;
#X connect 84 0 120 0;
#X connect 87 0 124 0;
#X connect 88 0 124 0;
#X connect 89 0 124 0;
#X connect 90 0 124 0;
#X connect 91 0 124 0;
#X connect 92 0 124 0;
#X connect 93 0 124 0;
#X connect 94 0 95 0;
#X connect 95 0 93 0;
#X connect 96 0 97 0;
#X connect 97 0 89 0;
#X connect 102 0 91 0;
#X connect 102 0 103 0;
#X connect 103 0 102 0;
#X connect 104 0 90 0;
#X connect 107 0 108 0;
#X connect 107 0 87 0;
#X connect 108 0 107 0;
#X connect 109 0 110 0;
#X connect 110 0 111 0;
#X connect 111 0 92 0;
#X connect 116 0 88 0;
#X connect 117 0 124 0;
#X connect 120 0 124 0;
#X connect 121 0 124 0;
#X connect 122 0 123 0;
#X connect 123 0 81 0;
#X connect 125 0 126 0;
#X connect 126 0 168 0;
#X connect 128 0 164 0;
#X connect 131 0 168 0;
#X connect 132 0 168 0;
#X connect 133 0 168 0;
#X connect 134 0 168 0;
#X connect 135 0 168 0;
#X connect 136 0 168 0;
#X connect 137 0 168 0;
#X connect 138 0 139 0;
#X connect 139 0 137 0;
#X connect 140 0 141 0;
#X connect 141 0 133 0;
#X connect 146 0 135 0;
#X connect 146 0 147 0;
#X connect 147 0 146 0;
#X connect 148 0 134 0;
#X connect 151 0 152 0;
#X connect 151 0 131 0;
#X connect 152 0 151 0;
#X connect 153 0 154 0;
#X connect 154 0 155 0;
#X connect 155 0 136 0;
#X connect 160 0 132 0;
#X connect 161 0 168 0;
#X connect 164 0 168 0;
#X connect 165 0 168 0;
#X connect 166 0 167 0;
#X connect 167 0 125 0;
#X connect 169 0 121 0;
#X connect 169 1 84 0;
#X connect 169 2 94 0;
#X connect 169 3 96 0;
#X connect 169 4 104 0;
#X connect 169 5 109 0;
#X connect 169 6 107 0;
#X connect 169 7 116 0;
#X connect 169 8 102 0;
#X connect 169 9 117 0;
#X connect 169 10 170 0;
#X connect 170 0 165 0;
#X connect 170 1 128 0;
#X connect 170 2 138 0;
#X connect 170 3 140 0;
#X connect 170 4 148 0;
#X connect 170 5 153 0;
#X connect 170 6 151 0;
#X connect 170 7 160 0;
#X connect 170 8 146 0;
#X connect 170 9 161 0;
#X connect 171 0 182 0;
#X connect 172 0 184 0;
#X connect 173 0 171 1;
#X connect 174 0 172 1;
#X connect 176 0 188 0;
#X connect 176 0 186 1;
#X connect 177 0 182 1;
#X connect 179 0 193 0;
#X connect 179 0 191 1;
#X connect 180 0 184 1;
#X connect 181 0 124 0;
#X connect 182 0 181 0;
#X connect 183 0 168 0;
#X connect 184 0 183 0;
#X connect 185 0 75 0;
#X connect 186 0 185 0;
#X connect 187 0 189 0;
#X connect 188 0 187 1;
#X connect 189 0 75 0;
#X connect 190 0 77 0;
#X connect 191 0 190 0;
#X connect 192 0 194 0;
#X connect 193 0 192 1;
#X connect 194 0 77 0;
#X connect 195 0 60 0;
#X connect 195 1 176 0;
#X connect 195 2 179 0;
#X connect 195 3 59 0;
#X connect 195 4 175 0;
#X connect 195 5 178 0;
#X connect 195 6 64 0;
#X connect 195 7 177 0;
#X connect 195 8 180 0;
#X coords 0 -1 1 1 145 70 1 100 240;
