#N canvas 78 6 1216 620 10;
#N canvas 0 0 450 300 (subpatch) 0;
#X array \$0-loop_1 1.2096e+006 float 2;
#X coords 0 1 1.2096e+006 -1 200 51 1;
#X restore 98 73 graph;
#N canvas 0 0 450 300 (subpatch) 0;
#X array \$0-loop_2 100 float 2;
#X coords 0 1 99 -1 200 51 1;
#X restore 98 143 graph;
#N canvas 0 0 450 300 (subpatch) 0;
#X array \$0-loop_3 100 float 2;
#X coords 0 1 99 -1 200 51 1;
#X restore 98 213 graph;
#N canvas 0 0 450 300 (subpatch) 0;
#X array \$0-loop_4 100 float 2;
#X coords 0 1 99 -1 200 51 1;
#X restore 98 283 graph;
#X obj 768 220 phasor~;
#X obj 98 354 nbx 3 16 10 999 0 0 \$0-bpm \$0-bpm-set BPM 0 -8 0 14
-262144 -1 -1 140 256;
#X obj 303 74 nbx 3 14 0 100 0 0 \$0-bars_1 \$0-bars_1-set bars 0 -8
0 10 -262144 -1 -1 16 256;
#X obj 303 110 nbx 3 14 0 100 0 0 \$0-beats_1 \$0-beats_1-set +beats
0 -8 0 10 -262144 -1 -1 0 256;
#X obj 303 144 nbx 3 14 0 100 0 0 \$0-bars_2 \$0-bars_2-set bars 0
-8 0 10 -262144 -1 -1 0 256;
#X obj 303 180 nbx 3 14 0 100 0 0 \$0-beats_2 \$0-beats_2-set +beats
0 -8 0 10 -262144 -1 -1 0 256;
#X obj 303 214 nbx 3 14 0 100 0 0 \$0-bars_3 \$0-bars_3-set bars 0
-8 0 10 -262144 -1 -1 0 256;
#X obj 303 250 nbx 3 14 0 100 0 0 \$0-beats_3 \$0-beats_3-set +beats
0 -8 0 10 -262144 -1 -1 0 256;
#X obj 303 284 nbx 3 14 0 100 0 0 \$0-bars_4 \$0-bars_4-set bars 0
-8 0 10 -262144 -1 -1 0 256;
#X obj 303 320 nbx 3 14 0 100 0 0 \$0-beats_4 \$0-beats_4-set +beats
0 -8 0 10 -262144 -1 -1 0 256;
#X obj 150 354 nbx 3 16 1 999 0 0 \$0-barlength \$0-barlength-set BARLENGTH
0 -8 0 14 -262144 -1 -1 4 256;
#X msg 81 558 1;
#X msg 98 541 2;
#X msg 115 524 4;
#X msg 132 507 8;
#X msg 337 557 9;
#X msg 166 540 3;
#X msg 183 523 6;
#X msg 200 557 12;
#X msg 234 557 5;
#X msg 251 540 10;
#X msg 286 540 7;
#X msg 303 557 14;
#X obj 81 482 sel 0 1 2 3 4 5 6 7 8 9 10 11 12 13 14 15;
#X msg 149 557 16;
#X msg 217 540 24;
#X msg 268 557 20;
#X msg 320 540 28;
#X obj 81 462 r \$0-subdiv;
#X obj 238 341 nbx 3 16 0 15 0 0 \$0-subdiv \$0-subdiv-set SUBDIVISION
-36 24 0 14 -262144 -1 -1 2 256;
#X obj 238 341 nbx 3 16 1 999 0 0 \$0-subdiv_real \$0-subdiv_real-set
empty -36 24 0 14 -262144 -1 -1 4 256;
#X obj 80 581 s \$0-subdiv_real-set;
#X msg 311 434 2;
#X obj 236 401 loadbang;
#X msg 173 434 4;
#X obj 173 454 s \$0-barlength-set;
#X obj 291 454 s \$0-subdiv-set;
#X obj 345 74 tgl 14 0 \$0-play_1 \$0-play_1-set play -4 -7 0 10 -262144
-1 -1 0 1;
#X obj 1113 22 r \$0-bpm;
#X obj 1113 63 /;
#X obj 1113 106 / 4;
#X obj 1141 63 r \$0-subdiv_real;
#X obj 1141 83 t b f;
#X obj 1113 126 s \$0-beat_ms;
#X obj 544 264 r \$0-beat_ms;
#X obj 345 110 bng 14 250 50 0 \$0-load_1 \$0-load_1-bng load -4 -7
0 10 -262144 -1 -1;
#X obj 472 254 soundfiler;
#X msg 472 228 read -resize \$1 \$2;
#X obj 496 111 symbol \$0-loop_1;
#X obj 470 198 pack s s;
#X obj 506 131 symbol \$0-loop_2;
#X obj 516 151 symbol \$0-loop_3;
#X obj 526 171 symbol \$0-loop_4;
#X obj 472 274 swap;
#X obj 461 83 t b f;
#X obj 501 83 sel 1 2 3 4;
#X obj 438 172 openpanel;
#X msg 93 418 120;
#X obj 93 438 s \$0-bpm-set;
#X obj 425 14 r \$0-load_1;
#X msg 425 63 1;
#X obj 455 34 r \$0-load_2;
#X msg 455 63 2;
#X obj 505 14 r \$0-load_3;
#X obj 535 34 r \$0-load_4;
#X msg 505 63 3;
#X msg 535 63 4;
#X obj 1105 148 * 4;
#X obj 1192 106 r \$0-subdiv_real;
#X obj 1192 126 t b f;
#X obj 1105 168 s \$0-bar_ms;
#X obj 1215 171 samplerate~;
#X obj 1215 151 loadbang;
#X obj 1215 191 * 0.001;
#X obj 1215 211 s \$0-msrate;
#X obj 553 284 r \$0-msrate;
#X obj 544 305 * 44.1;
#X obj 493 322 /;
#X obj 493 302 + 44;
#X obj 493 345 / 4;
#X obj 537 325 r \$0-barlength;
#X obj 493 365 i;
#X obj 522 345 % 4;
#X obj 465 385 pack f f f;
#X obj 465 405 route 1 2 3 4;
#X obj 425 557 unpack;
#X obj 425 597 s \$0-bars_1-set;
#X obj 458 577 s \$0-beats_1-set;
#X obj 475 517 unpack;
#X obj 525 477 unpack;
#X obj 575 437 unpack;
#X obj 475 557 s \$0-bars_2-set;
#X obj 508 537 s \$0-beats_2-set;
#X obj 525 517 s \$0-bars_3-set;
#X obj 558 497 s \$0-beats_3-set;
#X obj 575 477 s \$0-bars_4-set;
#X obj 608 457 s \$0-beats_4-set;
#X obj 345 144 tgl 14 0 \$0-play_2 \$0-play_2-set play -4 -7 0 10 -262144
-1 -1 0 1;
#X obj 345 180 bng 14 250 50 0 \$0-load_2 \$0-load_2-bng load -4 -7
0 10 -262144 -1 -1;
#X obj 345 214 tgl 14 0 \$0-play_3 \$0-play_3-set play -4 -7 0 10 -262144
-1 -1 0 1;
#X obj 345 250 bng 14 250 50 0 \$0-load_3 \$0-load_3-bng load -4 -7
0 10 -262144 -1 -1;
#X obj 345 284 tgl 14 0 \$0-play_4 \$0-play_4-set play -4 -7 0 10 -262144
-1 -1 0 1;
#X obj 345 320 bng 14 250 50 0 \$0-load_4 \$0-load_4-bng load -4 -7
0 10 -262144 -1 -1;
#N canvas 0 0 450 300 oldmethod 0;
#X obj 795 108 *;
#X obj 766 108 *;
#X obj 731 42 r \$0-beats_1;
#X obj 780 128 +;
#X obj 731 62 t b f;
#X obj 810 42 r \$0-bars_1;
#X obj 884 47 r \$0-barlength;
#X obj 805 22 r \$0-beat_ms;
#X obj 810 88 *;
#X obj 866 67 t b f;
#X obj 766 88 t f f;
#X obj 780 148 s \$0-loop_1_ms;
#X obj 795 258 *;
#X obj 766 258 *;
#X obj 780 278 +;
#X obj 731 212 t b f;
#X obj 884 197 r \$0-barlength;
#X obj 805 172 r \$0-beat_ms;
#X obj 810 238 *;
#X obj 866 217 t b f;
#X obj 766 238 t f f;
#X obj 795 408 *;
#X obj 766 408 *;
#X obj 780 428 +;
#X obj 731 362 t b f;
#X obj 884 347 r \$0-barlength;
#X obj 805 322 r \$0-beat_ms;
#X obj 810 388 *;
#X obj 866 367 t b f;
#X obj 766 388 t f f;
#X obj 795 558 *;
#X obj 766 558 *;
#X obj 780 578 +;
#X obj 731 512 t b f;
#X obj 884 497 r \$0-barlength;
#X obj 805 472 r \$0-beat_ms;
#X obj 810 538 *;
#X obj 866 517 t b f;
#X obj 766 538 t f f;
#X obj 731 192 r \$0-beats_2;
#X obj 810 192 r \$0-bars_2;
#X obj 780 298 s \$0-loop_2_ms;
#X obj 731 342 r \$0-beats_3;
#X obj 810 342 r \$0-bars_3;
#X obj 780 448 s \$0-loop_3_ms;
#X obj 731 492 r \$0-beats_4;
#X obj 810 492 r \$0-bars_4;
#X obj 780 598 s \$0-loop_4_ms;
#X obj 1024 49 r \$0-loop_1_ms;
#X obj 1024 106 max;
#X obj 1064 89 t b f;
#X obj 1024 126 max;
#X obj 1024 146 max;
#X obj 1064 109 t b f;
#X obj 1064 129 t b f;
#X obj 1064 69 r \$0-loop_2_ms;
#X obj 1102 92 r \$0-loop_3_ms;
#X obj 1102 112 r \$0-loop_4_ms;
#X connect 0 0 3 1;
#X connect 1 0 3 0;
#X connect 2 0 4 0;
#X connect 3 0 11 0;
#X connect 4 0 1 0;
#X connect 4 1 1 1;
#X connect 5 0 8 0;
#X connect 6 0 9 0;
#X connect 7 0 10 0;
#X connect 8 0 0 1;
#X connect 9 0 8 0;
#X connect 9 1 8 1;
#X connect 10 0 1 0;
#X connect 10 1 0 0;
#X connect 12 0 14 1;
#X connect 13 0 14 0;
#X connect 14 0 41 0;
#X connect 15 0 13 0;
#X connect 15 1 13 1;
#X connect 16 0 19 0;
#X connect 17 0 20 0;
#X connect 18 0 12 1;
#X connect 19 0 18 0;
#X connect 19 1 18 1;
#X connect 20 0 13 0;
#X connect 20 1 12 0;
#X connect 21 0 23 1;
#X connect 22 0 23 0;
#X connect 23 0 44 0;
#X connect 24 0 22 0;
#X connect 24 1 22 1;
#X connect 25 0 28 0;
#X connect 26 0 29 0;
#X connect 27 0 21 1;
#X connect 28 0 27 0;
#X connect 28 1 27 1;
#X connect 29 0 22 0;
#X connect 29 1 21 0;
#X connect 30 0 32 1;
#X connect 31 0 32 0;
#X connect 32 0 47 0;
#X connect 33 0 31 0;
#X connect 33 1 31 1;
#X connect 34 0 37 0;
#X connect 35 0 38 0;
#X connect 36 0 30 1;
#X connect 37 0 36 0;
#X connect 37 1 36 1;
#X connect 38 0 31 0;
#X connect 38 1 30 0;
#X connect 39 0 15 0;
#X connect 40 0 18 0;
#X connect 42 0 24 0;
#X connect 43 0 27 0;
#X connect 45 0 33 0;
#X connect 46 0 36 0;
#X connect 48 0 49 0;
#X connect 49 0 51 0;
#X connect 50 0 49 0;
#X connect 50 1 49 1;
#X connect 51 0 52 0;
#X connect 53 0 49 0;
#X connect 53 1 51 1;
#X connect 54 0 49 0;
#X connect 54 1 52 1;
#X connect 55 0 50 0;
#X connect 56 0 53 0;
#X connect 57 0 54 0;
#X restore 1005 30 pd oldmethod;
#X obj 768 137 r \$0-bar_ms;
#X obj 768 160 * 8;
#X obj 768 180 swap 1000;
#X obj 768 200 /;
#X obj 809 97 r \$0-max_bars;
#X obj 809 118 t b f;
#X obj 1127 188 r \$0-msrate;
#X obj 1084 188 * 44.1;
#X obj 1084 208 s \$0-bar_samples;
#X obj 703 329 r \$0-bars_1;
#X obj 914 187 * 4;
#X obj 914 146 r \$0-barlength;
#X obj 914 167 t b f;
#X obj 731 391 * 4;
#X obj 731 350 r \$0-barlength;
#X obj 731 371 t b f;
#X obj 731 412 +;
#X obj 770 392 t b f;
#X obj 770 371 r \$0-beats_1;
#X obj 914 207 s \$0-max_beats;
#X obj 855 193 *~ 8;
#X obj 810 416 r \$0-max_beats;
#X obj 731 452 /;
#X obj 731 432 t b f;
#X obj 716 481 *~;
#X obj 716 501 wrap~;
#X obj 770 485 * 8;
#X obj 805 456 r \$0-max_bars;
#X obj 802 485 r \$0-bar_samples;
#X obj 770 505 * 88200;
#X obj 770 453 /;
#X obj 716 522 *~;
#X obj 716 543 tabread4~ \$0-loop_1;
#X obj 921 391 * 4;
#X obj 921 350 r \$0-barlength;
#X obj 921 371 t b f;
#X obj 921 412 +;
#X obj 960 392 t b f;
#X obj 1000 416 r \$0-max_beats;
#X obj 921 452 /;
#X obj 921 432 t b f;
#X obj 906 481 *~;
#X obj 906 501 wrap~;
#X obj 960 485 * 8;
#X obj 995 456 r \$0-max_bars;
#X obj 992 485 r \$0-bar_samples;
#X obj 960 505 * 88200;
#X obj 960 453 /;
#X obj 906 522 *~;
#X obj 893 329 r \$0-bars_2;
#X obj 960 371 r \$0-beats_2;
#X obj 906 543 tabread4~ \$0-loop_2;
#X obj 1111 391 * 4;
#X obj 1111 350 r \$0-barlength;
#X obj 1111 371 t b f;
#X obj 1111 412 +;
#X obj 1150 392 t b f;
#X obj 1190 416 r \$0-max_beats;
#X obj 1111 452 /;
#X obj 1111 432 t b f;
#X obj 1096 481 *~;
#X obj 1096 501 wrap~;
#X obj 1150 485 * 8;
#X obj 1185 456 r \$0-max_bars;
#X obj 1182 485 r \$0-bar_samples;
#X obj 1150 505 * 88200;
#X obj 1150 453 /;
#X obj 1096 522 *~;
#X obj 1301 391 * 4;
#X obj 1301 350 r \$0-barlength;
#X obj 1301 371 t b f;
#X obj 1301 412 +;
#X obj 1340 392 t b f;
#X obj 1380 416 r \$0-max_beats;
#X obj 1301 452 /;
#X obj 1301 432 t b f;
#X obj 1286 481 *~;
#X obj 1286 501 wrap~;
#X obj 1340 485 * 8;
#X obj 1375 456 r \$0-max_bars;
#X obj 1372 485 r \$0-bar_samples;
#X obj 1340 505 * 88200;
#X obj 1340 453 /;
#X obj 1286 522 *~;
#X obj 1083 329 r \$0-bars_3;
#X obj 1150 371 r \$0-beats_3;
#X obj 1096 543 tabread4~ \$0-loop_3;
#X obj 1273 329 r \$0-bars_4;
#X obj 1340 371 r \$0-beats_4;
#X obj 1286 543 tabread4~ \$0-loop_4;
#X obj 298 354 nbx 3 16 1 64 0 0 \$0-max_bars \$0-max_bars-set MAXBARS
0 -8 0 14 -262144 -1 -1 4 256;
#X obj 202 434 s \$0-max_bars-set;
#X floatatom 655 373 5 0 0 0 - - -;
#X obj 1289 148 bng 15 250 50 0 empty empty empty 17 7 0 10 -262144
-1 -1;
#X floatatom 581 375 5 0 0 0 - - -;
#X floatatom 609 350 5 0 0 0 - - -;
#X floatatom 1052 132 5 0 0 0 - - -;
#X obj 678 76 s \$0-bpm-set;
#X msg 686 49 bang;
#X obj 1113 42 swap 240000;
#X obj 716 584 outlet~;
#X obj 906 584 outlet~;
#X obj 1096 584 outlet~;
#X obj 1286 584 outlet~;
#X obj 1312 22 inlet;
#X obj 1311 47 route sync;
#X obj 1310 71 s \$0-sync;
#X obj 852 126 r \$0-sync;
#X msg 832 172 0;
#X obj 716 564 *~;
#X obj 906 564 *~;
#X obj 1096 564 *~;
#X obj 1286 564 *~;
#X obj 742 564 r \$0-play_1;
#X obj 932 564 r \$0-play_2;
#X obj 1122 564 r \$0-play_3;
#X obj 1312 564 r \$0-play_4;
#X connect 4 0 132 0;
#X connect 4 0 149 0;
#X connect 4 0 168 0;
#X connect 4 0 184 0;
#X connect 15 0 35 0;
#X connect 16 0 35 0;
#X connect 17 0 35 0;
#X connect 18 0 35 0;
#X connect 19 0 35 0;
#X connect 20 0 35 0;
#X connect 21 0 35 0;
#X connect 22 0 35 0;
#X connect 23 0 35 0;
#X connect 24 0 35 0;
#X connect 25 0 35 0;
#X connect 26 0 35 0;
#X connect 27 0 15 0;
#X connect 27 1 16 0;
#X connect 27 2 17 0;
#X connect 27 3 18 0;
#X connect 27 4 28 0;
#X connect 27 5 20 0;
#X connect 27 6 21 0;
#X connect 27 7 22 0;
#X connect 27 8 29 0;
#X connect 27 9 23 0;
#X connect 27 10 24 0;
#X connect 27 11 30 0;
#X connect 27 12 25 0;
#X connect 27 13 26 0;
#X connect 27 14 31 0;
#X connect 27 15 19 0;
#X connect 28 0 35 0;
#X connect 29 0 35 0;
#X connect 30 0 35 0;
#X connect 31 0 35 0;
#X connect 32 0 27 0;
#X connect 36 0 40 0;
#X connect 37 0 38 0;
#X connect 37 0 36 0;
#X connect 37 0 61 0;
#X connect 38 0 39 0;
#X connect 38 0 199 0;
#X connect 42 0 207 0;
#X connect 43 0 44 0;
#X connect 44 0 47 0;
#X connect 44 0 71 0;
#X connect 44 0 204 0;
#X connect 45 0 46 0;
#X connect 46 0 44 0;
#X connect 46 1 44 1;
#X connect 48 0 80 0;
#X connect 50 0 57 0;
#X connect 51 0 50 0;
#X connect 52 0 53 1;
#X connect 53 0 51 0;
#X connect 54 0 53 1;
#X connect 55 0 53 1;
#X connect 56 0 53 1;
#X connect 57 0 87 0;
#X connect 57 1 82 0;
#X connect 58 0 60 0;
#X connect 58 1 59 0;
#X connect 58 1 57 1;
#X connect 59 0 52 0;
#X connect 59 1 54 0;
#X connect 59 2 55 0;
#X connect 59 3 56 0;
#X connect 60 0 53 0;
#X connect 61 0 62 0;
#X connect 63 0 64 0;
#X connect 64 0 58 0;
#X connect 65 0 66 0;
#X connect 66 0 58 0;
#X connect 67 0 69 0;
#X connect 68 0 70 0;
#X connect 69 0 58 0;
#X connect 70 0 58 0;
#X connect 71 0 74 0;
#X connect 71 0 115 0;
#X connect 72 0 73 0;
#X connect 73 0 71 0;
#X connect 73 1 71 1;
#X connect 75 0 77 0;
#X connect 76 0 75 0;
#X connect 77 0 78 0;
#X connect 79 0 80 1;
#X connect 80 0 81 1;
#X connect 81 0 83 0;
#X connect 81 0 86 0;
#X connect 81 0 203 0;
#X connect 82 0 81 0;
#X connect 83 0 85 0;
#X connect 84 0 83 1;
#X connect 84 0 86 1;
#X connect 85 0 87 1;
#X connect 85 0 202 0;
#X connect 86 0 87 2;
#X connect 86 0 200 0;
#X connect 87 0 88 0;
#X connect 88 0 89 0;
#X connect 88 1 92 0;
#X connect 88 2 93 0;
#X connect 88 3 94 0;
#X connect 89 0 90 0;
#X connect 89 1 91 0;
#X connect 92 0 95 0;
#X connect 92 1 96 0;
#X connect 93 0 97 0;
#X connect 93 1 98 0;
#X connect 94 0 99 0;
#X connect 94 1 100 0;
#X connect 108 0 109 0;
#X connect 109 0 110 0;
#X connect 110 0 111 0;
#X connect 110 1 111 1;
#X connect 111 0 4 0;
#X connect 112 0 113 0;
#X connect 113 0 109 0;
#X connect 113 1 109 1;
#X connect 113 1 118 0;
#X connect 113 1 128 1;
#X connect 114 0 115 1;
#X connect 115 0 116 0;
#X connect 117 0 121 0;
#X connect 118 0 127 0;
#X connect 119 0 120 0;
#X connect 120 0 118 0;
#X connect 120 1 118 1;
#X connect 121 0 124 0;
#X connect 122 0 123 0;
#X connect 123 0 121 0;
#X connect 123 1 121 1;
#X connect 124 0 131 0;
#X connect 125 0 124 0;
#X connect 125 1 124 1;
#X connect 126 0 125 0;
#X connect 129 0 130 0;
#X connect 129 0 138 1;
#X connect 130 0 132 1;
#X connect 131 0 130 0;
#X connect 131 1 130 1;
#X connect 131 1 138 0;
#X connect 132 0 133 0;
#X connect 133 0 139 0;
#X connect 134 0 137 0;
#X connect 135 0 134 1;
#X connect 136 0 137 1;
#X connect 137 0 139 1;
#X connect 138 0 134 0;
#X connect 139 0 140 0;
#X connect 140 0 217 0;
#X connect 141 0 144 0;
#X connect 142 0 143 0;
#X connect 143 0 141 0;
#X connect 143 1 141 1;
#X connect 144 0 148 0;
#X connect 145 0 144 0;
#X connect 145 1 144 1;
#X connect 146 0 147 0;
#X connect 146 0 155 1;
#X connect 147 0 149 1;
#X connect 148 0 147 0;
#X connect 148 1 147 1;
#X connect 148 1 155 0;
#X connect 149 0 150 0;
#X connect 150 0 156 0;
#X connect 151 0 154 0;
#X connect 152 0 151 1;
#X connect 153 0 154 1;
#X connect 154 0 156 1;
#X connect 155 0 151 0;
#X connect 156 0 159 0;
#X connect 157 0 141 0;
#X connect 158 0 145 0;
#X connect 159 0 218 0;
#X connect 160 0 163 0;
#X connect 161 0 162 0;
#X connect 162 0 160 0;
#X connect 162 1 160 1;
#X connect 163 0 167 0;
#X connect 164 0 163 0;
#X connect 164 1 163 1;
#X connect 165 0 166 0;
#X connect 165 0 174 1;
#X connect 166 0 168 1;
#X connect 167 0 166 0;
#X connect 167 1 166 1;
#X connect 167 1 174 0;
#X connect 168 0 169 0;
#X connect 169 0 175 0;
#X connect 170 0 173 0;
#X connect 171 0 170 1;
#X connect 172 0 173 1;
#X connect 173 0 175 1;
#X connect 174 0 170 0;
#X connect 175 0 194 0;
#X connect 176 0 179 0;
#X connect 177 0 178 0;
#X connect 178 0 176 0;
#X connect 178 1 176 1;
#X connect 179 0 183 0;
#X connect 180 0 179 0;
#X connect 180 1 179 1;
#X connect 181 0 182 0;
#X connect 181 0 190 1;
#X connect 182 0 184 1;
#X connect 183 0 182 0;
#X connect 183 1 182 1;
#X connect 183 1 190 0;
#X connect 184 0 185 0;
#X connect 185 0 191 0;
#X connect 186 0 189 0;
#X connect 187 0 186 1;
#X connect 188 0 189 1;
#X connect 189 0 191 1;
#X connect 190 0 186 0;
#X connect 191 0 197 0;
#X connect 192 0 160 0;
#X connect 193 0 164 0;
#X connect 194 0 219 0;
#X connect 195 0 176 0;
#X connect 196 0 180 0;
#X connect 197 0 220 0;
#X connect 201 0 75 0;
#X connect 206 0 205 0;
#X connect 207 0 43 0;
#X connect 207 1 43 1;
#X connect 212 0 213 0;
#X connect 213 0 214 0;
#X connect 215 0 216 0;
#X connect 216 0 4 1;
#X connect 217 0 208 0;
#X connect 218 0 209 0;
#X connect 219 0 210 0;
#X connect 220 0 211 0;
#X connect 221 0 217 1;
#X connect 222 0 218 1;
#X connect 223 0 219 1;
#X connect 224 0 220 1;
#X coords 0 -1 1 1 274 332 1 94 42;
