#N canvas 7 0 1265 686 10;
#X obj 262 62 inlet~;
#X obj 296 601 outlet~;
#N canvas 52 315 1240 408 init 0;
#X obj 77 151 s \$0-delay_coarse-set;
#X obj 93 134 s \$0-delay_fine-set;
#X msg 99 90 0;
#X msg 77 90 100;
#X obj 84 28 loadbang;
#X obj 34 230 r \$0-delay_coarse;
#X obj 143 230 r \$0-delay_fine;
#X obj 66 247 t b f;
#X obj 74 270 +;
#X obj 74 364 s \$0-delay_real;
#X obj 281 249 r \$0-feedback;
#X obj 299 298 s \$0-feedback_pol;
#X obj 369 202 r \$0-fb_pol;
#X obj 369 253 t b f;
#X obj 369 219 sel 0 1;
#X msg 369 236 -1;
#X msg 391 236 1;
#X obj 342 277 * 1;
#X obj 121 113 s \$0-fb_pol-set;
#X msg 121 90 1;
#X obj 495 212 r \$0-hpf;
#X obj 495 234 t b f;
#X obj 554 212 r \$0-lpf;
#X obj 522 258 >;
#X obj 495 279 spigot;
#X obj 527 303 f;
#X obj 527 323 s \$0-lpf-set;
#X obj 574 234 t b f;
#X obj 574 279 spigot;
#X obj 606 303 f;
#X obj 601 258 <;
#X obj 606 323 s \$0-hpf-set;
#X obj 217 153 s \$0-lpf-set;
#X msg 217 89 20000;
#X obj 38 182 s \$0-limit_thresh-set;
#X obj 10 113 s \$0-porta-set;
#X obj 869 12 r \$0-delay_pitch-num;
#X obj 869 157 t f f;
#X obj 869 100 mtof;
#X obj 869 120 expr 1000/$f1;
#X obj 896 197 i;
#X obj 869 244 -;
#X obj 896 218 * 10;
#X obj 896 177 * 0.1;
#X obj 904 255 s \$0-delay_coarse-set;
#X obj 869 275 s \$0-delay_fine-set;
#X obj 1050 11 r \$0-delay_real;
#X obj 1050 178 ftom;
#X msg 1050 202 set \$1;
#X obj 1052 239 t a a;
#X obj 1077 273 s \$0-delay_pitch-set;
#X obj 1049 304 s \$0-delay_pitch;
#X obj 1050 34 spigot;
#X obj 1050 151 expr 1000/$f1;
#X obj 1048 74 moses 1e-07;
#X msg 986 121 -1500;
#X msg 376 50 1;
#X obj 257 121 s \$0-stereo-set;
#X connect 2 0 1 0;
#X connect 3 0 0 0;
#X connect 3 0 35 0;
#X connect 4 0 2 0;
#X connect 4 0 3 0;
#X connect 4 0 19 0;
#X connect 4 0 33 0;
#X connect 4 0 56 0;
#X connect 5 0 7 0;
#X connect 6 0 8 0;
#X connect 7 0 8 0;
#X connect 7 1 8 1;
#X connect 8 0 9 0;
#X connect 10 0 17 0;
#X connect 12 0 14 0;
#X connect 13 0 17 0;
#X connect 13 1 17 1;
#X connect 14 0 15 0;
#X connect 14 1 16 0;
#X connect 15 0 13 0;
#X connect 16 0 13 0;
#X connect 17 0 11 0;
#X connect 19 0 18 0;
#X connect 20 0 21 0;
#X connect 20 0 30 1;
#X connect 21 0 24 0;
#X connect 21 1 23 0;
#X connect 21 1 25 1;
#X connect 22 0 23 1;
#X connect 22 0 27 0;
#X connect 23 0 24 1;
#X connect 24 0 25 0;
#X connect 25 0 26 0;
#X connect 27 0 28 0;
#X connect 27 1 29 1;
#X connect 27 1 30 0;
#X connect 28 0 29 0;
#X connect 29 0 31 0;
#X connect 30 0 28 1;
#X connect 33 0 32 0;
#X connect 36 0 38 0;
#X connect 37 0 41 0;
#X connect 37 1 43 0;
#X connect 38 0 39 0;
#X connect 39 0 37 0;
#X connect 40 0 42 0;
#X connect 41 0 45 0;
#X connect 42 0 41 1;
#X connect 42 0 44 0;
#X connect 43 0 40 0;
#X connect 46 0 52 0;
#X connect 47 0 48 0;
#X connect 48 0 49 0;
#X connect 49 0 51 0;
#X connect 49 1 50 0;
#X connect 52 0 54 0;
#X connect 53 0 47 0;
#X connect 54 0 55 0;
#X connect 54 1 53 0;
#X connect 55 0 48 0;
#X connect 56 0 57 0;
#X restore 201 7 pd init;
#X obj 330 83 r \$0-feedback-num;
#X obj 346 101 r \$0-porta-num;
#X obj 72 5 r \$0-patch_on;
#X obj 330 164 / 100;
#X msg 872 15 100;
#X obj 872 36 -;
#X obj 872 -6 t b f;
#X obj 872 -26 r \$0-mix_pc;
#X floatatom 872 57 5 0 0 0 - - -, f 5;
#X obj 872 77 clip 0 100;
#X obj 872 98 t b f;
#X msg 872 119 100;
#X obj 872 140 -;
#X obj 263 185 *~ 0;
#X obj 295 189 *~ 1;
#X floatatom 872 161 5 0 0 0 - - -, f 5;
#X obj 337 55 s \$0-mix_pc-set;
#X obj 342 1 loadbang;
#X obj 131 102 cnv 15 110 144 empty empty empty 6 8 0 10 -33558 -203904
0;
#X obj 31 114 cnv 15 210 280 empty empty empty 6 8 0 10 -33558 -203904
0;
#X obj 36 116 hsl 201 12 0 4000 0 0 \$0-delay_1_coarse \$0-delay_1_coarse-set
delay_1_coarse 25 6 0 10 -257985 -13381 -13381 0 1;
#X obj 36 128 hsl 121 12 0 20 0 0 \$0-delay_1_fine \$0-delay_1_fine-set
delay_1_fine 25 6 0 10 -257985 -13381 -13381 0 1;
#X obj 161 128 nbx 8 12 0 4000 0 0 \$0-delay_1-num \$0-delay_1_real
empty 0 -6 0 10 -257985 -13381 -13381 0 256 0;
#X obj 36 354 hsl 101 12 0 100 0 0 \$0-feedback \$0-feedback-set feedback
25 6 0 10 -4032 -13330 -13330 0 1;
#X obj 142 354 nbx 4 12 -100 100 0 0 \$0-feedback-num \$0-feedback_pol
empty 0 -6 0 10 -4032 -13330 -13330 0 256 0;
#X obj 189 354 tgl 12 0 \$0-fb_pol \$0-fb_pol-set +/- 15 6 0 10 -4032
-13330 -13330 1 1;
#X obj 36 340 hsl 120 12 0.1 5000 1 0 \$0-porta \$0-porta-set porta
25 6 0 10 -4034 -13381 -13381 7597 1;
#X obj 161 340 nbx 4 12 0 9999 0 0 \$0-porta-num \$0-porta empty 0
-6 0 10 -4034 -13381 -13381 99.9628 256 0;
#X obj 36 326 hsl 120 12 20 20000 1 0 \$0-lpf \$0-lpf-set lowpass 25
6 0 10 -202688 -45076 -45076 11900 1;
#X obj 161 326 nbx 5 12 0 99999 0 0 \$0-lpf-num \$0-lpf empty 0 -6
0 10 -202688 -45076 -45076 20000 256 0;
#X obj 216 351 tgl 15 0 \$0-patch_on \$0-patch_on-set On 1 -6 0 10
-191407 -258113 -261234 1 1;
#X obj 36 142 hsl 113 12 0 112 0 0 \$0-delay_1_pitch \$0-delay_1_pitch-set
delay_1_pitch 25 6 0 10 -208833 -13381 -13381 0 1;
#X obj 151 142 nbx 5 12 -49 112 0 0 \$0-delay_1_pitch-num \$0-delay_1_pitch
empty 0 -6 0 10 -208833 -13381 -13381 0 256 0;
#X obj 31 369 cnv 15 141 25 empty empty empty 20 12 0 14 -183672 -66577
0;
#X obj 33 380 nbx 3 12 0 120 0 0 empty empty empty -2 -6 0 7 -257472
-1109 -90133 0 256 0;
#X obj 75 380 nbx 3 12 1 3 0 0 \$0-patch-num \$0-patch-set select 0
-5 0 7 -17235 -261234 -17235 1 256 0;
#X obj 120 380 bng 12 250 50 0 \$0-store_patch \$0-store_patch-bng
store -3 -5 0 7 -17235 -262130 -17235;
#X obj 141 375 bng 10 250 50 0 \$0-patches_load \$0-patches_load-bng
load -5 16 0 7 -2498 -262144 -13381;
#X obj 154 375 bng 10 250 50 0 \$0-patches_save \$0-patches_save-bng
save 0 16 0 7 -159809 -262144 -86277;
#X obj 33 380 nbx 3 12 0 120 0 0 \$0-patches-dummy \$0-patches-num
patches 0 -5 0 7 -17235 -203904 -17235 0 256 0;
#X obj 106 384 bng 8 250 50 0 \$0-store_plus \$0-store_plus-bng + 2
-4 0 7 -17235 -198336 -17235;
#X obj 64 384 bng 8 250 50 0 \$0-store_minus \$0-store_minus-bng -
1 -5 0 10 -17235 -257985 -17235;
#X obj 188 378 nbx 3 12 0 200 0 0 \$0-mix_pc \$0-mix_pc-set mix 0 -6
0 10 -16662 -203904 -203904 100 256 0;
#X obj 2391 1006 r \$0-patch-num;
#X obj 2402 1029 t b f b;
#X msg 340 22 100;
#X obj 372 119 r \$0-lpf-num;
#X obj 529 21 r \$0-lfo_freq-num;
#X obj 393 138 r \$0-lfo_depth-num;
#X obj 36 288 hsl 201 12 0.02 200 1 0 \$0-lfo_freq \$0-lfo_freq-set
modulation_frequency 25 6 0 10 -143334 -13381 -13381 0 1;
#X obj 36 300 hsl 201 12 0.01 100 1 0 \$0-lfo_depth \$0-lfo_depth-set
modulation_depth 25 6 0 10 -143334 -13381 -13381 0 1;
#X obj 529 86 phasor~;
#X obj 530 128 +~;
#X obj 33 312 nbx 8 12 0 20000 0 0 \$0-lfo_freq-num \$0-lfo_freq empty
0 -6 0 10 -163814 -13381 -13381 0 256 0;
#X obj 113 312 nbx 5 12 0 100 0 0 \$0-lfo_depth-num \$0-lfo_depth empty
0 -6 0 10 -163814 -13381 -13381 0 256 0;
#X obj 36 276 hsl 201 12 0 1 0 0 \$0-phase \$0-phase-set phase 35 6
0 10 -143334 -13381 -13381 12700 1;
#X obj 529 42 pack f 10;
#X obj 529 63 line~;
#X obj 529 150 wrap~;
#X obj 581 86 r \$0-phase;
#X obj 427 226 sin~;
#X obj 598 596 outlet~;
#X obj 625 189 *~ 1;
#X obj 748 201 sin~;
#X obj 593 185 *~ 0;
#X obj 605 121 inlet~;
#X obj 592 62 r \$0-setphase;
#X obj 174 65 tgl 12 0 \$0-mono_in \$0-mono_in-set mono_in 15 6 0 10
-141811 -16662 -203904 0 1;
#X obj 394 164 * 0.01;
#X obj 303 434 +~;
#X obj 352 319 pack f 10;
#X obj 458 288 moses 0;
#X obj 352 357 +~;
#X msg 512 291 20000;
#X obj 512 274 loadbang;
#X msg 418 300 bang;
#X obj 352 338 line~;
#X obj 352 376 clip~ 0.01 2000;
#X obj 537 366 moses 1;
#X obj 486 347 moses -1;
#X obj 367 436 *~;
#X obj 537 389 pack f 10;
#X obj 537 412 line~;
#X obj 367 417 lp3_crit~;
#X obj 612 409 *~ 0;
#X obj 352 300 moses 1000;
#X obj 418 320 1000;
#X obj 612 389 *~ 0;
#X obj 72 25 switch~ 4 1 1;
#X obj 647 505 +~;
#X obj 696 390 pack f 10;
#X obj 797 329 moses 0;
#X obj 696 428 +~;
#X msg 856 362 20000;
#X obj 856 345 loadbang;
#X msg 762 371 bang;
#X obj 696 409 line~;
#X obj 696 447 clip~ 0.01 2000;
#X obj 711 507 *~;
#X obj 808 457 pack f 10;
#X obj 808 480 line~;
#X obj 711 488 lp3_crit~;
#X obj 726 327 *~ 0;
#X obj 696 371 moses 1000;
#X obj 762 391 1000;
#X obj 726 307 *~ 0;
#X obj 1691 -12 inlet;
#X obj 1756 153 s \$0-feedback-set;
#X obj 1783 173 s \$0-fb_pol-set;
#X obj 1973 218 t f f;
#X obj 2010 248 s \$0-lpf-set;
#X obj 1971 268 s \$0-lpf;
#X obj 1756 111 t f f;
#X obj 1783 132 > 0;
#X obj 1756 132 abs;
#X obj 1786 195 t f f;
#X obj 1842 211 s \$0-porta-set;
#X obj 1786 231 s \$0-porta;
#X obj 2173 184 t f f;
#X obj 2143 107 s \$0-mix_pc-set;
#X obj 1735 236 t f f;
#X obj 1762 266 > 10;
#X obj 1762 289 == 0;
#X obj 1733 315 spigot;
#X obj 1803 315 spigot;
#X obj 1820 371 - 10;
#X obj 1817 339 t f b;
#X msg 1861 361 10;
#X msg 1725 342 0;
#X obj 1866 108 s \$0-stereo-set;
#X obj 1825 80 + 1;
#X obj 1896 88 s \$0-phase-set;
#X obj 1919 69 s \$0-setphase;
#X obj 2009 128 s \$0-mono_in-set;
#X obj 2085 21 route all;
#X obj 2289 125 t f f;
#X obj 2316 149 s \$0-lfo_freq-set;
#X obj 2289 169 s \$0-lfo_freq;
#X obj 2339 123 s \$0-lfo_depth-set;
#X text 2086 2 delay fb stereo phase pitch lpf mix freq depth porta
mono;
#X obj 2079 48 unpack f f f f f f f f f f f;
#X obj 2095 347 route patch file;
#X obj 2095 371 s \$0-patch-set;
#X obj 2205 321 s \$0-patch_on-set;
#X msg 2205 300 1;
#X obj 2205 278 loadbang;
#X obj 1716 539 f;
#X obj 1713 496 r \$0-store_patch;
#X obj 1714 598 prepend add;
#X obj 1711 631 t b a;
#X obj 1781 720 msgfile;
#X obj 2048 781 spigot;
#X msg 2092 780 0;
#X msg 2093 763 1;
#X msg 1864 688 add patches 0;
#X obj 1861 650 loadbang;
#X obj 1772 950 route patches;
#X msg 1798 637 goto 0;
#X obj 1726 696 + 1;
#X obj 1710 713 f;
#X msg 1710 766 replace patches \$1;
#X msg 1761 687 this;
#X obj 1710 661 t b b b;
#X msg 2265 726 range 1 \$1;
#X obj 1990 320 t b f;
#X msg 2053 640 goto \$1;
#X msg 2018 639 this;
#X obj 2145 650 r \$0-patches_load;
#X obj 2145 667 openpanel;
#X msg 2219 701 read \$1;
#X msg 2175 701 goto 0;
#X msg 2145 701 this;
#X obj 2325 580 r \$0-patches_save;
#X obj 2325 608 savepanel;
#X msg 2322 681 write \$1;
#X msg 1918 621 print;
#X obj 1773 920 route list;
#X obj 2145 684 t b b a b;
#X msg 2161 761 clear;
#X obj 2085 574 r \$0-patches_clear;
#X obj 2080 600 t b b;
#X obj 2221 577 symbol;
#X obj 2627 818 random;
#X obj 2048 798 s \$0-patches-num;
#X obj 2265 743 s \$0-patch-set;
#X obj 1826 432 r \$0-porta-num;
#X obj 1850 451 r \$0-feedback;
#X obj 1861 470 r \$0-fb_pol;
#X obj 1878 799 t f f;
#X obj 1902 827 s \$0-porta-set;
#X obj 1846 847 s \$0-porta;
#X obj 1912 868 s \$0-feedback-set;
#X obj 1920 892 s \$0-fb_pol-set;
#X obj 2023 971 t f f;
#X obj 2039 899 t f f;
#X obj 2059 829 t f f;
#X obj 2357 876 t f f;
#X obj 1997 505 r \$0-mix_pc;
#X obj 2203 956 s \$0-mix_pc-set;
#X obj 2593 628 r \$0-store_plus;
#X obj 2477 628 r \$0-store_minus;
#X obj 2593 652 f;
#X obj 2477 662 f;
#X obj 2477 682 +;
#X obj 2522 679 %;
#X obj 2522 699 + 1;
#X obj 2455 597 - 1;
#X obj 2477 703 - 1;
#X obj 2593 673 + 1;
#X obj 2522 719 s \$0-patch-set;
#X obj 2324 637 makesymbol %s.dlf;
#X obj 1870 489 r \$0-lfo_freq-num;
#X obj 1892 527 r \$0-lpf-num;
#X obj 1883 508 r \$0-lfo_depth-num;
#X obj 1988 485 r \$0-stereo;
#X obj 2013 526 r \$0-phase;
#X obj 2060 1001 s \$0-lfo_freq-set;
#X obj 2021 1021 s \$0-lfo_freq;
#X obj 2057 879 s \$0-lpf;
#X obj 2096 859 s \$0-lpf-set;
#X obj 2076 929 s \$0-lfo_depth-set;
#X obj 2037 949 s \$0-lfo_depth;
#X obj 2185 1005 s \$0-stereo;
#X obj 2220 935 s \$0-phase-set;
#X obj 2104 502 r \$0-mono_in;
#X obj 2396 837 s \$0-mono_in-set;
#X obj 1808 1075 r \$0-delay_fine;
#X obj 1876 1095 r \$0-delay_coarse;
#X obj 2455 1295 r \$0-porta-num;
#X obj 2017 1136 r \$0-feedback;
#X obj 2068 1156 r \$0-fb_pol;
#X obj 2182 1197 r \$0-lpf-num;
#X obj 1985 1088 r \$0-delay_pitch-num;
#X obj 2330 1257 r \$0-mix_pc;
#X obj 2394 1276 r \$0-gang;
#X obj 1809 1479 outlet;
#X obj 2521 1319 r \$0-patch-num;
#X obj 1808 1095 change;
#X msg 1808 1115 delfine \$1;
#X obj 1876 1115 change;
#X obj 2455 1315 change;
#X obj 2017 1156 change;
#X obj 2068 1177 change;
#X obj 2182 1217 change;
#X obj 2330 1277 change;
#X obj 2394 1297 change;
#X obj 1985 1109 change;
#X msg 2522 1368 patch \$1;
#X msg 2455 1336 porta \$1;
#X msg 2017 1177 fb \$1;
#X msg 2068 1197 fb_pol \$1;
#X msg 2182 1237 lpf \$1;
#X msg 2330 1297 mix_pc \$1;
#X msg 2394 1317 gang \$1;
#X msg 1945 1150 delpitch \$1;
#X obj 1809 1444 spigot;
#X msg 2379 1116 1;
#X msg 2457 1115 0;
#X obj 2303 1081 loadbang;
#X obj 2540 1341 change;
#X msg 1876 1135 delcoarse \$1;
#X obj 1831 1173 t b f;
#X obj 1840 1206 +;
#X msg 1833 1244 delay \$1;
#X obj 2225 1305 t b f;
#X obj 2307 1346 t b f;
#X obj 2345 1382 t b f;
#X obj 2387 1388 t b f;
#X text 2242 1057 delay fb stereo phase pitch lpf mix freq depth porta
mono;
#X obj 2135 1090 r \$0-feedback-num;
#X obj 2151 1108 r \$0-porta-num;
#X obj 2177 1126 r \$0-lpf-num;
#X obj 2198 1145 r \$0-lfo_depth-num;
#X obj 2123 1448 r \$0-delay-num;
#X obj 2516 1208 r \$0-mono_in;
#X obj 2265 1402 t b f;
#X obj 2320 1417 t b f;
#X obj 2425 1406 t b f;
#X obj 2277 1199 change;
#X msg 2277 1219 depth \$1;
#X msg 2373 1204 mono \$1;
#X obj 2027 1248 r \$0-lfo_freq-num;
#X msg 2027 1286 freq \$1;
#X obj 2027 1267 change;
#X obj 2149 1356 t b f;
#X obj 2570 1120 r \$0-stereo;
#X obj 2515 1096 r \$0-phase;
#X obj 2511 1121 change;
#X obj 2568 1142 change;
#X msg 2503 1147 stereo \$1;
#X msg 2569 1166 phase \$1;
#X obj 2478 1433 t b f;
#X obj 2245 1372 t b f;
#X obj 2241 1530 prepend all;
#X obj 2241 1489 pack f f f f f f f f f f f;
#X obj 2191 1382 t b f;
#X msg 2626 843 patch \$1;
#X obj 2349 804 prepend file;
#X text 232 273 |;
#X text 182 273 |;
#X text 132 273 |;
#X text 82 273 |;
#X obj 920 128 +~;
#X obj 919 150 wrap~;
#X obj 971 86 r \$0-phase;
#X obj 988 596 outlet~;
#X obj 1015 189 *~ 1;
#X obj 1057 270 sin~;
#X obj 983 185 *~ 0;
#X obj 995 121 inlet~;
#X obj 1037 505 +~;
#X obj 1048 357 pack f 10;
#X obj 1154 326 moses 0;
#X obj 1048 395 +~;
#X msg 1208 329 20000;
#X obj 1208 312 loadbang;
#X msg 1114 338 bang;
#X obj 1048 376 line~;
#X obj 1048 414 clip~ 0.01 2000;
#X obj 1063 474 *~;
#X obj 1158 427 pack f 10;
#X obj 1158 450 line~;
#X obj 1063 455 lp3_crit~;
#X obj 1199 398 *~ 0;
#X obj 1048 338 moses 1000;
#X obj 1114 358 1000;
#X obj 1199 378 *~ 0;
#X obj 352 395 vd~ \$0-delfbf_1;
#X obj 696 466 vd~ \$0-delfbf_2;
#X obj 1048 433 vd~ \$0-delfbf_3;
#X obj 944 107 * 2;
#X obj 1160 128 +~;
#X obj 1159 150 wrap~;
#X obj 1228 596 outlet~;
#X obj 1255 189 *~ 1;
#X obj 1297 270 sin~;
#X obj 1223 185 *~ 0;
#X obj 1235 121 inlet~;
#X obj 1277 505 +~;
#X obj 1288 357 pack f 10;
#X obj 1394 326 moses 0;
#X obj 1288 395 +~;
#X msg 1448 329 20000;
#X obj 1448 312 loadbang;
#X msg 1354 338 bang;
#X obj 1288 376 line~;
#X obj 1288 414 clip~ 0.01 2000;
#X obj 1303 474 *~;
#X obj 1398 427 pack f 10;
#X obj 1398 450 line~;
#X obj 1303 455 lp3_crit~;
#X obj 1439 398 *~ 0;
#X obj 1288 338 moses 1000;
#X obj 1354 358 1000;
#X obj 1439 378 *~ 0;
#X obj 1201 82 r \$0-phase;
#X obj 1174 103 * 3;
#X obj 777 36 * 0.01;
#X obj 822 36 * 0.01;
#X obj 1288 433 vd~ \$0-delfbf_4;
#X obj 352 280 r \$0-delay_1-num;
#X obj 696 351 r \$0-delay_2-num;
#X obj 1048 318 r \$0-delay_3-num;
#X obj 1288 318 r \$0-delay_4-num;
#X obj 36 156 hsl 201 12 0 4000 0 0 \$0-delay_2_coarse \$0-delay_2_coarse-set
delay_2_coarse 25 6 0 10 -257985 -13381 -13381 0 1;
#X obj 36 168 hsl 121 12 0 20 0 0 \$0-delay_2_fine \$0-delay_2_fine-set
delay_2_fine 25 6 0 10 -257985 -13381 -13381 0 1;
#X obj 161 168 nbx 8 12 0 4000 0 0 \$0-delay_2-num \$0-delay_2_real
empty 0 -6 0 10 -257985 -13381 -13381 0 256 0;
#X obj 36 182 hsl 113 12 0 112 0 0 \$0-delay_2_pitch \$0-delay_2_pitch-set
delay_2_pitch 25 6 0 10 -208833 -13381 -13381 0 1;
#X obj 151 182 nbx 5 12 -49 112 0 0 \$0-delay_2_pitch-num \$0-delay_2_pitch
empty 0 -6 0 10 -208833 -13381 -13381 0 256 0;
#X obj 36 196 hsl 201 12 0 4000 0 0 \$0-delay_3_coarse \$0-delay_3_coarse-set
delay_3_coarse 25 6 0 10 -257985 -13381 -13381 0 1;
#X obj 36 208 hsl 121 12 0 20 0 0 \$0-delay_3_fine \$0-delay_3_fine-set
delay_3_fine 25 6 0 10 -257985 -13381 -13381 0 1;
#X obj 161 208 nbx 8 12 0 4000 0 0 \$0-delay_3-num \$0-delay_3_real
empty 0 -6 0 10 -257985 -13381 -13381 0 256 0;
#X obj 36 222 hsl 113 12 0 112 0 0 \$0-delay_3_pitch \$0-delay_3_pitch-set
delay_3_pitch 25 6 0 10 -208833 -13381 -13381 0 1;
#X obj 151 222 nbx 5 12 -49 112 0 0 \$0-delay_3_pitch-num \$0-delay_3_pitch
empty 0 -6 0 10 -208833 -13381 -13381 0 256 0;
#X obj 36 236 hsl 201 12 0 4000 0 0 \$0-delay_4_coarse \$0-delay_4_coarse-set
delay_4_coarse 25 6 0 10 -257985 -13381 -13381 0 1;
#X obj 36 248 hsl 121 12 0 20 0 0 \$0-delay_4_fine \$0-delay_4_fine-set
delay_4_fine 25 6 0 10 -257985 -13381 -13381 0 1;
#X obj 161 248 nbx 8 12 0 4000 0 0 \$0-delay_4-num \$0-delay_4_real
empty 0 -6 0 10 -257985 -13381 -13381 0 256 0;
#X obj 36 262 hsl 113 12 0 112 0 0 \$0-delay_4_pitch \$0-delay_4_pitch-set
delay_4_pitch 25 6 0 10 -208833 -13381 -13381 0 1;
#X obj 151 262 nbx 5 12 -49 112 0 0 \$0-delay_4_pitch-num \$0-delay_4_pitch
empty 0 -6 0 10 -208833 -13381 -13381 0 256 0;
#X obj 1689 434 r \$0-delay_1_fine;
#X obj 1703 453 r \$0-delay_1_coarse;
#X obj 2079 529 r \$0-delay_1_pitch-num;
#X obj 1717 576 pack f f f f f f f f f f f f f f f f f f f f f f;
#X obj 1874 734 unpack f f f f f f f f f f f f f f f f f f f f f f
;
#X obj 1682 400 s \$0-delay_1_coarse-set;
#X obj 1689 21 route delcoarse1 porta fb lpf delfine1 delpitch1 on
stereo phase setphase mix delay1 randpat mono freq depth;
#X obj 1938 391 s \$0-delay_1_fine-set;
#X obj 2201 217 s \$0-delay_1_pitch-set;
#X obj 2173 251 s \$0-delay_1_pitch;
#X obj 2531 404 t f f;
#X obj 2374 302 t f f;
#X obj 2401 332 > 10;
#X obj 2401 355 == 0;
#X obj 2372 381 spigot;
#X obj 2442 381 spigot;
#X obj 2459 437 - 10;
#X obj 2456 405 t f b;
#X msg 2500 427 10;
#X msg 2364 408 0;
#X obj 2271 24 route delay2 delcoarse2 delfine2 delpitch2 delay3 delcoarse3
delfine3 delpitch3 delay4 delcoarse4 delfine4 delpitch4;
#X obj 2642 299 t f f;
#X obj 2485 197 t f f;
#X obj 2512 227 > 10;
#X obj 2512 250 == 0;
#X obj 2483 276 spigot;
#X obj 2553 276 spigot;
#X obj 2570 332 - 10;
#X obj 2567 300 t f b;
#X msg 2611 322 10;
#X msg 2475 303 0;
#X obj 2760 193 t f f;
#X obj 2603 91 t f f;
#X obj 2630 121 > 10;
#X obj 2630 144 == 0;
#X obj 2601 170 spigot;
#X obj 2671 170 spigot;
#X obj 2688 226 - 10;
#X obj 2685 194 t f b;
#X msg 2729 216 10;
#X msg 2593 197 0;
#X obj 1693 848 s \$0-delay_1_fine-set;
#X obj 1726 869 s \$0-delay_1_coarse-set;
#X obj 2384 896 s \$0-delay_1_pitch-set;
#X obj 2357 916 s \$0-delay_1_pitch;
#X obj 2507 922 t f f;
#X obj 2652 988 t f f;
#X obj 2717 885 t f f;
#X obj 2471 984 s \$0-delay_2_fine-set;
#X obj 2492 1006 s \$0-delay_2_coarse-set;
#X obj 2507 962 s \$0-delay_2_pitch;
#X obj 2534 942 s \$0-delay_2_pitch-set;
#X obj 2637 1072 s \$0-delay_3_coarse-set;
#X obj 2616 1050 s \$0-delay_3_fine-set;
#X obj 2652 1028 s \$0-delay_3_pitch;
#X obj 2679 1008 s \$0-delay_3_pitch-set;
#X obj 2702 969 s \$0-delay_4_coarse-set;
#X obj 2681 947 s \$0-delay_4_fine-set;
#X obj 2717 925 s \$0-delay_4_pitch;
#X obj 2744 905 s \$0-delay_4_pitch-set;
#X obj 2378 487 s \$0-delay_2_coarse-set;
#X obj 2473 468 s \$0-delay_2_fine-set;
#X obj 2531 444 s \$0-delay_2_pitch;
#X obj 2558 424 s \$0-delay_2_pitch-set;
#X obj 2489 382 s \$0-delay_3_coarse-set;
#X obj 2584 363 s \$0-delay_3_fine-set;
#X obj 2642 339 s \$0-delay_3_pitch;
#X obj 2669 319 s \$0-delay_3_pitch-set;
#X obj 2607 276 s \$0-delay_4_coarse-set;
#X obj 2702 257 s \$0-delay_4_fine-set;
#X obj 2760 233 s \$0-delay_4_pitch;
#X obj 2787 213 s \$0-delay_4_pitch-set;
#X obj 1936 420 r \$0-delay_2_fine;
#X obj 1950 439 r \$0-delay_2_coarse;
#X obj 1972 460 r \$0-delay_2_pitch-num;
#X obj 2076 420 r \$0-delay_3_fine;
#X obj 2090 439 r \$0-delay_3_coarse;
#X obj 2112 460 r \$0-delay_3_pitch-num;
#X obj 2216 420 r \$0-delay_4_fine;
#X obj 2230 439 r \$0-delay_4_coarse;
#X obj 2252 460 r \$0-delay_4_pitch-num;
#X obj 224 688 t b f;
#X obj 232 711 +;
#X obj 102 831 t f f;
#X obj 102 774 mtof;
#X obj 102 794 expr 1000/$f1;
#X obj 129 871 i;
#X obj 102 918 -;
#X obj 129 892 * 10;
#X obj 129 851 * 0.1;
#X obj 297 855 ftom;
#X msg 283 876 set \$1;
#X obj 285 913 t a a;
#X obj 297 828 expr 1000/$f1;
#X obj 259 805 moses 1e-07;
#X msg 255 827 -1500;
#X obj 259 758 r \$0-delay_1_real;
#X obj 312 933 s \$0-delay_1_pitch-set;
#X obj 285 953 s \$0-delay_1_pitch;
#X obj 137 929 s \$0-delay_1_coarse-set;
#X obj 102 949 s \$0-delay_1_fine-set;
#X obj 102 753 r \$0-delay_1_pitch-num;
#X obj 261 690 r \$0-delay_1_fine;
#X obj 192 668 r \$0-delay_1_coarse;
#X obj 232 732 s \$0-delay_1_real;
#X obj 574 688 t b f;
#X obj 582 711 +;
#X obj 452 831 t f f;
#X obj 452 774 mtof;
#X obj 452 794 expr 1000/$f1;
#X obj 479 871 i;
#X obj 452 918 -;
#X obj 479 892 * 10;
#X obj 479 851 * 0.1;
#X obj 647 855 ftom;
#X msg 633 876 set \$1;
#X obj 635 913 t a a;
#X obj 647 828 expr 1000/$f1;
#X obj 609 805 moses 1e-07;
#X msg 605 827 -1500;
#X obj 894 688 t b f;
#X obj 902 711 +;
#X obj 772 831 t f f;
#X obj 772 774 mtof;
#X obj 772 794 expr 1000/$f1;
#X obj 799 871 i;
#X obj 772 918 -;
#X obj 799 892 * 10;
#X obj 799 851 * 0.1;
#X obj 967 855 ftom;
#X msg 953 876 set \$1;
#X obj 955 913 t a a;
#X obj 967 828 expr 1000/$f1;
#X obj 929 805 moses 1e-07;
#X msg 925 827 -1500;
#X obj 1244 688 t b f;
#X obj 1252 711 +;
#X obj 1122 831 t f f;
#X obj 1122 774 mtof;
#X obj 1122 794 expr 1000/$f1;
#X obj 1149 871 i;
#X obj 1122 918 -;
#X obj 1149 892 * 10;
#X obj 1149 851 * 0.1;
#X obj 1317 855 ftom;
#X msg 1303 876 set \$1;
#X obj 1305 913 t a a;
#X obj 1317 828 expr 1000/$f1;
#X obj 1279 805 moses 1e-07;
#X msg 1275 827 -1500;
#X obj 452 949 s \$0-delay_2_fine-set;
#X obj 487 929 s \$0-delay_2_coarse-set;
#X obj 452 753 r \$0-delay_2_pitch-num;
#X obj 542 668 r \$0-delay_2_coarse;
#X obj 611 690 r \$0-delay_2_fine;
#X obj 582 732 s \$0-delay_2_real;
#X obj 609 758 r \$0-delay_2_real;
#X obj 662 933 s \$0-delay_2_pitch-set;
#X obj 635 953 s \$0-delay_2_pitch;
#X obj 772 753 r \$0-delay_3_pitch-num;
#X obj 807 929 s \$0-delay_3_coarse-set;
#X obj 772 949 s \$0-delay_3_fine-set;
#X obj 862 668 r \$0-delay_3_coarse;
#X obj 931 690 r \$0-delay_3_fine;
#X obj 902 732 s \$0-delay_3_real;
#X obj 929 758 r \$0-delay_3_real;
#X obj 982 933 s \$0-delay_3_pitch-set;
#X obj 955 953 s \$0-delay_3_pitch;
#X obj 1122 753 r \$0-delay_4_pitch-num;
#X obj 1157 929 s \$0-delay_4_coarse-set;
#X obj 1122 949 s \$0-delay_4_fine-set;
#X obj 1305 953 s \$0-delay_4_pitch;
#X obj 1331 933 s \$0-delay_4_pitch-set;
#X obj 1279 758 r \$0-delay_4_real;
#X obj 1252 732 s \$0-delay_4_real;
#X obj 1281 690 r \$0-delay_4_fine;
#X obj 1212 668 r \$0-delay_4_coarse;
#X msg 202 859 0;
#X obj 204 796 t b;
#X obj 203 817 del 0;
#X msg 203 838 1;
#X msg 552 859 0;
#X obj 554 796 t b;
#X obj 553 817 del 0;
#X msg 553 838 1;
#X msg 872 859 0;
#X obj 874 796 t b;
#X obj 873 817 del 0;
#X msg 873 838 1;
#X msg 1222 859 0;
#X obj 1224 796 t b;
#X obj 1223 817 del 0;
#X msg 1223 838 1;
#X obj 259 781 spigot 1;
#X obj 609 781 spigot 1;
#X obj 929 781 spigot 1;
#X obj 1279 781 spigot 1;
#X obj 303 456 delwrite~ \$0-delfbf_1 8000;
#X obj 647 527 delwrite~ \$0-delfbf_2 8000;
#X obj 1037 527 delwrite~ \$0-delfbf_3 8000;
#X obj 1277 527 delwrite~ \$0-delfbf_4 8000;
#X msg 476 400 40;
#X msg 876 410 40;
#X msg 1206 350 40;
#X msg 1456 350 40;
#X floatatom 669 117 5 0 0 0 - - -, f 5;
#X floatatom 919 179 5 0 0 0 - - -, f 5;
#X floatatom 1192 130 5 0 0 0 - - -, f 5;
#X connect 0 0 16 0;
#X connect 0 0 17 0;
#X connect 3 0 6 0;
#X connect 4 0 59 1;
#X connect 4 0 74 0;
#X connect 4 0 94 0;
#X connect 4 0 315 0;
#X connect 4 0 343 0;
#X connect 5 0 91 0;
#X connect 6 0 82 0;
#X connect 7 0 8 0;
#X connect 8 0 11 0;
#X connect 9 0 7 0;
#X connect 9 1 8 1;
#X connect 10 0 9 0;
#X connect 11 0 12 0;
#X connect 11 0 360 0;
#X connect 12 0 13 0;
#X connect 13 0 14 0;
#X connect 13 1 15 1;
#X connect 14 0 15 0;
#X connect 15 0 18 0;
#X connect 16 0 1 0;
#X connect 17 0 72 0;
#X connect 18 0 361 0;
#X connect 20 0 48 0;
#X connect 46 0 47 0;
#X connect 47 0 259 0;
#X connect 47 1 167 0;
#X connect 47 2 260 0;
#X connect 48 0 19 0;
#X connect 49 0 86 1;
#X connect 49 0 104 1;
#X connect 49 0 325 1;
#X connect 49 0 353 1;
#X connect 50 0 59 0;
#X connect 51 0 71 0;
#X connect 54 0 55 0;
#X connect 54 0 63 0;
#X connect 54 0 305 0;
#X connect 54 0 334 0;
#X connect 55 0 61 0;
#X connect 59 0 60 0;
#X connect 60 0 54 0;
#X connect 61 0 66 0;
#X connect 62 0 55 1;
#X connect 62 0 587 0;
#X connect 63 0 90 0;
#X connect 65 0 92 0;
#X connect 66 0 108 0;
#X connect 67 0 64 0;
#X connect 68 0 67 0;
#X connect 68 0 65 0;
#X connect 69 0 54 1;
#X connect 71 0 87 1;
#X connect 71 0 105 1;
#X connect 71 0 326 1;
#X connect 71 0 354 1;
#X connect 72 0 579 0;
#X connect 73 0 79 0;
#X connect 74 1 73 1;
#X connect 75 0 80 0;
#X connect 76 0 86 1;
#X connect 77 0 76 0;
#X connect 77 0 583 0;
#X connect 78 0 89 0;
#X connect 79 0 75 0;
#X connect 80 0 330 0;
#X connect 81 0 84 0;
#X connect 81 0 102 0;
#X connect 81 0 323 0;
#X connect 81 0 351 0;
#X connect 82 1 81 0;
#X connect 83 0 72 1;
#X connect 84 0 85 0;
#X connect 85 0 83 1;
#X connect 86 0 83 0;
#X connect 87 0 75 1;
#X connect 88 0 73 0;
#X connect 88 0 90 1;
#X connect 88 1 78 0;
#X connect 89 0 73 0;
#X connect 89 0 90 1;
#X connect 90 0 87 0;
#X connect 92 0 580 0;
#X connect 93 0 99 0;
#X connect 94 1 93 1;
#X connect 95 0 100 0;
#X connect 96 0 104 1;
#X connect 97 0 96 0;
#X connect 97 0 584 0;
#X connect 98 0 107 0;
#X connect 99 0 95 0;
#X connect 100 0 331 0;
#X connect 101 0 92 1;
#X connect 102 0 103 0;
#X connect 103 0 101 1;
#X connect 104 0 101 0;
#X connect 105 0 95 1;
#X connect 106 0 93 0;
#X connect 106 0 108 1;
#X connect 106 1 98 0;
#X connect 107 0 93 0;
#X connect 107 0 108 1;
#X connect 108 0 105 0;
#X connect 109 0 388 0;
#X connect 112 0 114 0;
#X connect 112 1 113 0;
#X connect 115 0 117 0;
#X connect 115 1 116 0;
#X connect 116 0 111 0;
#X connect 117 0 110 0;
#X connect 118 0 120 0;
#X connect 118 1 119 0;
#X connect 121 0 391 0;
#X connect 121 1 390 0;
#X connect 123 0 126 0;
#X connect 123 0 127 0;
#X connect 123 1 124 0;
#X connect 124 0 125 0;
#X connect 124 0 127 1;
#X connect 125 0 126 1;
#X connect 126 0 131 0;
#X connect 126 0 389 0;
#X connect 127 0 129 0;
#X connect 128 0 387 0;
#X connect 129 0 128 0;
#X connect 129 1 130 0;
#X connect 130 0 389 0;
#X connect 131 0 387 0;
#X connect 133 0 132 0;
#X connect 137 0 143 0;
#X connect 137 1 402 0;
#X connect 138 0 140 0;
#X connect 138 1 139 0;
#X connect 143 0 123 0;
#X connect 143 1 115 0;
#X connect 143 2 132 0;
#X connect 143 3 134 0;
#X connect 143 4 121 0;
#X connect 143 5 112 0;
#X connect 143 6 122 0;
#X connect 143 7 138 0;
#X connect 143 8 141 0;
#X connect 143 9 118 0;
#X connect 143 10 136 0;
#X connect 144 0 145 0;
#X connect 144 1 184 0;
#X connect 147 0 146 0;
#X connect 148 0 147 0;
#X connect 149 0 385 0;
#X connect 150 0 149 0;
#X connect 151 0 152 0;
#X connect 152 0 165 0;
#X connect 152 1 153 0;
#X connect 153 0 179 0;
#X connect 154 0 155 0;
#X connect 154 0 166 0;
#X connect 154 0 186 0;
#X connect 155 0 154 1;
#X connect 156 0 154 1;
#X connect 157 0 153 0;
#X connect 158 0 157 0;
#X connect 159 0 161 0;
#X connect 159 0 154 0;
#X connect 159 0 185 1;
#X connect 159 0 207 1;
#X connect 159 0 206 1;
#X connect 159 1 386 0;
#X connect 160 0 153 0;
#X connect 161 0 162 1;
#X connect 162 0 163 0;
#X connect 162 0 166 0;
#X connect 162 0 185 1;
#X connect 162 0 186 0;
#X connect 162 0 206 1;
#X connect 162 0 207 1;
#X connect 163 0 153 0;
#X connect 164 0 153 0;
#X connect 165 0 162 0;
#X connect 165 1 164 0;
#X connect 165 2 160 0;
#X connect 166 0 187 0;
#X connect 167 0 169 0;
#X connect 167 1 168 0;
#X connect 167 1 209 0;
#X connect 168 0 153 0;
#X connect 169 0 153 0;
#X connect 170 0 171 0;
#X connect 171 0 180 0;
#X connect 171 0 300 0;
#X connect 172 0 153 0;
#X connect 173 0 153 0;
#X connect 174 0 153 0;
#X connect 175 0 176 0;
#X connect 176 0 213 0;
#X connect 177 0 153 0;
#X connect 178 0 153 0;
#X connect 179 0 159 0;
#X connect 180 0 174 0;
#X connect 180 1 173 0;
#X connect 180 1 156 0;
#X connect 180 2 172 0;
#X connect 180 3 181 0;
#X connect 181 0 153 0;
#X connect 182 0 183 0;
#X connect 183 0 157 0;
#X connect 183 1 181 0;
#X connect 184 0 180 0;
#X connect 185 0 299 0;
#X connect 188 0 385 2;
#X connect 189 0 385 3;
#X connect 190 0 385 4;
#X connect 191 0 193 0;
#X connect 191 1 192 0;
#X connect 196 0 220 0;
#X connect 196 1 219 0;
#X connect 197 0 224 0;
#X connect 197 1 223 0;
#X connect 198 0 221 0;
#X connect 198 1 222 0;
#X connect 199 0 426 0;
#X connect 199 1 425 0;
#X connect 200 0 385 9;
#X connect 202 0 204 0;
#X connect 203 0 205 0;
#X connect 204 0 211 0;
#X connect 205 0 206 0;
#X connect 206 0 210 0;
#X connect 207 0 208 0;
#X connect 208 0 212 0;
#X connect 209 0 205 1;
#X connect 209 0 204 1;
#X connect 210 0 207 0;
#X connect 211 0 207 0;
#X connect 213 0 177 0;
#X connect 213 0 300 0;
#X connect 214 0 385 5;
#X connect 215 0 385 7;
#X connect 216 0 385 6;
#X connect 217 0 385 8;
#X connect 218 0 385 10;
#X connect 227 0 385 12;
#X connect 229 0 240 0;
#X connect 230 0 242 0;
#X connect 231 0 243 0;
#X connect 232 0 244 0;
#X connect 233 0 245 0;
#X connect 234 0 246 0;
#X connect 235 0 249 0;
#X connect 235 0 287 0;
#X connect 236 0 247 0;
#X connect 237 0 248 0;
#X connect 239 0 262 0;
#X connect 240 0 241 0;
#X connect 240 0 265 0;
#X connect 241 0 258 0;
#X connect 242 0 263 0;
#X connect 242 0 264 0;
#X connect 243 0 251 0;
#X connect 243 0 270 0;
#X connect 244 0 252 0;
#X connect 245 0 253 0;
#X connect 246 0 254 0;
#X connect 246 0 267 0;
#X connect 247 0 255 0;
#X connect 247 0 268 0;
#X connect 248 0 256 0;
#X connect 248 0 269 0;
#X connect 249 0 257 0;
#X connect 250 0 238 0;
#X connect 251 0 258 0;
#X connect 252 0 258 0;
#X connect 253 0 258 0;
#X connect 254 0 258 0;
#X connect 255 0 258 0;
#X connect 256 0 258 0;
#X connect 257 0 258 0;
#X connect 258 0 238 0;
#X connect 259 0 258 1;
#X connect 260 0 258 1;
#X connect 261 0 259 0;
#X connect 262 0 250 0;
#X connect 263 0 258 0;
#X connect 264 0 265 0;
#X connect 264 1 265 1;
#X connect 265 0 266 0;
#X connect 266 0 258 0;
#X connect 267 0 297 0;
#X connect 267 1 297 5;
#X connect 268 0 297 0;
#X connect 268 1 297 6;
#X connect 270 0 297 0;
#X connect 270 1 297 9;
#X connect 272 0 298 0;
#X connect 275 0 279 0;
#X connect 275 0 281 0;
#X connect 276 0 297 0;
#X connect 277 0 280 0;
#X connect 277 0 283 0;
#X connect 278 0 297 0;
#X connect 278 1 297 7;
#X connect 279 0 297 0;
#X connect 279 1 297 8;
#X connect 280 0 297 0;
#X connect 280 1 297 10;
#X connect 281 0 282 0;
#X connect 282 0 258 0;
#X connect 283 0 258 0;
#X connect 284 0 286 0;
#X connect 284 0 278 0;
#X connect 285 0 258 0;
#X connect 286 0 285 0;
#X connect 287 0 297 0;
#X connect 287 1 297 4;
#X connect 288 0 291 0;
#X connect 288 0 294 0;
#X connect 289 0 290 0;
#X connect 289 0 295 0;
#X connect 290 0 292 0;
#X connect 291 0 293 0;
#X connect 292 0 258 0;
#X connect 293 0 258 0;
#X connect 294 0 297 0;
#X connect 294 1 297 2;
#X connect 295 0 297 0;
#X connect 295 1 297 3;
#X connect 296 0 258 0;
#X connect 297 0 296 0;
#X connect 298 0 297 0;
#X connect 298 1 297 1;
#X connect 299 0 144 0;
#X connect 300 0 238 0;
#X connect 305 0 306 0;
#X connect 306 0 310 0;
#X connect 307 0 333 0;
#X connect 309 0 313 0;
#X connect 310 0 329 0;
#X connect 311 0 308 0;
#X connect 312 0 311 0;
#X connect 312 0 309 0;
#X connect 313 0 581 0;
#X connect 314 0 320 0;
#X connect 315 1 314 1;
#X connect 316 0 321 0;
#X connect 317 0 325 1;
#X connect 318 0 317 0;
#X connect 318 0 585 0;
#X connect 319 0 328 0;
#X connect 320 0 316 0;
#X connect 321 0 332 0;
#X connect 322 0 313 1;
#X connect 323 0 324 0;
#X connect 324 0 322 1;
#X connect 325 0 322 0;
#X connect 326 0 316 1;
#X connect 327 0 314 0;
#X connect 327 0 329 1;
#X connect 327 1 319 0;
#X connect 328 0 314 0;
#X connect 328 0 329 1;
#X connect 329 0 326 0;
#X connect 330 0 86 0;
#X connect 330 0 1 0;
#X connect 331 0 104 0;
#X connect 331 0 64 0;
#X connect 332 0 325 0;
#X connect 332 0 308 0;
#X connect 333 0 305 1;
#X connect 333 0 588 0;
#X connect 334 0 335 0;
#X connect 335 0 338 0;
#X connect 337 0 341 0;
#X connect 338 0 357 0;
#X connect 339 0 336 0;
#X connect 340 0 339 0;
#X connect 340 0 337 0;
#X connect 341 0 582 0;
#X connect 342 0 348 0;
#X connect 343 1 342 1;
#X connect 344 0 349 0;
#X connect 345 0 353 1;
#X connect 346 0 345 0;
#X connect 346 0 586 0;
#X connect 347 0 356 0;
#X connect 348 0 344 0;
#X connect 349 0 362 0;
#X connect 350 0 341 1;
#X connect 351 0 352 0;
#X connect 352 0 350 1;
#X connect 353 0 350 0;
#X connect 354 0 344 1;
#X connect 355 0 342 0;
#X connect 355 0 357 1;
#X connect 355 1 347 0;
#X connect 356 0 342 0;
#X connect 356 0 357 1;
#X connect 357 0 354 0;
#X connect 358 0 359 0;
#X connect 359 0 334 1;
#X connect 359 0 589 0;
#X connect 360 0 16 1;
#X connect 360 0 67 1;
#X connect 360 0 311 1;
#X connect 361 0 17 1;
#X connect 361 0 65 1;
#X connect 361 0 309 1;
#X connect 362 0 353 0;
#X connect 362 0 336 0;
#X connect 363 0 88 0;
#X connect 364 0 106 0;
#X connect 365 0 327 0;
#X connect 366 0 355 0;
#X connect 382 0 149 1;
#X connect 383 0 385 1;
#X connect 384 0 385 11;
#X connect 385 0 151 0;
#X connect 386 0 423 0;
#X connect 386 1 424 0;
#X connect 386 2 191 0;
#X connect 386 3 194 0;
#X connect 386 4 195 0;
#X connect 386 5 196 0;
#X connect 386 6 197 0;
#X connect 386 7 198 0;
#X connect 386 8 225 0;
#X connect 386 9 201 0;
#X connect 386 10 226 0;
#X connect 386 11 199 0;
#X connect 386 12 228 0;
#X connect 386 13 430 0;
#X connect 386 14 431 0;
#X connect 386 15 427 0;
#X connect 386 16 435 0;
#X connect 386 17 434 0;
#X connect 386 18 428 0;
#X connect 386 19 439 0;
#X connect 386 20 438 0;
#X connect 386 21 429 0;
#X connect 388 0 387 0;
#X connect 388 1 118 0;
#X connect 388 2 115 0;
#X connect 388 3 112 0;
#X connect 388 4 389 0;
#X connect 388 5 121 0;
#X connect 388 6 146 0;
#X connect 388 7 133 0;
#X connect 388 8 134 0;
#X connect 388 9 135 0;
#X connect 388 10 122 0;
#X connect 388 11 123 0;
#X connect 388 12 185 0;
#X connect 388 13 136 0;
#X connect 388 14 138 0;
#X connect 388 15 141 0;
#X connect 388 16 137 0;
#X connect 388 16 144 0;
#X connect 392 0 444 0;
#X connect 392 1 445 0;
#X connect 393 0 396 0;
#X connect 393 0 397 0;
#X connect 393 1 394 0;
#X connect 394 0 395 0;
#X connect 394 0 397 1;
#X connect 395 0 396 1;
#X connect 396 0 401 0;
#X connect 396 0 443 0;
#X connect 397 0 399 0;
#X connect 398 0 442 0;
#X connect 399 0 398 0;
#X connect 399 1 400 0;
#X connect 400 0 443 0;
#X connect 401 0 442 0;
#X connect 402 0 393 0;
#X connect 402 1 442 0;
#X connect 402 2 443 0;
#X connect 402 3 392 0;
#X connect 402 4 404 0;
#X connect 402 5 446 0;
#X connect 402 6 447 0;
#X connect 402 7 403 0;
#X connect 402 8 414 0;
#X connect 402 9 450 0;
#X connect 402 10 451 0;
#X connect 402 11 413 0;
#X connect 403 0 448 0;
#X connect 403 1 449 0;
#X connect 404 0 407 0;
#X connect 404 0 408 0;
#X connect 404 1 405 0;
#X connect 405 0 406 0;
#X connect 405 0 408 1;
#X connect 406 0 407 1;
#X connect 407 0 412 0;
#X connect 407 0 447 0;
#X connect 408 0 410 0;
#X connect 409 0 446 0;
#X connect 410 0 409 0;
#X connect 410 1 411 0;
#X connect 411 0 447 0;
#X connect 412 0 446 0;
#X connect 413 0 452 0;
#X connect 413 1 453 0;
#X connect 414 0 417 0;
#X connect 414 0 418 0;
#X connect 414 1 415 0;
#X connect 415 0 416 0;
#X connect 415 0 418 1;
#X connect 416 0 417 1;
#X connect 417 0 422 0;
#X connect 417 0 451 0;
#X connect 418 0 420 0;
#X connect 419 0 450 0;
#X connect 420 0 419 0;
#X connect 420 1 421 0;
#X connect 421 0 451 0;
#X connect 422 0 450 0;
#X connect 427 0 432 0;
#X connect 427 1 433 0;
#X connect 428 0 436 0;
#X connect 428 1 437 0;
#X connect 429 0 440 0;
#X connect 429 1 441 0;
#X connect 454 0 385 13;
#X connect 455 0 385 14;
#X connect 456 0 385 15;
#X connect 457 0 385 16;
#X connect 458 0 385 17;
#X connect 459 0 385 18;
#X connect 460 0 385 19;
#X connect 461 0 385 20;
#X connect 462 0 385 21;
#X connect 463 0 464 0;
#X connect 463 1 464 1;
#X connect 464 0 486 0;
#X connect 465 0 469 0;
#X connect 465 0 560 0;
#X connect 465 1 471 0;
#X connect 465 1 559 0;
#X connect 466 0 467 0;
#X connect 467 0 465 0;
#X connect 468 0 470 0;
#X connect 469 0 482 0;
#X connect 470 0 469 1;
#X connect 470 0 481 0;
#X connect 471 0 468 0;
#X connect 472 0 473 0;
#X connect 473 0 474 0;
#X connect 474 0 480 0;
#X connect 474 1 479 0;
#X connect 475 0 472 0;
#X connect 476 0 477 0;
#X connect 476 1 475 0;
#X connect 477 0 473 0;
#X connect 483 0 466 0;
#X connect 484 0 464 0;
#X connect 485 0 463 0;
#X connect 487 0 488 0;
#X connect 487 1 488 1;
#X connect 488 0 537 0;
#X connect 489 0 493 0;
#X connect 489 0 564 0;
#X connect 489 1 495 0;
#X connect 489 1 563 0;
#X connect 490 0 491 0;
#X connect 491 0 489 0;
#X connect 492 0 494 0;
#X connect 493 0 532 0;
#X connect 494 0 493 1;
#X connect 494 0 533 0;
#X connect 495 0 492 0;
#X connect 496 0 497 0;
#X connect 497 0 498 0;
#X connect 498 0 540 0;
#X connect 498 1 539 0;
#X connect 499 0 496 0;
#X connect 500 0 501 0;
#X connect 500 1 499 0;
#X connect 501 0 497 0;
#X connect 502 0 503 0;
#X connect 502 1 503 1;
#X connect 503 0 546 0;
#X connect 504 0 508 0;
#X connect 504 0 568 0;
#X connect 504 1 510 0;
#X connect 504 1 567 0;
#X connect 505 0 506 0;
#X connect 506 0 504 0;
#X connect 507 0 509 0;
#X connect 508 0 543 0;
#X connect 509 0 508 1;
#X connect 509 0 542 0;
#X connect 510 0 507 0;
#X connect 511 0 512 0;
#X connect 512 0 513 0;
#X connect 513 0 549 0;
#X connect 513 1 548 0;
#X connect 514 0 511 0;
#X connect 515 0 516 0;
#X connect 515 1 514 0;
#X connect 516 0 512 0;
#X connect 517 0 518 0;
#X connect 517 1 518 1;
#X connect 518 0 556 0;
#X connect 519 0 523 0;
#X connect 519 0 572 0;
#X connect 519 1 525 0;
#X connect 519 1 571 0;
#X connect 520 0 521 0;
#X connect 521 0 519 0;
#X connect 522 0 524 0;
#X connect 523 0 552 0;
#X connect 524 0 523 1;
#X connect 524 0 551 0;
#X connect 525 0 522 0;
#X connect 526 0 527 0;
#X connect 527 0 528 0;
#X connect 528 0 553 0;
#X connect 528 1 554 0;
#X connect 529 0 526 0;
#X connect 530 0 531 0;
#X connect 530 1 529 0;
#X connect 531 0 527 0;
#X connect 534 0 490 0;
#X connect 535 0 487 0;
#X connect 536 0 488 0;
#X connect 541 0 505 0;
#X connect 544 0 502 0;
#X connect 545 0 503 0;
#X connect 550 0 520 0;
#X connect 557 0 518 0;
#X connect 558 0 517 0;
#X connect 560 0 561 0;
#X connect 561 0 562 0;
#X connect 564 0 565 0;
#X connect 565 0 566 0;
#X connect 568 0 569 0;
#X connect 569 0 570 0;
#X connect 572 0 573 0;
#X connect 573 0 574 0;
#X connect 583 0 86 2;
#X connect 584 0 104 2;
#X connect 585 0 325 2;
#X connect 586 0 353 2;
#X coords 0 -1 1 1 212 298 1 30 99;
