#N canvas 3 89 1259 676 10;
#X declare -lib zexy -lib iemlib -lib ext13 -path maxlib -path ekext
;
#X obj 53 438 inlet~;
#N canvas 733 126 450 300 tables_1 0;
#X restore 470 53 pd tables_1;
#N canvas 0 50 450 300 tables_2 0;
#X restore 470 73 pd tables_2;
#N canvas 1 82 450 300 tables_3 0;
#X restore 470 93 pd tables_3;
#N canvas 1 82 450 300 tables_4 0;
#X restore 470 113 pd tables_4;
#N canvas 1 82 450 300 tables_5 0;
#X restore 470 133 pd tables_5;
#X obj 201 217 cnv 15 100 114 empty empty analysis 14 5 0 14 -249778
-83269 0;
#X obj 302 217 cnv 15 77 114 empty empty record 12 5 0 14 -261805 -83269
0;
#X obj 453 213 cnv 15 100 60 empty empty empty 20 12 0 14 -233017 -66577
0;
#X obj 51 332 cnv 15 328 70 empty empty empty 20 12 1 14 -261504 -66577
0;
#X obj 51 217 cnv 15 64 114 empty empty bounds 8 5 0 14 -220992 -13330
0;
#X obj 116 217 cnv 15 84 114 empty empty chunks 8 5 0 14 -221171 -13330
0;
#X obj 51 247 cnv 14 64 14 empty \$0-segs_type-lbl type:hasc 2 7 1
10 -220861 -13330 0;
#X obj 264 87 nbx 7 12 0 3.969e+06 0 0 \$0-minrec \$0-minrec-set start
0 -8 0 10 -203648 -32789 -32789 0 256;
#X obj 337 87 nbx 7 12 0 3.969e+06 0 0 \$0-maxrec \$0-maxrec-set end
0 -8 0 10 -203648 -32789 -32789 3.969e+06 256;
#X obj 355 233 tgl 20 0 \$0-analyse-box \$0-analyse-set ON 3 10 1 10
-86277 -261234 -261234 0 1;
#X obj 59 235 hradio 12 1 0 3 \$0-segs_type \$0-segs_type-set empty
0 -6 1 10 -13330 -204800 -13330 0;
#X obj 75 314 nbx 3 14 0 511 0 0 \$0-bounds_1 \$0-bounds_1-set 1-2
-21 7 1 10 -200438 -13381 -13381 30 256;
#X obj 75 297 nbx 3 14 0 511 0 0 \$0-bounds_2 \$0-bounds_2-set 2-3
-21 7 1 10 -200317 -13330 -13330 100 256;
#X obj 75 280 nbx 3 14 0 511 0 0 \$0-bounds_3 \$0-bounds_3-set 3-4
-21 7 1 10 -232765 -45076 -45076 200 256;
#X obj 75 263 nbx 3 14 0 511 0 0 \$0-bounds_4 \$0-bounds_4-set 4-5
-21 7 1 10 -249266 -86853 -86853 320 256;
#X obj 122 246 nbx 5 14 0 1e+37 0 0 empty empty empty 0 -8 1 10 -262144
-1 -1 0 256;
#X obj 122 263 nbx 5 14 0 1e+37 0 0 empty empty empty 0 -8 1 10 -262144
-1 -1 0 256;
#X obj 122 280 nbx 5 14 0 1e+37 0 0 empty empty empty 0 -8 1 10 -262144
-1 -1 0 256;
#X obj 122 297 nbx 5 14 0 1e+37 0 0 empty empty empty 0 -8 1 10 -262144
-1 -1 0 256;
#X obj 122 314 nbx 5 14 0 1e+37 0 0 empty empty empty 0 -8 1 10 -262144
-1 -1 0 256;
#X obj 180 246 bng 14 250 50 0 \$0-clear_1 \$0-clear_1-bng empty 17
7 0 10 -253675 -83269 -83269;
#X obj 180 263 bng 14 250 50 0 \$0-clear_2 \$0-clear_2-bng empty 17
7 0 10 -261494 -86277 -86277;
#X obj 180 280 bng 14 250 50 0 \$0-clear_3 \$0-clear_3-bng empty 17
7 0 10 -233024 -16662 -16662;
#X obj 180 297 bng 14 250 50 0 \$0-clear_4 \$0-clear_4-bng empty 17
7 0 10 -220797 -13330 -13330;
#X obj 180 314 bng 14 250 50 0 \$0-clear_5 \$0-clear_5-bng empty 17
7 0 10 -233072 -13381 -13381;
#X obj 180 229 bng 14 250 50 0 \$0-clear_all \$0-clear_all-bng clear_all:
-50 10 0 8 -262144 -4160 -45076;
#X text 58 39 successive;
#X text 61 49 influence;
#X text 69 59 factor;
#X text 150 57 onset bias;
#X obj 221 268 nbx 4 14 0.01 1 1 0 \$0-onset_bias \$0-onset_bias-set
onset_bias -6 -6 0 12 -262144 -1 -1 0.7 256;
#X obj 221 295 nbx 4 14 0 100 0 0 \$0-p_attack \$0-p_attack-set pitch_attack
-12 -6 0 12 -262144 -1 -1 0 256;
#X obj 221 242 nbx 4 14 0.01 100 1 0 \$0-hasc_threshold \$0-hasc_threshold-set
hasc_threshold -19 -6 0 12 -262144 -1 -1 0.4 256;
#X obj 305 230 tgl 14 0 \$0-loop \$0-loop-set loop 17 7 1 10 -203648
-45076 -45076 1 1;
#X obj 1674 687 inlet;
#X obj 305 291 nbx 6 12 0 90000 0 0 \$0-minrec_ms \$0-minrec_ms-set
record_start 0 -5 1 10 -203648 -45076 -45076 0 256;
#X obj 305 315 nbx 6 12 0 90000 0 0 \$0-maxrec_ms \$0-maxrec_ms-set
record_end 0 -5 1 10 -203648 -45076 -45076 90000 256;
#X obj 305 244 bng 14 250 50 0 \$0-start \$0-start-bng start 17 7 1
10 -203648 -45076 -45076;
#X obj 36 871 outlet;
#X text 362 314 ms;
#X text 362 290 ms;
#X text 125 58 or;
#X text 212 45 creation arg: bufsize buffername;
#N canvas 38 157 535 451 auto_out 0;
#X obj 78 212 r \$0-chunks_1;
#X msg 78 244 low \$1;
#X obj 128 232 r \$0-chunks_2;
#X msg 128 264 lowmid \$1;
#X obj 188 252 r \$0-chunks_3;
#X msg 188 284 mid \$1;
#X obj 228 272 r \$0-chunks_4;
#X msg 228 304 highmid \$1;
#X msg 298 324 high \$1;
#X obj 298 292 r \$0-chunks_5;
#X obj 78 371 outlet;
#X obj 282 365 r \$0-pitch;
#X obj 336 394 r \$0-hasc;
#X obj 283 386 spigot;
#X obj 336 415 spigot;
#X obj 322 345 r \$0-output_pitch;
#X obj 376 374 r \$0-output_hasc;
#X msg 160 379 pitch \$1;
#X msg 192 403 hasc \$1;
#X obj 327 230 r \$0-bonked;
#X msg 327 257 bonk bang;
#X obj 327 144 r \$0-c5_save;
#X msg 327 165 c5save \$1;
#X obj 87 64 r \$0-c1_save;
#X msg 87 85 c1save \$1;
#X obj 177 64 r \$0-c2_save;
#X msg 177 85 c2save \$1;
#X obj 267 64 r \$0-c3_save;
#X msg 267 85 c3save \$1;
#X obj 297 104 r \$0-c4_save;
#X msg 297 125 c4save \$1;
#X connect 0 0 1 0;
#X connect 1 0 10 0;
#X connect 2 0 3 0;
#X connect 3 0 10 0;
#X connect 4 0 5 0;
#X connect 5 0 10 0;
#X connect 6 0 7 0;
#X connect 7 0 10 0;
#X connect 8 0 10 0;
#X connect 9 0 8 0;
#X connect 11 0 13 0;
#X connect 12 0 14 0;
#X connect 13 0 17 0;
#X connect 14 0 18 0;
#X connect 15 0 13 1;
#X connect 16 0 14 1;
#X connect 17 0 10 0;
#X connect 18 0 10 0;
#X connect 19 0 20 0;
#X connect 20 0 10 0;
#X connect 21 0 22 0;
#X connect 22 0 10 0;
#X connect 23 0 24 0;
#X connect 24 0 10 0;
#X connect 25 0 26 0;
#X connect 26 0 10 0;
#X connect 27 0 28 0;
#X connect 28 0 10 0;
#X connect 29 0 30 0;
#X connect 30 0 10 0;
#X restore 35 848 pd auto_out;
#X obj 54 809 prepend thischunk;
#N canvas 0 50 450 300 (subpatch) 0;
#X array \$0-analysis 7751 float 0;
#X coords 0 511 7750 0 320 51 2 0 0;
#X restore 55 349 graph;
#X obj 365 336 tgl 10 0 \$0-show_analysis \$0-show_analysis-set hasc
-26 5 2 10 -261504 -4160 -45076 0 1;
#X text 307 332 show:;
#X text 381 365 should show pitch and amp \, p-wons \, a-wons options
;
#X text 382 380 ...or be relevant only to the current seg type;
#X obj 155 334 bng 12 100 50 0 empty \$0-bonked bnk 15 6 1 10 -224832
-94721 -13381;
#X obj 221 334 nbx 4 12 0 140 0 0 empty \$0-pitch pitch -25 6 1 10
-224832 -1 -1 0 256;
#X obj 265 334 nbx 4 12 0 140 0 0 empty \$0-note empty -33 6 1 10 -224832
-1 -1 0 256;
#X obj 299 202 bng 12 250 50 0 \$0-save_chunks \$0-save_chunks-bng
save 15 6 1 10 -262144 -1 -1;
#X obj 285 202 bng 12 1000 50 0 empty \$0-save_end done -26 6 1 10
-1 -4034 -33289;
#X obj 415 259 tgl 15 0 \$0-lastchunk empty lastchunk 17 7 0 10 -262144
-1 -1 0 1;
#X obj 204 314 tgl 12 0 \$0-output_pitch \$0-output_pitch-set pitch
17 6 1 10 -249778 -83269 -83269 0 1;
#X obj 256 314 tgl 12 0 \$0-output_hasc \$0-output_hasc-set hasc 17
6 1 10 -249778 -83269 -83269 0 1;
#X obj 305 269 nbx 4 12 0 1000 0 0 \$0-min_length \$0-min_length-set
min_length 0 -5 1 10 -203648 -45076 -45076 100 256;
#X text 347 268 ms;
#X obj 543 53 table chunk_sizes-1 10000;
#X obj 543 73 table chunk_sizes-2 10000;
#X obj 543 93 table chunk_sizes-3 10000;
#X obj 543 113 table chunk_sizes-4 10000;
#X obj 543 133 table chunk_sizes-5 10000;
#X obj 594 167 table chunk_0_0 10;
#X text 92 870 length start hasc pitch amp;
#X obj 610 196 table \$2 \$1;
#X obj 728 616 r \$0-loop;
#X obj 727 636 sel 0;
#X obj 659 662 snapshot~;
#X obj 659 707 \$1;
#X obj 659 683 t b f;
#X obj 659 730 -;
#X obj 659 752 / 44.1;
#X obj 697 716 r \$0-srate_ch;
#X obj 659 773 t b f;
#X obj 659 793 delay;
#X obj 659 834 s \$0-analyse-set;
#X msg 659 814 0;
#X obj 594 220 table \$0-chunk 100;
#X obj 499 434 r \$0-minrec;
#X obj 518 602 r \$0-maxrec;
#X obj 44 919 route data;
#X text 108 961 length start hasc pitch amp;
#X obj 101 980 unpack f f f f f;
#X obj 444 1083 sel 1 2 3 4 5;
#X obj 203 884 r \$0-clear_1;
#X msg 203 904 clear;
#X obj 203 924 s pd-tables_1;
#X msg 293 904 clear;
#X obj 293 884 r \$0-clear_2;
#X obj 293 924 s pd-tables_2;
#X msg 383 904 clear;
#X msg 473 904 clear;
#X obj 383 884 r \$0-clear_3;
#X obj 383 924 s pd-tables_3;
#X obj 473 884 r \$0-clear_4;
#X obj 473 924 s pd-tables_4;
#X msg 563 904 clear;
#X obj 563 884 r \$0-clear_5;
#X obj 563 924 s pd-tables_5;
#X msg 474 1062 1;
#X obj 444 1111 cup;
#X msg 506 1062 0;
#X msg 560 1062 1;
#X obj 490 1111 cup;
#X msg 592 1062 0;
#X msg 646 1062 1;
#X obj 536 1111 cup;
#X msg 678 1062 0;
#X msg 732 1062 1;
#X obj 582 1111 cup;
#X msg 764 1062 0;
#X msg 818 1062 1;
#X obj 628 1111 cup;
#X msg 850 1062 0;
#X obj 443 1133 s \$0-chunks_1;
#X obj 529 1133 s \$0-chunks_2;
#X obj 615 1133 s \$0-chunks_3;
#X obj 701 1133 s \$0-chunks_4;
#X obj 787 1133 s \$0-chunks_5;
#X text 64 1258 length start category hasc pitch amp;
#X obj 101 1240 pack f f f f f f;
#X obj 140 1595 outlet;
#X obj 118 1306 == 1;
#X obj 166 1306 == 2;
#X obj 85 1340 spigot;
#X obj 133 1340 spigot;
#X obj 180 1339 spigot;
#X obj 228 1339 spigot;
#X obj 213 1306 == 3;
#X obj 261 1306 == 4;
#X obj 311 1306 == 5;
#X obj 278 1339 spigot;
#X obj 44 1306 prepend add;
#X obj 65 1521 msgfile;
#X obj 135 1521 msgfile;
#X obj 205 1521 msgfile;
#X obj 275 1521 msgfile;
#X obj 345 1521 msgfile;
#X obj 20 1366 r \$0-access_data;
#X obj 20 1388 route 1 2 3 4 5;
#X obj 20 1426 * 4;
#X obj 20 1447 t b f;
#X msg 51 1468 goto \$1;
#X obj 20 1489 kalashnikov 4;
#X obj 65 1545 prepend 1;
#X obj 135 1545 prepend 2;
#X obj 205 1545 prepend 3;
#X obj 275 1545 prepend 4;
#X obj 345 1545 prepend 5;
#X obj 110 1426 * 4;
#X obj 110 1447 t b f;
#X msg 141 1468 goto \$1;
#X obj 110 1489 kalashnikov 4;
#X obj 200 1426 * 4;
#X obj 200 1447 t b f;
#X msg 231 1468 goto \$1;
#X obj 200 1489 kalashnikov 4;
#X obj 290 1426 * 4;
#X obj 290 1447 t b f;
#X msg 321 1468 goto \$1;
#X obj 290 1489 kalashnikov 4;
#X obj 380 1426 * 4;
#X obj 380 1447 t b f;
#X msg 411 1468 goto \$1;
#X obj 380 1489 kalashnikov 4;
#X obj 166 1277 i;
#X obj 140 1574 prepend data;
#X obj 527 1215 t a a;
#X obj 622 1268 r \$0-chunks_1;
#X obj 622 1288 * 20;
#X obj 622 1308 + 20;
#X obj 651 1308 makefilename chunk_1_%d;
#X obj 594 1343 pack f f s;
#X text 945 1225 to: length yoffset tabname;
#X obj 594 1383 s pd-tables_1;
#X obj 528 1251 unpack f f f;
#X msg 594 1363 obj 20 \$2 table \$3 \$1;
#X obj 590 1288 == 1;
#X obj 557 1308 spigot;
#X obj 832 1238 * 20;
#X obj 832 1258 + 20;
#X obj 804 1333 pack f f s;
#X msg 804 1353 obj 20 \$2 table \$3 \$1;
#X obj 762 1260 spigot;
#X obj 832 1218 r \$0-chunks_2;
#X obj 861 1258 makefilename chunk_2_%d;
#X obj 804 1373 s pd-tables_2;
#X obj 800 1238 == 2;
#X obj 1022 1288 * 20;
#X obj 1022 1308 + 20;
#X obj 994 1363 pack f f s;
#X msg 994 1383 obj 20 \$2 table \$3 \$1;
#X obj 957 1308 spigot;
#X obj 1022 1268 r \$0-chunks_3;
#X obj 1051 1308 makefilename chunk_3_%d;
#X obj 994 1403 s pd-tables_3;
#X obj 990 1288 == 3;
#X obj 1232 1238 * 20;
#X obj 1232 1258 + 20;
#X obj 1204 1353 pack f f s;
#X msg 1204 1373 obj 20 \$2 table \$3 \$1;
#X obj 1167 1258 spigot;
#X obj 1422 1288 * 20;
#X obj 1422 1308 + 20;
#X obj 1394 1353 pack f f s;
#X msg 1394 1373 obj 20 \$2 table \$3 \$1;
#X obj 1357 1308 spigot;
#X obj 1200 1238 == 4;
#X obj 1232 1218 r \$0-chunks_4;
#X obj 1261 1258 makefilename chunk_4_%d;
#X obj 1204 1393 s pd-tables_4;
#X obj 1390 1288 == 5;
#X obj 1422 1268 r \$0-chunks_5;
#X obj 1451 1308 makefilename chunk_5_%d;
#X obj 1394 1393 s pd-tables_5;
#X obj 575 1468 symbol \$2;
#X obj 511 1701 pack f f s s;
#X obj 501 1405 unpack f f f;
#X msg 559 1439 bang;
#X obj 527 1189 spigot;
#X obj 573 1208 tgl 15 0 empty empty empty 17 7 0 10 -262144 -1 -1
1 1;
#X msg 630 1198 1;
#X obj 674 1200 loadbang;
#X obj 509 1469 +;
#X text 599 1698 end start destination source;
#X text 645 1724 source start end destination;
#X obj 596 1407 tabwrite chunk_sizes-1;
#X obj 786 1432 tabwrite chunk_sizes-2;
#X obj 978 1432 tabwrite chunk_sizes-3;
#X obj 1178 1438 tabwrite chunk_sizes-4;
#X floatatom 899 1392 5 0 0 0 - - -;
#X floatatom 759 1341 5 0 0 0 - - -;
#X obj 207 1031 r \$0-segs_type;
#X obj 128 1074 spigot;
#X obj 161 1054 == 0;
#X obj 172 1074 spigot;
#X obj 215 1074 spigot;
#X obj 205 1054 == 1;
#X obj 248 1054 == 2;
#X obj 167 1104 r \$0-bounds_1;
#X obj 140 1126 moses;
#X obj 169 1148 moses;
#X obj 196 1169 moses;
#X obj 223 1191 moses;
#X obj 196 1126 r \$0-bounds_2;
#X obj 223 1147 r \$0-bounds_3;
#X obj 250 1169 r \$0-bounds_4;
#X msg 140 1168 1;
#X msg 169 1179 2;
#X msg 196 1191 3;
#X msg 223 1214 4;
#X msg 250 1214 5;
#X obj 869 47 r \$0-save_chunks;
#X obj 868 73 savepanel;
#X obj 906 159 system;
#X msg 891 132 mkdir \$1;
#X obj 1026 422 pack s s;
#X obj 1106 215 r \$0-chunks_5;
#X obj 1023 241 spigot;
#X obj 1023 263 cup;
#X msg 1069 241 1;
#X obj 1017 212 t b b;
#X obj 922 104 s \$0-save_init;
#X obj 1019 147 cup;
#X msg 1060 97 1;
#X obj 1057 75 r \$0-save_init;
#X obj 1165 350 s \$0-save_end;
#X obj 981 371 symbol chunk_5_1;
#X obj 1013 286 t b f;
#X obj 1027 482 pack s s;
#X obj 1027 462 makesymbol %s/%s.wav;
#X obj 1059 195 r \$0-save_next;
#X obj 1017 191 sel 5;
#X obj 952 126 delay 50;
#X obj 868 102 t a b;
#X obj 1031 47 r \$0-save_nuchnk;
#X obj 1098 241 <=;
#X obj 1020 352 spigot;
#X obj 1165 310 >;
#X obj 1165 330 sel 1;
#X obj 1071 401 r \$0-save_dir;
#X obj 804 131 s \$0-save_dir;
#X obj 1045 170 s \$0-save_cat;
#X msg 1026 442 list \$2 \$1;
#X obj 1296 422 pack s s;
#X obj 1293 241 spigot;
#X obj 1293 263 cup;
#X msg 1339 241 1;
#X obj 1287 212 t b b;
#X obj 1283 286 t b f;
#X obj 1297 482 pack s s;
#X obj 1297 462 makesymbol %s/%s.wav;
#X obj 1329 195 r \$0-save_next;
#X obj 1368 241 <=;
#X obj 1290 352 spigot;
#X obj 1435 310 >;
#X obj 1435 330 sel 1;
#X obj 1341 401 r \$0-save_dir;
#X msg 1296 442 list \$2 \$1;
#X obj 1287 171 r \$0-save_cat;
#X obj 1376 215 r \$0-chunks_4;
#X obj 1361 371 makefilename chunk_4_%d;
#X obj 1251 371 symbol chunk_4_1;
#X obj 1287 191 sel 4;
#X obj 1576 422 pack s s;
#X obj 1573 241 spigot;
#X obj 1573 263 cup;
#X msg 1619 241 1;
#X obj 1567 212 t b b;
#X obj 1563 286 t b f;
#X obj 1577 482 pack s s;
#X obj 1577 462 makesymbol %s/%s.wav;
#X obj 1609 195 r \$0-save_next;
#X obj 1648 241 <=;
#X obj 1570 352 spigot;
#X obj 1715 310 >;
#X obj 1715 330 sel 1;
#X obj 1621 401 r \$0-save_dir;
#X msg 1576 442 list \$2 \$1;
#X obj 1567 171 r \$0-save_cat;
#X obj 1567 191 sel 3;
#X obj 1656 215 r \$0-chunks_3;
#X obj 1641 371 makefilename chunk_3_%d;
#X obj 1531 371 symbol chunk_3_1;
#X obj 1836 422 pack s s;
#X obj 1833 241 spigot;
#X obj 1833 263 cup;
#X msg 1879 241 1;
#X obj 1827 212 t b b;
#X obj 1823 286 t b f;
#X obj 1837 482 pack s s;
#X obj 1837 462 makesymbol %s/%s.wav;
#X obj 1869 195 r \$0-save_next;
#X obj 1908 241 <=;
#X obj 1830 352 spigot;
#X obj 1975 310 >;
#X obj 1975 330 sel 1;
#X obj 1881 401 r \$0-save_dir;
#X msg 1836 442 list \$2 \$1;
#X obj 1827 171 r \$0-save_cat;
#X obj 1827 191 sel 2;
#X obj 1916 215 r \$0-chunks_2;
#X obj 1901 371 makefilename chunk_2_%d;
#X obj 1791 371 symbol chunk_2_1;
#X obj 2106 422 pack s s;
#X obj 2103 241 spigot;
#X obj 2103 263 cup;
#X msg 2149 241 1;
#X obj 2097 212 t b b;
#X obj 2093 286 t b f;
#X obj 2107 482 pack s s;
#X obj 2107 462 makesymbol %s/%s.wav;
#X obj 2139 195 r \$0-save_next;
#X obj 2178 240 <=;
#X obj 2100 352 spigot;
#X obj 2245 310 >;
#X obj 2245 330 sel 1;
#X obj 2151 401 r \$0-save_dir;
#X msg 2106 442 list \$2 \$1;
#X obj 2097 171 r \$0-save_cat;
#X obj 2097 191 sel 1;
#X obj 2186 215 r \$0-chunks_1;
#X obj 2171 371 makefilename chunk_1_%d;
#X obj 2065 374 symbol chunk_1_1;
#X obj 2245 350 s \$0-save_nuchnk;
#X obj 1975 350 s \$0-save_nuchnk;
#X obj 1715 350 s \$0-save_nuchnk;
#X obj 1435 350 s \$0-save_nuchnk;
#X obj 1192 60 bng 15 250 50 0 empty empty empty 17 7 0 10 -262144
-1 -1;
#X floatatom 2174 283 5 0 0 0 - - -;
#X obj 2296 333 bng 15 250 50 0 empty empty empty 17 7 0 10 -262144
-1 -1;
#X floatatom 2230 258 5 0 0 0 - - -;
#X floatatom 2272 287 5 0 0 0 - - -;
#X obj 1130 113 bng 15 250 50 0 empty empty empty 17 7 0 10 -262144
-1 -1;
#X obj 1113 138 t b b;
#X obj 1674 1347 s \$0-minrec_ms-set;
#X obj 1690 1322 / 44.1;
#X obj 1723 1301 r \$0-srate_ch;
#X obj 1674 707 route min minsamp max maxsamp loop start type thresh
bias attack clearall clear1 clear2 clear3 clear4 clear5 bound1 bound2
bound3 bound4 get;
#X obj 1722 1252 / 44.1;
#X obj 1755 1231 r \$0-srate_ch;
#X obj 1706 1277 s \$0-maxrec_ms-set;
#X obj 1738 1209 s \$0-loop-set;
#X obj 1754 1188 s \$0-start-bng;
#X obj 1754 1147 route bang float;
#X obj 1800 1168 t b f;
#X obj 1770 1123 s \$0-segs_type-set;
#X obj 1787 1099 s \$0-hasc_threshold-set;
#X obj 1803 1076 s \$0-onset_bias-set;
#X obj 1819 1053 s \$0-p_attack-set;
#X obj 1835 1030 s \$0-clear_all-bng;
#X obj 1851 1010 s \$0-clear_1-bng;
#X obj 1867 990 s \$0-clear_2-bng;
#X obj 1883 970 s \$0-clear_3-bng;
#X obj 1900 950 s \$0-clear_4-bng;
#X obj 1916 930 s \$0-clear_5-bng;
#X obj 1932 910 s \$0-bounds_1-set;
#X obj 1948 890 s \$0-bounds_2-set;
#X obj 1964 870 s \$0-bounds_3-set;
#X obj 1980 850 s \$0-bounds_4-set;
#X obj 1996 830 s \$0-access_data;
#X obj 2013 810 s \$0-bonk_settings;
#X obj 2020 790 s \$0-fiddle_settings;
#X obj 2013 754 route bonk fiddle;
#X obj 2128 810 s \$0-output_pitch-set;
#X obj 2171 791 s \$0-output_hasc-set;
#X msg 1932 1289;
#X obj 1856 1246 loadbang;
#X obj 1825 1271 delay 2000;
#X msg 1884 1206 1;
#X obj 2203 773 s \$0-min_length-set;
#X msg 2188 727 100;
#X obj 2166 699 loadbang;
#X obj 2204 851 s \$0-analyse-set;
#X obj 2537 759 \$1;
#X msg 2504 759 0;
#X obj 2504 869 s \$0-minrec-set;
#X obj 2537 849 s \$0-maxrec-set;
#X obj 2537 779 - 1;
#X msg 2537 826 range 0 \$1;
#X msg 2671 770 0.7;
#X obj 2671 793 s \$0-onset_bias-set;
#X obj 2417 815 s \$0-segs_type-set;
#X obj 2639 856 r \$0-clear_all;
#X obj 2639 974 s \$0-clear_1-bng;
#X obj 2659 954 s \$0-clear_2-bng;
#X obj 2679 934 s \$0-clear_3-bng;
#X obj 2699 914 s \$0-clear_4-bng;
#X obj 2719 894 s \$0-clear_5-bng;
#X msg 2432 957 0.4;
#X obj 2432 980 s \$0-hasc_threshold-set;
#X obj 2574 733 samplerate~;
#X obj 2521 705 loadbang;
#X obj 2521 735 t b b;
#X obj 2592 762 * 0.001;
#X obj 2591 782 / 44.1;
#X msg 2764 825 range 0 \$1;
#X obj 2759 855 s \$0-minrec_ms-set;
#X obj 2881 854 s \$0-maxrec_ms-set;
#X obj 2876 827 t f f;
#X msg 2914 827 range 0 \$1;
#X obj 2977 724 r \$0-minrec_ms;
#X obj 2987 804 * 44.1;
#X obj 2975 914 s \$0-minrec-set;
#X obj 3042 806 * 44.1;
#X obj 3015 754 r \$0-maxrec_ms;
#X obj 3006 886 s \$0-maxrec-set;
#X obj 2708 696 bng 15 250 50 0 empty empty empty 17 7 0 10 -262144
-1 -1;
#X obj 2862 893 r \$0-start;
#X obj 2895 914 r \$0-loop;
#X obj 2895 935 == 0;
#X obj 2862 956 spigot;
#X obj 2835 1039 s \$0-analyse-set;
#X obj 2921 976 r \$0-maxrec_ms;
#X obj 2858 998 delay 10000;
#X msg 2858 1019 0;
#X msg 2835 946 1;
#X obj 2554 895 / 512;
#X obj 2490 955 s \$0-analysis;
#X msg 2490 931 resize \$1;
#X obj 2747 734 s \$0-srate_ch;
#X obj 2650 1042 s \$0-clear_all-bng;
#X obj 2650 1013 loadbang;
#X obj 2460 1018 r \$0-show_analysis;
#X msg 2442 1059 label hasc;
#X msg 2521 1054 label wons;
#X obj 2459 1037 sel 0 1;
#X obj 2599 1066 s \$0-show_analysis-set;
#X msg 2599 1038 0;
#X obj 2546 918 s \$0-analysis_length;
#X obj 2955 1052 s \$0-loop-set;
#X msg 2955 1031 1;
#X obj 362 575 tabwrite~ \$2;
#X msg 450 538 start \$1;
#X obj 467 468 > 0;
#X obj 440 488 spigot;
#X obj 450 517 f;
#X obj 402 471 == 0;
#X obj 589 507 r \$0-minrec_ms;
#X msg 463 610 stop;
#X obj 569 486 r \$0-maxrec_ms;
#X obj 573 575 -;
#X obj 589 550 t b f;
#X obj 443 566 delay;
#X obj 497 571 == 0;
#X obj 749 550 spigot;
#X obj 786 467 == 0;
#X obj 448 591 spigot 1;
#X obj 369 493 spigot 1;
#X obj 407 414 r \$0-analyse;
#X obj 445 685 line~;
#X obj 407 434 sel 1 0;
#X obj 446 645 pack f f f;
#X obj 416 624 f;
#X msg 445 665 \$1 \, \$2 \$3;
#X obj 541 648 s \$0-analyse-set;
#X msg 541 628 0;
#X obj 336 607 delay 100;
#X obj 336 650 s \$0-start-bng;
#X obj 592 453 r \$0-loop;
#X obj 340 539 s \$0-loop_bang;
#N canvas 3 89 450 300 hasc 0;
#X obj 78 97 inlet~;
#X obj 78 125 rfft~;
#X obj 203 114 inlet;
#X obj 203 135 switch~ 1024 2 1;
#X obj 78 190 hasc~;
#X obj 137 102 inlet;
#X obj 78 240 outlet;
#X obj 136 218 s \$0-hasc;
#X obj 246 180 bang~;
#X obj 246 202 outlet;
#X connect 0 0 1 0;
#X connect 1 0 4 0;
#X connect 1 1 4 1;
#X connect 2 0 3 0;
#X connect 4 0 6 0;
#X connect 4 0 7 0;
#X connect 5 0 4 2;
#X connect 8 0 9 0;
#X restore 47 659 pd hasc;
#X obj 66 564 r \$0-hasc_threshold;
#N canvas 459 116 524 575 onset-driven 0;
#X obj 23 36 inlet~;
#X obj 94 257 weightonset 0.33 0;
#X obj 22 57 bonk~;
#X obj 124 163 inlet;
#X obj 166 163 inlet;
#X obj 247 65 fiddle~;
#X obj 273 165 unpack;
#X obj 378 256 weightonset 0.33 2;
#X obj 354 171 inlet;
#X text 123 146 hasc;
#X obj 76 358 f;
#X obj 245 308 f;
#X obj 363 308 f;
#X obj 164 308 prepend hasc;
#X obj 272 308 prepend pitch;
#X obj 389 308 prepend amp;
#X obj 22 197 t b b b;
#X text 158 146 influence;
#X text 351 155 attack;
#X obj 39 222 inlet~;
#X obj 25 246 snapshot~;
#X obj 44 358 f;
#X obj 19 381 -;
#X obj 144 440 > 0;
#X obj 28 457 spigot;
#X obj 28 478 outlet;
#X obj 184 503 outlet;
#X obj 184 340 doubledelta;
#X obj 184 360 abs;
#X obj 184 380 < 1;
#X obj 184 400 change;
#X obj 184 461 f;
#X obj 184 420 sel 1;
#X msg 213 380 set 0;
#X obj 184 482 pack f f f f;
#X obj 184 441 t b b;
#X obj 230 462 f;
#X obj 253 462 f;
#X obj 103 339 prepend data;
#X text 266 481 (current)hasc start pitch amp;
#X obj 460 220 switch~;
#X obj 460 139 inlet;
#X text 23 541 length start hasc pitch amp;
#X obj 28 432 pack f f f f f;
#X obj 28 409 f;
#X obj 120 287 outlet;
#X obj 83 29 r \$0-bonk_settings;
#X obj 247 32 r \$0-fiddle_settings;
#X obj 87 198 s \$0-bonked;
#X obj 277 202 s \$0-pitch;
#X obj 201 203 s \$0-note;
#X obj 25 267 - 480;
#X obj 25 288 moses 0;
#X msg 17 309 0;
#X obj 363 412 / 1024;
#X msg 359 383 44100;
#X floatatom 363 439 0 0 0 0 - - -;
#X obj 260 256 weightonset 0.33 4;
#X obj 21 176 spigot 1;
#X msg 76 176 0;
#X obj 137 122 r \$0-min_length;
#X obj 20 156 bang;
#X msg 66 157 1;
#X obj 66 138 delay 100;
#X obj 432 378 outlet;
#X obj 17 330 t f b f;
#X msg 486 107;
#X obj 393 110 spigot;
#X obj 452 91 tgl 15 0 empty \$0-lastchunk empty 17 7 0 10 -262144
-1 -1 0 1;
#X obj 419 175 sel 0;
#X obj 403 132 change 1;
#X obj 273 90 r \$0-analyse-st;
#X obj 391 215 sel 0;
#X obj 460 160 t f f;
#X obj 22 114 spigot 1;
#X obj 69 52 r \$0-bonkOrFiddle;
#X obj 67 92 == 0;
#X obj 141 92 spigot;
#X obj 245 120 s \$0-noteAttack;
#X connect 0 0 2 0;
#X connect 0 0 5 0;
#X connect 1 0 10 1;
#X connect 1 0 27 0;
#X connect 1 0 31 1;
#X connect 1 0 45 0;
#X connect 1 1 13 0;
#X connect 2 0 74 0;
#X connect 3 0 1 0;
#X connect 4 0 1 1;
#X connect 4 0 7 1;
#X connect 4 0 57 1;
#X connect 5 0 50 0;
#X connect 5 1 77 0;
#X connect 5 1 78 0;
#X connect 5 2 6 0;
#X connect 6 0 49 0;
#X connect 6 0 57 0;
#X connect 6 1 7 0;
#X connect 7 0 12 1;
#X connect 7 0 37 1;
#X connect 7 1 15 0;
#X connect 8 0 7 2;
#X connect 8 0 57 2;
#X connect 10 0 43 2;
#X connect 11 0 43 3;
#X connect 12 0 43 4;
#X connect 13 0 38 0;
#X connect 14 0 38 0;
#X connect 15 0 38 0;
#X connect 16 0 1 0;
#X connect 16 0 7 0;
#X connect 16 0 33 0;
#X connect 16 0 57 0;
#X connect 16 1 44 0;
#X connect 16 2 12 0;
#X connect 16 2 11 0;
#X connect 16 2 10 0;
#X connect 16 2 20 0;
#X connect 16 2 48 0;
#X connect 19 0 20 0;
#X connect 20 0 51 0;
#X connect 21 0 22 1;
#X connect 21 0 43 1;
#X connect 22 0 23 0;
#X connect 22 0 44 1;
#X connect 23 0 24 1;
#X connect 24 0 25 0;
#X connect 27 0 28 0;
#X connect 28 0 29 0;
#X connect 29 0 30 0;
#X connect 30 0 32 0;
#X connect 31 0 34 0;
#X connect 32 0 35 0;
#X connect 33 0 30 0;
#X connect 34 0 26 0;
#X connect 35 0 31 0;
#X connect 35 1 36 0;
#X connect 35 1 37 0;
#X connect 36 0 34 2;
#X connect 37 0 34 3;
#X connect 38 0 24 0;
#X connect 41 0 73 0;
#X connect 43 0 24 0;
#X connect 44 0 43 0;
#X connect 46 0 2 0;
#X connect 47 0 5 0;
#X connect 51 0 52 0;
#X connect 52 0 53 0;
#X connect 52 1 65 0;
#X connect 53 0 65 0;
#X connect 54 0 56 0;
#X connect 55 0 54 0;
#X connect 57 0 11 1;
#X connect 57 0 36 1;
#X connect 57 1 14 0;
#X connect 58 0 16 0;
#X connect 58 0 59 0;
#X connect 59 0 58 1;
#X connect 60 0 63 1;
#X connect 61 0 58 0;
#X connect 61 0 63 0;
#X connect 62 0 58 1;
#X connect 63 0 62 0;
#X connect 65 0 21 1;
#X connect 65 0 22 0;
#X connect 65 0 34 1;
#X connect 65 1 21 0;
#X connect 65 2 64 0;
#X connect 67 0 70 0;
#X connect 68 0 67 1;
#X connect 69 0 61 0;
#X connect 69 0 63 0;
#X connect 70 0 69 0;
#X connect 71 0 67 0;
#X connect 72 0 20 0;
#X connect 73 0 40 0;
#X connect 73 1 72 0;
#X connect 74 0 61 0;
#X connect 75 0 76 0;
#X connect 75 0 77 1;
#X connect 76 0 74 1;
#X connect 77 0 61 0;
#X restore 48 719 pd onset-driven;
#X obj 117 688 r \$0-p_attack;
#X obj 86 584 r \$0-analyse;
#X obj 102 604 r \$0-onset_bias;
#X obj 102 624 t b f;
#X msg 102 644 1;
#X obj 114 664 -;
#X obj 166 720 cup;
#X msg 212 683 0;
#X obj 215 655 r \$0-loop_bang;
#X obj 211 601 sel 1;
#X obj 58 781 tabwrite \$0-analysis;
#X obj 126 742 r \$0-show_analysis;
#X obj 48 741 == 0;
#X obj 31 761 spigot;
#X obj 82 761 spigot;
#X obj 1337 679 sel 0 1 2;
#X obj 1365 820 s \$0-segs_type-lbl;
#X obj 1437 1128 s \$0-bounds_1-set;
#X obj 1457 1105 s \$0-bounds_2-set;
#X obj 1476 1083 s \$0-bounds_3-set;
#X obj 1496 1059 s \$0-bounds_4-set;
#X msg 1197 776 range 0 511;
#X msg 1222 757 range 36 120;
#X msg 1246 736 range 40 100;
#X obj 1175 752 t b b;
#X obj 1195 732 t b b;
#X obj 1219 712 t b b;
#X obj 1159 1107 30;
#X obj 1175 1081 100;
#X obj 1188 1057 200;
#X obj 1201 1036 320;
#X obj 1100 1085 spigot;
#X obj 1105 855 r \$0-bounds_1;
#X obj 1115 835 r \$0-bounds_2;
#X obj 1135 815 r \$0-bounds_3;
#X obj 1145 795 r \$0-bounds_4;
#X obj 1114 1040 spigot;
#X obj 1132 997 spigot;
#X obj 1146 954 spigot;
#X obj 1179 933 == 0;
#X obj 1230 1085 spigot;
#X obj 1244 1040 spigot;
#X obj 1262 997 spigot;
#X obj 1276 954 spigot;
#X obj 1289 1107 48;
#X obj 1305 1081 60;
#X obj 1318 1057 72;
#X obj 1331 1036 84;
#X obj 1309 933 == 1;
#X obj 1350 1085 spigot;
#X obj 1364 1040 spigot;
#X obj 1382 997 spigot;
#X obj 1396 954 spigot;
#X obj 1451 1036 94;
#X obj 1438 1057 86;
#X obj 1425 1081 76;
#X obj 1409 1107 64;
#X obj 1429 933 == 2;
#X msg 1343 784 label type:hasc;
#X msg 1382 760 label type:pitch;
#X msg 1427 733 label type:amp;
#X msg 1422 674 0;
#X obj 1455 671 loadbang;
#X obj 1272 680 t f f;
#X obj 1273 660 r \$0-segs_type;
#X msg 517 526 stop;
#N canvas 3 89 450 300 rDelay 0;
#X obj 34 38 inlet~;
#X obj 107 45 r \$0-rDelay_on;
#X obj 34 110 *~ 1;
#X obj 86 106 *~ 0;
#X obj 55 87 == 0;
#X obj 111 176 delread~ \$0-rDelay_buf 2;
#X obj 285 151 r \$0-rDelay_time;
#X obj 35 223 outlet~;
#X obj 115 134 delwrite~ \$0-rDelay_buf 100;
#X connect 0 0 2 0;
#X connect 0 0 3 0;
#X connect 1 0 4 0;
#X connect 1 0 3 1;
#X connect 2 0 7 0;
#X connect 3 0 8 0;
#X connect 4 0 2 1;
#X connect 5 0 7 0;
#X connect 6 0 5 0;
#X restore 147 493 pd rDelay;
#X obj 2198 893 moses 1e-07;
#X msg 2275 920 1;
#X msg 2200 920 0;
#X obj 2228 1061 s \$0-rDelay_time;
#X obj 2228 986 moses 10;
#X msg 2270 1019 10;
#X obj 2218 1178 s \$0-min_length-set;
#N canvas 3 89 450 300 format_numbers 0;
#X obj 87 86 moses 10;
#X obj 132 106 moses 100;
#X obj 211 125 moses 1000;
#X obj 169 244 outlet;
#X obj 87 37 inlet;
#X obj 27 132 makesymbol chunk_5_000%s;
#X obj 96 152 makesymbol chunk_5_00%s;
#X obj 159 172 makesymbol chunk_5_0%s;
#X obj 212 192 makesymbol chunk_5_%s;
#X connect 0 0 5 0;
#X connect 0 1 1 0;
#X connect 1 0 6 0;
#X connect 1 1 2 0;
#X connect 2 0 7 0;
#X connect 2 1 8 0;
#X connect 4 0 0 0;
#X connect 5 0 3 0;
#X connect 6 0 3 0;
#X connect 7 0 3 0;
#X connect 8 0 3 0;
#X restore 1161 401 pd format_numbers;
#N canvas 3 89 450 300 format_numbers 0;
#X obj 87 86 moses 10;
#X obj 132 106 moses 100;
#X obj 211 125 moses 1000;
#X obj 169 244 outlet;
#X obj 87 37 inlet;
#X obj 27 132 makesymbol chunk_4_000%s;
#X obj 96 152 makesymbol chunk_4_00%s;
#X obj 159 172 makesymbol chunk_4_0%s;
#X obj 212 192 makesymbol chunk_4_%s;
#X connect 0 0 5 0;
#X connect 0 1 1 0;
#X connect 1 0 6 0;
#X connect 1 1 2 0;
#X connect 2 0 7 0;
#X connect 2 1 8 0;
#X connect 4 0 0 0;
#X connect 5 0 3 0;
#X connect 6 0 3 0;
#X connect 7 0 3 0;
#X connect 8 0 3 0;
#X restore 1431 401 pd format_numbers;
#N canvas 3 89 450 300 format_numbers 0;
#X obj 87 86 moses 10;
#X obj 132 106 moses 100;
#X obj 211 125 moses 1000;
#X obj 169 244 outlet;
#X obj 87 37 inlet;
#X obj 27 132 makesymbol chunk_3_000%s;
#X obj 96 152 makesymbol chunk_3_00%s;
#X obj 159 172 makesymbol chunk_3_0%s;
#X obj 212 192 makesymbol chunk_3_%s;
#X connect 0 0 5 0;
#X connect 0 1 1 0;
#X connect 1 0 6 0;
#X connect 1 1 2 0;
#X connect 2 0 7 0;
#X connect 2 1 8 0;
#X connect 4 0 0 0;
#X connect 5 0 3 0;
#X connect 6 0 3 0;
#X connect 7 0 3 0;
#X connect 8 0 3 0;
#X restore 1711 401 pd format_numbers;
#N canvas 3 89 450 300 format_numbers 0;
#X obj 87 86 moses 10;
#X obj 132 106 moses 100;
#X obj 211 125 moses 1000;
#X obj 169 244 outlet;
#X obj 87 37 inlet;
#X obj 27 132 makesymbol chunk_2_000%s;
#X obj 96 152 makesymbol chunk_2_00%s;
#X obj 159 172 makesymbol chunk_2_0%s;
#X obj 212 192 makesymbol chunk_2_%s;
#X connect 0 0 5 0;
#X connect 0 1 1 0;
#X connect 1 0 6 0;
#X connect 1 1 2 0;
#X connect 2 0 7 0;
#X connect 2 1 8 0;
#X connect 4 0 0 0;
#X connect 5 0 3 0;
#X connect 6 0 3 0;
#X connect 7 0 3 0;
#X connect 8 0 3 0;
#X restore 1971 401 pd format_numbers;
#N canvas 3 89 450 300 format_numbers 0;
#X obj 87 86 moses 10;
#X obj 132 106 moses 100;
#X obj 211 125 moses 1000;
#X obj 169 244 outlet;
#X obj 87 37 inlet;
#X obj 27 132 makesymbol chunk_1_000%s;
#X obj 96 152 makesymbol chunk_1_00%s;
#X obj 159 172 makesymbol chunk_1_0%s;
#X obj 212 192 makesymbol chunk_1_%s;
#X connect 0 0 5 0;
#X connect 0 1 1 0;
#X connect 1 0 6 0;
#X connect 1 1 2 0;
#X connect 2 0 7 0;
#X connect 2 1 8 0;
#X connect 4 0 0 0;
#X connect 5 0 3 0;
#X connect 6 0 3 0;
#X connect 7 0 3 0;
#X connect 8 0 3 0;
#X restore 2241 401 pd format_numbers;
#N canvas 206 89 1129 676 overlap_analysis 0;
#X obj 961 96 bng 15 250 50 0 empty empty test 17 7 0 10 -262144 -1
-1;
#X msg 960 160 5;
#X obj 956 189 until;
#X obj 959 121 t b b;
#X obj 998 255 cup;
#X obj 976 281 mavg;
#X obj 955 218 t b b;
#X obj 863 244 random 1000;
#X floatatom 867 268 5 0 0 0 - - -;
#X obj 846 304 pack;
#X msg 845 329 \$2 \$1;
#X floatatom 788 386 5 0 0 0 - - -;
#X obj 788 411 +;
#X floatatom 828 386 5 0 0 0 - - -;
#X obj 828 411 +;
#X floatatom 868 386 5 0 0 0 - - -;
#X obj 868 411 +;
#X floatatom 908 386 5 0 0 0 - - -;
#X obj 908 411 +;
#X floatatom 948 386 5 0 0 0 - - -;
#X floatatom 974 306 0 0 0 0 - - -;
#X floatatom 913 468 0 0 0 0 - - -;
#X obj 908 431 / 5;
#X msg 1016 177 1;
#X obj 827 356 route 1 2 3 4 5;
#X obj 206 333 cup;
#X obj 184 359 mavg;
#X floatatom 184 382 0 0 0 3 average_duration - -;
#X msg 283 120 1;
#X obj 288 86 r \$0-start;
#X obj 141 222 timer;
#X obj 134 163 spigot 1;
#X obj 196 164 spigot;
#X msg 178 136 0;
#X msg 230 135 1;
#X msg 246 110 0;
#X obj 151 187 del 0;
#X obj 144 247 t f b;
#X obj 96 38 inlet;
#X text 98 18 snapshot~ of line~;
#X obj 102 101 t f b;
#X obj 48 160 / 44.1;
#X obj 47 195 t b f;
#X obj 68 282 r \$0-maxrec_ms;
#X obj 55 313 90000;
#X obj 57 340 -;
#X obj 70 428 <;
#X obj 125 463 -;
#X obj 125 432 f;
#X obj 105 403 del 0;
#X floatatom 125 486 0 0 0 3 diff - -;
#X obj 72 459 sel 1;
#X obj 77 516 spigot;
#X obj 285 490 r \$0-overlap_analyse;
#X obj 519 448 r \$0-analyse;
#X obj 99 353 t b f f;
#X obj 102 80 spigot 1;
#X obj 259 31 r \$0-overlap_analyse;
#X obj 100 59 spigot;
#X msg 163 71 0;
#X msg 164 95 1;
#X obj 183 451 +;
#X obj 305 308 r \$0-overlap_padding;
#X obj 298 339 * 44.1;
#X obj 357 185 samplerate~;
#X obj 357 212 * 0.001;
#X obj 332 147 loadbang;
#X obj 385 100 r \$0-analyse;
#X obj 400 130 sel 1;
#X obj 181 489 * 2;
#X obj 184 423 * 44.1;
#X obj 127 642 cup;
#X obj 279 419 s \$0-average_duration;
#X obj 328 581 msgfile;
#X obj 79 563 f;
#X obj 78 592 t f b;
#X obj 409 630 inlet~;
#X obj 260 523 switch~;
#X obj 74 540 t b b;
#X msg 219 522 1;
#X obj 126 664 makefilename overlap-%d;
#X obj 298 365 t b f;
#X obj 66 693 pack f s;
#X msg 65 716 \$2 \$1;
#X obj 141 709 f;
#X obj 185 708 % 10;
#X obj 185 729 * 20;
#X obj 184 752 + 10;
#X obj 233 709 * 200;
#X obj 233 734 + 10;
#X obj 50 742 unpack s f;
#X obj 189 557 * 44.1;
#X msg 190 581 add \$1;
#X msg 412 550 clear;
#X obj 336 523 r \$0-clear_all;
#X msg 143 619 1;
#X obj 46 780 pack s f f f;
#X msg 44 807 obj \$3 \$4 table \$1 \$2;
#X obj 45 835 s pd-overlaps;
#X obj 299 839 tabwrite~;
#X msg 277 808 set \$1;
#X obj 317 684 f;
#X obj 315 656 del 0;
#X obj 318 713 makefilename overlap-%d;
#X obj 300 746 t b a b;
#X obj 375 742 f;
#X obj 263 611 / 44.1;
#X obj 339 783 delay;
#X obj 492 710 pack f f f;
#X msg 491 689 0;
#X msg 491 733 \$1 \, \$2 \$3;
#X obj 491 755 line~;
#X obj 492 778 outlet~;
#X text 459 394 another line~ is needed for position;
#X text 458 282 we have two tables of the same length;
#X text 458 304 and the second starts recording halfway throught the
first;
#X text 458 326 then when an event is received and segmented in the
first;
#X text 458 348 the focus switches to the second \, and vice versa
;
#X text 458 370 when the first starts recording again;
#X text 458 261 clearly to get overlap events;
#X connect 0 0 3 0;
#X connect 1 0 2 0;
#X connect 2 0 6 0;
#X connect 3 0 1 0;
#X connect 3 1 23 0;
#X connect 4 0 5 1;
#X connect 4 0 9 1;
#X connect 5 0 20 0;
#X connect 6 0 7 0;
#X connect 6 1 4 0;
#X connect 7 0 8 0;
#X connect 8 0 5 0;
#X connect 8 0 9 0;
#X connect 9 0 10 0;
#X connect 10 0 24 0;
#X connect 11 0 12 1;
#X connect 12 0 14 0;
#X connect 13 0 14 1;
#X connect 14 0 16 0;
#X connect 15 0 16 1;
#X connect 16 0 18 0;
#X connect 17 0 18 1;
#X connect 18 0 22 0;
#X connect 19 0 12 0;
#X connect 22 0 21 0;
#X connect 23 0 4 0;
#X connect 24 0 11 0;
#X connect 24 1 13 0;
#X connect 24 2 15 0;
#X connect 24 3 17 0;
#X connect 24 4 19 0;
#X connect 25 0 26 1;
#X connect 26 0 27 0;
#X connect 27 0 46 1;
#X connect 27 0 48 1;
#X connect 27 0 70 0;
#X connect 28 0 25 0;
#X connect 28 0 31 1;
#X connect 29 0 28 0;
#X connect 29 0 35 0;
#X connect 30 0 37 0;
#X connect 31 0 30 0;
#X connect 31 0 33 0;
#X connect 31 0 36 0;
#X connect 32 0 30 1;
#X connect 33 0 31 1;
#X connect 34 0 32 1;
#X connect 35 0 32 1;
#X connect 36 0 34 0;
#X connect 37 0 26 0;
#X connect 37 1 25 0;
#X connect 38 0 58 0;
#X connect 40 0 41 0;
#X connect 40 1 32 0;
#X connect 40 1 31 0;
#X connect 41 0 42 0;
#X connect 42 0 44 0;
#X connect 42 1 45 1;
#X connect 43 0 44 1;
#X connect 44 0 45 0;
#X connect 45 0 55 0;
#X connect 46 0 51 0;
#X connect 47 0 50 0;
#X connect 48 0 47 0;
#X connect 49 0 48 0;
#X connect 50 0 91 0;
#X connect 51 0 59 0;
#X connect 51 0 52 0;
#X connect 52 0 78 0;
#X connect 53 0 52 1;
#X connect 55 0 49 0;
#X connect 55 1 46 0;
#X connect 55 2 47 1;
#X connect 56 0 40 0;
#X connect 57 0 58 1;
#X connect 58 0 56 0;
#X connect 59 0 56 1;
#X connect 60 0 56 1;
#X connect 61 0 69 0;
#X connect 62 0 63 0;
#X connect 63 0 81 0;
#X connect 64 0 65 0;
#X connect 65 0 63 1;
#X connect 65 0 41 1;
#X connect 65 0 70 1;
#X connect 66 0 64 0;
#X connect 67 0 68 0;
#X connect 68 0 64 0;
#X connect 69 0 74 1;
#X connect 69 0 106 0;
#X connect 69 0 108 1;
#X connect 70 0 61 0;
#X connect 71 0 80 0;
#X connect 71 0 84 0;
#X connect 71 0 101 1;
#X connect 74 0 75 0;
#X connect 75 0 82 0;
#X connect 75 1 71 0;
#X connect 75 1 102 0;
#X connect 76 0 99 0;
#X connect 78 0 74 0;
#X connect 78 1 79 0;
#X connect 79 0 77 0;
#X connect 80 0 82 1;
#X connect 81 0 70 0;
#X connect 81 1 61 1;
#X connect 82 0 83 0;
#X connect 83 0 90 0;
#X connect 84 0 85 0;
#X connect 85 0 86 0;
#X connect 85 0 88 0;
#X connect 86 0 87 0;
#X connect 87 0 96 3;
#X connect 88 0 89 0;
#X connect 89 0 96 2;
#X connect 90 0 96 0;
#X connect 90 1 96 1;
#X connect 91 0 92 0;
#X connect 92 0 73 0;
#X connect 93 0 73 0;
#X connect 94 0 93 0;
#X connect 94 0 95 0;
#X connect 95 0 71 0;
#X connect 96 0 97 0;
#X connect 97 0 98 0;
#X connect 100 0 99 0;
#X connect 101 0 103 0;
#X connect 102 0 101 0;
#X connect 103 0 104 0;
#X connect 104 0 99 0;
#X connect 104 0 107 0;
#X connect 104 1 100 0;
#X connect 104 2 105 0;
#X connect 105 0 107 1;
#X connect 105 0 108 2;
#X connect 106 0 105 1;
#X connect 107 0 60 0;
#X connect 107 0 109 0;
#X connect 108 0 110 0;
#X connect 109 0 108 0;
#X connect 110 0 111 0;
#X connect 111 0 112 0;
#X restore 274 771 pd overlap_analysis;
#X obj 760 265 nbx 6 12 0 30000 0 0 \$0-OL_padding_ms \$0-OL_padding_ms-set
overlap_padding 0 -5 0 10 -203648 -45076 -45076 0 256;
#N canvas 0 50 450 300 overlaps 0;
#X restore 470 153 pd overlaps;
#X msg 653 904 clear;
#X obj 653 884 r \$0-clear_overlaps;
#X obj 653 924 s pd-overlaps;
#X msg 940 1062 0;
#X obj 877 1133 s \$0-chunks-OL;
#X obj 2020 1035 s \$0-save_chunks-bng;
#X obj 1027 570 soundfiler;
#X obj 1027 634 s \$0-save_next;
#X obj 1297 573 soundfiler;
#X obj 1297 634 s \$0-save_next;
#X obj 1577 573 soundfiler;
#X obj 1577 634 s \$0-save_next;
#X obj 1837 573 soundfiler;
#X obj 1837 634 s \$0-save_next;
#X obj 2107 573 soundfiler;
#X obj 2107 634 s \$0-save_next;
#X msg 1027 542 write \$1 \$2;
#X msg 2107 548 write \$1 \$2;
#X msg 1837 546 write \$1 \$2;
#X msg 1577 546 write \$1 \$2;
#X msg 1297 546 write \$1 \$2;
#X obj 1027 593 t b;
#X obj 1297 593 t b;
#X obj 1577 593 t b;
#X obj 1837 593 t b;
#X obj 2107 593 t b;
#X obj 1027 614 delay 25;
#X obj 1297 614 delay 25;
#X obj 1577 614 delay 25;
#X obj 1837 614 delay 25;
#X obj 2107 614 delay 25;
#X obj 991 512 spigot 1;
#X obj 1106 512 spigot;
#X obj 1097 487 r \$0-32b;
#X obj 1053 511 == 0;
#X obj 1297 512 spigot 1;
#X obj 1412 512 spigot;
#X obj 1403 487 r \$0-32b;
#X obj 1359 511 == 0;
#X obj 1577 512 spigot 1;
#X obj 1692 512 spigot;
#X obj 1683 487 r \$0-32b;
#X obj 1639 511 == 0;
#X obj 1837 512 spigot 1;
#X obj 1952 512 spigot;
#X obj 1943 487 r \$0-32b;
#X obj 1899 511 == 0;
#X obj 2107 512 spigot 1;
#X obj 2222 512 spigot;
#X obj 2213 487 r \$0-32b;
#X obj 2169 511 == 0;
#X obj 340 202 tgl 12 0 \$0-32b \$0-32b-set 32B 15 6 1 10 -262144 -1
-1 1 1;
#X msg 1413 542 write -wave -bytes 4 \$1 \$2;
#X msg 1107 542 write -wave -bytes 4 \$1 \$2;
#X msg 1693 542 write -wave -bytes 4 \$1 \$2;
#X msg 1953 542 write -wave -bytes 4 \$1 \$2;
#X msg 2223 542 write -wave -bytes 4 \$1 \$2;
#X obj 915 319 s \$0-c5_save;
#X obj 1238 316 s \$0-c4_save;
#X obj 1515 319 s \$0-c3_save;
#X obj 1804 313 s \$0-c2_save;
#X obj 2074 313 s \$0-c1_save;
#X obj 716 313 r \$0-analyse-box;
#X obj 715 335 t f f;
#X obj 744 360 s \$0-analyse-st;
#X obj 716 386 s \$0-analyse;
#X obj 859 427 loadbang;
#X msg 860 453 1;
#X obj 864 487 s \$0-32b-set;
#X obj 508 1492 -;
#X obj 536 1492 -;
#X obj 617 1514 / 44.1;
#X obj 896 863 samplerate~;
#X obj 897 837 loadbang;
#X obj 897 891 / 1000;
#X obj 462 1518 moses 0;
#X msg 461 1539 0;
#X obj 527 1521 moses 0;
#X msg 526 1542 0;
#X obj 2128 754 route pout hout minlen on rdelay minlen yaled;
#X obj 468 1440 pipe 0;
#X obj 616 1536 + 1.45;
#X msg 831 520 0;
#X obj 832 546 s \$0-yaled;
#X obj 674 1513 r \$0-sr_ms;
#X obj 894 919 s \$0-sr_ms;
#X obj 617 1491 r \$0-yaled;
#X obj 2340 788 s \$0-yaled;
#X obj 2200 1091 s \$0-rDelay_on;
#X obj 466 1562 moses \$1;
#X obj 505 1585 \$1;
#X obj 546 1562 moses \$1;
#X obj 593 1585 \$1;
#X obj 509 1610 - 1;
#X obj 592 1611 - 1;
#X obj 624 1559 > 0;
#X obj 470 1638 spigot;
#X obj 520 1641 spigot;
#X obj 456 1672 spigot 1;
#X obj 544 1672 spigot 1;
#X obj 632 1598 == 0;
#X obj 423 1638 +;
#X obj 659 1459 unpack f f s;
#X floatatom 917 1557 5 0 0 0 - - -;
#X obj 1090 372 makefilename chunk_5_%d;
#X obj 557 1329 i;
#X obj 771 1284 i;
#X obj 957 1330 i;
#X obj 1167 1280 i;
#X obj 1357 1330 i;
#X msg 511 1723 copy \$4 \$2 \$1 \$3;
#X msg 886 519 1;
#X text 807 678 we have two tables of the same length;
#X text 807 700 and the second starts recording halfway throught the
first;
#X text 807 722 then when an event is received and segmented in the
first;
#X text 807 744 the focus switches to the second \, and vice versa
;
#X text 807 766 when the first starts recording again;
#X text 807 657 clearly to get overlap events;
#X obj 115 334 bng 12 100 50 0 empty \$0-noteAttack note 15 6 1 10
-224832 -94721 -13381;
#X obj 122 246 nbx 5 14 0 1e+37 0 0 empty \$0-chunks_5 empty 0 -8 1
10 -253675 -83269 -83269 0 256;
#X obj 122 263 nbx 5 14 0 1e+37 0 0 empty \$0-chunks_4 empty 0 -8 1
10 -261494 -86277 -86277 0 256;
#X obj 122 280 nbx 5 14 0 1e+37 0 0 empty \$0-chunks_3 empty 0 -8 1
10 -233024 -16662 -16662 0 256;
#X obj 122 297 nbx 5 14 0 1e+37 0 0 empty \$0-chunks_2 empty 0 -8 1
10 -220797 -13381 -13381 0 256;
#X obj 122 314 nbx 5 14 0 1e+37 0 0 empty \$0-chunks_1 empty 0 -8 1
10 -233072 -13381 -13381 0 256;
#X obj 51 332 cnv 15 62 15 empty empty empty 20 12 1 14 -261504 -66577
0;
#X obj 54 334 tgl 12 0 \$0-bonkOrFiddle \$0-bonkOrFiddle-set b_or_f
17 7 1 10 -262144 -1 -1 0 1;
#N canvas 3 89 450 300 (subpatch) 0;
#X obj 37 37 inlet~;
#X obj 37 59 envrms~;
#X floatatom 37 81 0 0 0 0 - - -;
#X obj 261 37 r \$0-pos_thru;
#X obj 261 59 switch~;
#X obj 37 125 outlet;
#X msg 367 66 1;
#X msg 37 103 recPos \$1;
#X connect 0 0 1 0;
#X connect 1 0 2 0;
#X connect 2 0 7 0;
#X connect 3 0 4 0;
#X connect 6 0 4 0;
#X connect 7 0 5 0;
#X restore 445 707 pd;
#X obj 205 202 tgl 12 0 \$0-pos_thru \$0-pos_thru-set posOut 14 6 1
10 -203648 -45076 -45076 0 1;
#X obj 2057 979 route saveall posout;
#X obj 2090 1060 s \$0-pos_thru-set;
#X obj 1363 1433 tabwrite chunk_sizes-5;
#X obj 96 149 declare -lib zexy -lib iemlib -lib ext13 -path maxlib
-path ekext;
#X obj 511 1745 copyarray;
#X connect 0 0 510 0;
#X connect 0 0 512 0;
#X connect 0 0 579 0;
#X connect 40 0 387 0;
#X connect 49 0 44 0;
#X connect 50 0 44 0;
#X connect 74 0 75 0;
#X connect 75 0 76 0;
#X connect 76 0 78 0;
#X connect 77 0 79 0;
#X connect 78 0 77 0;
#X connect 78 1 79 1;
#X connect 79 0 80 0;
#X connect 80 0 82 0;
#X connect 81 0 80 1;
#X connect 82 0 83 0;
#X connect 82 1 83 1;
#X connect 83 0 85 0;
#X connect 85 0 84 0;
#X connect 87 0 483 0;
#X connect 87 0 486 0;
#X connect 87 0 485 1;
#X connect 87 0 502 1;
#X connect 88 0 501 1;
#X connect 89 0 141 0;
#X connect 89 1 91 0;
#X connect 91 0 129 0;
#X connect 91 1 129 1;
#X connect 91 2 129 3;
#X connect 91 2 242 0;
#X connect 91 3 129 4;
#X connect 91 3 244 0;
#X connect 91 4 129 5;
#X connect 91 4 245 0;
#X connect 92 0 109 0;
#X connect 92 1 112 0;
#X connect 92 2 115 0;
#X connect 92 3 118 0;
#X connect 92 4 121 0;
#X connect 93 0 94 0;
#X connect 93 0 108 0;
#X connect 93 0 110 0;
#X connect 94 0 95 0;
#X connect 94 0 142 0;
#X connect 96 0 98 0;
#X connect 96 0 143 0;
#X connect 97 0 96 0;
#X connect 97 0 111 0;
#X connect 97 0 113 0;
#X connect 99 0 102 0;
#X connect 99 0 144 0;
#X connect 100 0 104 0;
#X connect 100 0 145 0;
#X connect 101 0 99 0;
#X connect 101 0 114 0;
#X connect 101 0 116 0;
#X connect 103 0 100 0;
#X connect 103 0 117 0;
#X connect 103 0 119 0;
#X connect 105 0 107 0;
#X connect 105 0 146 0;
#X connect 106 0 105 0;
#X connect 106 0 120 0;
#X connect 106 0 122 0;
#X connect 108 0 109 0;
#X connect 109 0 123 0;
#X connect 110 0 123 0;
#X connect 111 0 112 0;
#X connect 112 0 124 0;
#X connect 113 0 124 0;
#X connect 114 0 115 0;
#X connect 115 0 125 0;
#X connect 116 0 125 0;
#X connect 117 0 118 0;
#X connect 118 0 126 0;
#X connect 119 0 126 0;
#X connect 120 0 121 0;
#X connect 121 0 127 0;
#X connect 122 0 127 0;
#X connect 129 0 141 0;
#X connect 129 0 228 0;
#X connect 131 0 133 1;
#X connect 132 0 134 1;
#X connect 133 0 142 0;
#X connect 134 0 143 0;
#X connect 135 0 144 0;
#X connect 136 0 145 0;
#X connect 137 0 135 1;
#X connect 138 0 136 1;
#X connect 139 0 140 1;
#X connect 140 0 146 0;
#X connect 141 0 133 0;
#X connect 141 0 134 0;
#X connect 141 0 135 0;
#X connect 141 0 136 0;
#X connect 141 0 140 0;
#X connect 142 0 153 0;
#X connect 143 0 154 0;
#X connect 144 0 155 0;
#X connect 145 0 156 0;
#X connect 146 0 157 0;
#X connect 147 0 148 0;
#X connect 148 0 149 0;
#X connect 148 1 158 0;
#X connect 148 2 162 0;
#X connect 148 3 166 0;
#X connect 148 4 170 0;
#X connect 149 0 150 0;
#X connect 150 0 152 0;
#X connect 150 1 151 0;
#X connect 151 0 142 0;
#X connect 152 0 142 0;
#X connect 153 0 175 0;
#X connect 154 0 175 0;
#X connect 155 0 175 0;
#X connect 156 0 175 0;
#X connect 157 0 175 0;
#X connect 158 0 159 0;
#X connect 159 0 161 0;
#X connect 159 1 160 0;
#X connect 160 0 143 0;
#X connect 161 0 143 0;
#X connect 162 0 163 0;
#X connect 163 0 165 0;
#X connect 163 1 164 0;
#X connect 164 0 144 0;
#X connect 165 0 144 0;
#X connect 166 0 167 0;
#X connect 167 0 169 0;
#X connect 167 1 168 0;
#X connect 168 0 145 0;
#X connect 169 0 145 0;
#X connect 170 0 171 0;
#X connect 171 0 173 0;
#X connect 171 1 172 0;
#X connect 172 0 146 0;
#X connect 173 0 146 0;
#X connect 174 0 131 0;
#X connect 174 0 132 0;
#X connect 174 0 137 0;
#X connect 174 0 138 0;
#X connect 174 0 139 0;
#X connect 175 0 130 0;
#X connect 175 0 44 0;
#X connect 176 0 226 0;
#X connect 176 1 184 0;
#X connect 177 0 178 0;
#X connect 177 0 180 0;
#X connect 177 0 235 1;
#X connect 178 0 179 0;
#X connect 179 0 181 1;
#X connect 180 0 181 2;
#X connect 181 0 185 0;
#X connect 181 0 697 0;
#X connect 184 0 187 0;
#X connect 184 0 201 0;
#X connect 184 0 192 0;
#X connect 184 0 215 0;
#X connect 184 0 210 0;
#X connect 184 2 186 0;
#X connect 184 2 196 0;
#X connect 184 2 205 0;
#X connect 184 2 216 0;
#X connect 184 2 220 0;
#X connect 185 0 183 0;
#X connect 186 0 187 1;
#X connect 187 0 700 0;
#X connect 188 0 189 0;
#X connect 189 0 190 1;
#X connect 190 0 191 0;
#X connect 190 0 697 0;
#X connect 191 0 195 0;
#X connect 192 0 240 0;
#X connect 192 0 701 0;
#X connect 193 0 188 0;
#X connect 193 0 194 0;
#X connect 193 0 236 1;
#X connect 193 0 239 0;
#X connect 194 0 190 2;
#X connect 196 0 192 1;
#X connect 197 0 198 0;
#X connect 198 0 199 1;
#X connect 199 0 200 0;
#X connect 199 0 697 0;
#X connect 200 0 204 0;
#X connect 201 0 702 0;
#X connect 202 0 197 0;
#X connect 202 0 203 0;
#X connect 202 0 237 1;
#X connect 203 0 199 2;
#X connect 205 0 201 1;
#X connect 206 0 207 0;
#X connect 207 0 208 1;
#X connect 208 0 209 0;
#X connect 208 0 697 0;
#X connect 209 0 219 0;
#X connect 210 0 703 0;
#X connect 211 0 212 0;
#X connect 212 0 213 1;
#X connect 213 0 214 0;
#X connect 213 0 697 0;
#X connect 214 0 223 0;
#X connect 215 0 704 0;
#X connect 216 0 210 1;
#X connect 217 0 206 0;
#X connect 217 0 218 0;
#X connect 217 0 238 1;
#X connect 218 0 208 2;
#X connect 220 0 215 1;
#X connect 221 0 211 0;
#X connect 221 0 222 0;
#X connect 221 0 725 1;
#X connect 222 0 213 2;
#X connect 224 0 225 3;
#X connect 225 0 705 0;
#X connect 226 0 675 0;
#X connect 226 0 696 0;
#X connect 226 1 232 1;
#X connect 226 1 665 0;
#X connect 226 1 696 1;
#X connect 226 1 694 0;
#X connect 226 2 227 0;
#X connect 227 0 224 0;
#X connect 228 0 176 0;
#X connect 229 0 228 1;
#X connect 230 0 229 0;
#X connect 231 0 230 0;
#X connect 232 0 664 0;
#X connect 241 0 247 0;
#X connect 241 0 246 0;
#X connect 241 0 243 0;
#X connect 242 0 249 0;
#X connect 243 0 242 1;
#X connect 244 0 249 0;
#X connect 245 0 249 0;
#X connect 246 0 244 1;
#X connect 247 0 245 1;
#X connect 248 0 249 1;
#X connect 249 0 256 0;
#X connect 249 1 250 0;
#X connect 250 0 257 0;
#X connect 250 1 251 0;
#X connect 251 0 258 0;
#X connect 251 1 252 0;
#X connect 252 0 259 0;
#X connect 252 1 260 0;
#X connect 253 0 250 1;
#X connect 254 0 251 1;
#X connect 255 0 252 1;
#X connect 256 0 174 0;
#X connect 256 0 92 0;
#X connect 256 0 129 2;
#X connect 257 0 174 0;
#X connect 257 0 92 0;
#X connect 257 0 129 2;
#X connect 258 0 174 0;
#X connect 258 0 92 0;
#X connect 258 0 129 2;
#X connect 259 0 174 0;
#X connect 259 0 92 0;
#X connect 259 0 129 2;
#X connect 260 0 174 0;
#X connect 260 0 92 0;
#X connect 260 0 129 2;
#X connect 261 0 262 0;
#X connect 262 0 283 0;
#X connect 264 0 263 0;
#X connect 265 0 292 0;
#X connect 266 0 285 1;
#X connect 266 0 287 1;
#X connect 267 0 268 0;
#X connect 268 0 277 0;
#X connect 269 0 268 0;
#X connect 269 0 285 0;
#X connect 270 0 267 0;
#X connect 270 1 269 0;
#X connect 272 0 281 0;
#X connect 272 0 291 0;
#X connect 273 0 272 0;
#X connect 274 0 273 0;
#X connect 276 0 265 0;
#X connect 277 0 286 0;
#X connect 277 1 285 0;
#X connect 277 1 287 0;
#X connect 277 1 587 0;
#X connect 277 1 652 0;
#X connect 277 1 699 0;
#X connect 278 0 626 0;
#X connect 278 0 627 0;
#X connect 279 0 278 0;
#X connect 280 0 267 0;
#X connect 281 0 270 0;
#X connect 282 0 272 0;
#X connect 283 0 264 0;
#X connect 283 0 290 0;
#X connect 283 1 271 0;
#X connect 283 1 282 0;
#X connect 284 0 272 0;
#X connect 285 0 267 1;
#X connect 285 0 286 1;
#X connect 286 0 276 0;
#X connect 287 0 288 0;
#X connect 288 0 275 0;
#X connect 289 0 265 1;
#X connect 292 0 279 0;
#X connect 293 0 307 0;
#X connect 294 0 295 0;
#X connect 295 0 298 0;
#X connect 296 0 295 0;
#X connect 296 0 302 0;
#X connect 297 0 294 0;
#X connect 297 1 296 0;
#X connect 298 0 303 0;
#X connect 298 1 302 0;
#X connect 298 1 304 0;
#X connect 298 1 310 0;
#X connect 298 1 588 0;
#X connect 298 1 653 0;
#X connect 299 0 630 0;
#X connect 299 0 631 0;
#X connect 300 0 299 0;
#X connect 301 0 294 0;
#X connect 302 0 294 1;
#X connect 302 0 303 1;
#X connect 303 0 311 0;
#X connect 304 0 305 0;
#X connect 305 0 376 0;
#X connect 306 0 293 1;
#X connect 307 0 300 0;
#X connect 308 0 312 0;
#X connect 309 0 302 1;
#X connect 309 0 304 1;
#X connect 310 0 299 1;
#X connect 311 0 293 0;
#X connect 312 0 297 0;
#X connect 313 0 327 0;
#X connect 314 0 315 0;
#X connect 315 0 318 0;
#X connect 316 0 315 0;
#X connect 316 0 322 0;
#X connect 317 0 314 0;
#X connect 317 1 316 0;
#X connect 318 0 323 0;
#X connect 318 1 322 0;
#X connect 318 1 324 0;
#X connect 318 1 331 0;
#X connect 318 1 589 0;
#X connect 318 1 654 0;
#X connect 319 0 635 0;
#X connect 319 0 634 0;
#X connect 320 0 319 0;
#X connect 321 0 314 0;
#X connect 322 0 314 1;
#X connect 322 0 323 1;
#X connect 323 0 332 0;
#X connect 324 0 325 0;
#X connect 325 0 375 0;
#X connect 326 0 313 1;
#X connect 327 0 320 0;
#X connect 328 0 329 0;
#X connect 329 0 317 0;
#X connect 330 0 322 1;
#X connect 330 0 324 1;
#X connect 331 0 319 1;
#X connect 332 0 313 0;
#X connect 333 0 347 0;
#X connect 334 0 335 0;
#X connect 335 0 338 0;
#X connect 336 0 335 0;
#X connect 336 0 342 0;
#X connect 337 0 334 0;
#X connect 337 1 336 0;
#X connect 338 0 343 0;
#X connect 338 1 342 0;
#X connect 338 1 344 0;
#X connect 338 1 351 0;
#X connect 338 1 590 0;
#X connect 338 1 655 0;
#X connect 339 0 639 0;
#X connect 339 0 638 0;
#X connect 340 0 339 0;
#X connect 341 0 334 0;
#X connect 342 0 334 1;
#X connect 342 0 343 1;
#X connect 343 0 352 0;
#X connect 344 0 345 0;
#X connect 345 0 374 0;
#X connect 346 0 333 1;
#X connect 347 0 340 0;
#X connect 348 0 349 0;
#X connect 349 0 337 0;
#X connect 350 0 342 1;
#X connect 350 0 344 1;
#X connect 351 0 339 1;
#X connect 352 0 333 0;
#X connect 353 0 367 0;
#X connect 354 0 355 0;
#X connect 355 0 358 0;
#X connect 356 0 355 0;
#X connect 356 0 362 0;
#X connect 357 0 354 0;
#X connect 357 1 356 0;
#X connect 358 0 363 0;
#X connect 358 1 362 0;
#X connect 358 1 364 0;
#X connect 358 1 371 0;
#X connect 358 1 378 0;
#X connect 358 1 591 0;
#X connect 358 1 656 0;
#X connect 359 0 642 0;
#X connect 359 0 643 0;
#X connect 360 0 359 0;
#X connect 361 0 354 0;
#X connect 362 0 354 1;
#X connect 362 0 363 1;
#X connect 362 0 380 0;
#X connect 363 0 372 0;
#X connect 364 0 365 0;
#X connect 364 0 381 0;
#X connect 365 0 373 0;
#X connect 365 0 379 0;
#X connect 366 0 353 1;
#X connect 367 0 360 0;
#X connect 368 0 369 0;
#X connect 369 0 357 0;
#X connect 370 0 362 1;
#X connect 370 0 364 1;
#X connect 371 0 359 1;
#X connect 372 0 353 0;
#X connect 377 0 262 0;
#X connect 382 0 383 0;
#X connect 383 0 272 0;
#X connect 383 1 273 0;
#X connect 385 0 384 0;
#X connect 386 0 385 1;
#X connect 387 0 384 0;
#X connect 387 1 385 0;
#X connect 387 2 390 0;
#X connect 387 3 388 0;
#X connect 387 4 391 0;
#X connect 387 5 393 0;
#X connect 387 6 395 0;
#X connect 387 7 396 0;
#X connect 387 8 397 0;
#X connect 387 9 398 0;
#X connect 387 10 399 0;
#X connect 387 11 400 0;
#X connect 387 12 401 0;
#X connect 387 13 402 0;
#X connect 387 14 403 0;
#X connect 387 15 404 0;
#X connect 387 16 405 0;
#X connect 387 17 406 0;
#X connect 387 18 407 0;
#X connect 387 19 408 0;
#X connect 387 20 409 0;
#X connect 387 21 412 0;
#X connect 388 0 390 0;
#X connect 389 0 388 1;
#X connect 393 0 392 0;
#X connect 393 1 394 0;
#X connect 394 0 392 0;
#X connect 394 1 384 0;
#X connect 412 0 410 0;
#X connect 412 1 411 0;
#X connect 412 2 674 0;
#X connect 416 0 417 0;
#X connect 417 0 390 0;
#X connect 417 0 418 0;
#X connect 418 0 391 0;
#X connect 420 0 419 0;
#X connect 421 0 420 0;
#X connect 423 0 427 0;
#X connect 423 0 466 0;
#X connect 424 0 425 0;
#X connect 424 0 431 0;
#X connect 424 0 446 0;
#X connect 427 0 444 0;
#X connect 427 0 428 0;
#X connect 428 0 426 0;
#X connect 428 0 425 0;
#X connect 429 0 430 0;
#X connect 432 0 437 0;
#X connect 432 0 436 0;
#X connect 432 0 435 0;
#X connect 432 0 434 0;
#X connect 432 0 433 0;
#X connect 438 0 439 0;
#X connect 440 0 443 0;
#X connect 441 0 442 0;
#X connect 441 0 480 0;
#X connect 442 0 423 0;
#X connect 442 0 424 0;
#X connect 442 0 429 0;
#X connect 442 0 438 0;
#X connect 442 1 440 0;
#X connect 443 0 444 1;
#X connect 443 0 451 1;
#X connect 443 0 453 1;
#X connect 443 0 469 0;
#X connect 444 0 445 0;
#X connect 444 0 448 0;
#X connect 445 0 446 0;
#X connect 445 0 447 0;
#X connect 448 0 447 0;
#X connect 448 1 449 0;
#X connect 449 0 447 0;
#X connect 450 0 451 0;
#X connect 451 0 452 0;
#X connect 453 0 455 0;
#X connect 454 0 453 0;
#X connect 456 0 440 0;
#X connect 457 0 460 0;
#X connect 457 0 465 0;
#X connect 458 0 459 0;
#X connect 459 0 460 1;
#X connect 460 0 463 0;
#X connect 462 0 463 1;
#X connect 463 0 464 0;
#X connect 464 0 461 0;
#X connect 465 0 461 0;
#X connect 466 0 468 0;
#X connect 466 0 478 0;
#X connect 468 0 467 0;
#X connect 471 0 470 0;
#X connect 471 0 477 0;
#X connect 472 0 475 0;
#X connect 473 0 476 0;
#X connect 474 0 476 0;
#X connect 475 0 473 0;
#X connect 475 1 474 0;
#X connect 477 0 476 0;
#X connect 480 0 479 0;
#X connect 482 0 481 0;
#X connect 483 0 484 1;
#X connect 484 0 485 0;
#X connect 484 0 492 0;
#X connect 484 0 509 0;
#X connect 485 0 482 0;
#X connect 486 0 497 1;
#X connect 487 0 491 0;
#X connect 488 0 481 0;
#X connect 489 0 490 0;
#X connect 490 0 492 1;
#X connect 490 0 501 2;
#X connect 491 0 490 0;
#X connect 491 1 490 1;
#X connect 492 0 496 0;
#X connect 492 0 506 0;
#X connect 493 0 496 1;
#X connect 494 0 484 0;
#X connect 494 0 497 0;
#X connect 495 0 494 1;
#X connect 496 0 488 0;
#X connect 496 0 505 0;
#X connect 497 0 481 0;
#X connect 497 0 492 0;
#X connect 497 0 509 0;
#X connect 498 0 500 0;
#X connect 499 0 76 0;
#X connect 499 0 512 1;
#X connect 499 0 721 0;
#X connect 500 0 497 0;
#X connect 500 0 484 0;
#X connect 500 0 502 0;
#X connect 500 1 488 0;
#X connect 500 1 578 0;
#X connect 501 0 503 0;
#X connect 502 0 501 0;
#X connect 503 0 499 0;
#X connect 505 0 504 0;
#X connect 506 0 507 0;
#X connect 508 0 495 0;
#X connect 508 0 493 0;
#X connect 510 0 512 2;
#X connect 510 0 526 0;
#X connect 510 1 519 0;
#X connect 511 0 510 1;
#X connect 512 0 89 0;
#X connect 512 1 527 0;
#X connect 512 2 50 0;
#X connect 512 3 592 0;
#X connect 513 0 512 4;
#X connect 514 0 510 2;
#X connect 514 0 512 5;
#X connect 514 0 522 0;
#X connect 515 0 516 0;
#X connect 516 0 517 0;
#X connect 516 1 518 1;
#X connect 517 0 518 0;
#X connect 518 0 512 3;
#X connect 519 0 523 1;
#X connect 520 0 519 0;
#X connect 521 0 520 0;
#X connect 522 0 520 0;
#X connect 524 0 527 1;
#X connect 524 0 525 0;
#X connect 525 0 526 1;
#X connect 526 0 523 0;
#X connect 527 0 523 0;
#X connect 528 0 537 0;
#X connect 528 0 571 0;
#X connect 528 1 538 0;
#X connect 528 1 572 0;
#X connect 528 2 573 0;
#X connect 528 2 539 0;
#X connect 534 0 530 0;
#X connect 534 0 531 0;
#X connect 534 0 532 0;
#X connect 534 0 533 0;
#X connect 535 0 530 0;
#X connect 535 0 531 0;
#X connect 535 0 532 0;
#X connect 535 0 533 0;
#X connect 536 0 530 0;
#X connect 536 0 531 0;
#X connect 537 0 540 0;
#X connect 537 0 541 0;
#X connect 537 0 542 0;
#X connect 537 0 543 0;
#X connect 537 1 534 0;
#X connect 538 0 557 0;
#X connect 538 0 558 0;
#X connect 538 0 559 0;
#X connect 538 0 560 0;
#X connect 538 1 535 0;
#X connect 539 0 569 0;
#X connect 539 0 568 0;
#X connect 539 0 567 0;
#X connect 539 0 566 0;
#X connect 539 1 536 0;
#X connect 540 0 530 0;
#X connect 541 0 531 0;
#X connect 542 0 532 0;
#X connect 543 0 533 0;
#X connect 544 0 540 1;
#X connect 545 0 544 0;
#X connect 545 0 553 0;
#X connect 545 0 562 0;
#X connect 546 0 549 0;
#X connect 546 0 554 0;
#X connect 546 0 563 0;
#X connect 547 0 550 0;
#X connect 547 0 555 0;
#X connect 547 0 564 0;
#X connect 548 0 551 0;
#X connect 548 0 556 0;
#X connect 548 0 565 0;
#X connect 549 0 541 1;
#X connect 550 0 542 1;
#X connect 551 0 543 1;
#X connect 552 0 551 1;
#X connect 552 0 550 1;
#X connect 552 0 549 1;
#X connect 552 0 544 1;
#X connect 553 0 557 1;
#X connect 554 0 558 1;
#X connect 555 0 559 1;
#X connect 556 0 560 1;
#X connect 557 0 530 0;
#X connect 558 0 531 0;
#X connect 559 0 532 0;
#X connect 560 0 533 0;
#X connect 561 0 556 1;
#X connect 561 0 555 1;
#X connect 561 0 554 1;
#X connect 561 0 553 1;
#X connect 562 0 569 1;
#X connect 563 0 568 1;
#X connect 564 0 567 1;
#X connect 565 0 566 1;
#X connect 566 0 533 0;
#X connect 567 0 532 0;
#X connect 568 0 531 0;
#X connect 569 0 530 0;
#X connect 570 0 565 1;
#X connect 570 0 564 1;
#X connect 570 0 563 1;
#X connect 570 0 562 1;
#X connect 571 0 529 0;
#X connect 572 0 529 0;
#X connect 573 0 529 0;
#X connect 574 0 528 0;
#X connect 575 0 574 0;
#X connect 576 0 528 0;
#X connect 576 1 570 0;
#X connect 576 1 561 0;
#X connect 576 1 552 0;
#X connect 577 0 576 0;
#X connect 578 0 492 0;
#X connect 578 0 506 0;
#X connect 579 0 481 0;
#X connect 579 0 592 1;
#X connect 580 0 582 0;
#X connect 580 1 581 0;
#X connect 580 1 584 0;
#X connect 581 0 683 0;
#X connect 582 0 683 0;
#X connect 584 0 583 0;
#X connect 584 1 585 0;
#X connect 585 0 583 0;
#X connect 587 0 276 1;
#X connect 588 0 311 1;
#X connect 589 0 332 1;
#X connect 590 0 352 1;
#X connect 591 0 372 1;
#X connect 595 0 597 0;
#X connect 596 0 595 0;
#X connect 596 0 598 0;
#X connect 598 0 599 0;
#X connect 601 0 616 0;
#X connect 603 0 617 0;
#X connect 605 0 618 0;
#X connect 607 0 619 0;
#X connect 609 0 620 0;
#X connect 611 0 601 0;
#X connect 612 0 609 0;
#X connect 613 0 607 0;
#X connect 614 0 605 0;
#X connect 615 0 603 0;
#X connect 616 0 621 0;
#X connect 617 0 622 0;
#X connect 618 0 623 0;
#X connect 619 0 624 0;
#X connect 620 0 625 0;
#X connect 621 0 602 0;
#X connect 622 0 604 0;
#X connect 623 0 606 0;
#X connect 624 0 608 0;
#X connect 625 0 610 0;
#X connect 626 0 611 0;
#X connect 627 0 648 0;
#X connect 628 0 629 0;
#X connect 628 0 627 1;
#X connect 629 0 626 1;
#X connect 630 0 615 0;
#X connect 631 0 647 0;
#X connect 632 0 633 0;
#X connect 632 0 631 1;
#X connect 633 0 630 1;
#X connect 634 0 614 0;
#X connect 635 0 649 0;
#X connect 636 0 637 0;
#X connect 636 0 635 1;
#X connect 637 0 634 1;
#X connect 638 0 613 0;
#X connect 639 0 650 0;
#X connect 640 0 641 0;
#X connect 640 0 639 1;
#X connect 641 0 638 1;
#X connect 642 0 612 0;
#X connect 643 0 651 0;
#X connect 644 0 645 0;
#X connect 644 0 643 1;
#X connect 645 0 642 1;
#X connect 647 0 603 0;
#X connect 648 0 601 0;
#X connect 649 0 605 0;
#X connect 650 0 607 0;
#X connect 651 0 609 0;
#X connect 657 0 658 0;
#X connect 658 0 660 0;
#X connect 658 1 659 0;
#X connect 661 0 662 0;
#X connect 661 0 677 0;
#X connect 662 0 663 0;
#X connect 664 0 670 0;
#X connect 665 0 672 0;
#X connect 666 0 676 0;
#X connect 667 0 669 0;
#X connect 668 0 667 0;
#X connect 669 0 680 0;
#X connect 670 1 684 0;
#X connect 672 0 673 0;
#X connect 672 1 686 0;
#X connect 673 0 692 0;
#X connect 674 0 413 0;
#X connect 674 1 414 0;
#X connect 674 2 419 0;
#X connect 674 3 422 0;
#X connect 674 4 580 0;
#X connect 674 5 586 0;
#X connect 674 6 682 0;
#X connect 674 7 723 0;
#X connect 675 0 232 0;
#X connect 676 0 665 1;
#X connect 676 0 664 1;
#X connect 677 0 678 0;
#X connect 679 0 666 1;
#X connect 681 0 666 0;
#X connect 681 0 675 1;
#X connect 681 0 690 0;
#X connect 681 0 695 0;
#X connect 684 0 691 0;
#X connect 684 1 685 0;
#X connect 685 0 688 0;
#X connect 686 0 692 0;
#X connect 686 1 687 0;
#X connect 687 0 689 0;
#X connect 688 0 691 0;
#X connect 689 0 692 0;
#X connect 690 0 692 1;
#X connect 690 0 691 1;
#X connect 691 0 225 0;
#X connect 692 0 225 1;
#X connect 693 0 225 0;
#X connect 694 0 225 1;
#X connect 695 0 694 1;
#X connect 695 0 693 1;
#X connect 696 0 693 0;
#X connect 697 2 225 2;
#X connect 699 0 278 1;
#X connect 700 0 181 0;
#X connect 700 0 235 0;
#X connect 701 0 190 0;
#X connect 701 0 236 0;
#X connect 702 0 199 0;
#X connect 702 0 237 0;
#X connect 703 0 208 0;
#X connect 703 0 238 0;
#X connect 704 0 213 0;
#X connect 704 0 725 0;
#X connect 705 0 727 0;
#X connect 706 0 678 0;
#X connect 721 0 44 0;
#X connect 723 0 600 0;
#X connect 723 1 724 0;
#X coords 0 -1 1 1 330 205 1 50 200;
