#N canvas 40 214 1031 411 10;
#X declare -lib zexy -lib ekext;
#X obj 417 178 inlet~;
#X msg 525 117 open \$1;
#X obj 525 26 sel 0 1;
#X msg 524 72 stop;
#X msg 487 72 start;
#X obj 577 40 savepanel;
#X msg 648 119 set \$1;
#X obj 487 55 del 50;
#X msg 727 94 open \$1;
#X symbolatom 727 77 0 0 0 0 - - -;
#X obj 649 29 del 200;
#X obj 458 227 outlet~;
#X obj 101 117 cnv 15 120 46 empty \$0-rcnv-lbl record_s~ 25 6 0 8
-261681 -143491 0;
#X obj 400 5 r \$0-record;
#X obj 405 29 s \$0-record-set;
#X obj 918 75 s \$0-review-set;
#X obj 757 29 r \$0-review;
#X obj 826 89 r \$0-record;
#X obj 786 108 sel 0 1;
#X obj 842 157 metro 1000;
#X obj 844 121 t b b;
#X obj 842 141 del 50;
#X msg 786 143 0;
#X obj 854 248 t f f;
#X obj 881 270 % 60;
#X obj 835 274 / 60;
#X obj 834 296 i;
#X obj 868 2 inlet;
#X obj 910 191 outlet;
#X obj 721 53 bng 15 250 50 0 empty empty empty 0 -6 0 10 -262144 -1
-1;
#X obj 653 0 sel 1;
#X msg 577 4 set 1;
#X msg 922 162 file \$1;
#X obj 490 177 inlet~;
#X obj 487 142 writesf~ 2;
#X obj 704 130 readsf~ 2;
#X obj 528 226 outlet~;
#X obj 833 318 s \$0-minutes;
#X obj 882 295 s \$0-seconds;
#X obj 106 138 tgl 22 0 \$0-record \$0-record-set record -4 -6 0 8
-261689 -143491 -143491 0 1;
#X obj 142 138 tgl 22 0 \$0-review \$0-review-set review -4 -6 0 8
-225271 -42246 -42246 0 1;
#X obj 179 124 nbx 3 14 0 99 0 0 \$0-minutes-out \$0-minutes m 25 8
1 10 -13381 -204786 -204786 0 256;
#X obj 179 142 nbx 3 14 0 59 0 0 \$0-seconds-out \$0-seconds s 25 8
1 10 -16662 -203904 -203904 0 256;
#X obj 563 79 makesymbol %s.wav;
#X obj 868 22 route file record review;
#X obj 599 117 t b a;
#X msg 893 138 1;
#X obj 787 68 makesymbol %s.wav;
#X obj 822 47 symbol;
#X obj 103 44 declare -lib zexy -lib ekext;
#X obj 845 212 ekext/cup;
#X connect 0 0 11 0;
#X connect 0 0 34 0;
#X connect 1 0 34 0;
#X connect 2 0 3 0;
#X connect 2 0 10 0;
#X connect 2 1 5 0;
#X connect 3 0 34 0;
#X connect 4 0 34 0;
#X connect 5 0 32 0;
#X connect 5 0 43 0;
#X connect 6 0 9 0;
#X connect 7 0 4 0;
#X connect 8 0 35 0;
#X connect 9 0 8 0;
#X connect 10 0 9 0;
#X connect 13 0 2 0;
#X connect 13 0 28 0;
#X connect 16 0 35 0;
#X connect 17 0 18 0;
#X connect 18 0 22 0;
#X connect 19 0 50 0;
#X connect 20 0 21 0;
#X connect 20 1 46 0;
#X connect 21 0 19 0;
#X connect 22 0 19 0;
#X connect 23 0 25 0;
#X connect 23 1 24 0;
#X connect 24 0 38 0;
#X connect 25 0 26 0;
#X connect 26 0 37 0;
#X connect 27 0 44 0;
#X connect 29 0 9 0;
#X connect 30 0 31 0;
#X connect 30 1 14 0;
#X connect 31 0 14 0;
#X connect 32 0 28 0;
#X connect 33 0 34 1;
#X connect 33 0 36 0;
#X connect 35 0 11 0;
#X connect 35 1 36 0;
#X connect 43 0 6 0;
#X connect 43 0 45 0;
#X connect 44 0 48 0;
#X connect 44 1 14 0;
#X connect 44 2 15 0;
#X connect 44 3 30 0;
#X connect 45 0 7 0;
#X connect 45 0 20 0;
#X connect 45 1 1 0;
#X connect 46 0 50 0;
#X connect 47 0 1 0;
#X connect 48 0 47 0;
#X connect 50 0 23 0;
#X coords 0 -1 1 1 122 66 1 100 100;
