#N canvas 3 89 1278 625 10;
#X declare -lib zexy -lib ekext;
#X obj 227 213 inlet~;
#X msg 346 315 open \$1;
#X obj 672 33 sel 0 1;
#X msg 409 257 stop;
#X msg 372 257 start;
#X obj 545 77 savepanel;
#X msg 738 149 set \$1;
#X obj 511 218 del 50;
#X msg 795 134 open \$1;
#X symbolatom 817 107 0 0 0 0 - - -;
#X obj 739 59 del 200;
#X obj 213 531 outlet~;
#X obj 101 117 cnv 15 140 46 empty \$0-rcnv-lbl record_q~ 25 6 0 8
-86277 -261234 0;
#X obj 762 26 r \$0-record;
#X obj 612 136 s \$0-record-set;
#X obj 1068 94 s \$0-review-set;
#X obj 847 59 r \$0-review;
#X obj 612 265 r \$0-record;
#X obj 577 308 sel 0 1;
#X obj 623 372 metro 1000;
#X obj 654 313 t b b;
#X obj 654 336 del 50;
#X msg 577 333 0;
#X obj 664 450 t f f;
#X obj 691 472 % 60;
#X obj 645 476 / 60;
#X obj 644 498 i;
#X obj 986 37 inlet;
#X obj 1211 217 outlet;
#X obj 811 83 bng 15 250 50 0 empty empty empty 0 -6 0 10 -262144 -1
-1;
#X obj 667 103 sel 1;
#X msg 611 108 set 1;
#X msg 1211 137 file \$1;
#X obj 300 212 inlet~;
#X obj 272 346 writesf~ 2;
#X obj 794 160 readsf~ 2;
#X obj 283 530 outlet~;
#X obj 643 520 s \$0-minutes;
#X obj 692 497 s \$0-seconds;
#X obj 110 138 tgl 22 0 \$0-record \$0-record-set record -4 -6 0 8
-261689 -143491 -261234 0 1;
#X obj 146 138 tgl 22 0 \$0-review \$0-review-set review -4 -6 0 8
-225271 -42246 -204786 0 1;
#X obj 986 57 route file record review;
#X obj 511 194 t b a;
#X obj 727 111 symbol;
#X obj 103 74 declare -lib zexy -lib ekext;
#X obj 655 414 ekext/cup;
#X msg 705 310 0;
#X obj 371 166 makesymbol %s_ch1_ch2.wav;
#X obj 1023 116 s \$0-record-set;
#X obj 1337 61 s \$0-s1;
#X obj 950 88 s \$0-file;
#X obj 722 86 r \$0-file;
#X obj 655 77 r \$0-s1;
#X obj 377 213 inlet~;
#X msg 496 315 open \$1;
#X obj 363 531 outlet~;
#X obj 450 212 inlet~;
#X obj 422 346 writesf~ 2;
#X obj 433 530 outlet~;
#X obj 553 166 makesymbol %s_ch3_ch4.wav;
#X msg 828 199 set \$1;
#X msg 885 184 open \$1;
#X symbolatom 907 157 0 0 0 0 - - -;
#X obj 901 133 bng 15 250 50 0 empty empty empty 0 -6 0 10 -262144
-1 -1;
#X obj 884 210 readsf~ 2;
#X obj 1030 155 r \$0-minutes;
#X obj 1058 202 r \$0-seconds;
#X msg 1030 180 m \$1;
#X msg 1058 227 s \$1;
#X obj 874 562 pip~;
#X obj 191 103 cnv 15 50 46 empty empty empty 25 6 0 8 -86277 -261234
0;
#X obj 225 117 tgl 12 0 \$0-pip \$0-pip-set pip -1 -7 1 10 -261234
-258113 -261234 1 1;
#X obj 225 145 tgl 12 0 \$0-pip_low \$0-pip_low-set low -1 -7 1 10
-261234 -258113 -261234 0 1;
#X obj 179 124 nbx 3 16 0 99 0 0 \$0-minutes-out \$0-minutes m 28 8
1 12 -13381 -204786 -204786 0 256;
#X obj 179 142 nbx 3 16 0 59 0 0 \$0-seconds-out \$0-seconds s 28 8
1 12 -16662 -203904 -203904 0 256;
#X obj 208 106 bng 12 250 50 0 \$0-pip_go \$0-pip-bng go -15 6 1 10
-261234 -258113 -261234;
#X obj 581 220 del 250;
#X obj 951 351 r \$0-pip_low;
#X obj 951 376 == 0;
#X obj 873 344 spigot;
#X obj 909 310 r \$0-pip;
#X obj 777 296 r \$0-pip_go;
#X obj 874 400 spigot 1;
#X obj 986 410 spigot;
#X msg 986 435 440;
#X obj 1061 519 s \$0-pip-set;
#X msg 1059 489 1;
#X obj 1062 462 loadbang;
#X msg 874 427 18256;
#X obj 874 452 t b f;
#X obj 874 477 random 6000;
#X obj 874 502 * 0.5;
#X obj 874 527 +;
#X obj 1169 59 route pip pipLow pipGo;
#X obj 1185 96 s \$0-pip-set;
#X obj 1282 130 s \$0-pip_low-set;
#X obj 1291 93 s \$0-pip-bng;
#X connect 0 0 11 0;
#X connect 0 0 34 0;
#X connect 1 0 34 0;
#X connect 2 0 3 0;
#X connect 2 0 10 0;
#X connect 2 1 5 0;
#X connect 3 0 34 0;
#X connect 3 0 57 0;
#X connect 4 0 34 0;
#X connect 4 0 57 0;
#X connect 5 0 32 0;
#X connect 5 0 47 0;
#X connect 5 0 59 0;
#X connect 6 0 9 0;
#X connect 7 0 4 0;
#X connect 8 0 35 0;
#X connect 9 0 8 0;
#X connect 9 0 32 0;
#X connect 10 0 9 0;
#X connect 13 0 2 0;
#X connect 13 0 28 0;
#X connect 16 0 35 0;
#X connect 16 0 64 0;
#X connect 17 0 18 0;
#X connect 18 0 22 0;
#X connect 19 0 45 0;
#X connect 20 0 21 0;
#X connect 20 1 46 0;
#X connect 21 0 19 0;
#X connect 22 0 19 0;
#X connect 23 0 25 0;
#X connect 23 1 24 0;
#X connect 24 0 38 0;
#X connect 25 0 26 0;
#X connect 26 0 37 0;
#X connect 27 0 41 0;
#X connect 29 0 9 0;
#X connect 30 0 31 0;
#X connect 30 1 14 0;
#X connect 31 0 14 0;
#X connect 32 0 28 0;
#X connect 33 0 34 1;
#X connect 33 0 36 0;
#X connect 35 0 11 0;
#X connect 35 1 36 0;
#X connect 41 0 50 0;
#X connect 41 1 48 0;
#X connect 41 2 15 0;
#X connect 41 3 93 0;
#X connect 42 0 7 0;
#X connect 42 0 20 0;
#X connect 42 0 76 0;
#X connect 42 1 1 0;
#X connect 43 0 47 0;
#X connect 43 0 59 0;
#X connect 45 0 23 0;
#X connect 46 0 45 0;
#X connect 47 0 42 0;
#X connect 47 0 6 0;
#X connect 51 0 43 0;
#X connect 52 0 30 0;
#X connect 53 0 55 0;
#X connect 53 0 57 0;
#X connect 54 0 57 0;
#X connect 56 0 57 1;
#X connect 56 0 58 0;
#X connect 59 0 54 0;
#X connect 59 0 60 0;
#X connect 60 0 62 0;
#X connect 61 0 64 0;
#X connect 62 0 61 0;
#X connect 63 0 62 0;
#X connect 64 0 55 0;
#X connect 64 1 58 0;
#X connect 65 0 67 0;
#X connect 66 0 68 0;
#X connect 67 0 28 0;
#X connect 68 0 28 0;
#X connect 76 0 79 0;
#X connect 77 0 78 0;
#X connect 77 0 83 1;
#X connect 78 0 82 1;
#X connect 79 0 82 0;
#X connect 79 0 83 0;
#X connect 80 0 79 1;
#X connect 81 0 79 0;
#X connect 82 0 88 0;
#X connect 83 0 84 0;
#X connect 84 0 69 0;
#X connect 86 0 85 0;
#X connect 87 0 86 0;
#X connect 88 0 89 0;
#X connect 89 0 90 0;
#X connect 89 1 92 1;
#X connect 90 0 91 0;
#X connect 91 0 92 0;
#X connect 92 0 69 0;
#X connect 93 0 94 0;
#X connect 93 1 95 0;
#X connect 93 2 96 0;
#X connect 93 3 49 0;
#X coords 0 -1 1 1 142 66 1 100 100;
