#N canvas 0 0 1100 408 10;
#X obj 427 188 inlet~;
#X msg 557 123 open \$1;
#X obj 535 36 sel 0 1;
#X msg 534 82 stop;
#X msg 497 82 start;
#X obj 587 50 savepanel;
#X msg 658 129 set \$1;
#X obj 497 65 del 50;
#X msg 737 104 open \$1;
#X symbolatom 737 87 0 0 0 0 - - -;
#X obj 659 39 del 200;
#X obj 468 237 outlet~;
#X obj 410 15 r \$0-record;
#X obj 415 39 s \$0-record-set;
#X obj 840 75 s \$0-review-set;
#X obj 767 39 r \$0-review;
#X obj 836 99 r \$0-record;
#X obj 796 118 sel 0 1;
#X obj 852 167 metro 1000;
#X obj 854 131 t b b;
#X obj 852 151 del 50;
#X obj 872 183 cup;
#X msg 796 153 0;
#X obj 870 208 t f f;
#X obj 897 230 % 60;
#X obj 851 234 / 60;
#X obj 850 256 i;
#X obj 878 12 inlet;
#X obj 920 201 outlet;
#X obj 731 63 bng 15 250 50 0 empty empty empty 0 -6 0 10 -262144 -1
-1;
#X obj 663 10 sel 1;
#X msg 587 14 set 1;
#X msg 932 172 file \$1;
#X obj 500 187 inlet~;
#X obj 497 152 writesf~ 2;
#X obj 714 140 readsf~ 2;
#X obj 538 236 outlet~;
#X obj 849 278 s \$0-minutes;
#X obj 898 255 s \$0-seconds;
#X obj 573 89 makesymbol %s.wav;
#X obj 878 32 route file record review;
#X obj 611 122 t b a;
#X msg 903 148 1;
#X obj 140 103 tgl 12 0 \$0-record \$0-record-set empty 17 7 0 10 -262144
-1 -1 0 1;
#X connect 0 0 11 0;
#X connect 0 0 34 0;
#X connect 1 0 34 0;
#X connect 2 0 3 0;
#X connect 2 0 10 0;
#X connect 2 1 5 0;
#X connect 3 0 34 0;
#X connect 4 0 34 0;
#X connect 5 0 32 0;
#X connect 5 0 39 0;
#X connect 6 0 9 0;
#X connect 7 0 4 0;
#X connect 8 0 35 0;
#X connect 9 0 8 0;
#X connect 10 0 9 0;
#X connect 12 0 2 0;
#X connect 12 0 28 0;
#X connect 15 0 35 0;
#X connect 16 0 17 0;
#X connect 17 0 22 0;
#X connect 18 0 21 0;
#X connect 19 0 20 0;
#X connect 19 1 42 0;
#X connect 20 0 18 0;
#X connect 21 0 23 0;
#X connect 22 0 18 0;
#X connect 23 0 25 0;
#X connect 23 1 24 0;
#X connect 24 0 38 0;
#X connect 25 0 26 0;
#X connect 26 0 37 0;
#X connect 27 0 40 0;
#X connect 29 0 9 0;
#X connect 30 0 31 0;
#X connect 30 1 13 0;
#X connect 31 0 13 0;
#X connect 32 0 28 0;
#X connect 33 0 34 1;
#X connect 33 0 36 0;
#X connect 35 0 11 0;
#X connect 35 1 36 0;
#X connect 39 0 6 0;
#X connect 39 0 41 0;
#X connect 40 0 41 0;
#X connect 40 1 13 0;
#X connect 40 2 14 0;
#X connect 40 3 30 0;
#X connect 41 0 7 0;
#X connect 41 0 19 0;
#X connect 41 1 1 0;
#X connect 42 0 21 0;
#X coords 0 -1 1 1 55 18 1 100 100;
