#N canvas 116 89 1209 676 10;
#X declare -lib zexy -lib iemlib;
#X floatatom 223 464 0 0 0 0 - - -;
#X floatatom 88 496 0 0 0 0 - - -;
#X obj 469 464 *~;
#N canvas 249 280 600 398 loc&precess 0;
#X msg 244 124 set \$1;
#X obj 243 156 outlet;
#X obj 56 197 outlet;
#X msg 56 180 set \$1;
#X obj 41 51 t b f;
#X obj 56 163 f;
#X obj 28 76 int;
#X obj 28 100 sel 0;
#X msg 151 50 1;
#X msg 174 50 0;
#X obj 86 133 del 300;
#X text 249 43 see-location location speed;
#X obj 29 19 inlet;
#X obj 145 20 inlet;
#X obj 243 98 inlet;
#X connect 0 0 1 0;
#X connect 3 0 2 0;
#X connect 4 0 6 0;
#X connect 4 1 5 1;
#X connect 5 0 3 0;
#X connect 6 0 7 0;
#X connect 7 0 8 0;
#X connect 7 0 10 0;
#X connect 8 0 6 1;
#X connect 9 0 6 1;
#X connect 10 0 9 0;
#X connect 10 0 5 0;
#X connect 12 0 4 0;
#X connect 13 0 4 0;
#X connect 14 0 0 0;
#X restore 121 440 pd loc&precess;
#X floatatom 324 423 0 0 0 0 - - -;
#X msg 324 402 0;
#X msg 352 402 1;
#X obj 469 504 outlet~;
#X obj 88 440 line;
#X obj 88 418 pack;
#X obj 324 382 sel 0 1;
#X text 132 313 location;
#X text 118 398 ramp time;
#X text 254 368 transpose;
#X text 599 362 audiotab;
#X obj 45 576 cnv 15 360 80 empty empty empty 20 12 2 14 -225271 -66577
0;
#X obj 80 394 f;
#X floatatom 542 399 0 0 0 0 - - -;
#X text 225 426 speed;
#X obj 527 506 t b;
#N canvas 16 121 259 370 hanning 0;
#X obj 93 191 phasor~;
#X obj 93 211 cos~;
#X obj 30 252 -~;
#X obj 28 218 sig~ 1;
#X msg 37 180 0;
#X obj 93 171 sig~;
#X msg 23 144 bang;
#X obj 123 235 sig~ 0.5;
#X obj 31 274 *~;
#X obj 94 80 samplerate~;
#X obj 27 75 t b f;
#X obj 93 132 /;
#X obj 25 23 inlet;
#X obj 27 48 f;
#X obj 23 328 tabwrite~ \$0-hann;
#X obj 137 148 table \$0-hann \$1;
#X connect 0 0 1 0;
#X connect 1 0 2 1;
#X connect 2 0 8 0;
#X connect 3 0 2 0;
#X connect 4 0 0 1;
#X connect 5 0 0 0;
#X connect 6 0 4 0;
#X connect 6 0 14 0;
#X connect 7 0 8 1;
#X connect 8 0 14 0;
#X connect 9 0 11 0;
#X connect 10 0 9 0;
#X connect 10 0 6 0;
#X connect 10 1 11 1;
#X connect 11 0 5 0;
#X connect 12 0 13 0;
#X connect 13 0 10 0;
#X restore 527 584 pd hanning;
#X obj 469 444 hip~ 18;
#X text 148 301 start;
#X text 447 330 phase-real phase-imag window overlaps hanning-tab;
#X obj 88 474 +;
#X obj 153 464 t b f;
#X obj 697 543 s \$0-overlaps;
#X obj 576 543 s \$0-window-size;
#X obj 462 526 samplerate~;
#X obj 427 545 s \$0-sample-rate;
#X obj 21 37 cnv 15 350 158 empty \$0-mycanvas empty 37 8 1 10 -225271
-42246 0;
#X obj 687 91 loadbang;
#X msg 682 114 0;
#X msg 722 116 100;
#X obj 670 144 s \$0-start_time-set;
#X obj 694 160 s \$0-end_time-set;
#X obj 185 334 *;
#X obj 180 377 *;
#X obj 785 83 r \$0-random_times;
#X obj 754 112 random 10000;
#X obj 802 128 random 10000;
#X obj 802 144 / 100;
#X obj 754 128 / 100;
#X obj 122 418 r \$0-time-num;
#X obj 92 352 f;
#X obj 57 324 r \$0-go;
#X obj 708 180 r \$0-tv_fall;
#X obj 663 206 s \$0-tv_fst-set;
#X obj 765 205 s \$0-tv_fend-set;
#X obj 588 113 s \$0-time-set;
#X obj 588 62 r \$0-time_random;
#X obj 588 79 random 2785;
#X obj 588 96 * 7.18391;
#N canvas 5 48 539 206 pack_timescratch~ 0;
#X obj 49 38 r \$0-tv_fst;
#X obj 127 39 r \$0-tv_fend;
#X obj 207 38 r \$0-tv_ast;
#X obj 288 37 r \$0-tv_aend;
#X obj 334 57 r \$0-a_times;
#X msg 334 127 1;
#X msg 361 127 0.1;
#X obj 352 102 sel 0 1 2;
#X msg 385 126 0.01;
#X obj 333 158 s \$0-times-num;
#X obj 334 76 t b b f;
#X obj 288 53 *;
#X obj 207 54 *;
#X obj 20 151 outlet;
#X obj 23 59 r \$0-go;
#X obj 21 130 pack f f f f f;
#X obj 136 120 r \$0-size_tab;
#X obj 22 108 f;
#X connect 0 0 17 1;
#X connect 1 0 15 1;
#X connect 2 0 12 0;
#X connect 3 0 11 0;
#X connect 4 0 10 0;
#X connect 5 0 9 0;
#X connect 5 0 12 1;
#X connect 5 0 11 1;
#X connect 6 0 9 0;
#X connect 6 0 12 1;
#X connect 6 0 11 1;
#X connect 7 0 5 0;
#X connect 7 1 6 0;
#X connect 7 2 8 0;
#X connect 8 0 9 0;
#X connect 8 0 12 1;
#X connect 8 0 11 1;
#X connect 10 0 12 0;
#X connect 10 1 11 0;
#X connect 10 2 7 0;
#X connect 11 0 15 3;
#X connect 12 0 15 2;
#X connect 14 0 17 0;
#X connect 15 0 13 0;
#X connect 16 0 15 4;
#X connect 17 0 15 0;
#X restore 450 371 pd pack_timescratch~;
#X obj 708 229 r \$0-tv_aall;
#X obj 663 255 s \$0-tv_ast-set;
#X obj 765 254 s \$0-tv_aend-set;
#X obj 324 334 s \$0-size_tab;
#N canvas 0 22 450 300 makeosc 0;
#X obj 17 157 osc~;
#X obj 17 139 line~;
#X obj 61 138 line~;
#X obj 17 176 *~;
#X obj 19 85 unpack f f f f f;
#X msg 108 140 \$1 \, \$2 \$3;
#X obj 108 124 pack f f f;
#X obj 135 105 *;
#X obj 108 105 *;
#X msg 18 121 \$1 \, \$2 \$3;
#X obj 18 105 pack f f f;
#X obj 143 247 outlet~;
#X obj 240 199 switch~;
#X obj 254 108 r \$0-timescrub;
#X obj 24 41 inlet;
#X obj 16 239 outlet~;
#X obj 163 105 r \$0-time-num;
#X connect 0 0 3 0;
#X connect 0 0 15 0;
#X connect 1 0 0 0;
#X connect 2 0 3 1;
#X connect 3 0 11 0;
#X connect 4 0 10 0;
#X connect 4 1 10 1;
#X connect 4 2 8 0;
#X connect 4 3 7 0;
#X connect 4 4 8 1;
#X connect 4 4 7 1;
#X connect 5 0 2 0;
#X connect 6 0 5 0;
#X connect 7 0 6 1;
#X connect 8 0 6 0;
#X connect 9 0 1 0;
#X connect 10 0 9 0;
#X connect 13 0 12 0;
#X connect 14 0 4 0;
#X connect 16 0 6 2;
#X connect 16 0 10 2;
#X restore 450 390 pd makeosc;
#X obj 371 362 r \$0-lock;
#X obj 599 377 r \$0-tab;
#X obj 914 178 r \$0-pv_fall;
#X obj 869 204 s \$0-pv_fst-set;
#X obj 971 203 s \$0-pv_fend-set;
#X obj 914 227 r \$0-pv_aall;
#X obj 869 253 s \$0-pv_ast-set;
#X obj 971 252 s \$0-pv_aend-set;
#N canvas 5 48 450 300 makeosc 0;
#X obj 17 157 osc~;
#X obj 17 139 line~;
#X obj 61 138 line~;
#X obj 17 176 *~;
#X msg 108 140 \$1 \, \$2 \$3;
#X obj 108 124 pack f f f;
#X msg 18 121 \$1 \, \$2 \$3;
#X obj 18 105 pack f f f;
#X obj 153 254 outlet~;
#X obj 240 199 switch~;
#X obj 24 41 inlet;
#X obj 25 269 outlet~;
#X obj 254 108 r \$0-pitchscrub;
#X obj 108 188 env~;
#X floatatom 121 207 5 0 0 0 - - -;
#X obj 19 85 unpack f f f f;
#X obj 163 105 r \$0-time-num;
#X connect 0 0 3 0;
#X connect 0 0 11 0;
#X connect 1 0 0 0;
#X connect 2 0 3 1;
#X connect 3 0 8 0;
#X connect 3 0 13 0;
#X connect 4 0 2 0;
#X connect 5 0 4 0;
#X connect 6 0 1 0;
#X connect 7 0 6 0;
#X connect 10 0 15 0;
#X connect 12 0 9 0;
#X connect 13 0 14 0;
#X connect 15 0 7 0;
#X connect 15 1 7 1;
#X connect 15 2 5 0;
#X connect 15 3 5 1;
#X connect 16 0 5 2;
#X connect 16 0 7 2;
#X restore 760 309 pd makeosc;
#X obj 864 317 r \$0-gorand;
#X obj 904 337 t b b;
#X obj 929 374 s \$0-random_times-bng;
#X obj 926 402 s \$0-time_random-bng;
#X obj 855 407 s \$0-go;
#X obj 967 352 bng 15 250 50 0 empty empty empty 17 7 0 10 -262144
-1 -1;
#X obj 788 181 s \$0-transpose-set;
#X obj 451 81 r \$0-transpose_random;
#X obj 451 100 random 193;
#X obj 451 119 - 96;
#X obj 451 157 s \$0-transpose-set;
#X obj 451 138 *;
#X obj 474 138 r \$0-transpose_extent;
#X msg 925 109 1;
#X obj 924 138 s \$0-transpose_extent-set;
#X obj 406 208 s \$0-time-set;
#X msg 406 142 5000;
#N canvas 0 22 539 206 pack_pitchscratch~ 0;
#X msg 334 127 1;
#X msg 361 127 0.1;
#X obj 352 102 sel 0 1 2;
#X msg 385 126 0.01;
#X obj 334 76 t b b f;
#X obj 288 53 *;
#X obj 207 54 *;
#X obj 20 151 outlet;
#X obj 23 59 r \$0-go;
#X obj 22 108 f;
#X obj 49 38 r \$0-pv_fst;
#X obj 127 39 r \$0-pv_fend;
#X obj 207 38 r \$0-pv_ast;
#X obj 288 37 r \$0-pv_aend;
#X obj 333 158 s \$0-p_times-num;
#X obj 334 57 r \$0-p_a_times;
#X obj 21 130 pack f f f f;
#X connect 0 0 6 1;
#X connect 0 0 5 1;
#X connect 0 0 14 0;
#X connect 1 0 6 1;
#X connect 1 0 5 1;
#X connect 1 0 14 0;
#X connect 2 0 0 0;
#X connect 2 1 1 0;
#X connect 2 2 3 0;
#X connect 3 0 6 1;
#X connect 3 0 5 1;
#X connect 3 0 14 0;
#X connect 4 0 6 0;
#X connect 4 1 5 0;
#X connect 4 2 2 0;
#X connect 5 0 16 3;
#X connect 6 0 16 2;
#X connect 8 0 9 0;
#X connect 9 0 16 0;
#X connect 10 0 9 1;
#X connect 11 0 16 1;
#X connect 12 0 6 0;
#X connect 13 0 5 0;
#X connect 15 0 4 0;
#X connect 16 0 7 0;
#X restore 760 290 pd pack_pitchscratch~;
#X obj 247 404 * 100;
#N canvas 95 168 990 669 fft_resynthesis 0;
#X obj 179 242 *~;
#X obj 148 242 *~;
#X obj 148 264 -~;
#X obj 243 243 *~;
#X obj 212 243 *~;
#X obj 212 265 +~;
#X obj 256 73 *~;
#X obj 225 73 *~;
#X obj 197 73 *~;
#X obj 166 73 *~;
#X obj 166 95 +~;
#X obj 202 121 *~;
#X obj 49 560 *~;
#X obj 320 226 rfft~;
#X obj 291 34 rfft~;
#X obj 421 602 *~;
#X obj 377 243 f;
#X obj 513 97 t b f;
#X obj 490 120 /;
#X obj 451 602 *~;
#X obj 50 540 *~;
#X obj 66 517 rifft~;
#X obj 50 586 outlet~;
#X obj 534 445 print~;
#X msg 533 417 bang;
#X text 115 517 inverse real FFT;
#X obj 363 222 bang~;
#X obj 425 415 line~;
#X obj 490 142 * 1000;
#X text 358 143 window size (msec);
#X obj 515 75 * 4;
#X obj 404 243 +;
#X obj 404 222 *;
#X msg 450 202 0;
#X obj 518 340 +;
#X obj 377 299 t f f;
#X msg 425 395 \$1 \, \$2 \$3;
#X obj 425 368 pack 0 0 0;
#X obj 505 245 / 1000;
#X obj 377 278 *;
#X text 544 269 reading location (samples);
#X obj 546 380 / 4;
#X text 574 381 hop size (samples);
#X obj 473 486 sig~;
#X obj 443 485 +~;
#X obj 171 121 *~;
#X obj 171 143 +~;
#X obj 171 167 rsqrt~;
#X obj 225 95 -~;
#X obj 149 200 *~;
#X obj 208 200 *~;
#X obj 31 481 sig~;
#X obj 14 411 t b f;
#X msg 14 432 1;
#X obj 28 455 /;
#X obj 45 77 sig~ 1.5e-20;
#X obj 403 202 * 0.01;
#X floatatom 581 359 0 0 0 0 - - -;
#X obj 579 338 *;
#X obj 678 232 * 0.01;
#X obj 740 276 + 69;
#X obj 741 297 mtof;
#X obj 741 319 / 440;
#X obj 598 315 t b f;
#X floatatom 741 341 0 0 0 0 - - -;
#X obj 147 422 -~;
#X obj 211 432 -~;
#X obj 163 397 *~ 0;
#X obj 227 408 *~ 0;
#X obj 164 291 lrshift~ 1;
#X obj 156 315 lrshift~ -1;
#X obj 228 339 lrshift~ 1;
#X obj 220 363 lrshift~ -1;
#X text 402 166 speed;
#X text 449 166 location;
#X obj 403 181 inlet;
#X obj 450 184 inlet;
#X obj 677 69 inlet;
#X text 241 261 see-location;
#X text 659 54 audio-table;
#X obj 504 182 inlet;
#X text 543 181 transposition;
#X obj 330 261 outlet;
#X obj 602 203 inlet;
#X text 641 202 lock;
#X text 339 628 INLETS: speed location transpose audio-table winsize
overlaps;
#X floatatom 784 233 0 0 0 0 - - -;
#X obj 842 196 inlet;
#X msg 681 206 set \$1;
#X obj 677 86 route float symbol;
#X obj 490 28 r \$0-window-size;
#X obj 515 51 r \$0-sample-rate;
#X obj 626 30 r \$0-overlaps;
#X obj 505 224 r \$0-sample-rate;
#X obj 579 293 r \$0-window-size;
#X obj 627 362 r \$0-overlaps;
#X obj 14 390 r \$0-window-size;
#X obj 759 16 inlet~;
#X obj 449 443 snapshot~;
#X obj 420 466 +~;
#X obj 443 466 +~;
#X obj 804 18 inlet~;
#X obj 748 121 snapshot~;
#X obj 703 284 +;
#X obj 705 254 t b f;
#X obj 886 213 tgl 15 0 empty empty empty 17 7 0 10 -262144 -1 -1 0
1;
#X obj 810 70 env~;
#X floatatom 814 98 5 0 0 0 - - -;
#X obj 680 186 makesymbol s32-%s-%s;
#X obj 797 159 + 1;
#X obj 679 143 1;
#X obj 679 166 pack f f;
#X obj 678 115 t b f;
#X obj 443 511 tabread4~ s32-1-1;
#X obj 425 537 tabread4~ s32-1-1;
#X obj 842 234 switch~ \$1 \$2 1;
#X obj 187 496 tabsend~ \$0-phase_real;
#X obj 288 474 tabsend~ \$0-phase_imag;
#X obj 103 11 tabreceive~ \$0-phase_real;
#X obj 267 10 tabreceive~ \$0-phase_imag;
#X obj 805 309 table \$0-phase_imag 8193;
#X obj 805 290 table \$0-phase_real 8193;
#X obj 527 590 tabreceive~ \$0-hann;
#X obj 873 96 r \$0-samplebank;
#X floatatom 834 166 5 0 0 0 - - -;
#X obj 434 570 *~ 1;
#X obj 468 570 *~ 1;
#X obj 604 462 r \$0-go-bng;
#X obj 707 465 r \$0-1stblock;
#X obj 602 495 spigot;
#X msg 601 527 0;
#X msg 635 527 1;
#X obj 686 494 bang~;
#X obj 679 524 spigot;
#X msg 679 545 1;
#X connect 0 0 2 1;
#X connect 1 0 2 0;
#X connect 2 0 65 0;
#X connect 2 0 69 0;
#X connect 2 0 70 0;
#X connect 3 0 5 1;
#X connect 4 0 5 0;
#X connect 5 0 66 0;
#X connect 5 0 72 0;
#X connect 5 0 71 0;
#X connect 6 0 48 1;
#X connect 7 0 48 0;
#X connect 8 0 10 1;
#X connect 9 0 10 0;
#X connect 10 0 49 1;
#X connect 10 0 45 0;
#X connect 10 0 45 1;
#X connect 11 0 46 1;
#X connect 12 0 22 0;
#X connect 13 0 1 1;
#X connect 13 0 3 1;
#X connect 13 1 0 1;
#X connect 13 1 4 1;
#X connect 14 0 9 1;
#X connect 14 0 7 1;
#X connect 14 1 6 1;
#X connect 14 1 8 1;
#X connect 15 0 14 0;
#X connect 16 0 31 0;
#X connect 16 0 39 0;
#X connect 16 0 82 0;
#X connect 17 0 18 0;
#X connect 17 1 18 1;
#X connect 18 0 28 0;
#X connect 19 0 13 0;
#X connect 20 0 12 0;
#X connect 21 0 20 1;
#X connect 24 0 23 0;
#X connect 26 0 16 0;
#X connect 26 0 98 0;
#X connect 26 0 102 0;
#X connect 27 0 23 0;
#X connect 27 0 99 0;
#X connect 27 0 100 0;
#X connect 28 0 37 2;
#X connect 28 0 32 1;
#X connect 30 0 17 0;
#X connect 31 0 16 1;
#X connect 32 0 31 1;
#X connect 33 0 56 0;
#X connect 34 0 37 1;
#X connect 35 0 37 0;
#X connect 35 1 34 0;
#X connect 36 0 27 0;
#X connect 37 0 36 0;
#X connect 38 0 39 1;
#X connect 39 0 35 0;
#X connect 41 0 43 0;
#X connect 43 0 44 1;
#X connect 44 0 113 0;
#X connect 45 0 46 0;
#X connect 46 0 47 0;
#X connect 47 0 49 0;
#X connect 47 0 50 0;
#X connect 48 0 50 1;
#X connect 48 0 11 0;
#X connect 48 0 11 1;
#X connect 49 0 1 0;
#X connect 49 0 4 0;
#X connect 50 0 0 0;
#X connect 50 0 3 0;
#X connect 51 0 20 0;
#X connect 52 0 53 0;
#X connect 52 1 54 1;
#X connect 53 0 54 0;
#X connect 54 0 51 0;
#X connect 55 0 10 0;
#X connect 56 0 32 0;
#X connect 57 0 41 0;
#X connect 57 0 34 1;
#X connect 58 0 57 0;
#X connect 59 0 104 0;
#X connect 60 0 61 0;
#X connect 61 0 62 0;
#X connect 62 0 63 0;
#X connect 62 0 64 0;
#X connect 63 0 58 0;
#X connect 63 1 58 1;
#X connect 65 0 21 0;
#X connect 65 0 116 0;
#X connect 66 0 21 1;
#X connect 66 0 117 0;
#X connect 67 0 65 1;
#X connect 68 0 66 1;
#X connect 69 0 67 0;
#X connect 70 0 67 0;
#X connect 71 0 68 0;
#X connect 72 0 68 0;
#X connect 75 0 56 0;
#X connect 76 0 33 0;
#X connect 76 0 16 1;
#X connect 77 0 89 0;
#X connect 80 0 86 0;
#X connect 80 0 59 0;
#X connect 83 0 68 1;
#X connect 83 0 67 1;
#X connect 87 0 105 0;
#X connect 87 0 115 0;
#X connect 88 0 113 0;
#X connect 88 0 114 0;
#X connect 89 0 112 0;
#X connect 89 1 88 0;
#X connect 90 0 18 0;
#X connect 91 0 30 0;
#X connect 92 0 30 1;
#X connect 93 0 38 0;
#X connect 94 0 58 0;
#X connect 95 0 41 1;
#X connect 96 0 52 0;
#X connect 97 0 98 0;
#X connect 98 0 99 1;
#X connect 98 0 100 1;
#X connect 99 0 114 0;
#X connect 100 0 44 0;
#X connect 101 0 102 0;
#X connect 101 0 106 0;
#X connect 102 0 103 0;
#X connect 103 0 60 0;
#X connect 104 0 103 0;
#X connect 104 1 103 1;
#X connect 106 0 107 0;
#X connect 108 0 88 0;
#X connect 109 0 124 0;
#X connect 109 0 110 0;
#X connect 110 0 111 0;
#X connect 111 0 108 0;
#X connect 112 0 110 0;
#X connect 112 1 111 1;
#X connect 113 0 126 0;
#X connect 114 0 125 0;
#X connect 118 0 9 0;
#X connect 118 0 6 0;
#X connect 119 0 7 0;
#X connect 119 0 8 0;
#X connect 122 0 19 1;
#X connect 122 0 15 1;
#X connect 122 0 12 1;
#X connect 123 0 109 0;
#X connect 125 0 15 0;
#X connect 126 0 19 0;
#X connect 127 0 129 0;
#X connect 128 0 129 1;
#X connect 129 0 130 0;
#X connect 129 0 131 0;
#X connect 130 0 126 1;
#X connect 130 0 125 1;
#X connect 131 0 133 1;
#X connect 132 0 133 0;
#X connect 133 0 134 0;
#X connect 134 0 126 1;
#X connect 134 0 125 1;
#X restore 469 423 pd fft_resynthesis;
#N canvas 8 73 590 369 modsamp 0;
#X obj 76 46 r \$0-modamp;
#X obj 181 39 r \$0-p_modamp;
#N canvas 0 22 450 300 swmod 0;
#X obj 106 56 inlet~;
#X obj 206 131 switch~;
#X obj 198 61 inlet;
#X obj 115 186 outlet~;
#X connect 0 0 3 0;
#X connect 2 0 1 0;
#X restore 77 109 pd swmod;
#N canvas 0 22 450 300 swmod 0;
#X obj 106 56 inlet~;
#X obj 206 131 switch~;
#X obj 198 61 inlet;
#X obj 115 186 outlet~;
#X connect 0 0 3 0;
#X connect 2 0 1 0;
#X restore 166 100 pd swmod;
#X obj 155 69 inlet~;
#X obj 62 80 inlet~;
#X obj 234 204 t b f;
#X obj 34 161 *~;
#X obj 20 97 inlet~;
#X obj 96 161 *~ 0;
#X msg 254 266 0;
#X msg 214 261 1;
#X obj 51 196 outlet~;
#X obj 280 88 r \$0-timescrub;
#X obj 383 47 r \$0-pitchscrub;
#X obj 234 238 sel 1;
#X obj 692 439;
#N canvas 0 22 450 300 (subpatch) 0;
#X obj 153 94 inlet;
#X msg 152 156 1;
#X obj 144 220 outlet;
#X obj 154 122 sel 0 1;
#X msg 179 156 0;
#X connect 0 0 3 0;
#X connect 1 0 2 0;
#X connect 3 0 1 0;
#X connect 3 1 4 0;
#X connect 4 0 2 0;
#X restore 177 131 pd;
#N canvas 0 22 450 300 (subpatch) 0;
#X obj 153 94 inlet;
#X msg 152 156 1;
#X obj 144 220 outlet;
#X obj 154 122 sel 0 1;
#X msg 179 156 0;
#X connect 0 0 3 0;
#X connect 1 0 2 0;
#X connect 3 0 1 0;
#X connect 3 1 4 0;
#X connect 4 0 2 0;
#X restore 246 137 pd;
#X obj 186 151 ||;
#X obj 221 116 t b f;
#X obj 234 220 &&;
#N canvas 0 22 450 300 (subpatch) 0;
#X obj 153 94 inlet;
#X msg 152 156 1;
#X obj 144 220 outlet;
#X obj 154 122 sel 0 1;
#X msg 179 156 0;
#X connect 0 0 3 0;
#X connect 1 0 2 0;
#X connect 3 0 1 0;
#X connect 3 1 4 0;
#X connect 4 0 2 0;
#X restore 317 135 pd;
#N canvas 0 22 450 300 (subpatch) 0;
#X obj 153 94 inlet;
#X msg 152 156 1;
#X obj 144 220 outlet;
#X obj 154 122 sel 0 1;
#X msg 179 156 0;
#X connect 0 0 3 0;
#X connect 1 0 2 0;
#X connect 3 0 1 0;
#X connect 3 1 4 0;
#X connect 4 0 2 0;
#X restore 386 141 pd;
#X obj 326 155 ||;
#X obj 361 120 t b f;
#X connect 0 0 2 1;
#X connect 0 0 17 0;
#X connect 1 0 3 1;
#X connect 1 0 22 0;
#X connect 2 0 7 1;
#X connect 3 0 7 1;
#X connect 4 0 3 0;
#X connect 5 0 2 0;
#X connect 6 0 21 0;
#X connect 6 1 21 1;
#X connect 7 0 12 0;
#X connect 8 0 7 0;
#X connect 8 0 9 0;
#X connect 9 0 12 0;
#X connect 10 0 9 1;
#X connect 11 0 9 1;
#X connect 13 0 20 0;
#X connect 14 0 25 0;
#X connect 15 0 11 0;
#X connect 15 1 10 0;
#X connect 17 0 19 0;
#X connect 18 0 19 1;
#X connect 19 0 21 0;
#X connect 20 0 19 0;
#X connect 20 1 18 0;
#X connect 21 0 15 0;
#X connect 22 0 24 0;
#X connect 23 0 24 1;
#X connect 24 0 6 0;
#X connect 25 0 24 0;
#X connect 25 1 23 0;
#X restore 469 484 pd modsamp;
#X obj 479 184 s \$0-modamp-set;
#X obj 584 189 s \$0-p_modamp-set;
#X obj 934 284 r \$0-gorandall;
#X obj 964 332 s \$0-transpose_random-bng;
#X obj 938 311 t b b;
#X obj 812 161 s \$0-level-set;
#X obj 131 226 inlet;
#X obj 428 316 s \$0-go-bng;
#X obj 473 298 s \$0-gorand-bng;
#X obj 571 313 s \$0-gorandall-bng;
#X obj 969 102 s \$0-a_times-set;
#X obj 967 118 s \$0-p_a_times-set;
#X floatatom 328 359 5 0 0 0 - - -;
#X obj 228 330 t b f;
#X obj 784 353 r \$0-on;
#X obj 959 522 s \$0-on-set;
#X obj 194 293 r \$0-start_time;
#X obj 191 312 / 100;
#X obj 213 354 r \$0-end_time;
#X obj 123 361 / 100;
#X text 135 210 go;
#X text 274 237 scratch;
#X msg 288 489 1 10;
#X text 399 233 speed;
#X obj 754 47 r \$0-freeze_time;
#X obj 290 334 / 50;
#N canvas 81 98 891 684 patches 0;
#X obj 24 140 f;
#X obj 22 199 prepend add;
#X obj 19 232 t b a;
#X obj 91 319 msgfile;
#X obj 356 382 spigot;
#X msg 400 381 0;
#X msg 401 364 1;
#X msg 172 289 add patches 0;
#X obj 169 251 loadbang;
#X obj 76 436 route patches;
#X msg 106 238 goto 0;
#X obj 34 297 + 1;
#X obj 18 314 f;
#X msg 18 367 replace patches \$1;
#X msg 69 288 this;
#X obj 18 262 t b b b;
#X msg 573 327 range 1 \$1;
#X obj 391 220 t b f;
#X msg 406 244 goto \$1;
#X msg 371 243 this;
#X obj 453 251 r \$0-patches_load;
#X obj 453 268 openpanel;
#X msg 527 302 read \$1;
#X msg 483 302 goto 0;
#X msg 453 302 this;
#X obj 633 181 r \$0-patches_save;
#X obj 633 209 savepanel;
#X obj 632 238 makesymbol %s.txt;
#X msg 628 262 write \$1;
#X obj 80 406 route list;
#X obj 419 167 r \$0-patches_clear;
#X obj 324 200 t b b;
#X msg 359 278 clear;
#X obj 453 285 t b b a b;
#X obj 21 97 r \$0-store_patch;
#X obj 196 41 r \$0-a_time;
#X obj 147 77 r \$0-d_time;
#X obj 141 118 r \$0-level;
#X obj 38 116 r \$0-start_time;
#X obj 76 140 r \$0-time-num;
#X obj 241 108 r \$0-tab;
#X obj 121 97 r \$0-end_time;
#X obj 218 84 r \$0-transpose-num;
#X obj 293 25 r \$0-tv_fst;
#X obj 301 47 r \$0-tv_fend;
#X obj 311 64 r \$0-tv_ast;
#X obj 331 88 r \$0-tv_aend;
#X obj 335 108 r \$0-a_times;
#X obj 419 23 r \$0-pv_fst;
#X obj 423 40 r \$0-pv_fend;
#X obj 431 57 r \$0-pv_ast;
#X obj 435 74 r \$0-pv_aend;
#X obj 452 138 r \$0-p_a_times;
#X obj 516 27 r \$0-modamp;
#X obj 522 44 r \$0-p_modamp;
#X obj 532 61 r \$0-timescrub;
#X obj 537 78 r \$0-pitchscrub;
#X obj 10 585 s \$0-start_time-set;
#X obj 74 562 s \$0-end_time-set;
#X obj 48 609 s \$0-time-set;
#X obj 128 584 s \$0-level-set;
#X obj 168 510 s \$0-a_time-set;
#X obj 186 528 s \$0-d_time-set;
#X obj 190 553 s \$0-transpose-set;
#X obj 213 577 s \$0-tab-set;
#X obj 265 494 s \$0-tv_fst-set;
#X obj 273 516 s \$0-tv_fend-set;
#X obj 307 533 s \$0-tv_ast-set;
#X obj 304 549 s \$0-tv_aend-set;
#X obj 331 563 s \$0-a_times-set;
#X obj 414 505 s \$0-pv_fst-set;
#X obj 418 522 s \$0-pv_fend-set;
#X obj 426 539 s \$0-pv_ast-set;
#X obj 435 559 s \$0-pv_aend-set;
#X obj 441 576 s \$0-p_a_times-set;
#X obj 537 563 s \$0-pitchscrub-set;
#X obj 532 546 s \$0-timescrub-set;
#X obj 535 517 s \$0-p_modamp-set;
#X obj 539 501 s \$0-modamp-set;
#X obj 573 344 s \$0-fftsyn_patch-set;
#X obj 812 212 inlet;
#X obj 784 522 outlet;
#X obj 29 168 pack f f f f f f f f f f f f f f f f f f f f f f f f
;
#X obj 576 126 r \$0-samplebank;
#X obj 100 465 unpack f f f f f f f f f f f f f f f f f f f f f f f
f;
#X obj 532 471 s \$0-samplebank-set;
#X obj 698 308 route patch file randpat;
#X obj 702 435 random;
#X obj 546 223 symbol;
#X obj 393 197 r \$0-patch-num;
#X obj 354 414 s \$0-patches-num;
#X obj 564 96 r \$0-decay;
#X obj 634 602 s \$0-decay-set;
#X connect 0 0 82 0;
#X connect 1 0 2 0;
#X connect 2 0 15 0;
#X connect 2 1 3 0;
#X connect 3 0 29 0;
#X connect 4 0 5 0;
#X connect 4 0 16 0;
#X connect 4 0 87 1;
#X connect 4 0 90 0;
#X connect 5 0 4 1;
#X connect 6 0 4 1;
#X connect 7 0 3 0;
#X connect 8 0 7 0;
#X connect 9 0 11 0;
#X connect 9 0 4 0;
#X connect 9 1 84 0;
#X connect 10 0 3 0;
#X connect 11 0 12 1;
#X connect 12 0 13 0;
#X connect 12 0 16 0;
#X connect 12 0 87 1;
#X connect 12 0 90 0;
#X connect 13 0 3 0;
#X connect 14 0 3 0;
#X connect 15 0 12 0;
#X connect 15 1 14 0;
#X connect 15 2 10 0;
#X connect 16 0 79 0;
#X connect 17 0 19 0;
#X connect 17 1 18 0;
#X connect 18 0 3 0;
#X connect 19 0 3 0;
#X connect 20 0 21 0;
#X connect 21 0 33 0;
#X connect 21 0 81 0;
#X connect 22 0 3 0;
#X connect 23 0 3 0;
#X connect 24 0 3 0;
#X connect 25 0 26 0;
#X connect 26 0 27 0;
#X connect 27 0 28 0;
#X connect 27 0 81 0;
#X connect 28 0 3 0;
#X connect 29 0 9 0;
#X connect 30 0 31 0;
#X connect 31 0 7 0;
#X connect 31 1 32 0;
#X connect 32 0 3 0;
#X connect 33 0 24 0;
#X connect 33 1 23 0;
#X connect 33 1 6 0;
#X connect 33 2 22 0;
#X connect 33 3 32 0;
#X connect 34 0 0 0;
#X connect 35 0 82 4;
#X connect 36 0 82 5;
#X connect 37 0 82 3;
#X connect 38 0 0 1;
#X connect 39 0 82 2;
#X connect 40 0 82 7;
#X connect 41 0 82 1;
#X connect 42 0 82 6;
#X connect 43 0 82 8;
#X connect 44 0 82 9;
#X connect 45 0 82 10;
#X connect 46 0 82 11;
#X connect 47 0 82 12;
#X connect 48 0 82 13;
#X connect 49 0 82 14;
#X connect 50 0 82 15;
#X connect 51 0 82 16;
#X connect 52 0 82 17;
#X connect 53 0 82 18;
#X connect 54 0 82 19;
#X connect 55 0 82 20;
#X connect 56 0 82 21;
#X connect 80 0 86 0;
#X connect 82 0 1 0;
#X connect 83 0 82 23;
#X connect 84 0 57 0;
#X connect 84 1 58 0;
#X connect 84 2 59 0;
#X connect 84 3 60 0;
#X connect 84 4 61 0;
#X connect 84 5 62 0;
#X connect 84 6 63 0;
#X connect 84 7 64 0;
#X connect 84 8 65 0;
#X connect 84 9 66 0;
#X connect 84 10 67 0;
#X connect 84 11 68 0;
#X connect 84 12 69 0;
#X connect 84 13 70 0;
#X connect 84 14 71 0;
#X connect 84 15 72 0;
#X connect 84 16 73 0;
#X connect 84 17 74 0;
#X connect 84 18 78 0;
#X connect 84 19 77 0;
#X connect 84 20 76 0;
#X connect 84 21 75 0;
#X connect 84 22 92 0;
#X connect 84 23 85 0;
#X connect 86 0 79 0;
#X connect 86 1 88 0;
#X connect 86 2 87 0;
#X connect 87 0 79 0;
#X connect 88 0 33 0;
#X connect 89 0 17 0;
#X connect 91 0 82 22;
#X restore 882 536 pd patches;
#X obj 1127 149 cnv 15 35 154 empty empty empty 20 12 0 14 -147446
-66577 0;
#X obj 1131 164 nbx 3 10 0 120 0 0 \$0-arghes-dummy \$0-samaerh empty
-8 -6 0 7 -257472 -1109 -90133 0 256;
#X obj 1131 189 nbx 3 10 1 3 0 0 \$0-fftsyn_patch-num \$0-fftsyn_patch-set
select -2 -6 0 7 -257472 -258699 -90133 1 256;
#X obj 1139 213 bng 10 250 50 0 \$0-store_patch \$0-store_patch-bng
store -7 -5 0 7 -257472 -62784 -90133;
#X obj 1138 264 bng 10 250 50 0 \$0-patches_load \$0-patches_load-bng
load -5 -5 0 7 -257472 -42246 -90133;
#X obj 1138 289 bng 10 250 50 0 \$0-patches_save \$0-patches_save-bng
save -5 -5 0 7 -257472 -90133 -90133;
#X obj 1139 230 bng 10 250 50 0 \$0-patches_clear \$0-patches_clear-bng
clear -6 15 0 6 -257472 -62784 -90133;
#X obj 1131 164 nbx 3 10 0 120 0 0 \$0-fftsyn_patches-dummy \$0-fftsyn_patches-num
patches -4 -6 0 7 -257472 -1109 -90133 0 256;
#X obj 205 383 r \$0-transpose-num;
#N canvas 5 48 863 340 automation 0;
#X obj 72 244 s \$0-start_time-set;
#X obj 136 221 s \$0-end_time-set;
#X obj 110 268 s \$0-time-set;
#X obj 190 243 s \$0-level-set;
#X obj 230 169 s \$0-a_time-set;
#X obj 248 187 s \$0-d_time-set;
#X obj 252 212 s \$0-transpose-set;
#X obj 275 236 s \$0-tab-set;
#X obj 327 153 s \$0-tv_fst-set;
#X obj 335 175 s \$0-tv_fend-set;
#X obj 369 192 s \$0-tv_ast-set;
#X obj 366 208 s \$0-tv_aend-set;
#X obj 393 222 s \$0-a_times-set;
#X obj 476 164 s \$0-pv_fst-set;
#X obj 480 181 s \$0-pv_fend-set;
#X obj 488 198 s \$0-pv_ast-set;
#X obj 497 218 s \$0-pv_aend-set;
#X obj 503 235 s \$0-p_a_times-set;
#X obj 599 222 s \$0-pitchscrub-set;
#X obj 594 205 s \$0-timescrub-set;
#X obj 597 176 s \$0-p_modamp-set;
#X obj 601 160 s \$0-modamp-set;
#X obj 41 131 s \$0-scratch;
#X obj 85 108 s \$0-speed;
#X obj 81 5 inlet;
#X obj 83 30 route scratch speed start time end level a d trans tab
t-fst t-fend t-ast t-aend t-amult p-fst p-fend p-ast p-aend p-amult
t-am p-am t-scrub p-scrub decay;
#X obj 522 101 s \$0-decay-set;
#X connect 24 0 25 0;
#X connect 25 0 22 0;
#X connect 25 1 23 0;
#X connect 25 2 0 0;
#X connect 25 3 2 0;
#X connect 25 4 1 0;
#X connect 25 5 3 0;
#X connect 25 6 4 0;
#X connect 25 7 5 0;
#X connect 25 8 6 0;
#X connect 25 9 7 0;
#X connect 25 10 8 0;
#X connect 25 11 9 0;
#X connect 25 12 10 0;
#X connect 25 13 11 0;
#X connect 25 14 12 0;
#X connect 25 15 13 0;
#X connect 25 16 14 0;
#X connect 25 17 15 0;
#X connect 25 18 16 0;
#X connect 25 19 17 0;
#X connect 25 20 21 0;
#X connect 25 21 20 0;
#X connect 25 22 19 0;
#X connect 25 23 18 0;
#X connect 25 24 26 0;
#X restore 752 460 pd automation;
#X obj 279 252 r \$0-scratch;
#X obj 396 248 r \$0-speed;
#X obj 751 439 inlet;
#X obj 907 564 outlet;
#X obj 290 314 tabread sizes-32-1;
#X obj 598 582 r \$0-pinch;
#N canvas 3 50 454 304 bank 0;
#X obj 142 54 r \$0-samplebank;
#X obj 139 82 + 1;
#X obj 137 120 makefilename sizes-32-%d;
#X msg 134 148 set \$1;
#X obj 134 179 outlet;
#X connect 0 0 1 0;
#X connect 1 0 2 0;
#X connect 2 0 3 0;
#X connect 3 0 4 0;
#X restore 290 291 pd bank;
#X obj 527 565 \$1;
#X obj 697 523 \$2;
#X obj 575 508 unpack f f;
#X obj 803 516 t b a;
#X obj 770 488 route on fft;
#X text 405 638 .....;
#X text 431 664 shrimp;
#X text 469 699 curry;
#X text 42 573 PORKPORKPORKPORKPORKPORKPORKPORKPORKPORKPORKPORKPORKPORKPORKPORKPORKBEEFBEEFBEEFBEEFBEEFBEEFBEEFBEEFSHEBEEFAFISHFISHFISHFISHFISHFISHDISHWISHFISHTISHFISHPISHBISHLISHFISHFISHFISHFISHFISHFISHFISHFISHFISHFISHFISHFISHFISHFISHFISHFISHFISHBASHFISHSTEWSTEWSTEWSTEWSTEWSTEWSTEWSTEWSTEWSTEWSTEWSTEWSTEWSTEWSTEWSTEWSTEWSTEWSTEWSTEWSTEWSTEWCOLDSTEWCOLDSTEWPIEPIEPiPIEPIEPiPUDDRINKSFIGHTSSNACKSTINSKINDRUMFISHFISHFISHFISHFISHFISHFISH
;
#X text 554 665 to stream? or not to stream?;
#X obj 806 581 nbx 5 8 1 19999 0 0 \$0-a_time \$0-a_time-set ad_time
0 -6 0 8 -2625 -355 -355 1 256;
#X obj 806 589 nbx 5 8 1 19999 0 0 \$0-d_time \$0-d_time-set empty
0 -6 0 8 -2625 -355 -355 1 256;
#X obj 854 582 vsl 10 107 0 106 0 0 \$0-level \$0-level-set empty 0
-9 0 10 -80724 -42246 -42246 10000 1;
#X obj 878 587 tgl 15 0 \$0-pinch \$0-pinch-set pinch -3 -6 0 8 -24198
-262131 -42246 0 1;
#X obj 141 23 cnv 15 230 172 empty \$0-mycanvas empty 37 8 0 10 -225271
-42246 0;
#X obj 29 180 hsl 240 12 20 60000 1 0 \$0-time \$0-time-set time 110
6 0 8 -34633 -262131 -262131 16482 0;
#X obj 29 145 hsl 240 12 0 100 0 0 \$0-start_time \$0-start_time-set
start 102 6 1 10 -92759 -225271 -355 0 0;
#X obj 29 165 hsl 240 12 0 100 0 0 \$0-end_time \$0-end_time-set end
110 6 1 10 -92759 -225271 -355 23900 0;
#X obj 274 157 bng 15 100 50 0 \$0-random_times \$0-random_times-bng
random 18 8 0 8 -92759 -262131 -42246;
#X obj 271 180 nbx 5 12 10 99999 1 0 \$0-time-num \$0-time empty 0
-8 0 8 -262131 -34633 -42246 5000 256;
#X obj 26 41 cnv 15 150 86 empty empty timescratch~ 25 6 0 10 -155623
-18242 0;
#X obj 28 64 nbx 4 8 0.01 1000 1 0 \$0-tv_fst \$0-tv_fst-slid empty
0 -8 0 8 -63248 -262131 -42246 0.01 256;
#X obj 99 68 nbx 4 8 0.01 1000 1 0 \$0-tv_fend \$0-tv_fend-slid empty
0 -8 0 8 -63248 -262131 -42246 0.01 256;
#X obj 31 54 hsl 101 10 0.01 1000 1 0 \$0-tv_fst-slid \$0-tv_fst-set
f-start 28 6 1 8 -59151 -262131 -262131 0 0;
#X obj 31 76 hsl 101 10 0.01 1000 1 0 \$0-tv_fend-slid \$0-tv_fend-set
f-end 34 6 0 8 -59151 -262131 -262131 0 0;
#X obj 63 66 nbx 4 8 0.01 1000 1 0 \$0-tv_fall empty empty 0 -8 0 8
-63248 -262131 -42246 0.01 256;
#X obj 28 101 nbx 4 8 0.01 100 1 0 \$0-tv_ast \$0-tv_ast-slid empty
0 -8 0 8 -63248 -262131 -42246 0.01 256;
#X obj 99 105 nbx 4 8 0.01 100 1 0 \$0-tv_aend \$0-tv_aend-slid empty
0 -8 0 8 -63248 -262131 -42246 0.01 256;
#X obj 31 91 hsl 101 10 0.01 100 1 0 \$0-tv_ast-slid \$0-tv_ast-set
a-start 28 6 0 8 -59151 -262131 -262131 0 0;
#X obj 31 113 hsl 101 10 0.01 100 1 0 \$0-tv_aend-slid \$0-tv_aend-set
a-end 34 6 0 8 -59151 -262131 -262131 0 0;
#X obj 63 103 nbx 4 8 0.01 100 1 0 \$0-tv_aall empty empty 0 -8 0 8
-63248 -262131 -42246 0.01 256;
#X obj 137 54 tgl 16 0 \$0-timescrub \$0-timescrub-set do 1 8 0 8 -59151
-262131 -262131 0 1;
#X obj 315 180 bng 12 100 50 0 \$0-time_random \$0-time_random-bng
rnd -1 -6 0 7 -262131 -34633 -42246;
#X obj 137 74 vradio 12 1 0 3 \$0-a_times \$0-a_times-set X 15 31 0
12 -59151 -262131 -42246 0;
#X obj 137 113 nbx 4 10 -1e+37 1e+37 0 0 \$0-dummi \$0-times-num empty
0 -8 0 8 -59151 -262131 -42246 1 256;
#X obj 157 54 tgl 16 0 \$0-modamp \$0-modamp-set amp 1 8 0 8 -59151
-262131 -262131 0 1;
#X obj 222 25 nbx 2 12 1 32 0 0 \$0-tab \$0-tab-set tab 29 6 1 10 -83989
-196481 -1109 1 256;
#X obj 272 25 bng 12 100 50 0 \$0-go \$0-go-bng go 15 6 1 10 -83989
-196481 -42246;
#X obj 99 -1 bng 15 100 50 0 \$0-gorand \$0-gorand-bng gorand 18 11
0 8 -83989 -196481 -42246;
#X obj 352 141 tgl 12 0 \$0-lock \$0-lock-set lock -3 -6 0 8 -43339
-258035 -42246 0 1;
#X obj 180 41 cnv 15 150 86 empty empty pitchscratch~ 20 6 0 10 -155623
-18242 0;
#X obj 182 64 nbx 4 8 0.01 1000 1 0 \$0-pv_fst \$0-pv_fst-slid empty
0 -8 0 8 -63248 -262131 -42246 0.01 256;
#X obj 253 68 nbx 4 8 0.01 1000 1 0 \$0-pv_fend \$0-pv_fend-slid empty
0 -8 0 8 -63248 -262131 -42246 0.01 256;
#X obj 185 54 hsl 101 10 0.01 1000 1 0 \$0-pv_fst-slid \$0-pv_fst-set
f-start 28 6 0 8 -59151 -262131 -262131 0 0;
#X obj 185 76 hsl 101 10 0.01 1000 1 0 \$0-pv_fend-slid \$0-pv_fend-set
f-end 34 6 0 8 -59151 -262131 -262131 0 0;
#X obj 217 66 nbx 4 8 0.01 1000 1 0 \$0-pv_fall empty empty 0 -8 0
8 -63248 -262131 -42246 0.01 256;
#X obj 182 101 nbx 4 8 0.01 100 1 0 \$0-pv_ast \$0-pv_ast-slid empty
0 -8 0 8 -63248 -262131 -42246 0.01 256;
#X obj 253 105 nbx 4 8 0.01 100 1 0 \$0-pv_aend \$0-pv_aend-slid empty
0 -8 0 8 -63248 -262131 -42246 0.01 256;
#X obj 185 91 hsl 101 10 0.01 100 1 0 \$0-pv_ast-slid \$0-pv_ast-set
a-start 28 6 0 8 -59151 -262131 -262131 0 0;
#X obj 185 113 hsl 101 10 0.01 100 1 0 \$0-pv_aend-slid \$0-pv_aend-set
a-end 34 6 0 8 -59151 -262131 -262131 0 0;
#X obj 217 103 nbx 4 8 0.01 100 1 0 \$0-pv_aall empty empty 0 -8 0
8 -63248 -262131 -42246 0.01 256;
#X obj 291 54 tgl 16 0 \$0-pitchscrub \$0-pitchscrub-set do 1 8 0 8
-59151 -262131 -262131 0 1;
#X obj 291 74 vradio 12 1 0 3 \$0-p_a_times \$0-p_a_times-set X 15
31 0 12 -59151 -262131 -42246 0;
#X obj 291 113 nbx 4 10 -1e+37 1e+37 0 0 \$0-dummi \$0-p_times-num
empty 0 -8 0 8 -59151 -262131 -42246 1 256;
#X obj 311 54 tgl 16 0 \$0-p_modamp \$0-p_modamp-set amp 1 8 0 8 -59151
-262131 -262131 0 1;
#X obj 29 130 hsl 225 12 -112 112 0 0 \$0-transpose \$0-transpose-set
transpose 60 6 0 8 -34633 -262131 -262131 11200 0;
#X obj 256 130 nbx 4 12 -128 128 0 0 \$0-transpose-num \$0-transpose
empty 0 -8 0 8 -262131 -34633 -42246 0 256;
#X obj 297 130 bng 12 100 50 0 \$0-transpose_random \$0-transpose_random-bng
empty 15 6 0 7 -262131 -34633 -42246;
#X obj 309 130 nbx 4 12 0.001 1 1 0 \$0-transpose_extent \$0-transpose_extent-set
p-random -14 18 0 8 -262131 -34633 -42246 1 256;
#X obj 151 -1 bng 15 100 50 0 \$0-gorandall \$0-gorandall-bng gorand+p
18 11 0 8 -83989 -196481 -42246;
#X obj 303 24 tgl 15 0 \$0-on \$0-on-set on 1 7 1 10 -191407 -143491
-143491 0 1;
#X obj 29 157 hsl 240 8 0 100 0 0 \$0-freeze_time \$0-freeze_time-set
freeze 100 5 1 8 -92759 -225271 -355 0 0;
#X obj 171 25 hradio 12 1 0 4 \$0-samplebank \$0-samplebank-set bank
-25 6 1 10 -83989 -262130 -1 0;
#X obj 334 23 cnv 15 34 104 empty empty empty 20 12 0 14 -183672 -66577
0;
#X obj 337 33 nbx 3 12 0 120 0 0 empty empty empty -2 -6 0 7 -257472
-1109 -90133 0 256;
#X obj 337 57 nbx 3 12 1 12 0 0 \$0-patch-num \$0-patch-set select
0 -5 0 7 -17235 -261234 -17235 1 256;
#X obj 344 91 bng 12 250 50 0 \$0-store_patch \$0-store_patch-bng store
-3 -5 0 7 -17235 -262130 -17235;
#X obj 336 115 bng 10 250 50 0 \$0-patches_load \$0-patches_load-bng
load -1 -5 0 7 -2498 -262144 -13381;
#X obj 355 107 bng 10 250 50 0 \$0-patches_save \$0-patches_save-bng
save -4 16 0 7 -159809 -262144 -86277;
#X obj 337 33 nbx 3 12 0 120 0 0 \$0-patches-dummy \$0-patches-num
patches 0 -5 0 7 -17235 -203904 -17235 0 256;
#X obj 357 72 bng 8 250 50 0 \$0-store_plus \$0-store_plus-bng + -7
4 0 10 -17235 -198336 -17235;
#X obj 337 72 bng 8 250 50 0 \$0-store_minus \$0-store_minus-bng -
8 3 0 10 -17235 -257985 -17235;
#X obj 689 447 line~;
#X obj 464 12 tgl 12 0 \$0-1stblock \$0-1stblock-set 1st -1 -6 0 8
-24198 -262131 -42246 0 1;
#X msg 700 403 1 5;
#X text 454 616 <-----------this used to contain information \, now
housed in help-resynth~;
#X obj 99 277 t b f;
#X obj 43 303 s \$0-transpose;
#X obj 133 251 route bang rand stop;
#X obj 460 275 sel 1 2 3;
#X obj 671 371 r \$0-go;
#X obj 721 372 r \$0-gorand;
#X obj 741 392 r \$0-gorandall;
#X obj 333 168 nbx 3 12 10 999 0 0 \$0-decay \$0-decay-set decay 0
-6 1 10 -34633 -262130 -34633 10 256;
#X obj 565 235 f;
#X obj 582 214 r \$0-decay;
#X msg 588 259 0 \$1;
#X obj 707 293 del 10;
#X obj 22 365 t b f;
#X obj 40 407 f;
#X obj 527 14 declare -lib zexy -lib iemlib;
#X connect 1 0 3 1;
#X connect 1 0 87 1;
#X connect 2 0 88 0;
#X connect 3 0 1 0;
#X connect 3 1 0 0;
#X connect 4 0 87 3;
#X connect 5 0 4 0;
#X connect 6 0 4 0;
#X connect 8 0 24 0;
#X connect 9 0 8 0;
#X connect 10 0 5 0;
#X connect 10 1 6 0;
#X connect 16 0 9 0;
#X connect 17 0 87 2;
#X connect 19 0 28 0;
#X connect 19 0 133 0;
#X connect 19 0 134 0;
#X connect 21 0 2 0;
#X connect 24 0 1 0;
#X connect 25 0 24 0;
#X connect 25 0 111 0;
#X connect 25 1 24 1;
#X connect 28 0 29 0;
#X connect 31 0 32 0;
#X connect 31 0 33 0;
#X connect 31 0 81 0;
#X connect 31 0 84 0;
#X connect 32 0 34 0;
#X connect 32 0 74 0;
#X connect 32 0 90 0;
#X connect 32 0 89 0;
#X connect 32 0 99 0;
#X connect 32 0 100 0;
#X connect 33 0 35 0;
#X connect 33 0 94 0;
#X connect 36 0 44 1;
#X connect 37 0 16 1;
#X connect 38 0 39 0;
#X connect 38 0 40 0;
#X connect 39 0 42 0;
#X connect 40 0 41 0;
#X connect 41 0 35 0;
#X connect 42 0 34 0;
#X connect 43 0 9 1;
#X connect 44 0 221 0;
#X connect 45 0 44 0;
#X connect 46 0 47 0;
#X connect 46 0 48 0;
#X connect 50 0 51 0;
#X connect 51 0 52 0;
#X connect 52 0 49 0;
#X connect 53 0 58 0;
#X connect 54 0 55 0;
#X connect 54 0 56 0;
#X connect 58 0 88 1;
#X connect 58 1 87 5;
#X connect 59 0 10 0;
#X connect 60 0 87 4;
#X connect 60 0 130 0;
#X connect 61 0 62 0;
#X connect 61 0 63 0;
#X connect 64 0 65 0;
#X connect 64 0 66 0;
#X connect 67 0 88 2;
#X connect 67 1 87 6;
#X connect 68 0 69 0;
#X connect 69 0 72 0;
#X connect 69 1 70 0;
#X connect 69 1 71 0;
#X connect 73 0 70 0;
#X connect 73 0 71 0;
#X connect 75 0 76 0;
#X connect 76 0 77 0;
#X connect 77 0 79 0;
#X connect 79 0 78 0;
#X connect 80 0 79 1;
#X connect 81 0 82 0;
#X connect 84 0 83 0;
#X connect 85 0 67 0;
#X connect 86 0 17 0;
#X connect 87 0 21 0;
#X connect 87 1 3 0;
#X connect 88 0 7 0;
#X connect 91 0 93 0;
#X connect 93 0 69 0;
#X connect 93 1 92 0;
#X connect 95 0 211 0;
#X connect 102 0 36 0;
#X connect 102 0 37 0;
#X connect 102 1 36 1;
#X connect 102 1 37 1;
#X connect 103 0 87 7;
#X connect 103 0 19 0;
#X connect 105 0 106 0;
#X connect 106 0 36 0;
#X connect 107 0 108 0;
#X connect 108 0 37 0;
#X connect 111 0 205 0;
#X connect 113 0 34 0;
#X connect 113 0 35 0;
#X connect 114 0 101 0;
#X connect 114 0 102 0;
#X connect 115 0 129 0;
#X connect 124 0 86 0;
#X connect 126 0 25 0;
#X connect 127 0 0 0;
#X connect 127 0 3 2;
#X connect 127 0 87 0;
#X connect 128 0 125 0;
#X connect 128 0 137 0;
#X connect 130 0 57 0;
#X connect 130 0 114 0;
#X connect 132 0 130 0;
#X connect 133 0 20 0;
#X connect 133 0 27 0;
#X connect 134 0 26 0;
#X connect 135 0 133 0;
#X connect 135 1 134 0;
#X connect 136 0 133 0;
#X connect 136 1 135 0;
#X connect 136 1 87 7;
#X connect 137 0 104 0;
#X connect 137 1 136 0;
#X connect 137 2 115 0;
#X connect 205 0 2 1;
#X connect 207 0 205 0;
#X connect 209 0 96 0;
#X connect 209 1 210 0;
#X connect 211 0 96 0;
#X connect 211 1 212 0;
#X connect 211 2 217 0;
#X connect 211 2 220 0;
#X connect 211 3 209 0;
#X connect 212 0 96 0;
#X connect 212 1 97 0;
#X connect 212 2 98 0;
#X connect 213 0 207 0;
#X connect 214 0 207 0;
#X connect 215 0 207 0;
#X connect 217 0 219 0;
#X connect 218 0 217 1;
#X connect 218 0 220 1;
#X connect 219 0 205 0;
#X connect 220 0 222 0;
#X connect 221 0 16 0;
#X connect 221 1 8 0;
#X connect 221 1 222 1;
#X connect 222 0 8 0;
#X coords 0 -1 1 1 352 178 1 20 20;
