#N canvas 9 65 671 848 10;
#X obj 139 70 inlet;
#X obj 261 183 cnv 15 116 300 empty empty rhythm_element 4 8 0 14 -159093
-22171 0;
#X obj 284 238 vradio 12 1 0 16 \$0-num \$0-num-set empty -1 -5 0 10
-204337 -66893 -13381 0;
#X obj 303 242 vradio 12 1 0 16 \$0-div \$0-div-set empty -4 199 0
10 -199801 -50198 -16662 9;
#X obj 284 434 nbx 3 12 1 99 0 0 \$0-div-real-num \$0-div-real basediv
0 20 0 11 -199801 -50198 -50198 5 256;
#X obj 284 226 nbx 2 12 1 99 0 0 \$0-num-real-pipe \$0-num-real basedur
0 -6 0 11 -204337 -66893 -66893 1 256;
#X obj 266 216 vsl 12 247 24 270 0 0 \$0-tempo \$0-tempo-set tempo
-2 -9 0 12 -208875 -42246 -513 8800 0;
#X obj 266 466 nbx 6 12 1 999 1 0 \$0-tempo-disp \$0-tempo empty 0
-6 0 9 -204780 -42246 -42246 112 256;
#N canvas 14 75 904 383 add-div 0;
#X obj 383 -39 + 1;
#X obj 385 -15 s \$0-num-real;
#X msg 56 -13 1;
#X msg 73 -30 2;
#X msg 90 -47 4;
#X msg 107 -64 8;
#X obj 55 10 s \$0-div-real;
#X msg 295 -31 4.5;
#X msg 312 -14 9;
#X msg 124 -14 1.5;
#X msg 141 -31 3;
#X msg 158 -48 6;
#X msg 175 -14 12;
#X msg 192 -31 2.5;
#X msg 209 -14 5;
#X msg 226 -31 10;
#X msg 243 -14 3.5;
#X msg 261 -31 7;
#X msg 278 -14 14;
#X obj 56 -89 sel 0 1 2 3 4 5 6 7 8 9 10 11 12 13 14 15;
#X obj 340 37 + 1;
#X obj 340 17 r \$0-low;
#X obj 340 57 s \$0-low-real;
#X obj 441 37 + 1;
#X obj 441 57 s \$0-high-real;
#X obj 441 17 r \$0-high;
#X obj 71 -122 r \$0-div;
#X obj 383 -62 r \$0-num;
#X obj 43 190 s \$0-low-set;
#X obj 75 168 s \$0-high-set;
#X msg 43 168 0;
#X msg 75 146 3;
#X obj 180 190 s \$0-div-set;
#X msg 212 146 0;
#X obj 212 168 s \$0-num-set;
#X obj 312 175 s \$0-tempo-set;
#X msg 314 147 112;
#X msg 180 168 2;
#X obj 115 59 t b b b;
#X obj 115 39 loadbang;
#X obj 609 -56 r \$0-low;
#X obj 710 -56 r \$0-high;
#X obj 633 27 >;
#X obj 631 88 f;
#X obj 609 -1 t b f f;
#X obj 608 -22 spigot 1;
#X obj 631 110 s \$0-high-set;
#X obj 629 55 sel 1;
#X obj 715 -20 spigot 1;
#X msg 672 -21 0;
#X msg 672 1 1;
#X msg 781 -20 0;
#X msg 781 2 1;
#X obj 739 97 f;
#X obj 717 8 t b f f;
#X obj 737 64 sel 1;
#X obj 741 36 <;
#X obj 739 119 s \$0-low-set;
#X obj 428 178 s \$0-pause-set;
#X msg 424 155 8;
#X connect 0 0 1 0;
#X connect 2 0 6 0;
#X connect 3 0 6 0;
#X connect 4 0 6 0;
#X connect 5 0 6 0;
#X connect 7 0 6 0;
#X connect 8 0 6 0;
#X connect 9 0 6 0;
#X connect 10 0 6 0;
#X connect 11 0 6 0;
#X connect 12 0 6 0;
#X connect 13 0 6 0;
#X connect 14 0 6 0;
#X connect 15 0 6 0;
#X connect 16 0 6 0;
#X connect 17 0 6 0;
#X connect 18 0 6 0;
#X connect 19 0 2 0;
#X connect 19 1 3 0;
#X connect 19 2 4 0;
#X connect 19 3 5 0;
#X connect 19 4 9 0;
#X connect 19 5 10 0;
#X connect 19 6 11 0;
#X connect 19 7 12 0;
#X connect 19 8 13 0;
#X connect 19 9 14 0;
#X connect 19 10 15 0;
#X connect 19 11 16 0;
#X connect 19 12 17 0;
#X connect 19 13 18 0;
#X connect 19 14 7 0;
#X connect 19 15 8 0;
#X connect 20 0 22 0;
#X connect 21 0 20 0;
#X connect 23 0 24 0;
#X connect 25 0 23 0;
#X connect 26 0 19 0;
#X connect 27 0 0 0;
#X connect 30 0 28 0;
#X connect 31 0 29 0;
#X connect 33 0 34 0;
#X connect 36 0 35 0;
#X connect 37 0 32 0;
#X connect 38 0 36 0;
#X connect 38 1 33 0;
#X connect 38 1 37 0;
#X connect 38 1 30 0;
#X connect 38 2 31 0;
#X connect 38 2 59 0;
#X connect 39 0 38 0;
#X connect 40 0 45 0;
#X connect 40 0 56 1;
#X connect 41 0 42 1;
#X connect 41 0 48 0;
#X connect 42 0 47 0;
#X connect 43 0 46 0;
#X connect 44 0 52 0;
#X connect 44 1 42 0;
#X connect 44 2 43 1;
#X connect 44 2 51 0;
#X connect 45 0 44 0;
#X connect 47 0 43 0;
#X connect 48 0 54 0;
#X connect 49 0 45 1;
#X connect 50 0 45 1;
#X connect 51 0 48 1;
#X connect 52 0 48 1;
#X connect 53 0 57 0;
#X connect 54 0 50 0;
#X connect 54 1 56 0;
#X connect 54 2 53 1;
#X connect 54 2 49 0;
#X connect 55 0 53 0;
#X connect 56 0 55 0;
#X connect 59 0 58 0;
#X restore 410 32 pd add-div;
#X obj 74 114 s \$0-tempo-set;
#X obj 64 384 r \$0-tempo-disp;
#X obj 93 480 r \$0-num-real-pipe;
#X obj 82 424 r \$0-div-real-num;
#X obj 64 404 expr 60000/$f1;
#X obj 60 541 * 1;
#X obj 64 474 / 4;
#X obj 328 224 vradio 12 1 0 16 \$0-low \$0-low-set empty -1 -5 0 10
-204337 -66893 -13381 1;
#X obj 328 212 nbx 2 12 1 99 0 0 \$0-low-real-pipe \$0-low-real lowdur
0 -6 0 11 -204337 -66893 -66893 2 256;
#X obj 343 226 vradio 12 1 0 16 \$0-high \$0-high-set empty -1 -5 0
10 -204337 -66893 -13381 3;
#X obj 328 418 nbx 2 12 1 99 0 0 \$0-high-real-pipe \$0-high-real highdur
0 20 0 11 -204337 -66893 -66893 4 256;
#X obj 40 565 *;
#X obj 110 316 r \$0-low-real-pipe;
#X obj 72 248 r \$0-high-real-pipe;
#X obj 14 315 random;
#X obj 19 368 +;
#X obj 71 294 -;
#X obj 158 285 - 1;
#X obj 83 271 t b f;
#X obj 40 585 t b f;
#X obj 40 637 metro;
#X obj 82 445 t b f;
#X obj 93 501 t b f;
#X obj 12 176 t b b f;
#X obj 40 691 cup;
#X msg 102 647 1;
#X obj 155 651 >= 1;
#X obj 155 671 sel 1;
#X obj 155 693 del 0;
#X msg 155 715 0;
#X obj 14 48 inlet;
#X obj 7 115 moses 1;
#X obj 184 116 s \$0-div-set;
#X obj 278 115 - 1;
#X obj 308 115 - 1;
#X obj 28 146 f 4;
#X obj 139 92 route tempo div dlow dhigh pulses num;
#X obj 220 141 s \$0-low-set;
#X obj 312 141 s \$0-high-set;
#X obj 352 115 s \$0-num-set;
#X obj 16 83 route bang float;
#X obj 305 671 *;
#X obj 305 693 t b f;
#X obj 305 737 delay;
#X obj 40 758 outlet;
#X obj 301 771 outlet;
#X obj 37 719 t b;
#X obj 512 148 s \$0-tempo-set;
#X msg 514 121 112;
#X obj 506 85 loadbang;
#X obj 328 446 nbx 2 12 0 99 0 0 \$0-pause \$0-pause-set pause 0 20
0 11 -204337 -66893 -66893 1 256;
#X obj 506 599 r \$0-low-real-pipe;
#X obj 467 522 r \$0-high-real-pipe;
#X obj 410 598 random;
#X obj 431 632 +;
#X obj 467 577 -;
#X obj 554 568 - 1;
#X obj 479 554 t b f;
#X obj 305 637 f 1;
#X obj 322 608 r \$0-pause;
#X connect 0 0 45 0;
#X connect 10 0 13 0;
#X connect 11 0 31 0;
#X connect 12 0 30 0;
#X connect 13 0 15 0;
#X connect 14 0 20 1;
#X connect 14 0 50 1;
#X connect 15 0 14 0;
#X connect 20 0 28 0;
#X connect 21 0 24 1;
#X connect 21 0 26 0;
#X connect 22 0 25 0;
#X connect 23 0 24 0;
#X connect 24 0 20 0;
#X connect 25 0 23 1;
#X connect 26 0 27 0;
#X connect 27 0 25 0;
#X connect 27 1 25 1;
#X connect 28 0 29 0;
#X connect 28 1 29 1;
#X connect 29 0 33 0;
#X connect 30 0 15 0;
#X connect 30 1 15 1;
#X connect 31 0 14 0;
#X connect 31 1 14 1;
#X connect 32 0 23 0;
#X connect 32 1 34 0;
#X connect 32 2 35 1;
#X connect 33 0 35 0;
#X connect 33 0 55 0;
#X connect 34 0 33 0;
#X connect 35 0 36 0;
#X connect 36 0 37 0;
#X connect 37 0 38 0;
#X connect 37 0 67 0;
#X connect 38 0 29 0;
#X connect 39 0 49 0;
#X connect 40 1 44 0;
#X connect 42 0 46 0;
#X connect 43 0 47 0;
#X connect 44 0 32 0;
#X connect 45 0 9 0;
#X connect 45 1 41 0;
#X connect 45 2 42 0;
#X connect 45 3 43 0;
#X connect 45 4 44 1;
#X connect 45 5 48 0;
#X connect 49 0 44 0;
#X connect 49 1 40 0;
#X connect 50 0 51 0;
#X connect 51 0 52 0;
#X connect 51 1 52 1;
#X connect 52 0 54 0;
#X connect 55 0 53 0;
#X connect 57 0 56 0;
#X connect 58 0 57 0;
#X connect 60 0 63 1;
#X connect 60 0 65 0;
#X connect 61 0 64 0;
#X connect 62 0 63 0;
#X connect 64 0 62 1;
#X connect 65 0 66 0;
#X connect 66 0 64 0;
#X connect 66 1 64 1;
#X connect 67 0 50 0;
#X connect 68 0 67 1;
#X coords 0 -1 1 1 118 306 2 260 180;
