#N canvas 92 116 470 566 10;
#X obj 41 27 cnv 15 240 192 empty empty empty 20 12 0 14 -131731 -66577
0;
#X obj 121 13 cnv 15 160 60 empty empty empty 20 12 0 14 -131731 -66577
0;
#X obj 338 227 cnv 15 100 60 empty empty empty 20 12 0 14 -233017 -66577
0;
#X obj 314 189 cnv 15 100 60 empty empty empty 20 12 0 14 -233017 -66577
0;
#X obj 335 117 cnv 15 100 60 empty empty empty 20 12 0 14 -233017 -66577
0;
#N canvas 0 0 925 386 sababdbdsr--------------- 0;
#X obj 129 28 inlet;
#X obj 113 282 line~;
#X text 130 11 start;
#X obj 199 28 inlet;
#X obj 50 27 inlet;
#X text 45 10 trigger;
#X obj 202 199 delay;
#X obj 160 199 pack;
#X obj 270 28 inlet;
#X text 209 11 l1;
#X obj 77 199 t b b;
#X obj 57 171 sel 0 1;
#X obj 160 176 f;
#X obj 110 226 f;
#X obj 335 26 inlet;
#X obj 347 198 delay;
#X obj 296 197 pack;
#X obj 406 26 inlet;
#X obj 296 174 f;
#X text 345 9 l2;
#X text 279 11 t1;
#X text 415 9 t2;
#X obj 494 25 inlet;
#X obj 455 196 pack;
#X obj 565 25 inlet;
#X obj 455 173 f;
#X text 504 8 l3;
#X text 574 8 t3;
#X obj 630 25 inlet;
#X obj 591 196 pack;
#X obj 701 25 inlet;
#X obj 591 173 f;
#X obj 188 107 spigot;
#X obj 303 54 r \$0-sus;
#X obj 237 107 spigot;
#X obj 286 107 spigot;
#X obj 335 107 spigot;
#X obj 221 80 != 0;
#X obj 270 80 != 1;
#X obj 319 80 != 2;
#X obj 368 80 != 3;
#X obj 507 198 delay;
#X obj 467 108 spigot;
#X obj 516 108 spigot;
#X obj 565 108 spigot;
#X obj 614 108 spigot;
#X obj 500 81 == 0;
#X obj 549 81 == 1;
#X obj 598 81 == 2;
#X obj 647 81 == 3;
#X obj 780 25 inlet;
#X obj 741 196 pack;
#X obj 851 25 inlet;
#X obj 741 173 f;
#X text 780 8 final;
#X text 845 8 release;
#X obj 647 198 delay;
#X obj 385 107 spigot;
#X obj 664 108 spigot;
#X obj 697 81 == 4;
#X obj 418 80 != 4;
#X text 712 8 t4;
#X text 639 8 l4;
#X msg 209 173 stop;
#X msg 352 174 stop;
#X msg 512 173 stop;
#X msg 653 175 stop;
#X obj 103 330 outlet~;
#X connect 0 0 13 1;
#X connect 1 0 67 0;
#X connect 3 0 12 1;
#X connect 4 0 11 0;
#X connect 6 0 34 0;
#X connect 7 0 1 0;
#X connect 8 0 7 1;
#X connect 8 0 6 1;
#X connect 10 0 32 0;
#X connect 10 1 13 0;
#X connect 11 0 42 0;
#X connect 11 0 43 0;
#X connect 11 0 44 0;
#X connect 11 0 45 0;
#X connect 11 0 58 0;
#X connect 11 1 10 0;
#X connect 12 0 7 0;
#X connect 13 0 1 0;
#X connect 14 0 18 1;
#X connect 15 0 35 0;
#X connect 16 0 1 0;
#X connect 17 0 16 1;
#X connect 17 0 15 1;
#X connect 18 0 16 0;
#X connect 22 0 25 1;
#X connect 23 0 1 0;
#X connect 24 0 23 1;
#X connect 24 0 41 1;
#X connect 25 0 23 0;
#X connect 28 0 31 1;
#X connect 29 0 1 0;
#X connect 30 0 29 1;
#X connect 30 0 56 1;
#X connect 31 0 29 0;
#X connect 32 0 12 0;
#X connect 32 0 6 0;
#X connect 33 0 37 0;
#X connect 33 0 38 0;
#X connect 33 0 39 0;
#X connect 33 0 40 0;
#X connect 33 0 46 0;
#X connect 33 0 47 0;
#X connect 33 0 48 0;
#X connect 33 0 49 0;
#X connect 33 0 60 0;
#X connect 33 0 59 0;
#X connect 34 0 18 0;
#X connect 34 0 15 0;
#X connect 35 0 25 0;
#X connect 35 0 41 0;
#X connect 36 0 31 0;
#X connect 36 0 56 0;
#X connect 37 0 32 1;
#X connect 38 0 34 1;
#X connect 39 0 35 1;
#X connect 40 0 36 1;
#X connect 41 0 36 0;
#X connect 42 0 53 0;
#X connect 43 0 63 0;
#X connect 43 0 53 0;
#X connect 44 0 64 0;
#X connect 44 0 63 0;
#X connect 44 0 53 0;
#X connect 45 0 65 0;
#X connect 45 0 64 0;
#X connect 45 0 63 0;
#X connect 45 0 53 0;
#X connect 46 0 42 1;
#X connect 47 0 43 1;
#X connect 48 0 44 1;
#X connect 49 0 45 1;
#X connect 50 0 53 1;
#X connect 51 0 1 0;
#X connect 52 0 51 1;
#X connect 53 0 51 0;
#X connect 56 0 57 0;
#X connect 57 0 53 0;
#X connect 58 0 66 0;
#X connect 58 0 65 0;
#X connect 58 0 64 0;
#X connect 58 0 63 0;
#X connect 58 0 53 0;
#X connect 59 0 58 1;
#X connect 60 0 57 1;
#X connect 63 0 6 0;
#X connect 64 0 15 0;
#X connect 65 0 41 0;
#X connect 66 0 56 0;
#X restore 97 507 pd sababdbdsr---------------;
#N canvas 41 91 879 321 init_modit 0;
#X obj 22 119 r \$0-start;
#X obj 22 139 *;
#X obj 90 102 r \$0-scale-num;
#X obj 90 122 t b f;
#X obj 22 159 s \$0-start-mod;
#X obj 128 142 *;
#X obj 196 105 r \$0-scale-num;
#X obj 196 125 t b f;
#X obj 128 122 r \$0-l1;
#X obj 128 162 s \$0-l1-mod;
#X obj 233 145 *;
#X obj 301 108 r \$0-scale-num;
#X obj 301 128 t b f;
#X obj 233 125 r \$0-l2;
#X obj 233 165 s \$0-l2-mod;
#X obj 338 148 *;
#X obj 406 111 r \$0-scale-num;
#X obj 406 131 t b f;
#X obj 338 128 r \$0-l3;
#X obj 338 168 s \$0-l3-mod;
#X obj 444 151 *;
#X obj 512 114 r \$0-scale-num;
#X obj 512 134 t b f;
#X obj 549 154 *;
#X obj 617 117 r \$0-scale-num;
#X obj 617 137 t b f;
#X obj 444 131 r \$0-l4;
#X obj 444 171 s \$0-l4-mod;
#X obj 549 134 r \$0-l5;
#X obj 549 174 s \$0-l5-mod;
#X obj 128 222 *;
#X obj 196 205 t b f;
#X obj 233 225 *;
#X obj 301 208 t b f;
#X obj 338 228 *;
#X obj 406 211 t b f;
#X obj 444 231 *;
#X obj 512 214 t b f;
#X obj 549 234 *;
#X obj 617 217 t b f;
#X obj 196 185 r \$0-length-num;
#X obj 301 188 r \$0-length-num;
#X obj 406 191 r \$0-length-num;
#X obj 128 202 r \$0-t1;
#X obj 128 242 s \$0-t1-mod;
#X obj 233 205 r \$0-t2;
#X obj 233 245 s \$0-t2-mod;
#X obj 338 208 r \$0-t3;
#X obj 338 248 s \$0-t3-mod;
#X obj 444 211 r \$0-t4;
#X obj 444 251 s \$0-t4-mod;
#X obj 512 194 r \$0-length-num;
#X obj 617 197 r \$0-length-num;
#X obj 549 214 r \$0-t5;
#X obj 549 254 s \$0-t5-mod;
#X obj 744 213 s \$0-scale-set;
#X obj 758 194 s \$0-length-set;
#X msg 740 154 1;
#X obj 742 122 loadbang;
#X msg 776 153 10;
#X obj 221 -10 r \$0-sus;
#X msg 139 50 set 0;
#X obj 192 13 sel 0 1 2 3 4 5;
#X obj 139 70 s \$0-sus_1;
#X msg 209 50 set 0;
#X obj 209 70 s \$0-sus_2;
#X msg 278 50 set 0;
#X msg 348 50 set 0;
#X obj 278 70 s \$0-sus_3;
#X obj 348 70 s \$0-sus_4;
#X msg 417 50 set 0;
#X obj 417 70 s \$0-sus_5;
#X obj 531 32 loadbang;
#X msg 531 53 4;
#X connect 0 0 1 0;
#X connect 1 0 4 0;
#X connect 2 0 3 0;
#X connect 3 0 1 0;
#X connect 3 1 1 1;
#X connect 5 0 9 0;
#X connect 6 0 7 0;
#X connect 7 0 5 0;
#X connect 7 1 5 1;
#X connect 8 0 5 0;
#X connect 10 0 14 0;
#X connect 11 0 12 0;
#X connect 12 0 10 0;
#X connect 12 1 10 1;
#X connect 13 0 10 0;
#X connect 15 0 19 0;
#X connect 16 0 17 0;
#X connect 17 0 15 0;
#X connect 17 1 15 1;
#X connect 18 0 15 0;
#X connect 20 0 27 0;
#X connect 21 0 22 0;
#X connect 22 0 20 0;
#X connect 22 1 20 1;
#X connect 23 0 29 0;
#X connect 24 0 25 0;
#X connect 25 0 23 0;
#X connect 25 1 23 1;
#X connect 26 0 20 0;
#X connect 28 0 23 0;
#X connect 30 0 44 0;
#X connect 31 0 30 0;
#X connect 31 1 30 1;
#X connect 32 0 46 0;
#X connect 33 0 32 0;
#X connect 33 1 32 1;
#X connect 34 0 48 0;
#X connect 35 0 34 0;
#X connect 35 1 34 1;
#X connect 36 0 50 0;
#X connect 37 0 36 0;
#X connect 37 1 36 1;
#X connect 38 0 54 0;
#X connect 39 0 38 0;
#X connect 39 1 38 1;
#X connect 40 0 31 0;
#X connect 41 0 33 0;
#X connect 42 0 35 0;
#X connect 43 0 30 0;
#X connect 45 0 32 0;
#X connect 47 0 34 0;
#X connect 49 0 36 0;
#X connect 51 0 37 0;
#X connect 52 0 39 0;
#X connect 53 0 38 0;
#X connect 57 0 55 0;
#X connect 58 0 57 0;
#X connect 58 0 59 0;
#X connect 59 0 56 0;
#X connect 60 0 62 0;
#X connect 61 0 63 0;
#X connect 62 0 61 0;
#X connect 62 0 64 0;
#X connect 62 0 66 0;
#X connect 62 0 67 0;
#X connect 62 0 70 0;
#X connect 62 1 64 0;
#X connect 62 1 66 0;
#X connect 62 1 67 0;
#X connect 62 1 70 0;
#X connect 62 2 61 0;
#X connect 62 2 66 0;
#X connect 62 2 67 0;
#X connect 62 2 70 0;
#X connect 62 3 61 0;
#X connect 62 3 64 0;
#X connect 62 3 67 0;
#X connect 62 3 70 0;
#X connect 62 4 61 0;
#X connect 62 4 64 0;
#X connect 62 4 66 0;
#X connect 62 4 70 0;
#X connect 62 5 61 0;
#X connect 62 5 64 0;
#X connect 62 5 66 0;
#X connect 62 5 67 0;
#X connect 64 0 65 0;
#X connect 66 0 68 0;
#X connect 67 0 69 0;
#X connect 70 0 71 0;
#X connect 72 0 73 0;
#X connect 73 0 69 0;
#X restore 354 323 pd init_modit;
#X obj 112 286 r \$0-start-num;
#X obj 127 306 r \$0-l1-num;
#X obj 142 326 r \$0-t1-num;
#X obj 157 346 r \$0-l2-num;
#X obj 172 366 r \$0-t2-num;
#X obj 187 386 r \$0-l3-num;
#X obj 202 406 r \$0-t3-num;
#X obj 217 426 r \$0-l4-num;
#X obj 232 446 r \$0-t4-num;
#X obj 247 466 r \$0-l5-num;
#X obj 262 486 r \$0-t5-num;
#X obj 97 486 inlet;
#X obj 97 528 outlet~;
#N canvas 0 0 611 658 auto_out 0;
#X obj 260 266 r \$0-scale-num;
#X obj 281 286 r \$0-length-num;
#X obj 294 306 r \$0-sus;
#X obj 69 245 t b f;
#X obj 84 265 t b f;
#X obj 98 285 t b f;
#X obj 112 305 t b f;
#X obj 128 325 t b f;
#X obj 142 345 t b f;
#X obj 152 365 t b f;
#X obj 162 385 t b f;
#X obj 172 405 t b f;
#X obj 182 425 t b f;
#X obj 192 445 t b f;
#X obj 202 465 t b f;
#X obj 212 485 t b f;
#X obj 63 533 pack f f f f f f f f f f f f f f;
#X obj 92 46 r \$0-start;
#X obj 107 66 r \$0-l1;
#X obj 122 86 r \$0-t1;
#X obj 137 106 r \$0-l2;
#X obj 152 126 r \$0-t2;
#X obj 167 146 r \$0-l3;
#X obj 182 166 r \$0-t3;
#X obj 197 186 r \$0-l4;
#X obj 212 206 r \$0-t4;
#X obj 227 226 r \$0-l5;
#X obj 242 246 r \$0-t5;
#X obj 67 563 prepend all;
#X obj 64 594 outlet;
#X connect 0 0 13 0;
#X connect 1 0 14 0;
#X connect 2 0 15 0;
#X connect 3 0 16 0;
#X connect 3 1 16 1;
#X connect 4 0 16 0;
#X connect 4 1 16 2;
#X connect 5 0 16 0;
#X connect 5 1 16 3;
#X connect 6 0 16 0;
#X connect 6 1 16 4;
#X connect 7 0 16 0;
#X connect 7 1 16 5;
#X connect 8 0 16 0;
#X connect 8 1 16 6;
#X connect 9 0 16 0;
#X connect 9 1 16 7;
#X connect 10 0 16 0;
#X connect 10 1 16 8;
#X connect 11 0 16 0;
#X connect 11 1 16 9;
#X connect 12 0 16 0;
#X connect 12 1 16 10;
#X connect 13 0 16 0;
#X connect 13 1 16 11;
#X connect 14 0 16 0;
#X connect 14 1 16 12;
#X connect 15 0 16 0;
#X connect 15 1 16 13;
#X connect 16 0 28 0;
#X connect 17 0 16 0;
#X connect 18 0 3 0;
#X connect 19 0 4 0;
#X connect 20 0 5 0;
#X connect 21 0 6 0;
#X connect 22 0 7 0;
#X connect 23 0 8 0;
#X connect 24 0 9 0;
#X connect 25 0 10 0;
#X connect 26 0 11 0;
#X connect 27 0 12 0;
#X connect 28 0 29 0;
#X restore 350 428 pd auto_out;
#X obj 350 448 outlet;
#X obj 350 387 inlet;
#N canvas 0 0 720 484 automation 0;
#X obj 369 390 s \$0-sus;
#X obj 392 221 sel 1 2 3 4 5;
#X obj 401 363 s \$0-sus_1;
#X obj 421 343 s \$0-sus_2;
#X obj 441 323 s \$0-sus_3;
#X obj 461 303 s \$0-sus_4;
#X obj 481 283 s \$0-sus_5;
#X msg 393 262 1;
#X msg 418 260 2;
#X msg 443 261 3;
#X msg 477 259 4;
#X msg 506 256 5;
#X obj 69 92 unpack f f f f f f f f f f f f f f;
#X obj 251 366 s \$0-length-set;
#X obj 230 346 s \$0-scale-set;
#X obj 212 326 s \$0-t5-set;
#X obj 197 306 s \$0-l5-set;
#X obj 182 286 s \$0-t4-set;
#X obj 167 266 s \$0-l4-set;
#X obj 152 246 s \$0-t3-set;
#X obj 137 226 s \$0-l3-set;
#X obj 122 206 s \$0-t2-set;
#X obj 107 186 s \$0-l2-set;
#X obj 92 166 s \$0-t1-set;
#X obj 77 146 s \$0-l1-set;
#X obj 62 126 s \$0-start-set;
#X obj 69 34 inlet;
#X obj 69 57 route all start l1 t1 l2 t2 l3 t3 l4 t4 l5 t5 scale length
sus;
#X connect 1 0 7 0;
#X connect 1 1 8 0;
#X connect 1 2 9 0;
#X connect 1 3 10 0;
#X connect 1 4 11 0;
#X connect 1 5 6 0;
#X connect 1 5 5 0;
#X connect 1 5 4 0;
#X connect 1 5 3 0;
#X connect 1 5 2 0;
#X connect 1 5 0 0;
#X connect 7 0 2 0;
#X connect 8 0 3 0;
#X connect 9 0 4 0;
#X connect 10 0 5 0;
#X connect 11 0 6 0;
#X connect 12 0 25 0;
#X connect 12 1 24 0;
#X connect 12 2 23 0;
#X connect 12 3 22 0;
#X connect 12 4 21 0;
#X connect 12 5 20 0;
#X connect 12 6 19 0;
#X connect 12 7 18 0;
#X connect 12 8 17 0;
#X connect 12 9 16 0;
#X connect 12 10 15 0;
#X connect 12 11 14 0;
#X connect 12 12 13 0;
#X connect 12 13 1 0;
#X connect 12 13 0 0;
#X connect 26 0 27 0;
#X connect 27 0 12 0;
#X connect 27 1 25 0;
#X connect 27 2 24 0;
#X connect 27 3 23 0;
#X connect 27 4 22 0;
#X connect 27 5 21 0;
#X connect 27 6 20 0;
#X connect 27 7 19 0;
#X connect 27 8 18 0;
#X connect 27 9 17 0;
#X connect 27 10 16 0;
#X connect 27 11 15 0;
#X connect 27 12 14 0;
#X connect 27 13 13 0;
#X connect 27 14 1 0;
#X restore 350 407 pd automation;
#X obj 64 68 hsl 141 12 0 1 0 0 \$0-start \$0-start-set start 30 6
0 10 -58816 -204800 -204800 0 0;
#X obj 210 68 nbx 7 12 0 1e+06 0 0 \$0-start-num \$0-start-mod empty
0 -8 0 10 -58816 -204800 -204800 0 256;
#X obj 64 95 hsl 141 12 0 1 0 0 \$0-l1 \$0-l1-set level 30 6 0 10 -58816
-204800 -204800 7000 0;
#X obj 210 95 nbx 7 12 0 1e+06 0 0 \$0-l1-num \$0-l1-mod empty 0 -8
0 10 -58816 -204800 -204800 0.5 256;
#X obj 64 83 hsl 141 12 0 140 0 0 \$0-t1 \$0-t1-set attack 30 6 0 10
-59927 -262130 -262130 400 0;
#X obj 210 83 nbx 7 12 0 1e+06 0 0 \$0-t1-num \$0-t1-mod empty 0 -8
0 10 -59927 -262130 -262130 79.9813 256;
#X obj 64 122 hsl 141 12 0 1 0 0 \$0-l2 \$0-l2-set level 30 6 0 10
-58816 -204800 -204800 11900 0;
#X obj 210 122 nbx 7 12 0 1e+06 0 0 \$0-l2-num \$0-l2-mod empty 0 -8
0 10 -58816 -204800 -204800 0.85 256;
#X obj 64 110 hsl 141 12 0 140 0 0 \$0-t2 \$0-t2-set decay 30 6 0 10
-59927 -262130 -262130 1300 0;
#X obj 210 110 nbx 7 12 0 1e+06 0 0 \$0-t2-num \$0-t2-mod empty 0 -8
0 10 -59927 -262130 -262130 259.939 256;
#X obj 64 150 hsl 141 12 0 1 0 0 \$0-l3 \$0-l3-set level 30 6 0 10
-58816 -204800 -204800 4200 0;
#X obj 210 150 nbx 7 12 0 1e+06 0 0 \$0-l3-num \$0-l3-mod empty 0 -8
0 10 -58816 -204800 -204800 0.3 256;
#X obj 64 138 hsl 141 12 9 140 0 0 \$0-t3 \$0-t3-set surge 30 6 0 10
-59927 -262130 -262130 14000 0;
#X obj 210 138 nbx 7 12 0 1e+06 0 0 \$0-t3-num \$0-t3-mod empty 0 -8
0 10 -59927 -262130 -262130 2799.35 256;
#X obj 64 177 hsl 141 12 0 1 0 0 \$0-l4 \$0-l4-set level 30 6 0 10
-58816 -204800 -204800 14000 0;
#X obj 210 177 nbx 7 12 0 1e+06 0 0 \$0-l4-num \$0-l4-mod empty 0 -8
0 10 -58816 -204800 -204800 1 256;
#X obj 64 165 hsl 141 12 0 140 0 0 \$0-t4 \$0-t4-set refrain 30 6 0
10 -59927 -262130 -262130 14000 0;
#X obj 210 165 nbx 7 12 0 1e+06 0 0 \$0-t4-num \$0-t4-mod empty 0 -8
0 10 -59927 -262130 -262130 2799.35 256;
#X obj 64 204 hsl 141 12 0 1 0 0 \$0-l5 \$0-l5-set level 30 6 0 10
-58816 -204800 -204800 0 0;
#X obj 210 204 nbx 7 12 0 1e+06 0 0 \$0-l5-num \$0-l5-mod empty 0 -8
0 10 -58816 -204800 -204800 0 256;
#X obj 64 192 hsl 141 12 0 140 0 0 \$0-t5 \$0-t5-set release 30 6 0
10 -59927 -262130 -262130 14000 0;
#X obj 210 192 nbx 7 12 0 1e+06 0 0 \$0-t5-num \$0-t5-mod empty 0 -8
0 10 -59927 -262130 -262130 2799.35 256;
#X obj 64 30 hsl 141 12 0.1 7.1 0 0 \$0-scale \$0-scale-set scale 30
6 0 10 -58816 -204800 -204800 1800 1;
#X obj 210 30 nbx 4 12 0 1e+06 0 0 \$0-scale-num \$0-scale empty 0
-8 0 10 -58816 -204800 -204800 1 256;
#X obj 64 45 hsl 141 12 1 1000 1 0 \$0-length \$0-length-set length
30 6 0 10 -59927 -262130 -262130 6071 1;
#X obj 210 45 nbx 4 12 0 1e+06 0 0 \$0-length-num \$0-length empty
0 -8 0 10 -59927 -262130 -262130 19.9953 256;
#X obj 44 95 tgl 12 0 \$0-sus \$0-sus_1 sus -2 -6 0 10 -58816 -225280
-204800 0 1;
#X obj 44 122 tgl 12 0 \$0-sus \$0-sus_2 empty -2 -6 0 10 -58816 -204800
-204800 0 2;
#X obj 44 149 tgl 12 0 \$0-sus \$0-sus_3 empty -2 -6 0 10 -58816 -204800
-204800 0 3;
#X obj 44 177 tgl 12 0 \$0-sus \$0-sus_4 empty -2 -6 0 10 -58816 -204800
-204800 4 4;
#X obj 44 325 tgl 12 0 \$0-sus \$0-sus_5 empty -2 -6 0 10 -58816 -204800
-204800 0 5;
#X connect 5 0 19 0;
#X connect 7 0 5 1;
#X connect 8 0 5 2;
#X connect 9 0 5 3;
#X connect 10 0 5 4;
#X connect 11 0 5 5;
#X connect 12 0 5 6;
#X connect 13 0 5 7;
#X connect 14 0 5 8;
#X connect 15 0 5 9;
#X connect 16 0 5 10;
#X connect 17 0 5 11;
#X connect 18 0 5 0;
#X connect 20 0 21 0;
#X connect 22 0 23 0;
#X coords 0 -1 1 1 242 212 1 40 10;
