#N canvas 71 103 468 437 10;
#X obj 74 136 catch~ ps_1-out;
#X obj 94 175 catch~ ps_3-out;
#X obj 84 155 catch~ ps_2-out;
#X obj 104 195 catch~ ps_4-out;
#X obj 114 215 catch~ ps_5-out;
#X obj 124 235 catch~ ps_6-out;
#X obj 74 357 outlet~;
#X obj 84 337 outlet~;
#X obj 94 317 outlet~;
#X obj 104 297 outlet~;
#X obj 114 277 outlet~;
#X obj 124 257 outlet~;
#X obj 234 357 outlet~;
#X obj 244 337 outlet~;
#X obj 254 317 outlet~;
#X obj 264 297 outlet~;
#X obj 274 277 outlet~;
#X obj 284 257 outlet~;
#X obj 234 136 catch~ ps_7-out;
#X obj 244 155 catch~ ps_8-out;
#X obj 254 175 catch~ ps_9-out;
#X obj 264 195 catch~ ps_10-out;
#X obj 274 215 catch~ ps_11-out;
#X obj 284 235 catch~ ps_12-out;
#X obj 41 27 cnv 15 181 34 empty \$0-cnv_name empty 4 7 0 10 -33289
-191407 0;
#X obj 161 13 cnv 15 61 34 empty \$0-cnv_name empty 4 7 0 10 -33289
-191407 0;
#N canvas 94 363 737 497 polysampler 0;
#X obj 40 0 receive ps_1-in;
#X obj 87 20 receive ps_1-auto;
#X obj 40 180 throw~ ps_1-out;
#X obj 40 204 receive ps_2-in;
#X obj 87 224 receive ps_2-auto;
#X obj 40 384 throw~ ps_2-out;
#X obj 40 408 receive ps_3-in;
#X obj 87 428 receive ps_3-auto;
#X obj 40 588 throw~ ps_3-out;
#X obj 40 612 receive ps_4-in;
#X obj 87 632 receive ps_4-auto;
#X obj 40 792 throw~ ps_4-out;
#X obj 40 816 receive ps_5-in;
#X obj 87 836 receive ps_5-auto;
#X obj 40 996 throw~ ps_5-out;
#X obj 40 1020 receive ps_6-in;
#X obj 87 1040 receive ps_6-auto;
#X obj 40 1200 throw~ ps_6-out;
#X obj 40 1224 receive ps_7-in;
#X obj 87 1244 receive ps_7-auto;
#X obj 40 1404 throw~ ps_7-out;
#X obj 40 1428 receive ps_8-in;
#X obj 87 1448 receive ps_8-auto;
#X obj 40 1608 throw~ ps_8-out;
#X obj 40 1632 receive ps_9-in;
#X obj 87 1652 receive ps_9-auto;
#X obj 40 1812 throw~ ps_9-out;
#X obj 40 1836 receive ps_10-in;
#X obj 87 1856 receive ps_10-auto;
#X obj 40 2016 throw~ ps_10-out;
#X obj 40 2040 receive ps_11-in;
#X obj 87 2060 receive ps_11-auto;
#X obj 40 2220 throw~ ps_11-out;
#X obj 40 2244 receive ps_12-in;
#X obj 87 2264 receive ps_12-auto;
#X obj 40 2424 throw~ ps_12-out;
#X obj 40 42 samplevoice~;
#X obj 194 42 samplevoice~;
#X obj 348 42 samplevoice~;
#X obj 40 246 samplevoice~;
#X obj 194 246 samplevoice~;
#X obj 348 246 samplevoice~;
#X obj 40 450 samplevoice~;
#X obj 194 450 samplevoice~;
#X obj 348 450 samplevoice~;
#X obj 40 654 samplevoice~;
#X obj 194 654 samplevoice~;
#X obj 348 654 samplevoice~;
#X obj 40 858 samplevoice~;
#X obj 194 858 samplevoice~;
#X obj 348 858 samplevoice~;
#X obj 40 1062 samplevoice~;
#X obj 194 1062 samplevoice~;
#X obj 348 1062 samplevoice~;
#X obj 40 1266 samplevoice~;
#X obj 194 1266 samplevoice~;
#X obj 348 1266 samplevoice~;
#X obj 40 1470 samplevoice~;
#X obj 194 1470 samplevoice~;
#X obj 348 1470 samplevoice~;
#X obj 40 1674 samplevoice~;
#X obj 194 1674 samplevoice~;
#X obj 348 1674 samplevoice~;
#X obj 40 1878 samplevoice~;
#X obj 194 1878 samplevoice~;
#X obj 348 1878 samplevoice~;
#X obj 40 2082 samplevoice~;
#X obj 194 2082 samplevoice~;
#X obj 348 2082 samplevoice~;
#X obj 40 2286 samplevoice~;
#X obj 194 2286 samplevoice~;
#X obj 348 2286 samplevoice~;
#X connect 0 0 36 0;
#X connect 0 0 36 0;
#X connect 0 0 36 0;
#X connect 1 0 36 1;
#X connect 1 0 37 1;
#X connect 1 0 38 1;
#X connect 3 0 39 0;
#X connect 3 0 39 0;
#X connect 3 0 39 0;
#X connect 4 0 39 1;
#X connect 4 0 40 1;
#X connect 4 0 41 1;
#X connect 6 0 42 0;
#X connect 6 0 42 0;
#X connect 6 0 42 0;
#X connect 7 0 42 1;
#X connect 7 0 43 1;
#X connect 7 0 44 1;
#X connect 9 0 45 0;
#X connect 9 0 45 0;
#X connect 9 0 45 0;
#X connect 10 0 45 1;
#X connect 10 0 46 1;
#X connect 10 0 47 1;
#X connect 12 0 48 0;
#X connect 12 0 48 0;
#X connect 12 0 48 0;
#X connect 13 0 48 1;
#X connect 13 0 49 1;
#X connect 13 0 50 1;
#X connect 15 0 51 0;
#X connect 15 0 51 0;
#X connect 15 0 51 0;
#X connect 16 0 51 1;
#X connect 16 0 52 1;
#X connect 16 0 53 1;
#X connect 18 0 54 0;
#X connect 18 0 54 0;
#X connect 18 0 54 0;
#X connect 19 0 54 1;
#X connect 19 0 55 1;
#X connect 19 0 56 1;
#X connect 21 0 57 0;
#X connect 21 0 57 0;
#X connect 21 0 57 0;
#X connect 22 0 57 1;
#X connect 22 0 58 1;
#X connect 22 0 59 1;
#X connect 24 0 60 0;
#X connect 24 0 60 0;
#X connect 24 0 60 0;
#X connect 25 0 60 1;
#X connect 25 0 61 1;
#X connect 25 0 62 1;
#X connect 27 0 63 0;
#X connect 27 0 63 0;
#X connect 27 0 63 0;
#X connect 28 0 63 1;
#X connect 28 0 64 1;
#X connect 28 0 65 1;
#X connect 30 0 66 0;
#X connect 30 0 66 0;
#X connect 30 0 66 0;
#X connect 31 0 66 1;
#X connect 31 0 67 1;
#X connect 31 0 68 1;
#X connect 33 0 69 0;
#X connect 33 0 69 0;
#X connect 33 0 69 0;
#X connect 34 0 69 1;
#X connect 34 0 70 1;
#X connect 34 0 71 1;
#X connect 36 0 2 0;
#X connect 36 2 37 0;
#X connect 37 0 2 0;
#X connect 37 2 38 0;
#X connect 38 0 2 0;
#X connect 39 0 5 0;
#X connect 39 2 40 0;
#X connect 40 0 5 0;
#X connect 40 2 41 0;
#X connect 41 0 5 0;
#X connect 42 0 8 0;
#X connect 42 2 43 0;
#X connect 43 0 8 0;
#X connect 43 2 44 0;
#X connect 44 0 8 0;
#X connect 45 0 11 0;
#X connect 45 2 46 0;
#X connect 46 0 11 0;
#X connect 46 2 47 0;
#X connect 47 0 11 0;
#X connect 48 0 14 0;
#X connect 48 2 49 0;
#X connect 49 0 14 0;
#X connect 49 2 50 0;
#X connect 50 0 14 0;
#X connect 51 0 17 0;
#X connect 51 2 52 0;
#X connect 52 0 17 0;
#X connect 52 2 53 0;
#X connect 53 0 17 0;
#X connect 54 0 20 0;
#X connect 54 2 55 0;
#X connect 55 0 20 0;
#X connect 55 2 56 0;
#X connect 56 0 20 0;
#X connect 57 0 23 0;
#X connect 57 2 58 0;
#X connect 58 0 23 0;
#X connect 58 2 59 0;
#X connect 59 0 23 0;
#X connect 60 0 26 0;
#X connect 60 2 61 0;
#X connect 61 0 26 0;
#X connect 61 2 62 0;
#X connect 62 0 26 0;
#X connect 63 0 29 0;
#X connect 63 2 64 0;
#X connect 64 0 29 0;
#X connect 64 2 65 0;
#X connect 65 0 29 0;
#X connect 66 0 32 0;
#X connect 66 2 67 0;
#X connect 67 0 32 0;
#X connect 67 2 68 0;
#X connect 68 0 32 0;
#X connect 69 0 35 0;
#X connect 69 2 70 0;
#X connect 70 0 35 0;
#X connect 70 2 71 0;
#X connect 71 0 35 0;
#X restore 157 112 pd polysampler;
#N canvas 8 73 450 300 makethrows 0;
#X obj 54 164 throw~ ps_1-out;
#X obj 152 164 throw~ ps_2-out;
#X obj 74 185 throw~ ps_3-out;
#X obj 172 185 throw~ ps_4-out;
#X obj 94 206 throw~ ps_5-out;
#X obj 192 206 throw~ ps_6-out;
#X obj 114 227 throw~ ps_7-out;
#X obj 212 227 throw~ ps_8-out;
#X obj 136 247 throw~ ps_9-out;
#X obj 234 247 throw~ ps_10-out;
#X obj 156 268 throw~ ps_11-out;
#X obj 254 268 throw~ ps_12-out;
#X obj 141 111 sig~ 0;
#X connect 12 0 0 0;
#X connect 12 0 1 0;
#X connect 12 0 2 0;
#X connect 12 0 3 0;
#X connect 12 0 4 0;
#X connect 12 0 5 0;
#X connect 12 0 6 0;
#X connect 12 0 7 0;
#X connect 12 0 8 0;
#X connect 12 0 9 0;
#X connect 12 0 10 0;
#X connect 12 0 11 0;
#X restore 52 99 pd makethrows;
#N canvas 217 575 450 405 setpoly 0;
#X obj 129 79 inlet;
#X obj 152 132 > 1;
#X obj 109 192 spigot;
#X obj 65 79 inlet;
#X obj 109 213 f;
#X obj 91 256 kalashnikov;
#X obj 109 234 t b f;
#X obj 116 347 send13;
#X msg 192 324 set \$1;
#X obj 116 278 + 1;
#X msg 122 323 poly 1;
#X obj 215 103 kalashnikov;
#X obj 233 81 t b f;
#X obj 240 194 send13;
#X msg 285 168 set \$1;
#X obj 240 125 + 1;
#X obj 233 61 f;
#X obj 216 16 inlet;
#X obj 212 38 t b f;
#X msg 184 168 poly \$1;
#X obj 184 145 f;
#X obj 299 38 sel 0 1;
#X obj 312 103 s \$0-global_poly;
#X obj 184 304 makefilename ps_%d-auto;
#X obj 289 146 makefilename ps_%d-auto;
#X msg 293 74 label gmono;
#X msg 373 72 label gpoly;
#X obj 234 146 t b b f;
#X msg 236 168 reset;
#X obj 118 298 t b b f;
#X msg 51 324 reset;
#X msg 270 7 1;
#X connect 0 0 1 0;
#X connect 0 0 4 1;
#X connect 0 0 16 1;
#X connect 1 0 2 1;
#X connect 2 0 4 0;
#X connect 3 0 2 0;
#X connect 4 0 6 0;
#X connect 5 1 9 0;
#X connect 6 0 5 0;
#X connect 6 1 5 1;
#X connect 8 0 7 0;
#X connect 9 0 29 0;
#X connect 10 0 7 0;
#X connect 11 1 15 0;
#X connect 12 0 11 0;
#X connect 12 1 11 1;
#X connect 14 0 13 0;
#X connect 15 0 27 0;
#X connect 16 0 12 0;
#X connect 17 0 18 0;
#X connect 17 0 21 0;
#X connect 18 0 16 0;
#X connect 18 1 20 1;
#X connect 19 0 13 0;
#X connect 20 0 19 0;
#X connect 21 0 25 0;
#X connect 21 1 26 0;
#X connect 23 0 8 0;
#X connect 24 0 14 0;
#X connect 25 0 22 0;
#X connect 26 0 22 0;
#X connect 27 0 28 0;
#X connect 27 1 20 0;
#X connect 27 2 24 0;
#X connect 28 0 13 0;
#X connect 29 0 30 0;
#X connect 29 1 10 0;
#X connect 29 2 23 0;
#X connect 30 0 7 0;
#X connect 31 0 18 0;
#X restore 157 93 pd setpoly;
#N canvas 130 224 1110 526 machine-creator 0;
#X msg 130 199 clear;
#X obj 284 59 / 6;
#X msg 233 8 104 134;
#X obj 60 94 kalashnikov;
#X obj 284 79 i;
#X obj 284 99 change;
#X obj 58 141 % 6;
#X obj 45 203 pack f f;
#X obj 47 182 + 40;
#X obj 134 94 f;
#X obj 67 279 s pd-polysampler;
#X obj 391 197 makefilename ps_%d-in;
#X msg 156 263 obj \$1 \$2 receive \$3;
#X obj 237 197 makefilename ps_%d-auto;
#X obj 209 76 *;
#X obj 425 227 makefilename ps_%d-out;
#X obj 132 27 inlet;
#X obj 96 48 f;
#X text 429 -21 channels;
#X obj 47 27 inlet;
#X text 45 11 create!;
#X text 130 9 voices;
#X obj 222 134 outlet;
#X obj 707 116 kalashnikov;
#X obj 708 96 t b f;
#X msg 346 270 obj \$1 \$2 throw~ \$3;
#X obj 337 162 + 1;
#X obj 689 239 / 6;
#X obj 689 259 i;
#X obj 211 172 * 204;
#X obj 204 217 + 20;
#X obj 90 180 + 42;
#X obj 374 228 + 180;
#X obj 346 249 pack f f s;
#X msg 331 228 40;
#X obj 176 238 pack f f s;
#X msg 175 217 87;
#X obj 261 239 pack f f s;
#X msg 246 218 40;
#X obj 376 86 f;
#X obj 394 33 t b f;
#X obj 390 -18 inlet;
#X msg 436 18 1;
#X obj 436 -2 moses 1;
#X msg 178 39 1;
#X obj 88 116 t f f;
#X obj 284 141 t b b b f;
#X obj 96 68 t b b f b;
#X obj 294 15 t b;
#X msg 298 38 0;
#X msg 342 113 1;
#X obj 375 112 loadbang;
#X obj 860 78 *;
#X obj 877 122 f;
#X text 871 103 ps_in;
#X obj 921 126 + 1;
#X obj 975 127 + 2;
#X obj 864 231 +;
#X text 850 193 samplay;
#X msg 486 60 set 999;
#X obj 960 264 pack f f;
#X obj 884 267 pack f f;
#X obj 805 266 pack f f;
#X msg 807 320 connect \$2 0 \$1 0;
#X msg 865 360 connect \$2 0 \$1 1;
#X obj 1001 321 t f f;
#X obj 991 372 pack;
#X msg 977 401 connect \$1 2 \$2 0;
#X obj 177 18 moses 1;
#X obj 210 40 f;
#X obj 826 460 s pd-polysampler;
#X msg 953 431 connect \$1 0 \$2 0;
#X obj 806 15 + 3;
#X floatatom 767 43 5 0 0 0 - - -;
#X obj 734 230 * 3;
#X obj 799 192 + 3;
#X obj 829 132 + 3;
#X obj 829 107 f;
#X obj 806 47 t b;
#X obj 799 71 spigot;
#X msg 758 92 1;
#X msg 759 71 0;
#X obj 738 137 t f f f;
#X obj 1017 289 spigot;
#X msg 1039 265 0;
#X obj 686 285 change;
#X msg 1049 243 1;
#X obj 989 343 - 1;
#X obj 916 213 + 3;
#X obj 1053 187 outlet;
#X obj 222 343 > 1;
#X obj 85 350 f;
#X obj 74 431 s \$0-global_poly;
#X obj 57 162 * 154;
#X msg 20 236 obj \$1 \$2 samplevoice~;
#X obj 1018 157 delay 0;
#X msg 87 393 1;
#X connect 0 0 10 0;
#X connect 1 0 4 0;
#X connect 3 1 45 0;
#X connect 3 2 9 0;
#X connect 4 0 5 0;
#X connect 5 0 46 0;
#X connect 6 0 93 0;
#X connect 7 0 94 0;
#X connect 8 0 7 0;
#X connect 9 0 24 0;
#X connect 11 0 37 2;
#X connect 12 0 10 0;
#X connect 13 0 35 2;
#X connect 14 0 17 1;
#X connect 14 0 22 0;
#X connect 15 0 33 2;
#X connect 16 0 68 0;
#X connect 16 0 90 0;
#X connect 17 0 47 0;
#X connect 19 0 17 0;
#X connect 23 1 82 0;
#X connect 23 2 91 0;
#X connect 23 2 95 0;
#X connect 24 0 23 0;
#X connect 24 1 23 1;
#X connect 25 0 10 0;
#X connect 26 0 11 0;
#X connect 26 0 15 0;
#X connect 26 0 13 0;
#X connect 27 0 28 0;
#X connect 28 0 74 0;
#X connect 28 0 52 0;
#X connect 28 0 80 0;
#X connect 28 0 85 0;
#X connect 29 0 31 0;
#X connect 29 0 32 0;
#X connect 29 0 30 0;
#X connect 29 0 37 1;
#X connect 30 0 35 1;
#X connect 31 0 7 1;
#X connect 32 0 33 1;
#X connect 33 0 25 0;
#X connect 34 0 33 0;
#X connect 35 0 12 0;
#X connect 36 0 35 0;
#X connect 37 0 12 0;
#X connect 38 0 37 0;
#X connect 39 0 1 1;
#X connect 39 0 6 1;
#X connect 39 0 14 1;
#X connect 40 0 14 0;
#X connect 40 1 39 0;
#X connect 40 1 27 1;
#X connect 40 1 72 0;
#X connect 41 0 43 0;
#X connect 42 0 40 0;
#X connect 43 0 42 0;
#X connect 43 1 40 0;
#X connect 44 0 69 0;
#X connect 45 0 6 0;
#X connect 45 1 1 0;
#X connect 46 0 34 0;
#X connect 46 1 36 0;
#X connect 46 2 38 0;
#X connect 46 3 26 0;
#X connect 46 3 29 0;
#X connect 47 0 3 0;
#X connect 47 1 50 0;
#X connect 47 2 9 1;
#X connect 47 2 3 1;
#X connect 47 2 48 0;
#X connect 47 3 0 0;
#X connect 47 3 59 0;
#X connect 48 0 49 0;
#X connect 49 0 1 0;
#X connect 51 0 50 0;
#X connect 52 0 53 0;
#X connect 52 0 55 0;
#X connect 52 0 56 0;
#X connect 52 0 77 1;
#X connect 53 0 62 1;
#X connect 55 0 61 1;
#X connect 56 0 60 1;
#X connect 57 0 60 0;
#X connect 57 0 61 0;
#X connect 57 0 83 0;
#X connect 59 0 5 0;
#X connect 59 0 85 0;
#X connect 60 0 71 0;
#X connect 61 0 64 0;
#X connect 62 0 63 0;
#X connect 63 0 70 0;
#X connect 64 0 70 0;
#X connect 65 0 87 0;
#X connect 65 1 66 1;
#X connect 66 0 67 0;
#X connect 67 0 70 0;
#X connect 68 0 44 0;
#X connect 68 1 69 0;
#X connect 69 0 14 0;
#X connect 71 0 70 0;
#X connect 72 0 52 1;
#X connect 72 0 73 0;
#X connect 74 0 57 1;
#X connect 75 0 57 0;
#X connect 76 0 62 0;
#X connect 77 0 76 0;
#X connect 78 0 79 0;
#X connect 79 0 81 0;
#X connect 79 0 77 0;
#X connect 80 0 79 1;
#X connect 81 0 79 1;
#X connect 82 0 86 0;
#X connect 82 1 75 0;
#X connect 82 1 78 0;
#X connect 82 2 27 0;
#X connect 83 0 65 0;
#X connect 84 0 83 1;
#X connect 85 0 84 0;
#X connect 86 0 83 1;
#X connect 87 0 66 0;
#X connect 90 0 91 1;
#X connect 93 0 8 0;
#X connect 94 0 10 0;
#X connect 95 0 89 0;
#X connect 96 0 92 0;
#X restore 52 71 pd machine-creator;
#X obj 79 43 nbx 3 15 1 16 0 0 empty \$0-polyphony polyphony 0 -8 0
10 -45076 -232576 -232576 3 256;
#X obj 156 31 nbx 2 15 1 12 0 0 empty \$0-channels channels -20 22
0 10 -16662 -203904 -203904 12 256;
#X obj 43 30 bng 28 250 50 0 empty \$0-matrix_make make 2 13 0 10 -13381
-204786 -204800;
#X obj 192 31 tgl 28 0 empty \$0-global_poly gpoly 2 13 0 9 -13330
-204800 -204800 1 1;
#N canvas 10 71 450 300 init 0;
#X obj 86 87 \$1;
#X obj 145 90 \$2;
#X obj 89 110 moses 1;
#X obj 145 111 moses 1;
#X msg 145 132 1;
#X obj 95 164 pack f f;
#X obj 95 143 swap;
#X obj 101 21 loadbang;
#X obj 100 46 t b b;
#X obj 95 185 t b a;
#X obj 33 239 s \$0-matrix_make;
#X obj 163 211 unpack f f;
#X obj 224 250 s \$0-channels;
#X obj 150 267 s \$0-polyphony;
#X connect 0 0 2 0;
#X connect 1 0 3 0;
#X connect 2 1 6 0;
#X connect 3 0 4 0;
#X connect 3 1 6 1;
#X connect 4 0 6 1;
#X connect 5 0 9 0;
#X connect 6 0 5 0;
#X connect 6 1 5 1;
#X connect 7 0 8 0;
#X connect 8 0 0 0;
#X connect 8 1 1 0;
#X connect 9 0 10 0;
#X connect 9 1 11 0;
#X connect 11 0 13 0;
#X connect 11 1 12 0;
#X restore 266 111 pd init;
#X obj 184 16 nbx 3 12 -1e+37 1e+37 0 0 empty empty empty -32 6 0 9
-33289 -191407 -191407 0 256;
#X obj 184 16 nbx 3 12 -1e+37 1e+37 0 0 empty empty vox -16 6 0 9 -33289
-191407 -191407 36 256;
#X obj 301 13 inlet;
#X obj 225 91 s \$0-channels;
#X obj 255 71 s \$0-polyphony;
#X obj 317 91 s \$0-matrix_make;
#X obj 350 71 s \$0-global_poly;
#X obj 231 38 route channels poly make monopoly;
#X connect 0 0 6 0;
#X connect 1 0 8 0;
#X connect 2 0 7 0;
#X connect 3 0 9 0;
#X connect 4 0 10 0;
#X connect 5 0 11 0;
#X connect 18 0 12 0;
#X connect 19 0 13 0;
#X connect 20 0 14 0;
#X connect 21 0 15 0;
#X connect 22 0 16 0;
#X connect 23 0 17 0;
#X connect 29 0 36 0;
#X connect 29 1 28 0;
#X connect 30 0 29 2;
#X connect 31 0 29 1;
#X connect 31 0 28 1;
#X connect 32 0 29 0;
#X connect 33 0 28 2;
#X connect 37 0 42 0;
#X connect 42 0 38 0;
#X connect 42 1 39 0;
#X connect 42 2 40 0;
#X connect 42 3 41 0;
#X coords 0 -1 1 1 183 54 1 40 10;
