#N canvas 126 223 1155 635 10;
#X msg 269 327 set \$1;
#X obj 23 284 exp;
#X floatatom 23 304 0 0 0 0 - - -;
#X obj 23 264 * 0.057762;
#X obj 216 222 / 127;
#X obj 96 239 *;
#X obj 96 260 t b f;
#X obj 96 281 f;
#X obj 96 302 -;
#X obj 96 323 / 44.1;
#X obj 51 344 f;
#X obj 23 344 f;
#X obj 81 344 *;
#X floatatom 23 245 5 0 0 0 - - -;
#X obj 23 324 t b b f;
#X obj 23 365 pack f f f;
#X obj 23 405 line~;
#X obj 23 574 outlet~;
#X obj 23 164 f;
#X obj 72 162 r \$0-pitch;
#X obj 96 218 r \$0-samp_offset;
#N canvas 84 197 831 643 patches 0;
#X obj 24 140 f;
#X obj 21 97 r \$0-store_patch;
#X obj 22 199 prepend add;
#X obj 19 232 t b a;
#X obj 91 319 msgfile;
#X msg 168 255 add patches 0;
#X obj 165 217 loadbang;
#X obj 76 436 route patches;
#X msg 106 238 goto 0;
#X obj 34 297 + 1;
#X obj 18 314 f;
#X msg 18 367 replace patches \$1;
#X msg 69 288 this;
#X obj 18 262 t b b b;
#X obj 346 217 t b f;
#X msg 361 241 goto \$1;
#X msg 326 240 this;
#X obj 453 251 r \$0-patches_load;
#X obj 453 268 openpanel;
#X msg 527 302 read \$1;
#X msg 483 302 goto 0;
#X msg 453 302 this;
#X obj 80 406 route list;
#X msg 359 278 clear;
#X obj 453 285 t b b a b;
#X obj 36 33 r \$0-pitch;
#X obj 345 157 r \$0-samplay_patch-num;
#X obj 50 52 r \$0-samp_offset;
#X obj 122 17 r \$0-samp_num;
#X obj 115 73 r \$0-loop;
#X obj 511 197 symbol;
#X obj 521 167 inlet;
#X obj 169 44 r \$0-adsr_a;
#X obj 189 66 r \$0-adsr_d;
#X obj 209 91 r \$0-adsr_s;
#X obj 230 118 r \$0-adsr_r;
#X obj 468 523 * 100;
#X obj 299 95 r \$0-duration;
#X obj 403 92 r \$0-bank;
#X obj 64 500 s \$0-pitch;
#X obj 78 519 s \$0-samp_offset;
#X obj 166 500 s \$0-samp_num;
#X obj 283 496 s \$0-loop;
#X obj 340 528 s \$0-adsr_a;
#X obj 360 550 s \$0-adsr_d;
#X obj 468 559 s \$0-adsr_s_pc;
#X obj 516 520 s \$0-adsr_r;
#X obj 612 546 s \$0-duration;
#X obj 640 516 s \$0-bank;
#X obj 223 441 unpack f f f f f f f f f f;
#X obj 24 172 pack f f f f f f f f f f;
#X obj 674 63 inlet;
#X obj 684 311 random;
#X obj 336 186 moses 0;
#X obj 397 197 moses 1;
#X connect 0 0 50 0;
#X connect 1 0 0 0;
#X connect 2 0 3 0;
#X connect 3 0 13 0;
#X connect 3 1 4 0;
#X connect 4 0 22 0;
#X connect 5 0 4 0;
#X connect 6 0 5 0;
#X connect 7 0 9 0;
#X connect 7 0 52 1;
#X connect 7 0 54 1;
#X connect 7 1 49 0;
#X connect 8 0 4 0;
#X connect 9 0 10 1;
#X connect 10 0 11 0;
#X connect 11 0 4 0;
#X connect 12 0 4 0;
#X connect 13 0 10 0;
#X connect 13 1 12 0;
#X connect 13 2 8 0;
#X connect 14 0 16 0;
#X connect 14 1 15 0;
#X connect 15 0 4 0;
#X connect 16 0 4 0;
#X connect 17 0 18 0;
#X connect 18 0 24 0;
#X connect 19 0 4 0;
#X connect 20 0 4 0;
#X connect 21 0 4 0;
#X connect 22 0 7 0;
#X connect 23 0 4 0;
#X connect 24 0 21 0;
#X connect 24 1 20 0;
#X connect 24 2 19 0;
#X connect 24 3 23 0;
#X connect 25 0 0 1;
#X connect 26 0 53 0;
#X connect 27 0 50 1;
#X connect 28 0 50 2;
#X connect 29 0 50 3;
#X connect 30 0 24 0;
#X connect 31 0 30 0;
#X connect 32 0 50 4;
#X connect 33 0 50 5;
#X connect 34 0 50 6;
#X connect 35 0 50 7;
#X connect 36 0 45 0;
#X connect 37 0 50 8;
#X connect 38 0 50 9;
#X connect 49 0 39 0;
#X connect 49 1 40 0;
#X connect 49 2 41 0;
#X connect 49 3 42 0;
#X connect 49 4 43 0;
#X connect 49 5 44 0;
#X connect 49 6 36 0;
#X connect 49 7 46 0;
#X connect 49 8 47 0;
#X connect 49 9 48 0;
#X connect 50 0 2 0;
#X connect 51 0 52 0;
#X connect 52 0 14 0;
#X connect 53 1 54 0;
#X connect 54 0 14 0;
#X restore 494 311 pd patches;
#X obj 23 225 - 60;
#X obj 23 185 t b f;
#X msg 23 205 60;
#X obj 166 172 delay;
#X msg 204 172 stop;
#X obj 166 193 outlet;
#X text 210 193 done;
#X obj 23 425 tabread4~ s32-1-1;
#X obj 386 267 tabread sizes-32-1;
#X msg 63 185 1;
#X obj 736 58 inlet;
#X obj 509 267 r \$0-file_load;
#X obj 614 75 r \$0-poly;
#X obj 635 114 spigot;
#X obj 681 174 outlet;
#X obj 23 554 *~;
#N canvas 3 50 450 300 fwdrev 0;
#X obj 203 38 inlet;
#X obj 57 87 inlet;
#X msg 57 167 \$1 \, \$2 \$3;
#X msg 122 167 \$2 \, \$1 \$3;
#X obj 53 133 spigot;
#X obj 120 131 spigot;
#X msg 229 173 label fwd;
#X msg 300 168 label rev;
#X obj 201 62 select 0 1;
#X obj 238 247 s \$0-direction-set;
#X msg 168 216 0;
#X msg 177 111 1;
#X msg 176 134 0;
#X msg 91 110 0;
#X msg 95 133 1;
#X obj 168 196 loadbang;
#X obj 90 212 outlet;
#X connect 0 0 8 0;
#X connect 1 0 4 0;
#X connect 1 0 5 0;
#X connect 2 0 16 0;
#X connect 3 0 16 0;
#X connect 4 0 2 0;
#X connect 5 0 3 0;
#X connect 6 0 9 0;
#X connect 7 0 9 0;
#X connect 8 0 6 0;
#X connect 8 0 14 0;
#X connect 8 0 12 0;
#X connect 8 1 7 0;
#X connect 8 1 13 0;
#X connect 8 1 11 0;
#X connect 10 0 9 0;
#X connect 11 0 5 1;
#X connect 12 0 5 1;
#X connect 13 0 4 1;
#X connect 14 0 4 1;
#X connect 15 0 10 0;
#X restore 23 385 pd fwdrev;
#X obj 119 51 tgl 12 0 \$0-direction \$0-direction-set fwd 13 6 0 10
-13330 -204800 -13330 0 1;
#X obj 202 338 r \$0-loop;
#X obj 169 358 spigot;
#X obj 169 378 t b b;
#X obj 285 395 r \$0-direction_alt;
#X obj 252 416 spigot;
#X msg 296 441 0;
#X obj 296 421 loadbang;
#X obj 38 534 eadsr~;
#X obj 578 75 inlet;
#X floatatom 46 458 5 0 0 0 - - -;
#X floatatom 54 476 5 0 0 0 - - -;
#X floatatom 62 494 5 0 0 0 - - -;
#X floatatom 71 512 5 0 0 0 - - -;
#X obj 163 438 r \$0-adsr_a;
#X obj 163 457 r \$0-adsr_d;
#X obj 426 86 r \$0-adsr_s_pc;
#X obj 426 106 / 100;
#X obj 163 476 r \$0-adsr_s;
#X obj 163 495 r \$0-adsr_r;
#N canvas 9 100 450 300 init 0;
#X msg 64 145 1;
#X obj 199 84 loadbang;
#X msg 116 105 100;
#X msg 292 141 0;
#X obj 24 165 s \$0-samp_num;
#X obj 235 204 s \$0-bank;
#X obj 292 166 s \$0-samp_offset;
#X msg 199 125 set 60;
#X obj 198 145 s \$0-pitch;
#X obj 80 125 s \$0-adsr_s_pc;
#X msg 92 196 0;
#X obj 123 196 s \$0-duration;
#X obj 72 242 s \$0-poly;
#X obj 58 217 s \$0-direction-set;
#X obj 121 169 delay 60;
#X obj 282 83 inlet;
#X connect 0 0 4 0;
#X connect 1 0 2 0;
#X connect 1 0 3 0;
#X connect 1 0 7 0;
#X connect 1 0 0 0;
#X connect 1 0 14 0;
#X connect 2 0 9 0;
#X connect 3 0 6 0;
#X connect 3 0 5 0;
#X connect 7 0 8 0;
#X connect 10 0 11 0;
#X connect 10 0 12 0;
#X connect 10 0 13 0;
#X connect 14 0 10 0;
#X connect 15 0 3 0;
#X connect 15 0 2 0;
#X connect 15 0 0 0;
#X connect 15 0 10 0;
#X restore 1062 50 pd init;
#X msg 103 193 stop;
#X obj 679 114 r \$0-dur;
#X obj 23 90 r \$0-note;
#X obj 624 194 t b f;
#X obj 578 194 t b a;
#X obj 578 217 s \$0-note;
#X msg 81 139 start;
#X obj 256 222 t b f;
#X obj 386 154 r \$0-samp_num;
#X obj 400 187 r \$0-bank;
#X obj 400 207 + 1;
#X obj 400 227 makefilename sizes-32-%d;
#X msg 400 247 set \$1;
#X obj 313 259 loadbang;
#X obj 295 216 r \$0-bank;
#X obj 269 270 + 1;
#X obj 269 310 makesymbol s32-%s-%s;
#X obj 578 174 route note patch;
#X text 670 200 pass it on;
#X text 695 190 |;
#X text 696 188 ^;
#X text 434 15 pitch sample offset direction loop a d s r duration
bank;
#X text 434 2 notelist:;
#X text 560 59 notelist/patch;
#X text 722 41 global-set;
#X obj 426 126 s \$0-adsr_s;
#X obj 639 217 s \$0-samplay_patch-num;
#X obj 319 237 t b f;
#X obj 269 290 pack f 1;
#X obj 85 400 r \$0-direction;
#X obj 469 332 r \$0-duration;
#X obj 469 352 moses 1e-07;
#X obj 454 396 spigot;
#X obj 454 418 -;
#X msg 492 372 1;
#X msg 514 372 0;
#X obj 439 439 f;
#X obj 165 338 delay;
#X msg 203 317 stop;
#X obj 439 460 s \$0-dur;
#X obj 193 149 r \$0-dur;
#X obj 595 102 == 0;
#X obj 252 469 s \$0-direction-set;
#N canvas 13 94 450 300 poly2 0;
#X obj 50 14 inlet;
#X obj 111 81 t b a;
#X msg 187 4 1;
#X msg 220 69 0;
#X obj 50 43 spigot;
#X obj 301 59 spigot;
#X obj 301 80 outlet;
#X obj 226 2 delay;
#X msg 107 6 1;
#X obj 107 -11 loadbang;
#X obj 219 43 delay 0;
#X obj 338 39 == 0;
#X obj 252 -22 inlet;
#X text 254 -42 dur;
#X obj 112 133 outlet;
#X obj 228 137 delay 100;
#X obj 376 83 inlet;
#X connect 0 0 4 0;
#X connect 0 0 5 0;
#X connect 1 0 10 0;
#X connect 1 0 7 0;
#X connect 1 1 14 0;
#X connect 2 0 4 1;
#X connect 2 0 11 0;
#X connect 3 0 4 1;
#X connect 3 0 11 0;
#X connect 4 0 1 0;
#X connect 5 0 6 0;
#X connect 7 0 2 0;
#X connect 8 0 4 1;
#X connect 8 0 11 0;
#X connect 9 0 8 0;
#X connect 9 0 15 0;
#X connect 10 0 3 0;
#X connect 11 0 5 1;
#X connect 12 0 7 1;
#X connect 15 0 8 0;
#X connect 16 0 15 0;
#X restore 635 134 pd poly2;
#X obj 800 146 - 1;
#X obj 864 218 route a d s r;
#X obj 832 146 s \$0-file_load;
#X obj 834 238 moses 0;
#X obj 883 238 moses 0;
#X obj 932 238 moses 0;
#X obj 896 112 s \$0-samp_num;
#X obj 637 462 - 1;
#X obj 605 237 unpack f f f f f f f f f f f f;
#X obj 736 80 route poly alt bank file eg sample dur offset dir loop
;
#X obj 605 516 s \$0-pitch;
#X obj 621 499 s \$0-samp_num;
#X obj 637 482 s \$0-bank;
#X obj 653 442 s \$0-adsr_a;
#X obj 669 425 s \$0-adsr_d;
#X obj 685 408 s \$0-adsr_s_pc;
#X obj 701 391 s \$0-adsr_r;
#X obj 717 374 s \$0-duration;
#X obj 733 357 s \$0-samp_offset;
#X obj 765 323 s \$0-loop;
#X obj 749 340 s \$0-direction-set;
#X obj 782 306 s \$0-direction_alt;
#X obj 828 270 s \$0-adsr_a;
#X obj 922 295 s \$0-adsr_d;
#X obj 952 276 s \$0-adsr_s_pc;
#X obj 971 257 s \$0-adsr_r;
#X obj 736 197 s \$0-poly;
#X obj 768 180 s \$0-direction_alt;
#X obj 800 163 s \$0-bank;
#X obj 928 192 s \$0-duration;
#X obj 960 175 s \$0-samp_offset;
#X obj 1024 141 s \$0-loop;
#X obj 992 158 s \$0-direction-set;
#X obj 682 69 t b;
#X obj 683 91 delay 0;
#X obj 980 49 route reset;
#X obj 541 287 route randpat;
#X obj 523 152 route bang float;
#X obj 525 195 t b f;
#X obj 578 128 spigot 1;
#X connect 0 0 29 0;
#X connect 1 0 2 0;
#X connect 2 0 14 0;
#X connect 3 0 1 0;
#X connect 4 0 5 1;
#X connect 5 0 6 0;
#X connect 6 0 7 0;
#X connect 6 1 8 1;
#X connect 6 1 11 1;
#X connect 7 0 8 0;
#X connect 8 0 9 0;
#X connect 9 0 12 1;
#X connect 10 0 15 1;
#X connect 11 0 15 0;
#X connect 12 0 15 2;
#X connect 12 0 92 0;
#X connect 12 0 97 1;
#X connect 13 0 3 0;
#X connect 14 0 11 0;
#X connect 14 0 97 0;
#X connect 14 0 25 0;
#X connect 14 1 10 0;
#X connect 14 1 26 0;
#X connect 14 1 98 0;
#X connect 14 1 96 0;
#X connect 14 2 12 0;
#X connect 15 0 38 0;
#X connect 16 0 29 0;
#X connect 18 0 23 0;
#X connect 19 0 18 1;
#X connect 20 0 5 0;
#X connect 22 0 13 0;
#X connect 23 0 24 0;
#X connect 23 1 22 1;
#X connect 23 1 31 0;
#X connect 24 0 22 0;
#X connect 25 0 27 0;
#X connect 25 0 60 0;
#X connect 26 0 25 0;
#X connect 29 0 37 0;
#X connect 30 0 67 0;
#X connect 30 0 10 1;
#X connect 32 0 113 0;
#X connect 33 0 21 0;
#X connect 34 0 101 0;
#X connect 34 0 35 1;
#X connect 34 0 137 0;
#X connect 35 0 103 0;
#X connect 37 0 17 0;
#X connect 38 0 16 0;
#X connect 40 0 41 1;
#X connect 41 0 42 0;
#X connect 42 0 2 0;
#X connect 42 1 44 0;
#X connect 43 0 44 1;
#X connect 44 0 102 0;
#X connect 45 0 102 0;
#X connect 46 0 45 0;
#X connect 47 0 37 1;
#X connect 48 0 35 0;
#X connect 48 0 143 0;
#X connect 49 0 47 1;
#X connect 50 0 47 2;
#X connect 51 0 47 3;
#X connect 52 0 47 4;
#X connect 53 0 49 0;
#X connect 54 0 50 0;
#X connect 55 0 56 0;
#X connect 56 0 85 0;
#X connect 57 0 51 0;
#X connect 58 0 52 0;
#X connect 60 0 47 0;
#X connect 61 0 103 1;
#X connect 62 0 18 0;
#X connect 62 0 66 0;
#X connect 63 0 65 0;
#X connect 63 1 86 0;
#X connect 64 0 65 0;
#X connect 64 1 112 0;
#X connect 66 0 47 0;
#X connect 67 0 5 0;
#X connect 67 1 7 1;
#X connect 67 1 11 1;
#X connect 67 1 4 0;
#X connect 68 0 30 0;
#X connect 68 0 87 0;
#X connect 69 0 70 0;
#X connect 70 0 71 0;
#X connect 71 0 72 0;
#X connect 72 0 30 0;
#X connect 74 0 75 0;
#X connect 75 0 88 0;
#X connect 76 0 0 0;
#X connect 77 0 64 0;
#X connect 77 1 63 0;
#X connect 87 0 75 0;
#X connect 87 1 88 1;
#X connect 88 0 76 0;
#X connect 89 0 38 1;
#X connect 90 0 91 0;
#X connect 91 0 94 0;
#X connect 91 0 93 1;
#X connect 91 1 95 0;
#X connect 91 1 96 1;
#X connect 92 0 93 0;
#X connect 93 0 96 1;
#X connect 94 0 92 1;
#X connect 95 0 92 1;
#X connect 96 0 99 0;
#X connect 97 0 41 0;
#X connect 98 0 97 0;
#X connect 100 0 25 1;
#X connect 101 0 143 1;
#X connect 103 0 141 0;
#X connect 103 1 36 0;
#X connect 104 0 132 0;
#X connect 105 0 107 0;
#X connect 105 1 108 0;
#X connect 105 2 128 0;
#X connect 105 3 109 0;
#X connect 107 1 126 0;
#X connect 108 1 127 0;
#X connect 109 1 129 0;
#X connect 111 0 116 0;
#X connect 112 0 114 0;
#X connect 112 1 115 0;
#X connect 112 2 111 0;
#X connect 112 3 117 0;
#X connect 112 4 118 0;
#X connect 112 5 119 0;
#X connect 112 6 120 0;
#X connect 112 7 121 0;
#X connect 112 8 122 0;
#X connect 112 9 124 0;
#X connect 112 10 123 0;
#X connect 112 11 125 0;
#X connect 113 0 130 0;
#X connect 113 1 131 0;
#X connect 113 2 104 0;
#X connect 113 3 106 0;
#X connect 113 4 105 0;
#X connect 113 5 110 0;
#X connect 113 6 133 0;
#X connect 113 7 134 0;
#X connect 113 8 136 0;
#X connect 113 9 135 0;
#X connect 113 10 139 0;
#X connect 137 0 138 0;
#X connect 138 0 103 2;
#X connect 139 0 137 0;
#X connect 139 0 59 0;
#X connect 139 1 140 0;
#X connect 140 0 21 1;
#X connect 141 0 65 0;
#X connect 141 1 142 0;
#X connect 141 2 77 0;
#X connect 142 0 65 0;
#X connect 142 1 114 0;
#X connect 143 0 141 0;
#X coords 0 0 1 1 149 118 0;
