#N canvas 39 58 745 693 10;
#X msg 243 289 set \$1;
#X obj 71 258 exp;
#X floatatom 71 278 0 0 0 0 - - -;
#X obj 71 238 * 0.057762;
#X msg 376 309 set \$1;
#X obj 272 379 / 127;
#X obj 195 238 *;
#X obj 176 255 t b f;
#X obj 176 272 f;
#X obj 176 289 -;
#X obj 162 312 / 44.1;
#X obj 116 334 f;
#X obj 73 334 f;
#X obj 146 334 *;
#X floatatom 105 209 5 0 0 0 - - -;
#X obj 73 298 t b b f;
#X obj 74 354 pack f f f;
#X obj 73 399 line~;
#X obj 71 520 outlet~;
#X obj 281 12 cnv 15 102 128 empty empty samplay~ 3 8 0 8 -175104 -355
0;
#X obj 284 49 nbx 3 14 1 32 0 0 \$0-samp_num \$0-samp_num-set sample
0 -6 0 9 -225280 -1109 -1109 23 256;
#X obj 72 164 f;
#X obj 85 118 r \$0-pitch;
#X obj 15 79 route float bang;
#X obj 161 156 s \$0-pitch-set;
#X obj 284 74 nbx 4 14 0 128 0 0 \$0-pitch \$0-pitch-set pitch 0 -6
0 8 -225280 -1109 -1109 63 256;
#X obj 236 523 s \$0-pitch-set;
#X msg 236 486 60;
#X obj 284 99 nbx 4 14 0 127 0 0 \$0-samp_offset \$0-samp_offset-set
offset 0 -6 0 8 -225280 -1109 -1109 0 256;
#X obj 245 214 r \$0-samp_offset;
#X obj 416 210 r \$0-samp_num;
#N canvas 75 169 831 643 patches 0;
#X obj 24 140 f;
#X obj 21 97 r \$0-store_patch;
#X obj 22 199 prepend add;
#X obj 19 232 t b a;
#X obj 91 319 msgfile;
#X obj 356 382 spigot;
#X msg 400 381 0;
#X msg 401 364 1;
#X msg 172 289 add patches 0;
#X obj 169 251 loadbang;
#X obj 76 436 route patches;
#X msg 106 238 goto 0;
#X obj 34 297 + 1;
#X obj 18 314 f;
#X msg 18 367 replace patches \$1;
#X msg 69 288 this;
#X obj 18 262 t b b b;
#X msg 573 327 range 1 \$1;
#X obj 346 217 t b f;
#X msg 361 241 goto \$1;
#X msg 326 240 this;
#X obj 453 251 r \$0-patches_load;
#X obj 453 268 openpanel;
#X msg 527 302 read \$1;
#X msg 483 302 goto 0;
#X msg 453 302 this;
#X obj 633 181 r \$0-patches_save;
#X obj 633 209 savepanel;
#X obj 632 238 makesymbol %s.txt;
#X msg 628 262 write \$1;
#X obj 80 406 route list;
#X obj 281 171 r \$0-patches_clear;
#X obj 279 197 t b b;
#X msg 359 278 clear;
#X obj 453 285 t b b a b;
#X obj 36 33 r \$0-pitch;
#X obj 354 414 s \$0-samplay_patches-num;
#X obj 348 194 r \$0-samplay_patch-num;
#X obj 573 344 s \$0-samplay_patch-set;
#X obj 50 52 r \$0-samp_offset;
#X obj 122 17 r \$0-samp_num;
#X obj 78 519 s \$0-samp_offset-set;
#X obj 64 500 s \$0-pitch-set;
#X obj 166 500 s \$0-samp_num-set;
#X obj 151 103 r \$0-loop;
#X obj 283 496 s \$0-loop-set;
#X obj 24 172 pack f f f f f f;
#X obj 161 131 r \$0-decay;
#X obj 179 157 r \$0-trigs;
#X obj 100 465 unpack f f f f f f;
#X obj 379 496 s \$0-decay-set;
#X obj 478 495 s \$0-trigs-set;
#X obj 511 197 symbol;
#X obj 521 167 inlet;
#X connect 0 0 46 0;
#X connect 1 0 0 0;
#X connect 2 0 3 0;
#X connect 3 0 16 0;
#X connect 3 1 4 0;
#X connect 4 0 30 0;
#X connect 5 0 6 0;
#X connect 5 0 17 0;
#X connect 5 0 36 0;
#X connect 6 0 5 1;
#X connect 7 0 5 1;
#X connect 8 0 4 0;
#X connect 9 0 8 0;
#X connect 10 0 12 0;
#X connect 10 0 5 0;
#X connect 10 1 49 0;
#X connect 11 0 4 0;
#X connect 12 0 13 1;
#X connect 13 0 14 0;
#X connect 13 0 17 0;
#X connect 13 0 36 0;
#X connect 14 0 4 0;
#X connect 15 0 4 0;
#X connect 16 0 13 0;
#X connect 16 1 15 0;
#X connect 16 2 11 0;
#X connect 17 0 38 0;
#X connect 18 0 20 0;
#X connect 18 1 19 0;
#X connect 19 0 4 0;
#X connect 20 0 4 0;
#X connect 21 0 22 0;
#X connect 22 0 34 0;
#X connect 23 0 4 0;
#X connect 24 0 4 0;
#X connect 25 0 4 0;
#X connect 26 0 27 0;
#X connect 27 0 28 0;
#X connect 28 0 29 0;
#X connect 29 0 4 0;
#X connect 30 0 10 0;
#X connect 31 0 32 0;
#X connect 32 0 8 0;
#X connect 32 1 33 0;
#X connect 33 0 4 0;
#X connect 34 0 25 0;
#X connect 34 1 24 0;
#X connect 34 1 7 0;
#X connect 34 2 23 0;
#X connect 34 3 33 0;
#X connect 35 0 0 1;
#X connect 37 0 18 0;
#X connect 39 0 46 1;
#X connect 40 0 46 2;
#X connect 44 0 46 3;
#X connect 46 0 2 0;
#X connect 47 0 46 4;
#X connect 48 0 46 5;
#X connect 49 0 42 0;
#X connect 49 1 41 0;
#X connect 49 2 43 0;
#X connect 49 3 45 0;
#X connect 49 4 50 0;
#X connect 49 5 51 0;
#X connect 52 0 34 0;
#X connect 53 0 52 0;
#X restore 469 304 pd patches;
#X obj 348 25 nbx 3 10 0 120 0 0 \$0-saches-dummy \$0-samples-num empty
-8 -6 0 9 -257472 -1109 -90133 0 256;
#X obj 348 48 nbx 3 10 1 8 0 0 \$0-samplay_patch-num \$0-samplay_patch-set
select -2 -6 0 9 -128992 -262130 -90133 1 256;
#X obj 359 72 bng 12 250 50 0 \$0-store_patch \$0-store_patch-bng store
-7 -6 0 9 -158509 -62784 -90133;
#X obj 359 98 bng 12 250 50 0 \$0-patches_load \$0-patches_load-bng
load -5 -6 0 9 -126942 -13381 -13381;
#X obj 359 123 bng 12 250 50 0 \$0-patches_save \$0-patches_save-bng
save -5 -6 0 9 -227879 -86277 -86277;
#X obj 552 49 bng 12 250 50 0 \$0-patches_clear \$0-patches_clear-bng
clear -6 17 0 6 -257472 -62784 -90133;
#X obj 462 593 s \$0-samplay_patch-set;
#X obj 348 25 nbx 3 10 0 120 0 0 \$0-samplay_patches-dummy \$0-samplay_patches-num
patches -4 -6 0 9 -128992 -204786 -90133 0 256;
#X floatatom 331 377 5 0 0 0 - - -;
#X obj 157 472 delay;
#X msg 191 438 stop;
#X obj 144 445 t b b;
#X obj 179 537 outlet;
#X text 175 551 done;
#X obj 327 37 tgl 14 0 \$0-loop \$0-loop-set loop -3 -6 0 9 -225280
-1109 -1109 0 1;
#X obj 126 595 s \$0-samp_offset-set;
#X obj 445 394 s \$0-samp_offset-set;
#X obj 72 422 tabread4~ s32-1-1;
#X obj 325 351 tabread sizes-32-1;
#X obj 323 327 f;
#X obj 510 543 s \$0-samp_num-set;
#X obj 318 569 s \$0-samp_offset-set;
#X obj 332 542 t b;
#X obj 151 112 route pitch trig;
#X obj 186 133 s \$0-trig;
#X msg 585 109 1;
#X obj 100 474 line~;
#X obj 6 445 pack 0 f;
#X msg 6 421 0;
#X obj 7 318 r \$0-trig;
#X obj 9 359 sel 1 0;
#X msg 42 421 1;
#X obj 69 444 r \$0-decay;
#X obj 284 123 nbx 4 14 0.04 8000 1 0 \$0-decay \$0-decay-set decay
0 -6 0 8 -225280 -1109 -1109 0.04 256;
#X obj 3 380 r \$0-trigs;
#X obj 7 400 spigot;
#X obj 489 109 tgl 14 0 \$0-trigs \$0-trigs-set trigs 17 7 0 10 -225280
-1109 -1109 0 1;
#X obj 152 49 inlet;
#X obj 524 510 s \$0-samp_offset-set;
#X obj 474 567 s \$0-file_load;
#X obj 471 272 r \$0-file_load;
#X msg 121 564 1;
#X obj 236 464 delay 50;
#X obj 236 440 loadbang;
#X obj 82 621 s \$0-samp_num-set;
#X obj 31 36 inlet;
#X obj 7 470 sel 0;
#X msg 10 526 1;
#X obj 72 498 *~;
#X obj 7 503 loadbang;
#X obj 598 169 tgl 15 0 \$0-poly \$0-poly-set mono -4 -7 0 10 -99865
-262130 -33289 0 1;
#N canvas 18 119 450 300 fwdrev 0;
#X obj 203 38 inlet;
#X obj 57 87 inlet;
#X msg 57 167 \$1 \, \$2 \$3;
#X msg 122 167 \$2 \, \$1 \$3;
#X obj 53 133 spigot;
#X obj 120 131 spigot;
#X msg 229 173 label fwd;
#X msg 300 168 label rev;
#X obj 201 62 select 0 1;
#X obj 238 247 s \$0-direction-set;
#X msg 168 216 0;
#X msg 177 111 1;
#X msg 176 134 0;
#X msg 91 110 0;
#X msg 95 133 1;
#X obj 168 196 loadbang;
#X obj 90 212 outlet;
#X connect 0 0 8 0;
#X connect 1 0 4 0;
#X connect 1 0 5 0;
#X connect 2 0 16 0;
#X connect 3 0 16 0;
#X connect 4 0 2 0;
#X connect 5 0 3 0;
#X connect 6 0 9 0;
#X connect 7 0 9 0;
#X connect 8 0 6 0;
#X connect 8 0 14 0;
#X connect 8 0 12 0;
#X connect 8 1 7 0;
#X connect 8 1 13 0;
#X connect 8 1 11 0;
#X connect 10 0 9 0;
#X connect 11 0 5 1;
#X connect 12 0 5 1;
#X connect 13 0 4 1;
#X connect 14 0 4 1;
#X connect 15 0 10 0;
#X restore 73 376 pd fwdrev;
#X obj 328 94 tgl 12 0 \$0-direction \$0-direction-set fwd -3 -6 0
10 -13330 -204800 -13330 0 1;
#X obj 197 346 r \$0-direction;
#X obj 204 375 r \$0-loop;
#X obj 190 398 spigot;
#X obj 197 418 t b b;
#X obj 328 57 tgl 12 0 \$0-direction_alt \$0-direction_alt-set alt
-3 19 0 10 -13330 -204800 -13330 0 1;
#X obj 315 397 r \$0-direction_alt;
#X obj 252 416 spigot;
#X obj 328 496 s \$0-direction-set;
#X msg 343 474 0;
#X obj 318 434 loadbang;
#X msg 155 567 0;
#X obj 198 568 s \$0-loop-set;
#X obj 225 624 s \$0-direction_alt-set;
#X obj 275 604 s \$0-direction-set;
#X obj 285 27 hradio 8 1 0 4 \$0-bank \$0-bank-set empty 0 -8 0 10
-262144 -1 -1 0;
#X obj 249 169 r \$0-bank;
#X obj 243 262 makesymbol s32-%s-%s;
#X obj 303 288 makefilename sizes-32-%d;
#X obj 249 191 + 1;
#X obj 245 238 pack 1 f;
#X obj 375 242 t b b f;
#X obj 206 206 bng 15 250 50 0 empty empty empty 17 7 0 10 -262144
-1 -1;
#X obj 122 190 - 60;
#X obj 545 490 s \$0-decay-set;
#X obj 156 214 bng 15 250 50 0 empty empty empty 17 7 0 10 -262144
-1 -1;
#X msg 118 165 60;
#X obj 112 146 t b f;
#X obj 15 123 t b f;
#X obj 137 393 del 0;
#X obj 565 470 s \$0-loop-set;
#X msg 144 497 end;
#N canvas 0 0 450 300 auto-out 0;
#X obj 36 77 r \$0-pitch;
#X obj 197 79 r \$0-samp_num;
#X obj 305 79 r \$0-file_load;
#X obj 78 115 r \$0-direction;
#X obj 177 114 r \$0-loop;
#X obj 258 115 r \$0-direction_alt;
#X obj 120 78 r \$0-bank;
#X obj 226 11 inlet;
#X msg 35 143 pitch \$1;
#X msg 125 146 bank \$1;
#X msg 91 170 dir \$1;
#X msg 181 169 loop \$1;
#X msg 246 153 alt \$1;
#X msg 235 185 sample \$1;
#X msg 311 192 file \$1;
#X msg 230 52 trig;
#X obj 131 221 outlet;
#X msg 225 259 patches \$1;
#X obj 225 239 r \$0-patches-num;
#X obj 333 240 r \$0-patch-num;
#X msg 333 260 patch \$1;
#X connect 0 0 8 0;
#X connect 1 0 13 0;
#X connect 2 0 14 0;
#X connect 3 0 10 0;
#X connect 4 0 11 0;
#X connect 5 0 12 0;
#X connect 6 0 9 0;
#X connect 7 0 15 0;
#X connect 8 0 16 0;
#X connect 9 0 16 0;
#X connect 10 0 16 0;
#X connect 11 0 16 0;
#X connect 12 0 16 0;
#X connect 13 0 16 0;
#X connect 14 0 16 0;
#X connect 15 0 16 0;
#X connect 17 0 16 0;
#X connect 18 0 17 0;
#X connect 19 0 20 0;
#X connect 20 0 16 0;
#X restore 125 517 pd auto-out;
#X obj 380 443 route patch file sample offset decay loop alt dir bank
;
#X obj 623 543 s \$0-bank-set;
#X connect 0 0 49 0;
#X connect 1 0 2 0;
#X connect 2 0 15 0;
#X connect 3 0 1 0;
#X connect 4 0 50 0;
#X connect 5 0 6 1;
#X connect 6 0 7 0;
#X connect 7 0 8 0;
#X connect 7 1 9 1;
#X connect 7 1 12 1;
#X connect 8 0 9 0;
#X connect 9 0 10 0;
#X connect 10 0 13 1;
#X connect 11 0 16 1;
#X connect 12 0 16 0;
#X connect 13 0 16 2;
#X connect 13 0 41 1;
#X connect 14 0 3 0;
#X connect 15 0 12 0;
#X connect 15 1 11 0;
#X connect 15 2 13 0;
#X connect 16 0 83 0;
#X connect 17 0 49 0;
#X connect 21 0 111 0;
#X connect 22 0 21 1;
#X connect 23 0 43 0;
#X connect 23 0 112 0;
#X connect 23 1 21 0;
#X connect 23 1 43 0;
#X connect 23 1 54 0;
#X connect 23 1 24 0;
#X connect 23 1 116 0;
#X connect 27 0 26 0;
#X connect 29 0 6 0;
#X connect 30 0 105 0;
#X connect 41 0 87 0;
#X connect 41 0 115 0;
#X connect 42 0 41 0;
#X connect 43 0 41 0;
#X connect 43 1 42 0;
#X connect 49 0 80 0;
#X connect 50 0 5 0;
#X connect 50 0 8 1;
#X connect 50 0 11 1;
#X connect 50 0 40 0;
#X connect 51 0 50 0;
#X connect 54 0 53 0;
#X connect 55 0 24 0;
#X connect 55 1 56 0;
#X connect 55 1 116 0;
#X connect 55 2 117 0;
#X connect 58 0 80 1;
#X connect 59 0 58 0;
#X connect 60 0 59 0;
#X connect 61 0 62 0;
#X connect 62 0 63 0;
#X connect 62 0 54 0;
#X connect 62 0 43 0;
#X connect 62 0 21 0;
#X connect 62 1 67 0;
#X connect 63 0 58 0;
#X connect 64 0 59 1;
#X connect 66 0 67 1;
#X connect 66 0 78 0;
#X connect 67 0 60 0;
#X connect 69 0 55 0;
#X connect 72 0 31 0;
#X connect 73 0 76 0;
#X connect 74 0 27 0;
#X connect 74 0 54 0;
#X connect 74 0 73 0;
#X connect 74 0 95 0;
#X connect 75 0 74 0;
#X connect 77 0 23 0;
#X connect 78 0 79 0;
#X connect 79 0 58 0;
#X connect 80 0 18 0;
#X connect 81 0 79 0;
#X connect 83 0 17 0;
#X connect 85 0 83 1;
#X connect 86 0 87 1;
#X connect 87 0 88 0;
#X connect 88 0 2 0;
#X connect 88 0 113 0;
#X connect 88 1 91 0;
#X connect 90 0 91 1;
#X connect 91 0 92 0;
#X connect 93 0 92 0;
#X connect 94 0 93 0;
#X connect 95 0 47 0;
#X connect 95 0 96 0;
#X connect 95 0 97 0;
#X connect 95 0 98 0;
#X connect 100 0 103 0;
#X connect 101 0 0 0;
#X connect 102 0 4 0;
#X connect 103 0 104 0;
#X connect 103 0 102 0;
#X connect 104 0 101 0;
#X connect 105 0 48 0;
#X connect 105 1 104 0;
#X connect 105 2 104 1;
#X connect 105 2 51 0;
#X connect 107 0 14 0;
#X connect 110 0 107 0;
#X connect 111 0 110 0;
#X connect 111 1 107 1;
#X connect 112 0 21 0;
#X connect 112 0 54 0;
#X connect 112 1 24 0;
#X connect 113 0 41 0;
#X connect 115 0 44 0;
#X connect 116 0 44 0;
#X connect 117 0 38 0;
#X connect 117 1 71 0;
#X connect 117 2 52 0;
#X connect 117 3 70 0;
#X connect 117 4 108 0;
#X connect 117 5 114 0;
#X connect 117 6 97 0;
#X connect 117 7 98 0;
#X connect 117 8 118 0;
#X coords 0 -1 1 1 104 134 1 280 9;
