#N canvas 9 74 1222 637 10;
#X obj 49 595 dac~;
#X obj 60 58 playlist all 400 100 {Helvetica 10 bold} #457782 yellow
black red;
#X obj 55 212 cup;
#X msg 220 185 1;
#X obj 185 216 loadbang;
#X obj 79 211 == 32;
#X obj 79 232 sel 1;
#X obj 121 210 del 0;
#X obj 539 595 dac~;
#X obj 61 179 t a b;
#X obj 60 253 pack s f;
#X msg 116 273 load \$1 \$2;
#X obj 490 58 playlist all 400 100 {Helvetica 10 bold} #457782 yellow
black red;
#X obj 485 212 cup;
#X msg 650 185 1;
#X obj 615 216 loadbang;
#X obj 509 211 == 32;
#X obj 509 232 sel 1;
#X obj 551 210 del 0;
#X obj 491 179 t a b;
#X obj 490 253 pack s f;
#X msg 546 273 load \$1 \$2;
#X obj 552 295 samplebox_2~;
#X obj 60 293 samplebox_1~;
#X obj 49 1195 dac~;
#X obj 60 658 playlist all 400 100 {Helvetica 10 bold} #457782 yellow
black red;
#X obj 55 812 cup;
#X msg 220 785 1;
#X obj 185 816 loadbang;
#X obj 79 811 == 32;
#X obj 79 832 sel 1;
#X obj 121 810 del 0;
#X obj 539 1195 dac~;
#X obj 61 779 t a b;
#X obj 60 853 pack s f;
#X msg 116 873 load \$1 \$2;
#X obj 490 658 playlist all 400 100 {Helvetica 10 bold} #457782 yellow
black red;
#X obj 485 812 cup;
#X msg 650 785 1;
#X obj 615 816 loadbang;
#X obj 509 811 == 32;
#X obj 509 832 sel 1;
#X obj 551 810 del 0;
#X obj 491 779 t a b;
#X obj 490 853 pack s f;
#X msg 546 873 load \$1 \$2;
#X obj 552 895 samplebox_4~;
#X obj 60 893 samplebox_3~;
#X text 15 20 set to your chosen location-->;
#X msg 204 19 location /media/BIG/Samples;
#X msg 455 18 location /media/BIG/SampleCDs;
#X msg 282 623 location /media/BIG/Samples;
#X connect 1 0 9 0;
#X connect 2 0 5 0;
#X connect 2 0 10 1;
#X connect 3 0 2 0;
#X connect 4 0 3 0;
#X connect 5 0 6 0;
#X connect 6 0 7 0;
#X connect 7 0 3 0;
#X connect 9 0 10 0;
#X connect 9 1 2 0;
#X connect 10 0 11 0;
#X connect 11 0 23 0;
#X connect 12 0 19 0;
#X connect 13 0 16 0;
#X connect 13 0 20 1;
#X connect 14 0 13 0;
#X connect 15 0 14 0;
#X connect 16 0 17 0;
#X connect 17 0 18 0;
#X connect 18 0 14 0;
#X connect 19 0 20 0;
#X connect 19 1 13 0;
#X connect 20 0 21 0;
#X connect 21 0 22 0;
#X connect 22 0 8 0;
#X connect 22 0 8 1;
#X connect 23 0 0 0;
#X connect 23 0 0 1;
#X connect 25 0 33 0;
#X connect 26 0 29 0;
#X connect 26 0 34 1;
#X connect 27 0 26 0;
#X connect 28 0 27 0;
#X connect 29 0 30 0;
#X connect 30 0 31 0;
#X connect 31 0 27 0;
#X connect 33 0 34 0;
#X connect 33 1 26 0;
#X connect 34 0 35 0;
#X connect 35 0 47 0;
#X connect 36 0 43 0;
#X connect 37 0 40 0;
#X connect 37 0 44 1;
#X connect 38 0 37 0;
#X connect 39 0 38 0;
#X connect 40 0 41 0;
#X connect 41 0 42 0;
#X connect 42 0 38 0;
#X connect 43 0 44 0;
#X connect 43 1 37 0;
#X connect 44 0 45 0;
#X connect 45 0 46 0;
#X connect 46 0 32 0;
#X connect 46 0 32 1;
#X connect 47 0 24 0;
#X connect 47 0 24 1;
#X connect 49 0 1 0;
#X connect 49 0 12 0;
#X connect 50 0 12 0;
#X connect 50 0 1 0;
#X connect 51 0 25 0;
#X connect 51 0 36 0;
