#N canvas 138 156 1055 400 10;
#X obj 11 27 cnv 15 402 251 empty empty empty 8 6 0 10 -203941 -83269
0;
#X obj 414 13 cnv 15 72 265 empty empty empty 20 12 0 14 -224677 -66577
0;
#N canvas 0 22 450 300 (subpatch) 0;
#X array sizes-32-4 33 float 2;
#X coords 1 441000 32 -1 64 60 1;
#X restore 417 212 graph;
#X obj 800 272 outlet;
#X obj 576 344 outlet~;
#X obj 436 143 tgl 28 0 \$0-monitor empty audio_out -8 -6 0 8 -257472
-90133 -90133 0 1;
#X obj 675 27 inlet;
#X obj 436 38 bng 28 250 50 0 \$0-save_all empty Save_bank -14 -5 0
10 -258113 -257985 -86277;
#X obj 576 131 openpanel;
#X obj 576 165 pack s s;
#X msg 576 184 read -resize \$1 \$2;
#X obj 576 203 soundfiler;
#X obj 576 88 t b f f;
#N canvas 209 592 740 248 loadsave 0;
#X obj 22 88 msgfile;
#X msg 365 173 bang;
#X msg 201 41 goto \$1;
#X msg 252 41 delete \$1;
#X msg 22 71 insert \$1 \$2;
#X obj 22 54 inlet;
#X obj 201 7 inlet;
#X obj 252 7 inlet;
#X obj 22 207 outlet;
#X msg 145 88 clear;
#X obj 115 41 t b b;
#X obj 252 24 - 1;
#X obj 201 24 - 1;
#X msg 520 71 write \$1;
#X obj 520 37 inlet;
#X obj 520 54 savepanel;
#X obj 585 16 inlet;
#X obj 585 33 openpanel;
#X msg 586 71 read \$1;
#X msg 641 71 rewind;
#X obj 423 88 inlet;
#X obj 365 105 spigot;
#X msg 604 88 1;
#X msg 446 122 0;
#X obj 365 122 t b;
#X obj 585 50 t b b a b;
#X msg 689 71 clear;
#X obj 22 105 route list;
#X obj 22 190 pack s s;
#X obj 365 156 t b f;
#X obj 423 139 f;
#X msg 423 122 1;
#X obj 365 88 pipe 200;
#X obj 395 190 outlet;
#X msg 176 129 print;
#X obj 623 166 outlet;
#X obj 93 173 makefilename s32-4-%d;
#X obj 352 24 r \$0-reset;
#X obj 115 24 delay 500;
#X obj 115 7 loadbang;
#X obj 672 12 inlet;
#X msg 96 132 add 0;
#X obj 115 65 kalashnikov 32;
#X msg 475 126 1;
#X obj 480 147 == 32;
#X obj 480 164 sel 1;
#X obj 480 181 del 0;
#X obj 365 139 cup;
#X obj 672 33 symbol;
#X obj 22 151 unpack s s;
#X obj 441 22 r \$0-rewrite;
#X obj 324 46 r \$0-write_list;
#X symbolatom 275 81 10 0 0 0 - - -;
#X obj 259 61 r \$0-directory;
#X obj 362 67 makesymbol %s/list.txt;
#X obj 90 207 print sample32-4;
#X connect 0 0 27 0;
#X connect 1 0 0 0;
#X connect 2 0 0 0;
#X connect 3 0 0 0;
#X connect 4 0 0 0;
#X connect 5 0 4 0;
#X connect 6 0 12 0;
#X connect 7 0 11 0;
#X connect 9 0 0 0;
#X connect 10 0 42 0;
#X connect 10 1 9 0;
#X connect 11 0 3 0;
#X connect 12 0 2 0;
#X connect 13 0 0 0;
#X connect 14 0 15 0;
#X connect 15 0 13 0;
#X connect 15 0 35 0;
#X connect 16 0 17 0;
#X connect 17 0 25 0;
#X connect 18 0 0 0;
#X connect 19 0 0 0;
#X connect 20 0 32 0;
#X connect 21 0 24 0;
#X connect 21 0 23 0;
#X connect 22 0 21 1;
#X connect 23 0 30 1;
#X connect 24 0 47 0;
#X connect 25 0 24 0;
#X connect 25 1 19 0;
#X connect 25 1 22 0;
#X connect 25 1 31 0;
#X connect 25 2 18 0;
#X connect 25 2 35 0;
#X connect 25 3 26 0;
#X connect 25 3 43 0;
#X connect 26 0 0 0;
#X connect 27 0 49 0;
#X connect 27 1 21 0;
#X connect 28 0 8 0;
#X connect 28 0 55 0;
#X connect 29 0 1 0;
#X connect 29 1 33 0;
#X connect 29 1 36 0;
#X connect 30 0 21 1;
#X connect 31 0 30 0;
#X connect 32 0 21 0;
#X connect 34 0 0 0;
#X connect 36 0 28 1;
#X connect 37 0 10 0;
#X connect 38 0 10 0;
#X connect 39 0 38 0;
#X connect 40 0 48 0;
#X connect 41 0 0 0;
#X connect 42 0 41 0;
#X connect 43 0 47 0;
#X connect 44 0 45 0;
#X connect 45 0 46 0;
#X connect 46 0 30 0;
#X connect 47 0 29 0;
#X connect 47 0 44 0;
#X connect 48 0 25 0;
#X connect 49 0 28 0;
#X connect 50 0 13 0;
#X connect 51 0 52 0;
#X connect 52 0 54 0;
#X connect 53 0 52 0;
#X connect 54 0 13 0;
#X restore 710 182 pd loadsave;
#X obj 695 220 s \$0-soundfile;
#X obj 746 131 r \$0-soundfile;
#X obj 576 317 *~ 0;
#X obj 566 223 tabwrite sizes-32-4;
#X obj 627 105 makefilename s32-4-%d;
#X obj 576 297 tabplay~ s32-4-1;
#X obj 810 322 switch~;
#X obj 737 297 r \$0-monitor;
#X obj 758 148 r \$0-savebank;
#X obj 777 165 r \$0-loadbank;
#N canvas 9 100 1152 312 loadroutes 0;
#X obj 69 74 r \$0-loadsample_1;
#X msg 69 91 1;
#X obj 92 91 r \$0-loadsample_2;
#X msg 92 108 2;
#X obj 115 108 r \$0-loadsample_3;
#X obj 146 125 r \$0-loadsample_4;
#X msg 146 142 4;
#X msg 115 125 3;
#X msg 169 159 5;
#X msg 192 176 6;
#X msg 246 210 8;
#X msg 215 193 7;
#X obj 330 66 r \$0-loadsample_9;
#X obj 353 83 r \$0-loadsample_10;
#X obj 376 100 r \$0-loadsample_11;
#X obj 407 117 r \$0-loadsample_12;
#X obj 430 134 r \$0-loadsample_13;
#X obj 453 151 r \$0-loadsample_14;
#X obj 476 168 r \$0-loadsample_15;
#X obj 507 185 r \$0-loadsample_16;
#X msg 330 83 9;
#X msg 353 100 10;
#X msg 376 117 11;
#X msg 407 134 12;
#X msg 430 151 13;
#X msg 453 168 14;
#X msg 476 185 15;
#X msg 507 202 16;
#X obj 569 56 r \$0-loadsample_17;
#X obj 592 73 r \$0-loadsample_18;
#X obj 615 90 r \$0-loadsample_19;
#X obj 646 107 r \$0-loadsample_20;
#X obj 669 124 r \$0-loadsample_21;
#X obj 692 141 r \$0-loadsample_22;
#X obj 715 158 r \$0-loadsample_23;
#X obj 746 175 r \$0-loadsample_24;
#X obj 169 142 r \$0-loadsample_5;
#X obj 192 159 r \$0-loadsample_6;
#X obj 215 176 r \$0-loadsample_7;
#X obj 246 193 r \$0-loadsample_8;
#X obj 830 48 r \$0-loadsample_25;
#X obj 853 65 r \$0-loadsample_26;
#X obj 876 82 r \$0-loadsample_27;
#X obj 907 99 r \$0-loadsample_28;
#X obj 930 116 r \$0-loadsample_29;
#X obj 953 133 r \$0-loadsample_30;
#X obj 976 150 r \$0-loadsample_31;
#X obj 1007 167 r \$0-loadsample_32;
#X msg 569 73 17;
#X msg 592 90 18;
#X msg 615 107 19;
#X msg 646 124 20;
#X msg 669 141 21;
#X msg 692 158 22;
#X msg 715 175 23;
#X msg 746 192 24;
#X msg 830 65 25;
#X msg 853 82 26;
#X msg 876 99 27;
#X msg 907 116 28;
#X msg 930 133 29;
#X msg 953 150 30;
#X msg 976 167 31;
#X msg 1007 184 32;
#X obj 330 258 f;
#X obj 569 239 f;
#X obj 830 240 f;
#X obj 69 257 f;
#X obj 328 284 outlet;
#X connect 0 0 1 0;
#X connect 1 0 67 0;
#X connect 2 0 3 0;
#X connect 3 0 67 0;
#X connect 4 0 7 0;
#X connect 5 0 6 0;
#X connect 6 0 67 0;
#X connect 7 0 67 0;
#X connect 8 0 67 0;
#X connect 9 0 67 0;
#X connect 10 0 67 0;
#X connect 11 0 67 0;
#X connect 12 0 20 0;
#X connect 13 0 21 0;
#X connect 14 0 22 0;
#X connect 15 0 23 0;
#X connect 16 0 24 0;
#X connect 17 0 25 0;
#X connect 18 0 26 0;
#X connect 19 0 27 0;
#X connect 20 0 64 0;
#X connect 21 0 64 0;
#X connect 22 0 64 0;
#X connect 23 0 64 0;
#X connect 24 0 64 0;
#X connect 25 0 64 0;
#X connect 26 0 64 0;
#X connect 27 0 64 0;
#X connect 28 0 48 0;
#X connect 29 0 49 0;
#X connect 30 0 50 0;
#X connect 31 0 51 0;
#X connect 32 0 52 0;
#X connect 33 0 53 0;
#X connect 34 0 54 0;
#X connect 35 0 55 0;
#X connect 36 0 8 0;
#X connect 37 0 9 0;
#X connect 38 0 11 0;
#X connect 39 0 10 0;
#X connect 40 0 56 0;
#X connect 41 0 57 0;
#X connect 42 0 58 0;
#X connect 43 0 59 0;
#X connect 44 0 60 0;
#X connect 45 0 61 0;
#X connect 46 0 62 0;
#X connect 47 0 63 0;
#X connect 48 0 65 0;
#X connect 49 0 65 0;
#X connect 50 0 65 0;
#X connect 51 0 65 0;
#X connect 52 0 65 0;
#X connect 53 0 65 0;
#X connect 54 0 65 0;
#X connect 55 0 65 0;
#X connect 56 0 66 0;
#X connect 57 0 66 0;
#X connect 58 0 66 0;
#X connect 59 0 66 0;
#X connect 60 0 66 0;
#X connect 61 0 66 0;
#X connect 62 0 66 0;
#X connect 63 0 66 0;
#X connect 64 0 68 0;
#X connect 65 0 68 0;
#X connect 66 0 68 0;
#X connect 67 0 68 0;
#X restore 576 67 pd loadroutes;
#N canvas 6 75 1152 453 playroutes 0;
#X obj 69 74 r \$0-playsample_1;
#X msg 69 91 1;
#X obj 92 91 r \$0-playsample_2;
#X msg 92 108 2;
#X obj 115 108 r \$0-playsample_3;
#X obj 146 125 r \$0-playsample_4;
#X msg 146 142 4;
#X msg 115 125 3;
#X msg 169 159 5;
#X msg 192 176 6;
#X msg 246 210 8;
#X msg 215 193 7;
#X obj 330 66 r \$0-playsample_9;
#X obj 353 83 r \$0-playsample_10;
#X obj 376 100 r \$0-playsample_11;
#X obj 407 117 r \$0-playsample_12;
#X obj 430 134 r \$0-playsample_13;
#X obj 453 151 r \$0-playsample_14;
#X obj 476 168 r \$0-playsample_15;
#X obj 507 185 r \$0-playsample_16;
#X msg 330 83 9;
#X msg 353 100 10;
#X msg 376 117 11;
#X msg 407 134 12;
#X msg 430 151 13;
#X msg 453 168 14;
#X msg 476 185 15;
#X msg 507 202 16;
#X obj 569 56 r \$0-playsample_17;
#X obj 592 73 r \$0-playsample_18;
#X obj 615 90 r \$0-playsample_19;
#X obj 646 107 r \$0-playsample_20;
#X obj 669 124 r \$0-playsample_21;
#X obj 692 141 r \$0-playsample_22;
#X obj 715 158 r \$0-playsample_23;
#X obj 746 175 r \$0-playsample_24;
#X obj 169 142 r \$0-playsample_5;
#X obj 192 159 r \$0-playsample_6;
#X obj 215 176 r \$0-playsample_7;
#X obj 246 193 r \$0-playsample_8;
#X obj 830 48 r \$0-playsample_25;
#X obj 853 65 r \$0-playsample_26;
#X obj 876 82 r \$0-playsample_27;
#X obj 907 99 r \$0-playsample_28;
#X obj 930 116 r \$0-playsample_29;
#X obj 953 133 r \$0-playsample_30;
#X obj 976 150 r \$0-playsample_31;
#X obj 1007 167 r \$0-playsample_32;
#X msg 569 73 17;
#X msg 592 90 18;
#X msg 615 107 19;
#X msg 646 124 20;
#X msg 669 141 21;
#X msg 692 158 22;
#X msg 715 175 23;
#X msg 746 192 24;
#X msg 830 65 25;
#X msg 853 82 26;
#X msg 876 99 27;
#X msg 907 116 28;
#X msg 930 133 29;
#X msg 953 150 30;
#X msg 976 167 31;
#X msg 1007 184 32;
#X obj 69 257 f;
#X obj 330 258 f;
#X obj 569 239 f;
#X obj 830 240 f;
#X obj 469 281 t b f;
#X obj 499 301 makefilename s32-4-%d;
#X msg 499 318 set \$1;
#X obj 469 354 outlet;
#X obj 470 241 inlet;
#X connect 0 0 1 0;
#X connect 1 0 64 0;
#X connect 2 0 3 0;
#X connect 3 0 64 0;
#X connect 4 0 7 0;
#X connect 5 0 6 0;
#X connect 6 0 64 0;
#X connect 7 0 64 0;
#X connect 8 0 64 0;
#X connect 9 0 64 0;
#X connect 10 0 64 0;
#X connect 11 0 64 0;
#X connect 12 0 20 0;
#X connect 13 0 21 0;
#X connect 14 0 22 0;
#X connect 15 0 23 0;
#X connect 16 0 24 0;
#X connect 17 0 25 0;
#X connect 18 0 26 0;
#X connect 19 0 27 0;
#X connect 20 0 65 0;
#X connect 21 0 65 0;
#X connect 22 0 65 0;
#X connect 23 0 65 0;
#X connect 24 0 65 0;
#X connect 25 0 65 0;
#X connect 26 0 65 0;
#X connect 27 0 65 0;
#X connect 28 0 48 0;
#X connect 29 0 49 0;
#X connect 30 0 50 0;
#X connect 31 0 51 0;
#X connect 32 0 52 0;
#X connect 33 0 53 0;
#X connect 34 0 54 0;
#X connect 35 0 55 0;
#X connect 36 0 8 0;
#X connect 37 0 9 0;
#X connect 38 0 11 0;
#X connect 39 0 10 0;
#X connect 40 0 56 0;
#X connect 41 0 57 0;
#X connect 42 0 58 0;
#X connect 43 0 59 0;
#X connect 44 0 60 0;
#X connect 45 0 61 0;
#X connect 46 0 62 0;
#X connect 47 0 63 0;
#X connect 48 0 66 0;
#X connect 49 0 66 0;
#X connect 50 0 66 0;
#X connect 51 0 66 0;
#X connect 52 0 66 0;
#X connect 53 0 66 0;
#X connect 54 0 66 0;
#X connect 55 0 66 0;
#X connect 56 0 67 0;
#X connect 57 0 67 0;
#X connect 58 0 67 0;
#X connect 59 0 67 0;
#X connect 60 0 67 0;
#X connect 61 0 67 0;
#X connect 62 0 67 0;
#X connect 63 0 67 0;
#X connect 64 0 68 0;
#X connect 65 0 68 0;
#X connect 66 0 68 0;
#X connect 67 0 68 0;
#X connect 68 0 71 0;
#X connect 68 1 69 0;
#X connect 69 0 70 0;
#X connect 70 0 71 0;
#X connect 72 0 68 0;
#X restore 576 278 pd playroutes;
#N canvas 9 100 1152 312 normroutes 0;
#X obj 69 74 r \$0-normsample_1;
#X msg 69 91 1;
#X obj 92 91 r \$0-normsample_2;
#X msg 92 108 2;
#X obj 115 108 r \$0-normsample_3;
#X obj 146 125 r \$0-normsample_4;
#X msg 146 142 4;
#X msg 115 125 3;
#X msg 169 159 5;
#X msg 192 176 6;
#X msg 246 210 8;
#X msg 215 193 7;
#X obj 330 66 r \$0-normsample_9;
#X obj 353 83 r \$0-normsample_10;
#X obj 376 100 r \$0-normsample_11;
#X obj 407 117 r \$0-normsample_12;
#X obj 430 134 r \$0-normsample_13;
#X obj 453 151 r \$0-normsample_14;
#X obj 476 168 r \$0-normsample_15;
#X obj 507 185 r \$0-normsample_16;
#X msg 330 83 9;
#X msg 353 100 10;
#X msg 376 117 11;
#X msg 407 134 12;
#X msg 430 151 13;
#X msg 453 168 14;
#X msg 476 185 15;
#X msg 507 202 16;
#X obj 569 56 r \$0-normsample_17;
#X obj 592 73 r \$0-normsample_18;
#X obj 615 90 r \$0-normsample_19;
#X obj 646 107 r \$0-normsample_20;
#X obj 669 124 r \$0-normsample_21;
#X obj 692 141 r \$0-normsample_22;
#X obj 715 158 r \$0-normsample_23;
#X obj 746 175 r \$0-normsample_24;
#X obj 169 142 r \$0-normsample_5;
#X obj 192 159 r \$0-normsample_6;
#X obj 215 176 r \$0-normsample_7;
#X obj 246 193 r \$0-normsample_8;
#X obj 830 48 r \$0-normsample_25;
#X obj 853 65 r \$0-normsample_26;
#X obj 876 82 r \$0-normsample_27;
#X obj 907 99 r \$0-normsample_28;
#X obj 930 116 r \$0-normsample_29;
#X obj 953 133 r \$0-normsample_30;
#X obj 976 150 r \$0-normsample_31;
#X obj 1007 167 r \$0-normsample_32;
#X msg 569 73 17;
#X msg 592 90 18;
#X msg 615 107 19;
#X msg 646 124 20;
#X msg 669 141 21;
#X msg 692 158 22;
#X msg 715 175 23;
#X msg 746 192 24;
#X msg 830 65 25;
#X msg 853 82 26;
#X msg 876 99 27;
#X msg 907 116 28;
#X msg 930 133 29;
#X msg 953 150 30;
#X msg 976 167 31;
#X msg 1007 184 32;
#X obj 69 257 f;
#X obj 330 258 f;
#X obj 569 239 f;
#X obj 830 240 f;
#X obj 481 284 outlet;
#X connect 0 0 1 0;
#X connect 1 0 64 0;
#X connect 2 0 3 0;
#X connect 3 0 64 0;
#X connect 4 0 7 0;
#X connect 5 0 6 0;
#X connect 6 0 64 0;
#X connect 7 0 64 0;
#X connect 8 0 64 0;
#X connect 9 0 64 0;
#X connect 10 0 64 0;
#X connect 11 0 64 0;
#X connect 12 0 20 0;
#X connect 13 0 21 0;
#X connect 14 0 22 0;
#X connect 15 0 23 0;
#X connect 16 0 24 0;
#X connect 17 0 25 0;
#X connect 18 0 26 0;
#X connect 19 0 27 0;
#X connect 20 0 65 0;
#X connect 21 0 65 0;
#X connect 22 0 65 0;
#X connect 23 0 65 0;
#X connect 24 0 65 0;
#X connect 25 0 65 0;
#X connect 26 0 65 0;
#X connect 27 0 65 0;
#X connect 28 0 48 0;
#X connect 29 0 49 0;
#X connect 30 0 50 0;
#X connect 31 0 51 0;
#X connect 32 0 52 0;
#X connect 33 0 53 0;
#X connect 34 0 54 0;
#X connect 35 0 55 0;
#X connect 36 0 8 0;
#X connect 37 0 9 0;
#X connect 38 0 11 0;
#X connect 39 0 10 0;
#X connect 40 0 56 0;
#X connect 41 0 57 0;
#X connect 42 0 58 0;
#X connect 43 0 59 0;
#X connect 44 0 60 0;
#X connect 45 0 61 0;
#X connect 46 0 62 0;
#X connect 47 0 63 0;
#X connect 48 0 66 0;
#X connect 49 0 66 0;
#X connect 50 0 66 0;
#X connect 51 0 66 0;
#X connect 52 0 66 0;
#X connect 53 0 66 0;
#X connect 54 0 66 0;
#X connect 55 0 66 0;
#X connect 56 0 67 0;
#X connect 57 0 67 0;
#X connect 58 0 67 0;
#X connect 59 0 67 0;
#X connect 60 0 67 0;
#X connect 61 0 67 0;
#X connect 62 0 67 0;
#X connect 63 0 67 0;
#X connect 64 0 68 0;
#X connect 65 0 68 0;
#X connect 66 0 68 0;
#X connect 67 0 68 0;
#X restore 635 327 pd normroutes;
#X text 821 84 loadbank;
#X msg 716 262 set \$1;
#X obj 522 252 t b;
#X obj 521 278 del 0;
#N canvas 987 308 450 300 setsample 0;
#X obj 61 13 inlet;
#X obj 91 66 unpack s f;
#X obj 61 41 t a a;
#X obj 61 89 unpack s f;
#X obj 159 146 outlet;
#X obj 127 190 outlet;
#X obj 45 166 outlet;
#X connect 0 0 2 0;
#X connect 1 1 4 0;
#X connect 2 0 3 0;
#X connect 2 1 1 0;
#X connect 3 0 6 0;
#X connect 3 1 5 0;
#X restore 675 84 pd setsample;
#N canvas 383 276 860 548 savebank 0;
#X obj 206 29 r \$0-save_all;
#X obj 206 50 savepanel;
#X obj 17 379 msgfile;
#X symbolatom 206 92 50 0 0 0 - - -;
#X msg 284 71 set \$1;
#X symbolatom 345 327 50 0 0 0 - - -;
#X msg 206 111 mkdir \$1;
#X obj 206 131 shell;
#X obj 99 129 r \$0-soundfile;
#X obj 120 193 r \$0-snum;
#X msg 243 157 add 0;
#X obj 263 111 loadbang;
#X obj 345 365 makesymbol %s/%s.wav;
#X obj 345 345 pack s s;
#X obj 350 121 bng 15 250 50 0 empty empty empty 17 7 0 10 -262144
-1 -1;
#X obj 345 426 soundfiler;
#X msg 345 405 write -wave \$1 \$2;
#X obj 345 385 pack s s;
#X obj 55 257 tabread sizes-32-4;
#X floatatom 14 201 5 1 32 0 - - -;
#X obj 14 221 t f f;
#X obj 17 280 makefilename s32-4-%d;
#X obj 243 132 kalashnikov 33;
#X obj 17 301 pack s f;
#X msg 121 313 goto \$1;
#X msg 17 321 replace \$1 \$2;
#X msg 110 359 print;
#X text 6 77 extract from;
#X text 6 87 v 0.2 bank;
#X obj 14 179 cup;
#X msg 48 171 1;
#X obj 14 151 metro 300;
#X obj 48 191 < 32;
#X obj 14 129 t b b;
#X obj 12 108 r \$0-extract;
#X obj 71 237 swap;
#X obj 99 149 route float;
#X obj 52 212 sel 0;
#X obj 89 212 del 0;
#X msg 82 192 0;
#X msg 154 387 write \$1;
#X symbolatom 154 348 10 0 0 0 - - -;
#X obj 573 28 openpanel;
#X obj 573 8 r \$0-load_all;
#X obj 676 121 stripfilename -6;
#X msg 622 149 set \$1;
#X symbolatom 564 269 30 0 0 0 - - -;
#X obj 546 473 tabwrite sizes-32-4;
#X obj 304 315 t b f;
#X msg 577 402 read -resize \$1 \$2;
#N canvas 9 100 450 300 cup 0;
#X msg 157 148 1;
#X obj 85 182 cup;
#X obj 158 110 inlet;
#X obj 90 38 inlet;
#X obj 145 185 < 32;
#X obj 144 211 sel 0;
#X obj 144 236 del 0;
#X obj 83 149 spigot;
#X msg 187 147 0;
#X obj 83 63 t b;
#X obj 77 227 outlet;
#X obj 83 110 delay 50;
#X connect 0 0 1 0;
#X connect 0 0 7 1;
#X connect 1 0 4 0;
#X connect 1 0 10 0;
#X connect 2 0 0 0;
#X connect 3 0 9 0;
#X connect 4 0 5 0;
#X connect 5 0 6 0;
#X connect 6 0 8 0;
#X connect 7 0 1 0;
#X connect 8 0 7 1;
#X connect 9 0 11 0;
#X connect 11 0 7 0;
#X restore 260 315 pd cup;
#X obj 237 189 t b;
#X obj 206 71 t b a b;
#X obj 577 422 soundfiler;
#X obj 366 241 s \$0-write_list;
#X obj 154 367 makesymbol %s/loadme;
#X obj 332 162 s \$0-directory;
#X obj 573 48 t b a;
#X obj 600 68 stripdir;
#X obj 560 96 spigot;
#X obj 612 88 select loadme;
#X msg 621 108 1;
#X msg 621 128 0;
#X obj 496 125 kalashnikov 32;
#X obj 536 145 + 1;
#X obj 596 218 f;
#X obj 526 215 f;
#X obj 596 243 makefilename s32-4-%d;
#X obj 594 297 pack s s;
#X obj 507 170 t b b b f;
#X obj 467 267 pack s f;
#X obj 420 299 makesymbol %s/s32-1-%s.wav;
#X obj 402 385 makefilename s32-4-%d;
#X obj 400 345 makefilename s32-1-%d;
#X obj 296 29 inlet;
#X obj 681 10 inlet;
#X obj 295 50 symbol;
#X obj 681 54 makesymbol %s/loadme;
#X obj 713 359 outlet;
#X obj 713 337 route symbol;
#X obj 681 31 symbol;
#X obj 764 406 == 32;
#X obj 731 429 spigot;
#X obj 732 450 t b;
#X obj 731 472 delay 100;
#X obj 733 499 outlet;
#X connect 0 0 1 0;
#X connect 1 0 52 0;
#X connect 3 0 6 0;
#X connect 3 0 79 0;
#X connect 4 0 3 0;
#X connect 4 0 5 0;
#X connect 4 0 41 0;
#X connect 4 0 56 0;
#X connect 5 0 13 0;
#X connect 6 0 7 0;
#X connect 7 1 51 0;
#X connect 8 0 36 0;
#X connect 9 0 35 1;
#X connect 9 0 24 0;
#X connect 10 0 2 0;
#X connect 11 0 22 0;
#X connect 12 0 17 0;
#X connect 13 0 12 0;
#X connect 14 0 22 0;
#X connect 15 0 50 0;
#X connect 15 0 82 0;
#X connect 16 0 15 0;
#X connect 17 0 16 0;
#X connect 18 0 23 1;
#X connect 19 0 20 0;
#X connect 20 0 21 0;
#X connect 20 1 18 0;
#X connect 20 1 24 0;
#X connect 21 0 23 0;
#X connect 22 0 10 0;
#X connect 23 0 25 0;
#X connect 24 0 2 0;
#X connect 25 0 2 0;
#X connect 26 0 2 0;
#X connect 29 0 19 0;
#X connect 29 0 32 0;
#X connect 30 0 32 0;
#X connect 30 0 29 0;
#X connect 31 0 29 0;
#X connect 32 0 37 0;
#X connect 33 0 31 0;
#X connect 33 1 30 0;
#X connect 34 0 33 0;
#X connect 35 0 21 0;
#X connect 35 1 23 1;
#X connect 36 0 35 0;
#X connect 37 0 38 0;
#X connect 38 0 39 0;
#X connect 39 0 31 0;
#X connect 40 0 2 0;
#X connect 41 0 55 0;
#X connect 42 0 57 0;
#X connect 43 0 42 0;
#X connect 44 0 45 0;
#X connect 45 0 46 0;
#X connect 46 0 70 0;
#X connect 46 0 79 0;
#X connect 48 0 5 0;
#X connect 48 1 73 0;
#X connect 48 1 72 0;
#X connect 48 1 81 0;
#X connect 49 0 53 0;
#X connect 50 0 48 0;
#X connect 51 0 50 0;
#X connect 51 0 41 0;
#X connect 51 0 54 0;
#X connect 52 0 3 0;
#X connect 52 1 4 0;
#X connect 52 2 50 1;
#X connect 53 0 47 0;
#X connect 53 0 82 0;
#X connect 55 0 40 0;
#X connect 57 0 59 0;
#X connect 57 1 58 0;
#X connect 57 1 44 0;
#X connect 58 0 60 0;
#X connect 59 0 62 0;
#X connect 59 0 63 0;
#X connect 60 0 61 0;
#X connect 61 0 59 1;
#X connect 62 0 59 1;
#X connect 63 1 64 0;
#X connect 64 0 69 0;
#X connect 65 0 67 0;
#X connect 66 0 70 1;
#X connect 67 0 68 1;
#X connect 68 0 49 0;
#X connect 69 0 46 0;
#X connect 69 1 66 0;
#X connect 69 2 65 0;
#X connect 69 3 66 1;
#X connect 69 3 65 1;
#X connect 69 3 47 1;
#X connect 69 3 81 0;
#X connect 70 0 71 0;
#X connect 71 0 68 0;
#X connect 72 0 17 1;
#X connect 73 0 13 1;
#X connect 74 0 76 0;
#X connect 75 0 80 0;
#X connect 76 0 52 0;
#X connect 77 0 57 0;
#X connect 79 0 78 0;
#X connect 80 0 77 0;
#X connect 81 0 82 1;
#X connect 82 0 83 0;
#X connect 83 0 84 0;
#X connect 84 0 85 0;
#X restore 806 243 pd savebank;
#X obj 645 163 s \$0-snum;
#X obj 436 88 bng 28 250 50 0 \$0-load_all empty Load_bank -14 -5 0
10 -13381 -4032 -13330;
#N canvas 9 99 546 501 norm_all 0;
#N canvas 3 49 450 300 normit 0;
#X obj 120 165 s \$0-normsample_1;
#X obj 116 112 r \$0-normcount;
#X obj 119 139 sel 1;
#X connect 1 0 2 0;
#X connect 2 0 0 0;
#X restore 65 68 pd normit;
#N canvas 3 49 450 300 normit 0;
#X obj 120 165 s \$0-normsample_2;
#X obj 116 112 r \$0-normcount;
#X obj 119 139 sel 2;
#X connect 1 0 2 0;
#X connect 2 0 0 0;
#X restore 75 78 pd normit;
#N canvas 3 49 450 300 normit 0;
#X obj 120 165 s \$0-normsample_3;
#X obj 116 112 r \$0-normcount;
#X obj 119 139 sel 3;
#X connect 1 0 2 0;
#X connect 2 0 0 0;
#X restore 85 88 pd normit;
#N canvas 3 49 450 300 normit 0;
#X obj 120 165 s \$0-normsample_4;
#X obj 116 112 r \$0-normcount;
#X obj 119 139 sel 4;
#X connect 1 0 2 0;
#X connect 2 0 0 0;
#X restore 95 98 pd normit;
#N canvas 3 49 450 300 normit 0;
#X obj 120 165 s \$0-normsample_5;
#X obj 116 112 r \$0-normcount;
#X obj 119 139 sel 5;
#X connect 1 0 2 0;
#X connect 2 0 0 0;
#X restore 105 108 pd normit;
#N canvas 3 49 450 300 normit 0;
#X obj 120 165 s \$0-normsample_6;
#X obj 116 112 r \$0-normcount;
#X obj 119 139 sel 6;
#X connect 1 0 2 0;
#X connect 2 0 0 0;
#X restore 115 118 pd normit;
#N canvas 3 49 450 300 normit 0;
#X obj 120 165 s \$0-normsample_7;
#X obj 116 112 r \$0-normcount;
#X obj 119 139 sel 7;
#X connect 1 0 2 0;
#X connect 2 0 0 0;
#X restore 125 128 pd normit;
#N canvas 3 49 450 300 normit 0;
#X obj 120 165 s \$0-normsample_8;
#X obj 116 112 r \$0-normcount;
#X obj 119 139 sel 8;
#X connect 1 0 2 0;
#X connect 2 0 0 0;
#X restore 135 138 pd normit;
#N canvas 3 49 450 300 normit 0;
#X obj 120 165 s \$0-normsample_9;
#X obj 116 112 r \$0-normcount;
#X obj 119 139 sel 9;
#X connect 1 0 2 0;
#X connect 2 0 0 0;
#X restore 145 148 pd normit;
#N canvas 3 49 450 300 normit 0;
#X obj 120 165 s \$0-normsample_10;
#X obj 116 112 r \$0-normcount;
#X obj 119 139 sel 10;
#X connect 1 0 2 0;
#X connect 2 0 0 0;
#X restore 155 158 pd normit;
#N canvas 3 49 450 300 normit 0;
#X obj 120 165 s \$0-normsample_11;
#X obj 116 112 r \$0-normcount;
#X obj 119 139 sel 11;
#X connect 1 0 2 0;
#X connect 2 0 0 0;
#X restore 165 168 pd normit;
#N canvas 3 49 450 300 normit 0;
#X obj 120 165 s \$0-normsample_12;
#X obj 116 112 r \$0-normcount;
#X obj 119 139 sel 12;
#X connect 1 0 2 0;
#X connect 2 0 0 0;
#X restore 175 178 pd normit;
#N canvas 3 49 450 300 normit 0;
#X obj 120 165 s \$0-normsample_13;
#X obj 116 112 r \$0-normcount;
#X obj 119 139 sel 13;
#X connect 1 0 2 0;
#X connect 2 0 0 0;
#X restore 185 188 pd normit;
#N canvas 3 49 450 300 normit 0;
#X obj 120 165 s \$0-normsample_14;
#X obj 116 112 r \$0-normcount;
#X obj 119 139 sel 14;
#X connect 1 0 2 0;
#X connect 2 0 0 0;
#X restore 195 198 pd normit;
#N canvas 3 49 450 300 normit 0;
#X obj 120 165 s \$0-normsample_15;
#X obj 116 112 r \$0-normcount;
#X obj 119 139 sel 15;
#X connect 1 0 2 0;
#X connect 2 0 0 0;
#X restore 205 208 pd normit;
#N canvas 3 49 450 300 normit 0;
#X obj 120 165 s \$0-normsample_16;
#X obj 116 112 r \$0-normcount;
#X obj 119 139 sel 16;
#X connect 1 0 2 0;
#X connect 2 0 0 0;
#X restore 215 218 pd normit;
#N canvas 3 49 450 300 normit 0;
#X obj 120 165 s \$0-normsample_17;
#X obj 116 112 r \$0-normcount;
#X obj 119 139 sel 17;
#X connect 1 0 2 0;
#X connect 2 0 0 0;
#X restore 205 68 pd normit;
#N canvas 3 49 450 300 normit 0;
#X obj 120 165 s \$0-normsample_18;
#X obj 116 112 r \$0-normcount;
#X obj 119 139 sel 18;
#X connect 1 0 2 0;
#X connect 2 0 0 0;
#X restore 215 78 pd normit;
#N canvas 3 49 450 300 normit 0;
#X obj 120 165 s \$0-normsample_19;
#X obj 116 112 r \$0-normcount;
#X obj 119 139 sel 19;
#X connect 1 0 2 0;
#X connect 2 0 0 0;
#X restore 225 88 pd normit;
#N canvas 3 49 450 300 normit 0;
#X obj 120 165 s \$0-normsample_20;
#X obj 116 112 r \$0-normcount;
#X obj 119 139 sel 20;
#X connect 1 0 2 0;
#X connect 2 0 0 0;
#X restore 235 98 pd normit;
#N canvas 3 49 450 300 normit 0;
#X obj 120 165 s \$0-normsample_21;
#X obj 116 112 r \$0-normcount;
#X obj 119 139 sel 21;
#X connect 1 0 2 0;
#X connect 2 0 0 0;
#X restore 245 108 pd normit;
#N canvas 3 49 450 300 normit 0;
#X obj 120 165 s \$0-normsample_22;
#X obj 116 112 r \$0-normcount;
#X obj 119 139 sel 22;
#X connect 1 0 2 0;
#X connect 2 0 0 0;
#X restore 255 118 pd normit;
#N canvas 3 49 450 300 normit 0;
#X obj 120 165 s \$0-normsample_23;
#X obj 116 112 r \$0-normcount;
#X obj 119 139 sel 23;
#X connect 1 0 2 0;
#X connect 2 0 0 0;
#X restore 265 128 pd normit;
#N canvas 3 50 450 300 normit 0;
#X obj 120 165 s \$0-normsample_24;
#X obj 116 112 r \$0-normcount;
#X obj 119 139 sel 24;
#X connect 1 0 2 0;
#X connect 2 0 0 0;
#X restore 275 138 pd normit;
#N canvas 3 49 450 300 normit 0;
#X obj 120 165 s \$0-normsample_25;
#X obj 116 112 r \$0-normcount;
#X obj 119 139 sel 25;
#X connect 1 0 2 0;
#X connect 2 0 0 0;
#X restore 285 148 pd normit;
#N canvas 3 49 450 300 normit 0;
#X obj 120 165 s \$0-normsample_26;
#X obj 116 112 r \$0-normcount;
#X obj 119 139 sel 26;
#X connect 1 0 2 0;
#X connect 2 0 0 0;
#X restore 295 158 pd normit;
#N canvas 3 49 450 300 normit 0;
#X obj 120 165 s \$0-normsample_27;
#X obj 116 112 r \$0-normcount;
#X obj 119 139 sel 27;
#X connect 1 0 2 0;
#X connect 2 0 0 0;
#X restore 305 168 pd normit;
#N canvas 3 49 450 300 normit 0;
#X obj 120 165 s \$0-normsample_28;
#X obj 116 112 r \$0-normcount;
#X obj 119 139 sel 28;
#X connect 1 0 2 0;
#X connect 2 0 0 0;
#X restore 315 178 pd normit;
#N canvas 3 49 450 300 normit 0;
#X obj 120 165 s \$0-normsample_29;
#X obj 116 112 r \$0-normcount;
#X obj 119 139 sel 29;
#X connect 1 0 2 0;
#X connect 2 0 0 0;
#X restore 325 188 pd normit;
#N canvas 3 49 450 300 normit 0;
#X obj 120 165 s \$0-normsample_30;
#X obj 116 112 r \$0-normcount;
#X obj 119 139 sel 30;
#X connect 1 0 2 0;
#X connect 2 0 0 0;
#X restore 335 198 pd normit;
#N canvas 3 49 450 300 normit 0;
#X obj 120 165 s \$0-normsample_31;
#X obj 116 112 r \$0-normcount;
#X obj 119 139 sel 31;
#X connect 1 0 2 0;
#X connect 2 0 0 0;
#X restore 345 208 pd normit;
#N canvas 3 49 450 300 normit 0;
#X obj 120 165 s \$0-normsample_32;
#X obj 116 112 r \$0-normcount;
#X obj 119 139 sel 32;
#X connect 1 0 2 0;
#X connect 2 0 0 0;
#X restore 355 218 pd normit;
#X obj 148 320 r \$0-norm_all;
#X obj 142 353 kalashnikov 32;
#X obj 181 382 + 1;
#X obj 177 410 s \$0-normcount;
#X connect 32 0 33 0;
#X connect 33 1 34 0;
#X connect 34 0 35 0;
#X restore 811 36 pd norm_all;
#N canvas 6 75 450 300 resize_all 0;
#X obj 99 118 kalashnikov 32;
#X obj 138 172 + 1;
#X obj 102 204 makefilename s32-4-%d;
#X obj 125 145 t b f;
#X obj 99 232 pack s 10;
#X msg 90 256 \; \$1 resize \$2;
#X obj 104 84 bng 15 250 50 0 empty empty empty 17 7 0 10 -262144 -1
-1;
#X obj 130 86 inlet;
#X connect 0 1 3 0;
#X connect 1 0 2 0;
#X connect 2 0 4 0;
#X connect 3 1 1 0;
#X connect 4 0 5 0;
#X connect 6 0 0 0;
#X connect 7 0 0 0;
#X restore 933 34 pd resize_all;
#X obj 908 37 bng 15 250 50 0 empty empty empty 17 7 0 10 -262144 -1
-1;
#X obj 913 132 s \$0-norm_all-bng;
#X obj 812 111 s \$0-normcount;
#X obj 696 62 route load loadbank savebank norm normall play;
#X obj 511 30 bng 16 250 50 0 \$0-savebank empty savelist -8 -6 0 8
-44926 -258699 -1109;
#X obj 535 30 bng 16 250 50 0 \$0-loadbank empty loadlist -18 22 0
8 -24198 -258699 -1109;
#X text 499 5 old method;
#X obj 131 13 cnv 15 282 251 empty empty empty 8 6 0 10 -203941 -83269
0;
#N canvas 0 22 450 300 (subpatch) 0;
#X array s32-4-1 34559 float 0;
#X coords 0 1 34558 -1 60 25 1;
#X restore 15 43 graph;
#N canvas 0 22 450 300 (subpatch) 0;
#X array s32-4-2 11226 float 0;
#X coords 0 1 11225 -1 60 25 1;
#X restore 15 71 graph;
#N canvas 0 22 450 300 (subpatch) 0;
#X array s32-4-3 34901 float 0;
#X coords 0 1 34900 -1 60 25 1;
#X restore 15 99 graph;
#N canvas 0 22 450 300 (subpatch) 0;
#X array s32-4-4 11665 float 0;
#X coords 0 1 11664 -1 60 25 1;
#X restore 15 127 graph;
#N canvas 0 22 450 300 (subpatch) 0;
#X array s32-4-5 3551 float 0;
#X coords 0 1 3550 -1 60 25 1;
#X restore 112 43 graph;
#N canvas 0 22 450 300 (subpatch) 0;
#X array s32-4-6 15224 float 0;
#X coords 0 1 15223 -1 60 25 1;
#X restore 112 71 graph;
#N canvas 0 22 450 300 (subpatch) 0;
#X array s32-4-7 3810 float 0;
#X coords 0 1 3809 -1 60 25 1;
#X restore 112 99 graph;
#N canvas 0 22 450 300 (subpatch) 0;
#X array s32-4-8 11520 float 0;
#X coords 0 1 11519 -1 60 25 1;
#X restore 112 127 graph;
#N canvas 0 22 450 300 (subpatch) 0;
#X array s32-4-13 11329 float 0;
#X coords 0 1 11328 -1 60 25 1;
#X restore 112 166 graph;
#N canvas 0 22 450 300 (subpatch) 0;
#X array s32-4-14 11496 float 0;
#X coords 0 1 11495 -1 60 25 1;
#X restore 112 194 graph;
#N canvas 0 22 450 300 (subpatch) 0;
#X array s32-4-15 11449 float 0;
#X coords 0 1 11448 -1 60 25 1;
#X restore 112 222 graph;
#N canvas 0 22 450 300 (subpatch) 0;
#X array s32-4-16 78074 float 0;
#X coords 0 1 78073 -1 60 25 1;
#X restore 112 250 graph;
#N canvas 0 22 450 300 (subpatch) 0;
#X array s32-4-17 61767 float 0;
#X coords 0 1 61766 -1 60 25 1;
#X restore 214 43 graph;
#N canvas 0 22 450 300 (subpatch) 0;
#X array s32-4-20 47510 float 0;
#X coords 0 1 47509 -1 60 25 1;
#X restore 214 127 graph;
#N canvas 0 22 450 300 (subpatch) 0;
#X array s32-4-18 64929 float 0;
#X coords 0 1 64928 -1 60 25 1;
#X restore 214 71 graph;
#N canvas 0 22 450 300 (subpatch) 0;
#X array s32-4-19 45393 float 0;
#X coords 0 1 45392 -1 60 25 1;
#X restore 214 99 graph;
#N canvas 0 22 450 300 (subpatch) 0;
#X array s32-4-21 49063 float 0;
#X coords 0 1 49062 -1 60 25 1;
#X restore 311 43 graph;
#N canvas 0 22 450 300 (subpatch) 0;
#X array s32-4-22 44480 float 0;
#X coords 0 1 44479 -1 60 25 1;
#X restore 311 71 graph;
#N canvas 0 22 450 300 (subpatch) 0;
#X array s32-4-23 54564 float 0;
#X coords 0 1 54563 -1 60 25 1;
#X restore 311 99 graph;
#N canvas 0 22 450 300 (subpatch) 0;
#X array s32-4-24 22245 float 0;
#X coords 0 1 22244 -1 60 25 1;
#X restore 311 127 graph;
#N canvas 0 22 450 300 (subpatch) 0;
#X array s32-4-25 21425 float 0;
#X coords 0 1 21424 -1 60 25 1;
#X restore 214 166 graph;
#N canvas 0 22 450 300 (subpatch) 0;
#X array s32-4-26 24159 float 0;
#X coords 0 1 24158 -1 60 25 1;
#X restore 214 194 graph;
#N canvas 0 22 450 300 (subpatch) 0;
#X array s32-4-27 24079 float 0;
#X coords 0 1 24078 -1 60 25 1;
#X restore 214 222 graph;
#N canvas 0 22 450 300 (subpatch) 0;
#X array s32-4-28 60226 float 0;
#X coords 0 1 60225 -1 60 25 1;
#X restore 214 250 graph;
#N canvas 0 22 450 300 (subpatch) 0;
#X array s32-4-29 36783 float 0;
#X coords 0 1 36782 -1 60 25 1;
#X restore 311 166 graph;
#N canvas 0 22 450 300 (subpatch) 0;
#X array s32-4-30 29492 float 0;
#X coords 0 1 29491 -1 60 25 1;
#X restore 311 194 graph;
#N canvas 0 22 450 300 (subpatch) 0;
#X array s32-4-31 17648 float 0;
#X coords 0 1 17647 -1 60 25 1;
#X restore 311 222 graph;
#N canvas 0 22 450 300 (subpatch) 0;
#X array s32-4-32 28536 float 0;
#X coords 0 1 28535 -1 60 25 1;
#X restore 311 250 graph;
#N canvas 0 22 450 300 (subpatch) 0;
#X array s32-4-9 46724 float 0;
#X coords 0 1 46723 -1 60 25 1;
#X restore 15 166 graph;
#N canvas 0 22 450 300 (subpatch) 0;
#X array s32-4-10 85373 float 0;
#X coords 0 1 85372 -1 60 25 1;
#X restore 15 194 graph;
#N canvas 0 22 450 300 (subpatch) 0;
#X array s32-4-11 98248 float 0;
#X coords 0 1 98247 -1 60 25 1;
#X restore 15 222 graph;
#N canvas 0 22 450 300 (subpatch) 0;
#X array s32-4-12 44915 float 0;
#X coords 0 1 44914 -1 60 25 1;
#X restore 15 250 graph;
#X obj 75 43 bng 10 250 50 0 \$0-loadsample_1 empty load 0 -5 0 8 -257472
-90133 -90133;
#X obj 75 71 bng 10 250 50 0 \$0-loadsample_2 empty load 0 -5 0 8 -257472
-90133 -90133;
#X obj 75 99 bng 10 250 50 0 \$0-loadsample_3 empty load 0 -5 0 8 -257472
-90133 -90133;
#X obj 75 127 bng 10 250 50 0 \$0-loadsample_4 empty load 0 -5 0 8
-257472 -90133 -90133;
#X obj 172 43 bng 10 250 50 0 \$0-loadsample_5 empty load 0 -5 0 8
-257472 -90133 -90133;
#X obj 172 71 bng 10 250 50 0 \$0-loadsample_6 empty load 0 -5 0 8
-257472 -90133 -90133;
#X obj 172 99 bng 10 250 50 0 \$0-loadsample_7 empty load 0 -5 0 8
-257472 -90133 -90133;
#X obj 172 127 bng 10 250 50 0 \$0-loadsample_8 empty load 0 -5 0 8
-257472 -90133 -90133;
#X obj 75 166 bng 10 250 50 0 \$0-loadsample_9 empty load 0 -5 0 8
-257472 -90133 -90133;
#X obj 75 194 bng 10 250 50 0 \$0-loadsample_10 empty load 0 -5 0 8
-257472 -90133 -90133;
#X obj 75 222 bng 10 250 50 0 \$0-loadsample_11 empty load 0 -5 0 8
-257472 -90133 -90133;
#X obj 75 250 bng 10 250 50 0 \$0-loadsample_12 empty load 0 -5 0 8
-257472 -90133 -90133;
#X obj 172 166 bng 10 250 50 0 \$0-loadsample_13 empty load 0 -5 0
8 -257472 -90133 -90133;
#X obj 172 194 bng 10 250 50 0 \$0-loadsample_14 empty load 0 -5 0
8 -257472 -90133 -90133;
#X obj 172 222 bng 10 250 50 0 \$0-loadsample_15 empty load 0 -5 0
8 -257472 -90133 -90133;
#X obj 172 250 bng 10 250 50 0 \$0-loadsample_16 empty load 0 -5 0
8 -257472 -90133 -90133;
#X obj 274 43 bng 10 250 50 0 \$0-loadsample_17 empty load 0 -5 0 8
-257472 -90133 -90133;
#X obj 274 71 bng 10 250 50 0 \$0-loadsample_18 empty load 0 -5 0 8
-257472 -90133 -90133;
#X obj 274 99 bng 10 250 50 0 \$0-loadsample_19 empty load 0 -5 0 8
-257472 -90133 -90133;
#X obj 274 127 bng 10 250 50 0 \$0-loadsample_20 empty load 0 -5 0
8 -257472 -90133 -90133;
#X obj 371 43 bng 10 250 50 0 \$0-loadsample_21 empty load 0 -5 0 8
-257472 -90133 -90133;
#X obj 371 71 bng 10 250 50 0 \$0-loadsample_22 empty load 0 -5 0 8
-257472 -90133 -90133;
#X obj 371 99 bng 10 250 50 0 \$0-loadsample_23 empty load 0 -5 0 8
-257472 -90133 -90133;
#X obj 371 127 bng 10 250 50 0 \$0-loadsample_24 empty load 0 -5 0
8 -257472 -90133 -90133;
#X obj 274 166 bng 10 250 50 0 \$0-loadsample_25 empty load 0 -5 0
8 -257472 -90133 -90133;
#X obj 274 194 bng 10 250 50 0 \$0-loadsample_26 empty load 0 -5 0
8 -257472 -90133 -90133;
#X obj 274 222 bng 10 250 50 0 \$0-loadsample_27 empty load 0 -5 0
8 -257472 -90133 -90133;
#X obj 274 250 bng 10 250 50 0 \$0-loadsample_28 empty load 0 -5 0
8 -257472 -90133 -90133;
#X obj 371 166 bng 10 250 50 0 \$0-loadsample_29 empty load 0 -5 0
8 -257472 -90133 -90133;
#X obj 371 194 bng 10 250 50 0 \$0-loadsample_30 empty load 0 -5 0
8 -257472 -90133 -90133;
#X obj 371 222 bng 10 250 50 0 \$0-loadsample_31 empty load 0 -5 0
8 -257472 -90133 -90133;
#X obj 371 250 bng 10 250 50 0 \$0-loadsample_32 empty load 0 -5 0
8 -257472 -90133 -90133;
#X obj 87 43 bng 10 250 50 0 \$0-playsample_1 empty play -3 15 0 8
-225271 -23622 -42246;
#X obj 99 43 bng 10 250 50 0 \$0-normsample_1 empty N 4 -5 0 10 -261681
-62784 -143491;
#X obj 87 71 bng 10 250 50 0 \$0-playsample_2 empty play -3 15 0 8
-225271 -23622 -42246;
#X obj 99 71 bng 10 250 50 0 \$0-normsample_2 empty N 4 -5 0 10 -261681
-62784 -143491;
#X obj 87 99 bng 10 250 50 0 \$0-playsample_3 empty play -3 15 0 8
-225271 -23622 -42246;
#X obj 99 99 bng 10 250 50 0 \$0-normsample_3 empty N 4 -5 0 10 -261681
-62784 -143491;
#X obj 87 127 bng 10 250 50 0 \$0-playsample_4 empty play -3 15 0 8
-225271 -23622 -42246;
#X obj 99 127 bng 10 250 50 0 \$0-normsample_4 empty N 4 -5 0 10 -261681
-62784 -143491;
#X obj 184 43 bng 10 250 50 0 \$0-playsample_5 empty play -3 15 0 8
-225271 -23622 -42246;
#X obj 196 43 bng 10 250 50 0 \$0-normsample_5 empty N 4 -5 0 10 -261681
-62784 -143491;
#X obj 184 71 bng 10 250 50 0 \$0-playsample_6 empty play -3 15 0 8
-225271 -23622 -42246;
#X obj 196 71 bng 10 250 50 0 \$0-normsample_6 empty N 4 -5 0 10 -261681
-62784 -143491;
#X obj 184 99 bng 10 250 50 0 \$0-playsample_7 empty play -3 15 0 8
-225271 -23622 -42246;
#X obj 196 99 bng 10 250 50 0 \$0-normsample_7 empty N 4 -5 0 10 -261681
-62784 -143491;
#X obj 184 127 bng 10 250 50 0 \$0-playsample_8 empty play -3 15 0
8 -225271 -23622 -42246;
#X obj 196 127 bng 10 250 50 0 \$0-normsample_8 empty N 4 -5 0 10 -261681
-62784 -143491;
#X obj 87 166 bng 10 250 50 0 \$0-playsample_9 empty play -3 15 0 8
-225271 -23622 -42246;
#X obj 99 166 bng 10 250 50 0 \$0-normsample_9 empty N 4 -5 0 10 -261681
-62784 -143491;
#X obj 87 194 bng 10 250 50 0 \$0-playsample_10 empty play -3 15 0
8 -225271 -23622 -42246;
#X obj 99 194 bng 10 250 50 0 \$0-normsample_10 empty N 4 -5 0 10 -261681
-62784 -143491;
#X obj 87 222 bng 10 250 50 0 \$0-playsample_11 empty play -3 15 0
8 -225271 -23622 -42246;
#X obj 99 222 bng 10 250 50 0 \$0-normsample_11 empty N 4 -5 0 10 -261681
-62784 -143491;
#X obj 87 250 bng 10 250 50 0 \$0-playsample_12 empty play -3 15 0
8 -225271 -23622 -42246;
#X obj 99 250 bng 10 250 50 0 \$0-normsample_12 empty N 4 -5 0 10 -261681
-62784 -143491;
#X obj 184 166 bng 10 250 50 0 \$0-playsample_13 empty play -3 15 0
8 -225271 -23622 -42246;
#X obj 196 166 bng 10 250 50 0 \$0-normsample_13 empty N 4 -5 0 10
-261681 -62784 -143491;
#X obj 184 194 bng 10 250 50 0 \$0-playsample_14 empty play -3 15 0
8 -225271 -23622 -42246;
#X obj 196 194 bng 10 250 50 0 \$0-normsample_14 empty N 4 -5 0 10
-261681 -62784 -143491;
#X obj 184 222 bng 10 250 50 0 \$0-playsample_15 empty play -3 15 0
8 -225271 -23622 -42246;
#X obj 196 222 bng 10 250 50 0 \$0-normsample_15 empty N 4 -5 0 10
-261681 -62784 -143491;
#X obj 184 250 bng 10 250 50 0 \$0-playsample_16 empty play -3 15 0
8 -225271 -23622 -42246;
#X obj 196 250 bng 10 250 50 0 \$0-normsample_16 empty N 4 -5 0 10
-261681 -62784 -143491;
#X obj 286 43 bng 10 250 50 0 \$0-playsample_17 empty play -3 15 0
8 -225271 -23622 -42246;
#X obj 298 43 bng 10 250 50 0 \$0-normsample_17 empty N 4 -5 0 10 -261681
-62784 -143491;
#X obj 286 71 bng 10 250 50 0 \$0-playsample_18 empty play -3 15 0
8 -225271 -23622 -42246;
#X obj 298 71 bng 10 250 50 0 \$0-normsample_18 empty N 4 -5 0 10 -261681
-62784 -143491;
#X obj 286 99 bng 10 250 50 0 \$0-playsample_19 empty play -3 15 0
8 -225271 -23622 -42246;
#X obj 298 99 bng 10 250 50 0 \$0-normsample_19 empty N 4 -5 0 10 -261681
-62784 -143491;
#X obj 286 127 bng 10 250 50 0 \$0-playsample_20 empty play -3 15 0
8 -225271 -23622 -42246;
#X obj 298 127 bng 10 250 50 0 \$0-normsample_20 empty N 4 -5 0 10
-261681 -62784 -143491;
#X obj 383 43 bng 10 250 50 0 \$0-playsample_21 empty play -3 15 0
8 -225271 -23622 -42246;
#X obj 395 43 bng 10 250 50 0 \$0-normsample_21 empty N 4 -5 0 10 -261681
-62784 -143491;
#X obj 383 71 bng 10 250 50 0 \$0-playsample_22 empty play -3 15 0
8 -225271 -23622 -42246;
#X obj 395 71 bng 10 250 50 0 \$0-normsample_22 empty N 4 -5 0 10 -261681
-62784 -143491;
#X obj 383 99 bng 10 250 50 0 \$0-playsample_23 empty play -3 15 0
8 -225271 -23622 -42246;
#X obj 395 99 bng 10 250 50 0 \$0-normsample_23 empty N 4 -5 0 10 -261681
-62784 -143491;
#X obj 383 127 bng 10 250 50 0 \$0-playsample_24 empty play -3 15 0
8 -225271 -23622 -42246;
#X obj 395 127 bng 10 250 50 0 \$0-normsample_24 empty N 4 -5 0 10
-261681 -62784 -143491;
#X obj 286 166 bng 10 250 50 0 \$0-playsample_25 empty play -3 15 0
8 -225271 -23622 -42246;
#X obj 298 166 bng 10 250 50 0 \$0-normsample_25 empty N 4 -5 0 10
-261681 -62784 -143491;
#X obj 286 194 bng 10 250 50 0 \$0-playsample_26 empty play -3 15 0
8 -225271 -23622 -42246;
#X obj 298 194 bng 10 250 50 0 \$0-normsample_26 empty N 4 -5 0 10
-261681 -62784 -143491;
#X obj 286 222 bng 10 250 50 0 \$0-playsample_27 empty play -3 15 0
8 -225271 -23622 -42246;
#X obj 298 222 bng 10 250 50 0 \$0-normsample_27 empty N 4 -5 0 10
-261681 -62784 -143491;
#X obj 286 250 bng 10 250 50 0 \$0-playsample_28 empty play -3 15 0
8 -225271 -23622 -42246;
#X obj 298 250 bng 10 250 50 0 \$0-normsample_28 empty N 4 -5 0 10
-261681 -62784 -143491;
#X obj 383 166 bng 10 250 50 0 \$0-playsample_29 empty play -3 15 0
8 -225271 -23622 -42246;
#X obj 395 166 bng 10 250 50 0 \$0-normsample_29 empty N 4 -5 0 10
-261681 -62784 -143491;
#X obj 383 194 bng 10 250 50 0 \$0-playsample_30 empty play -3 15 0
8 -225271 -23622 -42246;
#X obj 395 194 bng 10 250 50 0 \$0-normsample_30 empty N 4 -5 0 10
-261681 -62784 -143491;
#X obj 383 222 bng 10 250 50 0 \$0-playsample_31 empty play -3 15 0
8 -225271 -23622 -42246;
#X obj 395 222 bng 10 250 50 0 \$0-normsample_31 empty N 4 -5 0 10
-261681 -62784 -143491;
#X obj 383 250 bng 10 250 50 0 \$0-playsample_32 empty play -3 15 0
8 -225271 -23622 -42246;
#X obj 395 250 bng 10 250 50 0 \$0-normsample_32 empty N 4 -5 0 10
-261681 -62784 -143491;
#X obj 197 16 bng 12 250 50 0 \$0-norm_all empty normalize_all 14 6
0 8 -261234 -258113 -86277;
#X msg 859 273 done;
#X msg 635 368 \; \$1 normalize 1;
#X obj 635 347 makefilename s32-4-%d;
#X connect 6 0 40 0;
#X connect 8 0 9 0;
#X connect 9 0 10 0;
#X connect 9 0 13 0;
#X connect 10 0 11 0;
#X connect 11 0 14 0;
#X connect 11 0 17 0;
#X connect 11 0 29 0;
#X connect 12 0 8 0;
#X connect 12 1 13 1;
#X connect 12 1 17 1;
#X connect 12 2 13 2;
#X connect 12 2 18 0;
#X connect 12 2 33 0;
#X connect 13 0 10 0;
#X connect 13 1 17 1;
#X connect 13 2 3 0;
#X connect 15 0 13 3;
#X connect 16 0 4 0;
#X connect 18 0 9 1;
#X connect 18 0 28 0;
#X connect 19 0 16 0;
#X connect 21 0 16 1;
#X connect 21 0 20 0;
#X connect 22 0 13 4;
#X connect 23 0 13 4;
#X connect 24 0 12 0;
#X connect 25 0 19 0;
#X connect 26 0 176 0;
#X connect 28 0 19 0;
#X connect 29 0 30 0;
#X connect 30 0 19 0;
#X connect 31 0 9 0;
#X connect 31 1 17 1;
#X connect 31 1 13 1;
#X connect 31 2 18 0;
#X connect 31 2 13 2;
#X connect 32 0 3 0;
#X connect 32 1 174 0;
#X connect 37 0 36 0;
#X connect 40 0 31 0;
#X connect 40 1 32 1;
#X connect 40 2 32 0;
#X connect 40 3 39 0;
#X connect 40 4 38 0;
#X connect 40 5 25 0;
#X connect 174 0 3 0;
#X connect 176 0 175 0;
#X coords 0 -1 1 1 477 271 1 10 10;
