#N canvas 144 89 887 554 10;
#X declare -lib zexy;
#X declare -lib ekext;
#X obj 561 24 declare -lib zexy;
#X obj 677 28 declare -lib ekext;
#X obj 401 189 inlet;
#X obj 101 446 cnv 15 141 25 empty empty empty 20 12 0 14 -183672 -66577
0;
#X obj 103 457 nbx 3 12 0 120 0 0 empty empty empty -2 -6 0 7 -257472
-1109 -90133 0 256;
#X obj 145 457 nbx 3 12 1 2 0 0 \$0-patch-num \$0-patch-set select
0 -5 0 7 -17235 -261234 -17235 1 256;
#X obj 190 457 bng 12 250 50 0 \$0-store_patch \$0-store_patch-bng
store -3 -5 0 7 -17235 -262130 -17235;
#X obj 211 452 bng 10 250 50 0 \$0-patches_load \$0-patches_load-bng
load -5 16 0 7 -2498 -262144 -13381;
#X obj 224 452 bng 10 250 50 0 \$0-patches_save \$0-patches_save-bng
save 0 16 0 7 -159809 -262144 -86277;
#X obj 103 457 nbx 3 12 0 120 0 0 \$0-patches-dummy \$0-patches-num
patches 0 -5 0 7 -17235 -203904 -17235 0 256;
#X obj 176 461 bng 8 250 50 0 \$0-store_plus \$0-store_plus-bng + 2
-4 0 7 -17235 -198336 -17235;
#X obj 134 461 bng 8 250 50 0 \$0-store_minus \$0-store_minus-bng -
1 -5 0 10 -17235 -257985 -17235;
#X obj 363 135 tabwrite \$0-scale;
#X obj 375 72 kalashnikov 12;
#X obj 400 93 t f f;
#X obj 259 45 bng 15 250 50 0 empty empty empty 17 7 0 10 -262144 -1
-1;
#X obj 394 48 loadbang;
#X obj 487 98 s \$0-scale;
#X msg 487 72 yticks 0 1 2;
#X obj 517 256 s \$0-patch_on-set;
#N canvas 128 93 1149 655 patches 0;
#X obj 21 97 r \$0-store_patch;
#X obj 22 199 prepend add;
#X obj 19 232 t b a;
#X obj 356 382 spigot;
#X msg 400 381 0;
#X msg 401 364 1;
#X msg 172 289 add patches 0;
#X obj 169 251 loadbang;
#X obj 76 438 route patches;
#X msg 106 238 goto 0;
#X obj 34 297 + 1;
#X obj 18 314 f;
#X msg 18 367 replace patches \$1;
#X msg 69 288 this;
#X obj 18 262 t b b b;
#X msg 573 327 range 1 \$1;
#X obj 346 217 t b f;
#X msg 361 241 goto \$1;
#X msg 326 240 this;
#X obj 453 251 r \$0-patches_load;
#X obj 453 268 openpanel;
#X msg 527 302 read \$1;
#X msg 483 302 goto 0;
#X msg 453 302 this;
#X obj 633 181 r \$0-patches_save;
#X obj 633 209 savepanel;
#X msg 630 282 write \$1;
#X msg 226 222 print;
#X obj 77 408 route list;
#X obj 453 285 t b b a b;
#X msg 469 362 clear;
#X obj 281 171 r \$0-patches_clear;
#X obj 279 197 t b b;
#X obj 846 125 inlet;
#X obj 849 373 outlet;
#X obj 813 170 symbol;
#X obj 910 161 inlet;
#X obj 963 418 random;
#X obj 981 510 outlet;
#X obj 356 399 s \$0-patches-num;
#X obj 573 344 s \$0-patch-set;
#X obj 901 229 r \$0-store_plus;
#X obj 785 229 r \$0-store_minus;
#X obj 901 253 f;
#X obj 785 263 f;
#X obj 785 283 +;
#X obj 830 280 %;
#X obj 830 300 + 1;
#X obj 763 198 - 1;
#X obj 785 304 - 1;
#X obj 901 274 + 1;
#X obj 824 321 s \$0-patch-set;
#X obj 885 129 inlet;
#X obj 632 238 makesymbol %s.dlf;
#X obj 21 126 tabdump \$0-scale;
#X obj 146 484 tabset \$0-scale;
#X obj 119 193 prepend;
#X obj 155 155 r \$0-length;
#X obj 215 444 niagara 1;
#X obj 261 483 s \$0-length-set;
#X obj 89 321 msgfile;
#X connect 0 0 54 0;
#X connect 1 0 2 0;
#X connect 2 0 14 0;
#X connect 2 1 60 0;
#X connect 3 0 4 0;
#X connect 3 0 15 0;
#X connect 3 0 39 0;
#X connect 4 0 3 1;
#X connect 5 0 3 1;
#X connect 6 0 60 0;
#X connect 7 0 6 0;
#X connect 8 0 10 0;
#X connect 8 0 3 0;
#X connect 8 0 37 1;
#X connect 8 0 46 1;
#X connect 8 0 45 1;
#X connect 8 1 58 0;
#X connect 9 0 60 0;
#X connect 10 0 11 1;
#X connect 11 0 12 0;
#X connect 11 0 15 0;
#X connect 11 0 37 1;
#X connect 11 0 39 0;
#X connect 11 0 45 1;
#X connect 11 0 46 1;
#X connect 12 0 60 0;
#X connect 13 0 60 0;
#X connect 14 0 11 0;
#X connect 14 1 13 0;
#X connect 14 2 9 0;
#X connect 15 0 40 0;
#X connect 16 0 18 0;
#X connect 16 1 17 0;
#X connect 16 1 48 0;
#X connect 17 0 60 0;
#X connect 18 0 60 0;
#X connect 19 0 20 0;
#X connect 20 0 29 0;
#X connect 20 0 34 0;
#X connect 21 0 60 0;
#X connect 22 0 60 0;
#X connect 23 0 60 0;
#X connect 24 0 25 0;
#X connect 25 0 53 0;
#X connect 26 0 60 0;
#X connect 27 0 60 0;
#X connect 28 0 8 0;
#X connect 29 0 23 0;
#X connect 29 1 22 0;
#X connect 29 1 5 0;
#X connect 29 2 21 0;
#X connect 29 3 30 0;
#X connect 30 0 60 0;
#X connect 31 0 32 0;
#X connect 32 0 6 0;
#X connect 32 1 30 0;
#X connect 33 0 35 0;
#X connect 35 0 29 0;
#X connect 36 0 37 0;
#X connect 37 0 38 0;
#X connect 41 0 43 0;
#X connect 42 0 44 0;
#X connect 43 0 50 0;
#X connect 44 0 45 0;
#X connect 45 0 49 0;
#X connect 46 0 47 0;
#X connect 47 0 51 0;
#X connect 48 0 44 1;
#X connect 48 0 43 1;
#X connect 49 0 46 0;
#X connect 50 0 46 0;
#X connect 52 0 16 0;
#X connect 53 0 26 0;
#X connect 53 0 34 0;
#X connect 54 0 56 0;
#X connect 56 0 1 0;
#X connect 57 0 56 1;
#X connect 58 0 59 0;
#X connect 58 1 55 0;
#X connect 60 0 28 0;
#X restore 441 340 pd patches;
#X obj 401 229 route patch file;
#X obj 401 362 s \$0-patch-set;
#X msg 539 350 patch \$1;
#N canvas 114 311 850 308 automation 0;
#X obj 53 6 inlet;
#X text 448 20 delay fb stereo phase pitch lpf mix freq depth porta
mono;
#X obj 546 85 outlet;
#X obj 96 256 tabwrite \$0-scale;
#X obj 15 136 t f b;
#X msg 42 159 0;
#X obj 65 136 t f b;
#X obj 115 136 t f b;
#X obj 165 136 t f b;
#X obj 215 136 t f b;
#X obj 265 136 t f b;
#X obj 315 136 t f b;
#X obj 365 136 t f b;
#X obj 415 136 t f b;
#X obj 465 136 t f b;
#X obj 515 136 t f b;
#X obj 565 136 t f b;
#X msg 92 159 1;
#X msg 142 159 2;
#X msg 192 159 3;
#X msg 242 159 4;
#X msg 292 159 5;
#X msg 342 159 6;
#X msg 392 159 7;
#X msg 442 159 8;
#X msg 493 159 9;
#X msg 542 159 10;
#X msg 592 159 11;
#X obj 644 166 s \$0-length-set;
#X obj 746 165 s \$0-off-set;
#X obj 601 83 outlet;
#X obj 316 44 route pset len off randpat;
#X obj 50 73 route 0 1 2 3 4 5 6 7 8 9 10 11;
#X obj 36 42 r \$0-setelement;
#X connect 0 0 31 0;
#X connect 4 0 3 0;
#X connect 4 1 5 0;
#X connect 5 0 3 1;
#X connect 6 0 3 0;
#X connect 6 1 17 0;
#X connect 7 0 3 0;
#X connect 7 1 18 0;
#X connect 8 0 3 0;
#X connect 8 1 19 0;
#X connect 9 0 3 0;
#X connect 9 1 20 0;
#X connect 10 0 3 0;
#X connect 10 1 21 0;
#X connect 11 0 3 0;
#X connect 11 1 22 0;
#X connect 12 0 3 0;
#X connect 12 1 23 0;
#X connect 13 0 3 0;
#X connect 13 1 24 0;
#X connect 14 0 3 0;
#X connect 14 1 25 0;
#X connect 15 0 3 0;
#X connect 15 1 26 0;
#X connect 16 0 3 0;
#X connect 16 1 27 0;
#X connect 17 0 3 1;
#X connect 18 0 3 1;
#X connect 19 0 3 1;
#X connect 20 0 3 1;
#X connect 21 0 3 1;
#X connect 22 0 3 1;
#X connect 23 0 3 1;
#X connect 24 0 3 1;
#X connect 25 0 3 1;
#X connect 26 0 3 1;
#X connect 27 0 3 1;
#X connect 31 0 32 0;
#X connect 31 1 28 0;
#X connect 31 2 29 0;
#X connect 31 3 30 0;
#X connect 31 4 2 0;
#X connect 32 0 4 0;
#X connect 32 1 6 0;
#X connect 32 2 7 0;
#X connect 32 3 8 0;
#X connect 32 4 9 0;
#X connect 32 5 10 0;
#X connect 32 6 11 0;
#X connect 32 7 12 0;
#X connect 32 8 13 0;
#X connect 32 9 14 0;
#X connect 32 10 15 0;
#X connect 32 11 16 0;
#X connect 33 0 32 0;
#X restore 401 209 pd automation;
#X msg 523 226 1;
#X obj 498 294 r \$0-patch-num;
#X obj 509 317 t b f b;
#X obj 101 304 cnv 15 141 121 empty empty empty 20 12 0 14 -110605
-66577 0;
#X obj 102 304 cnv 15 67 122 empty \$0-scalebg empty 20 12 0 14 -204770
-66577 0;
#N canvas 0 50 450 300 (subpatch) 0;
#X array \$0-scale 12 float 3;
#A 0 3 6 9 10 0 1 6 7 8 9 10 11;
#X coords 0 12 12 0 141 121 1;
#X restore 101 303 graph;
#X obj 593 192 s \$0-scalebg;
#X msg 593 173 vis_size \$1 122;
#X obj 593 116 * 11.75;
#X obj 594 65 r \$0-length;
#X floatatom 594 98 5 1 12 0 - - -, f 5;
#X obj 593 135 i;
#X obj 593 154 - 3;
#X floatatom 305 257 5 0 0 0 - - -, f 5;
#X obj 307 284 * 12;
#X floatatom 308 310 5 0 0 0 - - -, f 5;
#X floatatom 143 19 5 0 0 0 - - -, f 5;
#X msg 633 408 vis 1;
#X obj 101 425 cnv 15 141 20 empty empty empty 20 12 0 14 -232981 -66577
0;
#X obj 102 428 nbx 2 14 1 12 0 0 \$0-length \$0-length-set length 33
7 0 12 -204770 -13381 -13381 6 256;
#X obj 179 428 bng 14 250 50 0 \$0-showpitches \$0-showpitches-bng
ps 16 7 0 10 -204770 -260737 -13381;
#X obj 636 378 r \$0-showpitches;
#X obj 209 428 tgl 15 0 \$0-intout \$0-intout-set int 16 7 0 10 -204770
-67223 -13381 0 1;
#X obj 723 119 s \$0-length-set;
#X msg 721 95 12;
#X obj 725 66 loadbang;
#X obj 868 401 s \$0-p0_x100-set;
#X obj 883 385 s \$0-p1_x100-set;
#X obj 898 369 s \$0-p2_x100-set;
#X obj 913 353 s \$0-p3_x100-set;
#X obj 929 337 s \$0-p4_x100-set;
#X obj 944 321 s \$0-p5_x100-set;
#X obj 959 305 s \$0-p6_x100-set;
#X obj 974 289 s \$0-p7_x100-set;
#X obj 990 273 s \$0-p8_x100-set;
#X obj 1005 257 s \$0-p9_x100-set;
#X obj 1020 241 s \$0-p10_x100-set;
#X obj 1035 225 s \$0-p11_x100-set;
#X obj 868 53 r \$0-showpitches;
#X obj 868 91 tabdump \$0-scale;
#X obj 868 110 drip;
#X obj 868 129 t b f;
#X obj 868 72 t b b;
#X msg 923 129 0;
#X obj 868 148 cup;
#X obj 868 186 pack f f;
#X obj 895 148 * 100;
#X obj 895 166 i;
#X obj 868 205 route 0 1 2 3 4 5 6 7 8 9 10 11;
#X obj 32 549 r \$0-p0_x100;
#X obj 159 551 r \$0-p0-num;
#X obj 159 571 * 100;
#X msg 103 788 0 \$1;
#X obj 103 816 s \$0-setelement;
#X obj 32 571 * 0.01;
#X obj 65 630 s \$0-p0;
#X msg 65 610 set \$1;
#X obj 158 630 s \$0-p0_x100-set;
#X msg 158 610 set \$1;
#N canvas 0 50 450 300 round 0;
#X obj 146 94 * 100;
#X obj 146 114 % 100;
#X obj 146 133 >= 50;
#X obj 134 16 inlet;
#X obj 144 179 +;
#X obj 156 61 t f f;
#X obj 193 96 i;
#X obj 139 199 outlet;
#X connect 0 0 1 0;
#X connect 1 0 2 0;
#X connect 2 0 4 0;
#X connect 3 0 5 0;
#X connect 4 0 7 0;
#X connect 5 0 0 0;
#X connect 5 1 6 0;
#X connect 6 0 4 1;
#X restore 35 658 pd round;
#X obj 129 766 f;
#X obj 22 681 s \$0-p0-int-set;
#X obj 83 765 f;
#X obj 144 743 r \$0-p0-num;
#X obj 49 743 spigot;
#X obj 163 770 spigot 1;
#X obj 97 723 r \$0-p0-int;
#X obj 125 655 r \$0-p0_fint;
#X obj 121 700 sel 0 1;
#X obj 124 677 t f f;
#X obj 203 721 == 0;
#X obj 252 707 delay 250;
#X obj 253 668 t b b;
#X msg 264 688 stop;
#X obj 439 571 * 100;
#X obj 383 816 s \$0-setelement;
#X obj 312 571 * 0.01;
#X msg 345 610 set \$1;
#X msg 438 610 set \$1;
#N canvas 0 50 450 300 round 0;
#X obj 146 94 * 100;
#X obj 146 114 % 100;
#X obj 146 133 >= 50;
#X obj 134 16 inlet;
#X obj 144 179 +;
#X obj 156 61 t f f;
#X obj 193 96 i;
#X obj 139 199 outlet;
#X connect 0 0 1 0;
#X connect 1 0 2 0;
#X connect 2 0 4 0;
#X connect 3 0 5 0;
#X connect 4 0 7 0;
#X connect 5 0 0 0;
#X connect 5 1 6 0;
#X connect 6 0 4 1;
#X restore 315 658 pd round;
#X obj 409 766 f;
#X obj 363 765 f;
#X obj 329 743 spigot;
#X obj 443 770 spigot 1;
#X obj 401 700 sel 0 1;
#X obj 404 677 t f f;
#X obj 483 721 == 0;
#X obj 532 707 delay 250;
#X obj 533 668 t b b;
#X msg 544 688 stop;
#X obj 729 571 * 100;
#X obj 673 816 s \$0-setelement;
#X obj 602 571 * 0.01;
#X msg 635 610 set \$1;
#X msg 728 610 set \$1;
#N canvas 0 50 450 300 round 0;
#X obj 146 94 * 100;
#X obj 146 114 % 100;
#X obj 146 133 >= 50;
#X obj 134 16 inlet;
#X obj 144 179 +;
#X obj 156 61 t f f;
#X obj 193 96 i;
#X obj 139 199 outlet;
#X connect 0 0 1 0;
#X connect 1 0 2 0;
#X connect 2 0 4 0;
#X connect 3 0 5 0;
#X connect 4 0 7 0;
#X connect 5 0 0 0;
#X connect 5 1 6 0;
#X connect 6 0 4 1;
#X restore 605 658 pd round;
#X obj 699 766 f;
#X obj 653 765 f;
#X obj 619 743 spigot;
#X obj 733 770 spigot 1;
#X obj 691 700 sel 0 1;
#X obj 694 677 t f f;
#X obj 773 721 == 0;
#X obj 822 707 delay 250;
#X obj 823 668 t b b;
#X msg 834 688 stop;
#X obj 1015 571 * 100;
#X obj 959 816 s \$0-setelement;
#X obj 888 571 * 0.01;
#X msg 921 610 set \$1;
#X msg 1014 610 set \$1;
#N canvas 0 50 450 300 round 0;
#X obj 146 94 * 100;
#X obj 146 114 % 100;
#X obj 146 133 >= 50;
#X obj 134 16 inlet;
#X obj 144 179 +;
#X obj 156 61 t f f;
#X obj 193 96 i;
#X obj 139 199 outlet;
#X connect 0 0 1 0;
#X connect 1 0 2 0;
#X connect 2 0 4 0;
#X connect 3 0 5 0;
#X connect 4 0 7 0;
#X connect 5 0 0 0;
#X connect 5 1 6 0;
#X connect 6 0 4 1;
#X restore 891 658 pd round;
#X obj 985 766 f;
#X obj 939 765 f;
#X obj 905 743 spigot;
#X obj 1019 770 spigot 1;
#X obj 977 700 sel 0 1;
#X obj 980 677 t f f;
#X obj 1059 721 == 0;
#X obj 1108 707 delay 250;
#X obj 1109 668 t b b;
#X msg 1120 688 stop;
#X obj 312 549 r \$0-p1_x100;
#X obj 439 551 r \$0-p1-num;
#X obj 438 630 s \$0-p1_x100-set;
#X obj 405 655 r \$0-p1_fint;
#X msg 383 788 1 \$1;
#X obj 377 723 r \$0-p1-int;
#X obj 424 743 r \$0-p1-num;
#X obj 302 681 s \$0-p1-int-set;
#X obj 602 549 r \$0-p2_x100;
#X obj 729 551 r \$0-p2-num;
#X obj 345 630 s \$0-p1;
#X obj 635 630 s \$0-p2;
#X obj 592 681 s \$0-p2-int-set;
#X obj 728 630 s \$0-p2_x100-set;
#X obj 695 655 r \$0-p2_fint;
#X obj 667 723 r \$0-p2-int;
#X obj 714 743 r \$0-p2-num;
#X obj 888 549 r \$0-p3_x100;
#X obj 921 630 s \$0-p3;
#X obj 953 723 r \$0-p3-int;
#X obj 1000 743 r \$0-p3-num;
#X obj 1015 551 r \$0-p3-num;
#X obj 1014 630 s \$0-p3_x100-set;
#X obj 981 655 r \$0-p3_fint;
#X msg 673 788 2 \$1;
#X msg 959 788 3 \$1;
#X obj 878 681 s \$0-p3-int-set;
#X obj 159 861 * 100;
#X obj 103 1106 s \$0-setelement;
#X obj 32 861 * 0.01;
#X msg 65 900 set \$1;
#X msg 158 900 set \$1;
#N canvas 0 50 450 300 round 0;
#X obj 146 94 * 100;
#X obj 146 114 % 100;
#X obj 146 133 >= 50;
#X obj 134 16 inlet;
#X obj 144 179 +;
#X obj 156 61 t f f;
#X obj 193 96 i;
#X obj 139 199 outlet;
#X connect 0 0 1 0;
#X connect 1 0 2 0;
#X connect 2 0 4 0;
#X connect 3 0 5 0;
#X connect 4 0 7 0;
#X connect 5 0 0 0;
#X connect 5 1 6 0;
#X connect 6 0 4 1;
#X restore 35 948 pd round;
#X obj 129 1056 f;
#X obj 83 1055 f;
#X obj 49 1033 spigot;
#X obj 163 1060 spigot 1;
#X obj 121 990 sel 0 1;
#X obj 124 967 t f f;
#X obj 203 1011 == 0;
#X obj 252 997 delay 250;
#X obj 253 958 t b b;
#X msg 264 978 stop;
#X obj 439 861 * 100;
#X obj 383 1106 s \$0-setelement;
#X obj 312 861 * 0.01;
#X msg 345 900 set \$1;
#X msg 438 900 set \$1;
#N canvas 0 50 450 300 round 0;
#X obj 146 94 * 100;
#X obj 146 114 % 100;
#X obj 146 133 >= 50;
#X obj 134 16 inlet;
#X obj 144 179 +;
#X obj 156 61 t f f;
#X obj 193 96 i;
#X obj 139 199 outlet;
#X connect 0 0 1 0;
#X connect 1 0 2 0;
#X connect 2 0 4 0;
#X connect 3 0 5 0;
#X connect 4 0 7 0;
#X connect 5 0 0 0;
#X connect 5 1 6 0;
#X connect 6 0 4 1;
#X restore 315 948 pd round;
#X obj 409 1056 f;
#X obj 363 1055 f;
#X obj 329 1033 spigot;
#X obj 443 1060 spigot 1;
#X obj 401 990 sel 0 1;
#X obj 404 967 t f f;
#X obj 483 1011 == 0;
#X obj 532 997 delay 250;
#X obj 533 958 t b b;
#X msg 544 978 stop;
#X obj 729 861 * 100;
#X obj 673 1106 s \$0-setelement;
#X obj 602 861 * 0.01;
#X msg 635 900 set \$1;
#X msg 728 900 set \$1;
#N canvas 0 50 450 300 round 0;
#X obj 146 94 * 100;
#X obj 146 114 % 100;
#X obj 146 133 >= 50;
#X obj 134 16 inlet;
#X obj 144 179 +;
#X obj 156 61 t f f;
#X obj 193 96 i;
#X obj 139 199 outlet;
#X connect 0 0 1 0;
#X connect 1 0 2 0;
#X connect 2 0 4 0;
#X connect 3 0 5 0;
#X connect 4 0 7 0;
#X connect 5 0 0 0;
#X connect 5 1 6 0;
#X connect 6 0 4 1;
#X restore 605 948 pd round;
#X obj 699 1056 f;
#X obj 653 1055 f;
#X obj 619 1033 spigot;
#X obj 733 1060 spigot 1;
#X obj 691 990 sel 0 1;
#X obj 694 967 t f f;
#X obj 773 1011 == 0;
#X obj 822 997 delay 250;
#X obj 823 958 t b b;
#X msg 834 978 stop;
#X obj 1015 861 * 100;
#X obj 959 1106 s \$0-setelement;
#X obj 888 861 * 0.01;
#X msg 921 900 set \$1;
#X msg 1014 900 set \$1;
#N canvas 0 50 450 300 round 0;
#X obj 146 94 * 100;
#X obj 146 114 % 100;
#X obj 146 133 >= 50;
#X obj 134 16 inlet;
#X obj 144 179 +;
#X obj 156 61 t f f;
#X obj 193 96 i;
#X obj 139 199 outlet;
#X connect 0 0 1 0;
#X connect 1 0 2 0;
#X connect 2 0 4 0;
#X connect 3 0 5 0;
#X connect 4 0 7 0;
#X connect 5 0 0 0;
#X connect 5 1 6 0;
#X connect 6 0 4 1;
#X restore 891 948 pd round;
#X obj 985 1056 f;
#X obj 939 1055 f;
#X obj 905 1033 spigot;
#X obj 1019 1060 spigot 1;
#X obj 977 990 sel 0 1;
#X obj 980 967 t f f;
#X obj 1059 1011 == 0;
#X obj 1108 997 delay 250;
#X obj 1109 958 t b b;
#X msg 1120 978 stop;
#X obj 159 1151 * 100;
#X obj 103 1396 s \$0-setelement;
#X obj 32 1151 * 0.01;
#X msg 65 1190 set \$1;
#X msg 158 1190 set \$1;
#N canvas 0 50 450 300 round 0;
#X obj 146 94 * 100;
#X obj 146 114 % 100;
#X obj 146 133 >= 50;
#X obj 134 16 inlet;
#X obj 144 179 +;
#X obj 156 61 t f f;
#X obj 193 96 i;
#X obj 139 199 outlet;
#X connect 0 0 1 0;
#X connect 1 0 2 0;
#X connect 2 0 4 0;
#X connect 3 0 5 0;
#X connect 4 0 7 0;
#X connect 5 0 0 0;
#X connect 5 1 6 0;
#X connect 6 0 4 1;
#X restore 35 1238 pd round;
#X obj 129 1346 f;
#X obj 83 1345 f;
#X obj 49 1323 spigot;
#X obj 163 1350 spigot 1;
#X obj 121 1280 sel 0 1;
#X obj 124 1257 t f f;
#X obj 203 1301 == 0;
#X obj 252 1287 delay 250;
#X obj 253 1248 t b b;
#X msg 264 1268 stop;
#X obj 439 1151 * 100;
#X obj 383 1396 s \$0-setelement;
#X obj 312 1151 * 0.01;
#X msg 345 1190 set \$1;
#X msg 438 1190 set \$1;
#N canvas 0 50 450 300 round 0;
#X obj 146 94 * 100;
#X obj 146 114 % 100;
#X obj 146 133 >= 50;
#X obj 134 16 inlet;
#X obj 144 179 +;
#X obj 156 61 t f f;
#X obj 193 96 i;
#X obj 139 199 outlet;
#X connect 0 0 1 0;
#X connect 1 0 2 0;
#X connect 2 0 4 0;
#X connect 3 0 5 0;
#X connect 4 0 7 0;
#X connect 5 0 0 0;
#X connect 5 1 6 0;
#X connect 6 0 4 1;
#X restore 315 1238 pd round;
#X obj 409 1346 f;
#X obj 363 1345 f;
#X obj 329 1323 spigot;
#X obj 443 1350 spigot 1;
#X obj 401 1280 sel 0 1;
#X obj 404 1257 t f f;
#X obj 483 1301 == 0;
#X obj 532 1287 delay 250;
#X obj 533 1248 t b b;
#X msg 544 1268 stop;
#X obj 729 1151 * 100;
#X obj 673 1396 s \$0-setelement;
#X obj 602 1151 * 0.01;
#X msg 635 1190 set \$1;
#X msg 728 1190 set \$1;
#N canvas 0 50 450 300 round 0;
#X obj 146 94 * 100;
#X obj 146 114 % 100;
#X obj 146 133 >= 50;
#X obj 134 16 inlet;
#X obj 144 179 +;
#X obj 156 61 t f f;
#X obj 193 96 i;
#X obj 139 199 outlet;
#X connect 0 0 1 0;
#X connect 1 0 2 0;
#X connect 2 0 4 0;
#X connect 3 0 5 0;
#X connect 4 0 7 0;
#X connect 5 0 0 0;
#X connect 5 1 6 0;
#X connect 6 0 4 1;
#X restore 605 1238 pd round;
#X obj 699 1346 f;
#X obj 653 1345 f;
#X obj 619 1323 spigot;
#X obj 733 1350 spigot 1;
#X obj 691 1280 sel 0 1;
#X obj 694 1257 t f f;
#X obj 773 1301 == 0;
#X obj 822 1287 delay 250;
#X obj 823 1248 t b b;
#X msg 834 1268 stop;
#X obj 1015 1151 * 100;
#X obj 959 1396 s \$0-setelement;
#X obj 888 1151 * 0.01;
#X msg 921 1190 set \$1;
#X msg 1014 1190 set \$1;
#N canvas 0 50 450 300 round 0;
#X obj 146 94 * 100;
#X obj 146 114 % 100;
#X obj 146 133 >= 50;
#X obj 134 16 inlet;
#X obj 144 179 +;
#X obj 156 61 t f f;
#X obj 193 96 i;
#X obj 139 199 outlet;
#X connect 0 0 1 0;
#X connect 1 0 2 0;
#X connect 2 0 4 0;
#X connect 3 0 5 0;
#X connect 4 0 7 0;
#X connect 5 0 0 0;
#X connect 5 1 6 0;
#X connect 6 0 4 1;
#X restore 891 1238 pd round;
#X obj 985 1346 f;
#X obj 939 1345 f;
#X obj 905 1323 spigot;
#X obj 1019 1350 spigot 1;
#X obj 977 1280 sel 0 1;
#X obj 980 1257 t f f;
#X obj 1059 1301 == 0;
#X obj 1108 1287 delay 250;
#X obj 1109 1248 t b b;
#X msg 1120 1268 stop;
#X obj 32 839 r \$0-p4_x100;
#X obj 159 841 r \$0-p4-num;
#X obj 311 839 r \$0-p5_x100;
#X obj 439 841 r \$0-p5-num;
#X obj 602 839 r \$0-p6_x100;
#X obj 729 841 r \$0-p6-num;
#X obj 888 839 r \$0-p7_x100;
#X obj 1015 841 r \$0-p7-num;
#X obj 65 920 s \$0-p4;
#X obj 158 920 s \$0-p4_x100-set;
#X obj 345 920 s \$0-p5;
#X obj 438 920 s \$0-p5_x100-set;
#X obj 635 920 s \$0-p6;
#X obj 728 920 s \$0-p6_x100-set;
#X obj 921 920 s \$0-p7;
#X obj 1014 920 s \$0-p7_x100-set;
#X obj 125 945 r \$0-p4_fint;
#X obj 22 971 s \$0-p4-int-set;
#X obj 302 971 s \$0-p5-int-set;
#X obj 405 945 r \$0-p5_fint;
#X obj 592 971 s \$0-p6-int-set;
#X obj 695 945 r \$0-p6_fint;
#X obj 878 971 s \$0-p7-int-set;
#X obj 981 945 r \$0-p7_fint;
#X obj 97 1013 r \$0-p4-int;
#X obj 144 1033 r \$0-p4-num;
#X obj 377 1013 r \$0-p5-int;
#X obj 424 1033 r \$0-p5-num;
#X obj 667 1013 r \$0-p6-int;
#X obj 714 1033 r \$0-p6-num;
#X obj 953 1013 r \$0-p7-int;
#X obj 1000 1033 r \$0-p7-num;
#X msg 103 1078 4 \$1;
#X msg 383 1078 5 \$1;
#X msg 673 1078 6 \$1;
#X msg 959 1078 7 \$1;
#X obj 32 1129 r \$0-p8_x100;
#X obj 159 1131 r \$0-p8-num;
#X obj 65 1210 s \$0-p8;
#X obj 158 1210 s \$0-p8_x100-set;
#X obj 312 1129 r \$0-p9_x100;
#X obj 439 1131 r \$0-p9-num;
#X obj 345 1210 s \$0-p9;
#X obj 438 1210 s \$0-p9_x100-set;
#X obj 602 1128 r \$0-p10_x100;
#X obj 729 1131 r \$0-p10-num;
#X obj 635 1210 s \$0-p10;
#X obj 728 1210 s \$0-p10_x100-set;
#X obj 888 1129 r \$0-p11_x100;
#X obj 1015 1131 r \$0-p11-num;
#X obj 921 1210 s \$0-p11;
#X obj 1014 1210 s \$0-p11_x100-set;
#X obj 22 1261 s \$0-p8-int-set;
#X obj 125 1235 r \$0-p8_fint;
#X obj 97 1303 r \$0-p8-int;
#X obj 144 1323 r \$0-p8-num;
#X obj 302 1261 s \$0-p9-int-set;
#X obj 405 1235 r \$0-p9_fint;
#X obj 377 1303 r \$0-p9-int;
#X obj 424 1323 r \$0-p9-num;
#X obj 592 1261 s \$0-p10-int-set;
#X obj 695 1235 r \$0-p10_fint;
#X obj 714 1323 r \$0-p10-num;
#X obj 667 1303 r \$0-p10-int;
#X obj 878 1261 s \$0-p11-int-set;
#X obj 981 1235 r \$0-p11_fint;
#X obj 953 1303 r \$0-p11-int;
#X obj 1000 1323 r \$0-p11-num;
#X msg 103 1368 8 \$1;
#X msg 383 1368 9 \$1;
#X msg 673 1368 10 \$1;
#X msg 959 1368 11 \$1;
#X obj 154 85 t f f;
#X obj 181 107 / 12;
#X obj 181 129 i;
#X obj 128 109 * 100;
#X obj 128 129 % 1200;
#X obj 87 58 moses 0;
#X obj 75 101 t f f;
#X obj 18 81 moses -384;
#X obj 75 121 + 384;
#X obj 227 72 r \$0-length;
#X obj 67 219 tabread \$0-scale;
#X obj 226 92 / 12;
#X obj 128 149 *;
#X floatatom 226 113 5 0 0 0 - - -, f 5;
#X obj 68 199 i;
#X obj 128 169 * 0.01;
#X obj 204 156 +;
#X obj 218 137 * 12;
#X obj 87 37 inlet;
#X obj 193 201 i;
#X obj 266 208 f;
#X obj 273 105 r \$0-intout;
#X obj 266 186 spigot 1;
#X obj 193 181 spigot;
#X obj 293 162 == 0;
#X obj 271 131 t b f;
#X obj 212 231 outlet;
#N canvas 99 263 694 84 pitches\$0 0;
#X obj 7 7 cnv 15 680 70 empty empty pitches 7 7 0 10 -261234 -86277
0;
#X obj 12 30 nbx 5 12 0 1199 0 0 \$0-p0_x100 \$0-p0_x100-set p0 0 -6
0 10 -203904 -16662 -45076 0 256;
#X obj 12 42 nbx 5 12 0 12 0 0 \$0-p0-num \$0-p0 empty 0 -8 0 10 -16653
-166457 -16657 0 256;
#X obj 12 59 nbx 2 10 0 1199 0 0 \$0-p0-int \$0-p0-int-set empty 0
-8 0 10 -16653 -166457 -16657 0 256;
#X obj 40 57 tgl 12 0 \$0-p0_fint \$0-p0_fint-set int 13 8 0 10 -16658
-203904 -16662 0 1;
#X obj 68 21 nbx 5 12 0 1199 0 0 \$0-p1_x100 \$0-p1_x100-set p1 0 -6
0 10 -203904 -16662 -45076 0 256;
#X obj 68 33 nbx 5 12 0 12 0 0 \$0-p1-num \$0-p1 empty 0 -8 0 10 -16653
-166457 -16657 0 256;
#X obj 68 50 nbx 2 10 0 1199 0 0 \$0-p1-int \$0-p1-int-set empty 0
-8 0 10 -16653 -166457 -16657 0 256;
#X obj 96 48 tgl 12 0 \$0-p1_fint \$0-p1_fint-set i 13 8 0 10 -16658
-203904 -16662 0 1;
#X obj 124 30 nbx 5 12 0 1199 0 0 \$0-p2_x100 \$0-p2_x100-set p2 0
-6 0 10 -203904 -16662 -45076 0 256;
#X obj 124 42 nbx 5 12 0 12 0 0 \$0-p2-num \$0-p2 empty 0 -8 0 10 -16653
-166457 -16657 0 256;
#X obj 124 59 nbx 2 10 0 1199 0 0 \$0-p2-int \$0-p2-int-set empty 0
-8 0 10 -16653 -166457 -16657 0 256;
#X obj 152 57 tgl 12 0 \$0-p2_fint \$0-p2_fint-set int 13 8 0 10 -16658
-203904 -16662 0 1;
#X obj 180 21 nbx 5 12 0 1199 0 0 \$0-p3_x100 \$0-p3_x100-set p3 0
-6 0 10 -203904 -16662 -45076 0 256;
#X obj 180 33 nbx 5 12 0 12 0 0 \$0-p3-num \$0-p3 empty 0 -8 0 10 -16653
-166457 -16657 0 256;
#X obj 180 50 nbx 2 10 0 1199 0 0 \$0-p3-int \$0-p3-int-set empty 0
-8 0 10 -16653 -166457 -16657 0 256;
#X obj 208 48 tgl 12 0 \$0-p3_fint \$0-p3_fint-set i 13 8 0 10 -16658
-203904 -16662 0 1;
#X obj 236 30 nbx 5 12 0 1199 0 0 \$0-p4_x100 \$0-p4_x100-set p4 0
-6 0 10 -203904 -16662 -45076 0 256;
#X obj 236 42 nbx 5 12 0 12 0 0 \$0-p4-num \$0-p4 empty 0 -8 0 10 -16653
-166457 -16657 0 256;
#X obj 236 59 nbx 2 10 0 1199 0 0 \$0-p4-int \$0-p4-int-set empty 0
-8 0 10 -16653 -166457 -16657 0 256;
#X obj 264 57 tgl 12 0 \$0-p4_fint \$0-p4_fint-set i 13 8 0 10 -16658
-203904 -16662 0 1;
#X obj 292 21 nbx 5 12 0 1199 0 0 \$0-p5_x100 \$0-p5_x100-set p5 0
-6 0 10 -203904 -16662 -45076 0 256;
#X obj 292 33 nbx 5 12 0 12 0 0 \$0-p5-num \$0-p5 empty 0 -8 0 10 -16653
-166457 -16657 0 256;
#X obj 292 50 nbx 2 10 0 1199 0 0 \$0-p5-int \$0-p5-int-set empty 0
-8 0 10 -16653 -166457 -16657 0 256;
#X obj 320 48 tgl 12 0 \$0-p5_fint \$0-p5_fint-set i 13 8 0 10 -16658
-203904 -16662 0 1;
#X obj 348 30 nbx 5 12 0 1199 0 0 \$0-p6_x100 \$0-p6_x100-set p6 0
-6 0 10 -203904 -16662 -45076 0 256;
#X obj 348 42 nbx 5 12 0 12 0 0 \$0-p6-num \$0-p6 empty 0 -8 0 10 -16653
-166457 -16657 0 256;
#X obj 348 59 nbx 2 10 0 1199 0 0 \$0-p6-int \$0-p6-int-set empty 0
-8 0 10 -16653 -166457 -16657 0 256;
#X obj 376 57 tgl 12 0 \$0-p6_fint \$0-p6_fint-set int 13 8 0 10 -16658
-203904 -16662 0 1;
#X obj 404 21 nbx 5 12 0 1199 0 0 \$0-p7_x100 \$0-p7_x100-set p7 0
-6 0 10 -203904 -16662 -45076 0 256;
#X obj 404 33 nbx 5 12 0 12 0 0 \$0-p7-num \$0-p7 empty 0 -8 0 10 -16653
-166457 -16657 0 256;
#X obj 404 50 nbx 2 10 0 1199 0 0 \$0-p7-int \$0-p7-int-set empty 0
-8 0 10 -16653 -166457 -16657 0 256;
#X obj 432 48 tgl 12 0 \$0-p7_fint \$0-p7_fint-set i 13 8 0 10 -16658
-203904 -16662 0 1;
#X obj 460 30 nbx 5 12 0 1199 0 0 \$0-p8_x100 \$0-p8_x100-set p8 0
-6 0 10 -203904 -16662 -45076 0 256;
#X obj 460 42 nbx 5 12 0 12 0 0 \$0-p8-num \$0-p8 empty 0 -8 0 10 -16653
-166457 -16657 0 256;
#X obj 460 59 nbx 2 10 0 1199 0 0 \$0-p8-int \$0-p8-int-set empty 0
-8 0 10 -16653 -166457 -16657 0 256;
#X obj 488 57 tgl 12 0 \$0-p8_fint \$0-p8_fint-set i 13 8 0 10 -16658
-203904 -16662 0 1;
#X obj 516 21 nbx 5 12 0 1199 0 0 \$0-p9_x100 \$0-p9_x100-set p9 0
-6 0 10 -203904 -16662 -45076 0 256;
#X obj 516 33 nbx 5 12 0 12 0 0 \$0-p9-num \$0-p9 empty 0 -8 0 10 -16653
-166457 -16657 0 256;
#X obj 516 50 nbx 2 10 0 1199 0 0 \$0-p9-int \$0-p9-int-set empty 0
-8 0 10 -16653 -166457 -16657 0 256;
#X obj 544 48 tgl 12 0 \$0-p9_fint \$0-p9_fint-set i 13 8 0 10 -16658
-203904 -16662 0 1;
#X obj 572 30 nbx 5 12 0 1199 0 0 \$0-p10_x100 \$0-p10_x100-set p10
0 -6 0 10 -203904 -16662 -45076 0 256;
#X obj 572 42 nbx 5 12 0 12 0 0 \$0-p10-num \$0-p10 empty 0 -8 0 10
-16653 -166457 -16657 0 256;
#X obj 572 59 nbx 2 10 0 1199 0 0 \$0-p10-int \$0-p10-int-set empty
0 -8 0 10 -16653 -166457 -16657 0 256;
#X obj 600 57 tgl 12 0 \$0-p10_fint \$0-p10_fint-set int 13 8 0 10
-16658 -203904 -16662 0 1;
#X obj 628 21 nbx 5 12 0 1199 0 0 \$0-p11_x100 \$0-p11_x100-set p11
0 -6 0 10 -203904 -16662 -45076 0 256;
#X obj 628 33 nbx 5 12 0 12 0 0 \$0-p11-num \$0-p11 empty 0 -8 0 10
-16653 -166457 -16657 0 256;
#X obj 628 50 nbx 2 10 0 1199 0 0 \$0-p11-int \$0-p11-int-set empty
0 -8 0 10 -16653 -166457 -16657 0 256;
#X obj 656 48 tgl 12 0 \$0-p11_fint \$0-p11_fint-set i 13 8 0 10 -16658
-203904 -16662 0 1;
#X restore 681 308 pd pitches\$0;
#X obj 634 437 s pd-pitches\$0;
#X connect 2 0 24 0;
#X connect 13 1 14 0;
#X connect 14 0 12 0;
#X connect 14 1 12 1;
#X connect 15 0 13 0;
#X connect 16 0 13 0;
#X connect 16 0 18 0;
#X connect 18 0 17 0;
#X connect 20 1 23 0;
#X connect 21 0 22 0;
#X connect 21 1 20 0;
#X connect 23 0 21 0;
#X connect 24 0 21 0;
#X connect 24 1 20 2;
#X connect 25 0 19 0;
#X connect 26 0 27 0;
#X connect 27 1 20 1;
#X connect 32 0 31 0;
#X connect 33 0 36 0;
#X connect 34 0 35 0;
#X connect 35 0 33 0;
#X connect 36 0 37 0;
#X connect 37 0 32 0;
#X connect 38 0 39 0;
#X connect 39 0 40 0;
#X connect 42 0 402 0;
#X connect 46 0 42 0;
#X connect 49 0 48 0;
#X connect 50 0 49 0;
#X connect 63 0 67 0;
#X connect 64 0 65 0;
#X connect 65 0 66 0;
#X connect 66 0 69 0;
#X connect 66 1 71 0;
#X connect 67 0 64 0;
#X connect 67 1 68 0;
#X connect 68 0 69 0;
#X connect 69 0 70 0;
#X connect 70 0 73 0;
#X connect 71 0 72 0;
#X connect 72 0 70 1;
#X connect 73 0 51 0;
#X connect 73 1 52 0;
#X connect 73 2 53 0;
#X connect 73 3 54 0;
#X connect 73 4 55 0;
#X connect 73 5 56 0;
#X connect 73 6 57 0;
#X connect 73 7 58 0;
#X connect 73 8 59 0;
#X connect 73 9 60 0;
#X connect 73 10 61 0;
#X connect 73 11 62 0;
#X connect 74 0 79 0;
#X connect 75 0 76 0;
#X connect 75 0 84 0;
#X connect 75 0 97 0;
#X connect 76 0 83 0;
#X connect 77 0 78 0;
#X connect 79 0 81 0;
#X connect 79 0 84 0;
#X connect 79 0 97 0;
#X connect 79 0 85 1;
#X connect 79 0 90 0;
#X connect 81 0 80 0;
#X connect 83 0 82 0;
#X connect 84 0 86 0;
#X connect 85 0 77 0;
#X connect 87 0 77 0;
#X connect 88 0 85 1;
#X connect 88 0 90 0;
#X connect 89 0 87 0;
#X connect 90 0 85 0;
#X connect 91 0 89 0;
#X connect 91 0 87 1;
#X connect 92 0 94 0;
#X connect 93 0 85 0;
#X connect 93 1 87 0;
#X connect 94 0 93 0;
#X connect 94 1 89 1;
#X connect 94 1 95 0;
#X connect 95 0 90 1;
#X connect 96 0 89 0;
#X connect 96 0 90 0;
#X connect 97 0 96 0;
#X connect 97 1 98 0;
#X connect 98 0 96 0;
#X connect 99 0 103 0;
#X connect 101 0 102 0;
#X connect 101 0 104 0;
#X connect 101 0 113 0;
#X connect 101 0 105 1;
#X connect 101 0 108 0;
#X connect 102 0 157 0;
#X connect 103 0 149 0;
#X connect 104 0 154 0;
#X connect 105 0 151 0;
#X connect 106 0 151 0;
#X connect 107 0 106 0;
#X connect 108 0 105 0;
#X connect 109 0 105 0;
#X connect 109 1 106 0;
#X connect 110 0 109 0;
#X connect 110 1 107 1;
#X connect 110 1 111 0;
#X connect 111 0 108 1;
#X connect 112 0 107 0;
#X connect 112 0 108 0;
#X connect 113 0 112 0;
#X connect 113 1 114 0;
#X connect 114 0 112 0;
#X connect 115 0 119 0;
#X connect 117 0 118 0;
#X connect 117 0 120 0;
#X connect 117 0 129 0;
#X connect 117 0 121 1;
#X connect 117 0 124 0;
#X connect 118 0 158 0;
#X connect 119 0 160 0;
#X connect 120 0 159 0;
#X connect 121 0 171 0;
#X connect 122 0 171 0;
#X connect 123 0 122 0;
#X connect 124 0 121 0;
#X connect 125 0 121 0;
#X connect 125 1 122 0;
#X connect 126 0 125 0;
#X connect 126 1 123 1;
#X connect 126 1 127 0;
#X connect 127 0 124 1;
#X connect 128 0 123 0;
#X connect 128 0 124 0;
#X connect 129 0 128 0;
#X connect 129 1 130 0;
#X connect 130 0 128 0;
#X connect 131 0 135 0;
#X connect 133 0 134 0;
#X connect 133 0 136 0;
#X connect 133 0 145 0;
#X connect 133 0 137 1;
#X connect 133 0 140 0;
#X connect 134 0 165 0;
#X connect 135 0 169 0;
#X connect 136 0 173 0;
#X connect 137 0 172 0;
#X connect 138 0 172 0;
#X connect 139 0 138 0;
#X connect 140 0 137 0;
#X connect 141 0 137 0;
#X connect 141 1 138 0;
#X connect 142 0 141 0;
#X connect 142 1 139 1;
#X connect 142 1 143 0;
#X connect 143 0 140 1;
#X connect 144 0 139 0;
#X connect 144 0 140 0;
#X connect 145 0 144 0;
#X connect 145 1 146 0;
#X connect 146 0 144 0;
#X connect 147 0 101 0;
#X connect 148 0 99 0;
#X connect 148 0 104 0;
#X connect 148 0 113 0;
#X connect 150 0 110 0;
#X connect 151 0 100 0;
#X connect 152 0 107 0;
#X connect 152 0 106 1;
#X connect 153 0 105 1;
#X connect 153 0 108 0;
#X connect 155 0 117 0;
#X connect 156 0 115 0;
#X connect 156 0 120 0;
#X connect 156 0 129 0;
#X connect 161 0 126 0;
#X connect 162 0 123 0;
#X connect 162 0 122 1;
#X connect 163 0 121 1;
#X connect 163 0 124 0;
#X connect 164 0 133 0;
#X connect 166 0 139 0;
#X connect 166 0 138 1;
#X connect 167 0 137 1;
#X connect 167 0 140 0;
#X connect 168 0 131 0;
#X connect 168 0 136 0;
#X connect 168 0 145 0;
#X connect 170 0 142 0;
#X connect 171 0 116 0;
#X connect 172 0 132 0;
#X connect 174 0 178 0;
#X connect 176 0 177 0;
#X connect 176 0 179 0;
#X connect 176 0 188 0;
#X connect 176 0 180 1;
#X connect 176 0 183 0;
#X connect 177 0 310 0;
#X connect 178 0 311 0;
#X connect 179 0 319 0;
#X connect 180 0 334 0;
#X connect 181 0 334 0;
#X connect 182 0 181 0;
#X connect 183 0 180 0;
#X connect 184 0 180 0;
#X connect 184 1 181 0;
#X connect 185 0 184 0;
#X connect 185 1 182 1;
#X connect 185 1 186 0;
#X connect 186 0 183 1;
#X connect 187 0 182 0;
#X connect 187 0 183 0;
#X connect 188 0 187 0;
#X connect 188 1 189 0;
#X connect 189 0 187 0;
#X connect 190 0 194 0;
#X connect 192 0 193 0;
#X connect 192 0 195 0;
#X connect 192 0 204 0;
#X connect 192 0 196 1;
#X connect 192 0 199 0;
#X connect 193 0 312 0;
#X connect 194 0 313 0;
#X connect 195 0 320 0;
#X connect 196 0 335 0;
#X connect 197 0 335 0;
#X connect 198 0 197 0;
#X connect 199 0 196 0;
#X connect 200 0 196 0;
#X connect 200 1 197 0;
#X connect 201 0 200 0;
#X connect 201 1 198 1;
#X connect 201 1 202 0;
#X connect 202 0 199 1;
#X connect 203 0 198 0;
#X connect 203 0 199 0;
#X connect 204 0 203 0;
#X connect 204 1 205 0;
#X connect 205 0 203 0;
#X connect 206 0 210 0;
#X connect 208 0 209 0;
#X connect 208 0 211 0;
#X connect 208 0 220 0;
#X connect 208 0 212 1;
#X connect 208 0 215 0;
#X connect 209 0 314 0;
#X connect 210 0 315 0;
#X connect 211 0 322 0;
#X connect 212 0 336 0;
#X connect 213 0 336 0;
#X connect 214 0 213 0;
#X connect 215 0 212 0;
#X connect 216 0 212 0;
#X connect 216 1 213 0;
#X connect 217 0 216 0;
#X connect 217 1 214 1;
#X connect 217 1 218 0;
#X connect 218 0 215 1;
#X connect 219 0 214 0;
#X connect 219 0 215 0;
#X connect 220 0 219 0;
#X connect 220 1 221 0;
#X connect 221 0 219 0;
#X connect 222 0 226 0;
#X connect 224 0 225 0;
#X connect 224 0 227 0;
#X connect 224 0 236 0;
#X connect 224 0 228 1;
#X connect 224 0 231 0;
#X connect 225 0 316 0;
#X connect 226 0 317 0;
#X connect 227 0 324 0;
#X connect 228 0 337 0;
#X connect 229 0 337 0;
#X connect 230 0 229 0;
#X connect 231 0 228 0;
#X connect 232 0 228 0;
#X connect 232 1 229 0;
#X connect 233 0 232 0;
#X connect 233 1 230 1;
#X connect 233 1 234 0;
#X connect 234 0 231 1;
#X connect 235 0 230 0;
#X connect 235 0 231 0;
#X connect 236 0 235 0;
#X connect 236 1 237 0;
#X connect 237 0 235 0;
#X connect 238 0 242 0;
#X connect 240 0 241 0;
#X connect 240 0 243 0;
#X connect 240 0 252 0;
#X connect 240 0 244 1;
#X connect 240 0 247 0;
#X connect 241 0 340 0;
#X connect 242 0 341 0;
#X connect 243 0 354 0;
#X connect 244 0 370 0;
#X connect 245 0 370 0;
#X connect 246 0 245 0;
#X connect 247 0 244 0;
#X connect 248 0 244 0;
#X connect 248 1 245 0;
#X connect 249 0 248 0;
#X connect 249 1 246 1;
#X connect 249 1 250 0;
#X connect 250 0 247 1;
#X connect 251 0 246 0;
#X connect 251 0 247 0;
#X connect 252 0 251 0;
#X connect 252 1 253 0;
#X connect 253 0 251 0;
#X connect 254 0 258 0;
#X connect 256 0 257 0;
#X connect 256 0 259 0;
#X connect 256 0 268 0;
#X connect 256 0 260 1;
#X connect 256 0 263 0;
#X connect 257 0 344 0;
#X connect 258 0 345 0;
#X connect 259 0 358 0;
#X connect 260 0 371 0;
#X connect 261 0 371 0;
#X connect 262 0 261 0;
#X connect 263 0 260 0;
#X connect 264 0 260 0;
#X connect 264 1 261 0;
#X connect 265 0 264 0;
#X connect 265 1 262 1;
#X connect 265 1 266 0;
#X connect 266 0 263 1;
#X connect 267 0 262 0;
#X connect 267 0 263 0;
#X connect 268 0 267 0;
#X connect 268 1 269 0;
#X connect 269 0 267 0;
#X connect 270 0 274 0;
#X connect 272 0 273 0;
#X connect 272 0 275 0;
#X connect 272 0 284 0;
#X connect 272 0 276 1;
#X connect 272 0 279 0;
#X connect 273 0 348 0;
#X connect 274 0 349 0;
#X connect 275 0 362 0;
#X connect 276 0 372 0;
#X connect 277 0 372 0;
#X connect 278 0 277 0;
#X connect 279 0 276 0;
#X connect 280 0 276 0;
#X connect 280 1 277 0;
#X connect 281 0 280 0;
#X connect 281 1 278 1;
#X connect 281 1 282 0;
#X connect 282 0 279 1;
#X connect 283 0 278 0;
#X connect 283 0 279 0;
#X connect 284 0 283 0;
#X connect 284 1 285 0;
#X connect 285 0 283 0;
#X connect 286 0 290 0;
#X connect 288 0 289 0;
#X connect 288 0 291 0;
#X connect 288 0 300 0;
#X connect 288 0 292 1;
#X connect 288 0 295 0;
#X connect 289 0 352 0;
#X connect 290 0 353 0;
#X connect 291 0 366 0;
#X connect 292 0 373 0;
#X connect 293 0 373 0;
#X connect 294 0 293 0;
#X connect 295 0 292 0;
#X connect 296 0 292 0;
#X connect 296 1 293 0;
#X connect 297 0 296 0;
#X connect 297 1 294 1;
#X connect 297 1 298 0;
#X connect 298 0 295 1;
#X connect 299 0 294 0;
#X connect 299 0 295 0;
#X connect 300 0 299 0;
#X connect 300 1 301 0;
#X connect 301 0 299 0;
#X connect 302 0 176 0;
#X connect 303 0 174 0;
#X connect 303 0 179 0;
#X connect 303 0 188 0;
#X connect 304 0 192 0;
#X connect 305 0 190 0;
#X connect 305 0 195 0;
#X connect 305 0 204 0;
#X connect 306 0 208 0;
#X connect 307 0 206 0;
#X connect 307 0 211 0;
#X connect 307 0 220 0;
#X connect 308 0 224 0;
#X connect 309 0 222 0;
#X connect 309 0 227 0;
#X connect 309 0 236 0;
#X connect 318 0 185 0;
#X connect 321 0 201 0;
#X connect 323 0 217 0;
#X connect 325 0 233 0;
#X connect 326 0 182 0;
#X connect 326 0 181 1;
#X connect 327 0 180 1;
#X connect 327 0 183 0;
#X connect 328 0 198 0;
#X connect 328 0 197 1;
#X connect 329 0 196 1;
#X connect 329 0 199 0;
#X connect 330 0 214 0;
#X connect 330 0 213 1;
#X connect 331 0 212 1;
#X connect 331 0 215 0;
#X connect 332 0 230 0;
#X connect 332 0 229 1;
#X connect 333 0 228 1;
#X connect 333 0 231 0;
#X connect 334 0 175 0;
#X connect 335 0 191 0;
#X connect 336 0 207 0;
#X connect 337 0 223 0;
#X connect 338 0 240 0;
#X connect 339 0 238 0;
#X connect 339 0 243 0;
#X connect 339 0 252 0;
#X connect 342 0 256 0;
#X connect 343 0 254 0;
#X connect 343 0 259 0;
#X connect 343 0 268 0;
#X connect 346 0 272 0;
#X connect 347 0 270 0;
#X connect 347 0 275 0;
#X connect 347 0 284 0;
#X connect 350 0 288 0;
#X connect 351 0 286 0;
#X connect 351 0 291 0;
#X connect 351 0 300 0;
#X connect 355 0 249 0;
#X connect 356 0 246 0;
#X connect 356 0 245 1;
#X connect 357 0 244 1;
#X connect 357 0 247 0;
#X connect 359 0 265 0;
#X connect 360 0 262 0;
#X connect 360 0 261 1;
#X connect 361 0 260 1;
#X connect 361 0 263 0;
#X connect 363 0 281 0;
#X connect 364 0 276 1;
#X connect 364 0 279 0;
#X connect 365 0 278 0;
#X connect 365 0 277 1;
#X connect 367 0 297 0;
#X connect 368 0 294 0;
#X connect 368 0 293 1;
#X connect 369 0 292 1;
#X connect 369 0 295 0;
#X connect 370 0 239 0;
#X connect 371 0 255 0;
#X connect 372 0 271 0;
#X connect 373 0 287 0;
#X connect 374 0 377 0;
#X connect 374 1 375 0;
#X connect 375 0 376 0;
#X connect 376 0 391 0;
#X connect 377 0 378 0;
#X connect 378 0 386 0;
#X connect 379 0 381 0;
#X connect 379 1 374 0;
#X connect 380 0 382 0;
#X connect 380 1 375 0;
#X connect 381 1 380 0;
#X connect 382 0 377 0;
#X connect 383 0 385 0;
#X connect 384 0 390 0;
#X connect 385 0 387 0;
#X connect 386 0 389 0;
#X connect 387 0 386 1;
#X connect 388 0 384 0;
#X connect 389 0 388 0;
#X connect 390 0 396 0;
#X connect 390 0 397 0;
#X connect 390 0 393 1;
#X connect 390 0 394 1;
#X connect 391 0 390 1;
#X connect 392 0 379 0;
#X connect 393 0 400 0;
#X connect 394 0 400 0;
#X connect 395 0 399 0;
#X connect 396 0 394 0;
#X connect 397 0 393 0;
#X connect 398 0 396 1;
#X connect 399 0 396 0;
#X connect 399 0 397 0;
#X connect 399 1 398 0;
#X connect 399 1 397 1;
#X coords 0 -1 1 1 143 199 1 100 275;
