#N canvas 161 89 882 463 10;
#X declare -path moonlib -lib zexy -lib iemlib;
#X obj 487 32 declare -path moonlib -lib zexy -lib iemlib;
#N canvas 3 50 450 300 route 0;
#X obj 110 56 inlet~;
#X obj 109 191 outlet~;
#X obj 207 192 outlet~;
#X obj 228 47 inlet;
#X obj 109 124 *~ 1;
#X obj 207 124 *~ 0;
#X obj 133 100 == 0;
#X connect 0 0 4 0;
#X connect 0 0 5 0;
#X connect 3 0 6 0;
#X connect 3 0 5 1;
#X connect 4 0 1 0;
#X connect 5 0 2 0;
#X connect 6 0 4 1;
#X restore 59 130 pd route;
#N canvas 12 125 450 300 shelf_eq~ 0;
#X obj 356 117 switch~;
#X obj 367 67 inlet;
#X obj 144 90 inlet;
#X obj 183 90 inlet;
#X obj 222 90 inlet;
#X obj 261 90 inlet;
#X obj 116 64 inlet~;
#X obj 116 212 outlet~;
#X obj 116 166 hml_shelf~ 0 261 0 3700 0 200;
#X obj 300 90 inlet;
#X connect 1 0 0 0;
#X connect 2 0 8 1;
#X connect 3 0 8 2;
#X connect 4 0 8 3;
#X connect 5 0 8 4;
#X connect 6 0 8 0;
#X connect 8 0 7 0;
#X connect 9 0 8 5;
#X restore 104 160 pd shelf_eq~;
#X obj 371 283 cnv 15 113 36 empty empty empty 6 6 0 10 -85089 -13381
0;
#X obj 59 109 inlet~;
#X obj 58 192 outlet~;
#X obj 138 88 r \$0-hml_mg-num;
#X obj 115 54 r \$0-hml_lg-num;
#X obj 161 122 r \$0-hml_hg-num;
#X obj 374 285 tgl 10 0 \$0-sh_eq \$0-sh_eq-set on 13 5 0 8 -13330
-204800 -13330 0 1;
#X obj 331 296 cnv 15 153 61 empty empty empty 12 54 0 12 -85089 -13381
0;
#X obj 390 300 nbx 4 10 -45 45 0 0 \$0-hml_lg-num \$0-hml_lg empty
0 -8 0 8 -45076 -232576 -45076 0 256;
#X obj 336 310 hsl 65 10 70 700 1 0 \$0-hml_lf \$0-hml_lf-set 300Hz
-2 -5 0 10 -16662 -203904 -16662 4045 1;
#X obj 390 320 nbx 4 10 -45 45 0 0 \$0-hml_mg-num \$0-hml_mg empty
0 -8 0 8 -13330 -204800 -13330 0 256;
#X obj 390 340 nbx 4 10 -45 45 0 0 \$0-hml_hg-num \$0-hml_hg empty
0 -8 0 8 -83269 -262130 -83269 0 256;
#X obj 336 330 hsl 65 10 800 8000 1 0 \$0-hml_hf \$0-hml_hf-set 4000Hz
-2 15 0 10 -13381 -204786 -13381 4473 1;
#X obj 173 139 r \$0-sh_eq;
#X obj 460 231 s \$0-hml_lg-set;
#X obj 483 214 s \$0-hml_mg-set;
#X obj 506 197 s \$0-hml_hg-set;
#X msg 460 146 0;
#X obj 460 99 loadbang;
#X obj 490 172 s \$0-hml_lf-set;
#X obj 519 155 s \$0-hml_hf-set;
#X msg 490 134 300;
#X msg 519 134 4000;
#X obj 450 283 cnv 15 34 74 empty empty empty 20 12 0 14 -183672 -66577
0;
#X obj 453 290 nbx 3 8 0 120 0 0 empty empty empty -2 -6 0 7 -257472
-1109 -90133 0 256;
#X obj 453 307 nbx 3 8 1 12 0 0 \$0-patch-num \$0-patch-set select
0 -4 0 7 -17235 -261234 -17235 1 256;
#X obj 453 326 bng 10 250 50 0 \$0-store_patch \$0-store_patch-bng
stor 12 5 0 7 -17235 -262130 -17235;
#X obj 453 345 bng 10 250 50 0 \$0-patches_load \$0-patches_load-bng
load -2 -4 0 7 -2498 -262144 -13381;
#X obj 471 337 bng 10 250 50 0 \$0-patches_save \$0-patches_save-bng
save -4 15 0 7 -159809 -262144 -86277;
#X obj 453 290 nbx 3 8 0 120 0 0 \$0-patches-dummy \$0-patches-num
patches 0 -4 0 7 -17235 -203904 -17235 0 256;
#X obj 473 315 bng 8 250 50 0 \$0-store_plus \$0-store_plus-bng + -7
4 0 10 -17235 -198336 -17235;
#X obj 453 315 bng 8 250 50 0 \$0-store_minus \$0-store_minus-bng -
8 3 0 10 -17235 -257985 -17235;
#N canvas 109 107 1149 655 patches 0;
#X obj 24 140 f;
#X obj 21 97 r \$0-store_patch;
#X obj 22 199 prepend add;
#X obj 19 232 t b a;
#X obj 89 321 msgfile;
#X obj 356 382 spigot;
#X msg 400 381 0;
#X msg 401 364 1;
#X msg 172 289 add patches 0;
#X obj 169 251 loadbang;
#X obj 52 441 route patches;
#X msg 106 238 goto 0;
#X obj 34 297 + 1;
#X obj 18 314 f;
#X msg 18 367 replace patches \$1;
#X msg 69 288 this;
#X obj 18 262 t b b b;
#X msg 573 327 range 1 \$1;
#X obj 346 217 t b f;
#X msg 361 241 goto \$1;
#X msg 326 240 this;
#X obj 453 251 r \$0-patches_load;
#X obj 453 268 openpanel;
#X msg 527 302 read \$1;
#X msg 483 302 goto 0;
#X msg 453 302 this;
#X obj 633 181 r \$0-patches_save;
#X obj 633 209 savepanel;
#X obj 632 238 makesymbol %s.txt;
#X msg 630 282 write \$1;
#X msg 226 222 print;
#X obj 53 411 route list;
#X obj 453 285 t b b a b;
#X msg 469 362 clear;
#X obj 281 171 r \$0-patches_clear;
#X obj 279 197 t b b;
#X obj 846 125 inlet;
#X obj 849 373 outlet;
#X obj 813 170 symbol;
#X obj 910 161 inlet;
#X obj 963 418 random;
#X obj 981 510 outlet;
#X obj 356 399 s \$0-patches-num;
#X obj 573 344 s \$0-patch-set;
#X obj 672 384 r \$0-store_plus;
#X obj 556 384 r \$0-store_minus;
#X obj 672 408 f;
#X obj 556 418 f;
#X obj 556 438 +;
#X obj 601 435 %;
#X obj 601 455 + 1;
#X obj 534 353 - 1;
#X obj 556 459 - 1;
#X obj 672 429 + 1;
#X obj 595 476 s \$0-patch-set;
#X obj 161 65 r \$0-hml_mg-num;
#X obj 138 31 r \$0-hml_lg-num;
#X obj 184 99 r \$0-hml_hg-num;
#X obj 69 492 s \$0-hml_lg-set;
#X obj 42 511 s \$0-hml_lg;
#X obj 42 467 t f f;
#X obj 85 469 s \$0-hml_lf-set;
#X obj 197 500 s \$0-hml_mg-set;
#X obj 171 520 s \$0-hml_mg;
#X obj 186 468 t f f;
#X obj 228 477 s \$0-hml_hf-set;
#X obj 267 549 s \$0-hml_hg-set;
#X obj 248 574 s \$0-hml_hg;
#X obj 248 525 t f f;
#X obj 348 194 inlet;
#X obj 150 48 r \$0-hml_lf;
#X obj 173 82 r \$0-hml_hf;
#X obj 24 177 pack f f f f f;
#X obj 243 331 unpack f f f f f;
#X connect 0 0 72 0;
#X connect 1 0 0 0;
#X connect 2 0 3 0;
#X connect 3 0 16 0;
#X connect 3 1 4 0;
#X connect 4 0 31 0;
#X connect 5 0 6 0;
#X connect 5 0 17 0;
#X connect 5 0 42 0;
#X connect 6 0 5 1;
#X connect 7 0 5 1;
#X connect 8 0 4 0;
#X connect 9 0 8 0;
#X connect 10 0 12 0;
#X connect 10 0 5 0;
#X connect 10 0 40 1;
#X connect 10 0 49 1;
#X connect 10 0 48 1;
#X connect 10 1 73 0;
#X connect 11 0 4 0;
#X connect 12 0 13 1;
#X connect 13 0 14 0;
#X connect 13 0 17 0;
#X connect 13 0 40 1;
#X connect 13 0 42 0;
#X connect 13 0 48 1;
#X connect 13 0 49 1;
#X connect 14 0 4 0;
#X connect 15 0 4 0;
#X connect 16 0 13 0;
#X connect 16 1 15 0;
#X connect 16 2 11 0;
#X connect 17 0 43 0;
#X connect 18 0 20 0;
#X connect 18 1 19 0;
#X connect 18 1 51 0;
#X connect 19 0 4 0;
#X connect 20 0 4 0;
#X connect 21 0 22 0;
#X connect 22 0 32 0;
#X connect 22 0 37 0;
#X connect 23 0 4 0;
#X connect 24 0 4 0;
#X connect 25 0 4 0;
#X connect 26 0 27 0;
#X connect 27 0 28 0;
#X connect 28 0 29 0;
#X connect 28 0 37 0;
#X connect 29 0 4 0;
#X connect 30 0 4 0;
#X connect 31 0 10 0;
#X connect 32 0 25 0;
#X connect 32 1 24 0;
#X connect 32 1 7 0;
#X connect 32 2 23 0;
#X connect 32 3 33 0;
#X connect 33 0 4 0;
#X connect 34 0 35 0;
#X connect 35 0 8 0;
#X connect 35 1 33 0;
#X connect 36 0 38 0;
#X connect 38 0 32 0;
#X connect 39 0 40 0;
#X connect 40 0 41 0;
#X connect 44 0 46 0;
#X connect 45 0 47 0;
#X connect 46 0 53 0;
#X connect 47 0 48 0;
#X connect 48 0 52 0;
#X connect 49 0 50 0;
#X connect 50 0 54 0;
#X connect 51 0 47 1;
#X connect 51 0 46 1;
#X connect 52 0 49 0;
#X connect 53 0 49 0;
#X connect 55 0 72 2;
#X connect 56 0 0 1;
#X connect 57 0 72 4;
#X connect 60 0 59 0;
#X connect 60 1 58 0;
#X connect 64 0 63 0;
#X connect 64 1 62 0;
#X connect 68 0 67 0;
#X connect 68 1 66 0;
#X connect 69 0 18 0;
#X connect 70 0 72 1;
#X connect 71 0 72 3;
#X connect 72 0 2 0;
#X connect 73 0 60 0;
#X connect 73 1 61 0;
#X connect 73 2 64 0;
#X connect 73 3 65 0;
#X connect 73 4 68 0;
#X restore 685 220 pd patches;
#X obj 703 347 outlet;
#X obj 645 109 route patch file;
#X obj 645 242 s \$0-patch-set;
#X msg 752 220 patch \$1;
#X obj 645 63 inlet;
#N canvas 93 309 732 490 automation 0;
#X obj 62 31 inlet;
#X obj 556 164 outlet;
#X obj 511 164 outlet;
#X obj 153 348 s \$0-hml_lg-set;
#X obj 174 331 s \$0-hml_mg-set;
#X obj 194 314 s \$0-hml_hg-set;
#X obj 72 416 s \$0-hml_lf-set;
#X obj 92 399 s \$0-hml_hf-set;
#X obj 296 229 s \$0-sh_eq-set;
#X obj 143 238 t f f;
#X obj 142 290 s \$0-hml_lg;
#X obj 163 273 s \$0-hml_mg;
#X obj 183 256 s \$0-hml_hg;
#X obj 161 219 t f f;
#X obj 177 199 t f f;
#X obj 27 96 route all;
#X obj 27 117 unpack f f f f f;
#X obj 62 51 route lf hf pf1 pf2 lg mg hg pg1 pg2 pq1 pq2 shelf on
peq2 randpat;
#X connect 0 0 15 0;
#X connect 0 0 17 0;
#X connect 9 0 10 0;
#X connect 9 1 3 0;
#X connect 13 0 11 0;
#X connect 13 1 4 0;
#X connect 14 0 12 0;
#X connect 14 1 5 0;
#X connect 15 0 16 0;
#X connect 16 0 6 0;
#X connect 16 1 7 0;
#X connect 16 2 9 0;
#X connect 16 3 13 0;
#X connect 16 4 14 0;
#X connect 17 0 6 0;
#X connect 17 1 7 0;
#X connect 17 4 9 0;
#X connect 17 5 13 0;
#X connect 17 6 14 0;
#X connect 17 11 8 0;
#X connect 17 12 8 0;
#X connect 17 14 1 0;
#X connect 17 15 2 0;
#X restore 645 86 pd automation;
#N canvas 0 0 729 575 auto_out 0;
#X obj 13 125 inlet;
#X obj 607 8 inlet;
#X obj 568 8 inlet;
#X msg 607 28 0;
#X msg 568 28 1;
#X obj 17 170 prepend file;
#X obj 517 385 r \$0-patch-num;
#X msg 517 441 patch \$1;
#X obj 151 507 outlet;
#X obj 151 454 spigot 1;
#X obj 56 -11 r \$0-hml_lf;
#X obj 106 9 r \$0-hml_hf;
#X obj 545 209 r \$0-sh_eq;
#X obj 56 9 change;
#X msg 56 29 lf \$1;
#X obj 106 29 change;
#X msg 106 49 hf \$1;
#X obj 247 90 change;
#X msg 247 110 lg \$1;
#X obj 287 110 change;
#X msg 287 130 mg \$1;
#X obj 329 129 change;
#X msg 329 149 hg \$1;
#X msg 544 249 shelf \$1;
#X obj 248 69 r \$0-hml_lg-num;
#X obj 291 89 r \$0-hml_mg-num;
#X obj 333 109 r \$0-hml_hg-num;
#X obj 94 227 t b f;
#X obj 134 227 t b f;
#X obj 174 227 t b f;
#X obj 214 227 t b f;
#X obj 319 395 prepend all;
#X obj 319 368 pack f f f f f;
#X connect 0 0 5 0;
#X connect 1 0 3 0;
#X connect 2 0 4 0;
#X connect 3 0 9 1;
#X connect 4 0 9 1;
#X connect 5 0 8 0;
#X connect 6 0 7 0;
#X connect 7 0 8 0;
#X connect 9 0 8 0;
#X connect 10 0 13 0;
#X connect 11 0 15 0;
#X connect 12 0 23 0;
#X connect 13 0 14 0;
#X connect 13 0 32 0;
#X connect 14 0 9 0;
#X connect 15 0 16 0;
#X connect 15 0 27 0;
#X connect 16 0 9 0;
#X connect 17 0 18 0;
#X connect 17 0 28 0;
#X connect 18 0 9 0;
#X connect 19 0 20 0;
#X connect 19 0 29 0;
#X connect 20 0 9 0;
#X connect 21 0 22 0;
#X connect 21 0 30 0;
#X connect 22 0 9 0;
#X connect 23 0 9 0;
#X connect 24 0 17 0;
#X connect 25 0 19 0;
#X connect 26 0 21 0;
#X connect 27 0 32 0;
#X connect 27 1 32 1;
#X connect 28 0 32 0;
#X connect 28 1 32 2;
#X connect 29 0 32 0;
#X connect 29 1 32 3;
#X connect 30 0 32 0;
#X connect 30 1 32 4;
#X connect 31 0 9 0;
#X connect 32 0 31 0;
#X restore 677 305 pd auto_out;
#X obj 749 162 r \$0-patch-num;
#X obj 745 189 t b f b;
#X obj 127 71 r \$0-hml_lf;
#X obj 150 105 r \$0-hml_hf;
#X obj 71 278 r \$0-hml_lf;
#X msg 71 318 label \$1;
#X obj 71 338 s \$0-hml_lf-set;
#X obj 71 298 makesymbol %sHz;
#X msg 179 317 label \$1;
#X obj 179 297 makesymbol %sHz;
#X obj 179 277 r \$0-hml_hf;
#X obj 179 337 s \$0-hml_hf-set;
#X obj 422 290 mknob 14 121 -30 30 0 0 \$0-hml_lg \$0-hml_lg-set L
17 7 0 12 -85089 -45076 -16662 6000 1;
#X obj 422 310 mknob 14 121 -30 30 0 0 \$0-hml_mg \$0-hml_mg-set M
17 7 0 12 -85089 -13330 -16662 6000 1;
#X obj 422 330 mknob 14 121 -30 30 0 0 \$0-hml_hg \$0-hml_hg-set H
17 7 0 12 -85089 -83269 -95557 6000 1;
#N canvas 3 50 450 300 route 0;
#X obj 110 56 inlet~;
#X obj 109 191 outlet~;
#X obj 207 192 outlet~;
#X obj 228 47 inlet;
#X obj 109 124 *~ 1;
#X obj 207 124 *~ 0;
#X obj 133 100 == 0;
#X connect 0 0 4 0;
#X connect 0 0 5 0;
#X connect 3 0 6 0;
#X connect 3 0 5 1;
#X connect 4 0 1 0;
#X connect 5 0 2 0;
#X connect 6 0 4 1;
#X restore 259 130 pd route;
#N canvas 12 125 450 300 shelf_eq~ 0;
#X obj 356 117 switch~;
#X obj 367 67 inlet;
#X obj 144 90 inlet;
#X obj 183 90 inlet;
#X obj 222 90 inlet;
#X obj 261 90 inlet;
#X obj 116 64 inlet~;
#X obj 116 212 outlet~;
#X obj 116 166 hml_shelf~ 0 261 0 3700 0 200;
#X obj 300 90 inlet;
#X connect 1 0 0 0;
#X connect 2 0 8 1;
#X connect 3 0 8 2;
#X connect 4 0 8 3;
#X connect 5 0 8 4;
#X connect 6 0 8 0;
#X connect 8 0 7 0;
#X connect 9 0 8 5;
#X restore 304 160 pd shelf_eq~;
#X obj 259 109 inlet~;
#X obj 258 192 outlet~;
#X obj 338 88 r \$0-hml_mg-num;
#X obj 315 54 r \$0-hml_lg-num;
#X obj 361 122 r \$0-hml_hg-num;
#X obj 373 139 r \$0-sh_eq;
#X obj 327 71 r \$0-hml_lf;
#X obj 350 105 r \$0-hml_hf;
#X connect 1 0 5 0;
#X connect 1 1 2 0;
#X connect 2 0 5 0;
#X connect 4 0 1 0;
#X connect 6 0 2 3;
#X connect 7 0 2 1;
#X connect 8 0 2 5;
#X connect 16 0 2 6;
#X connect 16 0 1 1;
#X connect 20 0 19 0;
#X connect 20 0 18 0;
#X connect 20 0 17 0;
#X connect 21 0 20 0;
#X connect 21 0 24 0;
#X connect 21 0 25 0;
#X connect 24 0 22 0;
#X connect 25 0 23 0;
#X connect 35 0 42 0;
#X connect 35 1 39 0;
#X connect 37 0 38 0;
#X connect 37 1 35 1;
#X connect 39 0 37 0;
#X connect 40 0 41 0;
#X connect 41 0 37 0;
#X connect 41 1 35 2;
#X connect 42 0 36 0;
#X connect 43 0 44 0;
#X connect 44 0 42 1;
#X connect 44 1 35 0;
#X connect 44 2 42 2;
#X connect 45 0 2 2;
#X connect 46 0 2 4;
#X connect 47 0 50 0;
#X connect 48 0 49 0;
#X connect 50 0 48 0;
#X connect 51 0 54 0;
#X connect 52 0 51 0;
#X connect 53 0 52 0;
#X connect 58 0 61 0;
#X connect 58 1 59 0;
#X connect 59 0 61 0;
#X connect 60 0 58 0;
#X connect 62 0 59 3;
#X connect 63 0 59 1;
#X connect 64 0 59 5;
#X connect 65 0 59 6;
#X connect 65 0 58 1;
#X connect 66 0 59 2;
#X connect 67 0 59 4;
#X coords 0 -1 1 1 155 80 1 330 280;
