#N canvas 15 93 450 300 10;
#X obj 24 207 foldback~ -1 1;
#X msg 263 42 1;
#X obj 252 135 * -1;
#X obj 256 104 r \$0-fold_sym;
#X obj 265 17 loadbang;
#X obj 18 30 inlet~;
#X obj 23 263 outlet~;
#X obj 56 174 r \$0-fold_neg-num;
#X obj 133 206 r \$0-fold_pos-num;
#X obj 84 54 inlet;
#X obj 267 66 s \$0-fold_sym;
#X obj 252 166 s \$0-fold_neg-num;
#X obj 295 141 s \$0-fold_pos-num;
#X obj 84 73 route pos neg sym;
#X obj 84 130 s \$0-fold_pos-num;
#X obj 117 111 s \$0-fold_neg-num;
#X obj 150 92 s \$0-fold_sym;
#X connect 0 0 6 0;
#X connect 1 0 10 0;
#X connect 2 0 11 0;
#X connect 3 0 2 0;
#X connect 3 0 12 0;
#X connect 4 0 1 0;
#X connect 5 0 0 0;
#X connect 7 0 0 1;
#X connect 8 0 0 2;
#X connect 9 0 13 0;
#X connect 13 0 14 0;
#X connect 13 1 15 0;
#X connect 13 2 16 0;
#X coords 0 0 1 1 161 71 0;
