#N canvas 5 89 291 300 10;
#X declare -path sigpack;
#X obj 125 166 declare -path sigpack;
#X obj 18 30 inlet~;
#X obj 23 263 outlet~;
#X obj 78 17 inlet;
#X obj 24 207 foldover~ 0 0;
#X obj 78 55 route amp over;
#X connect 1 0 4 0;
#X connect 3 0 5 0;
#X connect 4 0 2 0;
#X connect 5 0 4 1;
#X connect 5 1 4 2;
#X coords 0 0 1 1 161 61 0;
