#N canvas 373 287 604 478 10;
#X declare -path sigpack;
#X obj 85 345 declare -path sigpack;
#X obj 81 96 cnv 15 159 36 empty empty empty 8 6 0 10 -90133 -262131
0;
#X obj 265 17 loadbang;
#X obj 18 30 inlet~;
#X obj 23 263 outlet~;
#N canvas 607 197 450 424 automation 0;
#X obj 99 54 inlet;
#X obj 96 87 route sr bits;
#X obj 121 140 s \$0-bits-set;
#X obj 50 196 t f f;
#X obj 66 239 s \$0-decimate_sr-set;
#X obj 43 271 s \$0-decimate_sr-num;
#X obj 254 89 r \$0-lin_log;
#X obj 75 149 == 0;
#X obj 49 171 spigot;
#X obj 276 152 spigot;
#X floatatom 276 172 0 0 0 0 - - -;
#X obj 276 212 exp;
#X floatatom 276 232 0 0 0 0 - - -;
#X obj 276 252 /;
#X floatatom 276 272 0 0 0 0 - - -;
#X msg 317 175 6355.93;
#X obj 276 192 /;
#X msg 330 235 0.0233814;
#X obj 324 146 loadbang;
#X connect 0 0 1 0;
#X connect 1 0 8 0;
#X connect 1 0 9 0;
#X connect 1 1 2 0;
#X connect 3 0 5 0;
#X connect 3 1 4 0;
#X connect 6 0 7 0;
#X connect 6 0 9 1;
#X connect 7 0 8 1;
#X connect 8 0 3 0;
#X connect 9 0 10 0;
#X connect 10 0 16 0;
#X connect 11 0 12 0;
#X connect 12 0 13 0;
#X connect 13 0 14 0;
#X connect 14 0 3 0;
#X connect 15 0 16 1;
#X connect 16 0 11 0;
#X connect 17 0 13 1;
#X connect 18 0 15 0;
#X connect 18 0 17 0;
#X restore 84 54 pd automation;
#X obj 84 37 inlet;
#X obj 312 158 samplerate~;
#X floatatom 308 205 5 0 0 0 - - -;
#X msg 340 126 bang;
#X obj 283 381 s \$0-decimate_sr-set;
#X obj 55 178 / 44100;
#X obj 24 207 decimate~ 0 0;
#X obj 54 152 r \$0-decimate_sr-num;
#X obj 300 251 t f f;
#X obj 294 313 pack f f;
#X obj 270 280 / 1024;
#X msg 292 350 range \$1 \$2;
#X obj 138 215 r \$0-bits-num;
#X obj 266 66 s \$0-decimate_sr-set;
#X msg 263 42 44100;
#X obj 425 139 s \$0-bits-set;
#X msg 408 111 16;
#X obj 454 283 r \$0-lin_log;
#X obj 454 306 sel 0 1;
#X msg 435 360 label lin;
#X msg 505 360 label log;
#X obj 434 394 s \$0-lin_log-set;
#X msg 386 339 lin;
#X msg 412 337 log;
#X msg 468 234 1;
#X obj 468 205 loadbang;
#X obj 151 83 cnv 15 89 36 empty empty empty 8 6 0 10 -90133 -262131
0;
#X obj 88 106 hsl 141 12 43.0664 44100 1 0 \$0-decimate_sr \$0-decimate_sr-set
samplerate -2 -5 1 8 -1109 -228992 -228992 14000 1;
#X obj 86 118 nbx 5 12 0 44100 0 0 \$0-decimate_sr-num \$0-decimate_sr
empty 0 -6 1 10 -1109 -228992 -1 44100 256;
#X obj 177 118 nbx 5 12 1 24 0 0 \$0-bits-num \$0-bits-set bits: -28
6 1 10 -1109 -228992 -228992 16 256;
#X obj 216 87 tgl 14 0 \$0-lin_log \$0-lin_log-set log -18 7 0 8 -1109
-228992 -228992 1 1;
#X connect 2 0 20 0;
#X connect 2 0 7 0;
#X connect 2 0 22 0;
#X connect 3 0 12 0;
#X connect 6 0 5 0;
#X connect 7 0 8 0;
#X connect 8 0 11 1;
#X connect 8 0 14 0;
#X connect 9 0 7 0;
#X connect 11 0 12 1;
#X connect 12 0 4 0;
#X connect 13 0 11 0;
#X connect 14 0 16 0;
#X connect 14 1 15 1;
#X connect 15 0 17 0;
#X connect 16 0 15 0;
#X connect 17 0 10 0;
#X connect 18 0 12 2;
#X connect 20 0 19 0;
#X connect 22 0 21 0;
#X connect 23 0 24 0;
#X connect 24 0 25 0;
#X connect 24 0 28 0;
#X connect 24 1 26 0;
#X connect 24 1 29 0;
#X connect 25 0 27 0;
#X connect 26 0 27 0;
#X connect 28 0 10 0;
#X connect 29 0 10 0;
#X connect 30 0 27 0;
#X connect 31 0 30 0;
#X coords 0 -1 1 1 161 55 1 80 80;
