#N canvas 15 93 450 300 10;
#X obj 24 207 foldback~ -1 1;
#X obj 81 96 cnv 15 159 52 empty empty empty 8 6 0 10 -1109 -225280
0;
#X msg 263 42 1;
#X obj 267 66 s \$0-fold_sym-set;
#X obj 252 135 * -1;
#X obj 252 166 s \$0-fold_neg-set;
#X obj 295 141 s \$0-fold_pos-set;
#X obj 256 104 r \$0-fold_sym;
#X obj 265 17 loadbang;
#X obj 18 30 inlet~;
#X obj 23 263 outlet~;
#X obj 56 174 r \$0-fold_neg-num;
#X obj 133 206 r \$0-fold_pos-num;
#N canvas 0 0 450 300 automation 0;
#X obj 99 54 inlet;
#X obj 96 87 route pos neg sym;
#X obj 163 114 s \$0-fold_sym-set;
#X obj 121 140 s \$0-fold_neg-set;
#X obj 79 170 s \$0-fold_pos-set;
#X connect 0 0 1 0;
#X connect 1 0 4 0;
#X connect 1 1 3 0;
#X connect 1 2 2 0;
#X restore 84 54 pd automation;
#X obj 83 31 inlet;
#X obj 141 83 cnv 15 99 52 empty empty empty 8 6 0 10 -1109 -225280
0;
#X obj 88 104 hsl 101 12 -1 1 0 0 \$0-fold_pos \$0-fold_pos-set positive
-2 -5 0 8 -143491 -225271 -225271 10000 1;
#X obj 88 126 hsl 101 12 -1 1 0 0 \$0-fold_neg \$0-fold_neg-set negative
-2 17 0 8 -143491 -225271 -225271 0 1;
#X obj 88 116 hsl 145 10 1 -1 0 0 \$0-fold_sym \$0-fold_sym-set symmetric
-2 5 0 8 -225271 -143491 -143491 0 1;
#X obj 191 104 nbx 4 12 -1 1 0 0 \$0-fold_pos-num \$0-fold_pos empty
0 -6 0 10 -143491 -225271 -1 1 256;
#X obj 191 126 nbx 4 12 -1 1 0 0 \$0-fold_neg-num \$0-fold_neg empty
0 -6 0 10 -143491 -225271 -1 -1 256;
#X connect 0 0 10 0;
#X connect 2 0 3 0;
#X connect 4 0 5 0;
#X connect 7 0 6 0;
#X connect 7 0 4 0;
#X connect 8 0 2 0;
#X connect 9 0 0 0;
#X connect 11 0 0 1;
#X connect 12 0 0 2;
#X connect 14 0 13 0;
#X coords 0 -1 1 1 161 71 1 80 80;
