#N canvas 0 0 599 673 10;
#X obj 100 191 trisaw~;
#X obj 100 468 moog_fl~;
#X floatatom 100 149 0 0 0 0 - - -;
#X msg 100 170 bias \$1;
#X floatatom 100 110 5 0 0 0 - - -;
#X obj 100 129 exp;
#X obj 100 70 inlet;
#X obj 141 299 adsr_pat~;
#X obj 141 266 inlet;
#X obj 225 425 loadbang;
#X obj 325 425 eadsr_pat~;
#X obj 420 250 loadbang;
#X obj 432 385 loadbang;
#X msg 432 405 all 10 180 36 400;
#X obj 100 577 *~;
#X obj 43 150 inlet;
#X msg 43 170 pitch \$1;
#X obj 100 598 outlet~;
#X obj 194 29 cnv 15 300 60 empty empty simplesynth~ 20 12 0 18 -261234
-16662 0;
#X obj 100 90 * 0.06;
#X msg 248 271 all 10 200 20 300 \, range 2 \, depth 6000;
#X msg 225 445 freq 880 \, q 2;
#X text 223 55 ...it's a trisaw~ moog~ filter synthesizer!;
#X connect 0 0 1 0;
#X connect 1 0 14 0;
#X connect 2 0 3 0;
#X connect 3 0 0 0;
#X connect 4 0 5 0;
#X connect 5 0 2 0;
#X connect 6 0 19 0;
#X connect 7 0 1 1;
#X connect 8 0 7 0;
#X connect 8 0 10 0;
#X connect 9 0 21 0;
#X connect 10 0 14 1;
#X connect 11 0 20 0;
#X connect 12 0 13 0;
#X connect 13 0 10 1;
#X connect 14 0 17 0;
#X connect 15 0 16 0;
#X connect 16 0 0 0;
#X connect 19 0 4 0;
#X connect 20 0 7 1;
#X connect 21 0 1 3;
