#N canvas 150 208 769 557 10;
#X declare -lib zexy;
#X obj 483 43 declare -lib zexy;
#X obj 42 385 osc~;
#X obj 42 405 *~ 1;
#X obj 42 425 +~ 0;
#X obj 166 326 r \$0-bipolar;
#X obj 163 349 sel 0 1;
#X msg 105 345 1;
#X msg 101 382 0;
#X msg 130 347 0.5;
#X msg 132 381 0.5;
#N canvas 0 0 450 300 init 0;
#X obj 144 162 s \$0-bipolar-set;
#X msg 147 128 1;
#X obj 147 101 loadbang;
#X connect 1 0 0 0;
#X connect 2 0 1 0;
#X restore 362 215 pd init;
#X obj 37 458 outlet~;
#X obj 12 98 inlet;
#X obj 101 77 cnv 15 220 36 empty empty empty 6 8 0 10 -641 -200668
0;
#X obj 27 275 spigot;
#X obj 60 253 r \$0-sync;
#X obj 88 285 r \$0-phase;
#X obj 27 240 b;
#X obj 143 247 s \$0-phase_deg-set;
#X obj 348 291 / 360;
#X obj 348 268 r \$0-phase_deg;
#X obj 126 427 s \$0-bipolar-set;
#X obj 348 314 s \$0-phase;
#X obj 206 225 s \$0-sync-set;
#X obj 388 107 r \$0-pitch;
#X obj 388 131 mtof;
#X msg 330 165 set \$1;
#X obj 296 191 s \$0-freq-set;
#X obj 483 108 r \$0-freq;
#X obj 482 133 ftom;
#X msg 479 159 set \$1;
#X obj 480 189 s \$0-pitch-set;
#X obj 35 304 line~;
#X obj 125 307 pack f 5;
#X obj 198 284 r \$0-glide;
#X obj 29 478 s \$0-freq-set;
#X obj 57 500 s \$0-pitch-set;
#X obj 255 337 s \$0-glide-set;
#X obj 294 360 s \$0-bipolar-set;
#X msg 161 377 label +-;
#X msg 157 404 label +;
#X obj 574 144 inlet~;
#X obj 38 324 +~;
#X obj 280 489 outlet~;
#X obj 460 263 t b f;
#X obj 474 242 t b f;
#X obj 514 219 t b f;
#X obj 533 236 t b f;
#X obj 548 253 t b f;
#X obj 421 443 outlet;
#X obj 78 211 s \$0-pbang-bng;
#X obj 59 233 r \$0-pbang;
#X obj 73 305 0;
#X msg 412 371 pitch \$1;
#X msg 495 409 freq \$1;
#X obj 496 388 change;
#X obj 412 350 change;
#X obj 512 337 change;
#X msg 511 358 phase \$1;
#X obj 549 387 change;
#X msg 548 408 sync \$1;
#X obj 573 428 change;
#X msg 572 449 glide \$1;
#X obj 610 361 change;
#X msg 609 382 bip \$1;
#X obj 39 355 +~;
#X obj 638 151 inlet~;
#X floatatom 298 419 2 0 2 0 - - -;
#X obj 287 396 r \$0-outmod;
#X obj 461 309 pack f f f f f f f;
#X obj 61 163 unpack f f f f f f f;
#X obj 174 205 s \$0-outmod-set;
#X obj 570 276 t b f;
#X msg 641 435 outmod \$1;
#X obj 637 412 change;
#X obj 172 63 cnv 15 149 50 empty empty empty 6 8 0 10 -641 -200668
0;
#X obj 240 67 nbx 8 12 2e-05 64000 0 0 \$0-freq \$0-freq-set freq -26
6 1 10 -2369 -200668 -102355 2 256;
#X obj 178 76 tgl 14 0 \$0-bipolar \$0-bipolar-set +- 2 -7 1 10 -2369
-200668 -102355 1 1;
#X obj 160 80 tgl 14 0 \$0-sync \$0-sync-set sync -5 18 1 10 -2049
-200668 -200668 0 1;
#X obj 108 93 nbx 4 14 0 360 0 0 \$0-phase_deg \$0-phase_deg-set phase
0 -8 1 10 -2049 -200668 -200668 0 256;
#X obj 257 81 nbx 6 12 -200 154 0 0 \$0-pitch \$0-pitch-set p -9 6
1 10 -2369 -200668 -102355 -24.3763 256;
#X obj 265 95 nbx 5 12 0 99999 0 0 \$0-glide \$0-glide-set glide -31
6 1 10 -2369 -200668 -102355 0 256;
#X obj 150 81 bng 10 100 50 0 \$0-pbang \$0-pbang-bng empty 17 7 0
10 -2113 -262130 -262130;
#X obj 182 95 hradio 12 1 0 4 \$0-outmod \$0-outmod-set f_out 18 -6
1 8 -2369 -262130 -102355 1;
#X msg 278 293 1;
#X obj 277 260 loadbang;
#X obj 280 460 mux~ . . . .;
#X obj 12 139 route freq pitch pbang phase sync glide bip outmod all
;
#X obj 12 119 t a a;
#N canvas 0 0 504 430 nogui-auto 0;
#X obj 71 53 unpack f f f f f f f;
#X obj 22 29 route freq pitch pbang phase sync glide bip outmod all
;
#X obj 266 227 s \$0-glide;
#X obj 39 368 s \$0-freq;
#X obj 67 390 s \$0-pitch;
#X obj 153 137 s \$0-phase_deg;
#X obj 216 115 s \$0-sync;
#X obj 184 95 s \$0-outmod;
#X obj 305 250 s \$0-bipolar;
#X obj 22 8 inlet;
#X connect 0 0 3 0;
#X connect 0 1 4 0;
#X connect 0 2 5 0;
#X connect 0 3 6 0;
#X connect 0 4 2 0;
#X connect 0 5 8 0;
#X connect 0 6 7 0;
#X connect 1 0 3 0;
#X connect 1 1 4 0;
#X connect 1 3 5 0;
#X connect 1 4 6 0;
#X connect 1 5 2 0;
#X connect 1 6 8 0;
#X connect 1 7 7 0;
#X connect 1 8 0 0;
#X connect 9 0 1 0;
#X restore 51 122 pd nogui-auto;
#X obj 368 397 list prepend all;
#X obj 368 418 list trim;
#X connect 1 0 2 0;
#X connect 2 0 3 0;
#X connect 3 0 11 0;
#X connect 4 0 5 0;
#X connect 4 0 48 0;
#X connect 5 0 8 0;
#X connect 5 0 9 0;
#X connect 5 0 40 0;
#X connect 5 1 6 0;
#X connect 5 1 7 0;
#X connect 5 1 39 0;
#X connect 6 0 2 1;
#X connect 7 0 3 1;
#X connect 8 0 2 1;
#X connect 9 0 3 1;
#X connect 12 0 88 0;
#X connect 14 0 50 0;
#X connect 14 0 52 0;
#X connect 15 0 14 1;
#X connect 15 0 46 0;
#X connect 16 0 45 0;
#X connect 16 0 52 1;
#X connect 17 0 14 0;
#X connect 19 0 22 0;
#X connect 20 0 19 0;
#X connect 24 0 25 0;
#X connect 24 0 44 0;
#X connect 24 0 56 0;
#X connect 25 0 26 0;
#X connect 25 0 33 0;
#X connect 25 0 55 0;
#X connect 25 0 69 0;
#X connect 26 0 27 0;
#X connect 28 0 29 0;
#X connect 28 0 33 0;
#X connect 28 0 55 0;
#X connect 28 0 69 0;
#X connect 29 0 30 0;
#X connect 29 0 56 0;
#X connect 29 0 44 0;
#X connect 30 0 31 0;
#X connect 32 0 42 0;
#X connect 32 0 86 0;
#X connect 32 0 86 3;
#X connect 33 0 32 0;
#X connect 34 0 33 1;
#X connect 34 0 47 0;
#X connect 39 0 21 0;
#X connect 40 0 21 0;
#X connect 41 0 42 1;
#X connect 42 0 65 0;
#X connect 42 0 86 1;
#X connect 44 0 69 0;
#X connect 44 1 69 1;
#X connect 45 0 69 0;
#X connect 45 1 57 0;
#X connect 45 1 69 2;
#X connect 46 0 69 0;
#X connect 46 1 59 0;
#X connect 46 1 69 3;
#X connect 47 0 69 0;
#X connect 47 1 61 0;
#X connect 47 1 69 4;
#X connect 48 0 69 0;
#X connect 48 1 63 0;
#X connect 48 1 69 5;
#X connect 51 0 52 0;
#X connect 52 0 1 1;
#X connect 53 0 49 0;
#X connect 54 0 49 0;
#X connect 55 0 54 0;
#X connect 56 0 53 0;
#X connect 57 0 58 0;
#X connect 58 0 49 0;
#X connect 59 0 60 0;
#X connect 60 0 49 0;
#X connect 61 0 62 0;
#X connect 62 0 49 0;
#X connect 63 0 64 0;
#X connect 64 0 49 0;
#X connect 65 0 1 0;
#X connect 65 0 86 2;
#X connect 66 0 65 1;
#X connect 66 0 86 3;
#X connect 67 0 86 0;
#X connect 68 0 67 0;
#X connect 68 0 72 0;
#X connect 69 0 90 0;
#X connect 70 0 35 0;
#X connect 70 0 17 0;
#X connect 70 1 36 0;
#X connect 70 1 17 0;
#X connect 70 2 18 0;
#X connect 70 3 23 0;
#X connect 70 4 37 0;
#X connect 70 5 38 0;
#X connect 70 6 71 0;
#X connect 72 0 69 0;
#X connect 72 1 69 6;
#X connect 72 1 74 0;
#X connect 73 0 49 0;
#X connect 74 0 73 0;
#X connect 84 0 38 0;
#X connect 84 0 71 0;
#X connect 85 0 84 0;
#X connect 86 0 43 0;
#X connect 87 0 17 0;
#X connect 87 0 35 0;
#X connect 87 1 17 0;
#X connect 87 1 36 0;
#X connect 87 2 50 0;
#X connect 87 3 18 0;
#X connect 87 4 23 0;
#X connect 87 5 37 0;
#X connect 87 6 38 0;
#X connect 87 7 71 0;
#X connect 87 8 70 0;
#X connect 88 0 87 0;
#X connect 88 1 89 0;
#X connect 90 0 91 0;
#X connect 91 0 49 0;
#X coords 0 -1 1 1 222 56 1 100 60;
