#N canvas 4 100 1272 665 10;
#X obj 656 5 cnv 15 130 170 empty empty Term_TOP 20 8 1 14 -204786
-13381 0;
#X obj 426 172 cnv 15 900 260 empty empty Dline_input 20 12 1 14 -203904
-16662 0;
#X obj 421 433 cnv 15 600 170 empty empty Scattering 20 12 1 14 -204800
-13330 0;
#X obj 438 604 cnv 15 900 260 empty empty Dline_output 20 12 1 14 -203904
-16662 0;
#X obj 31 48 cnv 12 199 18 empty empty empty 20 12 0 14 -232576 -66577
0;
#X obj 31 67 cnv 15 199 79 empty empty empty 20 12 0 14 -203904 -66577
0;
#X obj 31 147 cnv 15 199 28 empty empty empty 20 12 0 14 -175801 -66577
0;
#X obj 31 176 cnv 15 199 79 empty empty empty 20 12 0 14 -204786 -66577
0;
#X obj 31 256 cnv 15 199 18 empty empty empty 20 12 0 14 -232576 -66577
0;
#X obj 129 531 cnv 15 100 60 empty empty empty 20 12 0 14 -233017 -66577
0;
#X obj 729 452 *~;
#X obj 765 452 *~;
#X obj 740 473 +~;
#X obj 740 493 *~ 2;
#X obj 758 529 /~;
#X text 769 326 V+_1;
#X text 833 436 V+_2;
#X text 756 547 V_J;
#X obj 701 551 -~;
#X obj 790 549 -~;
#X text 723 589 V-_1;
#X text 526 654 V-_2;
#X obj 591 448 loadbang;
#X floatatom 504 543 5 1 60 0 - - -;
#X floatatom 568 542 5 1 60 1 Resistor_2 - -;
#X obj 576 474 16;
#X obj 618 474 1;
#X obj 804 451 delread~ \$0-C 0;
#X obj 659 571 delwrite~ \$0-B 10;
#X obj 514 247 +~;
#X obj 679 185 *~ 0.5;
#X obj 383 140 block~ 1;
#X obj 839 143 inlet~;
#X obj 907 293 *;
#X obj 974 293 *;
#X obj 989 231 -;
#X obj 881 212 t b;
#X msg 989 212 1;
#X obj 974 262 t b;
#X obj 727 247 +~;
#X text 733 177 IN 2;
#X obj 907 231 f 0;
#X obj 909 187 r \$0-z_IN;
#X obj 989 185 r \$0-pos_IN;
#X obj 726 312 delwrite~ \$0-A 10;
#X obj 727 190 delread~ \$0-B 0;
#X obj 673 48 delread~ \$0-A 0;
#X text 716 631 IN 2;
#X text 756 788 OUT 1;
#X obj 685 709 +~;
#X obj 622 968 outlet~;
#X obj 718 647 delread~ \$0-D 0;
#X obj 679 773 delwrite~ \$0-C 10;
#X text 539 300 V+_2;
#X obj 948 724 *;
#X obj 1015 724 *;
#X obj 1030 662 -;
#X obj 922 643 t b;
#X msg 1030 643 1;
#X obj 1015 693 t b;
#X obj 948 662 f 0;
#X obj 948 643 r \$0-z_OUT;
#X obj 1030 616 r \$0-pos_OUT;
#X obj 438 865 cnv 15 130 170 empty empty Term_BOTTOM 20 8 1 14 -204786
-13381 0;
#X obj 456 1005 delwrite~ \$0-D 10;
#X text 626 987 OUTPUT;
#X text 839 128 INPUT;
#X obj 718 685 vd~ \$0-OUTL_2 0;
#X obj 494 689 vd~ \$0-OUTR_1 0;
#X obj 494 747 vd~ \$0-OUTR_2 0;
#X obj 718 743 vd~ \$0-OUTL_1 0;
#X obj 948 762 line~;
#X obj 1015 762 line~;
#X obj 727 228 vd~ \$0-INL_2 0;
#X obj 514 228 vd~ \$0-INR_1 0;
#X obj 514 285 vd~ \$0-INR_2 0;
#X obj 727 285 vd~ \$0-INL_1 0;
#X obj 907 331 line~;
#X obj 974 331 line~;
#X obj 37 51 hsl 128 12 200 20000 1 0 \$0-topfreq \$0-topfreq-set freq-nut
34 6 0 12 -191928 -13330 -13330 8714 1;
#X obj 167 51 nbx 5 12 20 20000 0 0 \$0-topfreq-num \$0-topfreq empty
0 -8 0 12 -191928 -13330 -13330 4714 256;
#X obj 37 81 hsl 128 12 0 100 0 0 \$0-inpos_st \$0-inpos_st-set in-pos-start
24 6 1 12 -191981 -13381 -13381 127 1;
#X obj 167 81 nbx 5 12 0 100 0 0 \$0-inpos_st-num \$0-inpos_st empty
0 -8 0 12 -191981 -13381 -13381 1 256;
#X obj 1083 21 r \$0-inpos_st-num;
#X obj 1083 40 * 0.01;
#X obj 37 105 hsl 128 12 0 100 0 0 \$0-inpos_ed \$0-inpos_ed-set in-pos-end
29 6 1 12 -191981 -13381 -13381 7620 1;
#X obj 167 105 nbx 5 12 0 100 0 0 \$0-inpos_ed-num \$0-inpos_ed empty
0 -8 0 12 -191981 -13381 -13381 60 256;
#X obj 37 69 hsl 128 12 0.1 10000 1 0 \$0-inpos_t \$0-inpos_t-set in-pos-time
27 6 1 12 -13381 -191981 -191981 11171 1;
#X obj 167 69 nbx 5 12 0 99999 0 0 \$0-inpostime \$0-inpos_t empty
0 -8 0 12 -13381 -191981 -191981 2500 256;
#X obj 37 190 hsl 128 12 0 100 0 0 \$0-outpos_st \$0-outpos_st-set
out-pos-start 22 6 1 12 -191981 -13381 -13381 7620 1;
#X obj 167 190 nbx 5 12 0 100 0 0 \$0-outpos_st-num \$0-outpos_st empty
0 -8 0 12 -191981 -13381 -13381 60 256;
#X obj 37 214 hsl 128 12 0 100 0 0 \$0-outpos_ed \$0-outpos_ed-set
out-pos-end 27 6 1 12 -191981 -13381 -13381 12573 1;
#X obj 167 214 nbx 5 12 0 100 0 0 \$0-outpos_ed-num \$0-outpos_ed empty
0 -8 0 12 -191981 -13381 -13381 99 256;
#X obj 37 178 hsl 128 12 0.1 10000 1 0 \$0-outpos_t \$0-outpos_t-set
out-pos-time 25 6 1 12 -13381 -191981 -191981 10745 1;
#X obj 167 178 nbx 5 12 0 99999 0 0 \$0-outpostime \$0-outpos_t empty
0 -8 0 12 -13381 -191981 -191981 1700 256;
#X obj 37 259 hsl 128 12 200 20000 1 0 \$0-botfreq \$0-botfreq-set
freq-bridge 27 6 0 12 -191928 -13330 -13330 7971 1;
#X obj 167 259 nbx 5 12 20 20000 0 0 \$0-botfreq-num \$0-botfreq empty
0 -8 0 12 -191928 -13330 -13330 3600 256;
#X obj 726 68 r \$0-topfreq-num;
#X obj 908 46 * 0.01;
#X obj 908 27 r \$0-inpos_ed-num;
#X obj 37 93 hsl 189 12 0 1 0 0 \$0-inpos \$0-inpos-set input-position
47 6 1 10 -155431 -13381 -13381 0 0;
#X obj 1064 67 f;
#X obj 897 69 f;
#X obj 1022 37 t b b;
#X obj 37 120 hsl 189 12 -52 136 0 0 \$0-inpitch \$0-inpitch-set input-pitch
57 6 1 10 -155444 -13330 -13330 9700 0;
#X obj 34 132 nbx 5 12 -1500 136 0 0 \$0-inpitch-num \$0-inpitch p
41 6 1 10 -155444 -13330 -13330 45 256;
#X obj 94 132 nbx 6 12 0 22050 0 0 \$0-infreq-num \$0-infreq f 47 8
1 10 -155444 -13330 -13330 110 256;
#N canvas 4 55 462 414 originalnotes 0;
#X text 34 154 2-port scattering junction;
#X text 33 175 Creation arguments: 2port <ID> <R1> <R2>;
#X text 33 191 R1 & R2 default to 1;
#X text 33 207 External control s/r: <ID>-R1 = Resistance 1 <ID>-R2
= Resistance 2;
#X text 53 289 Bidirectional Delay Line with variable input;
#X text 51 301 Creation arguments: dline-IN <ID> <delay in ms>;
#X text 51 313 External control s/r: <ID>-z = delay in ms \, <ID>-pos
= input position [0-1];
#X text 127 17 Termination;
#X text 126 31 Creation arguments: Term <ID> <damping freq>;
#X text 125 49 External control s/r: <ID>-f = damping frequency;
#X restore 322 86 pd originalnotes;
#X obj 174 132 nbx 5 12 0.001 10000 1 0 \$0-inms-num \$0-inms ms 36
6 1 10 -155444 -13330 -13330 9.09091 256;
#N canvas 0 0 511 476 input-pitch-freq-set 0;
#X obj 91 95 r \$0-inpitch-num;
#X obj 91 114 mtof;
#X obj 91 152 s \$0-infreq;
#X msg 91 133 set \$1;
#X msg 191 133 set \$1;
#X obj 191 95 r \$0-infreq-num;
#X obj 191 152 s \$0-inpitch;
#X obj 191 114 ftom;
#X obj 270 152 s \$0-inpitch-set;
#X obj 124 230 s \$0-inms;
#X obj 124 173 expr 1000/$f1;
#X msg 124 211 set \$1;
#X obj 190 230 s \$0-z_IN;
#X obj 147 48 r \$0-inms-num;
#X obj 59 69 expr 1000/$f1;
#X obj 324 218 == 1;
#X obj 291 238 spigot;
#X obj 291 297 *;
#X obj 337 265 t b f;
#X obj 285 218 f;
#X obj 388 141 r \$0-f_ratio_dir;
#X obj 345 244 r \$0-f_ratio-num;
#X obj 290 321 ftom;
#X obj 317 381 s \$0-outpitch-set;
#X obj 289 344 t f f;
#X obj 289 405 s \$0-outpitch;
#X obj 59 88 * 1;
#X text 20 92 * 0.5;
#X obj 124 192 * 1;
#X text 94 192 * 2;
#X connect 0 0 1 0;
#X connect 1 0 3 0;
#X connect 1 0 10 0;
#X connect 1 0 19 0;
#X connect 3 0 2 0;
#X connect 4 0 6 0;
#X connect 4 0 8 0;
#X connect 5 0 7 0;
#X connect 5 0 10 0;
#X connect 5 0 19 0;
#X connect 7 0 4 0;
#X connect 10 0 28 0;
#X connect 11 0 9 0;
#X connect 13 0 14 0;
#X connect 13 0 12 0;
#X connect 14 0 26 0;
#X connect 15 0 16 1;
#X connect 16 0 17 0;
#X connect 17 0 22 0;
#X connect 18 0 19 0;
#X connect 18 1 17 1;
#X connect 19 0 16 0;
#X connect 20 0 15 0;
#X connect 21 0 18 0;
#X connect 22 0 24 0;
#X connect 24 0 25 0;
#X connect 24 1 23 0;
#X connect 26 0 3 0;
#X connect 26 0 7 0;
#X connect 28 0 11 0;
#X connect 28 0 12 0;
#X restore 443 100 pd input-pitch-freq-set;
#X obj 37 202 hsl 189 12 0 1 0 0 \$0-outpos \$0-outpos-set output-position
47 6 1 10 -155431 -13381 -13381 0 0;
#X obj 37 229 hsl 189 12 -52 136 0 0 \$0-outpitch \$0-outpitch-set
output-pitch 57 6 1 10 -155444 -13330 -13330 10900 0;
#X obj 34 241 nbx 5 12 -1500 136 0 0 \$0-outpitch-num \$0-outpitch
p 40 6 1 10 -155444 -13330 -13330 57 256;
#X obj 94 241 nbx 6 12 0 22050 0 0 \$0-outfreq-num \$0-outfreq f 47
8 1 10 -155444 -13330 -13330 220 256;
#X obj 174 241 nbx 5 12 0.001 10000 1 0 \$0-outms-num \$0-outms ms
36 6 1 10 -155444 -13330 -13330 4.54545 256;
#N canvas 0 0 603 375 output-pitch-freq-set 0;
#X obj 91 114 mtof;
#X msg 91 133 set \$1;
#X msg 191 133 set \$1;
#X obj 191 114 ftom;
#X obj 124 173 expr 1000/$f1;
#X msg 124 211 set \$1;
#X obj 59 69 expr 1000/$f1;
#X obj 147 48 r \$0-outms-num;
#X obj 91 95 r \$0-outpitch-num;
#X obj 203 94 r \$0-outfreq-num;
#X obj 91 152 s \$0-outfreq;
#X obj 191 152 s \$0-outpitch;
#X obj 270 152 s \$0-outpitch-set;
#X obj 124 230 s \$0-outms;
#X obj 190 230 s \$0-z_OUT;
#X obj 291 238 spigot;
#X obj 291 297 *;
#X obj 337 265 t b f;
#X obj 285 218 f;
#X obj 388 141 r \$0-f_ratio_dir;
#X obj 345 244 r \$0-f_ratio-num;
#X obj 290 321 ftom;
#X obj 289 344 t f f;
#X obj 324 218 == 2;
#X obj 317 381 s \$0-inpitch-set;
#X obj 289 405 s \$0-inpitch;
#X obj 59 88 * 1;
#X text 21 88 * 0.5;
#X text 97 191 * 2;
#X obj 124 192 * 1;
#X connect 0 0 1 0;
#X connect 0 0 4 0;
#X connect 0 0 18 0;
#X connect 1 0 10 0;
#X connect 2 0 11 0;
#X connect 2 0 12 0;
#X connect 3 0 2 0;
#X connect 4 0 29 0;
#X connect 5 0 13 0;
#X connect 6 0 26 0;
#X connect 7 0 6 0;
#X connect 7 0 14 0;
#X connect 8 0 0 0;
#X connect 9 0 3 0;
#X connect 9 0 4 0;
#X connect 9 0 18 0;
#X connect 15 0 16 0;
#X connect 16 0 21 0;
#X connect 17 0 18 0;
#X connect 17 1 16 1;
#X connect 18 0 15 0;
#X connect 19 0 23 0;
#X connect 20 0 17 0;
#X connect 21 0 22 0;
#X connect 22 0 25 0;
#X connect 22 1 24 0;
#X connect 23 0 15 1;
#X connect 26 0 1 0;
#X connect 26 0 3 0;
#X connect 29 0 5 0;
#X connect 29 0 14 0;
#X restore 445 122 pd output-pitch-freq-set;
#X obj 504 913 r \$0-botfreq-num;
#X obj 1160 627 r \$0-start_OUT;
#X obj 1063 711 *;
#X obj 1108 709 *;
#X obj 1064 87 s \$0-start_IN;
#X obj 1164 647 t b f;
#X obj 1166 683 -;
#X msg 1164 665 1;
#X obj 898 93 s \$0-end_IN;
#X obj 1137 783 line;
#X obj 1114 759 pack f 30;
#X obj 1114 737 r \$0-end_OUT;
#X obj 1137 821 s \$0-outpos-set;
#X obj 1039 813 s \$0-pos_OUT;
#X obj 1032 792 r \$0-outpos;
#X obj 1048 304 *;
#X obj 1093 302 *;
#X obj 1139 240 t b f;
#X obj 1141 276 -;
#X msg 1139 258 1;
#X obj 1175 334 line;
#X obj 1138 296 r \$0-end_IN;
#X obj 1175 372 s \$0-inpos-set;
#X obj 1070 343 r \$0-inpos;
#X obj 1077 364 s \$0-pos_IN;
#X obj 1135 220 r \$0-start_IN;
#X obj 1163 500 * 0.01;
#X obj 988 506 * 0.01;
#X obj 1144 527 f;
#X obj 977 529 f;
#X obj 1112 497 t b b;
#X obj 1144 547 s \$0-start_OUT;
#X obj 978 553 s \$0-end_OUT;
#X obj 988 487 r \$0-outpos_ed-num;
#X obj 1163 481 r \$0-outpos_st-num;
#X obj 1214 48 inlet;
#N canvas 484 106 766 648 automation 0;
#X obj 57 44 inlet;
#X obj 76 501 t f f;
#X obj 96 444 t f f;
#X obj 116 425 s \$0-inpos_st-set;
#X obj 136 406 s \$0-outpos_st-set;
#X obj 156 387 s \$0-inpos_ed-set;
#X obj 176 368 s \$0-outpos_ed-set;
#X obj 196 311 t f f;
#X obj 204 330 s \$0-inpitch-set;
#X obj 196 349 s \$0-inpitch;
#X obj 216 254 t f f;
#X obj 216 292 s \$0-outpitch;
#X obj 224 273 s \$0-outpitch-set;
#X obj 236 235 s \$0-infreq;
#X obj 256 216 s \$0-outfreq;
#X obj 276 197 s \$0-inms;
#X obj 296 178 s \$0-outms;
#X obj 316 159 s \$0-r1;
#X obj 336 140 s \$0-r2;
#X obj 356 121 s \$0-topfreq-set;
#X obj 376 102 s \$0-botfreq-set;
#X obj 96 520 s \$0-inpos_t-set;
#X obj 76 539 s \$0-inpos_t;
#X obj 96 482 s \$0-outpos_t;
#X obj 116 463 s \$0-outpos_t-set;
#X obj 57 67 route slide intime outtime inst outst ined outed pin pout
fin fout msin msout r1 r2 nut bridge;
#X obj 57 558 s \$0-slide-bng;
#X obj 296 551 s \$0-f_ratio_dir-set;
#X obj 309 487 * 100;
#X obj 284 513 s \$0-f_ratio_pc-set;
#X obj 479 528 s \$0-outpos-set;
#X obj 436 553 s \$0-inpos-set;
#X obj 519 508 s \$0-inpline;
#X obj 560 487 s \$0-outpline;
#X obj 651 485 s \$0-porta-set;
#X obj 349 455 route frat frd inpos outpos inpline outpline porta limit
;
#X obj 632 529 s \$0-limit-set;
#X obj 694 567 outlet;
#X connect 0 0 25 0;
#X connect 1 0 22 0;
#X connect 1 1 21 0;
#X connect 2 0 23 0;
#X connect 2 1 24 0;
#X connect 7 0 9 0;
#X connect 7 1 8 0;
#X connect 10 0 11 0;
#X connect 10 1 12 0;
#X connect 25 0 26 0;
#X connect 25 1 1 0;
#X connect 25 2 2 0;
#X connect 25 3 3 0;
#X connect 25 4 4 0;
#X connect 25 5 5 0;
#X connect 25 6 6 0;
#X connect 25 7 7 0;
#X connect 25 8 10 0;
#X connect 25 9 13 0;
#X connect 25 10 14 0;
#X connect 25 11 15 0;
#X connect 25 12 16 0;
#X connect 25 13 17 0;
#X connect 25 14 18 0;
#X connect 25 15 19 0;
#X connect 25 16 20 0;
#X connect 25 17 35 0;
#X connect 28 0 29 0;
#X connect 35 0 28 0;
#X connect 35 1 27 0;
#X connect 35 2 31 0;
#X connect 35 3 30 0;
#X connect 35 4 32 0;
#X connect 35 5 33 0;
#X connect 35 6 34 0;
#X connect 35 7 36 0;
#X connect 35 8 37 0;
#X restore 1214 71 pd automation;
#N canvas 671 25 502 606 init 0;
#X obj 76 539 s \$0-inpos_t-set;
#X obj 96 482 s \$0-outpos_t-set;
#X obj 116 425 s \$0-inpos_st-set;
#X obj 136 406 s \$0-outpos_st-set;
#X obj 156 387 s \$0-inpos_ed-set;
#X obj 176 368 s \$0-outpos_ed-set;
#X obj 204 330 s \$0-inpitch-set;
#X obj 186 269 s \$0-outpitch-set;
#X obj 228 240 s \$0-r1;
#X obj 248 221 s \$0-r2;
#X msg 204 303 45;
#X msg 184 247 57;
#X msg 218 197 2;
#X msg 250 184 4;
#X obj 77 69 loadbang;
#X obj 77 107 s \$0-topfreq-set;
#X msg 77 88 4714;
#X obj 181 107 s \$0-botfreq-set;
#X msg 181 85 3600;
#X obj 36 206 loadbang;
#X msg 96 361 60;
#X msg 72 393 1;
#X msg 152 302 99;
#X msg 123 329 60;
#X msg 34 513 2500;
#X msg 48 460 1700;
#X connect 10 0 6 0;
#X connect 11 0 7 0;
#X connect 14 0 16 0;
#X connect 14 0 18 0;
#X connect 16 0 15 0;
#X connect 18 0 17 0;
#X connect 19 0 11 0;
#X connect 19 0 10 0;
#X connect 19 0 22 0;
#X connect 19 0 23 0;
#X connect 19 0 20 0;
#X connect 19 0 25 0;
#X connect 19 0 21 0;
#X connect 19 0 24 0;
#X connect 20 0 3 0;
#X connect 21 0 2 0;
#X connect 22 0 5 0;
#X connect 23 0 4 0;
#X connect 24 0 0 0;
#X connect 25 0 1 0;
#X restore 1177 121 pd init;
#X obj 191 34 bng 13 250 50 0 \$0-slide \$0-slide-bng slide 15 7 1
11 -45076 -257985 -45076;
#X obj 1016 11 r \$0-slide;
#X obj 1112 462 r \$0-slide;
#X text 27 533 NEXT: get a signal-rate pitch input going for each \,
vibrato gen \, FM string etc;
#X obj 33 149 nbx 3 12 1 99 0 0 \$0-r1-num \$0-r1 :scatter: 11 18 1
10 -203904 -86853 -86853 16 256;
#X obj 71 149 nbx 3 12 1 99 0 0 \$0-r2-num \$0-r2 empty -52 6 1 10
-203904 -86853 -86853 1 256;
#X obj 526 495 s \$0-r1;
#X obj 618 493 s \$0-r2;
#X obj 456 514 r \$0-r1-num;
#X obj 536 514 r \$0-r2-num;
#X obj 184 149 nbx 4 12 1 10000 0 0 \$0-f_ratio_pc \$0-f_ratio_pc-set
empty -45 6 1 10 -13330 -155444 -13330 100 256;
#X obj 321 116 bng 12 250 50 0 \$0-f_ratio_int \$0-f_ratio_int-set
i 14 6 0 10 -13330 -155444 -13330;
#N canvas 630 218 450 300 f_ratio 0;
#X obj 165 143 r \$0-f_ratio-num;
#X obj 56 164 r \$0-f_ratio_int;
#X obj 234 207 i;
#X obj 239 234 s \$0-f_ratio-set;
#X obj 199 20 r \$0-f_ratio_dir;
#X obj 197 41 sel 0 1 2;
#X obj 203 123 s \$0-f_ratio_dir-set;
#X msg 196 63 label off \, label_pos -21 7;
#X msg 226 83 label in->out \, label_pos -44 7;
#X msg 248 103 label out->in \, label_pos -44 7;
#X obj 188 188 t b b;
#X obj 46 193 r \$0-f_ratio_dir;
#X obj 67 217 == 1;
#X obj 128 215 == 2;
#X obj 32 242 spigot;
#X obj 99 243 spigot;
#X obj 32 269 s \$0-inpitch-set;
#X obj 136 267 s \$0-outpitch-set;
#X connect 0 0 2 1;
#X connect 1 0 10 0;
#X connect 2 0 3 0;
#X connect 4 0 5 0;
#X connect 5 0 7 0;
#X connect 5 1 8 0;
#X connect 5 2 9 0;
#X connect 7 0 6 0;
#X connect 8 0 6 0;
#X connect 9 0 6 0;
#X connect 10 0 15 0;
#X connect 10 0 14 0;
#X connect 10 1 2 0;
#X connect 11 0 12 0;
#X connect 11 0 13 0;
#X connect 12 0 14 1;
#X connect 13 0 15 1;
#X connect 14 0 16 0;
#X connect 15 0 17 0;
#X restore 444 142 pd f_ratio;
#X obj 192 161 hradio 12 1 0 3 \$0-f_ratio_dir \$0-f_ratio_dir-set
in->out -44 7 1 10 -13330 -155444 -13330 1;
#X obj 514 209 delwrite~ \$0-INR_1 10000;
#X obj 514 266 delwrite~ \$0-INR_2 10000;
#X obj 727 209 delwrite~ \$0-INL_2 10000;
#X obj 727 266 delwrite~ \$0-INL_1 10000;
#X obj 494 670 delwrite~ \$0-OUTR_1 10000;
#X obj 718 666 delwrite~ \$0-OUTL_2 10000;
#X obj 718 724 delwrite~ \$0-OUTL_1 10000;
#X obj 494 728 delwrite~ \$0-OUTR_2 10000;
#X obj 606 780 hip~ 18;
#X obj 1015 743 pack 0 20;
#X obj 948 743 pack 0 20;
#X obj 184 149 nbx 4 12 0.01 100 0 0 \$0-f_ratio-num \$0-f_ratio f-ratio
-45 6 1 10 -13330 -155444 -13330 1 256;
#X obj 277 221 r \$0-f_ratio_pc;
#X obj 277 244 * 0.01;
#X obj 276 267 s \$0-f_ratio;
#X floatatom 824 373 5 0 0 0 - - -;
#X floatatom 788 372 5 0 0 0 - - -;
#X floatatom 1018 385 5 0 0 0 - - -;
#X floatatom 982 384 5 0 0 0 - - -;
#X obj 25 449 s \$0-inpos_st-set;
#X obj 140 443 s \$0-inpos_ed-set;
#X obj 20 426 hsl 189 12 0 100 0 0 empty empty position 47 6 0 10 -155431
-13381 -13381 0 1;
#X obj 20 481 hsl 189 12 0 100 0 0 empty empty position 47 6 0 10 -155431
-13381 -13381 0 1;
#X obj 25 504 s \$0-outpos_st-set;
#X obj 140 498 s \$0-outpos_ed-set;
#X obj 1043 273 t b f;
#X floatatom 834 823 5 0 0 0 - - -;
#X floatatom 798 822 5 0 0 0 - - -;
#X floatatom 1028 835 5 0 0 0 - - -;
#X floatatom 992 834 5 0 0 0 - - -;
#X obj 1069 678 t b f;
#X msg 270 464 50;
#X obj 275 195 s \$0-f_ratio_pc-set;
#X obj 272 153 loadbang;
#X msg 275 174 100;
#X obj 1227 234 r \$0-inpline;
#X text 883 146 <- Excitation input;
#X obj 1227 256 unpack;
#X msg 268 562 44100;
#X obj 270 590 / 64;
#X obj 269 616 expr 1/$f1;
#X floatatom 269 639 0 0 0 0 - - -;
#X obj 974 312 pack 0 5;
#X obj 907 312 pack 0 5;
#X obj 1150 315 pack f 10;
#X obj 1228 695 unpack;
#X obj 1228 673 r \$0-outpline;
#X obj 1102 152 r \$0-porta;
#X obj 1122 604 r \$0-porta;
#X obj 127 36 nbx 5 10 1 10000 1 0 \$0-porta \$0-porta-set porta 42
5 1 8 -192251 -13330 -13330 1 256;
#N canvas 4 55 450 300 limiting 0;
#X obj 301 79 inlet;
#X obj 67 154 *~;
#X obj 91 44 inlet~;
#X obj 67 213 outlet~;
#X obj 92 99 limiter~;
#X obj 67 134 z~ 32;
#X obj 297 118 switch~ 32 1 1;
#X connect 0 0 6 0;
#X connect 1 0 3 0;
#X connect 2 0 4 0;
#X connect 2 0 5 0;
#X connect 4 0 1 1;
#X connect 5 0 1 0;
#X restore 690 929 pd limiting;
#X obj 750 899 r \$0-limit;
#X obj 622 895 *~ 1;
#X obj 643 875 == 0;
#X obj 432 40 cnv 15 42 29 empty empty empty 4 6 0 7 -261681 -123526
0;
#X obj 119 151 tgl 10 0 \$0-limit \$0-limit-set limit -6 18 0 8 -86277
-261234 -86277 0 1;
#X obj 504 559 pack f 30;
#X obj 504 578 line~;
#X obj 568 558 pack f 30;
#X obj 568 577 line~;
#X obj 777 507 +~;
#X floatatom 1043 887 5 0 0 0 - - -;
#X floatatom 957 885 5 0 0 0 - - -;
#X text 396 376 Not finished: patches need implementing;
#X obj 1484 355 f;
#X obj 1482 300 r \$0-store_patch;
#X obj 1474 441 prepend add;
#X obj 1494 461 t b a;
#X obj 1564 550 msgfile;
#X msg 1841 621 0;
#X msg 1842 600 1;
#X msg 1647 518 add patches 0;
#X obj 1644 480 loadbang;
#X obj 1489 658 route patches;
#X msg 1581 467 goto 0;
#X obj 1493 543 f;
#X msg 1493 596 replace patches \$1;
#X msg 1542 526 this;
#X obj 1493 505 t b b b;
#X obj 1801 493 t b f;
#X msg 1816 517 goto \$1;
#X msg 1781 516 this;
#X obj 1928 480 r \$0-patches_load;
#X obj 1928 497 openpanel;
#X msg 2002 531 read \$1;
#X msg 1958 531 goto 0;
#X msg 1928 531 this;
#X obj 2108 410 r \$0-patches_save;
#X obj 2108 438 savepanel;
#X msg 2103 491 write \$1;
#X msg 1701 451 print;
#X obj 1490 628 route list;
#X obj 1928 514 t b b a b;
#X msg 1910 598 clear;
#X obj 1654 426 r \$0-patches_clear;
#X obj 1652 452 t b b;
#X msg 2071 516 set \$1;
#X obj 2253 440 symbol;
#X obj 2404 470 random;
#X obj 1509 526 + 1;
#X obj 2220 636 s \$0-patch-set;
#X obj 1776 437 r \$0-patch-num;
#X obj 1810 463 t b f b;
#X obj 2107 467 makesymbol %s.pat;
#X obj 1474 422 spigot 1;
#X obj 1484 324 t b b;
#X msg 1514 353 1;
#X obj 1544 423 spigot;
#X obj 1548 442 prepend replace;
#X obj 1603 303 r \$0-replace_patch;
#X obj 1556 324 t b b;
#X msg 1586 353 1;
#X msg 1526 332 0;
#X msg 1593 334 0;
#X msg 2235 465 set \$1;
#X symbolatom 2295 468 10 0 0 0 - - -;
#X obj 2306 442 r \$0-patches_resave;
#X obj 1890 420 r \$0-store_plus;
#X obj 1893 439 f;
#X obj 2006 447 f;
#X obj 1893 458 + 1;
#X obj 2038 456 - 1;
#X obj 1993 420 r \$0-store_minus;
#X obj 2039 475 moses 1;
#X obj 1932 451 moses;
#X msg 1972 459 1;
#X obj 1971 443 f;
#X obj 2080 457 f;
#X obj 2067 439 t b;
#X obj 2378 489 s \$0-patch-set;
#X msg 2512 778 patch \$1;
#X obj 2363 911 prepend file;
#X obj 2512 753 change;
#X obj 1775 613 spigot 1;
#X msg 2499 547 set \$1;
#X msg 2499 568 /media/sda2/Data/puredata/2012/HackneyWick/pat/clinok_fmnoise.pat
;
#X obj 2551 483 t b a;
#X obj 2577 507 unpack s;
#X obj 2499 601 symbol;
#X obj 2385 827 s \$0-patches-num;
#X obj 2385 804 + 1;
#X msg 2220 616 range 1 \$1;
#X obj 2010 214 route patch file save randpat;
#X obj 31 275 cnv 15 199 24 empty empty empty 20 12 0 14 -183672 -66577
0;
#X obj 34 285 nbx 3 12 0 999 0 0 empty empty empty -2 -6 0 7 -257472
-1109 -90133 0 256;
#X obj 74 285 nbx 3 12 1 2 0 0 \$0-patch-num \$0-patch-set select 0
-5 0 7 -17235 -261234 -17235 1 256;
#X obj 117 283 bng 12 250 50 0 \$0-store_patch \$0-store_patch-bng
store -3 -5 0 7 -17235 -262130 -17235;
#X obj 160 286 bng 10 250 50 0 \$0-patches_load \$0-patches_load-bng
load -1 -5 0 7 -2498 -262144 -13381;
#X obj 179 278 bng 10 250 50 0 \$0-patches_save \$0-patches_save-bng
save -4 16 0 7 -159809 -262144 -86277;
#X obj 34 285 nbx 3 12 0 999 0 0 \$0-patches-dummy \$0-patches-num
patches 0 -5 0 7 -17235 -203904 -17235 0 256;
#X obj 104 289 bng 8 250 50 0 \$0-store_plus \$0-store_plus-bng + 1
-6 0 10 -17235 -198336 -17235;
#X obj 64 289 bng 8 250 50 0 \$0-store_minus \$0-store_minus-bng -
1 -6 0 10 -17235 -257985 -17235;
#X obj 143 287 bng 8 250 50 0 \$0-replace_patch \$0-replace_patch-bng
ovw -1 -6 0 7 -17235 -262130 -17235;
#X obj 196 285 bng 8 250 50 0 \$0-patches_resave \$0-patches_resave-bng
ovw -1 -6 0 7 -159809 -262144 -86277;
#X obj 131 283 tgl 8 0 \$0-route_ovw \$0-route_ovw-set empty 17 7 0
10 -159809 -261234 -86277 0 1;
#X obj 1749 970 t f f;
#X obj 1769 913 t f f;
#X obj 1789 894 s \$0-inpos_st-set;
#X obj 1809 875 s \$0-outpos_st-set;
#X obj 1829 856 s \$0-inpos_ed-set;
#X obj 1849 837 s \$0-outpos_ed-set;
#X obj 1869 780 t f f;
#X obj 1877 799 s \$0-inpitch-set;
#X obj 1869 818 s \$0-inpitch;
#X obj 1889 723 t f f;
#X obj 1889 761 s \$0-outpitch;
#X obj 1897 742 s \$0-outpitch-set;
#X obj 1910 700 s \$0-r1;
#X obj 1930 681 s \$0-r2;
#X obj 1950 662 s \$0-topfreq-set;
#X obj 1970 643 s \$0-botfreq-set;
#X obj 1769 989 s \$0-inpos_t-set;
#X obj 1749 1008 s \$0-inpos_t;
#X obj 1769 951 s \$0-outpos_t;
#X obj 1789 932 s \$0-outpos_t-set;
#X obj 1969 1020 s \$0-f_ratio_dir-set;
#X obj 1982 956 * 100;
#X obj 1957 982 s \$0-f_ratio_pc-set;
#X obj 2152 997 s \$0-outpos-set;
#X obj 2109 1022 s \$0-inpos-set;
#X obj 2342 946 s \$0-porta-set;
#X obj 2323 990 s \$0-limit-set;
#X obj 1213 296 r \$0-inpos_t;
#X obj 1177 759 r \$0-outpos_t;
#X obj 1637 555 unpack f f f f f f f f f f f f f f f f f f;
#X obj 1480 218 r \$0-inpos_t;
#X obj 1500 198 r \$0-outpos_t;
#X obj 1523 177 r \$0-inpos_st-num;
#X obj 1543 158 r \$0-outpos_st-num;
#X obj 1563 139 r \$0-inpos_ed-num;
#X obj 1583 120 r \$0-outpos_ed-num;
#X obj 1603 101 r \$0-inpitch-num;
#X obj 1633 79 r \$0-outpitch-num;
#X obj 1669 219 r \$0-r1-num;
#X obj 1689 200 r \$0-r2-num;
#X obj 1709 181 r \$0-topfreq-num;
#X obj 1729 162 r \$0-botfreq-num;
#X obj 1756 141 r \$0-f_ratio-num;
#X obj 1789 121 r \$0-f_ratio_dir;
#X obj 1818 100 r \$0-inpos;
#X obj 1844 79 r \$0-outpos;
#X obj 1864 58 r \$0-limit;
#X obj 1884 35 r \$0-porta;
#X obj 1499 389 pack f f f f f f f f f f f f f f f f f f;
#X obj 673 83 *~ -1;
#X obj 673 105 lop~ 500;
#X obj 673 127 hip~ 20;
#X obj 464 936 *~ -1;
#X obj 464 958 lop~ 500;
#X obj 464 980 hip~ 20;
#X obj 2220 596 + 1;
#X text 290 21 PUT LFOs on the POSITION!!!!!!!;
#X connect 10 0 12 0;
#X connect 11 0 12 1;
#X connect 12 0 13 0;
#X connect 13 0 14 0;
#X connect 14 0 18 0;
#X connect 14 0 19 0;
#X connect 18 0 28 0;
#X connect 19 0 172 0;
#X connect 22 0 25 0;
#X connect 22 0 26 0;
#X connect 23 0 224 0;
#X connect 24 0 226 0;
#X connect 25 0 160 0;
#X connect 26 0 161 0;
#X connect 27 0 19 1;
#X connect 27 0 11 0;
#X connect 29 0 169 0;
#X connect 30 0 29 1;
#X connect 30 0 39 1;
#X connect 32 0 30 0;
#X connect 33 0 184 0;
#X connect 33 0 211 0;
#X connect 34 0 183 0;
#X connect 34 0 210 0;
#X connect 35 0 34 1;
#X connect 35 0 38 0;
#X connect 36 0 41 0;
#X connect 37 0 35 0;
#X connect 38 0 34 0;
#X connect 39 0 171 0;
#X connect 41 0 33 0;
#X connect 41 0 34 0;
#X connect 42 0 41 0;
#X connect 42 0 193 0;
#X connect 43 0 35 1;
#X connect 43 0 37 0;
#X connect 43 0 33 1;
#X connect 43 0 36 0;
#X connect 45 0 170 0;
#X connect 46 0 372 0;
#X connect 49 0 176 0;
#X connect 51 0 173 0;
#X connect 54 0 178 0;
#X connect 54 0 195 0;
#X connect 54 0 230 0;
#X connect 55 0 177 0;
#X connect 55 0 194 0;
#X connect 55 0 229 0;
#X connect 56 0 55 1;
#X connect 56 0 59 0;
#X connect 57 0 60 0;
#X connect 58 0 56 0;
#X connect 59 0 55 0;
#X connect 60 0 54 0;
#X connect 60 0 55 0;
#X connect 61 0 60 0;
#X connect 61 0 198 0;
#X connect 62 0 56 1;
#X connect 62 0 58 0;
#X connect 62 0 54 1;
#X connect 62 0 57 0;
#X connect 67 0 49 1;
#X connect 67 0 174 0;
#X connect 68 0 49 0;
#X connect 68 0 175 0;
#X connect 69 0 375 0;
#X connect 70 0 52 0;
#X connect 71 0 68 0;
#X connect 71 0 70 0;
#X connect 72 0 67 0;
#X connect 72 0 69 0;
#X connect 73 0 39 0;
#X connect 74 0 29 0;
#X connect 75 0 10 0;
#X connect 75 0 18 1;
#X connect 76 0 44 0;
#X connect 77 0 76 0;
#X connect 77 0 74 0;
#X connect 78 0 73 0;
#X connect 78 0 75 0;
#X connect 83 0 84 0;
#X connect 84 0 101 1;
#X connect 97 0 373 1;
#X connect 98 0 102 1;
#X connect 99 0 98 0;
#X connect 101 0 120 0;
#X connect 102 0 124 0;
#X connect 103 0 102 0;
#X connect 103 1 101 0;
#X connect 116 0 376 1;
#X connect 117 0 118 0;
#X connect 117 0 121 0;
#X connect 118 0 71 0;
#X connect 118 0 197 0;
#X connect 119 0 72 0;
#X connect 119 0 196 0;
#X connect 121 0 123 0;
#X connect 121 1 122 1;
#X connect 121 1 125 0;
#X connect 122 0 119 0;
#X connect 123 0 122 0;
#X connect 125 0 128 0;
#X connect 126 0 125 0;
#X connect 127 0 126 0;
#X connect 130 0 129 0;
#X connect 131 0 77 0;
#X connect 131 0 186 0;
#X connect 132 0 78 0;
#X connect 132 0 185 0;
#X connect 133 0 135 0;
#X connect 133 1 134 1;
#X connect 133 1 136 0;
#X connect 134 0 132 0;
#X connect 135 0 134 0;
#X connect 136 0 138 0;
#X connect 137 0 212 0;
#X connect 139 0 140 0;
#X connect 141 0 131 0;
#X connect 141 0 133 0;
#X connect 142 0 144 1;
#X connect 143 0 145 1;
#X connect 144 0 147 0;
#X connect 145 0 148 0;
#X connect 146 0 145 0;
#X connect 146 1 144 0;
#X connect 149 0 143 0;
#X connect 150 0 142 0;
#X connect 151 0 152 0;
#X connect 152 0 310 0;
#X connect 155 0 103 0;
#X connect 156 0 146 0;
#X connect 162 0 23 0;
#X connect 163 0 24 0;
#X connect 176 0 218 0;
#X connect 176 0 220 0;
#X connect 177 0 72 0;
#X connect 178 0 71 0;
#X connect 180 0 181 0;
#X connect 181 0 182 0;
#X connect 189 0 187 0;
#X connect 189 0 188 0;
#X connect 190 0 191 0;
#X connect 190 0 192 0;
#X connect 193 0 132 0;
#X connect 193 0 131 0;
#X connect 193 1 131 1;
#X connect 193 1 132 1;
#X connect 198 0 118 0;
#X connect 198 0 119 0;
#X connect 198 1 119 1;
#X connect 198 1 118 1;
#X connect 199 0 190 0;
#X connect 201 0 202 0;
#X connect 202 0 200 0;
#X connect 203 0 205 0;
#X connect 205 0 212 0;
#X connect 205 1 212 1;
#X connect 206 0 207 0;
#X connect 207 0 208 0;
#X connect 208 0 209 0;
#X connect 210 0 78 0;
#X connect 211 0 77 0;
#X connect 212 0 136 0;
#X connect 213 0 126 0;
#X connect 213 1 126 1;
#X connect 214 0 213 0;
#X connect 215 0 210 1;
#X connect 215 0 211 1;
#X connect 216 0 177 1;
#X connect 216 0 178 1;
#X connect 218 0 50 0;
#X connect 219 0 218 1;
#X connect 219 0 221 0;
#X connect 220 0 50 0;
#X connect 221 0 220 1;
#X connect 224 0 225 0;
#X connect 225 0 228 0;
#X connect 225 0 10 1;
#X connect 226 0 227 0;
#X connect 227 0 228 1;
#X connect 227 0 11 1;
#X connect 228 0 14 1;
#X connect 232 0 371 0;
#X connect 233 0 273 0;
#X connect 234 0 235 0;
#X connect 235 0 246 0;
#X connect 235 1 236 0;
#X connect 236 0 259 0;
#X connect 237 0 301 1;
#X connect 238 0 301 1;
#X connect 239 0 236 0;
#X connect 240 0 239 0;
#X connect 241 0 266 1;
#X connect 241 0 267 0;
#X connect 241 0 292 1;
#X connect 241 0 295 1;
#X connect 241 0 301 0;
#X connect 241 1 352 0;
#X connect 242 0 236 0;
#X connect 243 0 244 0;
#X connect 243 0 266 1;
#X connect 243 0 292 1;
#X connect 243 0 308 0;
#X connect 244 0 236 0;
#X connect 245 0 236 0;
#X connect 246 0 243 0;
#X connect 246 1 245 0;
#X connect 246 2 242 0;
#X connect 247 0 249 0;
#X connect 247 1 248 0;
#X connect 248 0 236 0;
#X connect 249 0 236 0;
#X connect 250 0 251 0;
#X connect 251 0 260 0;
#X connect 252 0 236 0;
#X connect 253 0 236 0;
#X connect 254 0 236 0;
#X connect 255 0 256 0;
#X connect 256 0 271 0;
#X connect 257 0 236 0;
#X connect 258 0 236 0;
#X connect 259 0 241 0;
#X connect 260 0 254 0;
#X connect 260 1 253 0;
#X connect 260 1 238 0;
#X connect 260 2 252 0;
#X connect 260 2 264 0;
#X connect 260 2 282 0;
#X connect 260 2 299 0;
#X connect 260 2 302 0;
#X connect 260 3 261 0;
#X connect 260 3 237 0;
#X connect 261 0 236 0;
#X connect 262 0 263 0;
#X connect 263 0 239 0;
#X connect 263 1 261 0;
#X connect 265 0 260 0;
#X connect 266 0 297 0;
#X connect 267 0 243 1;
#X connect 269 0 270 0;
#X connect 269 0 286 1;
#X connect 269 0 287 1;
#X connect 270 1 247 0;
#X connect 270 1 300 0;
#X connect 271 0 257 0;
#X connect 271 0 282 0;
#X connect 271 0 299 0;
#X connect 272 0 234 0;
#X connect 273 0 232 0;
#X connect 273 1 274 0;
#X connect 273 1 280 0;
#X connect 274 0 272 1;
#X connect 275 0 276 0;
#X connect 276 0 236 0;
#X connect 277 0 278 0;
#X connect 278 0 232 0;
#X connect 278 1 279 0;
#X connect 278 1 281 0;
#X connect 279 0 275 1;
#X connect 280 0 275 1;
#X connect 281 0 272 1;
#X connect 282 0 283 0;
#X connect 283 0 257 0;
#X connect 284 0 283 0;
#X connect 285 0 286 0;
#X connect 286 0 288 0;
#X connect 287 0 289 0;
#X connect 288 0 270 0;
#X connect 288 0 292 0;
#X connect 289 0 291 0;
#X connect 290 0 287 0;
#X connect 291 0 296 0;
#X connect 291 1 270 0;
#X connect 292 0 270 0;
#X connect 292 1 293 0;
#X connect 293 0 270 0;
#X connect 295 0 270 0;
#X connect 296 0 295 0;
#X connect 300 0 298 0;
#X connect 301 0 308 0;
#X connect 301 0 378 0;
#X connect 302 0 303 0;
#X connect 303 0 306 0;
#X connect 304 0 303 0;
#X connect 304 1 305 0;
#X connect 305 0 302 0;
#X connect 306 0 257 0;
#X connect 308 0 307 0;
#X connect 309 0 268 0;
#X connect 310 0 297 0;
#X connect 310 1 265 0;
#X connect 310 2 304 0;
#X connect 310 3 266 0;
#X connect 323 0 340 0;
#X connect 323 1 339 0;
#X connect 324 0 341 0;
#X connect 324 1 342 0;
#X connect 329 0 331 0;
#X connect 329 1 330 0;
#X connect 332 0 333 0;
#X connect 332 1 334 0;
#X connect 344 0 345 0;
#X connect 350 0 212 1;
#X connect 351 0 126 1;
#X connect 352 0 323 0;
#X connect 352 1 324 0;
#X connect 352 2 325 0;
#X connect 352 3 326 0;
#X connect 352 4 327 0;
#X connect 352 5 328 0;
#X connect 352 6 329 0;
#X connect 352 7 332 0;
#X connect 352 8 335 0;
#X connect 352 9 336 0;
#X connect 352 10 337 0;
#X connect 352 11 338 0;
#X connect 352 12 344 0;
#X connect 352 13 343 0;
#X connect 352 14 347 0;
#X connect 352 15 346 0;
#X connect 352 16 349 0;
#X connect 352 17 348 0;
#X connect 353 0 232 1;
#X connect 354 0 371 1;
#X connect 355 0 371 2;
#X connect 356 0 371 3;
#X connect 357 0 371 4;
#X connect 358 0 371 5;
#X connect 359 0 371 6;
#X connect 360 0 371 7;
#X connect 361 0 371 8;
#X connect 362 0 371 9;
#X connect 363 0 371 10;
#X connect 364 0 371 11;
#X connect 365 0 371 12;
#X connect 366 0 371 13;
#X connect 367 0 371 14;
#X connect 368 0 371 15;
#X connect 369 0 371 16;
#X connect 370 0 371 17;
#X connect 371 0 272 0;
#X connect 371 0 275 0;
#X connect 372 0 373 0;
#X connect 373 0 374 0;
#X connect 374 0 168 0;
#X connect 375 0 376 0;
#X connect 376 0 377 0;
#X connect 377 0 64 0;
#X connect 378 0 309 0;
#X coords 0 -1 1 1 201 269 1 30 33;
