#N canvas 43 71 1096 804 10;
#X obj 653 304 r \$0-tempo-num;
#X obj 653 388 /;
#X obj 653 437 *;
#X obj 682 410 t b f;
#X obj 679 361 t b f;
#X obj 677 27 inlet;
#X obj 181 48 cnv 15 274 40 empty empty empty 8 6 0 10 -188065 -42246
0;
#X obj 525 154 cnv 10 10 10 empty empty empty 3 8 0 8 -200064 -355
0;
#X obj 535 164 cnv 10 10 10 empty empty empty 3 8 0 8 -200064 -355
0;
#X obj 566 193 cnv 8 8 8 empty empty empty 3 8 0 8 -200064 -355 0;
#X obj 576 203 cnv 8 8 8 empty empty empty 3 8 0 8 -200064 -355 0;
#X obj 586 213 cnv 8 8 8 empty empty empty 3 8 0 8 -200064 -355 0;
#X obj 613 207 cnv 6 6 6 empty empty empty 3 8 0 8 -200064 -355 0;
#X obj 618 224 cnv 6 6 6 empty empty empty 3 8 0 8 -200064 -355 0;
#X obj 289 33 cnv 15 166 48 empty empty empty 8 6 0 10 -188065 -42246
0;
#X obj 181 89 cnv 15 137 48 empty empty empty 8 6 0 10 -239662 -42246
0;
#X obj 520 57 cnv 15 19 48 empty empty empty 8 6 0 10 -188065 -42246
0;
#X obj 197 104 nbx 4 14 1 64 0 0 \$0-start_num \$0-start_num-set number
55 7 0 12 -261234 -86277 -86277 1 256;
#X obj 197 121 nbx 4 14 1 999 0 0 \$0-start_div \$0-start_div-set fraction
55 7 0 12 -261234 -86277 -86277 156 256;
#X obj 189 53 hsl 141 14 40 180 0 0 \$0-tempo \$0-tempo-set tempo 20
6 0 12 -204786 -13381 -13381 11200 1;
#X obj 186 67 nbx 5 14 1 99999 0 0 \$0-tempo-num \$0-tempo empty 0
-8 0 12 -204786 -13381 -13381 152 256;
#X obj 338 53 nbx 4 14 1 64 0 0 \$0-beat_num \$0-beat_num-set number
55 7 0 12 -204786 -13381 -13381 2 256;
#X obj 338 70 nbx 4 14 1 64 0 0 \$0-beat_div \$0-beat_div-set beat
55 7 0 12 -204786 -13381 -13381 1 256;
#X text 292 34 event duration;
#X text 814 213 254 x;
#X text 199 89 start;
#X obj 318 89 cnv 15 137 48 empty empty empty 8 6 0 10 -186427 -42246
0;
#X obj 332 103 nbx 4 14 1 64 0 0 \$0-end_num \$0-end_num-set number
55 7 0 12 -261234 -86277 -86277 1 256;
#X obj 332 120 nbx 4 14 1 999 0 0 \$0-end_div \$0-end_div-set fraction
55 7 0 12 -261234 -86277 -86277 77 256;
#X obj 253 69 tgl 12 0 \$0-tempo_patch \$0-tempo_patch-set patch 15
6 0 12 -204786 -13381 -13381 0 1;
#X text 497 248 use timers instead of line so that \, the time elapsed
since the start of the beat / the beat duration = the fraction of progression
from the start value to the end value;
#X obj 63 313 r \$0-go;
#X obj 74 373 timer;
#X obj 72 337 t b b;
#X msg 121 314 0;
#X obj 75 396 /;
#X obj 119 373 r \$0-event_dur;
#X obj 76 421 s \$0-event_fraction;
#N canvas 12 71 867 469 init 0;
#X msg 124 236 0.2;
#X obj 124 256 s \$0-start_af-set;
#X msg 155 216 0.5;
#X obj 155 236 s \$0-end_af-set;
#X obj 221 80 loadbang;
#X msg 194 196 23;
#X obj 194 216 s \$0-start_df-set;
#X obj 225 196 s \$0-end_df-set;
#X msg 225 176 46;
#X obj 255 176 s \$0-start_off-set;
#X msg 286 136 37;
#X msg 255 156 40;
#X obj 286 156 s \$0-end_off-set;
#X obj 325 136 s \$0-start_da-set;
#X obj 356 116 s \$0-end_da-set;
#X msg 325 116 60;
#X msg 356 96 40;
#X obj 561 139 s \$0-beat_div-set;
#X obj 582 120 s \$0-beat_num-set;
#X msg 538 100 4;
#X msg 578 95 2;
#X obj 538 30 loadbang;
#X obj 538 52 t b b;
#X msg 491 87 152;
#X obj 505 177 s \$0-tempo-set;
#X obj 362 338 s \$0-start_div-set;
#X obj 397 359 s \$0-end_div-set;
#X obj 505 338 s \$0-start_num-set;
#X obj 540 359 s \$0-end_num-set;
#X msg 362 304 8;
#X msg 502 300 1;
#X msg 549 304 4;
#X obj 364 282 loadbang;
#X obj 501 278 loadbang;
#X obj 667 244 s \$0-mode-set;
#X msg 663 220 1;
#X obj 665 189 loadbang;
#X msg 698 295 1;
#X obj 698 317 s \$0-polycomplex-set;
#X obj 713 162 s \$0-fmsmooth_on;
#X msg 37 317 1;
#X msg 166 316 0;
#X obj 103 292 loadbang;
#X msg 340 373 2000;
#X msg 240 396 1200;
#X obj 62 349 s \$0-end_fceg-set;
#X obj 183 348 s \$0-end_fcoff-set;
#X obj 165 368 s \$0-start_fcoff-set;
#X obj 302 401 s \$0-start_feg-set;
#X obj 275 429 s \$0-end_feg-set;
#X obj 34 370 s \$0-start_fceg-set;
#X obj 75 390 s \$0-start_q-set;
#X obj 95 411 s \$0-end_q-set;
#X msg 286 316 0.1;
#X obj 577 413 s \$0-start_fm-set;
#X obj 601 432 s \$0-end_fm-set;
#X msg 583 386 96;
#X msg 630 385 84;
#X obj 508 240 s \$0-tempo_mult-set;
#X connect 0 0 1 0;
#X connect 2 0 3 0;
#X connect 4 0 2 0;
#X connect 4 0 0 0;
#X connect 4 0 5 0;
#X connect 4 0 8 0;
#X connect 4 0 11 0;
#X connect 4 0 10 0;
#X connect 4 0 15 0;
#X connect 4 0 16 0;
#X connect 5 0 6 0;
#X connect 8 0 7 0;
#X connect 10 0 12 0;
#X connect 11 0 9 0;
#X connect 15 0 13 0;
#X connect 16 0 14 0;
#X connect 19 0 17 0;
#X connect 20 0 18 0;
#X connect 21 0 22 0;
#X connect 22 0 23 0;
#X connect 22 1 20 0;
#X connect 22 1 19 0;
#X connect 23 0 24 0;
#X connect 29 0 25 0;
#X connect 29 0 26 0;
#X connect 30 0 27 0;
#X connect 31 0 28 0;
#X connect 32 0 29 0;
#X connect 32 0 43 0;
#X connect 32 0 44 0;
#X connect 32 0 53 0;
#X connect 33 0 30 0;
#X connect 33 0 31 0;
#X connect 33 0 56 0;
#X connect 33 0 57 0;
#X connect 35 0 34 0;
#X connect 35 0 58 0;
#X connect 36 0 35 0;
#X connect 36 0 37 0;
#X connect 37 0 38 0;
#X connect 40 0 45 0;
#X connect 40 0 50 0;
#X connect 41 0 46 0;
#X connect 41 0 47 0;
#X connect 42 0 40 0;
#X connect 42 0 41 0;
#X connect 43 0 48 0;
#X connect 44 0 49 0;
#X connect 53 0 51 0;
#X connect 53 0 52 0;
#X connect 56 0 54 0;
#X connect 57 0 55 0;
#X restore 522 29 pd init;
#X text 791 172 smooth_step;
#X text 808 186 quant_step;
#X text 752 145 3 rhythm modes:;
#X obj 679 342 r \$0-beat_div;
#X obj 682 391 r \$0-beat_num;
#X obj 653 457 s \$0-event_dur;
#X obj 202 313 metro;
#X obj 373 407 r \$0-event_dur;
#X obj 158 313 t b b;
#X obj 29 474 outlet;
#X obj 141 354 s \$0-zero;
#X obj 133 399 delay;
#X msg 187 398 0;
#X obj 306 315 r \$0-mode;
#X obj 306 337 == 0;
#X obj 268 371 spigot;
#X obj 305 408 f;
#X obj 305 440 pack f f f;
#X obj 309 495 line;
#X msg 305 466 \$1 \, \$2 \$3;
#X obj 779 304 r \$0-tempo-num;
#X obj 779 388 /;
#X obj 779 437 *;
#X obj 808 410 t b f;
#X obj 805 361 t b f;
#X obj 779 323 expr 60000/$f1;
#X obj 805 342 r \$0-start_div;
#X obj 808 391 r \$0-start_num;
#X obj 779 457 s \$0-start_dur;
#X text 335 88 finish;
#X obj 912 305 r \$0-tempo-num;
#X obj 912 389 /;
#X obj 912 438 *;
#X obj 941 411 t b f;
#X obj 938 362 t b f;
#X obj 912 324 expr 60000/$f1;
#X obj 938 343 r \$0-end_div;
#X obj 941 392 r \$0-end_num;
#X obj 912 458 s \$0-end_dur;
#X msg 29 452 bang \, 1;
#X obj 260 408 f;
#X obj 324 366 r \$0-start_dur;
#X obj 340 386 r \$0-end_dur;
#X obj 215 548 == 1;
#X obj 216 524 r \$0-mode;
#X obj 103 622 t b f;
#X obj 90 647 -;
#X obj 72 669 *;
#X obj 72 689 +;
#X obj 116 679 r \$0-zero;
#X obj 72 511 r \$0-event_fraction;
#X obj 72 555 spigot;
#X obj 90 577 r \$0-end_dur;
#X obj 104 601 r \$0-start_dur;
#X obj 268 268 r \$0-metro_time;
#X obj 70 748 s \$0-metro_time;
#X obj 72 720 spigot;
#X obj 134 553 > 0;
#X obj 227 600 spigot;
#X obj 261 547 == 2;
#X obj 301 522 s \$0-metro_time;
#X obj 327 572 r \$0-polycomplex;
#X msg 320 598 plimit \$1;
#X obj 296 692 polyquant 140 1;
#X msg 449 602 bpm \$1;
#X obj 649 50 route bang;
#X obj 597 80 s \$0-go;
#X obj 575 102 bng 15 250 50 0 empty empty empty 17 7 0 10 -262144
-1 -1;
#X floatatom 435 388 5 0 0 0 - - -;
#X floatatom 431 364 5 0 0 0 - - -;
#X obj 653 323 expr 240000/$f1;
#X obj 227 626 moses 1e-07;
#X obj 448 535 r \$0-tempo-num;
#X obj 409 284 r \$0-mode;
#X obj 371 340 spigot;
#X obj 409 306 == 2;
#X obj 239 291 moses 0.01;
#X floatatom 320 292 5 0 0 0 - - -;
#X msg 427 657 mode 1;
#X obj 435 636 loadbang;
#X obj 447 580 * 1;
#X obj 469 557 t b f;
#X obj 325 545 r \$0-tempo_mult;
#X obj 585 155 nbx 4 14 1 64 0 0 \$0-tempo_mult \$0-tempo_mult-set
multiplier 1 -6 0 12 -204786 -13381 -13381 1 256;
#X obj 141 456 del 0;
#X obj 194 453 r \$0-loop;
#X obj 139 478 spigot;
#X obj 181 138 cnv 10 274 28 empty empty empty 3 8 0 8 -200182 -355
0;
#X obj 183 153 hradio 12 1 0 3 \$0-mode \$0-mode-set mode 0 -8 0 12
-262144 -1 -1 1;
#X obj 222 151 nbx 3 14 1 16 0 0 \$0-polycomplex \$0-polycomplex-set
complexity -6 -8 0 12 -262144 -1 -1 1 256;
#X obj 310 103 tgl 15 0 \$0-loop \$0-loop-set loop -6 -7 0 12 -262144
-1 -1 0 1;
#X obj 292 150 nbx 3 12 0 999 0 0 empty empty empty -2 -6 0 7 -257472
-1109 -90133 0 256;
#X obj 333 150 nbx 3 12 1 8 0 0 \$0-patch-num \$0-patch-set select
0 -5 0 7 -17235 -261234 -17235 1 256;
#X obj 373 150 bng 12 250 50 0 \$0-store_patch \$0-store_patch-bng
store -3 -5 0 7 -17235 -262130 -17235;
#X obj 407 152 bng 10 250 50 0 \$0-patches_load \$0-patches_load-bng
load -1 -5 0 7 -2498 -262144 -13381;
#X obj 426 144 bng 10 250 50 0 \$0-patches_save \$0-patches_save-bng
save -4 16 0 7 -159809 -262144 -86277;
#X obj 292 150 nbx 3 12 0 999 0 0 \$0-patches-dummy \$0-patches-num
patches 0 -5 0 7 -17235 -203904 -17235 0 256;
#X obj 362 154 bng 8 250 50 0 \$0-store_plus \$0-store_plus-bng + 1
-6 0 10 -17235 -198336 -17235;
#X obj 324 154 bng 8 250 50 0 \$0-store_minus \$0-store_minus-bng -
1 -6 0 10 -17235 -257985 -17235;
#X obj 392 154 bng 8 250 50 0 \$0-replace_patch \$0-replace_patch-bng
ovw -2 -6 0 7 -17235 -262130 -17235;
#X obj 442 154 bng 8 250 50 0 \$0-patches_resave \$0-patches_resave-bng
ovw -1 -6 0 7 -159809 -262144 -86277;
#N canvas 18 132 1027 655 patches 0;
#X obj 24 140 f;
#X obj 21 97 r \$0-store_patch;
#X obj 18 248 t b a;
#X obj 89 321 msgfile;
#X obj 411 544 spigot;
#X msg 461 541 0;
#X msg 461 524 1;
#X msg 172 289 add patches 0;
#X obj 169 251 loadbang;
#X obj 80 551 route patches;
#X msg 109 286 goto 0;
#X obj 34 297 + 1;
#X obj 18 314 f;
#X msg 18 367 replace patches \$1;
#X msg 69 288 this;
#X obj 18 268 t b b b;
#X msg 545 548 range 1 \$1;
#X obj 346 217 t b f;
#X msg 361 241 goto \$1;
#X msg 326 240 this;
#X obj 453 251 r \$0-patches_load;
#X obj 453 268 openpanel;
#X msg 527 302 read \$1;
#X msg 483 302 goto 0;
#X msg 453 302 this;
#X obj 633 181 r \$0-patches_save;
#X obj 633 209 savepanel;
#X msg 630 282 write \$1;
#X obj 598 422 spigot;
#X msg 226 222 print;
#X obj 81 521 route list;
#X obj 453 285 t b b a b;
#X msg 469 362 clear;
#X obj 281 171 r \$0-patches_clear;
#X obj 279 197 t b b;
#X obj 753 125 inlet;
#X obj 731 355 outlet;
#X obj 753 158 symbol;
#X obj 830 165 inlet;
#X obj 830 409 random;
#X obj 830 501 outlet;
#X obj 411 561 s \$0-patches-num;
#X obj 545 565 s \$0-patch-set;
#X obj 241 261 r \$0-store_plus;
#X obj 338 261 r \$0-store_minus;
#N canvas 4 55 450 300 plumin 0;
#X obj 127 97 f;
#X obj 169 97 f;
#X obj 119 119 + 1;
#X obj 165 119 - 1;
#X obj 226 35 inlet;
#X obj 153 32 inlet;
#X obj 72 31 inlet;
#X obj 141 147 - 1;
#X obj 323 61 inlet;
#X obj 214 180 %;
#X obj 140 207 + 1;
#X obj 120 256 outlet;
#X obj 105 171 moses 0;
#X obj 92 221 f;
#X obj 87 193 b;
#X connect 0 0 2 0;
#X connect 1 0 3 0;
#X connect 2 0 7 0;
#X connect 3 0 7 0;
#X connect 4 0 1 1;
#X connect 4 0 0 1;
#X connect 5 0 1 0;
#X connect 6 0 0 0;
#X connect 7 0 12 0;
#X connect 8 0 9 1;
#X connect 8 0 13 1;
#X connect 9 0 10 0;
#X connect 10 0 11 0;
#X connect 12 0 14 0;
#X connect 12 1 9 0;
#X connect 13 0 11 0;
#X connect 14 0 13 0;
#X restore 292 288 pd plumin;
#X obj 262 315 s \$0-patch-set;
#X obj 796 129 inlet;
#X obj 632 238 makesymbol %s.pat;
#X obj 850 212 r \$0-resave;
#X msg 861 263 set write \$1;
#X obj 36 33 r \$0-end_num;
#X obj 50 53 r \$0-end_div;
#X obj 134 33 r \$0-start_num;
#X obj 146 53 r \$0-start_div;
#X obj 242 33 r \$0-beat_num;
#X obj 251 53 r \$0-beat_div;
#X obj 340 33 r \$0-mode;
#X obj 349 53 r \$0-polycomplex;
#X obj 410 33 r \$0-loop;
#X obj 24 172 pack f f f f f f f f f f;
#X obj 468 53 r \$0-tempo-num;
#X obj 218 344 unpack f f f f f f f f f f;
#X obj 640 380 r \$0-patch_tempo;
#X obj 142 444 s \$0-end_num-set;
#X obj 156 464 s \$0-end_div-set;
#X obj 170 484 s \$0-start_num-set;
#X obj 182 504 s \$0-start_div-set;
#X obj 297 435 s \$0-beat_num-set;
#X obj 306 455 s \$0-beat_div-set;
#X obj 315 475 s \$0-mode-set;
#X obj 324 495 s \$0-polycomplex-set;
#X obj 443 466 s \$0-loop-set;
#X obj 626 469 s \$0-tempo-set;
#X obj 599 489 s \$0-tempo;
#X obj 598 443 t f f;
#X msg 850 286;
#X obj 14 222 prepend add;
#X obj 14 203 spigot 1;
#X obj 32 119 t b b;
#X msg 62 148 1;
#X obj 93 203 spigot;
#X obj 97 222 prepend replace;
#X obj 144 104 t b b;
#X msg 134 148 1;
#X msg 74 127 0;
#X msg 141 129 0;
#X obj 168 85 r \$0-replace_patch;
#X connect 0 0 60 0;
#X connect 1 0 79 0;
#X connect 2 0 15 0;
#X connect 2 1 3 0;
#X connect 3 0 30 0;
#X connect 4 0 5 0;
#X connect 4 0 16 0;
#X connect 4 0 41 0;
#X connect 4 0 45 3;
#X connect 5 0 4 1;
#X connect 6 0 4 1;
#X connect 7 0 3 0;
#X connect 8 0 7 0;
#X connect 9 0 11 0;
#X connect 9 0 4 0;
#X connect 9 0 39 1;
#X connect 9 1 62 0;
#X connect 10 0 3 0;
#X connect 11 0 12 1;
#X connect 12 0 13 0;
#X connect 12 0 16 0;
#X connect 12 0 39 1;
#X connect 12 0 41 0;
#X connect 13 0 3 0;
#X connect 14 0 3 0;
#X connect 15 0 12 0;
#X connect 15 1 14 0;
#X connect 15 2 10 0;
#X connect 16 0 42 0;
#X connect 17 0 19 0;
#X connect 17 1 18 0;
#X connect 17 1 45 2;
#X connect 18 0 3 0;
#X connect 19 0 3 0;
#X connect 20 0 21 0;
#X connect 21 0 31 0;
#X connect 21 0 36 0;
#X connect 21 0 50 0;
#X connect 22 0 3 0;
#X connect 23 0 3 0;
#X connect 24 0 3 0;
#X connect 25 0 26 0;
#X connect 26 0 48 0;
#X connect 27 0 3 0;
#X connect 28 0 75 0;
#X connect 29 0 3 0;
#X connect 30 0 9 0;
#X connect 31 0 24 0;
#X connect 31 1 23 0;
#X connect 31 1 6 0;
#X connect 31 2 22 0;
#X connect 31 3 32 0;
#X connect 32 0 3 0;
#X connect 33 0 34 0;
#X connect 34 0 7 0;
#X connect 34 1 32 0;
#X connect 35 0 37 0;
#X connect 37 0 31 0;
#X connect 37 0 50 0;
#X connect 38 0 39 0;
#X connect 39 0 40 0;
#X connect 43 0 45 0;
#X connect 44 0 45 1;
#X connect 45 0 46 0;
#X connect 47 0 17 0;
#X connect 48 0 27 0;
#X connect 48 0 36 0;
#X connect 48 0 50 0;
#X connect 49 0 76 0;
#X connect 50 0 76 0;
#X connect 51 0 0 1;
#X connect 52 0 60 1;
#X connect 53 0 60 2;
#X connect 54 0 60 3;
#X connect 55 0 60 4;
#X connect 56 0 60 5;
#X connect 57 0 60 6;
#X connect 58 0 60 7;
#X connect 59 0 60 8;
#X connect 60 0 78 0;
#X connect 60 0 81 0;
#X connect 61 0 60 9;
#X connect 62 0 64 0;
#X connect 62 1 65 0;
#X connect 62 2 66 0;
#X connect 62 3 67 0;
#X connect 62 4 68 0;
#X connect 62 5 69 0;
#X connect 62 6 70 0;
#X connect 62 7 28 0;
#X connect 62 7 71 0;
#X connect 62 8 72 0;
#X connect 63 0 28 1;
#X connect 75 0 74 0;
#X connect 75 1 73 0;
#X connect 76 0 3 0;
#X connect 77 0 2 0;
#X connect 78 0 77 0;
#X connect 79 0 0 0;
#X connect 79 1 80 0;
#X connect 79 1 85 0;
#X connect 80 0 78 1;
#X connect 81 0 82 0;
#X connect 82 0 3 0;
#X connect 83 0 0 0;
#X connect 83 1 84 0;
#X connect 83 1 86 0;
#X connect 84 0 81 1;
#X connect 85 0 81 1;
#X connect 86 0 78 1;
#X connect 87 0 83 0;
#X restore 934 98 pd patches;
#N canvas 104 357 1108 592 automation 0;
#X obj 161 37 inlet;
#X obj 571 215 outlet;
#X obj 74 260 s \$0-end_num-set;
#X obj 88 280 s \$0-end_div-set;
#X obj 102 300 s \$0-start_num-set;
#X obj 114 320 s \$0-start_div-set;
#X obj 229 251 s \$0-beat_num-set;
#X obj 238 271 s \$0-beat_div-set;
#X obj 247 291 s \$0-mode-set;
#X obj 256 311 s \$0-polycomplex-set;
#X obj 375 282 s \$0-loop-set;
#X obj 515 295 s \$0-tempo-set;
#X obj 488 315 s \$0-tempo;
#X obj 487 269 t f f;
#X obj 124 96 route enum ediv snum sdiv bnum bdiv mode complex loop
tempo randpat;
#X connect 0 0 14 0;
#X connect 13 0 12 0;
#X connect 13 1 11 0;
#X connect 14 0 2 0;
#X connect 14 1 3 0;
#X connect 14 2 4 0;
#X connect 14 3 5 0;
#X connect 14 4 6 0;
#X connect 14 5 7 0;
#X connect 14 6 8 0;
#X connect 14 7 9 0;
#X connect 14 8 10 0;
#X connect 14 9 13 0;
#X connect 14 10 1 0;
#X restore 797 123 pd automation;
#X obj 870 37 route patch file;
#X obj 895 185 s \$0-patch-set;
#X msg 934 120 file \$1;
#X obj 934 142 outlet;
#X obj 962 72 r \$0-patch-num;
#X obj 398 35 nbx 4 14 -1e+37 1e+37 0 0 empty empty empty 0 -8 0 12
-13381 -204786 -13381 5.12562 256;
#X connect 0 0 109 0;
#X connect 1 0 2 0;
#X connect 2 0 44 0;
#X connect 3 0 2 0;
#X connect 3 1 2 1;
#X connect 4 0 1 0;
#X connect 4 1 1 1;
#X connect 5 0 104 0;
#X connect 31 0 33 0;
#X connect 32 0 35 0;
#X connect 33 0 45 0;
#X connect 33 0 54 0;
#X connect 33 0 50 0;
#X connect 33 1 34 0;
#X connect 33 1 32 0;
#X connect 33 1 79 0;
#X connect 33 1 113 0;
#X connect 34 0 49 0;
#X connect 35 0 37 0;
#X connect 36 0 35 1;
#X connect 36 0 50 1;
#X connect 42 0 4 0;
#X connect 43 0 3 0;
#X connect 45 0 47 0;
#X connect 46 0 56 2;
#X connect 47 0 78 0;
#X connect 47 1 32 1;
#X connect 50 0 51 0;
#X connect 50 0 123 0;
#X connect 51 0 45 0;
#X connect 52 0 53 0;
#X connect 53 0 54 1;
#X connect 54 0 55 0;
#X connect 55 0 56 0;
#X connect 56 0 58 0;
#X connect 57 0 99 0;
#X connect 58 0 57 0;
#X connect 59 0 64 0;
#X connect 60 0 61 0;
#X connect 61 0 67 0;
#X connect 62 0 61 0;
#X connect 62 1 61 1;
#X connect 63 0 60 0;
#X connect 63 1 60 1;
#X connect 64 0 60 0;
#X connect 65 0 63 0;
#X connect 66 0 62 0;
#X connect 69 0 74 0;
#X connect 70 0 71 0;
#X connect 71 0 77 0;
#X connect 72 0 71 0;
#X connect 72 1 71 1;
#X connect 73 0 70 0;
#X connect 73 1 70 1;
#X connect 74 0 70 0;
#X connect 75 0 73 0;
#X connect 76 0 72 0;
#X connect 78 0 48 0;
#X connect 79 0 99 0;
#X connect 80 0 55 1;
#X connect 80 0 79 1;
#X connect 80 0 108 0;
#X connect 81 0 56 1;
#X connect 81 0 107 0;
#X connect 82 0 95 1;
#X connect 83 0 82 0;
#X connect 83 0 96 0;
#X connect 83 0 98 0;
#X connect 84 0 85 0;
#X connect 84 1 85 1;
#X connect 84 1 87 1;
#X connect 85 0 86 1;
#X connect 86 0 87 0;
#X connect 87 0 95 0;
#X connect 87 0 97 0;
#X connect 88 0 86 0;
#X connect 89 0 90 0;
#X connect 90 0 86 0;
#X connect 91 0 85 0;
#X connect 92 0 84 0;
#X connect 93 0 115 0;
#X connect 93 0 147 0;
#X connect 95 0 94 0;
#X connect 96 0 90 1;
#X connect 97 0 110 0;
#X connect 98 0 97 1;
#X connect 100 0 101 0;
#X connect 101 0 102 0;
#X connect 102 0 94 0;
#X connect 103 0 102 0;
#X connect 104 0 105 0;
#X connect 104 1 142 0;
#X connect 106 0 105 0;
#X connect 109 0 1 0;
#X connect 110 1 102 0;
#X connect 111 0 119 0;
#X connect 112 0 114 0;
#X connect 113 0 79 0;
#X connect 114 0 113 1;
#X connect 115 1 45 1;
#X connect 117 0 102 0;
#X connect 118 0 117 0;
#X connect 119 0 103 0;
#X connect 120 0 119 0;
#X connect 120 1 119 1;
#X connect 121 0 120 0;
#X connect 123 0 125 0;
#X connect 124 0 125 1;
#X connect 125 0 33 0;
#X connect 140 0 144 0;
#X connect 140 1 143 0;
#X connect 141 0 140 2;
#X connect 142 0 143 0;
#X connect 142 1 140 0;
#X connect 142 2 141 0;
#X connect 144 0 145 0;
#X connect 146 0 140 1;
#X coords 0 -1 1 1 276 139 1 180 30;
