#N canvas 0 0 553 604 10;
#X floatatom 68 63 5 0 0 0 - - -;
#X obj 67 86 mtof;
#X obj 68 133 pack f 20;
#X floatatom 67 110 5 0 0 0 - - -;
#X floatatom 119 113 5 0 0 0 - - -;
#X obj 68 154 line~;
#X obj 68 176 phasor~ 8;
#X obj 66 22 loadbang;
#X msg 67 42 60;
#X obj 88 403 *~ 1;
#X obj 60 487 ../util/miniscope~;
#X floatatom 31 388 5 0 0 0 - - -;
#X obj 24 345 envrms~;
#X obj 113 436 hip~;
#X obj 141 460 dac~;
#X obj 67 198 *~ 2;
#X obj 67 219 -~ 1;
#X obj 66 294 clip~ -0.5 0.5;
#X floatatom 160 200 5 0.01 99999 0 - - -;
#X obj 160 223 / 100;
#X floatatom 159 247 5 0 0 0 - - -;
#X obj 175 273 t b f;
#X msg 172 293 1;
#X obj 177 316 /;
#X obj 84 321 *~;
#X obj 106 248 * -1;
#X floatatom 176 343 5 0 0 0 - - -;
#X obj 162 162 line;
#X msg 257 137 100 500;
#X msg 164 137 100 \, 1 500;
#X floatatom 141 379 5 0 0 0 - - -;
#X text 237 79 not ready yet!!!;
#X connect 0 0 1 0;
#X connect 1 0 3 0;
#X connect 2 0 5 0;
#X connect 3 0 2 0;
#X connect 4 0 2 1;
#X connect 5 0 6 0;
#X connect 6 0 15 0;
#X connect 7 0 8 0;
#X connect 8 0 0 0;
#X connect 9 0 10 0;
#X connect 9 0 13 0;
#X connect 12 0 11 0;
#X connect 13 0 14 0;
#X connect 13 0 14 1;
#X connect 15 0 16 0;
#X connect 16 0 17 0;
#X connect 17 0 24 0;
#X connect 18 0 19 0;
#X connect 19 0 20 0;
#X connect 20 0 21 0;
#X connect 20 0 25 0;
#X connect 20 0 17 2;
#X connect 21 0 22 0;
#X connect 21 1 23 1;
#X connect 22 0 23 0;
#X connect 23 0 24 1;
#X connect 23 0 26 0;
#X connect 24 0 9 0;
#X connect 25 0 17 1;
#X connect 27 0 18 0;
#X connect 28 0 27 0;
#X connect 29 0 27 0;
#X connect 30 0 9 1;
