#N canvas 5 48 452 348 10;
#X obj 116 130 loadbang;
#X obj 18 30 inlet~;
#X obj 23 263 outlet~;
#X obj 84 37 inlet;
#X msg 114 155 1;
#X obj 24 207 saturate~ 1;
#X obj 24 233 hip~ 18;
#X obj 81 84 route thresh;
#X connect 0 0 4 0;
#X connect 1 0 5 0;
#X connect 3 0 7 0;
#X connect 4 0 5 1;
#X connect 5 0 6 0;
#X connect 6 0 2 0;
#X connect 7 0 5 1;
#X coords 0 0 1 1 161 45 0;
