#N canvas 0 0 688 589 10;
#X obj 101 117 cnv 15 172 64 empty empty empty 17 8 0 8 -171559 -42246
0;
#X obj 349 103 r \$0-lin;
#X obj 348 144 sel 0 1;
#X msg 348 171 log;
#X msg 379 169 lin;
#X obj 347 198 s \$0-ssb_freq-set;
#X obj 348 123 t b f;
#X obj 207 273 r \$0-ssb_note-num;
#X obj 344 271 r \$0-ssb_freq-num;
#X obj 207 289 mtof;
#X msg 207 305 set \$1;
#X obj 166 330 s \$0-ssb_freq-set;
#X obj 188 357 s \$0-ssb_freq;
#X obj 344 287 ftom;
#X msg 344 303 set \$1;
#X obj 326 335 s \$0-ssb_note-set;
#X obj 348 362 s \$0-ssb_note;
#X floatatom 285 378 0 0 0 0 - - -;
#X obj 287 414 phasor~ 0;
#X obj 287 458 cos~;
#X obj 323 436 +~ -0.25;
#X obj 323 459 cos~;
#X obj 140 503 *~;
#X obj 205 503 *~;
#X obj 139 527 -~;
#N canvas 0 0 600 388 hilbert 0;
#X obj 166 190 biquad~ 0.83774 -0.06338 0.06338 -0.83774 1;
#X obj 166 164 biquad~ 1.94632 -0.94657 0.94657 -1.94632 1;
#X obj 99 111 biquad~ -0.02569 0.260502 -0.260502 0.02569 1;
#X obj 99 137 biquad~ 1.8685 -0.870686 0.870686 -1.8685 1;
#X obj 98 76 inlet~;
#X obj 166 213 outlet~;
#X obj 99 213 outlet~;
#X text 95 261 This is a pair of all-pass filters whose outputs somehow
manage to be about 90 degrees out of phase from each other. I don't
know what phase relation they have with the original signal. I adapted
this from a 4X patch by Emmanuel Favreau \, circa 1982;
#X connect 0 0 5 0;
#X connect 1 0 0 0;
#X connect 2 0 3 0;
#X connect 3 0 6 0;
#X connect 4 0 1 0;
#X connect 4 0 2 0;
#X restore 140 465 pd hilbert;
#X obj 139 419 inlet~;
#X obj 140 568 outlet~;
#N canvas 492 257 789 643 patches 0;
#X obj 24 140 f;
#X obj 21 97 r \$0-store_patch;
#X obj 22 199 prepend add;
#X obj 19 232 t b a;
#X obj 91 319 msgfile;
#X obj 356 382 spigot;
#X msg 400 381 0;
#X msg 401 364 1;
#X msg 172 289 add patches 0;
#X obj 169 251 loadbang;
#X obj 76 436 route patches;
#X msg 106 238 goto 0;
#X obj 34 297 + 1;
#X obj 18 314 f;
#X msg 18 367 replace patches \$1;
#X msg 69 288 this;
#X obj 18 262 t b b b;
#X msg 573 327 range 1 \$1;
#X obj 346 217 t b f;
#X msg 361 241 goto \$1;
#X msg 326 240 this;
#X obj 453 251 r \$0-patches_load;
#X obj 453 268 openpanel;
#X msg 527 302 read \$1;
#X msg 483 302 goto 0;
#X msg 453 302 this;
#X obj 633 181 r \$0-patches_save;
#X obj 633 209 savepanel;
#X obj 632 238 makesymbol %s.txt;
#X msg 628 262 write \$1;
#X obj 80 406 route list;
#X obj 281 171 r \$0-patches_clear;
#X obj 279 197 t b b;
#X msg 359 278 clear;
#X obj 453 285 t b b a b;
#X obj 35 12 r \$0-ssb_freq-num;
#X obj 72 63 r \$0-lin;
#X obj 192 473 s \$0-ssb_freq-set;
#X obj 250 497 s \$0-lin-set;
#X obj 324 410 s \$0-ssb_patches-num;
#X obj 348 194 r \$0-ssb_patch-num;
#X obj 573 344 s \$0-ssb_patch-set;
#X obj 538 99 inlet;
#X obj 569 410 outlet;
#X obj 24 172 pack f f f;
#X obj 218 344 unpack f f f;
#X obj 153 81 r \$0-mix;
#X obj 288 364 s \$0-mix-set;
#X msg 425 481 440;
#X msg 458 482 1;
#X obj 432 440 loadbang;
#X connect 0 0 44 0;
#X connect 1 0 0 0;
#X connect 2 0 3 0;
#X connect 3 0 16 0;
#X connect 3 1 4 0;
#X connect 4 0 30 0;
#X connect 5 0 6 0;
#X connect 5 0 17 0;
#X connect 5 0 39 0;
#X connect 6 0 5 1;
#X connect 7 0 5 1;
#X connect 8 0 4 0;
#X connect 9 0 8 0;
#X connect 10 0 12 0;
#X connect 10 0 5 0;
#X connect 10 1 45 0;
#X connect 11 0 4 0;
#X connect 12 0 13 1;
#X connect 13 0 14 0;
#X connect 13 0 17 0;
#X connect 13 0 39 0;
#X connect 14 0 4 0;
#X connect 15 0 4 0;
#X connect 16 0 13 0;
#X connect 16 1 15 0;
#X connect 16 2 11 0;
#X connect 17 0 41 0;
#X connect 18 0 20 0;
#X connect 18 1 19 0;
#X connect 19 0 4 0;
#X connect 20 0 4 0;
#X connect 21 0 22 0;
#X connect 22 0 34 0;
#X connect 22 0 43 0;
#X connect 23 0 4 0;
#X connect 24 0 4 0;
#X connect 25 0 4 0;
#X connect 26 0 27 0;
#X connect 27 0 28 0;
#X connect 28 0 29 0;
#X connect 28 0 43 0;
#X connect 29 0 4 0;
#X connect 30 0 10 0;
#X connect 31 0 32 0;
#X connect 32 0 8 0;
#X connect 32 1 33 0;
#X connect 33 0 4 0;
#X connect 34 0 25 0;
#X connect 34 1 24 0;
#X connect 34 1 7 0;
#X connect 34 2 23 0;
#X connect 34 3 33 0;
#X connect 35 0 0 1;
#X connect 36 0 44 1;
#X connect 40 0 18 0;
#X connect 42 0 34 0;
#X connect 44 0 2 0;
#X connect 45 0 37 0;
#X connect 45 1 38 0;
#X connect 45 2 47 0;
#X connect 46 0 44 2;
#X connect 48 0 37 0;
#X connect 49 0 47 0;
#X connect 50 0 48 0;
#X connect 50 0 49 0;
#X restore 493 391 pd patches;
#X obj 412 158 inlet;
#X obj 504 130 inlet;
#X obj 425 222 s \$0-ssb_patch-set;
#X obj 496 256 r \$0-patch_on;
#X obj 498 281 switch~;
#X obj 480 165 route patch file;
#X obj 568 479 outlet;
#X obj 547 343 s \$0-patch_on-set;
#X obj 575 302 inlet;
#X obj 258 495 r \$0-mix;
#X obj 257 517 t b f;
#X msg 245 536 1;
#X obj 244 557 -;
#X obj 139 548 *~;
#X obj 179 545 *~;
#X obj 299 5 inlet;
#X obj 228 58 s \$0-ssb_note-set;
#X obj 354 62 s \$0-ssb_freq-set;
#X obj 490 61 s \$0-mix-set;
#X obj 258 30 route note freq mix;
#X obj 141 103 cnv 15 132 64 empty empty empty 17 8 0 8 -171559 -42246
0;
#X obj 109 119 hsl 128 12 2.205 22050 1 0 \$0-ssb_freq \$0-ssb_freq-set
frequency 43 6 0 8 -228992 -62784 -355 0 0;
#X obj 106 131 nbx 7 12 -1e+07 1e+07 0 0 \$0-ssb_freq-num \$0-ssb_freq
empty 0 -8 0 10 -228992 -62784 -355 0 256;
#X obj 242 117 tgl 12 0 \$0-lin \$0-lin_set lin -2 -6 0 7 -228992 -62784
-355 0 1;
#X obj 108 145 hsl 128 12 0 127 0 0 \$0-ssb_note \$0-ssb_note-set pitch
51 6 0 8 -257472 -250685 -90133 0 0;
#X obj 185 133 nbx 5 12 -1500 256 0 0 \$0-ssb_note-num \$0-ssb_note
empty 0 -8 0 10 -257472 -250685 -90133 0 256;
#X obj 107 168 nbx 3 10 0 120 0 0 \$0-msdrg \$0-masdrgg empty -8 -6
0 7 -257472 -1109 -90133 0 256;
#X obj 144 168 nbx 3 10 1 1 0 0 \$0-ssb_patch-num \$0-ssb_patch-set
select -2 -6 0 7 -257472 -258699 -90133 1 256;
#X obj 181 167 bng 10 250 50 0 \$0-store_patch \$0-store_patch-bng
store -7 -5 0 7 -257472 -62784 -90133;
#X obj 202 160 bng 10 250 50 0 \$0-patches_load \$0-patches_load-bng
load -5 15 0 7 -257472 -42246 -90133;
#X obj 224 160 bng 10 250 50 0 \$0-patches_save \$0-patches_save-bng
save -5 15 0 7 -257472 -90133 -90133;
#X obj 107 168 nbx 3 10 0 120 0 0 \$0-ssb_patches-dummy \$0-ssb_patches-num
patches -3 -6 0 7 -257472 -1109 -90133 0 256;
#X obj 241 140 tgl 15 0 \$0-patch_on \$0-patch_on-set on 2 -6 0 8 -233017
-258699 -143491 0 1;
#X obj 259 116 vsl 12 61 0 1 0 0 \$0-mix \$0-mix-set mix -1 -6 0 8
-262131 -150475 -62784 0 0;
#X connect 1 0 6 0;
#X connect 2 0 3 0;
#X connect 2 1 4 0;
#X connect 3 0 5 0;
#X connect 4 0 5 0;
#X connect 6 0 5 0;
#X connect 6 1 2 0;
#X connect 7 0 9 0;
#X connect 8 0 13 0;
#X connect 9 0 10 0;
#X connect 9 0 17 0;
#X connect 10 0 11 0;
#X connect 10 0 12 0;
#X connect 13 0 14 0;
#X connect 13 0 17 0;
#X connect 14 0 15 0;
#X connect 14 0 16 0;
#X connect 17 0 18 0;
#X connect 18 0 20 0;
#X connect 18 0 19 0;
#X connect 19 0 22 1;
#X connect 20 0 21 0;
#X connect 21 0 23 1;
#X connect 22 0 24 0;
#X connect 23 0 24 1;
#X connect 24 0 42 0;
#X connect 25 0 22 0;
#X connect 25 1 23 0;
#X connect 26 0 25 0;
#X connect 26 0 43 0;
#X connect 28 0 35 0;
#X connect 29 0 5 0;
#X connect 30 0 34 0;
#X connect 32 0 33 0;
#X connect 34 0 31 0;
#X connect 34 1 28 0;
#X connect 37 0 36 0;
#X connect 38 0 42 1;
#X connect 38 0 39 0;
#X connect 39 0 40 0;
#X connect 39 1 41 1;
#X connect 40 0 41 0;
#X connect 41 0 43 1;
#X connect 42 0 27 0;
#X connect 43 0 27 0;
#X connect 44 0 48 0;
#X connect 48 0 45 0;
#X connect 48 1 46 0;
#X connect 48 2 47 0;
#X coords 0 -1 1 1 174 84 1 100 100;
