#N canvas 203 12 1077 657 10;
#X obj 262 62 inlet~;
#X obj 296 601 outlet~;
#N canvas 52 315 1240 408 init 0;
#X obj 77 151 s \$0-delay_coarse-set;
#X obj 93 134 s \$0-delay_fine-set;
#X msg 99 90 0;
#X msg 77 90 100;
#X obj 84 28 loadbang;
#X obj 34 230 r \$0-delay_coarse;
#X obj 143 230 r \$0-delay_fine;
#X obj 66 247 t b f;
#X obj 74 270 +;
#X obj 74 364 s \$0-delay_real;
#X obj 281 249 r \$0-feedback;
#X obj 299 298 s \$0-feedback_pol;
#X obj 369 202 r \$0-fb_pol;
#X obj 369 253 t b f;
#X obj 369 219 sel 0 1;
#X msg 369 236 -1;
#X msg 391 236 1;
#X obj 342 277 * 1;
#X obj 121 113 s \$0-fb_pol-set;
#X msg 121 90 1;
#X obj 495 212 r \$0-hpf;
#X obj 495 234 t b f;
#X obj 554 212 r \$0-lpf;
#X obj 522 258 >;
#X obj 495 279 spigot;
#X obj 527 303 f;
#X obj 527 323 s \$0-lpf-set;
#X obj 574 234 t b f;
#X obj 574 279 spigot;
#X obj 606 303 f;
#X obj 601 258 <;
#X obj 606 323 s \$0-hpf-set;
#X obj 217 153 s \$0-lpf-set;
#X msg 217 89 20000;
#X obj 38 182 s \$0-limit_thresh-set;
#X obj 10 113 s \$0-porta-set;
#X obj 869 12 r \$0-delay_pitch-num;
#X obj 869 157 t f f;
#X obj 869 100 mtof;
#X obj 869 120 expr 1000/$f1;
#X obj 896 197 i;
#X obj 869 244 -;
#X obj 896 218 * 10;
#X obj 896 177 * 0.1;
#X obj 904 255 s \$0-delay_coarse-set;
#X obj 869 275 s \$0-delay_fine-set;
#X obj 1050 11 r \$0-delay_real;
#X obj 1050 178 ftom;
#X msg 1050 202 set \$1;
#X obj 1052 239 t a a;
#X obj 1077 273 s \$0-delay_pitch-set;
#X obj 1049 304 s \$0-delay_pitch;
#X obj 1050 34 spigot;
#X obj 1050 151 expr 1000/$f1;
#X obj 1048 74 moses 1e-07;
#X msg 986 121 -1500;
#X msg 376 50 1;
#X obj 257 121 s \$0-stereo-set;
#X connect 2 0 1 0;
#X connect 3 0 0 0;
#X connect 3 0 35 0;
#X connect 4 0 2 0;
#X connect 4 0 3 0;
#X connect 4 0 19 0;
#X connect 4 0 33 0;
#X connect 4 0 56 0;
#X connect 5 0 7 0;
#X connect 6 0 8 0;
#X connect 7 0 8 0;
#X connect 7 1 8 1;
#X connect 8 0 9 0;
#X connect 10 0 17 0;
#X connect 12 0 14 0;
#X connect 13 0 17 0;
#X connect 13 1 17 1;
#X connect 14 0 15 0;
#X connect 14 1 16 0;
#X connect 15 0 13 0;
#X connect 16 0 13 0;
#X connect 17 0 11 0;
#X connect 19 0 18 0;
#X connect 20 0 21 0;
#X connect 20 0 30 1;
#X connect 21 0 24 0;
#X connect 21 1 23 0;
#X connect 21 1 25 1;
#X connect 22 0 23 1;
#X connect 22 0 27 0;
#X connect 23 0 24 1;
#X connect 24 0 25 0;
#X connect 25 0 26 0;
#X connect 27 0 28 0;
#X connect 27 1 29 1;
#X connect 27 1 30 0;
#X connect 28 0 29 0;
#X connect 29 0 31 0;
#X connect 30 0 28 1;
#X connect 33 0 32 0;
#X connect 36 0 38 0;
#X connect 37 0 41 0;
#X connect 37 1 43 0;
#X connect 38 0 39 0;
#X connect 39 0 37 0;
#X connect 40 0 42 0;
#X connect 41 0 45 0;
#X connect 42 0 41 1;
#X connect 42 0 44 0;
#X connect 43 0 40 0;
#X connect 46 0 52 0;
#X connect 47 0 48 0;
#X connect 48 0 49 0;
#X connect 49 0 51 0;
#X connect 49 1 50 0;
#X connect 52 0 54 0;
#X connect 53 0 47 0;
#X connect 54 0 55 0;
#X connect 54 1 53 0;
#X connect 55 0 48 0;
#X connect 56 0 57 0;
#X restore 458 67 pd init;
#X obj 330 83 r \$0-feedback-num;
#X obj 328 -13 r \$0-delay-num;
#X obj 346 101 r \$0-porta-num;
#X obj 72 5 r \$0-patch_on;
#X obj 330 164 / 100;
#X msg 872 15 100;
#X obj 872 36 -;
#X obj 872 -6 t b f;
#X obj 872 -26 r \$0-mix_pc;
#X floatatom 872 57 5 0 0 0 - - -;
#X obj 872 77 clip 0 100;
#X obj 872 98 t b f;
#X msg 872 119 100;
#X obj 872 140 -;
#X obj 263 185 *~ 0;
#X obj 295 189 *~ 1;
#X floatatom 872 161 5 0 0 0 - - -;
#X obj 783 37 / 100;
#X obj 822 36 / 100;
#X obj 962 -4 loadbang;
#X obj 31 249 cnv 15 141 25 empty empty empty 20 12 0 14 -183672 -66577
0;
#X obj 33 260 nbx 3 12 0 120 0 0 empty empty empty -2 -6 0 7 -257472
-1109 -90133 0 256;
#X obj 75 260 nbx 3 12 1 3 0 0 \$0-patch-num \$0-patch-set select 0
-5 0 7 -17235 -261234 -17235 1 256;
#X obj 120 260 bng 12 250 50 0 \$0-store_patch \$0-store_patch-bng
store -3 -5 0 7 -17235 -262130 -17235;
#X obj 141 255 bng 10 250 50 0 \$0-patches_load \$0-patches_load-bng
load -5 16 0 7 -2498 -262144 -13381;
#X obj 154 255 bng 10 250 50 0 \$0-patches_save \$0-patches_save-bng
save 0 16 0 7 -159809 -262144 -86277;
#X obj 33 260 nbx 3 12 0 120 0 0 \$0-patches-dummy \$0-patches-num
patches 0 -5 0 7 -17235 -203904 -17235 0 256;
#X obj 106 264 bng 8 250 50 0 \$0-store_plus \$0-store_plus-bng + 2
-4 0 7 -17235 -198336 -17235;
#X obj 64 264 bng 8 250 50 0 \$0-store_minus \$0-store_minus-bng -
1 -5 0 10 -17235 -257985 -17235;
#X obj 1401 282 r \$0-patch-num;
#X msg 960 17 100;
#X obj 372 119 r \$0-lpf-num;
#X obj 529 21 r \$0-lfo_freq-num;
#X obj 393 138 r \$0-lfo_depth-num;
#X obj 529 86 phasor~;
#X obj 529 106 +~;
#X obj 420 -13 r \$0-stereo;
#X obj 381 15 t b f;
#X obj 361 34 *;
#X obj 612 -20 r \$0-delay-num;
#X obj 710 -26 r \$0-stereo;
#X obj 665 8 t b f;
#X obj 645 27 *;
#X obj 710 -7 t b f;
#X msg 708 13 2;
#X obj 710 37 -;
#X obj 529 42 pack f 10;
#X obj 529 63 line~;
#X obj 529 126 wrap~;
#X obj 581 86 r \$0-phase;
#X obj 427 226 sin~;
#X obj 598 596 outlet~;
#X obj 660 83 r \$0-feedback-num;
#X obj 660 164 / 100;
#X obj 625 189 *~ 1;
#X obj 748 201 sin~;
#X obj 593 185 *~ 0;
#X obj 480 178 r \$0-mono_in;
#X obj 477 206 *~ 0;
#X obj 605 121 inlet~;
#X obj 592 62 r \$0-setphase;
#X obj 394 164 * 0.01;
#X obj 303 434 +~;
#X obj 352 319 pack f 10;
#X obj 458 288 moses 0;
#X obj 352 357 +~;
#X msg 512 291 20000;
#X obj 512 274 loadbang;
#X msg 418 300 bang;
#X obj 352 338 line~;
#X obj 352 376 clip~ 0.01 2000;
#X obj 537 366 moses 1;
#X obj 486 347 moses -1;
#X obj 367 436 *~;
#X obj 537 389 pack f 10;
#X obj 537 412 line~;
#X obj 367 417 lp3_crit~;
#X obj 612 409 *~ 0;
#X obj 352 300 moses 1000;
#X obj 418 320 1000;
#X obj 612 389 *~ 0;
#X obj 72 25 switch~ 4 1 1;
#X obj 303 456 delwrite~ \$0-delfbf_L 2000;
#X obj 352 395 vd~ \$0-delfbf_L;
#X obj 647 505 +~;
#X obj 696 390 pack f 10;
#X obj 802 359 moses 0;
#X obj 696 428 +~;
#X msg 856 362 20000;
#X obj 856 345 loadbang;
#X msg 762 371 bang;
#X obj 696 409 line~;
#X obj 696 447 clip~ 0.01 2000;
#X obj 711 507 *~;
#X obj 881 460 pack f 10;
#X obj 881 483 line~;
#X obj 711 488 lp3_crit~;
#X obj 956 480 *~ 0;
#X obj 696 371 moses 1000;
#X obj 762 391 1000;
#X obj 956 460 *~ 0;
#X obj 647 527 delwrite~ \$0-delfbf_R 2000;
#X obj 696 466 vd~ \$0-delfbf_R;
#X obj 1061 -12 inlet;
#X obj 1308 391 s \$0-delay_fine-set;
#X obj 1052 400 s \$0-delay_coarse-set;
#X obj 1126 153 s \$0-feedback-set;
#X obj 1153 173 s \$0-fb_pol-set;
#X obj 1343 218 t f f;
#X obj 1380 248 s \$0-lpf-set;
#X obj 1341 268 s \$0-lpf;
#X obj 1126 111 t f f;
#X obj 1153 132 > 0;
#X obj 1126 132 abs;
#X obj 1156 195 t f f;
#X obj 1212 211 s \$0-porta-set;
#X obj 1156 231 s \$0-porta;
#X obj 1543 184 t f f;
#X obj 1571 217 s \$0-delay_pitch-set;
#X obj 1543 251 s \$0-delay_pitch;
#X obj 1513 107 s \$0-mix_pc-set;
#X obj 1105 236 t f f;
#X obj 1132 266 > 10;
#X obj 1132 289 == 0;
#X obj 1103 315 spigot;
#X obj 1173 315 spigot;
#X obj 1190 371 - 10;
#X obj 1187 339 t f b;
#X msg 1231 361 10;
#X msg 1095 342 0;
#X obj 1236 108 s \$0-stereo-set;
#X obj 1195 80 + 1;
#X obj 1266 88 s \$0-phase-set;
#X obj 1289 69 s \$0-setphase;
#X obj 1379 128 s \$0-mono_in-set;
#X obj 1455 21 route all;
#X obj 1059 20 route delcoarse porta fb lpf delfine delpitch on stereo
phase setphase mix delay randpat mono freq depth;
#X obj 1659 125 t f f;
#X obj 1686 149 s \$0-lfo_freq-set;
#X obj 1659 169 s \$0-lfo_freq;
#X obj 1709 123 s \$0-lfo_depth-set;
#X text 1456 2 delay fb stereo phase pitch lpf mix freq depth porta
mono;
#X obj 1449 48 unpack f f f f f f f f f f f;
#X obj 1465 347 route patch file;
#X obj 1465 371 s \$0-patch-set;
#X obj 1602 318 s \$0-patch_on-set;
#X msg 1602 297 1;
#X obj 1602 275 loadbang;
#X obj 1086 539 f;
#X obj 1083 496 r \$0-store_patch;
#X obj 1084 598 prepend add;
#X obj 1081 631 t b a;
#X obj 1151 720 msgfile;
#X obj 1418 781 spigot;
#X msg 1462 780 0;
#X msg 1463 763 1;
#X msg 1234 688 add patches 0;
#X obj 1231 650 loadbang;
#X obj 1142 962 route patches;
#X msg 1168 637 goto 0;
#X obj 1096 696 + 1;
#X obj 1080 713 f;
#X msg 1080 766 replace patches \$1;
#X msg 1131 687 this;
#X obj 1080 661 t b b b;
#X msg 1635 726 range 1 \$1;
#X obj 1360 320 t b f;
#X msg 1423 640 goto \$1;
#X msg 1388 639 this;
#X obj 1515 650 r \$0-patches_load;
#X obj 1515 667 openpanel;
#X msg 1589 701 read \$1;
#X msg 1545 701 goto 0;
#X msg 1515 701 this;
#X obj 1695 580 r \$0-patches_save;
#X obj 1695 608 savepanel;
#X msg 1692 681 write \$1;
#X msg 1288 621 print;
#X obj 1143 920 route list;
#X obj 1515 684 t b b a b;
#X msg 1531 761 clear;
#X obj 1343 570 r \$0-patches_clear;
#X obj 1341 596 t b b;
#X obj 1591 577 symbol;
#X obj 1997 818 random;
#X obj 1418 798 s \$0-patches-num;
#X obj 1635 743 s \$0-patch-set;
#X obj 1098 432 r \$0-delay_fine;
#X obj 1112 451 r \$0-delay_coarse;
#X obj 1196 432 r \$0-porta-num;
#X obj 1220 451 r \$0-feedback;
#X obj 1231 470 r \$0-fb_pol;
#X obj 1449 529 r \$0-delay_pitch-num;
#X obj 1086 576 pack f f f f f f f f f f f f f;
#X obj 1367 505 r \$0-mix_pc;
#X obj 1963 628 r \$0-store_plus;
#X obj 1847 628 r \$0-store_minus;
#X obj 1963 652 f;
#X obj 1847 662 f;
#X obj 1847 682 +;
#X obj 1892 679 %;
#X obj 1892 699 + 1;
#X obj 1825 597 - 1;
#X obj 1847 703 - 1;
#X obj 1963 673 + 1;
#X obj 1892 719 s \$0-patch-set;
#X obj 1694 637 makesymbol %s.dlf;
#X obj 1240 489 r \$0-lfo_freq-num;
#X obj 1262 527 r \$0-lpf-num;
#X obj 1253 508 r \$0-lfo_depth-num;
#X obj 1358 485 r \$0-stereo;
#X obj 1383 526 r \$0-phase;
#X obj 1555 1005 s \$0-stereo;
#X obj 1474 502 r \$0-mono_in;
#X obj 1305 730 unpack f f f f f f f f f f f f f;
#X msg 1996 843 patch \$1;
#X obj 1719 804 prepend file;
#X obj 1093 850 s \$0-delay_fine;
#X obj 1141 871 s \$0-delay_coarse;
#X obj 1216 847 s \$0-porta-num;
#X obj 1282 868 s \$0-feedback;
#X obj 1290 892 s \$0-fb_pol;
#X obj 1391 1021 s \$0-lfo_freq-num;
#X obj 1407 949 s \$0-lfo_depth-num;
#X obj 1427 879 s \$0-lpf-num;
#X obj 1573 956 s \$0-mix_pc;
#X obj 1590 935 s \$0-phase;
#X obj 1794 943 s \$0-delay_pitch-num;
#X obj 1766 837 s \$0-mono_in;
#X obj 957 50 s \$0-mix_pc;
#X connect 0 0 17 0;
#X connect 0 0 18 0;
#X connect 0 0 61 0;
#X connect 3 0 7 0;
#X connect 4 0 41 0;
#X connect 5 0 49 1;
#X connect 5 0 67 0;
#X connect 5 0 89 0;
#X connect 6 0 84 0;
#X connect 7 0 75 0;
#X connect 8 0 9 0;
#X connect 9 0 12 0;
#X connect 10 0 8 0;
#X connect 10 1 9 1;
#X connect 11 0 10 0;
#X connect 12 0 13 0;
#X connect 12 0 20 0;
#X connect 13 0 14 0;
#X connect 14 0 15 0;
#X connect 14 1 16 1;
#X connect 15 0 16 0;
#X connect 16 0 19 0;
#X connect 17 0 1 0;
#X connect 18 0 65 0;
#X connect 19 0 21 0;
#X connect 20 0 17 1;
#X connect 20 0 59 1;
#X connect 21 0 18 1;
#X connect 21 0 57 1;
#X connect 22 0 33 0;
#X connect 32 0 169 0;
#X connect 33 0 232 0;
#X connect 34 0 79 1;
#X connect 34 0 99 1;
#X connect 35 0 49 0;
#X connect 36 0 64 0;
#X connect 37 0 38 0;
#X connect 37 0 53 0;
#X connect 38 0 51 0;
#X connect 39 0 40 0;
#X connect 40 0 41 0;
#X connect 40 1 41 1;
#X connect 41 0 81 0;
#X connect 42 0 45 0;
#X connect 43 0 46 0;
#X connect 44 0 45 0;
#X connect 44 1 45 1;
#X connect 45 0 101 0;
#X connect 46 0 47 0;
#X connect 46 1 48 1;
#X connect 47 0 48 0;
#X connect 48 0 44 0;
#X connect 49 0 50 0;
#X connect 50 0 37 0;
#X connect 51 0 58 0;
#X connect 52 0 38 1;
#X connect 53 0 83 0;
#X connect 55 0 56 0;
#X connect 57 0 87 0;
#X connect 58 0 103 0;
#X connect 59 0 54 0;
#X connect 60 0 61 1;
#X connect 61 0 57 0;
#X connect 61 0 59 0;
#X connect 62 0 59 0;
#X connect 62 0 57 0;
#X connect 63 0 37 1;
#X connect 64 0 80 1;
#X connect 64 0 100 1;
#X connect 65 0 85 0;
#X connect 66 0 72 0;
#X connect 67 1 66 1;
#X connect 68 0 73 0;
#X connect 69 0 79 1;
#X connect 70 0 69 0;
#X connect 71 0 82 0;
#X connect 72 0 68 0;
#X connect 73 0 86 0;
#X connect 74 0 77 0;
#X connect 74 0 97 0;
#X connect 75 1 74 0;
#X connect 76 0 65 1;
#X connect 77 0 78 0;
#X connect 78 0 76 1;
#X connect 79 0 76 0;
#X connect 80 0 68 1;
#X connect 81 0 66 0;
#X connect 81 0 83 1;
#X connect 81 1 71 0;
#X connect 82 0 66 0;
#X connect 82 0 83 1;
#X connect 83 0 80 0;
#X connect 86 0 79 0;
#X connect 86 0 1 0;
#X connect 87 0 104 0;
#X connect 88 0 94 0;
#X connect 89 1 88 1;
#X connect 90 0 95 0;
#X connect 91 0 99 1;
#X connect 92 0 91 0;
#X connect 93 0 102 0;
#X connect 94 0 90 0;
#X connect 95 0 105 0;
#X connect 96 0 87 1;
#X connect 97 0 98 0;
#X connect 98 0 96 1;
#X connect 99 0 96 0;
#X connect 100 0 90 1;
#X connect 101 0 88 0;
#X connect 101 0 103 1;
#X connect 101 1 93 0;
#X connect 102 0 88 0;
#X connect 102 0 103 1;
#X connect 103 0 100 0;
#X connect 105 0 99 0;
#X connect 105 0 54 0;
#X connect 106 0 139 0;
#X connect 111 0 113 0;
#X connect 111 1 112 0;
#X connect 114 0 116 0;
#X connect 114 1 115 0;
#X connect 115 0 110 0;
#X connect 116 0 109 0;
#X connect 117 0 119 0;
#X connect 117 1 118 0;
#X connect 120 0 122 0;
#X connect 120 1 121 0;
#X connect 124 0 127 0;
#X connect 124 0 128 0;
#X connect 124 1 125 0;
#X connect 125 0 126 0;
#X connect 125 0 128 1;
#X connect 126 0 127 1;
#X connect 127 0 107 0;
#X connect 127 0 132 0;
#X connect 128 0 130 0;
#X connect 129 0 108 0;
#X connect 130 0 129 0;
#X connect 130 1 131 0;
#X connect 131 0 107 0;
#X connect 132 0 108 0;
#X connect 134 0 133 0;
#X connect 138 0 145 0;
#X connect 139 0 108 0;
#X connect 139 1 117 0;
#X connect 139 2 114 0;
#X connect 139 3 111 0;
#X connect 139 4 107 0;
#X connect 139 5 120 0;
#X connect 139 6 148 0;
#X connect 139 7 134 0;
#X connect 139 8 135 0;
#X connect 139 9 136 0;
#X connect 139 10 123 0;
#X connect 139 11 124 0;
#X connect 139 12 187 0;
#X connect 139 13 137 0;
#X connect 139 14 140 0;
#X connect 139 15 143 0;
#X connect 139 16 138 0;
#X connect 139 16 146 0;
#X connect 140 0 142 0;
#X connect 140 1 141 0;
#X connect 145 0 124 0;
#X connect 145 1 114 0;
#X connect 145 2 133 0;
#X connect 145 3 135 0;
#X connect 145 4 120 0;
#X connect 145 5 111 0;
#X connect 145 6 123 0;
#X connect 145 7 140 0;
#X connect 145 8 143 0;
#X connect 145 9 117 0;
#X connect 145 10 137 0;
#X connect 146 0 147 0;
#X connect 146 1 186 0;
#X connect 149 0 148 0;
#X connect 150 0 149 0;
#X connect 151 0 196 0;
#X connect 152 0 151 0;
#X connect 153 0 154 0;
#X connect 154 0 167 0;
#X connect 154 1 155 0;
#X connect 155 0 181 0;
#X connect 156 0 157 0;
#X connect 156 0 168 0;
#X connect 156 0 188 0;
#X connect 157 0 156 1;
#X connect 158 0 156 1;
#X connect 159 0 155 0;
#X connect 160 0 159 0;
#X connect 161 0 163 0;
#X connect 161 0 156 0;
#X connect 161 0 187 1;
#X connect 161 0 203 1;
#X connect 161 0 202 1;
#X connect 161 1 217 0;
#X connect 162 0 155 0;
#X connect 163 0 164 1;
#X connect 164 0 165 0;
#X connect 164 0 168 0;
#X connect 164 0 187 1;
#X connect 164 0 188 0;
#X connect 164 0 202 1;
#X connect 164 0 203 1;
#X connect 165 0 155 0;
#X connect 166 0 155 0;
#X connect 167 0 164 0;
#X connect 167 1 166 0;
#X connect 167 2 162 0;
#X connect 168 0 189 0;
#X connect 169 0 171 0;
#X connect 169 1 170 0;
#X connect 169 1 205 0;
#X connect 170 0 155 0;
#X connect 171 0 155 0;
#X connect 172 0 173 0;
#X connect 173 0 182 0;
#X connect 173 0 219 0;
#X connect 174 0 155 0;
#X connect 175 0 155 0;
#X connect 176 0 155 0;
#X connect 177 0 178 0;
#X connect 178 0 209 0;
#X connect 179 0 155 0;
#X connect 180 0 155 0;
#X connect 181 0 161 0;
#X connect 182 0 176 0;
#X connect 182 1 175 0;
#X connect 182 1 158 0;
#X connect 182 2 174 0;
#X connect 182 3 183 0;
#X connect 183 0 155 0;
#X connect 184 0 185 0;
#X connect 185 0 159 0;
#X connect 185 1 183 0;
#X connect 186 0 182 0;
#X connect 187 0 218 0;
#X connect 190 0 151 1;
#X connect 191 0 196 1;
#X connect 192 0 196 2;
#X connect 193 0 196 3;
#X connect 194 0 196 4;
#X connect 195 0 196 11;
#X connect 196 0 153 0;
#X connect 197 0 196 9;
#X connect 198 0 200 0;
#X connect 199 0 201 0;
#X connect 200 0 207 0;
#X connect 201 0 202 0;
#X connect 202 0 206 0;
#X connect 203 0 204 0;
#X connect 204 0 208 0;
#X connect 205 0 201 1;
#X connect 205 0 200 1;
#X connect 206 0 203 0;
#X connect 207 0 203 0;
#X connect 209 0 179 0;
#X connect 209 0 219 0;
#X connect 210 0 196 5;
#X connect 211 0 196 7;
#X connect 212 0 196 6;
#X connect 213 0 196 8;
#X connect 214 0 196 10;
#X connect 216 0 196 12;
#X connect 217 0 220 0;
#X connect 217 1 221 0;
#X connect 217 2 222 0;
#X connect 217 3 223 0;
#X connect 217 4 224 0;
#X connect 217 5 225 0;
#X connect 217 6 226 0;
#X connect 217 7 227 0;
#X connect 217 8 215 0;
#X connect 217 9 228 0;
#X connect 217 10 229 0;
#X connect 217 11 230 0;
#X connect 217 12 231 0;
#X connect 218 0 146 0;
#X coords 0 0 1 1 212 178 0;
