#N canvas 4 55 600 650 10;
#X floatatom 104 122 0 0 500 1 squelch - -;
#X msg 276 61 30;
#X obj 278 41 loadbang;
#X obj 376 69 inlet;
#X obj 94 541 *~;
#X obj 55 541 *~;
#X obj 413 386 *~;
#X obj 372 386 *~;
#X obj 372 409 +~;
#X obj 54 213 *~;
#X obj 54 188 inlet~;
#X obj 54 236 rfft~;
#X obj 54 590 *~;
#X obj 141 275 *~;
#X obj 372 363 rfft~;
#X obj 54 565 rifft~;
#X obj 54 613 outlet~;
#X obj 107 275 *~;
#X obj 107 298 +~;
#X text 458 438 modulus;
#X obj 107 450 *~;
#X obj 107 428 clip~;
#X obj 147 399 expr 0.01*$f1*$f1;
#X obj 107 324 +~ 1e-20;
#X obj 108 510 *~ 0.00065;
#X obj 373 337 *~;
#X obj 215 190 inlet~;
#X obj 107 351 q8_rsqrt~;
#X obj 372 432 q8_sqrt~;
#X text 458 455 of control;
#X text 456 472 amplitude;
#X text 196 278 reciprocal;
#X text 199 297 modulus of;
#X text 195 317 filter input;
#X text 196 336 amplitude;
#X text 115 189 filter input;
#X text 270 190 control source;
#X text 434 362 Fourier transform;
#X text 145 452 multiply the two amplitude;
#X text 143 469 factors (for compression;
#X text 145 485 and to apply new timbre);
#X obj 399 186 block~ \$1 \$2;
#X obj 468 27 import windowing;
#X obj 87 214 hanning~;
#X obj 407 337 hanning~;
#X obj 87 590 hanning~;
#X obj 408 291 sig~ 1;
#X connect 0 0 22 0;
#X connect 1 0 0 0;
#X connect 2 0 1 0;
#X connect 3 0 0 0;
#X connect 4 0 15 1;
#X connect 5 0 15 0;
#X connect 6 0 8 1;
#X connect 7 0 8 0;
#X connect 8 0 28 0;
#X connect 9 0 11 0;
#X connect 10 0 9 0;
#X connect 11 0 17 0;
#X connect 11 0 17 1;
#X connect 11 0 5 0;
#X connect 11 1 13 0;
#X connect 11 1 13 1;
#X connect 11 1 4 0;
#X connect 12 0 16 0;
#X connect 13 0 18 1;
#X connect 14 0 7 0;
#X connect 14 0 7 1;
#X connect 14 1 6 0;
#X connect 14 1 6 1;
#X connect 15 0 12 0;
#X connect 17 0 18 0;
#X connect 18 0 23 0;
#X connect 20 0 24 0;
#X connect 21 0 20 0;
#X connect 22 0 21 2;
#X connect 23 0 27 0;
#X connect 24 0 4 1;
#X connect 24 0 5 1;
#X connect 25 0 14 0;
#X connect 26 0 25 0;
#X connect 27 0 21 0;
#X connect 28 0 20 1;
#X connect 43 0 9 1;
#X connect 44 0 25 1;
#X connect 45 0 12 1;
#X connect 46 0 44 0;
#X connect 46 0 43 0;
#X connect 46 0 45 0;
#X coords 0 -1 1 1 78 42 1 100 100;
