#N canvas 184 89 1077 644 10;
#X declare -lib iemlib -lib zexy;
#X obj 262 62 inlet~;
#X obj 296 601 outlet~;
#N canvas 52 315 1240 408 init 0;
#X obj 77 151 s \$0-delay_coarse-set;
#X obj 93 134 s \$0-delay_fine-set;
#X msg 99 90 0;
#X msg 77 90 100;
#X obj 84 28 loadbang;
#X obj 34 230 r \$0-delay_coarse;
#X obj 143 230 r \$0-delay_fine;
#X obj 66 247 t b f;
#X obj 74 270 +;
#X obj 74 364 s \$0-delay_real;
#X obj 281 249 r \$0-feedback;
#X obj 299 298 s \$0-feedback_pol;
#X obj 369 202 r \$0-fb_pol;
#X obj 369 253 t b f;
#X obj 369 219 sel 0 1;
#X msg 369 236 -1;
#X msg 391 236 1;
#X obj 342 277 * 1;
#X obj 121 113 s \$0-fb_pol-set;
#X msg 121 90 1;
#X obj 495 212 r \$0-hpf;
#X obj 495 234 t b f;
#X obj 554 212 r \$0-lpf;
#X obj 522 258 >;
#X obj 495 279 spigot;
#X obj 527 303 f;
#X obj 527 323 s \$0-lpf-set;
#X obj 574 234 t b f;
#X obj 574 279 spigot;
#X obj 606 303 f;
#X obj 601 258 <;
#X obj 606 323 s \$0-hpf-set;
#X obj 217 153 s \$0-lpf-set;
#X msg 217 89 20000;
#X obj 38 182 s \$0-limit_thresh-set;
#X obj 10 113 s \$0-porta-set;
#X obj 869 12 r \$0-delay_pitch-num;
#X obj 869 157 t f f;
#X obj 869 100 mtof;
#X obj 869 120 expr 1000/$f1;
#X obj 896 197 i;
#X obj 869 244 -;
#X obj 896 218 * 10;
#X obj 896 177 * 0.1;
#X obj 904 255 s \$0-delay_coarse-set;
#X obj 869 275 s \$0-delay_fine-set;
#X obj 1050 11 r \$0-delay_real;
#X obj 1050 178 ftom;
#X msg 1050 202 set \$1;
#X obj 1052 239 t a a;
#X obj 1077 273 s \$0-delay_pitch-set;
#X obj 1049 304 s \$0-delay_pitch;
#X obj 1050 34 spigot;
#X obj 1050 151 expr 1000/$f1;
#X obj 1048 74 moses 1e-07;
#X msg 986 121 -1500;
#X msg 376 50 1;
#X obj 257 121 s \$0-stereo-set;
#X connect 2 0 1 0;
#X connect 3 0 0 0;
#X connect 3 0 35 0;
#X connect 4 0 2 0;
#X connect 4 0 3 0;
#X connect 4 0 19 0;
#X connect 4 0 33 0;
#X connect 4 0 56 0;
#X connect 5 0 7 0;
#X connect 6 0 8 0;
#X connect 7 0 8 0;
#X connect 7 1 8 1;
#X connect 8 0 9 0;
#X connect 10 0 17 0;
#X connect 12 0 14 0;
#X connect 13 0 17 0;
#X connect 13 1 17 1;
#X connect 14 0 15 0;
#X connect 14 1 16 0;
#X connect 15 0 13 0;
#X connect 16 0 13 0;
#X connect 17 0 11 0;
#X connect 19 0 18 0;
#X connect 20 0 21 0;
#X connect 20 0 30 1;
#X connect 21 0 24 0;
#X connect 21 1 23 0;
#X connect 21 1 25 1;
#X connect 22 0 23 1;
#X connect 22 0 27 0;
#X connect 23 0 24 1;
#X connect 24 0 25 0;
#X connect 25 0 26 0;
#X connect 27 0 28 0;
#X connect 27 1 29 1;
#X connect 27 1 30 0;
#X connect 28 0 29 0;
#X connect 29 0 31 0;
#X connect 30 0 28 1;
#X connect 33 0 32 0;
#X connect 36 0 38 0;
#X connect 37 0 41 0;
#X connect 37 1 43 0;
#X connect 38 0 39 0;
#X connect 39 0 37 0;
#X connect 40 0 42 0;
#X connect 41 0 45 0;
#X connect 42 0 41 1;
#X connect 42 0 44 0;
#X connect 43 0 40 0;
#X connect 46 0 52 0;
#X connect 47 0 48 0;
#X connect 48 0 49 0;
#X connect 49 0 51 0;
#X connect 49 1 50 0;
#X connect 52 0 54 0;
#X connect 53 0 47 0;
#X connect 54 0 55 0;
#X connect 54 1 53 0;
#X connect 55 0 48 0;
#X connect 56 0 57 0;
#X restore 458 67 pd init;
#X obj 330 83 r \$0-feedback-num;
#X obj 328 -13 r \$0-delay-num;
#X obj 346 101 r \$0-porta-num;
#X obj 72 5 r \$0-patch_on;
#X obj 330 164 / 100;
#X msg 872 15 100;
#X obj 872 36 -;
#X obj 872 -6 t b f;
#X obj 872 -26 r \$0-mix_pc;
#X floatatom 872 57 5 0 0 0 - - -;
#X obj 872 77 clip 0 100;
#X obj 872 98 t b f;
#X msg 872 119 100;
#X obj 872 140 -;
#X obj 263 185 *~ 0;
#X obj 295 189 *~ 1;
#X floatatom 872 161 5 0 0 0 - - -;
#X obj 783 37 / 100;
#X obj 822 36 / 100;
#X obj 957 50 s \$0-mix_pc-set;
#X obj 962 -4 loadbang;
#X obj 131 102 cnv 15 110 144 empty empty empty 6 8 1 10 -33558 -203904
0;
#X obj 31 114 cnv 15 210 160 empty empty empty 6 8 0 10 -33558 -203904
0;
#X obj 36 116 hsl 201 12 0 1000 0 0 \$0-delay_coarse \$0-delay_coarse-set
delay_coarse 25 6 1 10 -257985 -13381 -13381 2000 1;
#X obj 36 128 hsl 121 12 0 20 0 0 \$0-delay_fine \$0-delay_fine-set
delay_fine 25 6 1 10 -257985 -13381 -13381 0 1;
#X obj 164 128 nbx 8 12 0 1000 0 0 \$0-delay-num \$0-delay_real empty
0 -6 1 10 -257985 -13381 -13381 100 256;
#X obj 36 234 hsl 101 12 0 100 0 0 \$0-feedback \$0-feedback-set feedback
25 6 1 10 -4032 -13330 -13330 0 1;
#X obj 142 234 nbx 4 12 -100 100 0 0 \$0-feedback-num \$0-feedback_pol
empty 0 -6 1 10 -4032 -13330 -13330 -0 256;
#X obj 189 234 tgl 12 0 \$0-fb_pol \$0-fb_pol-set +/- 15 6 1 10 -4032
-13330 -13330 0 1;
#X obj 36 220 hsl 120 12 0.1 5000 1 0 \$0-porta \$0-porta-set porta
25 6 1 10 -4034 -13381 -13381 7597 1;
#X obj 161 220 nbx 5 12 0 99999 0 0 \$0-porta-num \$0-porta empty 0
-6 1 10 -4034 -13381 -13381 100 256;
#X obj 36 206 hsl 120 12 20 20000 1 0 \$0-lpf \$0-lpf-set lowpass 25
6 1 10 -202688 -45076 -45076 11900 1;
#X obj 161 206 nbx 5 12 0 99999 0 0 \$0-lpf-num \$0-lpf empty 0 -6
1 10 -202688 -45076 -45076 20000 256;
#X obj 220 231 tgl 15 0 \$0-patch_on \$0-patch_on-set On 1 -6 1 10
-191407 -258113 -261234 1 1;
#X obj 36 142 hsl 113 12 0 112 0 0 \$0-delay_pitch \$0-delay_pitch-set
delay_pitch 25 6 1 10 -208833 -13381 -13381 0 1;
#X obj 151 142 nbx 5 12 -49 112 0 0 \$0-delay_pitch-num \$0-delay_pitch
empty 0 -6 1 10 -208833 -13381 -13381 0 256;
#X obj 31 249 cnv 15 141 25 empty empty empty 20 12 0 14 -183672 -66577
0;
#X obj 33 260 nbx 3 12 0 120 0 0 empty empty empty -2 -6 0 7 -257472
-1109 -90133 0 256;
#X obj 75 260 nbx 3 12 1 13 0 0 \$0-patch-num \$0-patch-set select
0 -5 0 7 -17235 -261234 -17235 1 256;
#X obj 120 260 bng 12 250 50 0 \$0-store_patch \$0-store_patch-bng
store -3 -5 0 7 -17235 -262130 -17235;
#X obj 141 255 bng 10 250 50 0 \$0-patches_load \$0-patches_load-bng
load -5 16 0 7 -2498 -262144 -13381;
#X obj 154 255 bng 10 250 50 0 \$0-patches_save \$0-patches_save-bng
save 0 16 0 7 -159809 -262144 -86277;
#X obj 33 260 nbx 3 12 0 120 0 0 \$0-patches-dummy \$0-patches-num
patches 0 -5 0 7 -17235 -203904 -17235 0 256;
#X obj 106 264 bng 8 250 50 0 \$0-store_plus \$0-store_plus-bng + 2
-4 0 7 -17235 -198336 -17235;
#X obj 64 264 bng 8 250 50 0 \$0-store_minus \$0-store_minus-bng -
1 -5 0 10 -17235 -257985 -17235;
#X obj 188 258 nbx 3 12 0 200 0 0 \$0-mix_pc \$0-mix_pc-set mix 0 -6
1 10 -16662 -203904 -203904 100 256;
#X obj 1761 1006 r \$0-patch-num;
#X obj 1772 1029 t b f b;
#X msg 960 17 100;
#X obj 372 119 r \$0-lpf-num;
#X obj 529 21 r \$0-lfo_freq-num;
#X obj 937 206 r \$0-lfo_depth-num;
#X obj 36 168 hsl 201 12 0.02 200 1 0 \$0-lfo_freq \$0-lfo_freq-set
modulation_frequency 25 6 1 10 -143334 -13381 -13381 0 1;
#X obj 36 180 hsl 201 12 0.1 100 1 0 \$0-lfo_depth \$0-lfo_depth-set
modulation_depth 25 6 1 10 -143334 -13381 -13381 0 1;
#X obj 529 86 phasor~;
#X obj 529 106 +~;
#X obj 33 192 nbx 8 12 0 20000 0 0 \$0-lfo_freq-num \$0-lfo_freq empty
0 -6 1 10 -163814 -13381 -13381 0 256;
#X obj 113 192 nbx 5 12 0 100 0 0 \$0-lfo_depth-num \$0-lfo_depth empty
0 -6 1 10 -163814 -13381 -13381 0 256;
#X obj 36 156 hsl 91 12 0 2 0 0 \$0-stereo \$0-stereo-set L--------------R
4 6 1 10 -143334 -13381 -13381 4500 1;
#X obj 420 -13 r \$0-stereo;
#X obj 136 156 hsl 101 12 0 1 0 0 \$0-phase \$0-phase-set phase 35
6 1 10 -143334 -13381 -13381 0 1;
#X obj 381 15 t b f;
#X obj 361 34 *;
#X obj 612 -20 r \$0-delay-num;
#X obj 710 -26 r \$0-stereo;
#X obj 665 8 t b f;
#X obj 645 27 *;
#X obj 710 -7 t b f;
#X msg 708 13 2;
#X obj 710 37 -;
#X obj 529 42 pack f 10;
#X obj 529 63 line~;
#X obj 529 126 wrap~;
#X obj 581 86 r \$0-phase;
#X obj 598 596 outlet~;
#X obj 625 189 *~ 1;
#X obj 593 185 *~ 0;
#X obj 480 178 r \$0-mono_in;
#X obj 477 206 *~ 0;
#X obj 605 121 inlet~;
#X obj 592 62 r \$0-setphase;
#X obj 133 103 tgl 12 0 \$0-mono_in \$0-mono_in-set mono_in 15 6 1
10 -141811 -16662 -203904 1 1;
#X obj 938 232 * 0.01;
#X obj 303 434 +~;
#X obj 352 319 pack f 10;
#X obj 458 288 moses 0;
#X obj 352 357 +~;
#X msg 512 291 20000;
#X obj 512 274 loadbang;
#X msg 418 300 bang;
#X obj 352 338 line~;
#X obj 352 376 clip~ 0.01 2000;
#X obj 537 366 moses 1;
#X obj 575 245 moses -1;
#X obj 367 436 *~;
#X obj 537 389 pack f 10;
#X obj 537 412 line~;
#X obj 367 417 lp3_crit~;
#X obj 352 300 moses 1000;
#X obj 418 320 1000;
#X obj 612 389 *~ 0;
#X obj 72 25 switch~ 4 1 1;
#X obj 303 456 delwrite~ \$0-delfbf_L 2000;
#X obj 352 395 vd~ \$0-delfbf_L;
#X obj 647 505 +~;
#X obj 696 390 pack f 10;
#X obj 802 359 moses 0;
#X obj 696 428 +~;
#X msg 856 362 20000;
#X obj 856 345 loadbang;
#X msg 762 371 bang;
#X obj 696 409 line~;
#X obj 696 447 clip~ 0.01 2000;
#X obj 711 507 *~;
#X obj 881 460 pack f 10;
#X obj 881 483 line~;
#X obj 711 488 lp3_crit~;
#X obj 696 371 moses 1000;
#X obj 762 391 1000;
#X obj 956 460 *~ 0;
#X obj 647 527 delwrite~ \$0-delfbf_R 2000;
#X obj 696 466 vd~ \$0-delfbf_R;
#X obj 1061 -12 inlet;
#X obj 1308 391 s \$0-delay_fine-set;
#X obj 1052 400 s \$0-delay_coarse-set;
#X obj 1126 153 s \$0-feedback-set;
#X obj 1153 173 s \$0-fb_pol-set;
#X obj 1343 218 t f f;
#X obj 1380 248 s \$0-lpf-set;
#X obj 1341 268 s \$0-lpf;
#X obj 1126 111 t f f;
#X obj 1153 132 > 0;
#X obj 1126 132 abs;
#X obj 1156 195 t f f;
#X obj 1212 211 s \$0-porta-set;
#X obj 1156 231 s \$0-porta;
#X obj 1543 184 t f f;
#X obj 1571 217 s \$0-delay_pitch-set;
#X obj 1543 251 s \$0-delay_pitch;
#X obj 1513 107 s \$0-mix_pc-set;
#X obj 1105 236 t f f;
#X obj 1132 266 > 10;
#X obj 1132 289 == 0;
#X obj 1103 315 spigot;
#X obj 1173 315 spigot;
#X obj 1190 371 - 10;
#X obj 1187 339 t f b;
#X msg 1231 361 10;
#X msg 1095 342 0;
#X obj 1236 108 s \$0-stereo-set;
#X obj 1195 80 + 1;
#X obj 1266 88 s \$0-phase-set;
#X obj 1289 69 s \$0-setphase;
#X obj 1379 128 s \$0-mono_in-set;
#X obj 1455 21 route all;
#X obj 1059 20 route delcoarse porta fb lpf delfine delpitch on stereo
phase setphase mix delay randpat mono freq depth;
#X obj 1659 145 t f f;
#X obj 1686 169 s \$0-lfo_freq-set;
#X obj 1659 189 s \$0-lfo_freq;
#X obj 1730 117 s \$0-lfo_depth-set;
#X text 1456 2 delay fb stereo phase pitch lpf mix freq depth porta
mono;
#X obj 1449 48 unpack f f f f f f f f f f f;
#X obj 1465 347 route patch file;
#X obj 1465 371 s \$0-patch-set;
#X obj 1602 318 s \$0-patch_on-set;
#X msg 1602 297 1;
#X obj 1602 275 loadbang;
#X obj 1086 539 f;
#X obj 1083 496 r \$0-store_patch;
#X obj 1084 598 prepend add;
#X obj 1081 631 t b a;
#X obj 1151 720 msgfile;
#X obj 1418 781 spigot;
#X msg 1462 780 0;
#X msg 1463 763 1;
#X msg 1234 688 add patches 0;
#X obj 1231 650 loadbang;
#X obj 1142 950 route patches;
#X msg 1168 637 goto 0;
#X obj 1096 696 + 1;
#X obj 1080 713 f;
#X msg 1080 766 replace patches \$1;
#X msg 1131 687 this;
#X obj 1080 661 t b b b;
#X obj 1360 320 t b f;
#X msg 1423 640 goto \$1;
#X msg 1388 639 this;
#X obj 1515 650 r \$0-patches_load;
#X obj 1515 667 openpanel;
#X msg 1589 701 read \$1;
#X msg 1545 701 goto 0;
#X msg 1515 701 this;
#X obj 1695 580 r \$0-patches_save;
#X obj 1695 608 savepanel;
#X msg 1692 681 write \$1;
#X msg 1288 621 print;
#X obj 1143 920 route list;
#X obj 1515 684 t b b a b;
#X msg 1531 761 clear;
#X obj 1343 570 r \$0-patches_clear;
#X obj 1341 596 t b b;
#X obj 1591 577 symbol;
#X obj 1997 818 random;
#X obj 1418 798 s \$0-patches-num;
#X obj 1590 886 s \$0-patch-set;
#X obj 1098 432 r \$0-delay_fine;
#X obj 1112 451 r \$0-delay_coarse;
#X obj 1196 432 r \$0-porta-num;
#X obj 1220 451 r \$0-feedback;
#X obj 1231 470 r \$0-fb_pol;
#X obj 1093 850 s \$0-delay_fine-set;
#X obj 1141 871 s \$0-delay_coarse-set;
#X obj 1248 799 t f f;
#X obj 1272 827 s \$0-porta-set;
#X obj 1216 847 s \$0-porta;
#X obj 1282 868 s \$0-feedback-set;
#X obj 1290 892 s \$0-fb_pol-set;
#X obj 1393 971 t f f;
#X obj 1409 899 t f f;
#X obj 1429 829 t f f;
#X obj 1449 529 r \$0-delay_pitch-num;
#X obj 1086 576 pack f f f f f f f f f f f f f;
#X obj 1796 876 t f f;
#X obj 1822 909 s \$0-delay_pitch-set;
#X obj 1794 943 s \$0-delay_pitch;
#X obj 1367 505 r \$0-mix_pc;
#X obj 1573 956 s \$0-mix_pc-set;
#X obj 1963 628 r \$0-store_plus;
#X obj 1847 628 r \$0-store_minus;
#X obj 1963 652 f;
#X obj 1847 662 f;
#X obj 1847 682 +;
#X obj 1892 679 %;
#X obj 1892 699 + 1;
#X obj 1825 597 - 1;
#X obj 1847 703 - 1;
#X obj 1963 673 + 1;
#X obj 1892 719 s \$0-patch-set;
#X obj 1240 489 r \$0-lfo_freq-num;
#X obj 1262 527 r \$0-lpf-num;
#X obj 1253 508 r \$0-lfo_depth-num;
#X obj 1358 485 r \$0-stereo;
#X obj 1383 526 r \$0-phase;
#X obj 1430 1001 s \$0-lfo_freq-set;
#X obj 1391 1021 s \$0-lfo_freq;
#X obj 1427 879 s \$0-lpf;
#X obj 1466 859 s \$0-lpf-set;
#X obj 1446 929 s \$0-lfo_depth-set;
#X obj 1407 949 s \$0-lfo_depth;
#X obj 1555 1005 s \$0-stereo;
#X obj 1590 935 s \$0-phase-set;
#X obj 1474 502 r \$0-mono_in;
#X obj 1305 730 unpack f f f f f f f f f f f f f;
#X obj 1766 837 s \$0-mono_in-set;
#X obj 1178 1075 r \$0-delay_fine;
#X obj 1246 1095 r \$0-delay_coarse;
#X obj 1825 1295 r \$0-porta-num;
#X obj 1387 1136 r \$0-feedback;
#X obj 1438 1156 r \$0-fb_pol;
#X obj 1552 1197 r \$0-lpf-num;
#X obj 1355 1088 r \$0-delay_pitch-num;
#X obj 1700 1257 r \$0-mix_pc;
#X obj 1764 1276 r \$0-gang;
#X obj 1179 1479 outlet;
#X obj 1891 1319 r \$0-patch-num;
#X obj 1178 1095 change;
#X msg 1178 1115 delfine \$1;
#X obj 1246 1115 change;
#X obj 1825 1315 change;
#X obj 1387 1156 change;
#X obj 1438 1177 change;
#X obj 1552 1217 change;
#X obj 1700 1277 change;
#X obj 1764 1297 change;
#X obj 1355 1109 change;
#X msg 1892 1368 patch \$1;
#X msg 1825 1336 porta \$1;
#X msg 1387 1177 fb \$1;
#X msg 1438 1197 fb_pol \$1;
#X msg 1552 1237 lpf \$1;
#X msg 1700 1297 mix_pc \$1;
#X msg 1764 1317 gang \$1;
#X msg 1315 1150 delpitch \$1;
#X obj 1179 1444 spigot;
#X msg 1749 1116 1;
#X msg 1827 1115 0;
#X obj 1673 1081 loadbang;
#X obj 1910 1341 change;
#X msg 1246 1135 delcoarse \$1;
#X obj 1201 1173 t b f;
#X obj 1210 1206 +;
#X msg 1203 1244 delay \$1;
#X obj 1595 1305 t b f;
#X obj 1677 1346 t b f;
#X obj 1715 1382 t b f;
#X obj 1757 1388 t b f;
#X text 1612 1057 delay fb stereo phase pitch lpf mix freq depth porta
mono;
#X obj 1505 1090 r \$0-feedback-num;
#X obj 1521 1108 r \$0-porta-num;
#X obj 1547 1126 r \$0-lpf-num;
#X obj 1568 1145 r \$0-lfo_depth-num;
#X obj 1493 1448 r \$0-delay-num;
#X obj 1886 1208 r \$0-mono_in;
#X obj 1635 1402 t b f;
#X obj 1690 1417 t b f;
#X obj 1795 1406 t b f;
#X obj 1647 1199 change;
#X msg 1647 1219 depth \$1;
#X msg 1743 1204 mono \$1;
#X obj 1397 1248 r \$0-lfo_freq-num;
#X msg 1397 1286 freq \$1;
#X obj 1397 1267 change;
#X obj 1519 1356 t b f;
#X obj 1940 1120 r \$0-stereo;
#X obj 1885 1096 r \$0-phase;
#X obj 1881 1121 change;
#X obj 1938 1142 change;
#X obj 1848 1433 t b f;
#X obj 1615 1372 t b f;
#X obj 1611 1530 prepend all;
#X obj 1611 1489 pack f f f f f f f f f f f;
#X obj 1561 1382 t b f;
#X msg 1996 843 patch \$1;
#X obj 1719 804 prepend file;
#X obj 1694 637 makesymbol %s.pat;
#X msg 1590 869 range 0 \$1;
#X obj 1696 93 t f f;
#X obj 1707 139 s \$0-lfo_depth;
#X obj 1392 289 inlet~;
#X obj 299 343 hip~ 18;
#X obj 640 418 hip~ 18;
#X msg 1939 1166 stereo \$1;
#X msg 1873 1147 phase \$1;
#X obj 640 438 hip~ 22;
#X obj 640 458 hip~ 25;
#X obj 299 363 hip~ 22;
#X obj 299 383 hip~ 25;
#X obj 299 403 hip~ 30;
#X obj 640 478 hip~ 20;
#X obj 928 265 pack f 10;
#X obj 923 294 line~;
#X obj 956 480 *~;
#X obj 612 409 *~;
#X obj 427 226 cos~;
#X obj 748 201 cos~;
#X obj 32 296 declare -lib iemlib -lib zexy;
#X connect 0 0 17 0;
#X connect 0 0 18 0;
#X connect 0 0 81 0;
#X connect 3 0 7 0;
#X connect 4 0 65 0;
#X connect 5 0 73 1;
#X connect 5 0 88 0;
#X connect 5 0 109 0;
#X connect 5 0 342 1;
#X connect 6 0 104 0;
#X connect 7 0 96 0;
#X connect 8 0 9 0;
#X connect 9 0 12 0;
#X connect 10 0 8 0;
#X connect 10 1 9 1;
#X connect 11 0 10 0;
#X connect 12 0 13 0;
#X connect 12 0 20 0;
#X connect 13 0 14 0;
#X connect 14 0 15 0;
#X connect 14 1 16 1;
#X connect 15 0 16 0;
#X connect 16 0 19 0;
#X connect 17 0 1 0;
#X connect 18 0 86 0;
#X connect 19 0 21 0;
#X connect 20 0 17 1;
#X connect 20 0 79 1;
#X connect 21 0 18 1;
#X connect 21 0 78 1;
#X connect 23 0 51 0;
#X connect 49 0 50 0;
#X connect 50 0 287 0;
#X connect 50 1 187 0;
#X connect 50 2 288 0;
#X connect 51 0 22 0;
#X connect 52 0 100 1;
#X connect 52 0 119 1;
#X connect 53 0 73 0;
#X connect 54 0 85 0;
#X connect 57 0 58 0;
#X connect 57 0 346 0;
#X connect 58 0 75 0;
#X connect 62 0 64 0;
#X connect 64 0 65 0;
#X connect 64 1 65 1;
#X connect 65 0 101 0;
#X connect 66 0 69 0;
#X connect 67 0 70 0;
#X connect 68 0 69 0;
#X connect 68 1 69 1;
#X connect 69 0 120 0;
#X connect 70 0 71 0;
#X connect 70 1 72 1;
#X connect 71 0 72 0;
#X connect 72 0 68 0;
#X connect 73 0 74 0;
#X connect 74 0 57 0;
#X connect 75 0 347 0;
#X connect 76 0 58 1;
#X connect 78 0 107 0;
#X connect 79 0 77 0;
#X connect 80 0 81 1;
#X connect 81 0 78 0;
#X connect 81 0 79 0;
#X connect 82 0 79 0;
#X connect 82 0 78 0;
#X connect 83 0 57 1;
#X connect 85 0 342 0;
#X connect 86 0 105 0;
#X connect 87 0 93 0;
#X connect 88 1 87 1;
#X connect 89 0 94 0;
#X connect 90 0 100 1;
#X connect 91 0 90 0;
#X connect 92 0 102 0;
#X connect 93 0 89 0;
#X connect 94 0 106 0;
#X connect 95 0 98 0;
#X connect 95 0 117 0;
#X connect 96 1 95 0;
#X connect 97 0 332 0;
#X connect 98 0 99 0;
#X connect 99 0 97 1;
#X connect 100 0 97 0;
#X connect 101 0 87 0;
#X connect 101 0 103 1;
#X connect 101 1 92 0;
#X connect 102 0 87 0;
#X connect 102 0 103 1;
#X connect 103 0 345 0;
#X connect 106 0 100 0;
#X connect 106 0 1 0;
#X connect 107 0 123 0;
#X connect 108 0 114 0;
#X connect 109 1 108 1;
#X connect 110 0 115 0;
#X connect 111 0 119 1;
#X connect 112 0 111 0;
#X connect 113 0 121 0;
#X connect 114 0 110 0;
#X connect 115 0 124 0;
#X connect 116 0 333 0;
#X connect 117 0 118 0;
#X connect 118 0 116 1;
#X connect 119 0 116 0;
#X connect 120 0 108 0;
#X connect 120 0 122 1;
#X connect 120 1 113 0;
#X connect 121 0 108 0;
#X connect 121 0 122 1;
#X connect 122 0 344 0;
#X connect 124 0 119 0;
#X connect 124 0 77 0;
#X connect 125 0 158 0;
#X connect 130 0 132 0;
#X connect 130 1 131 0;
#X connect 133 0 135 0;
#X connect 133 1 134 0;
#X connect 134 0 129 0;
#X connect 135 0 128 0;
#X connect 136 0 138 0;
#X connect 136 1 137 0;
#X connect 139 0 141 0;
#X connect 139 1 140 0;
#X connect 143 0 146 0;
#X connect 143 0 147 0;
#X connect 143 1 144 0;
#X connect 144 0 145 0;
#X connect 144 0 147 1;
#X connect 145 0 146 1;
#X connect 146 0 126 0;
#X connect 146 0 151 0;
#X connect 147 0 149 0;
#X connect 148 0 127 0;
#X connect 149 0 148 0;
#X connect 149 1 150 0;
#X connect 150 0 126 0;
#X connect 151 0 127 0;
#X connect 153 0 152 0;
#X connect 157 0 164 0;
#X connect 158 0 127 0;
#X connect 158 1 136 0;
#X connect 158 2 133 0;
#X connect 158 3 130 0;
#X connect 158 4 126 0;
#X connect 158 5 139 0;
#X connect 158 6 167 0;
#X connect 158 7 153 0;
#X connect 158 8 154 0;
#X connect 158 9 155 0;
#X connect 158 10 142 0;
#X connect 158 11 143 0;
#X connect 158 12 205 0;
#X connect 158 13 156 0;
#X connect 158 14 159 0;
#X connect 158 15 329 0;
#X connect 158 16 157 0;
#X connect 158 16 165 0;
#X connect 159 0 161 0;
#X connect 159 1 160 0;
#X connect 164 0 143 0;
#X connect 164 1 133 0;
#X connect 164 2 152 0;
#X connect 164 3 154 0;
#X connect 164 4 139 0;
#X connect 164 5 130 0;
#X connect 164 6 142 0;
#X connect 164 7 159 0;
#X connect 164 8 329 0;
#X connect 164 9 136 0;
#X connect 164 10 156 0;
#X connect 165 0 166 0;
#X connect 165 1 204 0;
#X connect 168 0 167 0;
#X connect 169 0 168 0;
#X connect 170 0 224 0;
#X connect 171 0 170 0;
#X connect 172 0 173 0;
#X connect 173 0 186 0;
#X connect 173 1 174 0;
#X connect 174 0 199 0;
#X connect 175 0 176 0;
#X connect 175 0 328 0;
#X connect 175 0 206 0;
#X connect 176 0 175 1;
#X connect 177 0 175 1;
#X connect 178 0 174 0;
#X connect 179 0 178 0;
#X connect 180 0 182 0;
#X connect 180 0 175 0;
#X connect 180 0 205 1;
#X connect 180 0 235 1;
#X connect 180 0 234 1;
#X connect 180 1 255 0;
#X connect 181 0 174 0;
#X connect 182 0 183 1;
#X connect 183 0 184 0;
#X connect 183 0 328 0;
#X connect 183 0 205 1;
#X connect 183 0 206 0;
#X connect 183 0 234 1;
#X connect 183 0 235 1;
#X connect 184 0 174 0;
#X connect 185 0 174 0;
#X connect 186 0 183 0;
#X connect 186 1 185 0;
#X connect 186 2 181 0;
#X connect 187 0 189 0;
#X connect 187 1 188 0;
#X connect 187 1 237 0;
#X connect 188 0 174 0;
#X connect 189 0 174 0;
#X connect 190 0 191 0;
#X connect 191 0 200 0;
#X connect 191 0 326 0;
#X connect 192 0 174 0;
#X connect 193 0 174 0;
#X connect 194 0 174 0;
#X connect 195 0 196 0;
#X connect 196 0 327 0;
#X connect 197 0 174 0;
#X connect 198 0 174 0;
#X connect 199 0 180 0;
#X connect 200 0 194 0;
#X connect 200 1 193 0;
#X connect 200 1 177 0;
#X connect 200 2 192 0;
#X connect 200 3 201 0;
#X connect 201 0 174 0;
#X connect 202 0 203 0;
#X connect 203 0 178 0;
#X connect 203 1 201 0;
#X connect 204 0 200 0;
#X connect 205 0 325 0;
#X connect 208 0 170 1;
#X connect 209 0 224 1;
#X connect 210 0 224 2;
#X connect 211 0 224 3;
#X connect 212 0 224 4;
#X connect 215 0 217 0;
#X connect 215 1 216 0;
#X connect 220 0 247 0;
#X connect 220 1 246 0;
#X connect 221 0 251 0;
#X connect 221 1 250 0;
#X connect 222 0 248 0;
#X connect 222 1 249 0;
#X connect 223 0 224 11;
#X connect 224 0 172 0;
#X connect 225 0 227 0;
#X connect 225 1 226 0;
#X connect 228 0 224 9;
#X connect 230 0 232 0;
#X connect 231 0 233 0;
#X connect 232 0 239 0;
#X connect 233 0 234 0;
#X connect 234 0 238 0;
#X connect 235 0 236 0;
#X connect 236 0 240 0;
#X connect 237 0 233 1;
#X connect 237 0 232 1;
#X connect 238 0 235 0;
#X connect 239 0 235 0;
#X connect 241 0 224 5;
#X connect 242 0 224 7;
#X connect 243 0 224 6;
#X connect 244 0 224 8;
#X connect 245 0 224 10;
#X connect 254 0 224 12;
#X connect 255 0 213 0;
#X connect 255 1 214 0;
#X connect 255 2 215 0;
#X connect 255 3 218 0;
#X connect 255 4 219 0;
#X connect 255 5 220 0;
#X connect 255 6 221 0;
#X connect 255 7 222 0;
#X connect 255 8 252 0;
#X connect 255 9 229 0;
#X connect 255 10 253 0;
#X connect 255 11 225 0;
#X connect 255 12 256 0;
#X connect 257 0 268 0;
#X connect 258 0 270 0;
#X connect 259 0 271 0;
#X connect 260 0 272 0;
#X connect 261 0 273 0;
#X connect 262 0 274 0;
#X connect 263 0 277 0;
#X connect 263 0 315 0;
#X connect 264 0 275 0;
#X connect 265 0 276 0;
#X connect 267 0 290 0;
#X connect 268 0 269 0;
#X connect 268 0 293 0;
#X connect 269 0 286 0;
#X connect 270 0 291 0;
#X connect 270 0 292 0;
#X connect 271 0 279 0;
#X connect 271 0 298 0;
#X connect 272 0 280 0;
#X connect 273 0 281 0;
#X connect 274 0 282 0;
#X connect 274 0 295 0;
#X connect 275 0 283 0;
#X connect 275 0 296 0;
#X connect 276 0 284 0;
#X connect 276 0 297 0;
#X connect 277 0 285 0;
#X connect 278 0 266 0;
#X connect 279 0 286 0;
#X connect 280 0 286 0;
#X connect 281 0 286 0;
#X connect 282 0 286 0;
#X connect 283 0 286 0;
#X connect 284 0 286 0;
#X connect 285 0 286 0;
#X connect 286 0 266 0;
#X connect 287 0 286 1;
#X connect 288 0 286 1;
#X connect 289 0 287 0;
#X connect 290 0 278 0;
#X connect 291 0 286 0;
#X connect 292 0 293 0;
#X connect 292 1 293 1;
#X connect 293 0 294 0;
#X connect 294 0 286 0;
#X connect 295 0 323 0;
#X connect 295 1 323 5;
#X connect 296 0 323 0;
#X connect 296 1 323 6;
#X connect 298 0 323 0;
#X connect 298 1 323 9;
#X connect 300 0 324 0;
#X connect 303 0 307 0;
#X connect 303 0 309 0;
#X connect 304 0 323 0;
#X connect 305 0 308 0;
#X connect 305 0 311 0;
#X connect 306 0 323 0;
#X connect 306 1 323 7;
#X connect 307 0 323 0;
#X connect 307 1 323 8;
#X connect 308 0 323 0;
#X connect 308 1 323 10;
#X connect 309 0 310 0;
#X connect 310 0 286 0;
#X connect 311 0 286 0;
#X connect 312 0 314 0;
#X connect 312 0 306 0;
#X connect 313 0 286 0;
#X connect 314 0 313 0;
#X connect 315 0 323 0;
#X connect 315 1 323 4;
#X connect 316 0 319 0;
#X connect 316 0 320 0;
#X connect 317 0 318 0;
#X connect 317 0 321 0;
#X connect 318 0 335 0;
#X connect 319 0 334 0;
#X connect 320 0 323 0;
#X connect 320 1 323 2;
#X connect 321 0 323 0;
#X connect 321 1 323 3;
#X connect 322 0 286 0;
#X connect 323 0 322 0;
#X connect 324 0 323 0;
#X connect 324 1 323 1;
#X connect 325 0 165 0;
#X connect 326 0 266 0;
#X connect 327 0 197 0;
#X connect 327 0 326 0;
#X connect 328 0 207 0;
#X connect 329 0 330 0;
#X connect 329 1 162 0;
#X connect 331 0 124 0;
#X connect 331 0 106 0;
#X connect 332 0 338 0;
#X connect 333 0 336 0;
#X connect 334 0 286 0;
#X connect 335 0 286 0;
#X connect 336 0 337 0;
#X connect 337 0 341 0;
#X connect 338 0 339 0;
#X connect 339 0 340 0;
#X connect 340 0 86 1;
#X connect 341 0 107 1;
#X connect 342 0 343 0;
#X connect 343 0 344 1;
#X connect 343 0 345 1;
#X connect 344 0 110 1;
#X connect 345 0 89 1;
#X connect 346 0 103 0;
#X connect 347 0 122 0;
#X coords 0 -1 1 1 212 178 1 30 99;
