#N canvas 3 89 870 421 10;
#X declare -lib zexy -lib iemlib -lib ggee;
#X obj 124 73 adc~;
#X obj 104 241 *~;
#X obj 148 155 dbtorms;
#X obj 265 23 inlet;
#X obj 343 65 s \$0-volume-set;
#X msg 351 36 100;
#X obj 327 8 loadbang;
#X obj 653 307 s \$0-volume-set;
#X msg 651 273 label \$1;
#X obj 667 232 makesymbol volume=%s;
#X obj 167 90 r \$0-volume;
#X obj 661 189 r \$0-volume;
#N canvas 3 89 450 300 limiting 0;
#X obj 301 79 inlet;
#X obj 297 118 switch~;
#X obj 67 154 *~;
#X obj 67 134 z~ 64;
#X obj 91 44 inlet~;
#X obj 67 213 outlet~;
#X obj 92 99 limiter~;
#X connect 0 0 1 0;
#X connect 2 0 5 0;
#X connect 3 0 2 0;
#X connect 4 0 3 0;
#X connect 4 0 6 0;
#X connect 6 0 2 1;
#X restore 139 280 pd limiting;
#X obj 160 52 r \$0-limit;
#X obj 413 122 s \$0-limit-set;
#X msg 412 100 0;
#X obj 140 246 == 0;
#X obj 104 310 *~ 1;
#X obj 244 44 route vol limit;
#X obj 246 74 s \$0-limit-set;
#X obj 138 208 line~;
#X obj 137 183 pack f 20;
#X text 273 221 72 300 35 99;
#X obj 301 116 cnv 15 70 15 empty empty empty 6 6 0 7 -261681 -123526
0;
#X obj 329 102 cnv 15 42 29 empty empty empty 4 6 0 7 -261681 -123526
0;
#X obj 308 118 hsl 57 12 0 112 0 0 \$0-volume \$0-volume-set volume=100
4 6 0 8 -261689 -258699 -86147 5000 1;
#X obj 332 105 tgl 10 0 \$0-limit \$0-limit-set limit 11 6 0 8 -86277
-261234 -86277 0 1;
#X obj 471 235 *~;
#X obj 515 149 dbtorms;
#X obj 573 222 outlet;
#X obj 534 84 r \$0-volume;
#N canvas 0 0 450 300 limiting 0;
#X obj 301 79 inlet;
#X obj 297 118 switch~;
#X obj 67 154 *~;
#X obj 67 134 z~ 64;
#X obj 91 44 inlet~;
#X obj 67 213 outlet~;
#X obj 92 99 limiter~;
#X connect 0 0 1 0;
#X connect 2 0 5 0;
#X connect 3 0 2 0;
#X connect 4 0 3 0;
#X connect 4 0 6 0;
#X connect 6 0 2 1;
#X restore 506 274 pd limiting;
#X obj 527 46 r \$0-limit;
#X obj 507 240 == 0;
#X obj 471 286 *~ 1;
#X msg 567 125 vol \$1;
#X msg 596 153 limit \$1;
#X obj 505 202 line~;
#X obj 504 177 pack f 20;
#X text 640 215 72 300 35 99;
#X obj 480 320 outlet~;
#X obj 100 343 outlet~;
#X obj 547 21 declare -lib zexy -lib iemlib -lib ggee;
#X connect 0 0 1 0;
#X connect 0 1 27 0;
#X connect 1 0 17 0;
#X connect 1 0 12 0;
#X connect 2 0 21 0;
#X connect 3 0 18 0;
#X connect 5 0 4 0;
#X connect 6 0 5 0;
#X connect 6 0 15 0;
#X connect 8 0 7 0;
#X connect 9 0 8 0;
#X connect 10 0 2 0;
#X connect 11 0 9 0;
#X connect 12 0 41 0;
#X connect 13 0 12 1;
#X connect 13 0 16 0;
#X connect 15 0 14 0;
#X connect 16 0 17 1;
#X connect 17 0 41 0;
#X connect 18 0 4 0;
#X connect 18 1 19 0;
#X connect 20 0 1 1;
#X connect 21 0 20 0;
#X connect 27 0 34 0;
#X connect 27 0 31 0;
#X connect 28 0 38 0;
#X connect 30 0 28 0;
#X connect 30 0 35 0;
#X connect 31 0 40 0;
#X connect 32 0 31 1;
#X connect 32 0 33 0;
#X connect 32 0 36 0;
#X connect 33 0 34 1;
#X connect 34 0 40 0;
#X connect 35 0 29 0;
#X connect 36 0 29 0;
#X connect 37 0 27 1;
#X connect 38 0 37 0;
#X coords 0 -1 1 1 72 35 1 300 99;
