#N canvas 400 106 860 659 10;
#X declare -lib zexy;
#X obj 22 31 inlet~;
#X text 390 593 just a gui for Miller's G09.pitchshift patch!;
#X obj 461 197 cnv 15 320 146 empty empty empty 5 8 0 12 -170616 -24977
0;
#X obj 144 530 +;
#X obj 108 530 t b f;
#X obj 604 41 r \$0-pish_on;
#N canvas 148 466 1272 546 automation 0;
#X obj 91 24 inlet;
#X text 168 126 win;
#X text 258 125 delay;
#X text 325 128 feedback;
#X text 397 127 mix;
#X obj 430 218 s \$0-pish_on-set;
#X obj 107 298 t f f;
#X obj 107 373 -;
#X msg 101 180 0;
#X msg 53 254 46;
#X msg 57 222 1;
#X obj 35 153 loadbang;
#X msg 50 328 200;
#X obj 107 394 i;
#X obj 377 194 outlet;
#X obj 242 208 s \$0-pish_fb-set;
#X obj 305 299 s \$0-pish_win-set;
#X obj 201 299 s \$0-pish_dl-set;
#X obj 129 340 s \$0-pish_pf-set;
#X obj 107 416 s \$0-pish_pc-set;
#X obj 122 320 wrap -0.499999 0.5;
#X obj 294 241 s \$0-pish_mix_pc-set;
#X obj 453 186 outlet;
#X obj 539 270 s \$0-pish_hp-set;
#X obj 568 245 s \$0-pish_lp-set;
#X msg 571 176 20000;
#X msg 544 214 18;
#X obj 567 116 loadbang;
#X obj 376 401 s \$0-patch-set;
#X msg 588 344 1;
#X obj 588 317 loadbang;
#X obj 330 347 s \$0-pish_porta-set;
#X obj 145 60 route trans win delay fb mix porta patch file on randpat
hpf lpf pc pf;
#X obj 630 79 t f f;
#X obj 630 154 -;
#X obj 630 175 i;
#X obj 645 101 wrap -0.499999 0.5;
#X obj 652 121 s \$0-pish_pf_L-set;
#X obj 630 197 s \$0-pish_pc_L-set;
#X obj 770 122 s \$0-pish_win_L-set;
#X obj 817 106 s \$0-pish_dl_L-set;
#X obj 930 79 t f f;
#X obj 930 154 -;
#X obj 930 175 i;
#X obj 945 101 wrap -0.499999 0.5;
#X obj 1117 106 s \$0-pish_dl_R-set;
#X obj 1070 122 s \$0-pish_win_R-set;
#X obj 952 121 s \$0-pish_pf_R-set;
#X obj 930 197 s \$0-pish_pc_R-set;
#X obj 627 40 route trans_L pc_L pf_L win_L delay_L;
#X obj 927 40 route trans_R pc_R pf_R win_R delay_R;
#X obj 230 452 s \$0-pish_win_L-set;
#X obj 260 432 s \$0-pish_win_R-set;
#X obj 129 24 route all;
#X obj 191 24 unpack f f f f f f f f f f f f f f f f f;
#X obj 302 174 * 100;
#X connect 0 0 53 0;
#X connect 6 0 7 0;
#X connect 6 1 20 0;
#X connect 7 0 13 0;
#X connect 8 0 6 0;
#X connect 8 0 15 0;
#X connect 8 0 17 0;
#X connect 9 0 16 0;
#X connect 9 0 51 0;
#X connect 9 0 52 0;
#X connect 10 0 21 0;
#X connect 11 0 9 0;
#X connect 11 0 10 0;
#X connect 11 0 8 0;
#X connect 11 0 12 0;
#X connect 12 0 31 0;
#X connect 13 0 19 0;
#X connect 20 0 7 1;
#X connect 20 0 18 0;
#X connect 25 0 24 0;
#X connect 26 0 23 0;
#X connect 27 0 26 0;
#X connect 27 0 25 0;
#X connect 29 0 5 0;
#X connect 30 0 29 0;
#X connect 32 0 6 0;
#X connect 32 1 16 0;
#X connect 32 2 17 0;
#X connect 32 3 15 0;
#X connect 32 4 21 0;
#X connect 32 5 31 0;
#X connect 32 6 28 0;
#X connect 32 7 14 0;
#X connect 32 8 5 0;
#X connect 32 9 22 0;
#X connect 32 10 23 0;
#X connect 32 11 24 0;
#X connect 32 12 19 0;
#X connect 32 13 18 0;
#X connect 32 14 49 0;
#X connect 33 0 34 0;
#X connect 33 1 36 0;
#X connect 34 0 35 0;
#X connect 35 0 38 0;
#X connect 36 0 34 1;
#X connect 36 0 37 0;
#X connect 41 0 42 0;
#X connect 41 1 44 0;
#X connect 42 0 43 0;
#X connect 43 0 48 0;
#X connect 44 0 42 1;
#X connect 44 0 47 0;
#X connect 49 0 33 0;
#X connect 49 1 38 0;
#X connect 49 2 37 0;
#X connect 49 3 39 0;
#X connect 49 4 40 0;
#X connect 49 5 50 0;
#X connect 50 0 41 0;
#X connect 50 1 48 0;
#X connect 50 2 47 0;
#X connect 50 3 46 0;
#X connect 50 4 45 0;
#X connect 53 0 54 0;
#X connect 53 1 32 0;
#X connect 54 0 37 0;
#X connect 54 1 38 0;
#X connect 54 2 39 0;
#X connect 54 3 40 0;
#X connect 54 4 47 0;
#X connect 54 5 48 0;
#X connect 54 6 46 0;
#X connect 54 7 45 0;
#X connect 54 8 18 0;
#X connect 54 9 19 0;
#X connect 54 10 16 0;
#X connect 54 11 17 0;
#X connect 54 12 15 0;
#X connect 54 13 55 0;
#X connect 54 14 31 0;
#X connect 54 15 23 0;
#X connect 54 16 24 0;
#X connect 55 0 21 0;
#X restore 318 54 pd automation;
#N canvas 107 197 1191 643 patches 0;
#X obj 21 140 f;
#X obj 21 14 r \$0-store_patch;
#X obj 18 222 prepend add;
#X obj 18 242 t b a;
#X obj 91 319 msgfile;
#X obj 656 382 spigot;
#X msg 700 381 0;
#X msg 701 364 1;
#X msg 172 289 add patches 0;
#X obj 169 251 loadbang;
#X obj 182 353 route patches;
#X msg 106 238 goto 0;
#X obj 34 297 + 1;
#X obj 18 314 f;
#X msg 18 367 replace patches \$1;
#X msg 69 288 this;
#X obj 18 262 t b b b;
#X msg 873 327 range 1 \$1;
#X obj 646 217 t b f;
#X msg 661 241 goto \$1;
#X msg 626 240 this;
#X obj 753 251 r \$0-patches_load;
#X obj 753 268 openpanel;
#X msg 827 302 read \$1;
#X msg 783 302 goto 0;
#X msg 753 302 this;
#X obj 933 181 r \$0-patches_save;
#X obj 933 209 savepanel;
#X obj 932 238 makesymbol %s.txt;
#X msg 928 262 write \$1;
#X obj 182 334 route list;
#X obj 581 171 r \$0-patches_clear;
#X obj 579 197 t b b;
#X msg 659 278 clear;
#X obj 753 285 t b b a b;
#X obj 859 175 inlet;
#X obj 866 482 outlet;
#X obj 828 214 symbol;
#X obj 740 83 r \$0-pish_plus;
#X obj 740 127 + 1;
#X obj 702 128 - 1;
#X obj 702 103 f;
#X obj 702 63 r \$0-pish_minus;
#X obj 740 103 f;
#X obj 725 154 % 1;
#X obj 931 409 random;
#X obj 987 482 outlet;
#X obj 1024 136 inlet;
#X obj 725 174 s \$0-patch-set;
#X obj 624 410 s \$0-patches-num;
#X obj 873 344 s \$0-patch-set;
#X obj 648 194 inlet;
#X obj 357 83 r \$0-pish-mix;
#X obj 347 66 r \$0-pish-fb;
#X obj 374 101 r \$0-pish-porta;
#X obj 393 119 r \$0-pish_hp-num;
#X obj 414 136 r \$0-pish_lp-num;
#X obj 236 33 r \$0-pish-pf;
#X obj 267 89 r \$0-pish-dl;
#X obj 258 72 r \$0-pish-win;
#X obj 250 52 r \$0-pish-pc;
#X obj 36 33 r \$0-pish-pf_L;
#X obj 50 52 r \$0-pish-pc_L;
#X obj 58 72 r \$0-pish-win_L;
#X obj 67 89 r \$0-pish-dl_L;
#X obj 136 33 r \$0-pish-pf_R;
#X obj 150 52 r \$0-pish-pc_R;
#X obj 158 72 r \$0-pish-win_R;
#X obj 167 89 r \$0-pish-dl_R;
#X obj 18 202 pack f f f f f f f f f f f f f f f f f;
#X obj 460 497 s \$0-pish-fb-set;
#X obj 566 537 s \$0-pish-mix-set;
#X obj 569 509 s \$0-pish-porta-set;
#X obj 570 488 s \$0-pish_hp-set;
#X obj 587 469 s \$0-pish_lp-set;
#X obj 179 383 unpack f f f f f f f f f f f f f f f f f;
#X obj 289 476 s \$0-pish-pf-set;
#X obj 306 460 s \$0-pish-pc-set;
#X obj 324 444 s \$0-pish-win-set;
#X obj 341 428 s \$0-pish-dl-set;
#X obj 129 616 s \$0-pish-pf_L-set;
#X obj 146 600 s \$0-pish-pc_L-set;
#X obj 164 584 s \$0-pish-win_L-set;
#X obj 181 568 s \$0-pish-dl_L-set;
#X obj 209 546 s \$0-pish-pf_R-set;
#X obj 226 530 s \$0-pish-pc_R-set;
#X obj 244 514 s \$0-pish-win_R-set;
#X obj 261 498 s \$0-pish-dl_R-set;
#X connect 0 0 69 0;
#X connect 1 0 0 0;
#X connect 2 0 3 0;
#X connect 3 0 16 0;
#X connect 3 1 4 0;
#X connect 4 0 30 0;
#X connect 5 0 6 0;
#X connect 5 0 17 0;
#X connect 5 0 49 0;
#X connect 6 0 5 1;
#X connect 7 0 5 1;
#X connect 8 0 4 0;
#X connect 9 0 8 0;
#X connect 10 0 12 0;
#X connect 10 0 5 0;
#X connect 10 0 44 1;
#X connect 10 0 45 1;
#X connect 10 1 75 0;
#X connect 11 0 4 0;
#X connect 12 0 13 1;
#X connect 13 0 14 0;
#X connect 13 0 17 0;
#X connect 13 0 44 1;
#X connect 13 0 45 1;
#X connect 13 0 49 0;
#X connect 14 0 4 0;
#X connect 15 0 4 0;
#X connect 16 0 13 0;
#X connect 16 1 15 0;
#X connect 16 2 11 0;
#X connect 17 0 50 0;
#X connect 18 0 20 0;
#X connect 18 1 19 0;
#X connect 19 0 4 0;
#X connect 20 0 4 0;
#X connect 21 0 22 0;
#X connect 22 0 34 0;
#X connect 22 0 36 0;
#X connect 23 0 4 0;
#X connect 24 0 4 0;
#X connect 25 0 4 0;
#X connect 26 0 27 0;
#X connect 27 0 28 0;
#X connect 28 0 29 0;
#X connect 28 0 36 0;
#X connect 29 0 4 0;
#X connect 30 0 10 0;
#X connect 31 0 32 0;
#X connect 32 0 8 0;
#X connect 32 1 33 0;
#X connect 33 0 4 0;
#X connect 34 0 25 0;
#X connect 34 1 24 0;
#X connect 34 1 7 0;
#X connect 34 2 23 0;
#X connect 34 3 33 0;
#X connect 35 0 37 0;
#X connect 37 0 34 0;
#X connect 38 0 43 0;
#X connect 39 0 44 0;
#X connect 40 0 44 0;
#X connect 41 0 40 0;
#X connect 42 0 41 0;
#X connect 43 0 39 0;
#X connect 44 0 48 0;
#X connect 45 0 46 0;
#X connect 47 0 45 0;
#X connect 51 0 18 0;
#X connect 51 0 41 1;
#X connect 51 0 43 1;
#X connect 52 0 69 13;
#X connect 53 0 69 12;
#X connect 54 0 69 14;
#X connect 55 0 69 15;
#X connect 56 0 69 16;
#X connect 57 0 69 8;
#X connect 58 0 69 11;
#X connect 59 0 69 10;
#X connect 60 0 69 9;
#X connect 61 0 0 1;
#X connect 62 0 69 1;
#X connect 63 0 69 2;
#X connect 64 0 69 3;
#X connect 65 0 69 4;
#X connect 66 0 69 5;
#X connect 67 0 69 6;
#X connect 68 0 69 7;
#X connect 69 0 2 0;
#X connect 75 0 80 0;
#X connect 75 1 81 0;
#X connect 75 2 82 0;
#X connect 75 3 83 0;
#X connect 75 4 84 0;
#X connect 75 5 85 0;
#X connect 75 6 86 0;
#X connect 75 7 87 0;
#X connect 75 8 76 0;
#X connect 75 9 77 0;
#X connect 75 10 78 0;
#X connect 75 11 79 0;
#X connect 75 12 70 0;
#X connect 75 13 71 0;
#X connect 75 14 72 0;
#X connect 75 15 73 0;
#X connect 75 16 74 0;
#X restore 325 131 pd patches;
#X obj 333 181 outlet;
#X obj 497 505 r \$0-pish_mix_pc;
#X obj 497 532 / 100;
#X obj 497 559 s \$0-pish_mix-set;
#X obj 318 33 inlet;
#X msg 392 131 patch \$1;
#X obj 533 183 cnv 15 268 160 empty empty empty 5 28 0 42 -170616 -24977
0;
#X obj 522 290 hsl 128 12 0 4064 0 0 \$0-pish_dl \$0-pish_dl-set delay_time
20 6 0 8 -204288 -16662 -16662 0 1;
#X obj 591 193 hsl 181 12 -1 1 0 1 \$0-pish_pf \$0-pish_pf-set pitch_fine
24 6 0 8 -208384 -16662 -16662 9000 1;
#X obj 518 199 nbx 6 12 0.1 100000 1 0 \$0-pish_porta \$0-pish_porta-set
porta+win: -53 6 1 10 -204288 -1109 -1109 200 256;
#X obj 667 313 tgl 25 0 \$0-pish_on \$0-pish_on-set on 4 12 0 12 -191407
-258699 -90133 1 1;
#X obj 494 223 nbx 7 12 -127 127 0 0 \$0-pish_p \$0-pish_p-set empty
0 -8 1 10 -204288 -16662 -16662 0 256;
#X obj 522 313 cnv 15 141 25 empty empty empty 20 12 0 14 -183672 -66577
0;
#X obj 524 324 nbx 3 12 0 120 0 0 empty empty empty -2 -6 0 7 -257472
-1109 -90133 0 256;
#X obj 566 324 nbx 3 12 1 2 0 0 \$0-patch-num \$0-patch-set select
0 -5 0 7 -17235 -261234 -17235 1 256;
#X obj 611 324 bng 12 250 50 0 \$0-store_patch \$0-store_patch-bng
store -3 -5 0 7 -17235 -262130 -17235;
#X obj 632 319 bng 10 250 50 0 \$0-patches_load \$0-patches_load-bng
load -5 16 0 7 -2498 -262144 -13381;
#X obj 645 319 bng 10 250 50 0 \$0-patches_save \$0-patches_save-bng
save 0 16 0 7 -159809 -262144 -86277;
#X obj 524 324 nbx 3 12 0 120 0 0 \$0-patches-dummy \$0-patches-num
patches 0 -5 0 7 -17235 -203904 -17235 0 256;
#X obj 597 328 bng 8 250 50 0 \$0-store_plus \$0-store_plus-bng + 2
-4 0 7 -17235 -198336 -17235;
#X obj 555 328 bng 8 250 50 0 \$0-store_minus \$0-store_minus-bng -
1 -5 0 10 -17235 -257985 -17235;
#X obj 571 223 hsl 201 12 -100 100 0 0 \$0-pish_pc \$0-pish_pc-set
pitch_coarse 20 6 0 8 -204288 -16662 -16662 10000 1;
#X obj 464 256 nbx 5 12 1e-07 16384 0 0 \$0-pish_win-num \$0-pish_win
empty 0 -8 1 10 -204288 -16662 -16662 72 256;
#X obj 516 256 hsl 256 12 1 16384 1 0 \$0-pish_win \$0-pish_win-set
window_ms 26 6 0 8 -204288 -16662 -16662 11238 1;
#X obj 464 290 nbx 5 12 0 4095 0 0 \$0-pish_dl-num \$0-pish_dl empty
0 -8 1 10 -204288 -16662 -16662 0 256;
#X obj 681 295 nbx 3 12 -127 127 0 0 \$0-pish_fb-num \$0-pish_fb empty
0 -8 1 10 -204288 -13330 -13330 20 256;
#X obj 684 283 hsl 111 12 0 127 0 0 \$0-pish_fb \$0-pish_fb-set feedback
20 6 0 8 -204288 -1109 -1109 1732 1;
#X obj 472 326 nbx 3 12 0 100 0 0 \$0-pish_mix_pc \$0-pish_mix_pc-set
mix 0 -8 1 10 -204288 -13330 -13330 100 256;
#X obj 728 313 nbx 4 12 2 2000 1 0 \$0-pish_hp-num \$0-pish_hp-set
hpf -18 6 1 10 -204288 -13330 -13330 18 256;
#X obj 416 376 nbx 3 12 0 100 0 0 \$0-pish_mix \$0-pish_mix-set mix
-20 6 0 10 -204288 -13330 -13330 1 256;
#X obj 723 328 nbx 5 12 200 20000 1 0 \$0-pish_lp-num \$0-pish_lp-set
lpf -18 6 1 10 -204288 -13330 -13330 20000 256;
#N canvas 735 88 767 703 auto_out 0;
#X obj 326 174 r \$0-pish_hp-num;
#X obj 376 194 r \$0-pish_lp-num;
#X obj 65 590 outlet;
#X obj 531 185 inlet;
#X obj 668 316 inlet;
#X obj 63 93 change;
#X obj 112 113 change;
#X obj 168 133 change;
#X obj 217 154 change;
#X obj 266 174 change;
#X obj 326 194 change;
#X obj 376 214 change;
#X obj 531 246 prepend file;
#X obj 42 115 change;
#X obj 12 139 change;
#X msg 569 341 patch \$1;
#X msg 378 242 lpf \$1;
#X msg 318 226 hpf \$1;
#X msg 254 215 porta \$1;
#X msg 209 186 mix \$1;
#X msg 153 170 fb \$1;
#X msg 109 133 delay \$1;
#X msg 71 170 win \$1;
#X obj 630 317 inlet;
#X msg 669 340 0;
#X msg 633 340 1;
#X obj 93 529 spigot 1;
#X msg 31 195 pc \$1;
#X msg 20 235 pf \$1;
#X obj 559 306 inlet;
#X obj 73 323 change;
#X obj 122 343 change;
#X obj 52 345 change;
#X obj 22 369 change;
#X msg 119 363 delay_L \$1;
#X msg 81 400 win_L \$1;
#X msg 41 425 pc_L \$1;
#X msg 30 465 pf_L \$1;
#X obj 263 333 change;
#X obj 312 353 change;
#X obj 242 355 change;
#X obj 212 379 change;
#X msg 309 373 delay_R \$1;
#X msg 271 410 win_R \$1;
#X msg 231 435 pc_R \$1;
#X msg 220 475 pf_R \$1;
#X obj 36 33 r \$0-pish_pf;
#X obj 50 52 r \$0-pish_pc;
#X obj 63 72 r \$0-pish_win;
#X obj 112 92 r \$0-pish_dl;
#X obj 168 112 r \$0-pish_fb;
#X obj 217 133 r \$0-pish_mix;
#X obj 266 154 r \$0-pish_porta;
#X obj 46 263 r \$0-pish_pf_L;
#X obj 60 282 r \$0-pish_pc_L;
#X obj 73 302 r \$0-pish_win_L;
#X obj 122 322 r \$0-pish_dl_L;
#X obj 236 273 r \$0-pish_pf_R;
#X obj 250 292 r \$0-pish_pc_R;
#X obj 263 312 r \$0-pish_win_R;
#X obj 312 332 r \$0-pish_dl_R;
#X obj 643 290 loadbang;
#X obj 260 581 pack f f f f f f f f f f f f f f f f f;
#X obj 247 550 t b f;
#X obj 261 530 t b f;
#X obj 275 510 t b f;
#X obj 289 490 t b f;
#X obj 303 550 t b f;
#X obj 317 530 t b f;
#X obj 331 510 t b f;
#X obj 345 490 t b f;
#X obj 359 550 t b f;
#X obj 373 530 t b f;
#X obj 387 510 t b f;
#X obj 401 490 t b f;
#X obj 415 550 t b f;
#X obj 429 530 t b f;
#X obj 443 510 t b f;
#X obj 457 490 t b f;
#X obj 260 601 prepend all;
#X connect 0 0 10 0;
#X connect 1 0 11 0;
#X connect 3 0 12 0;
#X connect 4 0 24 0;
#X connect 5 0 22 0;
#X connect 5 0 72 0;
#X connect 6 0 21 0;
#X connect 6 0 73 0;
#X connect 7 0 20 0;
#X connect 7 0 74 0;
#X connect 8 0 19 0;
#X connect 8 0 75 0;
#X connect 9 0 18 0;
#X connect 9 0 76 0;
#X connect 10 0 17 0;
#X connect 10 0 77 0;
#X connect 11 0 16 0;
#X connect 11 0 78 0;
#X connect 12 0 2 0;
#X connect 13 0 27 0;
#X connect 13 0 71 0;
#X connect 14 0 28 0;
#X connect 14 0 70 0;
#X connect 15 0 2 0;
#X connect 16 0 26 0;
#X connect 17 0 26 0;
#X connect 18 0 26 0;
#X connect 19 0 26 0;
#X connect 20 0 26 0;
#X connect 21 0 26 0;
#X connect 22 0 26 0;
#X connect 23 0 25 0;
#X connect 24 0 26 1;
#X connect 25 0 26 1;
#X connect 26 0 2 0;
#X connect 27 0 26 0;
#X connect 28 0 26 0;
#X connect 29 0 15 0;
#X connect 30 0 35 0;
#X connect 30 0 64 0;
#X connect 31 0 34 0;
#X connect 31 0 65 0;
#X connect 32 0 36 0;
#X connect 32 0 63 0;
#X connect 33 0 37 0;
#X connect 33 0 62 0;
#X connect 34 0 26 0;
#X connect 35 0 26 0;
#X connect 36 0 26 0;
#X connect 37 0 26 0;
#X connect 38 0 43 0;
#X connect 38 0 68 0;
#X connect 39 0 42 0;
#X connect 39 0 69 0;
#X connect 40 0 44 0;
#X connect 40 0 67 0;
#X connect 41 0 45 0;
#X connect 41 0 66 0;
#X connect 42 0 26 0;
#X connect 43 0 26 0;
#X connect 44 0 26 0;
#X connect 45 0 26 0;
#X connect 46 0 14 0;
#X connect 47 0 13 0;
#X connect 48 0 5 0;
#X connect 49 0 6 0;
#X connect 50 0 7 0;
#X connect 51 0 8 0;
#X connect 52 0 9 0;
#X connect 53 0 33 0;
#X connect 54 0 32 0;
#X connect 55 0 30 0;
#X connect 56 0 31 0;
#X connect 57 0 41 0;
#X connect 58 0 40 0;
#X connect 59 0 38 0;
#X connect 60 0 39 0;
#X connect 61 0 25 0;
#X connect 62 0 79 0;
#X connect 63 0 62 0;
#X connect 63 1 62 1;
#X connect 64 0 62 0;
#X connect 64 1 62 2;
#X connect 65 0 62 0;
#X connect 65 1 62 3;
#X connect 66 0 62 0;
#X connect 66 1 62 4;
#X connect 67 0 62 0;
#X connect 67 1 62 5;
#X connect 68 0 62 0;
#X connect 68 1 62 6;
#X connect 69 0 62 0;
#X connect 69 1 62 7;
#X connect 70 0 62 0;
#X connect 70 1 62 8;
#X connect 71 0 62 0;
#X connect 71 1 62 9;
#X connect 72 0 62 0;
#X connect 72 1 62 10;
#X connect 73 0 62 0;
#X connect 73 1 62 11;
#X connect 74 0 62 0;
#X connect 74 1 62 12;
#X connect 75 0 62 0;
#X connect 75 1 62 13;
#X connect 76 0 62 0;
#X connect 76 1 62 14;
#X connect 77 0 62 0;
#X connect 77 1 62 15;
#X connect 78 0 62 0;
#X connect 78 1 62 16;
#X connect 79 0 26 0;
#X restore 333 162 pd auto_out;
#X obj 604 67 switch~ 4 1 1;
#X obj 627 557 s \$0-pish_mix_pc-set;
#X msg 645 529 100;
#X obj 645 508 loadbang;
#X obj 406 77 r \$0-patch-num;
#X obj 407 101 t b f b;
#X obj 115 32 inlet~;
#X obj 22 133 outlet~;
#X obj 116 133 outlet~;
#X obj 591 185 hsl 181 8 -1 1 0 1 \$0-pish_pf_L \$0-pish_pf_L-set pitch_fine_L
24 4 0 8 -163328 -1109 -1109 9000 1;
#X obj 591 205 hsl 181 8 -1 1 0 1 \$0-pish_pf_R \$0-pish_pf_R-set pitch_fine_R
24 4 0 8 -207936 -45076 -45076 9000 1;
#X obj 571 215 hsl 201 8 -100 100 0 0 \$0-pish_pc_L \$0-pish_pc_L-set
pitch_coarse_L 20 4 0 8 -163328 -1109 -1109 10000 1;
#X obj 571 235 hsl 201 8 -100 100 0 0 \$0-pish_pc_R \$0-pish_pc_R-set
pitch_coarse_R 20 4 0 8 -207936 -45076 -45076 10000 1;
#X text 258 449 9cdcfc;
#X text 325 449 c8c0fc;
#X obj 494 213 nbx 7 10 -127 127 0 0 \$0-pish_p_L \$0-pish_p_L-set
empty 0 -8 1 10 -163328 -13330 -13330 0 256;
#X obj 494 235 nbx 7 10 -127 127 0 0 \$0-pish_p_R \$0-pish_p_R-set
empty 0 -8 1 10 -207936 -45076 -45076 0 256;
#X obj 464 246 nbx 5 10 1e-07 16384 0 0 \$0-pish_win_L-num \$0-pish_win_L
empty 0 -8 1 10 -163328 -13330 -13330 72 256;
#X obj 464 268 nbx 5 10 1e-07 16384 0 0 \$0-pish_win_R-num \$0-pish_win_R
empty 0 -8 1 10 -207936 -45076 -45076 72 256;
#X obj 516 249 hsl 256 8 1 16384 1 1 \$0-pish_win_L \$0-pish_win_L-set
window_ms_L 26 4 0 8 -163328 -1109 -1109 11238 1;
#X obj 516 268 hsl 256 8 1 16384 1 1 \$0-pish_win_R \$0-pish_win_R-set
window_ms_R 26 4 0 8 -207936 -45076 -45076 11238 1;
#X obj 522 282 hsl 128 8 0 4064 0 0 \$0-pish_dl_L \$0-pish_dl_L-set
delay_time_L 20 4 0 8 -163328 -1109 -1109 0 1;
#X obj 522 302 hsl 128 8 0 4064 0 0 \$0-pish_dl_R \$0-pish_dl_R-set
delay_time_R 20 4 0 8 -207936 -45076 -45076 0 1;
#X obj 464 280 nbx 5 10 0 4095 0 0 \$0-pish_dl_L-num \$0-pish_dl_L
empty 0 -8 1 10 -163328 -13330 -13330 0 256;
#X obj 464 302 nbx 5 10 0 4095 0 0 \$0-pish_dl_R-num \$0-pish_dl_R
empty 0 -8 1 10 -207936 -45076 -45076 0 256;
#X obj 264 530 +;
#X obj 228 530 t b f;
#X obj 384 530 +;
#X obj 348 530 t b f;
#X obj 348 496 r \$0-pish_pf;
#X obj 384 513 r \$0-pish_pc;
#X obj 384 560 s \$0-pish_p-set;
#X obj 108 496 r \$0-pish_pf_L;
#X obj 144 513 r \$0-pish_pc_L;
#X obj 144 560 s \$0-pish_p_L-set;
#X obj 228 496 r \$0-pish_pf_R;
#X obj 264 513 r \$0-pish_pc_R;
#X obj 264 560 s \$0-pish_p_R-set;
#N canvas 0 0 786 573 follow_reset 0;
#X obj 61 62 r \$0-pish_pf;
#X obj 46 81 f;
#X obj 46 43 r \$0-pish_pf_reset;
#X obj 46 119 s \$0-pish_pf_L-set;
#X obj 53 100 s \$0-pish_pf_R-set;
#X obj 294 82 r \$0-pish_pf;
#X obj 236 64 r \$0-pish_pf_L;
#X obj 236 138 -;
#X obj 221 157 +;
#X obj 221 176 s \$0-pish_pf_L-set;
#X obj 236 119 spigot 1;
#X obj 294 100 t b f b;
#X msg 294 119 1;
#X msg 321 119 0;
#X obj 376 138 -;
#X obj 361 157 +;
#X obj 376 119 spigot 1;
#X msg 434 119 1;
#X msg 461 119 0;
#X obj 376 64 r \$0-pish_pf_R;
#X obj 361 176 s \$0-pish_pf_R-set;
#X obj 516 138 -;
#X obj 501 157 +;
#X obj 516 119 spigot 1;
#X obj 574 100 t b f b;
#X msg 574 119 1;
#X msg 601 119 0;
#X obj 656 138 -;
#X obj 641 157 +;
#X obj 656 119 spigot 1;
#X msg 714 119 1;
#X msg 741 119 0;
#X obj 516 64 r \$0-pish_pc_L;
#X obj 574 82 r \$0-pish_pc;
#X obj 656 64 r \$0-pish_pc_R;
#X obj 501 176 s \$0-pish_pc_L-set;
#X obj 641 176 s \$0-pish_pc_R-set;
#X obj 239 259 spigot 1;
#X obj 297 240 t b f b;
#X msg 297 259 1;
#X msg 324 259 0;
#X obj 379 259 spigot 1;
#X msg 437 259 1;
#X msg 464 259 0;
#X obj 297 222 r \$0-pish_win;
#X obj 516 278 -;
#X obj 501 297 +;
#X obj 516 259 spigot 1;
#X obj 574 240 t b f b;
#X msg 574 259 1;
#X msg 601 259 0;
#X obj 656 278 -;
#X obj 641 297 +;
#X obj 656 259 spigot 1;
#X msg 714 259 1;
#X msg 741 259 0;
#X obj 574 222 r \$0-pish_dl;
#X obj 501 316 s \$0-pish_dl_L-set;
#X obj 641 316 s \$0-pish_dl_R-set;
#X obj 46 181 f;
#X obj 46 143 r \$0-pish_pc_reset;
#X obj 61 162 r \$0-pish_pc;
#X obj 53 200 s \$0-pish_pc_R-set;
#X obj 46 219 s \$0-pish_pc_L-set;
#X obj 46 281 f;
#X obj 46 381 f;
#X obj 46 243 r \$0-pish_win_reset;
#X obj 61 262 r \$0-pish_win;
#X obj 53 300 s \$0-pish_win_R-set;
#X obj 46 319 s \$0-pish_win_L-set;
#X obj 46 343 r \$0-pish_dl_reset;
#X obj 61 362 r \$0-pish_dl;
#X obj 53 400 s \$0-pish_dl_R-set;
#X obj 46 419 s \$0-pish_dl_L-set;
#X obj 46 439 r \$0-pish_reset;
#X obj 46 535 s \$0-pish_pf_reset-bng;
#X obj 76 515 s \$0-pish_pc_reset-bng;
#X obj 106 495 s \$0-pish_win_reset-bng;
#X obj 136 475 s \$0-pish_dl_reset-bng;
#X obj 224 317 s \$0-pish_win_L-set;
#X obj 364 317 s \$0-pish_win_R-set;
#X obj 379 278 /;
#X obj 239 278 /;
#X obj 364 298 *;
#X obj 224 298 *;
#X obj 239 204 r \$0-pish_win_L-num;
#X obj 379 204 r \$0-pish_win_R-num;
#X obj 516 204 r \$0-pish_dl_L-num;
#X obj 656 204 r \$0-pish_dl_R-num;
#X connect 0 0 1 1;
#X connect 1 0 4 0;
#X connect 1 0 3 0;
#X connect 2 0 1 0;
#X connect 5 0 11 0;
#X connect 6 0 10 0;
#X connect 7 0 8 1;
#X connect 8 0 9 0;
#X connect 10 0 7 0;
#X connect 11 0 12 0;
#X connect 11 0 17 0;
#X connect 11 1 7 1;
#X connect 11 1 8 0;
#X connect 11 1 14 1;
#X connect 11 1 15 0;
#X connect 11 2 13 0;
#X connect 11 2 18 0;
#X connect 12 0 10 1;
#X connect 13 0 10 1;
#X connect 14 0 15 1;
#X connect 15 0 20 0;
#X connect 16 0 14 0;
#X connect 17 0 16 1;
#X connect 18 0 16 1;
#X connect 19 0 16 0;
#X connect 21 0 22 1;
#X connect 22 0 35 0;
#X connect 23 0 21 0;
#X connect 24 0 25 0;
#X connect 24 0 30 0;
#X connect 24 1 21 1;
#X connect 24 1 22 0;
#X connect 24 1 27 1;
#X connect 24 1 28 0;
#X connect 24 2 26 0;
#X connect 24 2 31 0;
#X connect 25 0 23 1;
#X connect 26 0 23 1;
#X connect 27 0 28 1;
#X connect 28 0 36 0;
#X connect 29 0 27 0;
#X connect 30 0 29 1;
#X connect 31 0 29 1;
#X connect 32 0 23 0;
#X connect 33 0 24 0;
#X connect 34 0 29 0;
#X connect 37 0 82 0;
#X connect 38 0 39 0;
#X connect 38 0 42 0;
#X connect 38 1 81 1;
#X connect 38 1 82 1;
#X connect 38 1 83 0;
#X connect 38 1 84 0;
#X connect 38 2 40 0;
#X connect 38 2 43 0;
#X connect 39 0 37 1;
#X connect 40 0 37 1;
#X connect 41 0 81 0;
#X connect 42 0 41 1;
#X connect 43 0 41 1;
#X connect 44 0 38 0;
#X connect 45 0 46 1;
#X connect 46 0 57 0;
#X connect 47 0 45 0;
#X connect 48 0 49 0;
#X connect 48 0 54 0;
#X connect 48 1 45 1;
#X connect 48 1 46 0;
#X connect 48 1 51 1;
#X connect 48 1 52 0;
#X connect 48 2 50 0;
#X connect 48 2 55 0;
#X connect 49 0 47 1;
#X connect 50 0 47 1;
#X connect 51 0 52 1;
#X connect 52 0 58 0;
#X connect 53 0 51 0;
#X connect 54 0 53 1;
#X connect 55 0 53 1;
#X connect 56 0 48 0;
#X connect 59 0 62 0;
#X connect 59 0 63 0;
#X connect 60 0 59 0;
#X connect 61 0 59 1;
#X connect 64 0 68 0;
#X connect 64 0 69 0;
#X connect 65 0 72 0;
#X connect 65 0 73 0;
#X connect 66 0 64 0;
#X connect 67 0 64 1;
#X connect 70 0 65 0;
#X connect 71 0 65 1;
#X connect 74 0 78 0;
#X connect 74 0 77 0;
#X connect 74 0 76 0;
#X connect 74 0 75 0;
#X connect 81 0 83 1;
#X connect 82 0 84 1;
#X connect 83 0 80 0;
#X connect 84 0 79 0;
#X connect 85 0 37 0;
#X connect 86 0 41 0;
#X connect 87 0 47 0;
#X connect 88 0 53 0;
#X restore 595 100 pd follow_reset;
#X obj 658 286 bng 14 250 50 0 \$0-pish_dl_reset \$0-pish_dl_reset-bng
reset -4 -4 0 8 -204288 -16662 -16662;
#X obj 780 254 bng 14 250 50 0 \$0-pish_win_reset \$0-pish_win_reset-bng
reset -4 -4 0 8 -204288 -16662 -16662;
#X obj 780 223 bng 14 250 50 0 \$0-pish_pc_reset \$0-pish_pc_reset-bng
reset -4 -4 0 8 -204288 -16662 -16662;
#X obj 780 192 bng 14 250 50 0 \$0-pish_pf_reset \$0-pish_pf_reset-bng
reset -4 -4 0 8 -204288 -16662 -16662;
#X obj 465 220 bng 22 250 50 0 \$0-pish_reset \$0-pish_reset-bng reset
0 -4 0 8 -204288 -16662 -16662;
#N canvas 217 51 607 777 pishcore_R~ 0;
#X floatatom 28 126 0 0 0 0 - - -;
#X obj 106 404 *~;
#X obj 201 329 line~;
#X floatatom 201 128 0 0 0 0 - - -;
#X obj 201 303 pack 0 200;
#X obj 28 182 exp;
#X floatatom 28 202 0 0 0 0 - - -;
#X obj 28 263 /;
#X obj 147 219 * 0.001;
#X obj 327 405 line~;
#X obj 327 377 pack 0 200;
#X floatatom 327 297 0 0 0 0 - - -;
#X text 358 298 delay (msec);
#X obj 106 424 +~;
#X obj 28 476 *~;
#X obj 28 506 +~;
#X obj 115 356 wrap~;
#X obj 277 399 *~;
#X obj 277 426 +~;
#X obj 197 486 *~;
#X obj 147 240 t b f;
#X floatatom 28 283 0 0 0 0 - - -;
#X obj 28 351 phasor~ 0;
#X obj 115 329 +~ 0.5;
#X floatatom 201 196 0 0 0 0 - - -;
#X obj 28 222 - 1;
#X obj 28 242 * -1;
#X text 62 125 <-- transposition;
#X text 105 138 (halftones);
#X text 70 203 speed;
#X text 70 216 change;
#X text 209 102 <--window (msec);
#X text 61 274 tape head;
#X text 65 284 rotation speed;
#X obj 28 615 outlet~;
#X obj 236 573 *~;
#X obj 253 550 / 127;
#X obj 28 593 *~;
#X obj 117 593 *~;
#X obj 133 551 expr 1 - $f1;
#X obj 44 572 line~ 20;
#X obj 133 572 line~ 20;
#X obj 28 403 -~ 0.5;
#X obj 198 404 -~ 0.5;
#X obj 28 425 *~ 0.5;
#X obj 198 425 *~ 0.5;
#X obj 28 450 cos~;
#X obj 198 451 cos~;
#X obj 29 531 hip~ 15;
#X obj 29 329 line~;
#X obj 28 304 pack 0 200;
#X obj 201 148 moses 0.0422304;
#X msg 201 174 0.0422304;
#X obj 327 324 moses 0;
#X msg 327 350 0;
#X obj 253 529 r \$0-pish_fb-num;
#X obj 106 464 hip~ 18;
#X obj 277 466 hip~ 18;
#X obj 106 484 lop~ 20000;
#X obj 277 486 lop~ 20000;
#X obj 369 410 r \$0-pish_hp-num;
#X obj 369 433 r \$0-pish_lp-num;
#X obj 93 519 r \$0-pish_mix;
#X obj 28 156 * 0.0577623;
#X obj 243 242 r \$0-pish_porta;
#X obj 22 28 inlet~;
#X obj 167 73 r \$0-pish_win_R-num;
#X obj 308 271 r \$0-pish_dl_R-num;
#X obj 11 74 delwrite~ \$0-pish_R 20384;
#X obj 106 444 vd~ \$0-pish_R;
#X obj 277 446 vd~ \$0-pish_R;
#X obj 69 101 r \$0-pish_p_R;
#X connect 0 0 63 0;
#X connect 1 0 13 0;
#X connect 2 0 1 1;
#X connect 2 0 17 1;
#X connect 3 0 51 0;
#X connect 4 0 2 0;
#X connect 5 0 6 0;
#X connect 6 0 25 0;
#X connect 7 0 21 0;
#X connect 8 0 20 0;
#X connect 9 0 13 1;
#X connect 9 0 18 1;
#X connect 10 0 9 0;
#X connect 11 0 53 0;
#X connect 13 0 69 0;
#X connect 14 0 15 0;
#X connect 15 0 48 0;
#X connect 16 0 17 0;
#X connect 16 0 43 0;
#X connect 17 0 18 0;
#X connect 18 0 70 0;
#X connect 19 0 15 1;
#X connect 20 0 7 0;
#X connect 20 1 7 1;
#X connect 21 0 50 0;
#X connect 22 0 1 0;
#X connect 22 0 23 0;
#X connect 22 0 42 0;
#X connect 23 0 16 0;
#X connect 24 0 4 0;
#X connect 24 0 8 0;
#X connect 25 0 26 0;
#X connect 26 0 7 0;
#X connect 35 0 68 0;
#X connect 36 0 35 1;
#X connect 37 0 34 0;
#X connect 38 0 34 0;
#X connect 39 0 41 0;
#X connect 40 0 37 1;
#X connect 41 0 38 1;
#X connect 42 0 44 0;
#X connect 43 0 45 0;
#X connect 44 0 46 0;
#X connect 45 0 47 0;
#X connect 46 0 14 0;
#X connect 47 0 19 0;
#X connect 48 0 35 0;
#X connect 48 0 37 0;
#X connect 49 0 22 0;
#X connect 50 0 49 0;
#X connect 51 0 52 0;
#X connect 51 1 24 0;
#X connect 52 0 24 0;
#X connect 53 0 54 0;
#X connect 53 1 10 0;
#X connect 54 0 10 0;
#X connect 55 0 36 0;
#X connect 56 0 58 0;
#X connect 57 0 59 0;
#X connect 58 0 14 1;
#X connect 59 0 19 1;
#X connect 60 0 57 1;
#X connect 60 0 56 1;
#X connect 61 0 59 1;
#X connect 61 0 58 1;
#X connect 62 0 39 0;
#X connect 62 0 40 0;
#X connect 63 0 5 0;
#X connect 64 0 10 1;
#X connect 64 0 4 1;
#X connect 64 0 50 1;
#X connect 65 0 38 0;
#X connect 65 0 68 0;
#X connect 66 0 3 0;
#X connect 67 0 11 0;
#X connect 69 0 56 0;
#X connect 70 0 57 0;
#X connect 71 0 0 0;
#X restore 115 82 pd pishcore_R~;
#N canvas 217 51 607 777 pishcore_L~ 0;
#X floatatom 28 126 0 0 0 0 - - -;
#X obj 106 404 *~;
#X obj 201 329 line~;
#X floatatom 201 128 0 0 0 0 - - -;
#X obj 201 303 pack 0 200;
#X obj 28 182 exp;
#X floatatom 28 202 0 0 0 0 - - -;
#X obj 28 263 /;
#X obj 147 219 * 0.001;
#X obj 327 405 line~;
#X obj 327 377 pack 0 200;
#X floatatom 327 297 0 0 0 0 - - -;
#X text 358 298 delay (msec);
#X obj 106 424 +~;
#X obj 28 476 *~;
#X obj 28 506 +~;
#X obj 115 356 wrap~;
#X obj 277 399 *~;
#X obj 277 426 +~;
#X obj 197 486 *~;
#X obj 147 240 t b f;
#X floatatom 28 283 0 0 0 0 - - -;
#X obj 28 351 phasor~ 0;
#X obj 115 329 +~ 0.5;
#X floatatom 201 196 0 0 0 0 - - -;
#X obj 28 222 - 1;
#X obj 28 242 * -1;
#X text 62 125 <-- transposition;
#X text 105 138 (halftones);
#X text 70 203 speed;
#X text 70 216 change;
#X text 209 102 <--window (msec);
#X text 61 274 tape head;
#X text 65 284 rotation speed;
#X obj 28 615 outlet~;
#X obj 236 573 *~;
#X obj 253 550 / 127;
#X obj 28 593 *~;
#X obj 117 593 *~;
#X obj 133 551 expr 1 - $f1;
#X obj 44 572 line~ 20;
#X obj 133 572 line~ 20;
#X obj 28 403 -~ 0.5;
#X obj 198 404 -~ 0.5;
#X obj 28 425 *~ 0.5;
#X obj 198 425 *~ 0.5;
#X obj 28 450 cos~;
#X obj 198 451 cos~;
#X obj 29 531 hip~ 15;
#X obj 29 329 line~;
#X obj 28 304 pack 0 200;
#X obj 201 148 moses 0.0422304;
#X msg 201 174 0.0422304;
#X obj 327 324 moses 0;
#X msg 327 350 0;
#X obj 253 529 r \$0-pish_fb-num;
#X obj 106 464 hip~ 18;
#X obj 277 466 hip~ 18;
#X obj 106 484 lop~ 20000;
#X obj 277 486 lop~ 20000;
#X obj 369 410 r \$0-pish_hp-num;
#X obj 369 433 r \$0-pish_lp-num;
#X obj 93 519 r \$0-pish_mix;
#X obj 28 156 * 0.0577623;
#X obj 243 242 r \$0-pish_porta;
#X obj 22 28 inlet~;
#X obj 308 271 r \$0-pish_dl_L-num;
#X obj 167 73 r \$0-pish_win_L-num;
#X obj 13 74 delwrite~ \$0-pish_L 20384;
#X obj 106 444 vd~ \$0-pish_L;
#X obj 277 446 vd~ \$0-pish_L;
#X obj 69 101 r \$0-pish_p_L;
#X connect 0 0 63 0;
#X connect 1 0 13 0;
#X connect 2 0 1 1;
#X connect 2 0 17 1;
#X connect 3 0 51 0;
#X connect 4 0 2 0;
#X connect 5 0 6 0;
#X connect 6 0 25 0;
#X connect 7 0 21 0;
#X connect 8 0 20 0;
#X connect 9 0 13 1;
#X connect 9 0 18 1;
#X connect 10 0 9 0;
#X connect 11 0 53 0;
#X connect 13 0 69 0;
#X connect 14 0 15 0;
#X connect 15 0 48 0;
#X connect 16 0 17 0;
#X connect 16 0 43 0;
#X connect 17 0 18 0;
#X connect 18 0 70 0;
#X connect 19 0 15 1;
#X connect 20 0 7 0;
#X connect 20 1 7 1;
#X connect 21 0 50 0;
#X connect 22 0 1 0;
#X connect 22 0 23 0;
#X connect 22 0 42 0;
#X connect 23 0 16 0;
#X connect 24 0 4 0;
#X connect 24 0 8 0;
#X connect 25 0 26 0;
#X connect 26 0 7 0;
#X connect 35 0 68 0;
#X connect 36 0 35 1;
#X connect 37 0 34 0;
#X connect 38 0 34 0;
#X connect 39 0 41 0;
#X connect 40 0 37 1;
#X connect 41 0 38 1;
#X connect 42 0 44 0;
#X connect 43 0 45 0;
#X connect 44 0 46 0;
#X connect 45 0 47 0;
#X connect 46 0 14 0;
#X connect 47 0 19 0;
#X connect 48 0 35 0;
#X connect 48 0 37 0;
#X connect 49 0 22 0;
#X connect 50 0 49 0;
#X connect 51 0 52 0;
#X connect 51 1 24 0;
#X connect 52 0 24 0;
#X connect 53 0 54 0;
#X connect 53 1 10 0;
#X connect 54 0 10 0;
#X connect 55 0 36 0;
#X connect 56 0 58 0;
#X connect 57 0 59 0;
#X connect 58 0 14 1;
#X connect 59 0 19 1;
#X connect 60 0 57 1;
#X connect 60 0 56 1;
#X connect 61 0 59 1;
#X connect 61 0 58 1;
#X connect 62 0 39 0;
#X connect 62 0 40 0;
#X connect 63 0 5 0;
#X connect 64 0 10 1;
#X connect 64 0 4 1;
#X connect 64 0 50 1;
#X connect 65 0 38 0;
#X connect 65 0 68 0;
#X connect 66 0 11 0;
#X connect 67 0 3 0;
#X connect 69 0 56 0;
#X connect 70 0 57 0;
#X connect 71 0 0 0;
#X restore 22 82 pd pishcore_L~;
#X obj 68 237 declare -lib zexy;
#X connect 0 0 85 0;
#X connect 3 0 74 0;
#X connect 4 0 3 0;
#X connect 4 1 3 1;
#X connect 5 0 40 0;
#X connect 6 0 7 1;
#X connect 6 1 7 2;
#X connect 7 0 39 0;
#X connect 7 1 13 0;
#X connect 9 0 10 0;
#X connect 10 0 11 0;
#X connect 12 0 6 0;
#X connect 13 0 6 0;
#X connect 39 0 8 0;
#X connect 42 0 41 0;
#X connect 43 0 42 0;
#X connect 44 0 45 0;
#X connect 45 0 39 2;
#X connect 45 1 7 0;
#X connect 45 1 39 1;
#X connect 45 2 39 3;
#X connect 46 0 84 0;
#X connect 65 0 77 0;
#X connect 66 0 65 0;
#X connect 66 1 65 1;
#X connect 67 0 71 0;
#X connect 68 0 67 0;
#X connect 68 1 67 1;
#X connect 69 0 68 0;
#X connect 70 0 67 0;
#X connect 72 0 4 0;
#X connect 73 0 3 0;
#X connect 75 0 66 0;
#X connect 76 0 65 0;
#X connect 84 0 48 0;
#X connect 85 0 47 0;
#X coords 0 -1 1 1 342 166 1 460 180;
