#N canvas 192 89 1052 627 10;
#X declare -lib zexy -lib tof -lib iemlib -lib ekext;
#X obj 21 48 cnv 15 290 121 empty empty empty 20 12 0 14 -13410 -204800
0;
#X obj 333 641 tabread4~;
#X msg 333 294 set \$1;
#X obj 372 408 *;
#X obj 372 480 +~;
#X obj 333 214 makesymbol s32-%s-%s;
#X obj 465 214 makefilename sizes-32-%d;
#X obj 522 42 r \$0-sample;
#X obj 394 168 t b f;
#X msg 383 249 set \$1;
#X floatatom 616 154 0 0 0 0 - - -;
#X obj 616 194 exp;
#X floatatom 616 214 6 0 0 0 - - -;
#X obj 616 174 * 0.05776;
#X obj 616 134 r \$0-trans;
#X obj 405 290 r \$0-srate;
#X obj 549 668 loadbang;
#X obj 549 688 samplerate~;
#X obj 549 728 s \$0-srate;
#X obj 372 345 t b f;
#X obj 616 233 t b f;
#X obj 372 385 /;
#X obj 372 325 / 44.1;
#X obj 549 708 * 0.001;
#X msg 372 365 1000;
#X obj 372 458 line~;
#X obj 372 437 pack f 20;
#X obj 414 394 r \$0-porta;
#X obj 447 572 r \$0-loop;
#X obj 372 503 *~ 1;
#X obj 333 194 pack 1 1;
#X obj 483 431 r \$0-reverse;
#X obj 524 479 sel 0 1;
#X msg 524 499 1;
#X msg 551 499 -1;
#X obj 488 260 inlet;
#X obj 498 319 sel 1;
#X msg 449 533 1;
#X obj 449 554 -;
#X obj 409 573 f;
#X obj 424 513 sel 0 1;
#X obj 424 553 f;
#X obj 331 744 outlet~;
#X obj 91 33 cnv 15 220 121 empty empty empty 20 12 0 14 -13410 -204800
0;
#X obj 292 69 tgl 12 0 \$0-inv_f \$0-inv_f-set inv -1 -4 0 8 -228856
-86277 -228856 0 1;
#X obj 21 52 cnv 15 216 70 empty empty empty 20 12 0 14 -175228 -66577
0;
#X obj 221 69 tgl 12 0 \$0-mod_freq \$0-mod_freq-set empty 17 7 0 10
-262144 -1 -1 0 1;
#N canvas 0 50 450 300 (subpatch) 0;
#X array \$0-mod 2048 float 2;
#X coords 0 1 2048 -1 210 51 1;
#X restore 23 69 graph;
#X obj 245 69 nbx 4 12 -240 136 0 0 \$0-f_freq_midi \$0-f_freq_midi-set
st 32 6 1 10 -228856 -86277 -86277 69 256;
#X obj 245 83 nbx 6 12 0.001 100000 1 0 \$0-f_freq-num \$0-f_freq-set
Hz 48 6 1 10 -228856 -86277 -86277 440 256;
#X obj 245 97 nbx 6 12 0.1 10000 1 0 \$0-f_q-num \$0-f_q-set Q 48 6
1 10 -228856 -86277 -86277 80 256;
#X obj 233 111 nbx 8 12 1e-05 10 1 0 \$0-f_hz-num \$0-f_hz-set mod
58 6 1 10 -228856 -86277 -86277 1e-05 256;
#X obj 51 138 nbx 4 14 -120 120 0 0 \$0-trans \$0-trans-set trans 0
-6 1 10 -130712 -13381 -130712 0 256;
#X obj 24 127 tgl 25 0 \$0-on \$0-patch_on-set on 4 12 0 12 -191407
-258699 -90133 1 1;
#X obj 200 141 hradio 10 1 0 5 \$0-bank \$0-bank-set bank 6 -6 1 10
-225280 -1109 -225280 4;
#X obj 255 139 nbx 3 12 1 1 0 0 \$0-sample \$0-sample-set wave 3 -6
1 10 -204800 -13410 -204800 1 256;
#X obj 98 138 nbx 5 14 1 99999 1 0 \$0-porta \$0-porta-set portamento
0 -6 1 10 -130712 -13381 -130712 1 256;
#X obj 159 129 tgl 14 0 \$0-loop \$0-loop-set loop -4 19 1 10 -130712
-13381 -130712 0 1;
#X obj 27 154 hsl 277 12 0 1 0 0 \$0-offset \$0-offset-set offset 55
6 1 10 -130712 -13381 -13381 0 1;
#X obj 182 137 tgl 14 0 \$0-reverse \$0-reverse-set rev -2 -6 1 10
-130712 -13381 -130712 0 1;
#X obj 595 333 r \$0-mod_freq;
#X obj 710 249 r \$0-f_freq-num;
#X obj 735 286 r \$0-f_q-num;
#X obj 780 268 r \$0-f_hz-num;
#X obj 681 344 dirac~;
#X floatatom 739 321 4 0.01 1000 0 - - -;
#X obj 681 384 *~ 10;
#X obj 771 338 moses 10;
#X floatatom 846 398 5 0 0 0 - - -;
#X obj 846 378 pow 2;
#X obj 846 358 / 4;
#X obj 562 355 spigot;
#X obj 710 480 *~;
#X obj 780 307 * 44.1;
#X obj 732 416 line~;
#X obj 732 396 pack f 10;
#X obj 580 452 tabwrite~ \$0-mod;
#X obj 813 287 r \$0-srate;
#X obj 167 47 cnv 15 80 15 empty empty empty 20 12 0 14 -13410 -204800
0;
#X obj 170 33 cnv 15 141 25 empty empty empty 20 12 0 14 -183672 -66577
0;
#X obj 172 44 nbx 3 12 0 120 0 0 empty empty empty -2 -6 0 7 -257472
-1109 -90133 0 256;
#X obj 214 44 nbx 3 12 1 2 0 0 \$0-patch-num \$0-patch-set select 0
-5 0 7 -17235 -261234 -17235 1 256;
#X obj 259 44 bng 12 250 50 0 \$0-store_patch \$0-store_patch-bng store
-3 -5 0 7 -17235 -262130 -17235;
#X obj 280 39 bng 10 250 50 0 \$0-patches_load \$0-patches_load-bng
load -5 16 0 7 -2498 -262144 -13381;
#X obj 293 39 bng 10 250 50 0 \$0-patches_save \$0-patches_save-bng
save 0 16 0 7 -159809 -262144 -86277;
#X obj 172 44 nbx 3 12 0 120 0 0 \$0-patches-dummy \$0-patches-num
patches 0 -5 0 7 -17235 -203904 -17235 0 256;
#X obj 245 48 bng 8 250 50 0 \$0-store_plus \$0-store_plus-bng + 2
-4 0 7 -17235 -198336 -17235;
#X obj 203 48 bng 8 250 50 0 \$0-store_minus \$0-store_minus-bng -
1 -5 0 10 -17235 -257985 -17235;
#X obj 769 188 r \$0-on;
#X obj 771 215 switch~;
#X obj 333 76 r \$0-bank;
#X obj 333 97 + 1;
#X obj 367 616 *~ 44100;
#X obj 34 240 r \$0-f_freq_midi;
#X obj 34 328 t b f b;
#X obj 53 348 mtof;
#X msg 88 261 1;
#X msg 88 281 0;
#X obj 34 273 spigot 1;
#X obj 53 368 s \$0-f_freq-set;
#X obj 149 326 t b f b;
#X msg 203 259 1;
#X msg 203 279 0;
#X obj 149 271 spigot 1;
#X obj 149 238 r \$0-f_freq-num;
#X obj 168 346 ftom;
#X obj 168 366 s \$0-f_freq_midi-set;
#X obj 493 526 r \$0-offset;
#X obj 483 451 f;
#X obj 493 549 t b f;
#X obj 122 36 tgl 12 0 \$0-am \$0-am-set +am 14 6 1 10 -228856 -86277
-228856 0 1;
#X obj 331 662 *~ 1;
#X obj 252 486 r \$0-am;
#X obj 369 662 *~ 0;
#X obj 252 548 == 0;
#X obj 369 683 *~;
#X obj 331 704 hip~ 18;
#X obj 681 404 *~ 1;
#X obj 687 230 r \$0-inv_f;
#X msg 687 304 1;
#X msg 709 304 -1;
#X obj 687 284 sel 0 1;
#X msg 681 324 1;
#X obj 294 139 tgl 12 0 \$0-sample_change \$0-sample_change-live live
-5 -5 0 8 -204800 -13410 -204800 1 1;
#X obj 750 450 env~;
#X obj 752 491 spigot;
#X obj 754 632 tabwrite \$0-mo;
#N canvas 0 50 450 300 (subpatch) 0;
#X array \$0-mo 512 float 3;
#A 0 72.0321 97.5504 99.3657 99.0102 98.6551 98.2996 97.9441 97.589
97.2334 96.878 96.5228 96.1672 95.8119 95.4567 95.1011 94.746 94.3907
94.0351 93.68 93.3245 92.969 92.6139 92.2583 91.9029 91.5478 91.1922
90.8369 90.4816 90.126 89.7709 89.4155 89.06 88.7048 88.3494 87.9939
87.6388 87.2833 86.9279 86.5728 86.2171 85.8618 85.5066 85.151 84.7958
84.4405 84.0849 83.7298 83.3743 83.0187 82.6637 82.3081 81.9528 81.5976
81.242 80.8868 80.5316 80.1759 79.8207 79.4654 79.1098 78.7547 78.3993
78.0438 77.6887 77.3331 76.9777 76.6227 76.2671 75.9118 75.5565 75.2009
74.8457 74.4904 74.1348 73.7797 73.4243 73.0687 72.7137 72.3582 72.0027
71.6476 85.5574 98.5379 99.0304 98.6752 98.3195 97.9644 97.609 97.2535
96.8984 96.543 96.1875 95.8324 95.4769 95.1215 94.7664 94.4108 94.0555
93.7003 93.3447 92.9896 92.6342 92.2787 91.9235 91.5681 91.2126 90.8576
90.502 90.1467 89.7915 89.4359 89.0807 88.7254 88.3698 88.0146 87.6593
87.3038 86.9487 86.5933 86.2378 85.8828 85.5272 85.1718 84.8167 84.461
84.1058 83.7506 83.3949 83.0398 82.6845 82.3288 81.9737 81.6183 81.2628
80.9077 80.5522 80.1968 79.8417 79.4861 79.1308 78.7756 78.42 78.0648
77.7095 77.3539 76.9988 76.6433 76.2878 75.9327 75.5772 75.2218 74.8667
74.5111 74.1558 73.8007 73.445 73.0899 72.7346 72.379 72.0239 71.6685
71.313 91.5782 99.0963 98.9417 98.5863 98.2311 97.8755 97.5203 97.165
96.8094 96.4543 96.0989 95.7433 95.3883 95.0328 94.6774 94.3223 93.9667
93.6114 93.2562 92.9006 92.5454 92.1901 91.8345 91.4793 91.1239 90.7683
90.4132 90.0577 89.7022 89.3472 88.9916 88.6363 88.2811 87.9255 87.5703
87.215 86.8594 86.5043 86.1489 85.7934 85.4383 85.0828 84.7273 84.3723
84.0167 83.6614 83.3062 82.9506 82.5953 82.2401 81.8844 81.5293 81.1739
80.8183 80.4633 80.1078 79.7523 79.3972 79.0416 78.6862 78.331 77.9754
77.6202 77.265 76.9093 76.5541 76.1988 75.8432 75.4881 75.1327 74.7772
74.4221 74.0665 73.7111 73.356 73.0003 72.6451 72.2898 71.9342 71.579
71.2237 70.8682 70.5131 70.1576 69.8021 69.4471 69.0915 68.7362 68.381
68.0254 67.67 67.3148 66.9592 66.604 66.2487 65.8931 65.538 65.1826
64.8271 64.472 64.1164 91.8995 99.4254 99.2694 98.9141 98.5589 98.2033
97.8481 97.4929 97.1373 96.7822 96.4268 96.0712 95.7161 95.3606 95.0052
94.6501 94.2945 93.9392 93.5841 93.2284 92.8732 92.5179 92.1623 91.8072
91.4518 91.0963 90.7412 90.3857 90.0303 89.6752 89.3196 88.9643 88.6091
88.2535 87.8984 87.5431 87.1874 86.8323 86.4769 86.1213 86.7849 97.6809
98.6282 98.2726 97.9173 97.562 97.2064 96.8512 96.4959 96.1403 95.7852
95.4297 95.0742 94.7191 94.3635 94.0081 93.653 93.2974 92.9421 92.5869
92.2313 91.8762 91.5208 91.1653 90.8102 90.4548 90.0992 89.7441 89.3885
89.0332 88.6781 88.3225 87.9672 87.612 87.2563 86.9011 86.5459 86.1902
85.8352 85.4798 85.1243 84.7692 84.4137 84.0583 83.7032 83.3476 82.9923
82.6371 82.2814 81.9263 81.571 92.9113 98.3252 98.0327 97.6771 97.322
96.9667 96.6112 96.2561 95.9005 95.5451 95.19 94.8344 94.4791 94.1239
93.7683 93.4131 93.0578 92.7022 92.3471 91.9917 91.6362 91.2811 90.9256
90.5701 90.2151 89.8595 89.5041 89.1489 88.7933 88.4381 88.0828 87.7272
87.3721 87.0167 86.6611 86.3061 85.9506 85.5951 85.24 84.8845 84.5292
84.174 83.8184 83.4632 83.1079 82.7523 82.3972 82.0418 81.6862 81.3311
87.5059 99.5172 99.9894 99.6342 99.2786 98.9235 98.568 98.2125 97.8574
97.5019 97.1465 96.7914 96.4358 96.0805 95.7253 95.3697 95.0146 94.6593
94.3037 93.9485 93.5931 93.2375 92.8825 92.5269 92.1715 91.8164 91.4608
91.1055 90.7503 90.3947 90.0395 89.6842 89.3286 88.9735 88.6181 88.2626
87.9075 87.552 87.1966 86.8414 86.4859 86.1306 85.7754 85.4198 85.0646
84.7094 84.3539 83.9987 83.6434 83.2878 82.9327 94.2233 98.1046 97.7585
97.4029 97.0475 96.6924 96.3368 95.9815 95.6263 95.2707 94.9155 94.5602
94.2046 93.8495 93.4941 93.1385 92.7835 92.4279 92.0725 91.7174 91.3618
91.0065 90.6513 90.2956 89.9404 89.5851 89.2295 88.8744 88.519 88.1635
87.8084 87.4529 87.0975 86.7424 86.3868 86.0315 85.6763 85.3207 84.9655
84.6102 84.2546 83.8995 83.5441 83.1886 82.8335 82.478 82.1225 81.7673
81.4117 81.0564 80.7012 80.3455 79.9903 79.6351 79.2795 78.9244 78.569
;
#X coords 0 100 512 0 210 51 1;
#X restore 23 69 graph;
#X obj 754 518 t f b;
#X obj 909 572 sel 1;
#X msg 909 592 0;
#X obj 841 473 t b b;
#X msg 875 500 0;
#X msg 798 473 1;
#X obj 909 551 > 510;
#X obj 849 330 change;
#X obj 899 330 change;
#X obj 949 330 change;
#X msg 892 361 1;
#X obj 867 451 spigot;
#X msg 913 452 0;
#X obj 420 142 spigot;
#X obj 552 106 r \$0-sample_change;
#X obj 550 133 == 0;
#X obj 469 176 f;
#X obj 467 149 spigot 1;
#X obj 708 137 loadbang;
#X obj 563 289 t b;
#X obj 578 266 - 60;
#X obj 525 241 moses 2;
#N canvas 0 50 450 300 format_numbers 0;
#X obj 87 86 moses 10;
#X obj 132 106 moses 100;
#X obj 211 125 moses 1000;
#X obj 169 244 outlet;
#X obj 87 37 inlet;
#X obj 212 192 makesymbol wave_%s;
#X obj 159 172 makesymbol wave_0%s;
#X obj 96 152 makesymbol wave_00%s;
#X obj 27 132 makesymbol wave_000%s;
#X connect 0 0 8 0;
#X connect 0 1 1 0;
#X connect 1 0 7 0;
#X connect 1 1 2 0;
#X connect 2 0 6 0;
#X connect 2 1 5 0;
#X connect 4 0 0 0;
#X connect 5 0 3 0;
#X connect 6 0 3 0;
#X connect 7 0 3 0;
#X connect 8 0 3 0;
#X restore 437 90 pd format_numbers;
#X obj 357 35 r \$0-wave;
#X obj 357 54 t f b;
#X msg 432 241 set wavesizes;
#N canvas 545 338 450 300 canvas 0;
#X obj 58 201 s \$0-bank-set;
#X msg 84 134 color 7 27 7;
#X obj 231 71 r \$0-waves;
#X obj 189 231 s \$0-sample-set;
#X msg 140 164 label bank;
#X msg 5 146 label empty;
#X msg 40 170 color 22 22 22;
#X msg 314 164 range 1 \$1;
#X msg 190 135 range 1 32;
#X obj 270 123 f;
#X obj 134 25 inlet;
#X obj 57 24 inlet;
#X obj 57 54 t b;
#X obj 134 90 t b;
#X msg 216 169 label sample;
#X msg 302 199 label wave;
#X msg 175 203 label_pos -5 -6;
#X msg 311 235 label_pos 3 -6;
#X obj 327 40 inlet;
#X msg 315 97 1;
#X obj 339 71 loadbang;
#X obj 136 53 spigot 1;
#X obj 199 25 inlet;
#X connect 1 0 0 0;
#X connect 2 0 5 0;
#X connect 2 0 9 0;
#X connect 4 0 0 0;
#X connect 5 0 0 0;
#X connect 6 0 0 0;
#X connect 7 0 3 0;
#X connect 8 0 3 0;
#X connect 9 0 7 0;
#X connect 10 0 21 0;
#X connect 11 0 12 0;
#X connect 12 0 5 0;
#X connect 12 0 9 0;
#X connect 12 0 15 0;
#X connect 12 0 17 0;
#X connect 13 0 1 0;
#X connect 13 0 4 0;
#X connect 13 0 8 0;
#X connect 13 0 14 0;
#X connect 13 0 16 0;
#X connect 14 0 3 0;
#X connect 15 0 3 0;
#X connect 16 0 3 0;
#X connect 17 0 3 0;
#X connect 18 0 9 0;
#X connect 18 0 15 0;
#X connect 18 0 17 0;
#X connect 19 0 9 1;
#X connect 20 0 19 0;
#X connect 21 0 13 0;
#X connect 22 0 21 1;
#X restore 414 117 pd canvas;
#X obj 1030 29 inlet;
#X obj 1030 278 s \$0-f_freq_midi-set;
#X obj 1059 261 s \$0-f_freq-set;
#X obj 1088 244 s \$0-f_q-set;
#X obj 1117 227 s \$0-f_hz-set;
#X obj 1147 210 s \$0-inv_f-set;
#X obj 1176 193 s \$0-sample-set;
#X obj 1205 176 s \$0-bank-set;
#X obj 1234 159 s \$0-trans-set;
#X obj 1264 142 s \$0-porta-set;
#X obj 1293 125 s \$0-loop-set;
#X obj 1322 108 s \$0-reverse-set;
#X obj 1351 91 s \$0-offset-set;
#X msg 1527 154 1;
#X obj 1524 132 loadbang;
#X msg 1374 150 440;
#X msg 1420 166 80;
#X obj 1539 107 s \$0-wave;
#X obj 1457 87 route randpat on wave waves;
#X obj 1581 127 s \$0-waves;
#X obj 1040 477 f;
#X obj 1040 314 r \$0-store_patch;
#X obj 1035 569 t b a;
#X obj 1105 658 msgfile;
#X obj 1338 726 spigot;
#X msg 1382 725 0;
#X msg 1383 708 1;
#X msg 1188 626 add patches 0;
#X obj 1185 588 loadbang;
#X obj 1030 766 route patches;
#X msg 1122 575 goto 0;
#X obj 1034 651 f;
#X msg 1034 704 replace patches \$1;
#X msg 1085 625 this;
#X obj 1034 599 t b b b;
#X obj 1338 743 s \$0-patches-num;
#X obj 1342 601 t b f;
#X msg 1357 625 goto \$1;
#X msg 1322 624 this;
#X obj 1469 588 r \$0-patches_load;
#X obj 1469 605 openpanel;
#X msg 1543 639 read \$1;
#X msg 1499 639 goto 0;
#X msg 1469 639 this;
#X obj 1649 518 r \$0-patches_save;
#X obj 1649 546 savepanel;
#X msg 1644 599 write \$1;
#X msg 1242 559 print;
#X obj 1031 736 route list;
#X obj 1469 622 t b b a b;
#X msg 1258 585 clear;
#X obj 1195 534 r \$0-patches_clear;
#X obj 1193 560 t b b;
#X obj 1586 317 symbol;
#X obj 1491 542 random;
#X msg 1590 663 range 1 \$1;
#X obj 1050 634 + 1;
#X obj 1589 681 s \$0-patch-set;
#X obj 1330 549 r \$0-patch-num;
#X obj 1351 571 t b f b;
#X obj 1648 575 makesymbol %s.pat;
#X obj 1058 332 r \$0-f_freq_midi;
#X obj 1087 349 r \$0-f_freq-num;
#X obj 1116 366 r \$0-f_q-num;
#X obj 1145 383 r \$0-f_hz-num;
#X obj 1175 400 r \$0-inv_f-num;
#X obj 1204 417 r \$0-sample;
#X obj 1233 434 r \$0-bank;
#X obj 1262 347 r \$0-trans;
#X obj 1292 371 r \$0-porta;
#X obj 1321 393 r \$0-loop;
#X obj 1350 416 r \$0-reverse;
#X obj 1379 439 r \$0-offset;
#X obj 1040 497 pack f f f f f f f f f f f f;
#X obj 1180 665 unpack f f f f f f f f f f f f;
#X obj 1190 922 s \$0-f_freq_midi-set;
#X obj 1219 905 s \$0-f_freq-set;
#X obj 1248 888 s \$0-f_q-set;
#X obj 1277 871 s \$0-f_hz-set;
#X obj 1307 854 s \$0-inv_f-set;
#X obj 1336 837 s \$0-sample-set;
#X obj 1365 820 s \$0-bank-set;
#X obj 1394 803 s \$0-trans-set;
#X obj 1424 786 s \$0-porta-set;
#X obj 1453 769 s \$0-loop-set;
#X obj 1482 752 s \$0-reverse-set;
#X obj 1511 735 s \$0-offset-set;
#X obj 1560 171 route patch file;
#X obj 1550 238 s \$0-patch-set;
#X obj 1512 281 s \$0-patch_on-set;
#X msg 1481 1145 0;
#X msg 1376 1150 1;
#X obj 1414 1122 loadbang;
#X obj 1113 1185 spigot;
#X obj 1113 1209 outlet;
#X msg 1530 1168 patch \$1;
#X obj 1530 1143 change;
#X obj 1006 881 r \$0-f_freq_midi;
#X obj 1047 901 r \$0-f_freq-num;
#X obj 1096 921 r \$0-f_q-num;
#X obj 1140 941 r \$0-f_hz-num;
#X obj 1197 961 r \$0-inv_f;
#X obj 1212 1001 r \$0-sample;
#X obj 1285 1001 r \$0-bank;
#X obj 1340 1021 r \$0-trans;
#X obj 1405 1043 r \$0-porta;
#X obj 1178 1083 r \$0-loop;
#X obj 1231 1103 r \$0-reverse;
#X obj 1276 1123 r \$0-offset;
#X msg 1006 901 mst \$1;
#X msg 1047 921 freq \$1;
#X msg 1096 941 q \$1;
#X msg 1140 960 depth \$1;
#X msg 1197 981 inv \$1;
#X msg 1212 1021 sample \$1;
#X msg 1285 1021 bank \$1;
#X msg 1340 1041 trans \$1;
#X msg 1405 1063 porta \$1;
#X msg 1178 1103 loop \$1;
#X msg 1231 1123 rev \$1;
#X msg 1276 1143 off \$1;
#X obj 485 286 route bang;
#X msg 811 132 1;
#X obj 800 158 s \$0-sample_change-live;
#X msg 687 182 60;
#X obj 372 271 tabread sizes-32-1;
#X msg 1663 108 set \$1;
#X obj 1666 134 s \$0-sample-set;
#X obj 508 349 t b f;
#X obj 517 375 - 60;
#X obj 519 401 s \$0-trans-set;
#X msg 586 568 1;
#X obj 661 518 r \$0-reverse;
#X obj 647 544 == 0;
#X obj 585 546 spigot 1;
#X obj 609 522 spigot;
#X msg 538 560 0;
#X obj 1030 50 route pitch freq q depth inv sample bank trans porta
loop rev off stop;
#X obj 1349 238 s \$0-stopPlay;
#X obj 1335 293 s \$0-mod_freq-set;
#X msg 1338 271 0;
#X msg 1211 268 const 0;
#X obj 1195 294 s \$0-mod;
#X obj 585 480 r \$0-stopPlay;
#X obj 585 500 del 5;
#X obj 331 724 *~;
#X obj 400 705 line~;
#X msg 439 672 1;
#X obj 483 645 loadbang;
#X msg 473 675 0 5;
#X obj 333 169 moses 5;
#X obj 333 133 t f f;
#X obj 464 65 sel 4;
#X obj 373 134 > 4;
#X obj 527 65 spigot;
#X obj 372 110 < 4;
#X obj 1478 208 route zeroDisplay show;
#X obj 372 593 tof/phasorshot~ 0;
#X obj 681 364 iemlib/bpq2~ 440 10 10;
#X obj 468 20 declare -lib zexy -lib tof -lib iemlib -lib ekext;
#X obj 805 559 ekext/cup;
#X obj 1037 523 list prepend add;
#X obj 1037 545 list trim;
#X obj 1637 1140 list prepend file;
#X obj 1637 1162 list trim;
#X obj 943 103 r \$0-wave;
#X msg 943 125 4;
#X connect 1 0 111 0;
#X connect 1 0 113 0;
#X connect 2 0 1 0;
#X connect 3 0 26 0;
#X connect 4 0 29 0;
#X connect 5 0 2 0;
#X connect 6 0 9 0;
#X connect 7 0 141 0;
#X connect 7 0 144 1;
#X connect 7 0 154 1;
#X connect 7 0 309 0;
#X connect 8 0 30 0;
#X connect 8 1 30 1;
#X connect 8 1 280 0;
#X connect 9 0 280 0;
#X connect 10 0 13 0;
#X connect 11 0 12 0;
#X connect 12 0 20 0;
#X connect 13 0 11 0;
#X connect 14 0 10 0;
#X connect 15 0 22 1;
#X connect 16 0 17 0;
#X connect 17 0 23 0;
#X connect 19 0 24 0;
#X connect 19 1 21 1;
#X connect 20 0 3 0;
#X connect 20 1 3 1;
#X connect 21 0 3 0;
#X connect 22 0 19 0;
#X connect 23 0 18 0;
#X connect 24 0 21 0;
#X connect 25 0 4 0;
#X connect 26 0 25 0;
#X connect 27 0 26 1;
#X connect 28 0 312 2;
#X connect 29 0 312 0;
#X connect 30 0 5 0;
#X connect 31 0 108 0;
#X connect 32 0 33 0;
#X connect 32 1 34 0;
#X connect 33 0 29 1;
#X connect 34 0 29 1;
#X connect 35 0 276 0;
#X connect 36 0 39 0;
#X connect 36 0 71 0;
#X connect 36 0 122 0;
#X connect 36 0 145 0;
#X connect 36 0 302 0;
#X connect 36 1 149 0;
#X connect 36 1 283 0;
#X connect 37 0 38 0;
#X connect 38 0 39 1;
#X connect 39 0 312 1;
#X connect 40 0 41 0;
#X connect 40 1 37 0;
#X connect 41 0 39 1;
#X connect 60 0 71 1;
#X connect 61 0 136 0;
#X connect 61 0 313 1;
#X connect 62 0 65 0;
#X connect 62 0 135 0;
#X connect 63 0 73 0;
#X connect 63 0 137 0;
#X connect 64 0 313 0;
#X connect 65 0 67 0;
#X connect 65 0 313 2;
#X connect 66 0 117 0;
#X connect 67 0 66 1;
#X connect 67 1 70 0;
#X connect 68 0 66 1;
#X connect 69 0 68 0;
#X connect 70 0 69 0;
#X connect 71 0 76 0;
#X connect 71 0 139 0;
#X connect 72 0 4 1;
#X connect 72 0 115 1;
#X connect 73 0 75 0;
#X connect 74 0 72 1;
#X connect 75 0 74 0;
#X connect 77 0 73 1;
#X connect 88 0 89 0;
#X connect 90 0 91 0;
#X connect 90 0 154 1;
#X connect 90 0 307 0;
#X connect 91 0 306 0;
#X connect 92 0 1 0;
#X connect 93 0 98 0;
#X connect 94 0 101 0;
#X connect 94 1 95 0;
#X connect 94 2 102 0;
#X connect 95 0 99 0;
#X connect 96 0 98 1;
#X connect 97 0 98 1;
#X connect 98 0 94 0;
#X connect 100 0 96 0;
#X connect 100 1 105 0;
#X connect 100 2 97 0;
#X connect 101 0 103 1;
#X connect 102 0 103 1;
#X connect 103 0 100 0;
#X connect 104 0 103 0;
#X connect 105 0 106 0;
#X connect 107 0 109 0;
#X connect 108 0 32 0;
#X connect 108 0 40 0;
#X connect 109 0 108 0;
#X connect 109 1 38 1;
#X connect 109 1 41 1;
#X connect 111 0 116 0;
#X connect 112 0 114 0;
#X connect 112 0 113 1;
#X connect 113 0 115 0;
#X connect 114 0 111 1;
#X connect 115 0 116 0;
#X connect 116 0 300 0;
#X connect 117 0 72 0;
#X connect 117 0 76 0;
#X connect 117 0 124 0;
#X connect 118 0 121 0;
#X connect 119 0 117 1;
#X connect 120 0 117 1;
#X connect 121 0 119 0;
#X connect 121 1 120 0;
#X connect 122 0 64 0;
#X connect 124 0 125 0;
#X connect 125 0 128 0;
#X connect 128 0 126 0;
#X connect 128 1 315 0;
#X connect 129 0 130 0;
#X connect 130 0 125 1;
#X connect 131 0 133 0;
#X connect 131 1 132 0;
#X connect 132 0 315 0;
#X connect 133 0 125 1;
#X connect 134 0 129 0;
#X connect 135 0 138 0;
#X connect 136 0 138 0;
#X connect 137 0 138 0;
#X connect 138 0 139 1;
#X connect 139 0 140 0;
#X connect 139 0 131 0;
#X connect 140 0 139 1;
#X connect 141 0 8 0;
#X connect 142 0 141 1;
#X connect 142 0 143 0;
#X connect 143 0 145 1;
#X connect 144 0 8 0;
#X connect 145 0 144 0;
#X connect 146 0 10 0;
#X connect 146 0 277 0;
#X connect 146 0 279 0;
#X connect 147 0 39 0;
#X connect 147 0 122 0;
#X connect 147 0 145 0;
#X connect 147 0 71 0;
#X connect 147 0 302 0;
#X connect 148 0 147 0;
#X connect 148 0 10 0;
#X connect 149 1 148 0;
#X connect 150 0 2 0;
#X connect 151 0 152 0;
#X connect 152 0 150 0;
#X connect 152 0 280 0;
#X connect 152 1 153 0;
#X connect 152 1 154 0;
#X connect 153 0 280 0;
#X connect 155 0 292 0;
#X connect 168 0 244 0;
#X connect 169 0 168 0;
#X connect 169 0 170 0;
#X connect 169 0 171 0;
#X connect 170 0 157 0;
#X connect 171 0 158 0;
#X connect 173 0 209 0;
#X connect 173 1 244 0;
#X connect 173 2 172 0;
#X connect 173 2 281 0;
#X connect 173 3 174 0;
#X connect 173 4 242 0;
#X connect 175 0 228 0;
#X connect 176 0 175 0;
#X connect 177 0 189 0;
#X connect 177 1 178 0;
#X connect 178 0 203 0;
#X connect 179 0 180 0;
#X connect 179 0 190 0;
#X connect 179 0 210 0;
#X connect 180 0 179 1;
#X connect 181 0 179 1;
#X connect 182 0 178 0;
#X connect 183 0 182 0;
#X connect 184 0 179 0;
#X connect 184 0 209 1;
#X connect 184 0 211 0;
#X connect 184 1 229 0;
#X connect 185 0 178 0;
#X connect 186 0 187 0;
#X connect 186 0 190 0;
#X connect 186 0 209 1;
#X connect 187 0 178 0;
#X connect 188 0 178 0;
#X connect 189 0 186 0;
#X connect 189 1 188 0;
#X connect 189 2 185 0;
#X connect 191 0 193 0;
#X connect 191 1 192 0;
#X connect 192 0 178 0;
#X connect 193 0 178 0;
#X connect 194 0 195 0;
#X connect 195 0 204 0;
#X connect 196 0 178 0;
#X connect 197 0 178 0;
#X connect 198 0 178 0;
#X connect 199 0 200 0;
#X connect 200 0 215 0;
#X connect 201 0 178 0;
#X connect 202 0 178 0;
#X connect 203 0 184 0;
#X connect 204 0 198 0;
#X connect 204 1 197 0;
#X connect 204 1 181 0;
#X connect 204 2 196 0;
#X connect 204 2 318 0;
#X connect 204 3 205 0;
#X connect 205 0 178 0;
#X connect 206 0 207 0;
#X connect 207 0 182 0;
#X connect 207 1 205 0;
#X connect 208 0 204 0;
#X connect 209 0 243 0;
#X connect 210 0 212 0;
#X connect 211 0 186 1;
#X connect 213 0 214 0;
#X connect 214 0 246 0;
#X connect 214 1 191 0;
#X connect 214 1 251 0;
#X connect 214 2 245 0;
#X connect 215 0 201 0;
#X connect 215 0 318 0;
#X connect 216 0 175 1;
#X connect 217 0 228 1;
#X connect 218 0 228 2;
#X connect 219 0 228 3;
#X connect 220 0 228 4;
#X connect 221 0 228 5;
#X connect 222 0 228 6;
#X connect 223 0 228 7;
#X connect 224 0 228 8;
#X connect 225 0 228 9;
#X connect 226 0 228 10;
#X connect 227 0 228 11;
#X connect 228 0 316 0;
#X connect 229 0 230 0;
#X connect 229 1 231 0;
#X connect 229 2 232 0;
#X connect 229 3 233 0;
#X connect 229 4 234 0;
#X connect 229 5 235 0;
#X connect 229 6 236 0;
#X connect 229 7 237 0;
#X connect 229 8 238 0;
#X connect 229 9 239 0;
#X connect 229 10 240 0;
#X connect 229 11 241 0;
#X connect 242 0 243 0;
#X connect 242 1 208 0;
#X connect 242 2 311 0;
#X connect 245 0 248 1;
#X connect 246 0 248 1;
#X connect 247 0 246 0;
#X connect 248 0 249 0;
#X connect 250 0 249 0;
#X connect 251 0 250 0;
#X connect 252 0 264 0;
#X connect 253 0 265 0;
#X connect 254 0 266 0;
#X connect 255 0 267 0;
#X connect 256 0 268 0;
#X connect 257 0 269 0;
#X connect 258 0 270 0;
#X connect 259 0 271 0;
#X connect 260 0 272 0;
#X connect 261 0 273 0;
#X connect 262 0 274 0;
#X connect 263 0 275 0;
#X connect 264 0 248 0;
#X connect 265 0 248 0;
#X connect 266 0 248 0;
#X connect 267 0 248 0;
#X connect 268 0 248 0;
#X connect 269 0 248 0;
#X connect 270 0 248 0;
#X connect 271 0 248 0;
#X connect 272 0 248 0;
#X connect 273 0 248 0;
#X connect 274 0 248 0;
#X connect 275 0 248 0;
#X connect 276 0 39 0;
#X connect 276 0 122 0;
#X connect 276 0 71 0;
#X connect 276 0 302 0;
#X connect 276 1 36 0;
#X connect 277 0 278 0;
#X connect 279 0 149 0;
#X connect 280 0 22 0;
#X connect 280 0 92 1;
#X connect 281 0 282 0;
#X connect 283 0 71 0;
#X connect 283 0 39 0;
#X connect 283 0 302 0;
#X connect 283 1 284 0;
#X connect 284 0 285 0;
#X connect 286 0 312 1;
#X connect 287 0 288 0;
#X connect 287 0 290 1;
#X connect 288 0 289 1;
#X connect 289 0 286 0;
#X connect 290 0 291 0;
#X connect 291 0 312 1;
#X connect 292 0 156 0;
#X connect 292 1 157 0;
#X connect 292 2 158 0;
#X connect 292 3 159 0;
#X connect 292 4 160 0;
#X connect 292 5 161 0;
#X connect 292 6 162 0;
#X connect 292 7 163 0;
#X connect 292 8 164 0;
#X connect 292 9 165 0;
#X connect 292 10 166 0;
#X connect 292 11 167 0;
#X connect 292 12 293 0;
#X connect 292 13 173 0;
#X connect 295 0 294 0;
#X connect 296 0 297 0;
#X connect 298 0 299 0;
#X connect 298 0 304 0;
#X connect 299 0 289 0;
#X connect 299 0 290 0;
#X connect 300 0 42 0;
#X connect 301 0 300 1;
#X connect 302 0 301 0;
#X connect 303 0 302 0;
#X connect 304 0 301 0;
#X connect 305 0 6 0;
#X connect 305 0 30 0;
#X connect 305 1 153 0;
#X connect 306 0 305 0;
#X connect 306 1 308 0;
#X connect 306 1 310 0;
#X connect 307 0 154 3;
#X connect 308 0 309 1;
#X connect 309 0 150 0;
#X connect 310 0 154 2;
#X connect 311 0 295 0;
#X connect 311 0 296 0;
#X connect 311 1 294 0;
#X connect 312 0 92 0;
#X connect 313 0 66 0;
#X connect 315 0 126 1;
#X connect 315 0 134 0;
#X connect 316 0 317 0;
#X connect 317 0 177 0;
#X connect 318 0 319 0;
#X connect 319 0 249 0;
#X connect 320 0 321 0;
#X connect 321 0 162 0;
#X coords 0 -1 1 1 292 142 1 20 30;
