#N canvas 586 213 1087 553 10;
#X obj 340 305 route pos;
#X obj 416 331 spigot;
#X obj 249 112 spigot;
#X obj 367 113 spigot;
#X obj 464 113 spigot;
#X obj 555 116 spigot;
#X obj 369 396 spigot;
#X obj 390 374 == 0;
#X obj 509 63 r \$0-master_sync;
#X obj 386 281 r \$0-seq_1_sync_mode;
#X obj 179 316 route pos;
#X obj 299 337 spigot;
#X obj 236 396 spigot;
#X obj 257 374 == 0;
#X obj 253 282 r \$0-seq_0_sync_mode;
#X obj 635 308 route pos;
#X obj 682 330 spigot;
#X obj 635 396 spigot;
#X obj 656 374 == 0;
#X obj 499 307 route pos;
#X obj 549 331 spigot;
#X obj 502 396 spigot;
#X obj 523 374 == 0;
#X obj 519 281 r \$0-seq_2_sync_mode;
#X obj 633 95 sel 0;
#X obj 282 91 == 1;
#X obj 400 92 == 2;
#X obj 497 92 == 3;
#X obj 588 95 == 4;
#X obj 61 149 cnv 15 105 21 empty empty empty 20 12 0 14 -13381 -66577
0;
#X obj 61 127 hradio 21 1 0 5 \$0-master_sync \$0-master_sync-set master_sync
0 -6 0 10 -13381 -262130 -16662 2;
#X obj 85 153 tgl 13 0 \$0-seq_0_sync_mode \$0-seq_0_sync_mode-set
empty 0 -6 0 10 -257985 -1 -1 1 1;
#X obj 106 153 tgl 13 0 \$0-seq_1_sync_mode \$0-seq_1_sync_mode-set
empty 0 -6 0 10 -4034 -1 -1 1 1;
#X obj 127 153 tgl 13 0 \$0-seq_2_sync_mode \$0-seq_2_sync_mode-set
empty 0 -6 0 10 -4032 -1 -1 1 1;
#X obj 148 153 tgl 13 0 \$0-seq_3_sync_mode \$0-seq_3_sync_mode-set
empty 0 -6 0 10 -159808 -1 -1 1 1;
#X obj 61 171 cnv 15 105 15 empty empty -metasync--mode- 5 6 0 10 -204786
-13330 0;
#X msg 752 357 0;
#X obj 752 336 loadbang;
#X obj 857 131 s \$0-seq_3_sync_mode-set;
#X obj 833 148 s \$0-seq_2_sync_mode-set;
#X obj 810 165 s \$0-seq_1_sync_mode-set;
#X obj 789 182 s \$0-seq_0_sync_mode-set;
#X msg 789 105 1;
#X obj 787 82 loadbang;
#X obj 296 113 == 0;
#X obj 413 113 == 0;
#X obj 510 113 == 0;
#X obj 600 116 == 0;
#X obj 633 116 del 0;
#X msg 633 137 0;
#X obj 249 37 inlet;
#X obj 367 36 inlet;
#X obj 464 37 inlet;
#X obj 555 36 inlet;
#X obj 288 477 outlet;
#X obj 421 476 outlet;
#X obj 554 477 outlet;
#X obj 687 476 outlet;
#X msg 280 251 c_ext \$1;
#X msg 412 251 c_ext \$1;
#X obj 652 281 r \$0-seq_3_sync_mode;
#X msg 546 251 c_ext \$1;
#X msg 679 251 c_ext \$1;
#X obj 238 346 spigot;
#X msg 296 393 tempo bang;
#X obj 272 139 sel 1;
#X obj 248 168 delay 0;
#X obj 368 346 spigot;
#X obj 402 139 sel 1;
#X obj 378 168 delay 0;
#X obj 498 346 spigot;
#X obj 492 139 sel 1;
#X obj 468 168 delay 0;
#X obj 618 346 spigot;
#X obj 592 139 sel 1;
#X obj 568 168 delay 0;
#X msg 416 393 tempo bang;
#X msg 556 393 tempo bang;
#X msg 686 393 tempo bang;
#X obj 913 46 inlet;
#N canvas 488 676 450 300 automation 0;
#X obj 102 47 inlet;
#X obj 99 233 s seq_0_sync_mode-set;
#X obj 196 148 s \$0-master_sync-set;
#X obj 121 212 s seq_1_sync_mode-set;
#X obj 145 191 s seq_2_sync_mode-set;
#X obj 169 168 s seq_3_sync_mode-set;
#X obj 49 115 route msync mode1 mode2 mode3 mode4;
#X connect 0 0 6 0;
#X connect 6 0 2 0;
#X connect 6 1 1 0;
#X connect 6 2 3 0;
#X connect 6 3 4 0;
#X connect 6 4 5 0;
#X restore 882 76 pd automation;
#X msg 886 410 mode4 \$1;
#X obj 849 444 outlet;
#X msg 905 437 msync \$1;
#X msg 236 421 pos \$1;
#X msg 378 435 pos \$1;
#X msg 502 430 pos \$1;
#X msg 625 436 pos \$1;
#X msg 308 366 trig;
#X msg 431 355 trig;
#X msg 559 363 trig;
#X msg 707 369 trig;
#X msg 871 386 mode3 \$1;
#X msg 851 360 mode2 \$1;
#X msg 836 336 mode1 \$1;
#X connect 0 0 6 0;
#X connect 0 0 1 0;
#X connect 0 1 67 0;
#X connect 1 0 89 0;
#X connect 2 0 0 0;
#X connect 2 0 19 0;
#X connect 2 0 15 0;
#X connect 3 0 10 0;
#X connect 3 0 19 0;
#X connect 3 0 15 0;
#X connect 4 0 10 0;
#X connect 4 0 0 0;
#X connect 4 0 15 0;
#X connect 5 0 10 0;
#X connect 5 0 0 0;
#X connect 5 0 19 0;
#X connect 6 0 85 0;
#X connect 7 0 6 1;
#X connect 8 0 24 0;
#X connect 8 0 25 0;
#X connect 8 0 26 0;
#X connect 8 0 27 0;
#X connect 8 0 28 0;
#X connect 8 0 83 0;
#X connect 9 0 7 0;
#X connect 9 0 1 1;
#X connect 9 0 93 0;
#X connect 10 0 12 0;
#X connect 10 0 11 0;
#X connect 10 1 63 0;
#X connect 11 0 88 0;
#X connect 12 0 84 0;
#X connect 13 0 12 1;
#X connect 14 0 13 0;
#X connect 14 0 11 1;
#X connect 14 0 94 0;
#X connect 15 0 17 0;
#X connect 15 0 16 0;
#X connect 15 1 73 0;
#X connect 16 0 91 0;
#X connect 17 0 87 0;
#X connect 18 0 17 1;
#X connect 19 0 21 0;
#X connect 19 0 20 0;
#X connect 19 1 70 0;
#X connect 20 0 90 0;
#X connect 21 0 86 0;
#X connect 22 0 21 1;
#X connect 23 0 22 0;
#X connect 23 0 20 1;
#X connect 23 0 92 0;
#X connect 24 0 48 0;
#X connect 25 0 2 1;
#X connect 25 0 44 0;
#X connect 25 0 65 0;
#X connect 25 0 63 1;
#X connect 26 0 3 1;
#X connect 26 0 45 0;
#X connect 26 0 68 0;
#X connect 26 0 67 1;
#X connect 27 0 4 1;
#X connect 27 0 46 0;
#X connect 27 0 71 0;
#X connect 27 0 70 1;
#X connect 28 0 5 1;
#X connect 28 0 47 0;
#X connect 28 0 74 0;
#X connect 28 0 73 1;
#X connect 36 0 18 0;
#X connect 36 0 22 0;
#X connect 36 0 7 0;
#X connect 36 0 13 0;
#X connect 37 0 36 0;
#X connect 42 0 41 0;
#X connect 42 0 40 0;
#X connect 42 0 39 0;
#X connect 42 0 38 0;
#X connect 43 0 42 0;
#X connect 44 0 58 0;
#X connect 45 0 59 0;
#X connect 46 0 61 0;
#X connect 47 0 62 0;
#X connect 48 0 49 0;
#X connect 49 0 62 0;
#X connect 49 0 61 0;
#X connect 49 0 59 0;
#X connect 49 0 58 0;
#X connect 50 0 2 0;
#X connect 51 0 3 0;
#X connect 52 0 4 0;
#X connect 53 0 5 0;
#X connect 58 0 54 0;
#X connect 59 0 55 0;
#X connect 60 0 18 0;
#X connect 60 0 16 1;
#X connect 60 0 81 0;
#X connect 61 0 56 0;
#X connect 62 0 57 0;
#X connect 63 0 54 0;
#X connect 64 0 54 0;
#X connect 65 0 66 0;
#X connect 66 0 64 0;
#X connect 67 0 55 0;
#X connect 68 0 69 0;
#X connect 69 0 76 0;
#X connect 70 0 56 0;
#X connect 71 0 72 0;
#X connect 72 0 77 0;
#X connect 73 0 57 0;
#X connect 74 0 75 0;
#X connect 75 0 78 0;
#X connect 76 0 55 0;
#X connect 77 0 56 0;
#X connect 78 0 57 0;
#X connect 79 0 80 0;
#X connect 81 0 82 0;
#X connect 83 0 82 0;
#X connect 84 0 54 0;
#X connect 85 0 55 0;
#X connect 86 0 56 0;
#X connect 87 0 57 0;
#X connect 88 0 54 0;
#X connect 89 0 55 0;
#X connect 90 0 56 0;
#X connect 91 0 57 0;
#X connect 92 0 82 0;
#X connect 93 0 82 0;
#X connect 94 0 82 0;
#X coords 0 -1 1 1 107 90 1 60 100;
