#N canvas 11 69 1257 668 10;
#X obj 48 136 tgl 35 0 \$0-SEQ_1 \$0-SEQ_1-SET 1 11 18 0 24 -232576
-45076 -159808 0 1;
#X obj 83 136 tgl 35 0 \$0-SEQ_2 \$0-SEQ_2-SET 2 11 18 0 24 -203904
-16662 -4160 0 1;
#X obj 118 136 tgl 35 0 \$0-SEQ_3 \$0-SEQ_3-SET 3 11 18 0 24 -204800
-13330 -3252 1 1;
#X obj 153 136 tgl 35 0 \$0-SEQ_4 \$0-SEQ_4-SET 4 11 18 0 24 -204786
-13381 -2946 0 1;
#X obj 188 136 tgl 35 0 \$0-SEQ_5 \$0-SEQ_5-SET 5 11 18 0 24 -262130
-83269 -183105 0 1;
#X obj 223 136 tgl 35 0 \$0-SEQ_6 \$0-SEQ_6-SET 6 11 18 0 24 -261682
-86853 -156673 0 1;
#X obj 258 136 tgl 35 0 \$0-SEQ_7 \$0-SEQ_7-SET 7 11 18 0 24 -261234
-86277 -196673 0 1;
#X obj 13 171 hradio 35 1 0 8 \$0-SYNC \$0-SYNC-SET SYNC 0 -6 0 12
-191407 -1 -162280 1;
#X obj 462 104 inlet;
#X obj 384 123 route s1 s2 s3 s4 s5 s6 s7;
#X obj 384 239 s \$0-SEQ_1-SET;
#X obj 405 223 s \$0-SEQ_2-SET;
#X obj 427 207 s \$0-SEQ_3-SET;
#X obj 449 191 s \$0-SEQ_4-SET;
#X obj 471 175 s \$0-SEQ_5-SET;
#X obj 493 159 s \$0-SEQ_6-SET;
#X obj 515 143 s \$0-SEQ_7-SET;
#X obj 612 123 route sync;
#X obj 612 193 s \$0-SYNC-SET;
#X obj 16 222 tgl 14 0 \$0-sync_1 \$0-sync_1-set sync -3 -5 0 8 -262144
-1 -1 0 1;
#X obj 36 222 tgl 14 0 \$0-postrig_1 \$0-postrig_1-set pos -2 -5 0
8 -262144 -1 -1 0 1;
#X obj 16 240 tgl 14 0 \$0-syncpulse_1 \$0-syncpulse_1-set barsync
-1 21 0 8 -262144 -1 -1 0 1;
#X obj 56 222 tgl 14 0 \$0-sync_2 \$0-sync_2-set sync -3 -5 0 8 -262144
-1 -1 1 1;
#X obj 76 222 tgl 14 0 \$0-postrig_2 \$0-postrig_2-set pos -2 -5 0
8 -262144 -1 -1 0 1;
#X obj 56 240 tgl 14 0 \$0-syncpulse_2 \$0-syncpulse_2-set barsync
-1 21 0 8 -262144 -1 -1 0 1;
#X obj 96 222 tgl 14 0 \$0-sync_3 \$0-sync_3-set sync -3 -5 0 8 -262144
-1 -1 1 1;
#X obj 116 222 tgl 14 0 \$0-postrig_3 \$0-postrig_3-set pos -2 -5 0
8 -262144 -1 -1 0 1;
#X obj 96 240 tgl 14 0 \$0-syncpulse_3 \$0-syncpulse_3-set barsync
-1 21 0 8 -262144 -1 -1 0 1;
#X obj 136 222 tgl 14 0 \$0-sync_4 \$0-sync_4-set sync -3 -5 0 8 -262144
-1 -1 1 1;
#X obj 156 222 tgl 14 0 \$0-postrig_4 \$0-postrig_4-set pos -2 -5 0
8 -262144 -1 -1 0 1;
#X obj 136 240 tgl 14 0 \$0-syncpulse_4 \$0-syncpulse_4-set barsync
-1 21 0 8 -262144 -1 -1 0 1;
#X obj 176 222 tgl 14 0 \$0-sync_5 \$0-sync_5-set sync -3 -5 0 8 -262144
-1 -1 1 1;
#X obj 196 222 tgl 14 0 \$0-postrig_5 \$0-postrig_5-set pos -2 -5 0
8 -262144 -1 -1 0 1;
#X obj 176 240 tgl 14 0 \$0-syncpulse_5 \$0-syncpulse_5-set barsync
-1 21 0 8 -262144 -1 -1 0 1;
#X obj 216 222 tgl 14 0 \$0-sync_6 \$0-sync_6-set sync -3 -5 0 8 -262144
-1 -1 1 1;
#X obj 236 222 tgl 14 0 \$0-postrig_6 \$0-postrig_6-set pos -2 -5 0
8 -262144 -1 -1 0 1;
#X obj 216 240 tgl 14 0 \$0-syncpulse_6 \$0-syncpulse_6-set barsync
-1 21 0 8 -262144 -1 -1 0 1;
#X obj 256 222 tgl 14 0 \$0-sync_7 \$0-sync_7-set sync -3 -5 0 8 -262144
-1 -1 1 1;
#X obj 276 222 tgl 14 0 \$0-postrig_7 \$0-postrig_7-set pos -2 -5 0
8 -262144 -1 -1 0 1;
#X obj 256 240 tgl 14 0 \$0-syncpulse_7 \$0-syncpulse_7-set barsync
-1 21 0 8 -262144 -1 -1 0 1;
#X obj 34 239 cnv 15 16 16 empty empty 1 3 8 0 14 -232576 -45076 0
;
#X obj 74 239 cnv 15 16 16 empty empty 2 3 8 0 14 -203904 -16662 0
;
#X obj 114 239 cnv 15 16 16 empty empty 3 3 8 0 14 -204800 -13330 0
;
#X obj 154 239 cnv 15 16 16 empty empty 4 3 8 0 14 -204786 -13381 0
;
#X obj 194 239 cnv 15 16 16 empty empty 5 3 8 0 14 -262130 -83269 0
;
#X obj 234 239 cnv 15 16 16 empty empty 6 3 8 0 14 -261682 -86853 0
;
#X obj 274 239 cnv 15 16 16 empty empty 7 3 8 0 14 -261234 -86277 0
;
#X obj 77 1041 outlet;
#X obj 86 364 inlet;
#X obj 86 383 route seq1 seq2 seq3 seq4 seq5 seq6 seq7;
#X obj 71 452 spigot;
#X obj 108 432 == 1;
#X obj 141 452 spigot;
#X obj 211 452 spigot;
#X obj 281 452 spigot;
#X obj 351 452 spigot;
#X obj 421 452 spigot;
#X obj 491 452 spigot;
#X obj 178 432 == 2;
#X obj 248 432 == 3;
#X obj 318 432 == 4;
#X obj 388 432 == 5;
#X obj 458 432 == 6;
#X obj 528 432 == 7;
#X obj 149 476 s \$0-seq_ctl;
#X obj 48 655 r \$0-seq_ctl;
#X obj 751 109 route postrig;
#X obj 712 161 route global;
#X obj 780 295 s \$0-postrig_1-set;
#X obj 572 480 s \$0-sync_1-set;
#X obj 572 442 != 1;
#X obj 572 423 t f f;
#X obj 600 442 != 0;
#X obj 572 461 &&;
#X obj 672 423 t f f;
#X obj 700 442 != 0;
#X obj 672 461 &&;
#X obj 529 380 r \$0-SYNC;
#X obj 527 399 t f f;
#X obj 672 442 != 2;
#X obj 772 423 t f f;
#X obj 800 442 != 0;
#X obj 772 461 &&;
#X obj 872 423 t f f;
#X obj 900 442 != 0;
#X obj 872 461 &&;
#X obj 972 423 t f f;
#X obj 1000 442 != 0;
#X obj 972 461 &&;
#X obj 1072 423 t f f;
#X obj 1100 442 != 0;
#X obj 1072 461 &&;
#X obj 1172 423 t f f;
#X obj 1200 442 != 0;
#X obj 1172 461 &&;
#X obj 772 442 != 3;
#X obj 872 442 != 4;
#X obj 972 442 != 5;
#X obj 1072 442 != 6;
#X obj 1172 442 != 7;
#X obj 1172 480 s \$0-sync_7-set;
#X obj 1072 480 s \$0-sync_6-set;
#X obj 972 480 s \$0-sync_5-set;
#X obj 872 480 s \$0-sync_4-set;
#X obj 772 480 s \$0-sync_3-set;
#X obj 672 480 s \$0-sync_2-set;
#X obj 795 279 s \$0-postrig_2-set;
#X obj 811 263 s \$0-postrig_3-set;
#X obj 827 247 s \$0-postrig_4-set;
#X obj 843 231 s \$0-postrig_5-set;
#X obj 859 215 s \$0-postrig_6-set;
#X obj 875 199 s \$0-postrig_7-set;
#X msg 751 87 postrig global 1;
#X obj 751 68 loadbang;
#X obj 780 180 route 1 2 3 4 5 6 7;
#X obj 690 511 r \$0-SEQ_1;
#X obj 690 530 sel 1 0;
#X msg 690 549 start;
#X msg 724 549 stop;
#X obj 690 568 prepend seq1;
#X obj 770 530 sel 1 0;
#X msg 770 549 start;
#X msg 804 549 stop;
#X obj 770 511 r \$0-SEQ_2;
#X obj 770 568 prepend seq2;
#X obj 850 530 sel 1 0;
#X msg 850 549 start;
#X msg 884 549 stop;
#X obj 930 530 sel 1 0;
#X msg 930 549 start;
#X msg 964 549 stop;
#X obj 1010 530 sel 1 0;
#X msg 1010 549 start;
#X msg 1044 549 stop;
#X obj 1090 530 sel 1 0;
#X msg 1090 549 start;
#X msg 1124 549 stop;
#X obj 1170 530 sel 1 0;
#X msg 1170 549 start;
#X msg 1204 549 stop;
#X obj 850 511 r \$0-SEQ_3;
#X obj 930 511 r \$0-SEQ_4;
#X obj 1010 511 r \$0-SEQ_5;
#X obj 1090 511 r \$0-SEQ_6;
#X obj 1170 511 r \$0-SEQ_7;
#X obj 1170 568 prepend seq7;
#X obj 1090 568 prepend seq6;
#X obj 1010 568 prepend seq5;
#X obj 930 568 prepend seq4;
#X obj 850 568 prepend seq3;
#X obj 668 264 r \$0-SYNC;
#X msg 505 264 tempo \$1;
#X obj 538 226 route tempo num div;
#X msg 562 264 num \$1;
#X msg 607 264 div \$1;
#X obj 651 286 makefilename seq%d;
#X obj 563 321 prepend seq1;
#X obj 497 355 route list;
#X obj 317 70 s \$0-syncpulse_1-set;
#X obj 947 359 outlet;
#X msg 947 340 SYNC \$1;
#X obj 22 144 tgl 14 0 \$0-postrig_M \$0-postrig_M-set trig -2 -5 0
8 -262144 -1 -1 1 1;
#X obj 853 124 r \$0-postrig_M;
#X msg 854 144 global \$1;
#X obj 1014 152 sel 0 1;
#X msg 1014 172 label pos;
#X msg 1079 173 label trig;
#X obj 1014 132 r \$0-postrig_M;
#X obj 1017 192 s \$0-postrig_M-set;
#X obj 918 23 r \$0-postrig_1;
#X obj 918 43 sel 0 1;
#X msg 918 63 label pos;
#X msg 983 64 label trig;
#X obj 918 83 s \$0-postrig_1-set;
#X obj 1048 43 sel 0 1;
#X msg 1048 63 label pos;
#X msg 1113 64 label trig;
#X obj 1048 23 r \$0-postrig_2;
#X obj 1048 83 s \$0-postrig_2-set;
#X obj 1179 44 sel 0 1;
#X msg 1179 64 label pos;
#X msg 1244 65 label trig;
#X obj 1309 44 sel 0 1;
#X msg 1309 64 label pos;
#X msg 1374 65 label trig;
#X obj 1179 24 r \$0-postrig_3;
#X obj 1179 84 s \$0-postrig_3-set;
#X obj 1309 24 r \$0-postrig_4;
#X obj 1309 84 s \$0-postrig_4-set;
#X obj 1173 136 sel 0 1;
#X msg 1173 156 label pos;
#X msg 1238 157 label trig;
#X obj 1304 137 sel 0 1;
#X msg 1304 157 label pos;
#X msg 1369 158 label trig;
#X obj 1434 137 sel 0 1;
#X msg 1434 157 label pos;
#X msg 1499 158 label trig;
#X obj 1173 116 r \$0-postrig_5;
#X obj 1173 176 s \$0-postrig_5-set;
#X obj 1304 117 r \$0-postrig_6;
#X obj 1304 177 s \$0-postrig_6-set;
#X obj 1434 117 r \$0-postrig_7;
#X obj 1434 177 s \$0-postrig_7-set;
#X obj 233 891 spigot;
#X msg 290 875 1;
#X msg 292 896 0;
#X obj 348 894 spigot;
#X msg 405 878 1;
#X msg 401 902 0;
#X obj 358 853 sel 1 0;
#X obj 358 832 r \$0-sync_1;
#X obj 106 822 spigot 1;
#X obj 219 870 t b;
#X obj 162 821 spigot;
#X obj 175 761 r \$0-postrig_1;
#X obj 175 797 == 0;
#X obj 333 872 t b;
#X msg 328 935 trig;
#X obj 489 850 spigot;
#X obj 544 829 r \$0-syncpulse_1;
#X msg 395 931 c_ext 0;
#X msg 545 850 syncon \$1;
#X msg 272 916 syncon 0;
#X msg 233 936 c_ext 1;
#X msg 313 797 stepdur \$1;
#X obj 324 740 r \$0-SYNC;
#X obj 316 778 f;
#X obj 324 759 sel 1;
#X obj 584 869 r \$0-SEQ_1;
#X obj 584 888 == 0;
#X obj 534 918 spigot 1;
#X obj 4 912 route reset;
#X obj 4 931 prepend reset;
#X obj 104 914 route countset;
#X obj 105 934 prepend countset;
#X obj 228 815 route pulse;
#X obj 228 834 prepend pulse;
#X obj 208 677 route tempo num div;
#X msg 423 738 1;
#X msg 440 721 2;
#X msg 457 704 4;
#X msg 474 687 8;
#X msg 662 720 4.5;
#X msg 679 737 9;
#X msg 491 737 1.5;
#X msg 508 720 3;
#X msg 525 703 6;
#X msg 542 737 12;
#X msg 559 720 2.5;
#X msg 576 737 5;
#X msg 593 720 10;
#X msg 610 737 3.5;
#X msg 628 720 7;
#X msg 645 737 14;
#X obj 423 667 sel 0 1 2 3 4 5 6 7 8 9 10 11 12 13 14 15;
#X obj 430 763 f;
#X obj 207 706 expr 60000/$f1;
#X obj 277 733 / 4;
#X obj 277 752 * 1;
#X obj 452 872 route sync;
#X obj 452 896 prepend sync;
#X obj 84 866 route pos;
#X obj 84 885 prepend pos;
#X text 359 759 <--;
#X text 149 760 -->;
#X text 428 831 <--;
#X text 609 816 V;
#X text 609 807 |;
#X obj 79 1014 prepend seq1;
#X text 626 884 ^;
#X text 626 887 |;
#X obj 738 655 r \$0-seq_ctl;
#X obj 923 891 spigot;
#X msg 980 875 1;
#X msg 982 896 0;
#X obj 1038 894 spigot;
#X msg 1095 878 1;
#X msg 1091 902 0;
#X obj 1048 853 sel 1 0;
#X obj 796 822 spigot 1;
#X obj 909 870 t b;
#X obj 852 821 spigot;
#X obj 865 797 == 0;
#X obj 1023 872 t b;
#X msg 1010 940 trig;
#X obj 1179 850 spigot;
#X msg 1085 931 c_ext 0;
#X msg 1235 850 syncon \$1;
#X msg 962 916 syncon 0;
#X msg 923 936 c_ext 1;
#X msg 1003 797 stepdur \$1;
#X obj 1014 740 r \$0-SYNC;
#X obj 1006 778 f;
#X obj 1274 888 == 0;
#X obj 1224 918 spigot 1;
#X obj 694 912 route reset;
#X obj 694 931 prepend reset;
#X obj 794 914 route countset;
#X obj 795 934 prepend countset;
#X obj 918 815 route pulse;
#X obj 918 834 prepend pulse;
#X obj 898 677 route tempo num div;
#X msg 1082 746 1;
#X msg 1099 729 2;
#X msg 1116 712 4;
#X msg 1133 695 8;
#X msg 1321 728 4.5;
#X msg 1338 745 9;
#X msg 1150 745 1.5;
#X msg 1167 728 3;
#X msg 1184 711 6;
#X msg 1201 745 12;
#X msg 1218 728 2.5;
#X msg 1235 745 5;
#X msg 1252 728 10;
#X msg 1269 745 3.5;
#X msg 1287 728 7;
#X msg 1304 745 14;
#X obj 1082 675 sel 0 1 2 3 4 5 6 7 8 9 10 11 12 13 14 15;
#X obj 1089 771 f;
#X obj 897 706 expr 60000/$f1;
#X obj 967 733 / 4;
#X obj 967 752 * 1;
#X obj 1142 872 route sync;
#X obj 1142 896 prepend sync;
#X obj 774 866 route pos;
#X obj 774 885 prepend pos;
#X text 1049 759 <--;
#X text 839 760 -->;
#X text 1118 831 <--;
#X text 1299 816 V;
#X text 1299 807 |;
#X text 1316 884 ^;
#X text 1316 887 |;
#X obj 865 761 r \$0-postrig_2;
#X obj 1014 759 sel 2;
#X obj 1048 832 r \$0-sync_2;
#X obj 1234 829 r \$0-syncpulse_2;
#X obj 1274 869 r \$0-SEQ_2;
#X obj 708 987 prepend seq2;
#X obj 1374 665 r \$0-seq_ctl;
#X obj 1559 901 spigot;
#X msg 1616 885 1;
#X msg 1618 906 0;
#X obj 1674 904 spigot;
#X msg 1731 888 1;
#X msg 1727 912 0;
#X obj 1684 863 sel 1 0;
#X obj 1432 832 spigot 1;
#X obj 1545 880 t b;
#X obj 1488 831 spigot;
#X obj 1501 807 == 0;
#X obj 1659 882 t b;
#X msg 1646 950 trig;
#X obj 1815 860 spigot;
#X msg 1721 941 c_ext 0;
#X msg 1871 860 syncon \$1;
#X msg 1598 926 syncon 0;
#X msg 1559 946 c_ext 1;
#X msg 1639 807 stepdur \$1;
#X obj 1650 750 r \$0-SYNC;
#X obj 1642 788 f;
#X obj 1910 898 == 0;
#X obj 1860 928 spigot 1;
#X obj 1330 922 route reset;
#X obj 1330 941 prepend reset;
#X obj 1430 924 route countset;
#X obj 1431 944 prepend countset;
#X obj 1554 825 route pulse;
#X obj 1554 844 prepend pulse;
#X obj 1534 687 route tempo num div;
#X msg 1718 756 1;
#X msg 1735 739 2;
#X msg 1752 722 4;
#X msg 1769 705 8;
#X msg 1957 738 4.5;
#X msg 1974 755 9;
#X msg 1786 755 1.5;
#X msg 1803 738 3;
#X msg 1820 721 6;
#X msg 1837 755 12;
#X msg 1854 738 2.5;
#X msg 1871 755 5;
#X msg 1888 738 10;
#X msg 1905 755 3.5;
#X msg 1923 738 7;
#X msg 1940 755 14;
#X obj 1718 685 sel 0 1 2 3 4 5 6 7 8 9 10 11 12 13 14 15;
#X obj 1725 781 f;
#X obj 1533 716 expr 60000/$f1;
#X obj 1603 743 / 4;
#X obj 1603 762 * 1;
#X obj 1778 882 route sync;
#X obj 1778 906 prepend sync;
#X obj 1410 876 route pos;
#X obj 1410 895 prepend pos;
#X text 1685 769 <--;
#X text 1475 770 -->;
#X text 1754 841 <--;
#X text 1935 826 V;
#X text 1935 817 |;
#X text 1952 894 ^;
#X text 1952 897 |;
#X obj 2023 660 r \$0-seq_ctl;
#X obj 2208 896 spigot;
#X msg 2265 880 1;
#X msg 2267 901 0;
#X obj 2323 899 spigot;
#X msg 2380 883 1;
#X msg 2376 907 0;
#X obj 2333 858 sel 1 0;
#X obj 2081 827 spigot 1;
#X obj 2194 875 t b;
#X obj 2137 826 spigot;
#X obj 2150 802 == 0;
#X obj 2308 877 t b;
#X msg 2295 945 trig;
#X obj 2464 855 spigot;
#X msg 2370 936 c_ext 0;
#X msg 2520 855 syncon \$1;
#X msg 2247 921 syncon 0;
#X msg 2208 941 c_ext 1;
#X msg 2288 802 stepdur \$1;
#X obj 2299 745 r \$0-SYNC;
#X obj 2291 783 f;
#X obj 2559 893 == 0;
#X obj 2509 923 spigot 1;
#X obj 1979 917 route reset;
#X obj 1979 936 prepend reset;
#X obj 2079 919 route countset;
#X obj 2080 939 prepend countset;
#X obj 2203 820 route pulse;
#X obj 2203 839 prepend pulse;
#X obj 2183 682 route tempo num div;
#X msg 2367 751 1;
#X msg 2384 734 2;
#X msg 2401 717 4;
#X msg 2418 700 8;
#X msg 2606 733 4.5;
#X msg 2623 750 9;
#X msg 2435 750 1.5;
#X msg 2452 733 3;
#X msg 2469 716 6;
#X msg 2486 750 12;
#X msg 2503 733 2.5;
#X msg 2520 750 5;
#X msg 2537 733 10;
#X msg 2554 750 3.5;
#X msg 2572 733 7;
#X msg 2589 750 14;
#X obj 2367 680 sel 0 1 2 3 4 5 6 7 8 9 10 11 12 13 14 15;
#X obj 2374 776 f;
#X obj 2182 711 expr 60000/$f1;
#X obj 2252 738 / 4;
#X obj 2252 757 * 1;
#X obj 2427 877 route sync;
#X obj 2427 901 prepend sync;
#X obj 2059 871 route pos;
#X obj 2059 890 prepend pos;
#X text 2334 764 <--;
#X text 2124 765 -->;
#X text 2403 836 <--;
#X text 2584 821 V;
#X text 2584 812 |;
#X text 2601 889 ^;
#X text 2601 892 |;
#X obj 2673 654 r \$0-seq_ctl;
#X obj 2858 890 spigot;
#X msg 2915 874 1;
#X msg 2917 895 0;
#X obj 2973 893 spigot;
#X msg 3030 877 1;
#X msg 3026 901 0;
#X obj 2983 852 sel 1 0;
#X obj 2731 821 spigot 1;
#X obj 2844 869 t b;
#X obj 2787 820 spigot;
#X obj 2800 796 == 0;
#X obj 2958 871 t b;
#X msg 2945 939 trig;
#X obj 3114 849 spigot;
#X msg 3020 930 c_ext 0;
#X msg 3170 849 syncon \$1;
#X msg 2897 915 syncon 0;
#X msg 2858 935 c_ext 1;
#X msg 2938 796 stepdur \$1;
#X obj 2949 739 r \$0-SYNC;
#X obj 2941 777 f;
#X obj 3209 887 == 0;
#X obj 3159 917 spigot 1;
#X obj 2629 911 route reset;
#X obj 2629 930 prepend reset;
#X obj 2729 913 route countset;
#X obj 2730 933 prepend countset;
#X obj 2853 814 route pulse;
#X obj 2853 833 prepend pulse;
#X obj 2833 676 route tempo num div;
#X msg 3017 745 1;
#X msg 3034 728 2;
#X msg 3051 711 4;
#X msg 3068 694 8;
#X msg 3256 727 4.5;
#X msg 3273 744 9;
#X msg 3085 744 1.5;
#X msg 3102 727 3;
#X msg 3119 710 6;
#X msg 3136 744 12;
#X msg 3153 727 2.5;
#X msg 3170 744 5;
#X msg 3187 727 10;
#X msg 3204 744 3.5;
#X msg 3222 727 7;
#X msg 3239 744 14;
#X obj 3017 674 sel 0 1 2 3 4 5 6 7 8 9 10 11 12 13 14 15;
#X obj 3024 770 f;
#X obj 2832 705 expr 60000/$f1;
#X obj 2902 732 / 4;
#X obj 2902 751 * 1;
#X obj 3077 871 route sync;
#X obj 3077 895 prepend sync;
#X obj 2709 865 route pos;
#X obj 2709 884 prepend pos;
#X text 2984 758 <--;
#X text 2774 759 -->;
#X text 3053 830 <--;
#X text 3234 815 V;
#X text 3234 806 |;
#X text 3251 883 ^;
#X text 3251 886 |;
#X obj 2020 306 r \$0-seq_ctl;
#X obj 2205 542 spigot;
#X msg 2262 526 1;
#X msg 2264 547 0;
#X obj 2320 545 spigot;
#X msg 2377 529 1;
#X msg 2373 553 0;
#X obj 2330 504 sel 1 0;
#X obj 2078 473 spigot 1;
#X obj 2191 521 t b;
#X obj 2134 472 spigot;
#X obj 2147 448 == 0;
#X obj 2305 523 t b;
#X msg 2292 591 trig;
#X obj 2461 501 spigot;
#X msg 2367 582 c_ext 0;
#X msg 2517 501 syncon \$1;
#X msg 2244 567 syncon 0;
#X msg 2205 587 c_ext 1;
#X msg 2285 448 stepdur \$1;
#X obj 2296 391 r \$0-SYNC;
#X obj 2288 429 f;
#X obj 2556 539 == 0;
#X obj 2506 569 spigot 1;
#X obj 1976 563 route reset;
#X obj 1976 582 prepend reset;
#X obj 2076 565 route countset;
#X obj 2077 585 prepend countset;
#X obj 2200 466 route pulse;
#X obj 2200 485 prepend pulse;
#X obj 2180 328 route tempo num div;
#X msg 2364 397 1;
#X msg 2381 380 2;
#X msg 2398 363 4;
#X msg 2415 346 8;
#X msg 2603 379 4.5;
#X msg 2620 396 9;
#X msg 2432 396 1.5;
#X msg 2449 379 3;
#X msg 2466 362 6;
#X msg 2483 396 12;
#X msg 2500 379 2.5;
#X msg 2517 396 5;
#X msg 2534 379 10;
#X msg 2551 396 3.5;
#X msg 2569 379 7;
#X msg 2586 396 14;
#X obj 2364 326 sel 0 1 2 3 4 5 6 7 8 9 10 11 12 13 14 15;
#X obj 2371 422 f;
#X obj 2179 357 expr 60000/$f1;
#X obj 2249 384 / 4;
#X obj 2249 403 * 1;
#X obj 2424 523 route sync;
#X obj 2424 547 prepend sync;
#X obj 2056 517 route pos;
#X obj 2056 536 prepend pos;
#X text 2331 410 <--;
#X text 2121 411 -->;
#X text 2400 482 <--;
#X text 2581 467 V;
#X text 2581 458 |;
#X text 2598 535 ^;
#X text 2598 538 |;
#X obj 2670 300 r \$0-seq_ctl;
#X obj 2855 536 spigot;
#X msg 2912 520 1;
#X msg 2914 541 0;
#X obj 2970 539 spigot;
#X msg 3027 523 1;
#X msg 3023 547 0;
#X obj 2980 498 sel 1 0;
#X obj 2728 467 spigot 1;
#X obj 2841 515 t b;
#X obj 2784 466 spigot;
#X obj 2797 442 == 0;
#X obj 2955 517 t b;
#X msg 2942 585 trig;
#X obj 3111 495 spigot;
#X msg 3017 576 c_ext 0;
#X msg 3167 495 syncon \$1;
#X msg 2894 561 syncon 0;
#X msg 2855 581 c_ext 1;
#X msg 2935 442 stepdur \$1;
#X obj 2946 385 r \$0-SYNC;
#X obj 2938 423 f;
#X obj 3206 533 == 0;
#X obj 3156 563 spigot 1;
#X obj 2626 557 route reset;
#X obj 2626 576 prepend reset;
#X obj 2726 559 route countset;
#X obj 2727 579 prepend countset;
#X obj 2850 460 route pulse;
#X obj 2850 479 prepend pulse;
#X obj 2830 322 route tempo num div;
#X msg 3014 391 1;
#X msg 3031 374 2;
#X msg 3048 357 4;
#X msg 3065 340 8;
#X msg 3253 373 4.5;
#X msg 3270 390 9;
#X msg 3082 390 1.5;
#X msg 3099 373 3;
#X msg 3116 356 6;
#X msg 3133 390 12;
#X msg 3150 373 2.5;
#X msg 3167 390 5;
#X msg 3184 373 10;
#X msg 3201 390 3.5;
#X msg 3219 373 7;
#X msg 3236 390 14;
#X obj 3014 320 sel 0 1 2 3 4 5 6 7 8 9 10 11 12 13 14 15;
#X obj 3021 416 f;
#X obj 2829 351 expr 60000/$f1;
#X obj 2899 378 / 4;
#X obj 2899 397 * 1;
#X obj 3074 517 route sync;
#X obj 3074 541 prepend sync;
#X obj 2706 511 route pos;
#X obj 2706 530 prepend pos;
#X text 2981 404 <--;
#X text 2771 405 -->;
#X text 3050 476 <--;
#X text 3231 461 V;
#X text 3231 452 |;
#X text 3248 529 ^;
#X text 3248 532 |;
#X obj 1501 771 r \$0-postrig_3;
#X obj 1684 842 r \$0-sync_3;
#X obj 1650 769 sel 3;
#X obj 1870 839 r \$0-syncpulse_3;
#X obj 1910 879 r \$0-SEQ_3;
#X obj 1344 997 prepend seq3;
#X obj 1993 992 prepend seq4;
#X obj 2150 766 r \$0-postrig_4;
#X obj 2299 764 sel 4;
#X obj 2333 837 r \$0-sync_4;
#X obj 2519 834 r \$0-syncpulse_4;
#X obj 2559 874 r \$0-SEQ_4;
#X obj 2643 986 prepend seq5;
#X obj 2800 760 r \$0-postrig_5;
#X obj 2949 758 sel 5;
#X obj 2983 831 r \$0-sync_5;
#X obj 3169 828 r \$0-syncpulse_5;
#X obj 3209 868 r \$0-SEQ_5;
#X obj 2640 632 prepend seq7;
#X obj 3206 514 r \$0-SEQ_7;
#X obj 3166 474 r \$0-syncpulse_7;
#X obj 2980 477 r \$0-sync_7;
#X obj 2797 406 r \$0-postrig_7;
#X obj 2946 404 sel 7;
#X obj 2147 412 r \$0-postrig_6;
#X obj 2556 520 r \$0-SEQ_6;
#X obj 2516 480 r \$0-syncpulse_6;
#X obj 2330 483 r \$0-sync_6;
#X obj 2296 410 sel 6;
#X obj 1990 638 prepend seq6;
#X obj 755 360 s \$0-postrig_M-set;
#X msg 742 321 set \$1;
#X connect 8 0 9 0;
#X connect 9 0 10 0;
#X connect 9 1 11 0;
#X connect 9 2 12 0;
#X connect 9 3 13 0;
#X connect 9 4 14 0;
#X connect 9 5 15 0;
#X connect 9 6 16 0;
#X connect 9 7 17 0;
#X connect 17 0 18 0;
#X connect 17 1 66 0;
#X connect 17 1 152 0;
#X connect 48 0 49 0;
#X connect 49 0 50 0;
#X connect 49 1 52 0;
#X connect 49 2 53 0;
#X connect 49 3 54 0;
#X connect 49 4 55 0;
#X connect 49 5 56 0;
#X connect 49 6 57 0;
#X connect 50 0 64 0;
#X connect 51 0 50 1;
#X connect 52 0 64 0;
#X connect 53 0 64 0;
#X connect 54 0 64 0;
#X connect 55 0 64 0;
#X connect 56 0 64 0;
#X connect 57 0 64 0;
#X connect 58 0 52 1;
#X connect 59 0 53 1;
#X connect 60 0 54 1;
#X connect 61 0 55 1;
#X connect 62 0 56 1;
#X connect 63 0 57 1;
#X connect 65 0 232 0;
#X connect 65 0 234 0;
#X connect 65 0 212 0;
#X connect 65 0 214 0;
#X connect 65 0 219 0;
#X connect 65 0 238 0;
#X connect 66 0 67 0;
#X connect 67 0 68 0;
#X connect 67 0 106 0;
#X connect 67 0 107 0;
#X connect 67 0 108 0;
#X connect 67 0 109 0;
#X connect 67 0 110 0;
#X connect 67 0 111 0;
#X connect 67 0 687 0;
#X connect 67 1 114 0;
#X connect 70 0 73 0;
#X connect 71 0 70 0;
#X connect 71 1 72 0;
#X connect 72 0 73 1;
#X connect 73 0 69 0;
#X connect 74 0 79 0;
#X connect 74 1 75 0;
#X connect 75 0 76 1;
#X connect 76 0 105 0;
#X connect 77 0 78 0;
#X connect 78 0 51 0;
#X connect 78 0 58 0;
#X connect 78 0 59 0;
#X connect 78 0 60 0;
#X connect 78 0 61 0;
#X connect 78 0 62 0;
#X connect 78 0 63 0;
#X connect 78 1 71 0;
#X connect 78 1 74 0;
#X connect 78 1 80 0;
#X connect 78 1 83 0;
#X connect 78 1 86 0;
#X connect 78 1 89 0;
#X connect 78 1 92 0;
#X connect 78 1 160 0;
#X connect 79 0 76 0;
#X connect 80 0 95 0;
#X connect 80 1 81 0;
#X connect 81 0 82 1;
#X connect 82 0 104 0;
#X connect 83 0 96 0;
#X connect 83 1 84 0;
#X connect 84 0 85 1;
#X connect 85 0 103 0;
#X connect 86 0 97 0;
#X connect 86 1 87 0;
#X connect 87 0 88 1;
#X connect 88 0 102 0;
#X connect 89 0 98 0;
#X connect 89 1 90 0;
#X connect 90 0 91 1;
#X connect 91 0 101 0;
#X connect 92 0 99 0;
#X connect 92 1 93 0;
#X connect 93 0 94 1;
#X connect 94 0 100 0;
#X connect 95 0 82 0;
#X connect 96 0 85 0;
#X connect 97 0 88 0;
#X connect 98 0 91 0;
#X connect 99 0 94 0;
#X connect 112 0 66 0;
#X connect 113 0 112 0;
#X connect 114 0 68 0;
#X connect 114 1 106 0;
#X connect 114 2 107 0;
#X connect 114 3 108 0;
#X connect 114 4 109 0;
#X connect 114 5 110 0;
#X connect 114 6 111 0;
#X connect 115 0 116 0;
#X connect 116 0 117 0;
#X connect 116 1 118 0;
#X connect 117 0 119 0;
#X connect 118 0 119 0;
#X connect 119 0 47 0;
#X connect 120 0 121 0;
#X connect 120 1 122 0;
#X connect 121 0 124 0;
#X connect 122 0 124 0;
#X connect 123 0 120 0;
#X connect 124 0 47 0;
#X connect 125 0 126 0;
#X connect 125 1 127 0;
#X connect 126 0 149 0;
#X connect 127 0 149 0;
#X connect 128 0 129 0;
#X connect 128 1 130 0;
#X connect 129 0 148 0;
#X connect 130 0 148 0;
#X connect 131 0 132 0;
#X connect 131 1 133 0;
#X connect 132 0 147 0;
#X connect 133 0 147 0;
#X connect 134 0 135 0;
#X connect 134 1 136 0;
#X connect 135 0 146 0;
#X connect 136 0 146 0;
#X connect 137 0 138 0;
#X connect 137 1 139 0;
#X connect 138 0 145 0;
#X connect 139 0 145 0;
#X connect 140 0 125 0;
#X connect 141 0 128 0;
#X connect 142 0 131 0;
#X connect 143 0 134 0;
#X connect 144 0 137 0;
#X connect 145 0 47 0;
#X connect 146 0 47 0;
#X connect 147 0 47 0;
#X connect 148 0 47 0;
#X connect 149 0 47 0;
#X connect 150 0 155 0;
#X connect 151 0 156 0;
#X connect 152 0 151 0;
#X connect 152 1 153 0;
#X connect 152 2 154 0;
#X connect 153 0 156 0;
#X connect 154 0 156 0;
#X connect 155 0 156 1;
#X connect 156 0 157 0;
#X connect 157 0 47 0;
#X connect 160 0 159 0;
#X connect 162 0 163 0;
#X connect 163 0 67 0;
#X connect 164 0 165 0;
#X connect 164 1 166 0;
#X connect 165 0 168 0;
#X connect 166 0 168 0;
#X connect 167 0 164 0;
#X connect 169 0 170 0;
#X connect 170 0 171 0;
#X connect 170 1 172 0;
#X connect 171 0 173 0;
#X connect 172 0 173 0;
#X connect 174 0 175 0;
#X connect 174 1 176 0;
#X connect 175 0 178 0;
#X connect 176 0 178 0;
#X connect 177 0 174 0;
#X connect 179 0 180 0;
#X connect 179 1 181 0;
#X connect 180 0 186 0;
#X connect 181 0 186 0;
#X connect 182 0 183 0;
#X connect 182 1 184 0;
#X connect 183 0 188 0;
#X connect 184 0 188 0;
#X connect 185 0 179 0;
#X connect 187 0 182 0;
#X connect 189 0 190 0;
#X connect 189 1 191 0;
#X connect 190 0 199 0;
#X connect 191 0 199 0;
#X connect 192 0 193 0;
#X connect 192 1 194 0;
#X connect 193 0 201 0;
#X connect 194 0 201 0;
#X connect 195 0 196 0;
#X connect 195 1 197 0;
#X connect 196 0 203 0;
#X connect 197 0 203 0;
#X connect 198 0 189 0;
#X connect 200 0 192 0;
#X connect 202 0 195 0;
#X connect 204 0 206 0;
#X connect 204 0 224 0;
#X connect 204 0 223 0;
#X connect 205 0 204 1;
#X connect 206 0 204 1;
#X connect 207 0 209 0;
#X connect 207 0 221 0;
#X connect 208 0 207 1;
#X connect 209 0 207 1;
#X connect 210 0 205 0;
#X connect 210 1 208 0;
#X connect 210 1 231 0;
#X connect 211 0 210 0;
#X connect 212 0 262 0;
#X connect 213 0 204 0;
#X connect 214 0 236 0;
#X connect 215 0 216 0;
#X connect 215 0 214 1;
#X connect 216 0 212 1;
#X connect 217 0 207 0;
#X connect 218 0 269 0;
#X connect 219 0 260 0;
#X connect 220 0 219 1;
#X connect 220 0 222 0;
#X connect 221 0 269 0;
#X connect 222 0 269 0;
#X connect 223 0 269 0;
#X connect 224 0 269 0;
#X connect 225 0 269 0;
#X connect 226 0 228 0;
#X connect 227 0 225 0;
#X connect 228 0 227 0;
#X connect 229 0 230 0;
#X connect 230 0 231 1;
#X connect 231 0 221 0;
#X connect 232 0 233 0;
#X connect 233 0 269 0;
#X connect 234 0 235 0;
#X connect 235 0 269 0;
#X connect 236 0 237 0;
#X connect 237 0 213 0;
#X connect 237 0 218 0;
#X connect 237 0 217 0;
#X connect 238 0 257 0;
#X connect 238 1 259 1;
#X connect 238 2 255 0;
#X connect 239 0 256 0;
#X connect 240 0 256 0;
#X connect 241 0 256 0;
#X connect 242 0 256 0;
#X connect 243 0 256 0;
#X connect 244 0 256 0;
#X connect 245 0 256 0;
#X connect 246 0 256 0;
#X connect 247 0 256 0;
#X connect 248 0 256 0;
#X connect 249 0 256 0;
#X connect 250 0 256 0;
#X connect 251 0 256 0;
#X connect 252 0 256 0;
#X connect 253 0 256 0;
#X connect 254 0 256 0;
#X connect 255 0 239 0;
#X connect 255 1 240 0;
#X connect 255 2 241 0;
#X connect 255 3 242 0;
#X connect 255 4 245 0;
#X connect 255 5 246 0;
#X connect 255 6 247 0;
#X connect 255 7 248 0;
#X connect 255 8 249 0;
#X connect 255 9 250 0;
#X connect 255 10 251 0;
#X connect 255 11 252 0;
#X connect 255 12 253 0;
#X connect 255 13 254 0;
#X connect 255 14 243 0;
#X connect 255 15 244 0;
#X connect 256 0 258 1;
#X connect 257 0 258 0;
#X connect 258 0 259 0;
#X connect 259 0 227 0;
#X connect 260 0 261 0;
#X connect 261 0 269 0;
#X connect 262 0 213 0;
#X connect 262 0 217 0;
#X connect 262 0 263 0;
#X connect 263 0 269 0;
#X connect 269 0 47 0;
#X connect 272 0 296 0;
#X connect 272 0 298 0;
#X connect 272 0 280 0;
#X connect 272 0 282 0;
#X connect 272 0 286 0;
#X connect 272 0 302 0;
#X connect 273 0 275 0;
#X connect 273 0 290 0;
#X connect 273 0 289 0;
#X connect 274 0 273 1;
#X connect 275 0 273 1;
#X connect 276 0 278 0;
#X connect 276 0 287 0;
#X connect 277 0 276 1;
#X connect 278 0 276 1;
#X connect 279 0 274 0;
#X connect 279 1 277 0;
#X connect 279 1 295 0;
#X connect 280 0 326 0;
#X connect 281 0 273 0;
#X connect 282 0 300 0;
#X connect 283 0 280 1;
#X connect 284 0 276 0;
#X connect 285 0 340 0;
#X connect 286 0 324 0;
#X connect 287 0 340 0;
#X connect 288 0 340 0;
#X connect 289 0 340 0;
#X connect 290 0 340 0;
#X connect 291 0 340 0;
#X connect 292 0 336 0;
#X connect 293 0 291 0;
#X connect 294 0 295 1;
#X connect 295 0 287 0;
#X connect 296 0 297 0;
#X connect 297 0 340 0;
#X connect 298 0 299 0;
#X connect 299 0 340 0;
#X connect 300 0 301 0;
#X connect 301 0 281 0;
#X connect 301 0 285 0;
#X connect 301 0 284 0;
#X connect 302 0 321 0;
#X connect 302 1 323 1;
#X connect 302 2 319 0;
#X connect 303 0 320 0;
#X connect 304 0 320 0;
#X connect 305 0 320 0;
#X connect 306 0 320 0;
#X connect 307 0 320 0;
#X connect 308 0 320 0;
#X connect 309 0 320 0;
#X connect 310 0 320 0;
#X connect 311 0 320 0;
#X connect 312 0 320 0;
#X connect 313 0 320 0;
#X connect 314 0 320 0;
#X connect 315 0 320 0;
#X connect 316 0 320 0;
#X connect 317 0 320 0;
#X connect 318 0 320 0;
#X connect 319 0 303 0;
#X connect 319 1 304 0;
#X connect 319 2 305 0;
#X connect 319 3 306 0;
#X connect 319 4 309 0;
#X connect 319 5 310 0;
#X connect 319 6 311 0;
#X connect 319 7 312 0;
#X connect 319 8 313 0;
#X connect 319 9 314 0;
#X connect 319 10 315 0;
#X connect 319 11 316 0;
#X connect 319 12 317 0;
#X connect 319 13 318 0;
#X connect 319 14 307 0;
#X connect 319 15 308 0;
#X connect 320 0 322 1;
#X connect 321 0 322 0;
#X connect 322 0 323 0;
#X connect 323 0 293 0;
#X connect 324 0 325 0;
#X connect 325 0 340 0;
#X connect 326 0 281 0;
#X connect 326 0 284 0;
#X connect 326 0 327 0;
#X connect 327 0 340 0;
#X connect 335 0 283 0;
#X connect 335 0 282 1;
#X connect 336 0 293 0;
#X connect 337 0 279 0;
#X connect 338 0 286 1;
#X connect 338 0 288 0;
#X connect 339 0 294 0;
#X connect 340 0 47 0;
#X connect 341 0 365 0;
#X connect 341 0 367 0;
#X connect 341 0 349 0;
#X connect 341 0 351 0;
#X connect 341 0 355 0;
#X connect 341 0 371 0;
#X connect 342 0 344 0;
#X connect 342 0 359 0;
#X connect 342 0 358 0;
#X connect 343 0 342 1;
#X connect 344 0 342 1;
#X connect 345 0 347 0;
#X connect 345 0 356 0;
#X connect 346 0 345 1;
#X connect 347 0 345 1;
#X connect 348 0 343 0;
#X connect 348 1 346 0;
#X connect 348 1 364 0;
#X connect 349 0 395 0;
#X connect 350 0 342 0;
#X connect 351 0 369 0;
#X connect 352 0 349 1;
#X connect 353 0 345 0;
#X connect 354 0 661 0;
#X connect 355 0 393 0;
#X connect 356 0 661 0;
#X connect 357 0 661 0;
#X connect 358 0 661 0;
#X connect 359 0 661 0;
#X connect 360 0 661 0;
#X connect 361 0 658 0;
#X connect 362 0 360 0;
#X connect 363 0 364 1;
#X connect 364 0 356 0;
#X connect 365 0 366 0;
#X connect 366 0 661 0;
#X connect 367 0 368 0;
#X connect 368 0 661 0;
#X connect 369 0 370 0;
#X connect 370 0 350 0;
#X connect 370 0 354 0;
#X connect 370 0 353 0;
#X connect 371 0 390 0;
#X connect 371 1 392 1;
#X connect 371 2 388 0;
#X connect 372 0 389 0;
#X connect 373 0 389 0;
#X connect 374 0 389 0;
#X connect 375 0 389 0;
#X connect 376 0 389 0;
#X connect 377 0 389 0;
#X connect 378 0 389 0;
#X connect 379 0 389 0;
#X connect 380 0 389 0;
#X connect 381 0 389 0;
#X connect 382 0 389 0;
#X connect 383 0 389 0;
#X connect 384 0 389 0;
#X connect 385 0 389 0;
#X connect 386 0 389 0;
#X connect 387 0 389 0;
#X connect 388 0 372 0;
#X connect 388 1 373 0;
#X connect 388 2 374 0;
#X connect 388 3 375 0;
#X connect 388 4 378 0;
#X connect 388 5 379 0;
#X connect 388 6 380 0;
#X connect 388 7 381 0;
#X connect 388 8 382 0;
#X connect 388 9 383 0;
#X connect 388 10 384 0;
#X connect 388 11 385 0;
#X connect 388 12 386 0;
#X connect 388 13 387 0;
#X connect 388 14 376 0;
#X connect 388 15 377 0;
#X connect 389 0 391 1;
#X connect 390 0 391 0;
#X connect 391 0 392 0;
#X connect 392 0 362 0;
#X connect 393 0 394 0;
#X connect 394 0 661 0;
#X connect 395 0 350 0;
#X connect 395 0 353 0;
#X connect 395 0 396 0;
#X connect 396 0 661 0;
#X connect 404 0 428 0;
#X connect 404 0 430 0;
#X connect 404 0 412 0;
#X connect 404 0 414 0;
#X connect 404 0 418 0;
#X connect 404 0 434 0;
#X connect 405 0 407 0;
#X connect 405 0 422 0;
#X connect 405 0 421 0;
#X connect 406 0 405 1;
#X connect 407 0 405 1;
#X connect 408 0 410 0;
#X connect 408 0 419 0;
#X connect 409 0 408 1;
#X connect 410 0 408 1;
#X connect 411 0 406 0;
#X connect 411 1 409 0;
#X connect 411 1 427 0;
#X connect 412 0 458 0;
#X connect 413 0 405 0;
#X connect 414 0 432 0;
#X connect 415 0 412 1;
#X connect 416 0 408 0;
#X connect 417 0 662 0;
#X connect 418 0 456 0;
#X connect 419 0 662 0;
#X connect 420 0 662 0;
#X connect 421 0 662 0;
#X connect 422 0 662 0;
#X connect 423 0 662 0;
#X connect 424 0 664 0;
#X connect 425 0 423 0;
#X connect 426 0 427 1;
#X connect 427 0 419 0;
#X connect 428 0 429 0;
#X connect 429 0 662 0;
#X connect 430 0 431 0;
#X connect 431 0 662 0;
#X connect 432 0 433 0;
#X connect 433 0 413 0;
#X connect 433 0 417 0;
#X connect 433 0 416 0;
#X connect 434 0 453 0;
#X connect 434 1 455 1;
#X connect 434 2 451 0;
#X connect 435 0 452 0;
#X connect 436 0 452 0;
#X connect 437 0 452 0;
#X connect 438 0 452 0;
#X connect 439 0 452 0;
#X connect 440 0 452 0;
#X connect 441 0 452 0;
#X connect 442 0 452 0;
#X connect 443 0 452 0;
#X connect 444 0 452 0;
#X connect 445 0 452 0;
#X connect 446 0 452 0;
#X connect 447 0 452 0;
#X connect 448 0 452 0;
#X connect 449 0 452 0;
#X connect 450 0 452 0;
#X connect 451 0 435 0;
#X connect 451 1 436 0;
#X connect 451 2 437 0;
#X connect 451 3 438 0;
#X connect 451 4 441 0;
#X connect 451 5 442 0;
#X connect 451 6 443 0;
#X connect 451 7 444 0;
#X connect 451 8 445 0;
#X connect 451 9 446 0;
#X connect 451 10 447 0;
#X connect 451 11 448 0;
#X connect 451 12 449 0;
#X connect 451 13 450 0;
#X connect 451 14 439 0;
#X connect 451 15 440 0;
#X connect 452 0 454 1;
#X connect 453 0 454 0;
#X connect 454 0 455 0;
#X connect 455 0 425 0;
#X connect 456 0 457 0;
#X connect 457 0 662 0;
#X connect 458 0 413 0;
#X connect 458 0 416 0;
#X connect 458 0 459 0;
#X connect 459 0 662 0;
#X connect 467 0 491 0;
#X connect 467 0 493 0;
#X connect 467 0 475 0;
#X connect 467 0 477 0;
#X connect 467 0 481 0;
#X connect 467 0 497 0;
#X connect 468 0 470 0;
#X connect 468 0 485 0;
#X connect 468 0 484 0;
#X connect 469 0 468 1;
#X connect 470 0 468 1;
#X connect 471 0 473 0;
#X connect 471 0 482 0;
#X connect 472 0 471 1;
#X connect 473 0 471 1;
#X connect 474 0 469 0;
#X connect 474 1 472 0;
#X connect 474 1 490 0;
#X connect 475 0 521 0;
#X connect 476 0 468 0;
#X connect 477 0 495 0;
#X connect 478 0 475 1;
#X connect 479 0 471 0;
#X connect 480 0 668 0;
#X connect 481 0 519 0;
#X connect 482 0 668 0;
#X connect 483 0 668 0;
#X connect 484 0 668 0;
#X connect 485 0 668 0;
#X connect 486 0 668 0;
#X connect 487 0 670 0;
#X connect 488 0 486 0;
#X connect 489 0 490 1;
#X connect 490 0 482 0;
#X connect 491 0 492 0;
#X connect 492 0 668 0;
#X connect 493 0 494 0;
#X connect 494 0 668 0;
#X connect 495 0 496 0;
#X connect 496 0 476 0;
#X connect 496 0 480 0;
#X connect 496 0 479 0;
#X connect 497 0 516 0;
#X connect 497 1 518 1;
#X connect 497 2 514 0;
#X connect 498 0 515 0;
#X connect 499 0 515 0;
#X connect 500 0 515 0;
#X connect 501 0 515 0;
#X connect 502 0 515 0;
#X connect 503 0 515 0;
#X connect 504 0 515 0;
#X connect 505 0 515 0;
#X connect 506 0 515 0;
#X connect 507 0 515 0;
#X connect 508 0 515 0;
#X connect 509 0 515 0;
#X connect 510 0 515 0;
#X connect 511 0 515 0;
#X connect 512 0 515 0;
#X connect 513 0 515 0;
#X connect 514 0 498 0;
#X connect 514 1 499 0;
#X connect 514 2 500 0;
#X connect 514 3 501 0;
#X connect 514 4 504 0;
#X connect 514 5 505 0;
#X connect 514 6 506 0;
#X connect 514 7 507 0;
#X connect 514 8 508 0;
#X connect 514 9 509 0;
#X connect 514 10 510 0;
#X connect 514 11 511 0;
#X connect 514 12 512 0;
#X connect 514 13 513 0;
#X connect 514 14 502 0;
#X connect 514 15 503 0;
#X connect 515 0 517 1;
#X connect 516 0 517 0;
#X connect 517 0 518 0;
#X connect 518 0 488 0;
#X connect 519 0 520 0;
#X connect 520 0 668 0;
#X connect 521 0 476 0;
#X connect 521 0 479 0;
#X connect 521 0 522 0;
#X connect 522 0 668 0;
#X connect 530 0 554 0;
#X connect 530 0 556 0;
#X connect 530 0 538 0;
#X connect 530 0 540 0;
#X connect 530 0 544 0;
#X connect 530 0 560 0;
#X connect 531 0 533 0;
#X connect 531 0 548 0;
#X connect 531 0 547 0;
#X connect 532 0 531 1;
#X connect 533 0 531 1;
#X connect 534 0 536 0;
#X connect 534 0 545 0;
#X connect 535 0 534 1;
#X connect 536 0 534 1;
#X connect 537 0 532 0;
#X connect 537 1 535 0;
#X connect 537 1 553 0;
#X connect 538 0 584 0;
#X connect 539 0 531 0;
#X connect 540 0 558 0;
#X connect 541 0 538 1;
#X connect 542 0 534 0;
#X connect 543 0 685 0;
#X connect 544 0 582 0;
#X connect 545 0 685 0;
#X connect 546 0 685 0;
#X connect 547 0 685 0;
#X connect 548 0 685 0;
#X connect 549 0 685 0;
#X connect 550 0 684 0;
#X connect 551 0 549 0;
#X connect 552 0 553 1;
#X connect 553 0 545 0;
#X connect 554 0 555 0;
#X connect 555 0 685 0;
#X connect 556 0 557 0;
#X connect 557 0 685 0;
#X connect 558 0 559 0;
#X connect 559 0 539 0;
#X connect 559 0 543 0;
#X connect 559 0 542 0;
#X connect 560 0 579 0;
#X connect 560 1 581 1;
#X connect 560 2 577 0;
#X connect 561 0 578 0;
#X connect 562 0 578 0;
#X connect 563 0 578 0;
#X connect 564 0 578 0;
#X connect 565 0 578 0;
#X connect 566 0 578 0;
#X connect 567 0 578 0;
#X connect 568 0 578 0;
#X connect 569 0 578 0;
#X connect 570 0 578 0;
#X connect 571 0 578 0;
#X connect 572 0 578 0;
#X connect 573 0 578 0;
#X connect 574 0 578 0;
#X connect 575 0 578 0;
#X connect 576 0 578 0;
#X connect 577 0 561 0;
#X connect 577 1 562 0;
#X connect 577 2 563 0;
#X connect 577 3 564 0;
#X connect 577 4 567 0;
#X connect 577 5 568 0;
#X connect 577 6 569 0;
#X connect 577 7 570 0;
#X connect 577 8 571 0;
#X connect 577 9 572 0;
#X connect 577 10 573 0;
#X connect 577 11 574 0;
#X connect 577 12 575 0;
#X connect 577 13 576 0;
#X connect 577 14 565 0;
#X connect 577 15 566 0;
#X connect 578 0 580 1;
#X connect 579 0 580 0;
#X connect 580 0 581 0;
#X connect 581 0 551 0;
#X connect 582 0 583 0;
#X connect 583 0 685 0;
#X connect 584 0 539 0;
#X connect 584 0 542 0;
#X connect 584 0 585 0;
#X connect 585 0 685 0;
#X connect 593 0 617 0;
#X connect 593 0 619 0;
#X connect 593 0 601 0;
#X connect 593 0 603 0;
#X connect 593 0 607 0;
#X connect 593 0 623 0;
#X connect 594 0 596 0;
#X connect 594 0 611 0;
#X connect 594 0 610 0;
#X connect 595 0 594 1;
#X connect 596 0 594 1;
#X connect 597 0 599 0;
#X connect 597 0 608 0;
#X connect 598 0 597 1;
#X connect 599 0 597 1;
#X connect 600 0 595 0;
#X connect 600 1 598 0;
#X connect 600 1 616 0;
#X connect 601 0 647 0;
#X connect 602 0 594 0;
#X connect 603 0 621 0;
#X connect 604 0 601 1;
#X connect 605 0 597 0;
#X connect 606 0 674 0;
#X connect 607 0 645 0;
#X connect 608 0 674 0;
#X connect 609 0 674 0;
#X connect 610 0 674 0;
#X connect 611 0 674 0;
#X connect 612 0 674 0;
#X connect 613 0 679 0;
#X connect 614 0 612 0;
#X connect 615 0 616 1;
#X connect 616 0 608 0;
#X connect 617 0 618 0;
#X connect 618 0 674 0;
#X connect 619 0 620 0;
#X connect 620 0 674 0;
#X connect 621 0 622 0;
#X connect 622 0 602 0;
#X connect 622 0 606 0;
#X connect 622 0 605 0;
#X connect 623 0 642 0;
#X connect 623 1 644 1;
#X connect 623 2 640 0;
#X connect 624 0 641 0;
#X connect 625 0 641 0;
#X connect 626 0 641 0;
#X connect 627 0 641 0;
#X connect 628 0 641 0;
#X connect 629 0 641 0;
#X connect 630 0 641 0;
#X connect 631 0 641 0;
#X connect 632 0 641 0;
#X connect 633 0 641 0;
#X connect 634 0 641 0;
#X connect 635 0 641 0;
#X connect 636 0 641 0;
#X connect 637 0 641 0;
#X connect 638 0 641 0;
#X connect 639 0 641 0;
#X connect 640 0 624 0;
#X connect 640 1 625 0;
#X connect 640 2 626 0;
#X connect 640 3 627 0;
#X connect 640 4 630 0;
#X connect 640 5 631 0;
#X connect 640 6 632 0;
#X connect 640 7 633 0;
#X connect 640 8 634 0;
#X connect 640 9 635 0;
#X connect 640 10 636 0;
#X connect 640 11 637 0;
#X connect 640 12 638 0;
#X connect 640 13 639 0;
#X connect 640 14 628 0;
#X connect 640 15 629 0;
#X connect 641 0 643 1;
#X connect 642 0 643 0;
#X connect 643 0 644 0;
#X connect 644 0 614 0;
#X connect 645 0 646 0;
#X connect 646 0 674 0;
#X connect 647 0 602 0;
#X connect 647 0 605 0;
#X connect 647 0 648 0;
#X connect 648 0 674 0;
#X connect 656 0 352 0;
#X connect 656 0 351 1;
#X connect 657 0 348 0;
#X connect 658 0 362 0;
#X connect 659 0 355 1;
#X connect 659 0 357 0;
#X connect 660 0 363 0;
#X connect 661 0 47 0;
#X connect 662 0 47 0;
#X connect 663 0 415 0;
#X connect 663 0 414 1;
#X connect 664 0 425 0;
#X connect 665 0 411 0;
#X connect 666 0 418 1;
#X connect 666 0 420 0;
#X connect 667 0 426 0;
#X connect 668 0 47 0;
#X connect 669 0 478 0;
#X connect 669 0 477 1;
#X connect 670 0 488 0;
#X connect 671 0 474 0;
#X connect 672 0 481 1;
#X connect 672 0 483 0;
#X connect 673 0 489 0;
#X connect 674 0 47 0;
#X connect 675 0 615 0;
#X connect 676 0 607 1;
#X connect 676 0 609 0;
#X connect 677 0 600 0;
#X connect 678 0 604 0;
#X connect 678 0 603 1;
#X connect 679 0 614 0;
#X connect 680 0 541 0;
#X connect 680 0 540 1;
#X connect 681 0 552 0;
#X connect 682 0 544 1;
#X connect 682 0 546 0;
#X connect 683 0 537 0;
#X connect 684 0 551 0;
#X connect 685 0 47 0;
#X connect 687 0 686 0;
#X coords 0 -1 1 1 286 146 1 10 120;
