#N canvas 408 135 450 300 10;
#N canvas 0 0 450 300 (subpatch) 0;
#X array \$0-test 14798 float 2;
#X coords 0 1 14798 -1 80 31 1;
#X restore 222 96 graph;
#X obj 18 174 soundfiler;
#X msg 18 153 read -resize \$1 \$2;
#X obj 63 111 symbol \$0-test;
#X obj 18 132 pack s s;
#X obj 18 66 openpanel;
#X obj 18 87 t a b;
#X obj 18 47 bng 15 250 50 0 empty \$0-load empty 17 7 0 10 -262144
-1 -1;
#X obj 173 125 inlet;
#X obj 287 81 bng 12 250 50 0 \$0-play \$0-play-bng play -4 -4 0 8
-262144 -1 -1;
#X obj 92 221 s \$0-play-bng;
#X obj 286 168 r \$0-play;
#X obj 286 188 tabplay~ \$0-test;
#X obj 286 208 outlet~;
#X obj 265 81 tgl 12 0 \$0-loop \$0-loop-set loop -4 -4 0 8 -262144
-1 -1 0 1;
#X obj 248 75 bng 8 250 50 0 \$0-load \$0-load-bng load -21 4 0 8 -262130
-4034 -13381;
#X obj 348 216 spigot;
#X obj 362 158 r \$0-loop;
#X obj 348 239 delay 0;
#X obj 336 262 outlet;
#X obj 179 220 s \$0-loop-set;
#X obj 230 241 s \$0-load-bng;
#X msg 145 180 stop;
#X obj 94 186 t b b;
#X obj 173 145 route play loop load file;
#X connect 2 0 1 0;
#X connect 3 0 4 1;
#X connect 4 0 2 0;
#X connect 5 0 6 0;
#X connect 6 0 4 0;
#X connect 6 1 3 0;
#X connect 7 0 5 0;
#X connect 8 0 24 0;
#X connect 11 0 12 0;
#X connect 11 0 19 0;
#X connect 12 0 13 0;
#X connect 12 1 16 0;
#X connect 16 0 18 0;
#X connect 16 0 19 0;
#X connect 17 0 16 1;
#X connect 18 0 12 0;
#X connect 22 0 12 0;
#X connect 23 0 10 0;
#X connect 23 1 22 0;
#X connect 24 0 23 0;
#X connect 24 1 20 0;
#X connect 24 2 21 0;
#X connect 24 3 6 0;
#X coords 0 -1 1 1 84 68 1 220 62;
