#N canvas 0 0 450 607 10;
#X obj 41 129 clinoker~;
#X obj 41 53 key;
#X floatatom 41 72 5 0 0 0 - - -;
#X obj 41 88 sel 113 32;
#X msg 41 109 1;
#X obj 41 340 mix~;
#X obj 29 389 dac~;
#N canvas 0 0 450 300 (subpatch) 1;
#X obj 67 122 loadbang;
#X obj 72 188 outlet;
#X msg 73 148 on 1 \, file /media/sda3/Data/puredata/2010/perfs/pats/clinok.pat
;
#X obj 211 76 inlet;
#X msg 209 106 vol \$1;
#X obj 259 209 r \$0-clinoks;
#X connect 0 0 2 0;
#X connect 2 0 1 0;
#X connect 3 0 4 0;
#X connect 4 0 1 0;
#X connect 5 0 1 0;
#X restore 186 110 pd;
#X floatatom 186 94 5 0 140 0 vol - -;
#X connect 0 0 5 0;
#X connect 1 0 2 0;
#X connect 2 0 3 0;
#X connect 3 0 4 0;
#X connect 3 1 4 0;
#X connect 4 0 0 0;
#X connect 5 0 6 0;
#X connect 5 0 6 1;
#X connect 7 0 0 1;
#X connect 8 0 7 0;
