#N canvas 0 0 450 300 10;
#X obj 103 72 time ----;
#X obj 137 132 +;
#X obj 120 151 +;
#X obj 103 170 +;
#X msg 103 189 seed \$1;
#X obj 103 207 outlet;
#X obj 58 48 inlet;
#X obj 86 103 / 24;
#X obj 116 103 / 60;
#X obj 146 103 / 600;
#X obj 182 103 * 1e-05;
#X connect 0 0 7 0;
#X connect 0 1 8 0;
#X connect 0 2 9 0;
#X connect 0 3 10 0;
#X connect 1 0 2 1;
#X connect 2 0 3 1;
#X connect 3 0 4 0;
#X connect 4 0 5 0;
#X connect 6 0 0 0;
#X connect 7 0 3 0;
#X connect 8 0 2 0;
#X connect 9 0 1 0;
#X connect 10 0 1 1;
