#N canvas 4 55 510 378 10;
#X obj 50 77 inlet;
#X obj 50 109 unpack f f f f;
#X obj 50 158 moses -1500;
#X obj 30 190 sel -1501;
#X obj 242 237 outlet;
#X msg 30 223 0;
#X obj 42 317 outlet;
#X obj 106 235 t f b;
#X obj 163 235 f;
#X obj 185 178 f;
#X obj 83 134 moses -1;
#X obj 158 132 moses 1;
#X obj 134 159 spigot 1;
#X obj 194 159 spigot 1;
#X obj 385 94 tgl 12 0 empty empty vol 16 6 0 12 -262144 -1 -1 0 1
;
#X obj 425 94 tgl 12 0 empty empty pat 16 6 0 12 -262144 -1 -1 0 1
;
#X obj 191 35 inlet;
#X msg 373 64 1;
#X obj 350 37 loadbang;
#X floatatom 344 93 3 0 0 1 P+ - -;
#X obj 105 215 +;
#X obj 191 57 route vol wave trans;
#X obj 72 282 pack;
#X obj 30 247 swap;
#X obj 348 193 == 0;
#X obj 308 221 spigot;
#X msg 308 243 127;
#X msg 185 201 patch \$1;
#X connect 0 0 1 0;
#X connect 1 0 2 0;
#X connect 1 1 10 0;
#X connect 1 2 11 0;
#X connect 2 0 3 0;
#X connect 2 1 20 0;
#X connect 3 0 5 0;
#X connect 5 0 23 0;
#X connect 7 0 22 0;
#X connect 7 1 12 0;
#X connect 7 1 13 0;
#X connect 7 1 25 0;
#X connect 8 0 22 1;
#X connect 9 0 27 0;
#X connect 10 1 8 1;
#X connect 11 1 9 1;
#X connect 12 0 8 0;
#X connect 13 0 9 0;
#X connect 14 0 12 1;
#X connect 14 0 24 0;
#X connect 15 0 13 1;
#X connect 16 0 21 0;
#X connect 17 0 14 0;
#X connect 17 0 15 0;
#X connect 18 0 17 0;
#X connect 19 0 20 1;
#X connect 20 0 7 0;
#X connect 20 0 23 1;
#X connect 21 0 14 0;
#X connect 21 1 15 0;
#X connect 21 2 19 0;
#X connect 22 0 6 0;
#X connect 23 0 22 0;
#X connect 23 1 22 1;
#X connect 24 0 25 1;
#X connect 25 0 26 0;
#X connect 26 0 22 1;
#X connect 27 0 4 0;
#X coords 0 -1 1 1 180 20 1 290 90;
