#N canvas 5 57 450 300 10;
#X obj 50 47 inlet;
#X obj 50 79 unpack f f f f;
#X obj 50 128 moses -1500;
#X obj 30 160 sel -1501;
#X msg 132 171 vol \$1;
#X msg 185 171 patch \$1;
#X msg 253 171 wave \$1;
#X obj 242 207 outlet;
#X msg 312 171 sample \$1;
#X msg 30 193 0;
#X obj 68 224 outlet;
#X connect 0 0 1 0;
#X connect 1 0 2 0;
#X connect 1 1 4 0;
#X connect 1 2 5 0;
#X connect 1 2 6 0;
#X connect 1 2 8 0;
#X connect 2 0 3 0;
#X connect 2 1 10 0;
#X connect 3 0 9 0;
#X connect 4 0 7 0;
#X connect 5 0 7 0;
#X connect 6 0 7 0;
#X connect 8 0 7 0;
#X connect 9 0 10 0;
