#N canvas 522 84 707 413 10;
#X obj 50 47 inlet;
#X obj 50 79 unpack f f f f;
#X obj 50 128 moses -1500;
#X obj 30 160 sel -1501;
#X obj 83 104 moses -1;
#X obj 203 145 spigot 1;
#X obj 385 64 tgl 12 0 empty empty vel 16 6 0 12 -262144 -1 -1 1 1
;
#X obj 191 5 inlet;
#X msg 408 29 1;
#X obj 350 7 loadbang;
#X floatatom 344 63 3 0 0 1 P+ - -;
#X obj 105 185 +;
#X msg 30 193 0;
#X obj 61 294 pack 0 100;
#X obj 29 216 t b f;
#X obj 106 205 t f b b b;
#X msg 154 227 0;
#X obj 185 165 100;
#X obj 185 185 +;
#X obj 185 205 clip 0 127;
#X floatatom 424 63 3 0 0 1 V+ - -;
#X obj 62 263 spigot;
#X msg 105 242 1;
#X floatatom 465 63 3 1 16 1 ch - -;
#X obj 62 364 noteout;
#X obj 61 317 unpack;
#X obj 160 317 outlet;
#X obj 560 38 inlet;
#X obj 554 63 route dur;
#X obj 548 88 - 5;
#X obj 528 116 moses 20;
#X obj 506 63 tgl 15 0 empty empty dur 17 7 0 10 -262144 -1 -1 1 1
;
#X obj 363 175 spigot;
#X msg 526 140 20;
#X obj 431 238 delay 20;
#X obj 363 197 t b;
#X obj 191 27 route vel trans v+ ch dur;
#X connect 0 0 1 0;
#X connect 1 0 2 0;
#X connect 1 1 4 0;
#X connect 2 0 3 0;
#X connect 2 1 11 0;
#X connect 3 0 12 0;
#X connect 4 1 5 0;
#X connect 5 0 17 1;
#X connect 6 0 5 1;
#X connect 7 0 36 0;
#X connect 8 0 6 0;
#X connect 8 0 23 0;
#X connect 9 0 8 0;
#X connect 10 0 11 1;
#X connect 11 0 15 0;
#X connect 12 0 14 0;
#X connect 13 0 25 0;
#X connect 13 0 26 0;
#X connect 14 0 13 0;
#X connect 14 1 13 1;
#X connect 15 0 13 0;
#X connect 15 1 17 0;
#X connect 15 1 22 0;
#X connect 15 2 21 0;
#X connect 15 3 16 0;
#X connect 15 3 32 0;
#X connect 16 0 13 1;
#X connect 17 0 18 0;
#X connect 18 0 19 0;
#X connect 19 0 13 1;
#X connect 20 0 18 1;
#X connect 21 0 13 0;
#X connect 22 0 21 1;
#X connect 23 0 24 2;
#X connect 25 0 24 0;
#X connect 25 1 24 1;
#X connect 27 0 28 0;
#X connect 28 0 29 0;
#X connect 29 0 30 0;
#X connect 30 0 33 0;
#X connect 30 1 34 1;
#X connect 31 0 32 1;
#X connect 32 0 35 0;
#X connect 33 0 34 1;
#X connect 34 0 12 0;
#X connect 35 0 34 0;
#X connect 36 0 6 0;
#X connect 36 1 10 0;
#X connect 36 2 20 0;
#X connect 36 3 23 0;
#X connect 36 4 31 0;
#X coords 0 -1 1 1 250 20 1 290 60;
