#N canvas 20 87 1019 582 10;
#X obj 50 77 inlet;
#X obj 50 158 moses -1500;
#X obj 30 190 sel -1501;
#X msg 30 223 0;
#X obj 42 317 outlet;
#X obj 106 235 t f b;
#X obj 163 235 f;
#X obj 194 186 f;
#X obj 83 134 moses -1;
#X obj 158 132 moses 1;
#X obj 134 159 spigot 1;
#X obj 194 159 spigot 1;
#X obj 385 94 tgl 12 0 empty empty vol 16 6 0 12 -262144 -1 -1 1 1
;
#X obj 425 94 tgl 12 0 empty empty pat 16 6 0 12 -262144 -1 -1 1 1
;
#X obj 191 35 inlet;
#X msg 373 64 1;
#X obj 350 37 loadbang;
#X floatatom 344 93 3 0 0 1 P+ - -;
#X obj 105 215 +;
#X obj 72 282 pack;
#X obj 30 247 swap;
#X obj 348 193 == 0;
#X obj 308 221 spigot;
#X msg 308 243 127;
#X msg 202 243 patch \$1;
#X obj 191 57 route vol patch trans;
#X obj 79 109 unpack f f f f f f f f;
#X obj 392 135 pack;
#X obj 429 135 pack;
#X obj 430 309 outlet;
#X obj 21 387 route pc octave pf porta phase preset wpc woctave wpf
wphase wpreset woffset wwave weg wosc wa wd ws wr;
#X obj 400 403 route pwm pwmfreq pwmwave pwmphase pwmpreset pwoffset
;
#X obj 706 358 route fc q fceg fca fcd fcdl fcsw fcs fce fcpol aa ad
as ar pvol tvol wmv fcv fcfm fmsource av kf wtrig ftrig;
#X obj 405 165 route 31 32 33 34 35 36 37 38;
#X msg 402 260 fc \$1;
#X msg 453 262 wpc \$1;
#X msg 512 262 wpf \$1;
#X obj 401 191 + 6;
#X obj 399 219 mtof;
#X obj 444 210 i;
#X obj 444 232 - 12;
#X obj 444 188 / 5.2;
#X msg 613 227 c_curve 1 \, f_curve 4 \, 0spot 3;
#X obj 612 204 loadbang;
#X obj 515 232 m_pf;
#X msg 571 260 ar \$1;
#X obj 197 211 change;
#X obj 281 157 sel 0;
#X msg 243 184 set -1;
#X connect 0 0 26 0;
#X connect 1 0 2 0;
#X connect 1 1 18 0;
#X connect 2 0 3 0;
#X connect 3 0 20 0;
#X connect 5 0 19 0;
#X connect 5 1 10 0;
#X connect 5 1 11 0;
#X connect 5 1 22 0;
#X connect 6 0 19 1;
#X connect 7 0 46 0;
#X connect 8 1 6 1;
#X connect 9 1 7 1;
#X connect 10 0 6 0;
#X connect 11 0 7 0;
#X connect 12 0 10 1;
#X connect 12 0 21 0;
#X connect 13 0 11 1;
#X connect 13 0 47 0;
#X connect 14 0 25 0;
#X connect 15 0 12 0;
#X connect 15 0 13 0;
#X connect 16 0 15 0;
#X connect 17 0 18 1;
#X connect 18 0 5 0;
#X connect 18 0 20 1;
#X connect 19 0 4 0;
#X connect 20 0 19 0;
#X connect 20 1 19 1;
#X connect 21 0 22 1;
#X connect 22 0 23 0;
#X connect 23 0 19 1;
#X connect 24 0 29 0;
#X connect 25 0 12 0;
#X connect 25 1 13 0;
#X connect 25 2 17 0;
#X connect 26 0 1 0;
#X connect 26 1 8 0;
#X connect 26 2 9 0;
#X connect 26 4 27 0;
#X connect 26 5 27 1;
#X connect 26 6 28 0;
#X connect 26 7 28 1;
#X connect 27 0 33 0;
#X connect 28 0 33 0;
#X connect 30 19 31 0;
#X connect 31 6 32 0;
#X connect 33 0 37 0;
#X connect 33 1 41 0;
#X connect 33 2 44 0;
#X connect 33 3 45 0;
#X connect 34 0 29 0;
#X connect 35 0 29 0;
#X connect 36 0 29 0;
#X connect 37 0 38 0;
#X connect 38 0 34 0;
#X connect 39 0 40 0;
#X connect 40 0 35 0;
#X connect 41 0 39 0;
#X connect 42 0 44 1;
#X connect 43 0 42 0;
#X connect 44 0 36 0;
#X connect 45 0 29 0;
#X connect 46 0 24 0;
#X connect 47 0 48 0;
#X connect 48 0 46 0;
#X coords 0 -1 1 1 210 20 1 260 90;
