#N canvas 635 80 592 300 10;
#X obj 50 47 inlet;
#X obj 50 79 unpack f f f f;
#X obj 50 128 moses -1500;
#X obj 30 160 sel -1501;
#X obj 259 228 outlet;
#X obj 68 254 outlet;
#X obj 106 205 t f b;
#X obj 185 148 f;
#X obj 83 104 moses -1;
#X obj 158 102 moses 1;
#X obj 134 129 spigot 1;
#X obj 194 129 spigot 1;
#X obj 386 64 tgl 12 0 empty empty chunk 16 6 0 12 -262144 -1 -1 1
1;
#X obj 191 5 inlet;
#X msg 373 34 1;
#X obj 350 7 loadbang;
#X floatatom 343 63 3 0 0 1 P+ - -;
#X obj 105 185 +;
#X obj 191 27 route vol wave trans;
#X floatatom 440 63 3 0 999 1 C+ - -;
#X msg 202 192 chunk \$1;
#X obj 188 170 +;
#X msg 30 193 trig 0;
#X msg 100 231 pitch \$1;
#X connect 0 0 1 0;
#X connect 1 0 2 0;
#X connect 1 1 8 0;
#X connect 1 2 9 0;
#X connect 2 0 3 0;
#X connect 2 1 17 0;
#X connect 3 0 22 0;
#X connect 6 0 23 0;
#X connect 6 1 10 0;
#X connect 6 1 11 0;
#X connect 7 0 21 0;
#X connect 9 1 7 1;
#X connect 11 0 7 0;
#X connect 12 0 11 1;
#X connect 13 0 18 0;
#X connect 14 0 12 0;
#X connect 15 0 14 0;
#X connect 16 0 17 1;
#X connect 17 0 6 0;
#X connect 18 1 12 0;
#X connect 18 2 16 0;
#X connect 19 0 21 1;
#X connect 20 0 4 0;
#X connect 21 0 20 0;
#X connect 22 0 5 0;
#X connect 23 0 5 0;
#X coords 0 -1 1 1 190 20 1 290 60;
