#N canvas 632 74 592 300 10;
#X obj 50 47 inlet;
#X obj 50 79 unpack f f f f;
#X obj 50 128 moses -1500;
#X obj 30 160 sel -1501;
#X msg 132 171 vol \$1;
#X obj 242 207 outlet;
#X obj 68 224 outlet;
#X obj 106 205 t f b;
#X obj 134 149 f;
#X obj 185 148 f;
#X obj 83 104 moses -1;
#X obj 158 102 moses 1;
#X obj 134 129 spigot 1;
#X obj 194 129 spigot 1;
#X obj 385 64 tgl 12 0 empty empty vol 16 6 0 12 -262144 -1 -1 1 1
;
#X obj 425 64 tgl 12 0 empty empty wave 16 6 0 12 -262144 -1 -1 1 1
;
#X obj 191 5 inlet;
#X msg 373 34 1;
#X obj 350 7 loadbang;
#X floatatom 344 63 3 0 0 1 P+ - -;
#X obj 105 185 +;
#X msg 185 171 wave \$1;
#X obj 191 27 route vol wave trans;
#X msg 30 193 0;
#X connect 0 0 1 0;
#X connect 1 0 2 0;
#X connect 1 1 10 0;
#X connect 1 2 11 0;
#X connect 2 0 3 0;
#X connect 2 1 20 0;
#X connect 3 0 23 0;
#X connect 4 0 5 0;
#X connect 7 0 6 0;
#X connect 7 1 12 0;
#X connect 7 1 13 0;
#X connect 8 0 4 0;
#X connect 9 0 21 0;
#X connect 10 1 8 1;
#X connect 11 1 9 1;
#X connect 12 0 8 0;
#X connect 13 0 9 0;
#X connect 14 0 12 1;
#X connect 15 0 13 1;
#X connect 16 0 22 0;
#X connect 17 0 14 0;
#X connect 17 0 15 0;
#X connect 18 0 17 0;
#X connect 19 0 20 1;
#X connect 20 0 7 0;
#X connect 21 0 5 0;
#X connect 22 0 14 0;
#X connect 22 1 15 0;
#X connect 22 2 19 0;
#X connect 23 0 6 0;
#X coords 0 -1 1 1 180 20 1 290 60;
