#N canvas 630 70 592 300 10;
#X obj 50 47 inlet;
#X obj 50 79 unpack f f f f;
#X obj 50 128 moses -1500;
#X obj 30 160 sel -1501;
#X msg 132 171 vol \$1;
#X msg 185 171 patch \$1;
#X obj 242 207 outlet;
#X msg 30 193 0;
#X obj 68 224 outlet;
#X obj 106 205 t f b;
#X obj 134 149 f;
#X obj 185 148 f;
#X obj 83 104 moses -1;
#X obj 158 102 moses 1;
#X obj 134 129 spigot 1;
#X obj 194 129 spigot 1;
#X obj 385 64 tgl 12 0 empty empty vol 16 6 0 12 -262144 -1 -1 1 1
;
#X obj 425 64 tgl 12 0 empty empty pat 16 6 0 12 -262144 -1 -1 1 1
;
#X obj 191 5 inlet;
#X msg 373 34 1;
#X obj 350 7 loadbang;
#X floatatom 344 63 3 0 0 1 P+ - -;
#X obj 191 27 route vol pat trans;
#X obj 105 185 +;
#X connect 0 0 1 0;
#X connect 1 0 2 0;
#X connect 1 1 12 0;
#X connect 1 2 13 0;
#X connect 2 0 3 0;
#X connect 2 1 23 0;
#X connect 3 0 7 0;
#X connect 4 0 6 0;
#X connect 5 0 6 0;
#X connect 7 0 8 0;
#X connect 9 0 8 0;
#X connect 9 1 14 0;
#X connect 9 1 15 0;
#X connect 10 0 4 0;
#X connect 11 0 5 0;
#X connect 12 1 10 1;
#X connect 13 1 11 1;
#X connect 14 0 10 0;
#X connect 15 0 11 0;
#X connect 16 0 14 1;
#X connect 17 0 15 1;
#X connect 18 0 22 0;
#X connect 19 0 16 0;
#X connect 19 0 17 0;
#X connect 20 0 19 0;
#X connect 21 0 23 1;
#X connect 22 0 16 0;
#X connect 22 1 17 0;
#X connect 22 2 21 0;
#X connect 23 0 9 0;
#X coords 0 -1 1 1 174 20 1 290 60;
