#N canvas 10 67 1260 521 10;
#X obj 53 157 inlet;
#X obj 53 189 unpack f f f f;
#X obj 53 238 moses -1500;
#X obj 35 261 sel -1501;
#X obj 104 319 t f b;
#X obj 188 258 f;
#X obj 86 214 moses -1;
#X obj 161 212 moses 1;
#X obj 917 64 tgl 12 0 empty empty patch 16 6 0 12 -262144 -1 -1 0
1;
#X obj 982 5 inlet;
#X obj 860 7 loadbang;
#X floatatom 854 63 3 0 0 1 trans - -;
#X obj 108 295 +;
#X msg 64 313 0;
#X msg 188 281 patch \$1;
#X obj 60 394 outlet;
#X obj 60 350 pack f f;
#X obj 35 283 t b f;
#X msg 60 372 note1 \$1 \$2;
#X obj 137 259 100;
#X msg 883 34 0;
#X obj 197 239 spigot;
#X obj 273 157 inlet;
#X obj 273 189 unpack f f f f;
#X obj 273 238 moses -1500;
#X obj 255 261 sel -1501;
#X obj 324 319 t f b;
#X obj 408 258 f;
#X obj 306 214 moses -1;
#X obj 381 212 moses 1;
#X obj 328 295 +;
#X msg 284 313 0;
#X msg 408 281 patch \$1;
#X obj 280 350 pack f f;
#X obj 255 283 t b f;
#X obj 357 259 100;
#X obj 417 239 spigot;
#X msg 280 372 note2 \$1 \$2;
#X obj 493 157 inlet;
#X obj 493 189 unpack f f f f;
#X obj 493 238 moses -1500;
#X obj 475 261 sel -1501;
#X obj 544 319 t f b;
#X obj 628 258 f;
#X obj 526 214 moses -1;
#X obj 601 212 moses 1;
#X obj 548 295 +;
#X msg 504 313 0;
#X msg 628 281 patch \$1;
#X obj 500 350 pack f f;
#X obj 475 283 t b f;
#X obj 577 259 100;
#X obj 637 239 spigot;
#X obj 743 157 inlet;
#X obj 743 189 unpack f f f f;
#X obj 743 238 moses -1500;
#X obj 725 261 sel -1501;
#X obj 794 319 t f b;
#X obj 878 258 f;
#X obj 776 214 moses -1;
#X obj 851 212 moses 1;
#X obj 798 295 +;
#X msg 754 313 0;
#X msg 878 281 patch \$1;
#X obj 750 350 pack f f;
#X obj 725 283 t b f;
#X obj 827 259 100;
#X obj 887 239 spigot;
#X msg 500 372 note3 \$1 \$2;
#X msg 750 372 note4 \$1 \$2;
#X obj 948 156 inlet;
#X obj 948 179 unpack f f f f f f f f f f f f f f f f;
#X obj 977 216 pack;
#X msg 1048 407 fc \$1;
#X obj 966 280 route 31 32 33 34;
#X obj 1051 338 mtof;
#X obj 1051 360 / 22050;
#X msg 1075 385 q \$1;
#X msg 1102 406 eg1 \$1;
#X msg 1122 368 eg2 \$1;
#X obj 1110 343 * 0.01;
#X obj 1160 344 * 0.01;
#X obj 1032 453 outlet;
#X msg 961 319 dephase \$1;
#X obj 1051 316 route 41 42 43 44 45 46;
#X msg 1132 428 trig1 \$1;
#X msg 1163 406 trig2 \$1;
#X obj 702 416 f;
#X obj 697 438 spigot;
#X obj 751 438 spigot;
#X obj 974 64 tgl 12 0 empty empty t1 16 6 0 12 -262144 -1 -1 1 1;
#X obj 1006 64 tgl 12 0 empty empty t2 16 6 0 12 -262144 -1 -1 1 1
;
#X obj 982 27 route vol patch trans t1 t2;
#X msg 922 33 1;
#X connect 0 0 1 0;
#X connect 1 0 2 0;
#X connect 1 1 6 0;
#X connect 1 2 7 0;
#X connect 2 0 3 0;
#X connect 2 1 12 0;
#X connect 3 0 17 0;
#X connect 4 0 16 0;
#X connect 4 1 19 0;
#X connect 4 1 21 0;
#X connect 5 0 14 0;
#X connect 6 1 19 1;
#X connect 7 1 5 1;
#X connect 8 0 21 1;
#X connect 8 0 36 1;
#X connect 8 0 67 1;
#X connect 8 0 52 1;
#X connect 9 0 92 0;
#X connect 10 0 20 0;
#X connect 10 0 93 0;
#X connect 11 0 12 1;
#X connect 11 0 30 1;
#X connect 11 0 46 1;
#X connect 11 0 61 1;
#X connect 12 0 4 0;
#X connect 13 0 16 1;
#X connect 13 0 87 0;
#X connect 14 0 15 0;
#X connect 16 0 18 0;
#X connect 17 0 16 0;
#X connect 17 1 13 0;
#X connect 18 0 15 0;
#X connect 19 0 16 1;
#X connect 19 0 87 0;
#X connect 20 0 8 0;
#X connect 21 0 5 0;
#X connect 22 0 23 0;
#X connect 23 0 24 0;
#X connect 23 1 28 0;
#X connect 23 2 29 0;
#X connect 24 0 25 0;
#X connect 24 1 30 0;
#X connect 25 0 34 0;
#X connect 26 0 33 0;
#X connect 26 1 35 0;
#X connect 26 1 36 0;
#X connect 27 0 32 0;
#X connect 28 1 35 1;
#X connect 29 1 27 1;
#X connect 30 0 26 0;
#X connect 31 0 33 1;
#X connect 31 0 87 0;
#X connect 32 0 15 0;
#X connect 33 0 37 0;
#X connect 34 0 33 0;
#X connect 34 1 31 0;
#X connect 35 0 33 1;
#X connect 35 0 87 0;
#X connect 36 0 27 0;
#X connect 37 0 15 0;
#X connect 38 0 39 0;
#X connect 39 0 40 0;
#X connect 39 1 44 0;
#X connect 39 2 45 0;
#X connect 40 0 41 0;
#X connect 40 1 46 0;
#X connect 41 0 50 0;
#X connect 42 0 49 0;
#X connect 42 1 51 0;
#X connect 42 1 52 0;
#X connect 43 0 48 0;
#X connect 44 1 51 1;
#X connect 45 1 43 1;
#X connect 46 0 42 0;
#X connect 47 0 49 1;
#X connect 47 0 87 0;
#X connect 48 0 15 0;
#X connect 49 0 68 0;
#X connect 50 0 49 0;
#X connect 50 1 47 0;
#X connect 51 0 49 1;
#X connect 51 0 87 0;
#X connect 52 0 43 0;
#X connect 53 0 54 0;
#X connect 54 0 55 0;
#X connect 54 1 59 0;
#X connect 54 2 60 0;
#X connect 55 0 56 0;
#X connect 55 1 61 0;
#X connect 56 0 65 0;
#X connect 57 0 64 0;
#X connect 57 1 66 0;
#X connect 57 1 67 0;
#X connect 58 0 63 0;
#X connect 59 1 66 1;
#X connect 60 1 58 1;
#X connect 61 0 57 0;
#X connect 62 0 64 1;
#X connect 62 0 87 0;
#X connect 63 0 15 0;
#X connect 64 0 69 0;
#X connect 65 0 64 0;
#X connect 65 1 62 0;
#X connect 66 0 64 1;
#X connect 66 0 87 0;
#X connect 67 0 58 0;
#X connect 68 0 15 0;
#X connect 69 0 15 0;
#X connect 70 0 71 0;
#X connect 71 0 72 0;
#X connect 71 1 72 1;
#X connect 71 2 72 0;
#X connect 71 3 72 1;
#X connect 71 4 72 0;
#X connect 71 5 72 1;
#X connect 71 6 72 0;
#X connect 71 7 72 1;
#X connect 71 8 72 0;
#X connect 71 9 72 1;
#X connect 71 10 72 0;
#X connect 71 11 72 1;
#X connect 71 12 72 0;
#X connect 71 13 72 1;
#X connect 71 14 72 0;
#X connect 71 15 72 1;
#X connect 72 0 74 0;
#X connect 73 0 82 0;
#X connect 74 0 83 0;
#X connect 74 4 84 0;
#X connect 75 0 76 0;
#X connect 76 0 73 0;
#X connect 77 0 82 0;
#X connect 78 0 82 0;
#X connect 79 0 82 0;
#X connect 80 0 78 0;
#X connect 81 0 79 0;
#X connect 83 0 15 0;
#X connect 84 0 75 0;
#X connect 84 1 77 0;
#X connect 84 2 80 0;
#X connect 84 3 81 0;
#X connect 84 4 85 0;
#X connect 84 5 86 0;
#X connect 85 0 82 0;
#X connect 86 0 82 0;
#X connect 87 0 88 0;
#X connect 87 0 89 0;
#X connect 88 0 85 0;
#X connect 89 0 86 0;
#X connect 90 0 88 1;
#X connect 91 0 89 1;
#X connect 92 1 8 0;
#X connect 92 2 11 0;
#X connect 92 3 90 0;
#X connect 92 4 91 0;
#X connect 93 0 90 0;
#X connect 93 0 91 0;
#X coords 0 -1 1 1 250 20 1 790 60;
