#N canvas 9 65 807 545 10;
#X obj 21 27 inlet;
#X obj 21 50 unpack f f f f f f f f f f f f f f f f;
#X obj 20 85 pack;
#X obj 60 85 pack;
#X obj 100 85 pack;
#X obj 140 85 pack;
#X msg 18 446 a1a1 \$1;
#X msg 46 424 a1a2 \$1;
#X msg 82 446 a2a1 \$1;
#X msg 110 424 a2a2 \$1;
#X msg 148 446 a3a1 \$1;
#X msg 176 424 a3a2 \$1;
#X msg 240 424 a4a2 \$1;
#X msg 212 446 a4a1 \$1;
#X msg 352 446 send1 \$1;
#X msg 380 424 send2 \$1;
#X obj 14 484 outlet;
#X obj 17 124 route 11 12 13 14 15 16 17 18 19 20 21 22 23 24 25;
#X msg 272 446 a5a1 \$1;
#X msg 300 424 a5a2 \$1;
#X obj 17 145 moses 2;
#X obj 31 166 t b f;
#X obj 31 208 <;
#X obj 31 187 random 100;
#X obj 40 230 moses 2;
#X obj 54 251 t b f;
#X obj 54 293 <;
#X obj 54 272 random 100;
#X obj 63 315 moses 2;
#X obj 77 336 t b f;
#X obj 77 378 <;
#X obj 77 357 random 100;
#X obj 86 145 moses 2;
#X obj 100 166 t b f;
#X obj 100 208 <;
#X obj 100 187 random 100;
#X obj 109 230 moses 2;
#X obj 123 251 t b f;
#X obj 123 293 <;
#X obj 123 272 random 100;
#X obj 132 315 moses 2;
#X obj 146 336 t b f;
#X obj 146 378 <;
#X obj 146 357 random 100;
#X obj 157 145 moses 2;
#X obj 171 166 t b f;
#X obj 171 208 <;
#X obj 171 187 random 100;
#X obj 180 230 moses 2;
#X obj 194 251 t b f;
#X obj 194 293 <;
#X obj 194 272 random 100;
#X obj 203 315 moses 2;
#X obj 217 336 t b f;
#X obj 217 378 <;
#X obj 217 357 random 100;
#X obj 226 145 moses 2;
#X obj 240 166 t b f;
#X obj 240 208 <;
#X obj 240 187 random 100;
#X text 347 187 any number >= 2 is a probability;
#X connect 0 0 1 0;
#X connect 1 0 2 0;
#X connect 1 1 2 1;
#X connect 1 2 3 0;
#X connect 1 3 3 1;
#X connect 1 4 4 0;
#X connect 1 5 4 1;
#X connect 1 6 5 0;
#X connect 1 7 5 1;
#X connect 2 0 17 0;
#X connect 3 0 17 0;
#X connect 4 0 17 0;
#X connect 5 0 17 0;
#X connect 6 0 16 0;
#X connect 7 0 16 0;
#X connect 8 0 16 0;
#X connect 9 0 16 0;
#X connect 10 0 16 0;
#X connect 11 0 16 0;
#X connect 12 0 16 0;
#X connect 13 0 16 0;
#X connect 14 0 16 0;
#X connect 15 0 16 0;
#X connect 17 0 20 0;
#X connect 17 1 24 0;
#X connect 17 2 28 0;
#X connect 17 3 32 0;
#X connect 17 4 36 0;
#X connect 17 5 40 0;
#X connect 17 6 44 0;
#X connect 17 7 48 0;
#X connect 17 8 52 0;
#X connect 17 9 56 0;
#X connect 17 10 14 0;
#X connect 17 11 15 0;
#X connect 18 0 16 0;
#X connect 19 0 16 0;
#X connect 20 0 6 0;
#X connect 20 1 21 0;
#X connect 21 0 23 0;
#X connect 21 1 22 1;
#X connect 22 0 6 0;
#X connect 23 0 22 0;
#X connect 24 0 7 0;
#X connect 24 1 25 0;
#X connect 25 0 27 0;
#X connect 25 1 26 1;
#X connect 26 0 7 0;
#X connect 27 0 26 0;
#X connect 28 0 8 0;
#X connect 28 1 29 0;
#X connect 29 0 31 0;
#X connect 29 1 30 1;
#X connect 30 0 8 0;
#X connect 31 0 30 0;
#X connect 32 0 9 0;
#X connect 32 1 33 0;
#X connect 33 0 35 0;
#X connect 33 1 34 1;
#X connect 34 0 9 0;
#X connect 35 0 34 0;
#X connect 36 0 10 0;
#X connect 36 1 37 0;
#X connect 37 0 39 0;
#X connect 37 1 38 1;
#X connect 38 0 10 0;
#X connect 39 0 38 0;
#X connect 40 0 11 0;
#X connect 40 1 41 0;
#X connect 41 0 43 0;
#X connect 41 1 42 1;
#X connect 42 0 11 0;
#X connect 43 0 42 0;
#X connect 44 0 13 0;
#X connect 44 1 45 0;
#X connect 45 0 47 0;
#X connect 45 1 46 1;
#X connect 46 0 13 0;
#X connect 47 0 46 0;
#X connect 48 0 12 0;
#X connect 48 1 49 0;
#X connect 49 0 51 0;
#X connect 49 1 50 1;
#X connect 50 0 12 0;
#X connect 51 0 50 0;
#X connect 52 0 18 0;
#X connect 52 1 53 0;
#X connect 53 0 55 0;
#X connect 53 1 54 1;
#X connect 54 0 18 0;
#X connect 55 0 54 0;
#X connect 56 0 19 0;
#X connect 56 1 57 0;
#X connect 57 0 59 0;
#X connect 57 1 58 1;
#X connect 58 0 19 0;
#X connect 59 0 58 0;
