#N canvas 66 55 568 300 10;
#X obj 21 27 inlet;
#X obj 21 50 unpack f f f f f f f f f f f f f f f f;
#X obj 20 85 pack;
#X obj 60 85 pack;
#X obj 100 85 pack;
#X obj 140 85 pack;
#X obj 12 240 outlet;
#X obj 25 118 route 21 22 23 24 25 26 27 28 29 30;
#X msg 16 202 delpitch \$1;
#X msg 44 180 delay \$1;
#X msg 370 202 tempo \$1;
#X msg 344 180 div \$1;
#X msg 436 202 num \$1;
#X obj 390 237 outlet;
#X msg 124 180 lpf \$1;
#X msg 180 202 fb \$1;
#X msg 188 180 freq \$1;
#X msg 250 202 depth \$1;
#X msg 258 180 phase \$1;
#X obj 180 85 pack;
#X obj 220 85 pack;
#X obj 260 85 pack;
#X obj 300 85 pack;
#X connect 0 0 1 0;
#X connect 1 0 2 0;
#X connect 1 1 2 1;
#X connect 1 2 3 0;
#X connect 1 3 3 1;
#X connect 1 4 4 0;
#X connect 1 5 4 1;
#X connect 1 6 5 0;
#X connect 1 7 5 1;
#X connect 1 8 19 0;
#X connect 1 9 19 1;
#X connect 1 10 20 0;
#X connect 1 11 20 1;
#X connect 1 12 21 0;
#X connect 1 13 21 1;
#X connect 1 14 22 0;
#X connect 1 15 22 1;
#X connect 2 0 7 0;
#X connect 3 0 7 0;
#X connect 4 0 7 0;
#X connect 5 0 7 0;
#X connect 7 0 8 0;
#X connect 7 1 9 0;
#X connect 7 2 14 0;
#X connect 7 3 15 0;
#X connect 7 4 16 0;
#X connect 7 5 17 0;
#X connect 7 6 18 0;
#X connect 7 7 10 0;
#X connect 7 8 11 0;
#X connect 7 9 12 0;
#X connect 8 0 6 0;
#X connect 9 0 6 0;
#X connect 10 0 13 0;
#X connect 11 0 13 0;
#X connect 12 0 13 0;
#X connect 14 0 6 0;
#X connect 15 0 6 0;
#X connect 16 0 6 0;
#X connect 17 0 6 0;
#X connect 18 0 6 0;
#X connect 19 0 7 0;
#X connect 20 0 7 0;
#X connect 21 0 7 0;
#X connect 22 0 7 0;
