#N canvas 58 192 968 420 10;
#X declare -lib iemlib;
#X floatatom 97 106 9 0 22000 0 - - -;
#X floatatom 202 118 5 2 9999 0 - - -;
#X floatatom 125 269 9 0 22000 0 - - -;
#X floatatom 190 268 5 2 9999 0 - - -;
#X obj 63 38 inlet~;
#X obj 63 379 outlet~;
#X obj 156 197 inlet;
#X obj 90 130 pack f f;
#X obj 92 151 line~;
#X obj 78 170 +~;
#X obj 126 289 pack f f;
#X obj 128 310 line~;
#X obj 114 329 +~;
#X msg 628 231 0.707;
#X obj 624 197 loadbang;
#X obj 287 293 pack f f;
#X obj 289 314 line~;
#X obj 150 140 pack f f;
#X obj 152 161 line~;
#X msg 568 235 200;
#X obj 200 182 inlet~;
#X obj 282 182 inlet~;
#X text 207 166 hfc;
#X text 288 165 lfc;
#X obj 346 371 s \$0-hpfc-set;
#X obj 373 344 s \$0-lpfc-set;
#X obj 400 318 s \$0-hpq-set;
#X obj 427 293 s \$0-lpq-set;
#X msg 568 214 136;
#X msg 540 192 14;
#X obj 371 174 mtof;
#X obj 370 151 r \$0-hpfc_midi;
#X obj 373 198 s \$0-hpfc;
#X obj 466 171 mtof;
#X obj 468 195 s \$0-lpfc;
#X obj 103 84 r \$0-hpfc-num;
#X obj 125 246 r \$0-lpfc-num;
#X obj 110 222 r \$0-t_interp;
#X obj 287 272 r \$0-lpq;
#X obj 156 58 r \$0-hpq;
#X obj 454 272 s \$0-t_interp-set;
#X obj 711 199 >;
#X obj 709 166 t f f;
#X obj 706 249 f;
#X obj 704 224 select 1;
#X obj 694 111 r \$0-hpfc-num;
#X obj 701 142 spigot;
#X obj 826 102 r \$0-lpfc-num;
#X obj 706 294 ftom;
#X obj 785 117 tgl 15 0 empty \$0-gang empty 0 -6 0 10 -262144 -1 -1
1 1;
#X obj 842 169 t f f;
#X obj 839 252 f;
#X obj 837 227 select 1;
#X obj 834 145 spigot;
#X obj 839 297 ftom;
#X obj 844 202 <;
#X obj 706 331 s \$0-lpfc-set;
#X obj 839 334 s \$0-hpfc-set;
#X obj 770 141 sel 1;
#X obj 769 165 delay 0;
#X msg 600 248 1;
#X obj 589 272 s \$0-gang-set;
#X obj 240 182 inlet~;
#X obj 322 182 inlet~;
#X text 247 166 hq;
#X text 328 165 lq;
#X obj 100 191 +~;
#X obj 162 347 +~;
#X obj 63 196 \$1;
#X obj 63 358 \$2;
#X obj 241 88 cnv 15 370 34 empty empty empty 8 12 0 14 -155072 -13330
0;
#X obj 404 75 cnv 15 207 47 empty empty empty 8 12 0 14 -155072 -13330
0;
#X obj 304 93 hsl 246 12 14 136 0 0 \$0-hpfc_midi \$0-hpfc-set highpass
25 8 1 10 -45076 -232576 -232576 1205 1;
#X obj 304 108 hsl 246 12 14 136 0 0 \$0-lpfc_midi \$0-lpfc-set lowpass
25 6 1 10 -13381 -204786 -204786 24500 1;
#X obj 246 93 nbx 5 12 -1e+37 1e+37 0 0 \$0-hpfc-num \$0-hpfc empty
0 -6 1 10 -45076 -232576 -232576 25.9199 256;
#X obj 246 108 nbx 5 12 -1e+37 1e+37 0 0 \$0-lpfc-num \$0-lpfc empty
0 -6 1 10 -13381 -204786 -204786 1e+37 256;
#X obj 406 77 nbx 5 12 0 1e+37 0 0 \$0-t_interp \$0-t_interp-set porta
56 6 1 10 -83269 -262130 -86853 200 256;
#X obj 554 108 nbx 5 12 0.07 70.7 1 0 \$0-lpq \$0-lpq-set QL 0 -6 1
10 -204786 -13381 -13381 0.707 256;
#X obj 554 83 nbx 5 12 0.07 70.7 1 0 \$0-hpq \$0-hpq-set QH 42 18 1
10 -232576 -45076 -45076 0.707 256;
#X obj 465 148 r \$0-lpfc_midi;
#X obj 511 77 tgl 12 0 \$0-gang \$0-gang-set gang 15 6 1 10 -4160 -203904
-16662 1 1;
#X msg 752 298 20000;
#X msg 879 297 20;
#X obj 770 263 loadbang;
#N canvas 3 50 450 300 automation-out 0;
#X obj 43 79 r \$0-hpfc-num;
#X obj 132 121 r \$0-lpfc-num;
#X obj 221 163 r \$0-t_interp;
#X obj 177 142 r \$0-lpq;
#X obj 88 100 r \$0-hpq;
#X obj 59 252 outlet;
#X obj 43 100 change;
#X msg 43 121 hpf \$1;
#X obj 88 121 change;
#X msg 88 142 hq \$1;
#X obj 132 142 change;
#X obj 177 163 change;
#X msg 132 163 lpf \$1;
#X msg 177 184 lq \$1;
#X obj 221 184 change;
#X msg 221 205 porta \$1;
#X obj 314 187 r \$0-gang;
#X obj 314 208 change;
#X msg 314 229 gang \$1;
#X connect 0 0 6 0;
#X connect 1 0 10 0;
#X connect 2 0 14 0;
#X connect 3 0 11 0;
#X connect 4 0 8 0;
#X connect 6 0 7 0;
#X connect 7 0 5 0;
#X connect 8 0 9 0;
#X connect 9 0 5 0;
#X connect 10 0 12 0;
#X connect 11 0 13 0;
#X connect 12 0 5 0;
#X connect 13 0 5 0;
#X connect 14 0 15 0;
#X connect 15 0 5 0;
#X connect 16 0 17 0;
#X connect 17 0 18 0;
#X connect 18 0 5 0;
#X restore 513 328 pd automation-out;
#X obj 513 349 outlet;
#X obj 346 278 ftom;
#X obj 378 274 ftom;
#X obj 347 231 route hpf lpf hq lq porta gang;
#X obj 480 251 s \$0-gang-set;
#X obj 694 43 declare -lib iemlib;
#X connect 0 0 7 0;
#X connect 1 0 7 1;
#X connect 1 0 17 1;
#X connect 2 0 10 0;
#X connect 3 0 10 1;
#X connect 3 0 15 1;
#X connect 4 0 68 0;
#X connect 6 0 88 0;
#X connect 7 0 8 0;
#X connect 8 0 9 1;
#X connect 9 0 68 1;
#X connect 10 0 11 0;
#X connect 11 0 12 1;
#X connect 12 0 69 1;
#X connect 13 0 27 0;
#X connect 13 0 26 0;
#X connect 14 0 13 0;
#X connect 14 0 29 0;
#X connect 14 0 28 0;
#X connect 14 0 19 0;
#X connect 14 0 60 0;
#X connect 15 0 16 0;
#X connect 16 0 67 0;
#X connect 17 0 18 0;
#X connect 18 0 66 0;
#X connect 19 0 40 0;
#X connect 20 0 9 0;
#X connect 21 0 12 0;
#X connect 28 0 25 0;
#X connect 29 0 24 0;
#X connect 30 0 32 0;
#X connect 31 0 30 0;
#X connect 33 0 34 0;
#X connect 35 0 0 0;
#X connect 36 0 2 0;
#X connect 37 0 1 0;
#X connect 37 0 3 0;
#X connect 38 0 15 0;
#X connect 39 0 17 0;
#X connect 41 0 44 0;
#X connect 42 0 41 0;
#X connect 42 1 43 1;
#X connect 43 0 48 0;
#X connect 44 0 43 0;
#X connect 45 0 46 0;
#X connect 45 0 55 1;
#X connect 46 0 42 0;
#X connect 47 0 41 1;
#X connect 47 0 53 0;
#X connect 48 0 56 0;
#X connect 49 0 46 1;
#X connect 49 0 53 1;
#X connect 49 0 58 0;
#X connect 50 0 55 0;
#X connect 50 1 51 1;
#X connect 51 0 54 0;
#X connect 52 0 51 0;
#X connect 53 0 50 0;
#X connect 54 0 57 0;
#X connect 55 0 52 0;
#X connect 58 0 59 0;
#X connect 59 0 56 0;
#X connect 59 0 57 0;
#X connect 60 0 61 0;
#X connect 62 0 66 1;
#X connect 63 0 67 1;
#X connect 66 0 68 2;
#X connect 67 0 69 2;
#X connect 68 0 69 0;
#X connect 69 0 5 0;
#X connect 79 0 33 0;
#X connect 81 0 56 0;
#X connect 82 0 57 0;
#X connect 83 0 81 0;
#X connect 83 0 82 0;
#X connect 84 0 85 0;
#X connect 86 0 24 0;
#X connect 87 0 25 0;
#X connect 88 0 86 0;
#X connect 88 1 87 0;
#X connect 88 2 26 0;
#X connect 88 3 27 0;
#X connect 88 4 40 0;
#X connect 88 5 89 0;
#X coords 0 -1 1 1 372 53 1 240 72;
