#N canvas 61 89 728 668 10;
#X declare -lib zexy;
#X declare -lib sigpack;
#X obj 67 26 declare -lib zexy;
#X obj 53 318 phasor~ 8;
#X obj 53 339 *~;
#X floatatom 54 234 5 0 0 0 - - -;
#X obj 230 321 lop~ 1;
#X floatatom 271 300 5 1 10000 0 - - -;
#X obj 229 359 -~ 1;
#X obj 80 428 /~;
#X obj 382 14 loadbang;
#X obj 80 383 -~ 1;
#X obj 67 523 +~;
#X obj 79 454 +~ 1;
#X obj 61 664 outlet~;
#X obj 53 253 pack f 20;
#X obj 53 274 line~;
#X floatatom 95 232 5 0 0 0 - - -;
#X text 171 153 shape;
#X obj 170 177 r \$0-shape;
#X obj 16 175 r \$0-pitch;
#X obj 30 207 mtof;
#X obj 71 205 r \$0-freq;
#X obj 336 223 inlet;
#X obj 150 261 r \$0-phase;
#X obj 134 284 f;
#X obj 132 236 r \$0-pbang;
#X text 277 252 slew;
#X obj 276 268 r \$0-slew;
#X obj 387 96 r \$0-freq;
#X obj 388 123 ftom;
#X msg 388 154 set \$1;
#X obj 101 77 cnv 15 240 47 empty empty empty 6 8 0 10 -36874 -204800
0;
#X obj 29 148 b;
#X obj 102 135 r \$0-sync;
#X obj 67 154 spigot;
#X obj 364 405 s \$0-pitch-set;
#X obj 337 424 s \$0-freq-set;
#X obj 467 420 s \$0-sync-set;
#X obj 405 362 s \$0-pbang-bng;
#X obj 377 180 s \$0-pitch-set;
#X obj 380 59 s \$0-shape-set;
#X msg 470 159 set \$1;
#X obj 470 180 s \$0-freq-set;
#X obj 470 139 mtof;
#X obj 405 386 s \$0-phase-set;
#X obj 600 385 s \$0-shape-set;
#X obj 94 174 r \$0-glide;
#X obj 497 373 s \$0-glide-set;
#X obj 631 404 s \$0-slew-set;
#X obj 386 453 t b f;
#X obj 397 469 t b f;
#X obj 413 487 t b f;
#X obj 429 505 t b f;
#X obj 442 523 t b f;
#X obj 454 541 t b f;
#X obj 53 296 +~;
#X obj 467 250 inlet~;
#X text 461 233 mod freq;
#X text 563 159 mod shape;
#X obj 175 685 outlet~;
#X obj 347 701 outlet;
#X msg 338 629 pitch \$1;
#X msg 421 667 freq \$1;
#X obj 422 646 change;
#X obj 338 608 change;
#X obj 438 595 change;
#X msg 437 616 phase \$1;
#X obj 475 645 change;
#X msg 474 666 sync \$1;
#X obj 499 686 change;
#X msg 498 707 glide \$1;
#X obj 497 595 change;
#X msg 496 616 bip \$1;
#X obj 235 385 r \$0-freq;
#X obj 286 480 r \$0-pitch;
#X obj 299 500 r \$0-phase;
#X obj 320 517 r \$0-sync;
#X obj 68 560 *~ 1;
#X obj 192 521 r \$0-bipolar;
#X obj 189 544 sel 0 1;
#X obj 152 622 s \$0-bipolar-set;
#X msg 197 575 label +-;
#X msg 183 599 label +;
#X obj 581 357 s \$0-bipolar-set;
#X obj 459 453 r \$0-glide;
#X obj 489 484 r \$0-bipolar;
#X obj 517 510 r \$0-shape;
#X obj 539 540 r \$0-slew;
#X obj 493 546 t b f;
#X obj 537 615 change;
#X obj 566 663 change;
#X msg 536 636 shape \$1;
#X msg 565 684 slew \$1;
#X msg 156 542 1;
#X msg 131 540 2;
#X obj 68 580 -~ 0;
#X msg 127 577 1;
#X msg 158 576 0;
#X msg 501 35 1;
#X obj 502 69 s \$0-bipolar-set;
#X obj 480 97 r \$0-pitch;
#X obj 626 164 inlet~;
#X obj 171 63 cnv 15 170 61 empty empty empty 6 8 0 10 -36874 -204800
0;
#X obj 260 67 nbx 8 12 2e-05 999999 0 0 \$0-freq \$0-freq-set f -7
6 1 10 -90649 -204800 -203904 130.813 256;
#X obj 181 93 tgl 14 0 \$0-bipolar \$0-bipolar-set +- 2 -7 1 10 -90649
-204800 -203904 1 1;
#X obj 160 83 tgl 14 0 \$0-sync \$0-sync-set sync -5 18 1 10 -90649
-204800 -203904 0 1;
#X obj 105 93 nbx 4 14 0 360 0 0 \$0-phase_deg \$0-phase_deg-set phase
0 -8 1 10 -90649 -204800 -203904 0 256;
#X obj 277 81 nbx 6 12 -200 154 0 0 \$0-pitch \$0-pitch-set p -7 6
1 10 -90649 -204800 -203904 48 256;
#X obj 294 95 nbx 4 12 0 9999 0 0 \$0-glide \$0-glide-set glide -31
6 1 10 -90649 -204800 -203904 0 256;
#X obj 107 109 hsl 133 12 0.02 201 1 0 \$0-shape \$0-shape-set shape
53 6 1 10 -90649 -204800 -203904 6200 1;
#X obj 149 84 bng 10 100 50 0 \$0-pbang \$0-pbang-bng empty 17 7 0
10 -90649 -204800 -203904;
#X obj 303 109 nbx 3 12 0 999 0 0 \$0-slew \$0-slew-set slew_f -36
6 1 10 -90649 -204800 -203904 25 256;
#X obj 176 65 hsl 59 12 0.005 200 1 0 \$0-incoeff \$0-incoeff-set modulate~
2 6 1 10 -13330 -232576 -232576 2900 1;
#X msg 604 39 99;
#X obj 609 67 s \$0-incoeff-set;
#X floatatom 680 164 5 0 0 0 - - -;
#X msg 566 19 1;
#X msg 302 28 0.900628;
#X msg 460 14 0;
#X obj 236 65 tgl 12 0 \$0-mod_in \$0-mod_in-set empty 15 6 0 10 -34201
-232576 -232576 0 1;
#X obj 593 242 r \$0-mod_in;
#X obj 546 261 *~ 0;
#X msg 382 34 2;
#X obj 640 44 s \$0-slew-set;
#X msg 640 16 25;
#X obj 419 290 unpack f f f f f f f f f f;
#X obj 579 433 s \$0-mod_in-set;
#X obj 617 464 s \$0-incoeff-set;
#X obj 589 570 r \$0-incoeff;
#X obj 614 591 r \$0-mod_in;
#X obj 605 537 t b f;
#X obj 648 538 t b f;
#X obj 351 574 pack f f f f f f f f f f;
#X obj 594 618 change;
#X obj 650 640 change;
#X msg 593 639 mod \$1;
#X msg 649 661 mod_in \$1;
#X msg 226 24 0.928318;
#X floatatom 228 233 5 0 0 0 - - -;
#X text 241 177 0.02 - 200;
#X text 259 201 comment;
#X obj 171 199 + 0.98;
#X obj 337 313 route freq pitch pbang phase sync glide bip bias slew
mod mod_in all;
#X obj 351 249 t a a;
#N canvas 0 0 450 300 auto-live 0;
#X obj 115 51 unpack f f f f f f f f f f;
#X obj 269 203 s \$0-mod_in-set;
#X obj 27 83 route freq pitch pbang phase sync glide bip bias slew
mod mod_in all;
#X obj 27 44 inlet;
#X obj 28 212 s \$0-freq;
#X obj 54 175 s \$0-pitch;
#X obj 157 190 s \$0-sync;
#X obj 187 143 s \$0-glide;
#X obj 95 157 s \$0-phase_deg;
#X obj 290 155 s \$0-shape;
#X obj 321 174 s \$0-slew;
#X obj 245 124 s \$0-bipolar;
#X obj 307 234 s \$0-incoeff;
#X connect 0 0 4 0;
#X connect 0 1 5 0;
#X connect 0 2 8 0;
#X connect 0 3 6 0;
#X connect 0 4 7 0;
#X connect 0 5 11 0;
#X connect 0 6 9 0;
#X connect 0 7 10 0;
#X connect 0 8 12 0;
#X connect 0 9 1 0;
#X connect 2 0 4 0;
#X connect 2 1 5 0;
#X connect 2 3 8 0;
#X connect 2 4 6 0;
#X connect 2 5 7 0;
#X connect 2 6 11 0;
#X connect 2 7 9 0;
#X connect 2 8 10 0;
#X connect 2 9 12 0;
#X connect 2 10 1 0;
#X connect 2 11 0 0;
#X connect 3 0 2 0;
#X restore 368 271 pd auto-live;
#X obj 272 500 t b;
#X obj 266 574 s \$0-freq-set;
#X obj 241 482 change;
#X obj 211 406 change;
#X obj 211 425 t b;
#X obj 211 463 s \$0-pitch-set;
#X obj 271 524 delay 0;
#X obj 211 444 delay 0;
#X obj 598 120 r \$0-incoeff;
#X obj 608 188 *~ 200;
#X obj 276 655 list prepend all;
#X obj 276 676 list trim;
#X obj 181 135 declare -lib sigpack;
#X obj 53 362 sigpack/split~ 1;
#X obj 79 478 sigpack/foldback~ 0 1;
#X obj 80 403 sigpack/diode~ 1;
#X obj 75 503 sigpack/split~ 1;
#X obj 594 265 route porta shape;
#X connect 1 0 2 0;
#X connect 2 0 157 0;
#X connect 3 0 13 0;
#X connect 4 0 2 1;
#X connect 4 0 6 0;
#X connect 5 0 4 1;
#X connect 6 0 7 1;
#X connect 7 0 11 0;
#X connect 8 0 121 0;
#X connect 8 0 97 0;
#X connect 8 0 115 0;
#X connect 8 0 123 0;
#X connect 9 0 159 0;
#X connect 10 0 76 0;
#X connect 11 0 158 0;
#X connect 13 0 14 0;
#X connect 14 0 54 0;
#X connect 15 0 13 1;
#X connect 17 0 140 0;
#X connect 18 0 19 0;
#X connect 19 0 3 0;
#X connect 20 0 3 0;
#X connect 21 0 142 0;
#X connect 22 0 23 1;
#X connect 23 0 1 1;
#X connect 24 0 23 0;
#X connect 26 0 5 0;
#X connect 27 0 28 0;
#X connect 28 0 29 0;
#X connect 28 0 63 0;
#X connect 29 0 38 0;
#X connect 31 0 33 0;
#X connect 32 0 33 1;
#X connect 33 0 23 0;
#X connect 40 0 41 0;
#X connect 42 0 40 0;
#X connect 42 0 62 0;
#X connect 45 0 15 0;
#X connect 48 0 131 0;
#X connect 48 1 131 1;
#X connect 49 0 131 0;
#X connect 49 1 131 2;
#X connect 50 0 131 0;
#X connect 50 1 131 3;
#X connect 51 0 131 0;
#X connect 51 1 131 4;
#X connect 52 0 131 0;
#X connect 52 1 131 5;
#X connect 53 0 131 0;
#X connect 53 1 131 6;
#X connect 54 0 1 0;
#X connect 54 0 58 0;
#X connect 55 0 54 1;
#X connect 60 0 59 0;
#X connect 61 0 59 0;
#X connect 62 0 61 0;
#X connect 63 0 60 0;
#X connect 64 0 65 0;
#X connect 65 0 59 0;
#X connect 66 0 67 0;
#X connect 67 0 59 0;
#X connect 68 0 69 0;
#X connect 69 0 59 0;
#X connect 70 0 71 0;
#X connect 71 0 59 0;
#X connect 72 0 62 0;
#X connect 72 0 131 0;
#X connect 72 0 147 0;
#X connect 73 0 63 0;
#X connect 73 0 48 0;
#X connect 73 0 146 0;
#X connect 74 0 64 0;
#X connect 74 0 49 0;
#X connect 75 0 66 0;
#X connect 75 0 50 0;
#X connect 76 0 94 0;
#X connect 77 0 78 0;
#X connect 78 0 92 0;
#X connect 78 0 96 0;
#X connect 78 0 81 0;
#X connect 78 1 93 0;
#X connect 78 1 95 0;
#X connect 78 1 80 0;
#X connect 80 0 79 0;
#X connect 81 0 79 0;
#X connect 83 0 51 0;
#X connect 83 0 68 0;
#X connect 84 0 52 0;
#X connect 84 0 70 0;
#X connect 85 0 53 0;
#X connect 85 0 88 0;
#X connect 86 0 87 0;
#X connect 86 0 89 0;
#X connect 87 0 131 0;
#X connect 87 1 131 7;
#X connect 88 0 90 0;
#X connect 89 0 91 0;
#X connect 90 0 59 0;
#X connect 91 0 59 0;
#X connect 92 0 76 1;
#X connect 93 0 76 1;
#X connect 94 0 12 0;
#X connect 95 0 94 1;
#X connect 96 0 94 1;
#X connect 97 0 98 0;
#X connect 99 0 42 0;
#X connect 100 0 153 0;
#X connect 112 0 113 0;
#X connect 114 0 153 1;
#X connect 115 0 113 0;
#X connect 116 0 39 0;
#X connect 117 0 113 0;
#X connect 119 0 120 1;
#X connect 120 0 6 0;
#X connect 120 0 2 1;
#X connect 121 0 39 0;
#X connect 123 0 122 0;
#X connect 124 0 35 0;
#X connect 124 1 34 0;
#X connect 124 2 43 0;
#X connect 124 3 36 0;
#X connect 124 4 46 0;
#X connect 124 5 82 0;
#X connect 124 6 44 0;
#X connect 124 7 47 0;
#X connect 124 8 126 0;
#X connect 124 9 125 0;
#X connect 127 0 132 0;
#X connect 127 0 129 0;
#X connect 128 0 133 0;
#X connect 128 0 130 0;
#X connect 129 0 131 0;
#X connect 129 1 131 8;
#X connect 130 0 131 0;
#X connect 130 1 131 9;
#X connect 131 0 154 0;
#X connect 132 0 134 0;
#X connect 133 0 135 0;
#X connect 134 0 59 0;
#X connect 135 0 59 0;
#X connect 136 0 39 0;
#X connect 137 0 4 0;
#X connect 140 0 137 0;
#X connect 141 0 31 0;
#X connect 141 0 35 0;
#X connect 141 1 31 0;
#X connect 141 1 34 0;
#X connect 141 2 37 0;
#X connect 141 3 43 0;
#X connect 141 4 36 0;
#X connect 141 5 46 0;
#X connect 141 6 82 0;
#X connect 141 7 44 0;
#X connect 141 8 47 0;
#X connect 141 9 126 0;
#X connect 141 10 125 0;
#X connect 141 11 124 0;
#X connect 141 12 161 0;
#X connect 142 0 141 0;
#X connect 142 1 143 0;
#X connect 144 0 150 0;
#X connect 146 0 144 0;
#X connect 147 0 148 0;
#X connect 148 0 151 0;
#X connect 150 0 145 0;
#X connect 151 0 149 0;
#X connect 152 0 114 0;
#X connect 153 0 120 0;
#X connect 154 0 155 0;
#X connect 155 0 59 0;
#X connect 157 0 10 0;
#X connect 157 1 9 0;
#X connect 158 0 160 0;
#X connect 159 0 7 0;
#X connect 160 0 10 1;
#X connect 161 0 46 0;
#X connect 161 1 44 0;
#X coords 0 -1 1 1 242 67 1 100 60;
