#N canvas 0 0 1344 681 10;
#X obj 37 584 cyclone/svf~;
#X obj 28 154 inlet~;
#X obj 526 167 r \$0-pitch;
#X obj 526 187 mtof;
#X obj 612 167 r \$0-freq;
#X obj 1090 287 s \$0-patch-set;
#X obj 101 46 cnv 15 85 47 empty empty empty 20 12 0 14 -183672 -66577
0;
#X obj 103 57 nbx 3 12 0 120 0 0 empty empty empty -2 -6 0 7 -257472
-1109 -90133 0 256;
#X obj 145 57 nbx 3 12 1 3 0 0 \$0-patch-num \$0-patch-set select 0
-5 0 7 -17235 -261234 -17235 1 256;
#X obj 113 78 bng 12 250 50 0 \$0-store_patch \$0-store_patch-bng store
-3 -5 0 7 -17235 -262130 -17235;
#X obj 146 73 bng 10 250 50 0 \$0-patches_load \$0-patches_load-bng
load -5 16 0 7 -2498 -262144 -13381;
#X obj 159 73 bng 10 250 50 0 \$0-patches_save \$0-patches_save-bng
save 0 16 0 7 -159809 -262144 -86277;
#X obj 103 57 nbx 3 12 0 120 0 0 \$0-patches-dummy \$0-patches-num
patches 0 -5 0 7 -17235 -203904 -17235 0 256;
#X obj 176 61 bng 8 250 50 0 \$0-store_plus \$0-store_plus-bng + 2
-4 0 7 -17235 -198336 -17235;
#X obj 134 61 bng 8 250 50 0 \$0-store_minus \$0-store_minus-bng -
1 -5 0 10 -17235 -257985 -17235;
#X msg 765 296 1;
#X obj 763 269 loadbang;
#X obj 740 364 r \$0-patch-num;
#X obj 751 387 t b f b;
#N canvas 0 0 529 407 init 0;
#X obj 90 7 r \$0-type;
#X obj 92 89 s \$0-type-set;
#X obj 89 33 sel 0 1 2 3;
#X msg 40 60 label lpf;
#X msg 107 60 label hpf;
#X msg 170 60 label bpf;
#X msg 237 60 label brf;
#X obj 317 167 s \$0-porta-set;
#X obj 242 364 s \$0-fc_a-set;
#X obj 297 186 s \$0-type-set;
#X obj 262 305 s \$0-fc_d-set;
#X obj 256 265 s \$0-fc_s-set;
#X obj 303 227 s \$0-fc_r-set;
#X obj 142 364 s \$0-amp_a-set;
#X obj 162 305 s \$0-amp_d-set;
#X obj 156 265 s \$0-amp_s-set;
#X obj 203 227 s \$0-amp_r-set;
#X obj 70 189 s \$0-pitch-set;
#X obj 90 169 s \$0-fc_eg_depth-set;
#X obj 113 150 s \$0-res_pc-set;
#X msg 74 133 0;
#X msg 36 159 36;
#X msg 111 119 20;
#X msg 135 335 3;
#X msg 108 281 120;
#X msg 104 237 100;
#X msg 183 203 1000;
#X msg 238 335 10;
#X msg 273 144 0;
#X msg 314 136 50;
#X obj 218 97 loadbang;
#X connect 0 0 2 0;
#X connect 2 0 3 0;
#X connect 2 1 4 0;
#X connect 2 2 5 0;
#X connect 2 3 6 0;
#X connect 3 0 1 0;
#X connect 4 0 1 0;
#X connect 5 0 1 0;
#X connect 6 0 1 0;
#X connect 20 0 18 0;
#X connect 21 0 17 0;
#X connect 22 0 19 0;
#X connect 23 0 13 0;
#X connect 24 0 14 0;
#X connect 24 0 10 0;
#X connect 25 0 15 0;
#X connect 25 0 11 0;
#X connect 26 0 16 0;
#X connect 26 0 12 0;
#X connect 27 0 8 0;
#X connect 28 0 9 0;
#X connect 29 0 7 0;
#X connect 30 0 29 0;
#X connect 30 0 28 0;
#X connect 30 0 22 0;
#X connect 30 0 20 0;
#X connect 30 0 21 0;
#X connect 30 0 26 0;
#X connect 30 0 25 0;
#X connect 30 0 24 0;
#X connect 30 0 23 0;
#X connect 30 0 27 0;
#X restore 394 230 pd init;
#X obj 556 220 s \$0-fc;
#X obj 71 531 +~;
#X obj 150 479 pack f 5;
#X obj 150 459 r \$0-fc;
#X obj 150 499 line~;
#X obj 106 544 pack f 5;
#X obj 106 564 line~;
#X obj 106 524 r \$0-res;
#X obj 157 217 r \$0-fc_a-num;
#X obj 168 237 r \$0-fc_d-num;
#X obj 179 257 r \$0-fc_s-num;
#X obj 191 277 r \$0-fc_r-num;
#X obj 241 162 inlet;
#X obj 136 592 r \$0-type;
#X obj 52 618 == 0;
#X obj 37 639 *~;
#X obj 77 639 *~;
#X obj 117 639 *~;
#X obj 157 639 *~;
#X obj 92 618 == 1;
#X obj 132 618 == 2;
#X obj 172 618 == 3;
#X obj 136 677 *~;
#X obj 465 268 r \$0-amp_a-num;
#X obj 476 288 r \$0-amp_d-num;
#X obj 487 308 r \$0-amp_s-num;
#X obj 499 328 r \$0-amp_r-num;
#X obj 30 699 outlet~;
#X obj 199 459 r \$0-porta;
#X obj 759 326 s \$0-patch_on;
#X obj 427 34 r \$0-patch_on;
#X obj 427 62 switch~;
#X obj 173 135 r \$0-fc_eg_depth-num;
#X obj 87 469 pack f 5;
#X obj 87 489 line~;
#X obj 71 511 *~;
#X obj 708 167 inlet~;
#X obj 241 184 route float;
#X obj 207 296 r \$0-lines;
#X obj 297 403 sel 0;
#X obj 397 420 t b;
#X obj 347 462 pack 0 \$2;
#X obj 397 440 del \$2;
#X obj 387 524 line~;
#X obj 417 459 f \$4;
#X obj 417 497 pack 0 \$3;
#X msg 297 434 stop;
#X obj 493 416 pack 0 \$5;
#X obj 417 478 * 0.01;
#X obj 334 402 moses;
#X obj 334 421 t b b;
#X msg 336 497 0;
#X msg 347 444 1;
#X obj 47 313 sel 0;
#X obj 147 330 t b;
#X obj 97 372 pack 0 \$2;
#X obj 147 350 del \$2;
#X obj 137 434 line~;
#X obj 167 369 f \$4;
#X obj 167 407 pack 0 \$3;
#X msg 47 344 stop;
#X obj 167 388 * 0.01;
#X obj 84 312 moses;
#X obj 84 331 t b b;
#X msg 86 407 0;
#X msg 97 354 1;
#X obj 243 326 pack 0 \$5;
#X obj 919 5 route all;
#X obj 919 25 unpack f f f f f f f f f f f f f f;
#X obj 974 236 s \$0-fc_a-num;
#X obj 994 217 s \$0-fc_d-num;
#X obj 1013 198 s \$0-fc_s-num;
#X obj 1032 179 s \$0-fc_r-num;
#X obj 1051 160 s \$0-type;
#X obj 859 108 s \$0-fc_eg_depth-num;
#X obj 878 89 s \$0-res;
#X obj 1090 122 s \$0-lines;
#X obj 897 312 s \$0-amp_a-num;
#X obj 917 293 s \$0-amp_d-num;
#X obj 936 274 s \$0-amp_s-num;
#X obj 1071 141 s \$0-porta;
#X obj 821 51 route freq pitch depth res aa ad as ar fa fd fs fr type
porta randpat on lines;
#X obj 821 146 s \$0-freq;
#X obj 840 127 s \$0-pitch;
#X obj 955 255 s \$0-amp_r-num;
#X obj 1090 261 route patch file;
#X msg 1216 81 1;
#X obj 1216 62 loadbang;
#X obj 1184 101 s \$0-patch_on;
#X obj 855 382 f;
#X obj 855 525 prepend add;
#X obj 852 558 t b a;
#X obj 922 647 msgfile;
#X obj 1189 708 spigot;
#X msg 1233 707 0;
#X msg 1234 690 1;
#X msg 1005 615 add patches 0;
#X obj 1002 577 loadbang;
#X obj 913 877 route patches;
#X msg 939 564 goto 0;
#X obj 867 623 + 1;
#X obj 851 640 f;
#X msg 851 693 replace patches \$1;
#X msg 902 614 this;
#X obj 851 588 t b b b;
#X msg 1406 653 range 1 \$1;
#X obj 1179 543 t b f;
#X msg 1194 567 goto \$1;
#X msg 1159 566 this;
#X obj 1286 555 r \$0-patches_load;
#X obj 1286 582 openpanel;
#X msg 1360 628 read \$1;
#X msg 1316 628 goto 0;
#X msg 1286 628 this;
#X obj 1466 507 r \$0-patches_save;
#X obj 1466 535 savepanel;
#X msg 1463 608 write \$1;
#X msg 1059 548 print;
#X obj 914 847 route list;
#X obj 1286 609 t b b a b;
#X msg 1302 688 clear;
#X obj 1111 501 r \$0-patches_clear;
#X obj 1112 540 t b b;
#X obj 1241 504 symbol;
#X obj 1772 631 random;
#X obj 1189 725 s \$0-patches-num;
#X obj 1406 670 s \$0-patch-set;
#X obj 1734 555 r \$0-store_plus;
#X obj 1618 555 r \$0-store_minus;
#X obj 1734 579 f;
#X obj 1618 589 f;
#X obj 1618 609 +;
#X obj 1663 606 %;
#X obj 1663 626 + 1;
#X obj 1596 524 - 1;
#X obj 1618 630 - 1;
#X obj 1734 600 + 1;
#X obj 1657 647 s \$0-patch-set;
#X obj 1465 564 makesymbol %s.dlf;
#X obj 855 339 r \$0-store_patch;
#X obj 870 359 r \$0-freq;
#X obj 873 407 r \$0-pitch;
#X obj 887 443 r \$0-fc_eg_depth-num;
#X obj 903 469 r \$0-res;
#X obj 935 362 r \$0-amp_a-num;
#X obj 946 381 r \$0-amp_d-num;
#X obj 955 400 r \$0-amp_s-num;
#X obj 968 419 r \$0-amp_r-num;
#X obj 1041 360 r \$0-fc_a-num;
#X obj 857 503 pack f f f f f f f f f f f f f f;
#X obj 1051 380 r \$0-fc_d-num;
#X obj 1061 400 r \$0-fc_s-num;
#X obj 1070 420 r \$0-fc_r-num;
#X obj 1000 662 unpack f f f f f f f f f f f f f f;
#X obj 1014 813 s \$0-freq;
#X obj 1032 793 s \$0-pitch;
#X obj 1054 773 s \$0-fc_eg_depth-num;
#X obj 1075 753 s \$0-res;
#X obj 1086 443 r \$0-type;
#X obj 1118 466 r \$0-porta;
#X obj 1259 789 s \$0-type;
#X obj 1279 770 s \$0-porta;
#X obj 1265 830 s \$0-fc_r-num;
#X obj 1218 856 s \$0-fc_s-num;
#X obj 1201 892 s \$0-fc_d-num;
#X obj 1165 830 s \$0-amp_r-num;
#X obj 1118 856 s \$0-amp_s-num;
#X obj 1145 913 s \$0-fc_a-num;
#X obj 1100 891 s \$0-amp_d-num;
#X obj 1045 913 s \$0-amp_a-num;
#X msg 1762 698 patch \$1;
#X obj 1730 730 s \$0-patch-set;
#X obj 178 1118 outlet;
#X obj 24 738 change;
#X obj 92 758 change;
#X obj 233 799 change;
#X obj 284 820 change;
#X obj 348 840 change;
#X obj 398 860 change;
#X obj 448 880 change;
#X obj 497 900 change;
#X obj 546 920 change;
#X obj 201 752 change;
#X obj 25 1087 spigot;
#X obj 741 669 prepend file;
#X msg 574 753 1;
#X msg 673 758 0;
#X obj 519 724 loadbang;
#X obj 44 871 t b f;
#X obj 141 873 t b f;
#X obj 196 890 t b f;
#X obj 250 904 t b f;
#X obj 309 912 t b f;
#X obj 374 943 t b f;
#X obj 420 964 t b f;
#X obj 465 989 t b f;
#X obj 515 1008 t b f;
#X obj 305 1096 prepend all;
#X obj 201 731 r \$0-fc_eg_depth-num;
#X msg 161 793 depth \$1;
#X obj 233 779 r \$0-res;
#X msg 233 820 res \$1;
#X obj 284 799 r \$0-amp_a-num;
#X msg 284 840 aa \$1;
#X obj 347 819 r \$0-amp_d-num;
#X msg 348 860 ad \$1;
#X obj 398 840 r \$0-amp_s-num;
#X msg 398 880 as \$1;
#X obj 448 860 r \$0-amp_r-num;
#X msg 448 900 ar \$1;
#X obj 497 880 r \$0-fc_a-num;
#X msg 497 920 fa \$1;
#X obj 546 900 r \$0-fc_d-num;
#X msg 546 940 fd \$1;
#X obj 596 940 change;
#X obj 565 1028 t b f;
#X obj 646 960 change;
#X obj 615 1030 t b f;
#X obj 596 920 r \$0-fc_s-num;
#X obj 646 940 r \$0-fc_r-num;
#X msg 596 960 fs \$1;
#X msg 646 980 fr \$1;
#X obj 305 1076 pack f f f f f f f f f f f f f f;
#X obj 696 980 change;
#X obj 659 1026 t b f;
#X obj 746 1000 change;
#X obj 709 1028 t b f;
#X obj 696 960 r \$0-type;
#X obj 746 980 r \$0-porta;
#X msg 696 1000 type \$1;
#X msg 746 1020 porta \$1;
#X obj 92 738 r \$0-pitch;
#X obj 24 718 r \$0-freq;
#X msg 24 758 freq \$1;
#X msg 92 778 pitch \$1;
#X connect 0 0 35 0;
#X connect 0 1 36 0;
#X connect 0 2 37 0;
#X connect 0 3 38 0;
#X connect 1 0 0 0;
#X connect 2 0 3 0;
#X connect 3 0 20 0;
#X connect 4 0 20 0;
#X connect 15 0 49 0;
#X connect 16 0 15 0;
#X connect 17 0 18 0;
#X connect 18 0 205 0;
#X connect 18 1 126 0;
#X connect 18 2 206 0;
#X connect 21 0 0 1;
#X connect 22 0 24 0;
#X connect 23 0 22 0;
#X connect 24 0 21 1;
#X connect 25 0 26 0;
#X connect 26 0 0 2;
#X connect 27 0 25 0;
#X connect 28 0 76 1;
#X connect 29 0 79 1;
#X connect 30 0 78 1;
#X connect 31 0 86 1;
#X connect 32 0 57 0;
#X connect 33 0 34 0;
#X connect 33 0 39 0;
#X connect 33 0 40 0;
#X connect 33 0 41 0;
#X connect 34 0 35 1;
#X connect 35 0 42 0;
#X connect 36 0 42 0;
#X connect 37 0 42 0;
#X connect 38 0 42 0;
#X connect 39 0 36 1;
#X connect 40 0 37 1;
#X connect 41 0 38 1;
#X connect 42 0 47 0;
#X connect 43 0 62 1;
#X connect 44 0 65 1;
#X connect 45 0 64 1;
#X connect 46 0 67 1;
#X connect 48 0 22 1;
#X connect 50 0 51 0;
#X connect 52 0 53 0;
#X connect 53 0 54 0;
#X connect 54 0 55 1;
#X connect 55 0 21 0;
#X connect 56 0 0 1;
#X connect 57 0 59 0;
#X connect 57 0 73 0;
#X connect 57 1 101 0;
#X connect 58 0 53 1;
#X connect 58 0 25 1;
#X connect 59 0 66 0;
#X connect 59 0 67 0;
#X connect 59 1 69 0;
#X connect 60 0 62 0;
#X connect 60 0 72 0;
#X connect 61 0 63 0;
#X connect 62 0 64 0;
#X connect 63 0 42 1;
#X connect 64 0 68 0;
#X connect 65 0 63 0;
#X connect 66 0 62 0;
#X connect 67 0 63 0;
#X connect 68 0 65 0;
#X connect 69 0 70 0;
#X connect 69 1 60 0;
#X connect 70 0 60 0;
#X connect 70 1 71 0;
#X connect 71 0 63 0;
#X connect 72 0 61 0;
#X connect 73 0 80 0;
#X connect 73 0 86 0;
#X connect 73 1 82 0;
#X connect 74 0 76 0;
#X connect 74 0 85 0;
#X connect 75 0 77 0;
#X connect 76 0 78 0;
#X connect 77 0 55 0;
#X connect 78 0 81 0;
#X connect 79 0 77 0;
#X connect 80 0 76 0;
#X connect 81 0 79 0;
#X connect 82 0 83 0;
#X connect 82 1 74 0;
#X connect 83 0 74 0;
#X connect 83 1 84 0;
#X connect 84 0 77 0;
#X connect 85 0 75 0;
#X connect 86 0 77 0;
#X connect 87 0 88 0;
#X connect 88 0 102 0;
#X connect 88 1 103 0;
#X connect 88 2 94 0;
#X connect 88 3 95 0;
#X connect 88 4 97 0;
#X connect 88 5 98 0;
#X connect 88 6 99 0;
#X connect 88 7 104 0;
#X connect 88 8 89 0;
#X connect 88 9 90 0;
#X connect 88 10 91 0;
#X connect 88 11 92 0;
#X connect 88 12 93 0;
#X connect 88 13 100 0;
#X connect 101 0 102 0;
#X connect 101 1 103 0;
#X connect 101 2 94 0;
#X connect 101 3 95 0;
#X connect 101 4 97 0;
#X connect 101 5 98 0;
#X connect 101 6 99 0;
#X connect 101 7 104 0;
#X connect 101 8 89 0;
#X connect 101 9 90 0;
#X connect 101 10 91 0;
#X connect 101 11 92 0;
#X connect 101 12 93 0;
#X connect 101 13 100 0;
#X connect 101 14 96 0;
#X connect 101 15 144 0;
#X connect 101 16 108 0;
#X connect 101 17 87 0;
#X connect 101 17 105 0;
#X connect 105 0 5 0;
#X connect 105 1 143 0;
#X connect 106 0 108 0;
#X connect 107 0 106 0;
#X connect 109 0 169 0;
#X connect 110 0 111 0;
#X connect 111 0 124 0;
#X connect 111 1 112 0;
#X connect 112 0 138 0;
#X connect 113 0 114 0;
#X connect 113 0 125 0;
#X connect 113 0 145 0;
#X connect 114 0 113 1;
#X connect 115 0 113 1;
#X connect 116 0 112 0;
#X connect 117 0 116 0;
#X connect 118 0 120 0;
#X connect 118 0 113 0;
#X connect 118 0 144 1;
#X connect 118 0 152 1;
#X connect 118 0 151 1;
#X connect 118 1 173 0;
#X connect 119 0 112 0;
#X connect 120 0 121 1;
#X connect 121 0 122 0;
#X connect 121 0 125 0;
#X connect 121 0 144 1;
#X connect 121 0 145 0;
#X connect 121 0 151 1;
#X connect 121 0 152 1;
#X connect 122 0 112 0;
#X connect 123 0 112 0;
#X connect 124 0 121 0;
#X connect 124 1 123 0;
#X connect 124 2 119 0;
#X connect 125 0 146 0;
#X connect 126 0 128 0;
#X connect 126 1 127 0;
#X connect 126 1 154 0;
#X connect 127 0 112 0;
#X connect 128 0 112 0;
#X connect 129 0 130 0;
#X connect 130 0 139 0;
#X connect 130 0 204 0;
#X connect 131 0 112 0;
#X connect 132 0 112 0;
#X connect 133 0 112 0;
#X connect 134 0 135 0;
#X connect 135 0 158 0;
#X connect 136 0 112 0;
#X connect 137 0 112 0;
#X connect 138 0 118 0;
#X connect 139 0 133 0;
#X connect 139 1 132 0;
#X connect 139 1 115 0;
#X connect 139 2 131 0;
#X connect 139 3 140 0;
#X connect 140 0 112 0;
#X connect 141 0 142 0;
#X connect 142 0 116 0;
#X connect 142 1 140 0;
#X connect 143 0 139 0;
#X connect 144 0 190 0;
#X connect 147 0 149 0;
#X connect 148 0 150 0;
#X connect 149 0 156 0;
#X connect 150 0 151 0;
#X connect 151 0 155 0;
#X connect 152 0 153 0;
#X connect 153 0 157 0;
#X connect 154 0 150 1;
#X connect 154 0 149 1;
#X connect 155 0 152 0;
#X connect 156 0 152 0;
#X connect 158 0 136 0;
#X connect 158 0 204 0;
#X connect 159 0 109 0;
#X connect 160 0 109 1;
#X connect 161 0 169 1;
#X connect 162 0 169 2;
#X connect 163 0 169 3;
#X connect 164 0 169 4;
#X connect 165 0 169 5;
#X connect 166 0 169 6;
#X connect 167 0 169 7;
#X connect 168 0 169 8;
#X connect 169 0 110 0;
#X connect 170 0 169 9;
#X connect 171 0 169 10;
#X connect 172 0 169 11;
#X connect 173 0 174 0;
#X connect 173 1 175 0;
#X connect 173 2 176 0;
#X connect 173 3 177 0;
#X connect 173 4 189 0;
#X connect 173 5 188 0;
#X connect 173 6 186 0;
#X connect 173 7 185 0;
#X connect 173 8 187 0;
#X connect 173 9 184 0;
#X connect 173 10 183 0;
#X connect 173 11 182 0;
#X connect 173 12 180 0;
#X connect 173 13 181 0;
#X connect 178 0 169 12;
#X connect 179 0 169 13;
#X connect 190 0 191 0;
#X connect 193 0 253 0;
#X connect 193 0 242 0;
#X connect 194 0 254 0;
#X connect 194 0 208 0;
#X connect 195 0 221 0;
#X connect 195 0 210 0;
#X connect 196 0 223 0;
#X connect 196 0 211 0;
#X connect 197 0 225 0;
#X connect 197 0 212 0;
#X connect 198 0 227 0;
#X connect 198 0 213 0;
#X connect 199 0 229 0;
#X connect 199 0 214 0;
#X connect 200 0 231 0;
#X connect 200 0 215 0;
#X connect 201 0 233 0;
#X connect 201 0 216 0;
#X connect 202 0 219 0;
#X connect 202 0 209 0;
#X connect 203 0 192 0;
#X connect 204 0 192 0;
#X connect 205 0 203 1;
#X connect 206 0 203 1;
#X connect 207 0 205 0;
#X connect 208 0 242 0;
#X connect 208 1 242 1;
#X connect 209 0 242 0;
#X connect 209 1 242 2;
#X connect 210 0 242 0;
#X connect 210 1 242 3;
#X connect 211 0 242 0;
#X connect 211 1 242 4;
#X connect 212 0 242 0;
#X connect 212 1 242 5;
#X connect 213 0 242 0;
#X connect 213 1 242 6;
#X connect 214 0 242 0;
#X connect 214 1 242 7;
#X connect 215 0 242 0;
#X connect 215 1 242 8;
#X connect 216 0 242 0;
#X connect 216 1 242 9;
#X connect 217 0 203 0;
#X connect 218 0 202 0;
#X connect 219 0 203 0;
#X connect 220 0 195 0;
#X connect 221 0 203 0;
#X connect 222 0 196 0;
#X connect 223 0 203 0;
#X connect 224 0 197 0;
#X connect 225 0 203 0;
#X connect 226 0 198 0;
#X connect 227 0 203 0;
#X connect 228 0 199 0;
#X connect 229 0 203 0;
#X connect 230 0 200 0;
#X connect 231 0 203 0;
#X connect 232 0 201 0;
#X connect 233 0 203 0;
#X connect 234 0 240 0;
#X connect 234 0 235 0;
#X connect 235 0 242 0;
#X connect 235 1 242 10;
#X connect 236 0 241 0;
#X connect 236 0 237 0;
#X connect 237 0 242 0;
#X connect 237 1 242 11;
#X connect 238 0 234 0;
#X connect 239 0 236 0;
#X connect 240 0 203 0;
#X connect 241 0 203 0;
#X connect 242 0 217 0;
#X connect 243 0 249 0;
#X connect 243 0 244 0;
#X connect 244 0 242 0;
#X connect 244 1 242 12;
#X connect 245 0 250 0;
#X connect 245 0 246 0;
#X connect 246 0 242 0;
#X connect 246 1 242 13;
#X connect 247 0 243 0;
#X connect 248 0 245 0;
#X connect 249 0 203 0;
#X connect 250 0 203 0;
#X connect 251 0 194 0;
#X connect 252 0 193 0;
#X connect 253 0 203 0;
#X connect 254 0 203 0;
#X coords 0 -1 1 1 87 66 1 100 30;
