#N canvas 3 89 450 300 10;
#X obj 78 14 inlet~;
#X obj 76 35 env~;
#X obj 101 103 cnv 15 55 100 empty empty vu~ 4 6 1 10 -233017 -66577
0;
#X obj 106 118 vu 10 80 empty empty -1 -8 0 8 -128992 -1 0 0;
#X obj 121 118 vu 10 80 empty empty -1 -8 0 8 -128992 -1 1 0;
#X obj 76 58 - 100;
#X obj 127 14 inlet~;
#X obj 125 35 env~;
#X obj 125 58 - 100;
#X obj 191 49 outlet~;
#X obj 248 49 outlet~;
#X obj 191 118 max;
#X obj 218 117 f;
#X obj 191 97 t f b;
#X msg 245 117 -200;
#X obj 191 138 f;
#X obj 191 158 - 100;
#X msg 353 37 1;
#X obj 319 9 loadbang;
#X obj 386 20 r \$0-spd;
#X obj 359 59 metro 400;
#X obj 287 117 max;
#X obj 314 116 f;
#X obj 287 96 t f b;
#X msg 341 116 -200;
#X obj 287 137 f;
#X obj 287 157 - 100;
#X connect 0 0 1 0;
#X connect 0 0 9 0;
#X connect 1 0 5 0;
#X connect 1 0 13 0;
#X connect 5 0 3 0;
#X connect 6 0 7 0;
#X connect 6 0 10 0;
#X connect 7 0 8 0;
#X connect 7 0 23 0;
#X connect 8 0 4 0;
#X connect 11 0 12 1;
#X connect 11 0 15 1;
#X connect 12 0 11 1;
#X connect 13 0 11 0;
#X connect 13 1 12 0;
#X connect 14 0 12 1;
#X connect 15 0 16 0;
#X connect 16 0 3 1;
#X connect 17 0 20 0;
#X connect 18 0 17 0;
#X connect 20 0 14 0;
#X connect 20 0 15 0;
#X connect 20 0 24 0;
#X connect 20 0 25 0;
#X connect 21 0 22 1;
#X connect 21 0 25 1;
#X connect 22 0 21 1;
#X connect 23 0 21 0;
#X connect 23 1 22 0;
#X connect 24 0 22 1;
#X connect 25 0 26 0;
#X connect 26 0 4 1;
#X coords 0 -1 1 1 57 106 1 100 100;
