#N canvas 3 205 1345 560 10;
#X msg 205 211 set \$1;
#X obj 23 224 exp;
#X floatatom 23 244 0 0 0 0 - - -;
#X obj 23 204 * 0.057762;
#X floatatom 23 185 5 0 0 0 - - -;
#X obj 23 335 pack f f f;
#X obj 23 375 line~;
#X obj 23 533 outlet~;
#X obj 23 165 - 60;
#X obj 23 125 t b f;
#X msg 23 145 60;
#N canvas 1 82 450 300 fwdrev 0;
#X obj 203 38 inlet;
#X obj 57 87 inlet;
#X msg 57 167 \$1 \, \$2 \$3;
#X msg 122 167 \$2 \, \$1 \$3;
#X obj 53 133 spigot;
#X obj 120 131 spigot;
#X obj 201 62 select 0 1;
#X msg 177 111 1;
#X msg 176 134 0;
#X msg 91 110 0;
#X msg 95 133 1;
#X obj 90 212 outlet;
#X connect 0 0 6 0;
#X connect 1 0 4 0;
#X connect 1 0 5 0;
#X connect 2 0 11 0;
#X connect 3 0 11 0;
#X connect 4 0 2 0;
#X connect 5 0 3 0;
#X connect 6 0 10 0;
#X connect 6 0 8 0;
#X connect 6 1 9 0;
#X connect 6 1 7 0;
#X connect 7 0 5 1;
#X connect 8 0 5 1;
#X connect 9 0 4 1;
#X connect 10 0 4 1;
#X restore 23 355 pd fwdrev;
#X obj 158 339 r \$0-direction;
#N canvas 3 89 740 415 format_numbers 0;
#X obj 87 86 moses 10;
#X obj 132 106 moses 100;
#X obj 211 125 moses 1000;
#X obj 169 244 outlet;
#X obj 87 37 inlet;
#X obj 212 192 makesymbol wave_%s;
#X obj 159 172 makesymbol wave_0%s;
#X obj 96 152 makesymbol wave_00%s;
#X obj 27 132 makesymbol wave_000%s;
#X obj 87 58 spigot 1;
#X obj 398 19 inlet;
#X obj 285 77 moses 1;
#X msg 285 98 1;
#X msg 285 118 0;
#X obj 356 72 spigot;
#X msg 316 98 0;
#X msg 316 118 1;
#X obj 391 278 makefilename not_set_yet;
#X obj 408 110 moses 10;
#X obj 453 130 moses 100;
#X obj 532 149 moses 1000;
#X obj 348 156 makefilename wave_000%d_%%d;
#X obj 417 176 makefilename wave_00%d_%%d;
#X obj 480 196 makefilename wave_0%d_%%d;
#X obj 533 216 makefilename wave_%d_%%d;
#X obj 398 40 t b f;
#X obj 356 52 f;
#X obj 356 93 t b f;
#X obj 355 214 f;
#X msg 432 249 set \$1;
#X obj 210 331 makefilename wavesizes%d;
#X msg 210 352 set \$1;
#X obj 210 373 outlet;
#X msg 118 353 set wavesizes;
#X connect 0 0 8 0;
#X connect 0 1 1 0;
#X connect 1 0 7 0;
#X connect 1 1 2 0;
#X connect 2 0 6 0;
#X connect 2 1 5 0;
#X connect 4 0 9 0;
#X connect 4 0 26 0;
#X connect 5 0 3 0;
#X connect 6 0 3 0;
#X connect 7 0 3 0;
#X connect 8 0 3 0;
#X connect 9 0 0 0;
#X connect 10 0 25 0;
#X connect 11 0 12 0;
#X connect 11 0 15 0;
#X connect 11 0 33 0;
#X connect 11 1 13 0;
#X connect 11 1 16 0;
#X connect 11 1 30 0;
#X connect 12 0 9 1;
#X connect 13 0 9 1;
#X connect 14 0 27 0;
#X connect 15 0 14 1;
#X connect 16 0 14 1;
#X connect 17 0 3 0;
#X connect 18 0 21 0;
#X connect 18 1 19 0;
#X connect 19 0 22 0;
#X connect 19 1 20 0;
#X connect 20 0 23 0;
#X connect 20 1 24 0;
#X connect 21 0 29 0;
#X connect 22 0 29 0;
#X connect 23 0 29 0;
#X connect 24 0 29 0;
#X connect 25 0 26 0;
#X connect 25 1 11 0;
#X connect 25 1 28 1;
#X connect 26 0 14 0;
#X connect 27 0 28 0;
#X connect 27 1 18 0;
#X connect 28 0 17 0;
#X connect 29 0 17 0;
#X connect 30 0 31 0;
#X connect 31 0 32 0;
#X connect 33 0 32 0;
#X restore 239 183 pd format_numbers;
#X obj 211 153 r \$0-samp_num;
#X obj 39 494 line~;
#X obj 228 11 inlet;
#X obj 23 40 r \$0-pitch;
#X obj 136 418 r \$0-level;
#X obj 228 71 moses 2;
#X obj 267 90 s \$0-pitch;
#X obj 228 110 sel 0 1;
#X obj 247 129 s \$0-pitch;
#X obj 23 59 60;
#X obj 23 105 +;
#X obj 427 112 s \$0-samp_num;
#X obj 380 131 s \$0-direction;
#X obj 333 150 s \$0-transpose;
#X obj 119 107 r \$0-transpose;
#X obj 475 93 s \$0-level;
#X obj 70 437 1;
#X msg 220 129 0;
#X obj 23 513 *~;
#X text 379 306 plays waves from the wavebank~ abstraction;
#X obj 478 189 > 0;
#X obj 516 275 outlet;
#X obj 256 228 samplerate~;
#X obj 256 209 loadbang;
#X obj 256 247 * 0.001;
#X obj 114 314 delay;
#X msg 154 315 0;
#X obj 126 183 tabread wavesizes;
#X msg 405 25 0;
#X obj 436 23 loadbang;
#X obj 23 395 tabread4~ wave_0000;
#X obj 39 475 pack f 5;
#X obj 121 456 change;
#X obj 221 371 r \$0-vol;
#X obj 221 390 dbtorms;
#X obj 522 74 s \$0-vol;
#X msg 547 101 0;
#X msg 557 124 set 0;
#X obj 296 110 t b;
#X obj 228 30 route float bang;
#X obj 212 294 - 5;
#X obj 185 315 delay;
#X obj 23 78 t f b b;
#X msg 179 129 stop;
#X obj 334 54 route transpose direction wave level vol stop fade;
#X obj 594 162 moses 0;
#X msg 478 168 1;
#X text 511 292 playing;
#X obj 228 51 t f f;
#X obj 274 51 t b b;
#X text 332 344 note the;
#X obj 399 343 t f f;
#X text 442 343 and;
#X obj 474 342 t b b;
#X text 520 342 after the;
#X obj 594 341 route float bang;
#X text 618 362 ...polyphony control must be activated before playback
\, otherwise it won't work properly!;
#X text 716 342 connected to the inlet:;
#X obj 516 236 pipe 0;
#X text 500 401 also the;
#X obj 566 401 pipe 0;
#X text 617 401 ...there is a way to avoid this \, if all messages
are sent through to a 2nd outlet - but this kludge works for most applications!
;
#X text 568 239 ...not actually 0!;
#X obj 670 122 route poly;
#X obj 516 256 spigot 1;
#X obj 727 170 unpack f f f;
#X text 755 128 pitch \, vol \, wave;
#X obj 729 248 s \$0-pitch;
#X obj 759 228 s \$0-vol;
#X obj 792 206 s \$0-wave;
#X obj 727 149 route pvoice;
#X obj 874 166 route bank;
#X obj 874 187 s \$0-bank;
#X obj 350 183 r \$0-bank;
#X text 372 318 or any of the wavebank_n~ abstractions (new in 2018)
;
#X obj 871 88 \$1;
#X obj 870 60 loadbang;
#X text 895 87 wavebank_n~;
#X text 881 106 0 for wavebank~;
#X obj 936 209 s \$0-quant_ms;
#N canvas 3 89 450 496 quantize 0;
#X text 285 78 default 1 / 16 @ 120bpm;
#X obj 43 12 inlet;
#X obj 106 43 inlet;
#X obj 70 148 r \$0-quant_ms;
#X obj 43 190 moses 1e-07;
#X msg 43 212 125;
#X obj 43 169 f 125;
#X obj 101 234 f;
#X obj 43 64 t b f;
#X obj 147 43 inlet;
#X obj 106 65 -;
#X obj 184 118 *;
#X obj 136 228 cup;
#X msg 192 157 1;
#X obj 43 104 until;
#X obj 43 126 t b b;
#X obj 101 255 *;
#X obj 128 298 >;
#X obj 101 277 t f f;
#X obj 128 341 f;
#X obj 128 320 sel 1;
#X obj 168 412 *;
#X obj 168 434 +;
#X obj 53 405 f;
#X obj 211 416 outlet;
#X obj 168 456 outlet;
#X obj 53 427 outlet;
#X text 52 444 start;
#X text 172 474 dest;
#X obj 43 39 spigot 0;
#X obj 342 35 == 0;
#X obj 297 57 spigot 1;
#X obj 249 100 t b b f;
#X obj 289 136 *;
#X obj 263 170 f;
#X obj 108 362 t b b f f;
#X obj 101 460 outlet;
#X text 94 478 bang delays;
#X obj 122 16 r \$0-quantize;
#X obj 248 205 r \$0-sr;
#X obj 204 205 / 44.1;
#X obj 140 389 /;
#X obj 190 87 / 44.1;
#X obj 222 62 r \$0-sr;
#X floatatom 325 193 5 0 0 0 - - -;
#X text 215 437 length ms;
#X connect 1 0 29 0;
#X connect 1 0 31 0;
#X connect 2 0 10 0;
#X connect 3 0 6 1;
#X connect 4 0 5 0;
#X connect 4 1 7 0;
#X connect 5 0 7 0;
#X connect 6 0 4 0;
#X connect 7 0 16 0;
#X connect 8 0 14 0;
#X connect 8 1 11 0;
#X connect 8 1 13 0;
#X connect 9 0 10 1;
#X connect 9 0 22 1;
#X connect 9 0 23 1;
#X connect 10 0 11 1;
#X connect 10 0 21 1;
#X connect 10 0 42 0;
#X connect 10 0 34 1;
#X connect 11 0 40 0;
#X connect 12 0 16 1;
#X connect 13 0 12 0;
#X connect 14 0 15 0;
#X connect 15 0 6 0;
#X connect 15 1 12 0;
#X connect 16 0 18 0;
#X connect 17 0 20 0;
#X connect 18 0 19 1;
#X connect 18 1 17 0;
#X connect 19 0 35 0;
#X connect 20 0 14 1;
#X connect 20 0 19 0;
#X connect 21 0 22 0;
#X connect 22 0 25 0;
#X connect 23 0 26 0;
#X connect 29 0 8 0;
#X connect 30 0 31 1;
#X connect 31 0 32 0;
#X connect 32 0 23 0;
#X connect 32 0 36 0;
#X connect 32 1 34 0;
#X connect 32 2 33 0;
#X connect 33 0 24 0;
#X connect 33 0 44 0;
#X connect 34 0 25 0;
#X connect 35 0 23 0;
#X connect 35 1 36 0;
#X connect 35 2 41 0;
#X connect 35 3 24 0;
#X connect 38 0 29 1;
#X connect 38 0 30 0;
#X connect 39 0 40 1;
#X connect 40 0 17 1;
#X connect 40 0 41 1;
#X connect 41 0 21 0;
#X connect 42 0 33 1;
#X connect 43 0 42 1;
#X restore 23 267 pd quantize;
#X obj 58 245 r \$0-start;
#X obj 936 187 route quantms quantize startsamps startms;
#X obj 1002 282 s \$0-quantize;
#X obj 1057 259 s \$0-start;
#X obj 256 268 s \$0-srm;
#X obj 1110 236 / 44.1;
#X obj 1129 214 r \$0-srm;
#X obj 97 368 print qout;
#X connect 0 0 44 0;
#X connect 1 0 2 0;
#X connect 2 0 94 0;
#X connect 3 0 1 0;
#X connect 4 0 3 0;
#X connect 5 0 11 0;
#X connect 5 0 102 0;
#X connect 6 0 44 0;
#X connect 8 0 4 0;
#X connect 9 0 10 0;
#X connect 9 1 8 1;
#X connect 10 0 8 0;
#X connect 11 0 6 0;
#X connect 12 0 11 1;
#X connect 13 0 0 0;
#X connect 13 1 41 0;
#X connect 14 0 13 0;
#X connect 14 0 41 0;
#X connect 15 0 32 1;
#X connect 16 0 53 0;
#X connect 17 0 23 0;
#X connect 18 0 30 1;
#X connect 19 0 21 0;
#X connect 19 1 20 0;
#X connect 19 1 52 0;
#X connect 21 0 31 0;
#X connect 21 1 22 0;
#X connect 21 1 30 0;
#X connect 23 0 56 0;
#X connect 24 0 9 0;
#X connect 28 0 24 1;
#X connect 30 0 46 0;
#X connect 31 0 45 0;
#X connect 32 0 7 0;
#X connect 34 0 72 0;
#X connect 36 0 38 0;
#X connect 37 0 36 0;
#X connect 38 0 99 0;
#X connect 39 0 40 0;
#X connect 40 0 78 0;
#X connect 41 0 94 1;
#X connect 42 0 26 0;
#X connect 43 0 42 0;
#X connect 44 0 32 0;
#X connect 45 0 15 0;
#X connect 46 0 45 0;
#X connect 47 0 48 0;
#X connect 48 0 30 1;
#X connect 50 0 45 0;
#X connect 51 0 46 0;
#X connect 52 0 30 0;
#X connect 53 0 62 0;
#X connect 53 1 63 0;
#X connect 53 2 58 0;
#X connect 54 0 55 1;
#X connect 55 0 50 0;
#X connect 55 0 51 0;
#X connect 56 0 24 0;
#X connect 56 1 30 0;
#X connect 56 2 57 0;
#X connect 57 0 39 0;
#X connect 57 0 55 0;
#X connect 58 0 27 0;
#X connect 58 1 26 0;
#X connect 58 2 25 0;
#X connect 58 3 29 0;
#X connect 58 4 49 0;
#X connect 58 5 50 0;
#X connect 58 5 51 0;
#X connect 58 6 59 0;
#X connect 58 7 77 0;
#X connect 59 1 54 1;
#X connect 60 0 34 0;
#X connect 62 0 19 0;
#X connect 62 1 34 0;
#X connect 63 0 23 0;
#X connect 63 1 60 0;
#X connect 72 0 78 0;
#X connect 77 0 78 1;
#X connect 77 1 84 0;
#X connect 78 0 35 0;
#X connect 79 0 81 0;
#X connect 79 1 82 0;
#X connect 79 2 83 0;
#X connect 84 0 79 0;
#X connect 84 1 85 0;
#X connect 85 0 86 0;
#X connect 85 1 96 0;
#X connect 87 0 13 1;
#X connect 89 0 86 0;
#X connect 90 0 89 0;
#X connect 94 0 5 0;
#X connect 94 1 39 0;
#X connect 94 1 55 0;
#X connect 94 2 5 1;
#X connect 94 3 39 1;
#X connect 94 3 5 2;
#X connect 94 3 54 0;
#X connect 95 0 94 2;
#X connect 96 0 93 0;
#X connect 96 1 97 0;
#X connect 96 2 98 0;
#X connect 96 3 100 0;
#X connect 100 0 98 0;
#X connect 101 0 100 1;
