#N canvas 3 89 1272 676 10;
#X declare -lib moonlib -path ekext;
#X obj 28 244 phasor~;
#X obj 28 174 mtof;
#X obj 8 453 loadbang;
#X obj 42 522 wavefolder~;
#X text 1012 121 <-- set pitch as modulation frequency;
#X text 982 94 modes: line(off) \, low \, 32' \, 16' \, 8' \, 4' \,
2';
#X obj 73 493 clip~ -1 1;
#X obj 73 473 +~;
#X obj 99 449 line~;
#X obj 99 429 pack f 20;
#X text 1123 109 fixed or KB track;
#X text 792 6 <-- set pitch as modulation frequency;
#X obj 302 473 *~;
#X obj 302 540 +~;
#X obj 343 516 line~;
#X obj 343 495 pack f 20;
#X obj 107 751 *~;
#X obj 42 623 *~;
#X obj 68 623 line~;
#X obj 68 603 pack f 20;
#X obj 134 620 *~;
#X obj 160 620 line~;
#X obj 160 600 pack f 20;
#X obj 1804 -89 loadbang;
#X obj 107 705 mvcf~;
#X msg 1065 -94 10;
#X msg 1096 -94 300;
#X msg 1125 -94 50;
#X msg 1157 -94 1000;
#X obj 1090 -124 loadbang;
#X obj 338 639 sig~;
#X floatatom 338 600 5 0 100 0 - - -;
#X msg 871 588 0 \$1;
#X obj 871 567 f;
#X obj 549 666 / 22050;
#X obj 698 734 +~;
#X obj 735 723 line~;
#X obj 750 701 pack f 20;
#X obj 831 729 / 22050;
#X msg 1434 -60 20;
#X msg 1485 -51 500;
#X msg 1539 -100 20;
#X msg 1593 -105 1200;
#X msg 1651 -102 40;
#X msg 1699 -92 1000;
#X text 893 622 also: KB follow \, vel;
#X msg 1336 -86 1300;
#X msg 1391 -84 8000;
#X obj 1258 -111 loadbang;
#X obj 92 213 spigot;
#X obj 456 -33 > 0;
#X obj 404 -25 spigot;
#X obj 510 -14 t b;
#X msg 232 612 mode \$1;
#X obj 270 566 hradio 15 1 0 3 empty empty empty 0 -8 0 10 -262144
-1 -1 0;
#X obj 92 192 f;
#X msg 655 558 1;
#X obj 726 526 del;
#X obj 692 608 line~;
#X obj 664 578 pack f f;
#X obj 812 510 * 0.01;
#X obj 731 573 pack f f;
#X obj 726 547 f;
#X obj 769 525 del;
#X obj 739 487 * 0.01;
#X obj 795 573 pack f f;
#X msg 825 532 stop;
#X obj 783 551 f;
#X obj 692 639 *~ 1;
#X msg 745 663 1;
#X msg 774 663 -1;
#X obj 691 663 *~;
#X obj 672 448 r \$0-fc_attack;
#X obj 768 420 r \$0-fc_decay;
#X obj 571 143 cnv 15 226 68 empty empty -------main_oscillator 10
6 0 14 -203904 -16662 0;
#X obj 571 212 cnv 15 226 112 empty empty -------waveform_modulator
10 6 0 14 -204800 -13330 0;
#X obj 571 325 cnv 15 333 82 empty empty --------transistor_ladder_filter
16 6 0 12 -232576 -45076 0;
#X obj 694 -62 cnv 15 100 60 empty empty empty 20 12 0 14 -233017 -66577
0;
#X obj 575 341 mknob 35 257 20 20000 1 0 \$0-fc \$0-fc-set fc -2 -6
0 8 -232576 -45076 -45076 15470 1;
#X obj 622 348 mknob 20 300 0 1 0 0 \$0-q \$0-q-set q -2 -6 0 8 -232576
-45076 -45076 9867 1;
#X obj 685 350 mknob 25 300 1.5 10000 1 0 \$0-fc_attack \$0-fc_attack-set
attack -2 -6 0 8 -45076 -232576 -45076 8796 1;
#X obj 717 350 mknob 25 300 1.5 10000 1 0 \$0-fc_decay \$0-fc_decay-set
decay 0 -6 0 8 -45076 -232576 -45076 19727 1;
#X obj 749 350 mknob 25 300 0 100 0 0 \$0-fc_decay_level \$0-fc_decay_level-set
level 0 -6 0 8 -45076 -232576 -45076 5980 1;
#X obj 845 350 mknob 25 300 1.5 10000 1 0 \$0-fc_release \$0-fc_release-set
release -2 -6 0 8 -45076 -232576 -45076 22081 1;
#X obj 653 350 mknob 25 300 18 18012 1 0 \$0-fc_eg_depth \$0-fc_eg_depth-set
depth -2 -6 0 8 -232576 -45076 -45076 26387 1;
#X obj 781 350 mknob 25 300 1.5 10000 1 0 \$0-fc_swell \$0-fc_swell-set
swell 0 -6 0 8 -45076 -232576 -45076 22700 1;
#X obj 813 350 mknob 25 300 0 100 0 0 \$0-fc_sustain \$0-fc_sustain-set
sustain -4 -6 0 8 -45076 -232576 -45076 11960 1;
#X obj 787 438 r \$0-fc_decay_level;
#X obj 797 462 r \$0-fc_swell;
#X obj 810 482 r \$0-fc_sustain;
#X obj 877 510 r \$0-fc_release;
#X obj 881 352 vradio 12 1 0 2 \$0-fc_polarity \$0-fc_polarity-set
pol 0 -8 0 8 -232576 -45076 -45076 0;
#X text 894 348 +;
#X text 894 361 -;
#X obj 516 491 r \$0-fc_eg_depth;
#X obj 857 646 r \$0-fc;
#X obj 338 579 r \$0-q;
#X obj 1051 527 line~;
#X obj 1040 445 del;
#X obj 979 497 pack f f;
#X msg 973 471 1;
#X obj 994 411 r \$0-amp_attack;
#X obj 1051 389 r \$0-amp_decay;
#X obj 1095 412 r \$0-amp_sustain;
#X obj 1138 390 r \$0-amp_release;
#X obj 1040 495 pack f f;
#X obj 1097 440 * 0.01;
#X obj 1038 468 f;
#X msg 1132 495 0 \$1;
#X msg 1099 462 stop;
#X obj 1138 472 f;
#X obj 751 615 r \$0-fc_polarity;
#X obj 749 641 sel 0 1;
#X obj 290 208 line~;
#X obj 386 124 del;
#X obj 325 176 pack f f;
#X msg 329 149 1;
#X obj 386 174 pack f f;
#X obj 443 119 * 0.01;
#X obj 384 147 f;
#X msg 484 171 0 \$1;
#X msg 445 141 stop;
#X obj 484 151 f;
#X obj 495 116 r noteoff;
#X obj 363 97 r \$0-wm_attack;
#X obj 406 75 r \$0-wm_decay;
#X obj 467 96 r \$0-wm_sustain;
#X obj 505 77 r \$0-wm_release;
#X obj 290 321 *~ 1;
#X obj 337 206 r \$0-wm_eg_depth;
#X obj 665 290 mknob 25 300 1.5 10000 1 0 \$0-wm_attack \$0-wm_attack-set
attack -2 -6 0 8 -13330 -204800 -13330 21323 1;
#X obj 697 290 mknob 25 300 1.5 10000 1 0 \$0-wm_decay \$0-wm_decay-set
decay 0 -6 0 8 -13330 -204800 -13330 21323 1;
#X obj 761 290 mknob 25 300 1.5 10000 1 0 \$0-wm_release \$0-wm_release-set
release -2 -6 0 8 -13330 -204800 -13330 24435 1;
#X obj 635 297 mknob 25 300 -1 1 0 0 \$0-wm_eg_depth \$0-wm_eg_depth-set
depth 0 -6 0 8 -204800 -13330 -13330 14950 1;
#X obj 729 290 mknob 25 300 0 100 0 0 \$0-wm_sustain \$0-wm_sustain-set
sustain -4 -6 0 8 -13330 -204800 -13330 14950 1;
#X obj 1065 35 s \$0-amp_attack-set;
#X obj 1089 -1 s \$0-amp_decay-set;
#X obj 1113 -24 s \$0-amp_sustain-set;
#X obj 1136 -48 s \$0-amp_release-set;
#X obj 104 -79 r \$0-octave;
#X msg 104 -39 -24;
#X msg 120 -19 -12;
#X msg 133 1 0;
#X msg 145 21 12;
#X msg 193 21 24;
#X obj 104 -59 moses -1.5;
#X obj 132 -39 moses -0.5;
#X obj 148 -19 moses 0.5;
#X obj 160 1 moses 1.5;
#X obj 137 41 t b f;
#X obj 137 61 +;
#X obj 58 -99 r \$0-pitch_coarse;
#X obj 137 81 +;
#X obj 174 41 r \$0-pitch_fine;
#X obj 163 61 t b f;
#X obj 590 235 mknob 35 21 -2 2 0 0 \$0-wm_octave \$0-wm_octave-set
empty -2 -6 0 8 -204800 -13330 -13330 1000 1;
#X text 572 261 32';
#X text 571 234 16';
#X text 601 218 8';
#X text 625 232 4';
#X text 624 260 2';
#X obj 646 233 mknob 25 25 -12 12 0 0 \$0-wm_pitch \$0-wm_pitch_coarse-set
coarse -2 -6 0 8 -204800 -13330 -13330 0 1;
#X obj 643 260 nbx 3 14 -12 12 0 0 \$0-wm_pitch_coarse \$0-wm_pitch
empty 0 -8 0 10 -204800 -13330 -13330 0 256;
#X obj 686 233 mknob 25 257 -1 1 0 0 \$0-wm_fine \$0-wm_pitch_fine-set
fine 2 -6 0 8 -204800 -13330 -13330 0 1;
#X obj 683 260 nbx 6 14 -12 12 0 0 \$0-wm_pitch_fine \$0-wm_fine empty
0 -8 0 10 -204800 -13330 -13330 0 256;
#X obj 1269 11 s \$0-q-set;
#X obj 1303 -35 s \$0-fc-set;
#X obj 1350 19 s \$0-fc_eg_depth-set;
#X obj 1450 -2 s \$0-fc_attack-set;
#X obj 1493 -24 s \$0-fc_decay-set;
#X obj 1538 -72 s \$0-fc_decay_level-set;
#X obj 1560 -51 s \$0-fc_swell-set;
#X obj 1611 -30 s \$0-fc_sustain-set;
#X obj 1673 -51 s \$0-fc_release-set;
#X obj 1487 42 s \$0-octave-set;
#X msg 1488 22 0;
#X obj 1488 62 s \$0-pitch-set;
#X obj 1488 82 s \$0-fine-set;
#X msg 1589 21 0;
#X obj 1588 41 s \$0-wm_octave-set;
#X obj 1589 61 s \$0-wm_pitch-set;
#X obj 1589 81 s \$0-wm_fine-set;
#X obj 719 234 vradio 12 1 0 2 \$0-wm_osc \$0-wm_osc-set osc -1 -8
0 8 -204800 -13330 -13330 0;
#X obj 605 297 mknob 25 300 0 1 0 0 \$0-wm_osc_level \$0-wm_osc_level-set
offset -2 -6 0 8 -204800 -13330 -13330 0 1;
#N canvas 266 205 562 408 tri_osc~ 0;
#X obj 89 170 wfold~;
#X msg 225 145 bipolar 1;
#X obj 226 119 loadbang;
#X obj 154 75 inlet;
#X obj 306 62 inlet;
#X obj 90 203 *~ 0;
#X obj 236 200 osc~;
#X obj 234 237 *~ 1;
#X obj 139 281 outlet~;
#X obj 89 136 phasor~ 440;
#X obj 297 152 == 0;
#X obj 89 71 inlet~;
#X connect 0 0 5 0;
#X connect 1 0 0 0;
#X connect 2 0 1 0;
#X connect 3 0 6 1;
#X connect 3 0 9 1;
#X connect 4 0 10 0;
#X connect 4 0 5 1;
#X connect 5 0 8 0;
#X connect 6 0 7 0;
#X connect 7 0 8 0;
#X connect 9 0 0 0;
#X connect 10 0 7 1;
#X connect 11 0 6 0;
#X connect 11 0 9 0;
#X restore 63 306 pd tri_osc~;
#X text 58 288 f;
#X text 85 287 ph;
#X text 118 287 s/t;
#X msg 8 474 bipolar 1;
#X obj 741 234 vradio 12 1 0 2 \$0-wm_wave \$0-wm_wave-set wave -3
-8 0 8 -204800 -13330 -13330 1;
#X obj 96 392 sig~;
#X obj 63 392 *~ 1;
#X obj 91 355 == 0;
#X obj 90 330 r \$0-wm_osc;
#X obj 66 61 t b f;
#X obj 31 81 r \$0-pitch_in;
#X obj 34 110 +;
#X msg 1622 21 1;
#X obj 1664 20 s \$0-wm_osc_level;
#X obj 1532 114 s \$0-wm_eg_depth-set;
#X obj 1728 121 s \$0-wm_attack-set;
#X msg 1730 69 800;
#X msg 1757 69 800;
#X msg 1784 69 50;
#X msg 1811 69 2000;
#X obj 1745 97 s \$0-wm_decay-set;
#X obj 1845 121 s \$0-wm_sustain-set;
#X obj 1858 100 s \$0-wm_release-set;
#X obj 1731 41 loadbang;
#X obj 1851 72 s \$0-wm_polarity-set;
#X msg 1852 48 0;
#X obj 62 558 r \$0-trisaw_vol;
#X obj 160 558 r \$0-pulse_vol;
#X msg 1804 -68 100;
#X obj 1804 -47 s \$0-trisaw_vol-set;
#X obj 73 426 *~;
#X obj 216 402 r \$0-wm_offset;
#X obj 28 219 line~;
#X obj 28 195 pack f 10;
#X obj 79 102 r \$0-porta;
#X msg 259 -42 -24;
#X msg 275 -22 -12;
#X msg 288 -2 0;
#X msg 300 18 12;
#X msg 348 18 24;
#X obj 259 -62 moses -1.5;
#X obj 287 -42 moses -0.5;
#X obj 303 -22 moses 0.5;
#X obj 315 -2 moses 1.5;
#X obj 292 38 t b f;
#X obj 292 58 +;
#X obj 292 78 +;
#X obj 318 58 t b f;
#X obj 213 -102 r \$0-wm_pitch_coarse;
#X obj 259 -82 r \$0-wm_octave;
#X obj 329 38 r \$0-wm_pitch_fine;
#X obj 233 64 t b f;
#X obj 198 84 r \$0-pitch_in;
#X obj 236 118 +;
#X obj 289 117 r \$0-noteon;
#X obj 169 200 mtof;
#X obj 169 221 pack f 10;
#X obj 201 200 r \$0-porta;
#X obj 169 241 line~;
#X obj 92 123 r \$0-noteon;
#X obj 104 144 r \$0-main_phase;
#X obj 123 167 r \$0-main_phase_reset;
#X obj 167 395 spigot;
#X obj 167 374 f;
#X obj 170 305 r \$0-noteon;
#X obj 182 326 r \$0-wm_phase;
#X obj 226 346 r \$0-wm_phase_reset;
#X obj 763 231 mknob 25 257 -1 1 0 0 \$0-wm_phase \$0-wm_phase-set
phase 0 -6 0 8 -204800 -13330 -13330 0 1;
#X obj 756 260 tgl 14 0 \$0-wm_phase_reset \$0-wm_phase_reset-set trig
17 7 0 8 -204800 -13330 -13330 0 1;
#N canvas 265 203 562 408 tri_osc~ 0;
#X obj 89 170 wfold~;
#X msg 225 145 bipolar 1;
#X obj 226 119 loadbang;
#X obj 154 75 inlet;
#X obj 306 62 inlet;
#X obj 90 203 *~ 0;
#X obj 236 200 osc~;
#X obj 234 237 *~ 1;
#X obj 139 281 outlet~;
#X obj 89 136 phasor~ 440;
#X obj 297 152 == 0;
#X obj 89 71 inlet~;
#X connect 0 0 5 0;
#X connect 1 0 0 0;
#X connect 2 0 1 0;
#X connect 3 0 6 1;
#X connect 3 0 9 1;
#X connect 4 0 10 0;
#X connect 4 0 5 1;
#X connect 5 0 8 0;
#X connect 6 0 7 0;
#X connect 7 0 8 0;
#X connect 9 0 0 0;
#X connect 10 0 7 1;
#X connect 11 0 6 0;
#X connect 11 0 9 0;
#X restore 343 422 pd tri_osc~;
#X obj 151 276 r \$0-wm_wave;
#X obj 370 341 pack f 10;
#X obj 370 362 line~;
#X obj 343 474 r \$0-pw_offset;
#X text 723 48 -----waveform_modulator-----;
#X text 1018 342 -----transistor_ladder_filter-----;
#X text 943 113 comparator;
#X text 995 278 amplifier;
#X obj 343 454 r \$0-pwm_depth;
#X obj 370 320 r \$0-pwm_freq;
#X obj 446 494 spigot;
#X obj 446 473 f;
#X obj 446 404 r \$0-noteon;
#X obj 458 425 r \$0-pwm_phase;
#X obj 502 445 r \$0-pwm_phase_reset;
#X obj 408 376 r \$0-pwm_wave;
#X obj 943 438 r \$0-noteon;
#X obj 1167 450 r \$0-noteoff;
#X obj 861 536 r \$0-noteoff;
#X obj 641 477 r \$0-noteon;
#X obj 422 -102 inlet;
#X obj 403 -4 s \$0-pitch_in;
#X obj 725 165 mknob 25 300 -1 1 0 0 \$0-wm_offset \$0-wm_offset-set
wave 2 -6 0 8 -203904 -16662 -16662 14950 1;
#X obj 590 170 mknob 35 21 -2 2 0 0 \$0-octave \$0-octave-set empty
-2 -6 0 8 -203904 -16662 -203904 1000 1;
#X text 572 196 32';
#X text 571 169 16';
#X text 601 153 8';
#X text 625 167 4';
#X text 624 195 2';
#X obj 646 165 mknob 25 25 -12 12 0 0 \$0-pitch \$0-pitch_coarse-set
coarse -2 -6 0 8 -203904 -16662 -16662 0 1;
#X obj 643 194 nbx 3 14 -12 12 0 0 \$0-pitch_coarse \$0-pitch empty
0 -8 0 10 -203904 -16662 -16662 0 256;
#X obj 686 165 mknob 25 257 -1 1 0 0 \$0-fine \$0-pitch_fine-set fine
2 -6 0 8 -203904 -16662 -16662 0 1;
#X obj 683 194 nbx 6 14 -12 12 0 0 \$0-pitch_fine \$0-fine empty 0
-8 0 10 -203904 -16662 -16662 0 256;
#X obj 763 165 mknob 25 300 0 1 0 0 \$0-main_phase \$0-main_phase-set
phase 0 -6 0 8 -203904 -16662 -16662 0 1;
#X obj 756 194 tgl 14 0 \$0-main_phase_reset \$0-main_phase_reset-set
trig 17 7 0 8 -203904 -16662 -16662 0 1;
#X text 729 30 -------main_osillator-------;
#X obj 605 19 s \$0-noteoff;
#X obj 510 7 s \$0-noteon;
#X obj 858 702 r \$0-nyquist;
#X obj 595 645 r \$0-nyquist;
#X obj 1095 180 loadbang;
#X obj 1092 204 samplerate~;
#X obj 1095 229 * 0.5;
#X obj 1096 257 s \$0-nyquist;
#X obj 107 778 outlet~;
#X text 630 69 also: velocity \, key follow;
#X obj 1438 267 s \$0-pitch-set;
#X obj 1473 245 s \$0-fine-set;
#X obj 1561 266 s \$0-wm_pitch-set;
#X obj 1596 244 s \$0-wm_fine-set;
#X msg 1479 187 0;
#X obj 1490 160 loadbang;
#X obj 1588 208 s \$0-wm_offset-set;
#X obj 1325 235 s \$0-pw_offset-set;
#X obj 1202 223 s \$0-wm_wave-set;
#X msg 1216 197 1;
#X obj 1325 313 s \$0-wm_osc-set;
#X obj 1359 358 s \$0-fc_polarity-set;
#X obj 1403 396 s \$0-pwm_wave-set;
#X text 965 157 226 72;
#X text 988 187 110;
#X text 997 218 60;
#X obj 2260 410 r \$0-fc_decay_level;
#X obj 2291 430 r \$0-fc_swell;
#X obj 2314 451 r \$0-fc_sustain;
#X obj 2336 472 r \$0-fc_release;
#X obj 2355 371 r \$0-amp_attack;
#X obj 2373 395 r \$0-amp_decay;
#X obj 2400 418 r \$0-amp_sustain;
#X obj 2431 442 r \$0-amp_release;
#X obj 2356 495 r \$0-fc_polarity;
#X obj 1886 425 r \$0-wm_attack;
#X obj 1909 447 r \$0-wm_decay;
#X obj 1934 468 r \$0-wm_sustain;
#X obj 1956 489 r \$0-wm_release;
#X obj 1806 487 r \$0-wm_eg_depth;
#X obj 1328 455 r \$0-octave;
#X obj 1299 433 r \$0-pitch_coarse;
#X obj 1346 477 r \$0-pitch_fine;
#X obj 1834 509 r \$0-wm_osc;
#X obj 2480 491 r \$0-trisaw_vol;
#X obj 2456 466 r \$0-pulse_vol;
#X obj 1746 443 r \$0-wm_offset;
#X obj 1414 433 r \$0-porta;
#X obj 1536 428 r \$0-wm_pitch_coarse;
#X obj 1562 449 r \$0-wm_octave;
#X obj 1600 470 r \$0-wm_pitch_fine;
#X obj 1437 452 r \$0-main_phase;
#X obj 1464 473 r \$0-main_phase_reset;
#X obj 1663 401 r \$0-wm_phase;
#X obj 1707 421 r \$0-wm_phase_reset;
#X obj 1779 465 r \$0-wm_wave;
#X obj 2105 497 r \$0-pw_offset;
#X obj 1999 397 r \$0-pwm_depth;
#X obj 2016 417 r \$0-pwm_freq;
#X obj 2055 457 r \$0-pwm_phase;
#X obj 2076 477 r \$0-pwm_phase_reset;
#X obj 2034 437 r \$0-pwm_wave;
#X obj 2157 414 r \$0-q;
#X obj 1450 595 f;
#X obj 1448 540 r \$0-store_patch;
#X obj 1440 681 prepend add;
#X obj 1460 701 t b a;
#X obj 1530 790 msgfile;
#X obj 1763 858 spigot;
#X msg 1807 857 0;
#X msg 1808 840 1;
#X msg 1613 758 add patches 0;
#X obj 1610 720 loadbang;
#X obj 1455 898 route patches;
#X msg 1547 707 goto 0;
#X obj 1459 783 f;
#X msg 1459 836 replace patches \$1;
#X msg 1508 766 this;
#X obj 1459 745 t b b b;
#X obj 1767 733 t b f;
#X msg 1782 757 goto \$1;
#X msg 1747 756 this;
#X obj 1894 720 r \$0-patches_load;
#X obj 1894 737 openpanel;
#X msg 1968 771 read \$1;
#X msg 1924 771 goto 0;
#X msg 1894 771 this;
#X obj 2074 650 r \$0-patches_save;
#X obj 2074 678 savepanel;
#X msg 2069 731 write \$1;
#X msg 1667 691 print;
#X obj 1456 868 route list;
#X obj 1894 754 t b b a b;
#X msg 1876 838 clear;
#X obj 1620 666 r \$0-patches_clear;
#X obj 1618 692 t b b;
#X msg 2037 756 set \$1;
#X obj 2185 743 f;
#X obj 2228 746 del 50;
#X obj 2282 889 t b b b s;
#X obj 2156 770 f;
#X obj 2282 866 spigot;
#X obj 2362 867 r \$0-auto_update;
#X msg 2525 830 set \$1;
#X symbolatom 2525 876 10 0 0 0 - - -;
#X obj 2398 911 spigot;
#X msg 2451 899 1;
#X msg 2450 918 0;
#X obj 2450 810 b;
#X obj 2463 837 del 500;
#X obj 2219 680 symbol;
#X obj 2551 711 random;
#X obj 1475 766 + 1;
#X obj 2014 813 s \$0-patch-set;
#X obj 1742 677 r \$0-patch-num;
#X obj 1776 703 t b f b;
#X obj 2073 707 makesymbol %s.pat;
#X obj 1440 662 spigot 1;
#X obj 1450 564 t b b;
#X msg 1480 593 1;
#X obj 1510 663 spigot;
#X obj 1514 682 prepend replace;
#X obj 1560 541 r \$0-replace_patch;
#X obj 1522 564 t b b;
#X msg 1552 593 1;
#X msg 1492 572 0;
#X msg 1559 574 0;
#X msg 2201 705 set \$1;
#X symbolatom 2261 708 10 0 0 0 - - -;
#X obj 2272 682 r \$0-patches_resave;
#X obj 1856 660 r \$0-store_plus;
#X obj 1859 679 f;
#X obj 1972 687 f;
#X obj 1859 698 + 1;
#X obj 2004 696 - 1;
#X obj 1959 660 r \$0-store_minus;
#X obj 2005 715 moses 1;
#X obj 1898 691 moses;
#X msg 1938 699 1;
#X obj 1937 683 f;
#X obj 2046 697 f;
#X obj 2033 679 t b;
#X obj 2525 730 s \$0-patch-set;
#X obj 2220 637 route patch file;
#X obj 2212 366 r \$0-fc_attack;
#X obj 2234 388 r \$0-fc_decay;
#X obj 2176 438 r \$0-fc_eg_depth;
#X obj 2132 393 r \$0-fc;
#X obj 2280 1025 s \$0-fc_decay_level-set;
#X obj 2311 1045 s \$0-fc_swell-set;
#X obj 2334 1066 s \$0-fc_sustain-set;
#X obj 2356 1087 s \$0-fc_release-set;
#X obj 2375 986 s \$0-amp_attack-set;
#X obj 2385 1005 s \$0-amp_decay-set;
#X obj 2436 1043 s \$0-amp_sustain-set;
#X obj 2477 1063 s \$0-amp_release-set;
#X obj 2376 1110 s \$0-fc_polarity-set;
#X obj 1906 1040 s \$0-wm_attack-set;
#X obj 1929 1062 s \$0-wm_decay-set;
#X obj 1954 1083 s \$0-wm_sustain-set;
#X obj 1976 1104 s \$0-wm_release-set;
#X obj 1826 1102 s \$0-wm_eg_depth-set;
#X obj 1348 1070 s \$0-octave-set;
#X obj 1319 1048 s \$0-pitch_coarse-set;
#X obj 1366 1092 s \$0-pitch_fine-set;
#X obj 1854 1124 s \$0-wm_osc-set;
#X obj 2527 1107 s \$0-trisaw_vol-set;
#X obj 2500 1088 s \$0-pulse_vol-set;
#X obj 1766 1058 s \$0-wm_offset-set;
#X obj 1434 1048 s \$0-porta-set;
#X obj 1556 1043 s \$0-wm_pitch_coarse-set;
#X obj 1582 1064 s \$0-wm_octave-set;
#X obj 1620 1085 s \$0-wm_pitch_fine-set;
#X obj 1457 1067 s \$0-main_phase-set;
#X obj 1484 1088 s \$0-main_phase_reset-set;
#X obj 1683 1016 s \$0-wm_phase-set;
#X obj 1727 1036 s \$0-wm_phase_reset-set;
#X obj 1799 1080 s \$0-wm_wave-set;
#X obj 2125 1112 s \$0-pw_offset-set;
#X obj 2019 1012 s \$0-pwm_depth-set;
#X obj 2036 1032 s \$0-pwm_freq-set;
#X obj 2075 1072 s \$0-pwm_phase-set;
#X obj 2096 1092 s \$0-pwm_phase_reset-set;
#X obj 2054 1052 s \$0-pwm_wave-set;
#X obj 2177 1029 s \$0-q-set;
#X obj 2232 981 s \$0-fc_attack-set;
#X obj 2254 1003 s \$0-fc_decay-set;
#X obj 2196 1053 s \$0-fc_eg_depth-set;
#X obj 2152 1008 s \$0-fc-set;
#X obj 1280 986 route pc octave pf porta phase preset wpc woctave wpf
wphase wpreset woffset wwave weg wosc wa wd ws wr;
#X obj 1649 967 route pwm pwmfreq pwmwave pwmphase pwmpreset pwoffset
;
#X obj 2216 606 inlet;
#X obj 2225 840 r auto_update_wavefoldsyn~;
#X obj 2418 938 s auto_update_wavefoldsyn~;
#X obj 727 385 cnv 15 176 22 empty empty empty 20 12 0 14 -183672 -66577
0;
#X obj 730 395 nbx 3 12 0 999 0 0 empty empty empty -2 -6 0 7 -257472
-1109 -90133 0 256;
#X obj 775 395 nbx 3 12 1 13 0 0 \$0-patch-num \$0-patch-set select
0 -5 0 7 -17235 -261234 -17235 1 256;
#X obj 821 395 bng 12 250 50 0 \$0-store_patch \$0-store_patch-bng
store -3 -5 0 7 -17235 -262130 -17235;
#X obj 855 397 bng 10 250 50 0 \$0-patches_load \$0-patches_load-bng
load -1 -5 0 7 -2498 -262144 -13381;
#X obj 874 389 bng 10 250 50 0 \$0-patches_save \$0-patches_save-bng
save -4 16 0 7 -159809 -262144 -86277;
#X obj 730 395 nbx 3 12 0 999 0 0 \$0-patches-dummy \$0-patches-num
patches 0 -5 0 7 -17235 -203904 -17235 0 256;
#X obj 807 399 bng 8 250 50 0 \$0-store_plus \$0-store_plus-bng + 1
-6 0 10 -17235 -198336 -17235;
#X obj 763 399 bng 8 250 50 0 \$0-store_minus \$0-store_minus-bng -
1 -6 0 10 -17235 -257985 -17235;
#X obj 840 399 bng 8 250 50 0 \$0-replace_patch \$0-replace_patch-bng
ovw -2 -6 0 7 -17235 -262130 -17235;
#X obj 890 399 bng 8 250 50 0 \$0-patches_resave \$0-patches_resave-bng
ovw -1 -6 0 7 -159809 -262144 -86277;
#X obj 496 -100 moses 1e-05;
#X obj 578 -32 s \$0-velocity;
#X obj 635 387 mknob 20 300 0 1 0 0 \$0-fc_fm \$0-fc_fm-set fm -2 -6
0 8 -232576 -45076 -45076 0 1;
#X obj 661 392 hradio 12 1 0 2 \$0-fm_source \$0-fm_source-set WMosc
27 6 0 12 -232576 -45076 -45076 0;
#X obj 902 -105 r \$0-fm_source;
#X obj 887 -43 s \$0-fm_source-set;
#X obj 902 -83 sel 0 1;
#X msg 858 -63 label WMosc;
#X msg 946 -63 label mod;
#X obj 606 387 mknob 20 300 0 1 0 0 \$0-fc_vsens \$0-fc_vsens-set vel
-2 -6 0 8 -232576 -45076 -45076 0 1;
#X obj 575 297 mknob 25 300 0 1 0 0 \$0-wm_vsens \$0-wm_vsens-set veloc
0 -6 0 8 -204800 -13330 -13330 0 1;
#X obj 465 208 r \$0-wm_vsens;
#X obj 360 232 r \$0-velocity;
#X obj 465 230 t b f;
#X msg 465 252 1;
#X obj 465 274 -;
#X obj 361 254 t b f;
#X obj 316 260 *;
#X obj 316 287 +;
#X obj 403 287 / 127;
#X obj 374 287 *;
#X obj 345 287 *;
#X obj 496 547 r \$0-velocity;
#X obj 595 564 t b f;
#X msg 595 586 1;
#X obj 595 608 -;
#X obj 478 570 t b f;
#X obj 446 613 *;
#X obj 446 640 +;
#X obj 504 640 *;
#X obj 475 640 *;
#X obj 553 523 r \$0-fc_vsens;
#X obj 464 731 == 0;
#X obj 446 751 *~;
#X obj 456 786 *~;
#X obj 587 742 r \$0-fc_fm;
#X obj 520 711 r \$0-fm_source;
#X obj 503 750 *~;
#X obj 457 810 *~;
#X obj 2328 558 r \$0-fc_vsens;
#X obj 2311 538 r \$0-wm_vsens;
#X obj 2346 578 r \$0-fc_fm;
#X obj 2359 598 r \$0-fm_source;
#X obj 2534 977 s \$0-wm_vsens-set;
#X obj 2551 997 s \$0-fc_vsens-set;
#X obj 2569 1017 s \$0-fc_fm-set;
#X obj 2582 1037 s \$0-fm_source-set;
#X msg 1605 788 print;
#X obj 1963 -49 s \$0-fm_source-set;
#X obj 1987 -22 s \$0-fc_fm-set;
#X obj 2019 6 s \$0-wm_vsens;
#X obj 2047 28 s \$0-fc_vsens;
#X obj 577 386 mknob 20 300 0 1 0 0 \$0-fc_kf \$0-fc_kf-set kf -2 -6
0 8 -232576 -45076 -45076 0 1;
#X obj 798 133 cnv 15 106 191 empty empty PWM 60 6 0 14 -204786 -13381
0;
#X obj 832 180 cnv 15 72 144 empty empty amplifier 6 6 0 12 -261234
-86277 0;
#X obj 838 203 mknob 25 300 1.5 10000 1 0 \$0-amp_attack \$0-amp_attack-set
attack -2 -6 0 8 -86277 -261234 -86277 6442 1;
#X obj 870 203 mknob 25 300 1.5 10000 1 0 \$0-amp_decay \$0-amp_decay-set
decay 0 -6 0 8 -86277 -261234 -86277 17992 1;
#X obj 870 239 mknob 25 300 1.5 10000 1 0 \$0-amp_release \$0-amp_release-set
release -2 -6 0 8 -86277 -261234 -86277 22081 1;
#X obj 838 239 mknob 25 300 0 100 0 0 \$0-amp_sustain \$0-amp_sustain-set
sustain -4 -6 0 8 -86277 -261234 -86277 14950 1;
#X obj 838 296 mknob 25 257 0 100 0 0 \$0-trisaw_vol \$0-trisaw_vol-set
trisaw -2 -6 0 8 -261234 -86277 -86277 25600 1;
#X obj 870 296 mknob 25 257 0 100 0 0 \$0-pulse_vol \$0-pulse_vol-set
pulse 0 -6 0 8 -261234 -86277 -86277 0 1;
#X obj 801 228 mknob 25 257 0 1 0 0 \$0-pw_offset \$0-pw_offset-set
pulse 0 -6 0 8 -204786 -13381 -13381 0 1;
#X obj 801 264 mknob 25 257 0 1 0 0 \$0-pwm_phase \$0-pwm_phase-set
phase 0 -6 0 8 -204786 -13381 -13381 0 1;
#X obj 801 144 mknob 35 257 0.02 200 1 0 \$0-pwm_freq \$0-pwm_freq-set
pwm_freq -2 -6 0 8 -204786 -13381 -13381 0 1;
#X obj 801 191 mknob 25 257 0 1 0 0 \$0-pwm_depth \$0-pwm_depth-set
depth 0 -6 0 8 -204786 -13381 -13381 0 1;
#X obj 802 294 tgl 12 0 \$0-pwm_phase_reset \$0-pwm_phase_reset-set
tr 16 6 0 8 -204786 -13381 -13381 0 1;
#X obj 843 147 nbx 5 14 0.001 1000 0 0 \$0-pwm_f \$0-pwm_freq empty
0 -8 0 10 -204786 -13381 -13381 0.001 256;
#X obj 843 164 hradio 12 1 0 2 \$0-pwm_wave \$0-pwm_wave-set wave 28
7 0 10 -204786 -13381 -13381 0;
#X obj 857 266 mknob 20 300 0 1 0 0 \$0-amp_vsens \$0-amp_vsens-set
vel 23 10 0 8 -261234 -86277 -86277 0 1;
#X obj 1065 610 r \$0-velocity;
#X obj 1186 574 t b f;
#X msg 1186 596 1;
#X obj 1186 618 -;
#X obj 1137 644 +;
#X obj 1065 630 / 127;
#X obj 1066 650 *;
#X obj 1126 552 r \$0-amp_vsens;
#X obj 1121 673 pack f 1;
#X obj 1120 696 line~;
#X text 659 377 fm_source;
#X obj 943 651 r \$0-pitch_in;
#X obj 968 751 *;
#X obj 781 731 t b f;
#X obj 781 753 +;
#X obj 984 722 r \$0-fc_kf;
#X msg 1958 -76 0;
#X obj 2109 -54 s \$0-fc_kf-set;
#X obj 2555 568 r \$0-fc_kf;
#X obj 2449 538 r \$0-amp_vsens;
#X obj 2106 -30 s \$0-amp_vsens-set;
#X obj 2664 973 s \$0-amp_vsens-set;
#X obj 2701 995 s \$0-fc_kf-set;
#X msg 1260 -69 0.33;
#X msg 286 183 0;
#X obj 271 143 t b b;
#X obj 276 164 spigot;
#X obj 375 57 r \$0-wm_retrig;
#X obj 602 275 tgl 10 0 \$0-wm_retrig \$0-wm_retrig-set eg-retrig 13
5 0 8 -13330 -204800 -13330 0 1;
#X obj 946 311 cnv 10 83 10 empty empty empty 16 6 0 12 -232576 -45076
0;
#X obj 817 328 tgl 10 0 \$0-fc_retrig \$0-fc_retrig-set eg-retrig 13
5 0 8 -45076 -232576 -45076 0 1;
#X obj 641 499 t b b;
#X obj 688 500 spigot;
#X msg 691 534 0;
#X obj 656 421 r \$0-fc_retrig;
#X obj 2632 593 r \$0-wm_retrig;
#X obj 2655 571 r \$0-fc_retrig;
#X obj 1460 624 pack f f f f f f f f f f f f f f f f f f f f f f f
f f f f f f f f f f f f f f f f f f f f f f f f f f;
#X obj 2669 1084 s \$0-wm_retrig;
#X obj 2692 1062 s \$0-fc_retrig;
#X obj 1528 923 unpack f f f f f f f f f f f f f f f f f f f f f f
f f f f f f f f f f f f f f f f f f f f f f f f f f f;
#X obj 1963 929 route fc q fceg fca fcd fcdl fcsw fcs fce fcpol aa
ad as ar pvol tvol wmv fcv fcfm fmsource av kf wtrig ftrig;
#X obj 68 582 * 0.01;
#X obj 160 579 * 0.01;
#X obj 516 511 - 18;
#X obj 1051 561 *~;
#X obj 557 594 exp;
#X obj 557 572 / 16;
#X obj 540 615 / 2800;
#X obj 542 643 / 127;
#X msg 2015 795 range 1 \$1;
#X obj 1729 801 + 1;
#X obj 2521 807 symbol;
#X obj 240 642 clip~ 0.001 1;
#X obj 509 593 + 1;
#X floatatom 499 673 5 0 0 0 - - -;
#X obj 1763 878 + 1;
#X obj 1763 900 s \$0-patches-num;
#X obj 966 673 mtof;
#X obj 967 695 / 22050;
#X obj 2055 898 outlet;
#X msg 1915 881 patches \$1;
#N canvas 4 55 1198 799 auto_out 0;
#X obj 2260 410 r \$0-fc_decay_level;
#X obj 2291 430 r \$0-fc_swell;
#X obj 2314 451 r \$0-fc_sustain;
#X obj 2336 472 r \$0-fc_release;
#X obj 2355 371 r \$0-amp_attack;
#X obj 2373 395 r \$0-amp_decay;
#X obj 2400 418 r \$0-amp_sustain;
#X obj 2431 442 r \$0-amp_release;
#X obj 2356 495 r \$0-fc_polarity;
#X obj 1886 425 r \$0-wm_attack;
#X obj 1909 447 r \$0-wm_decay;
#X obj 1934 468 r \$0-wm_sustain;
#X obj 1956 489 r \$0-wm_release;
#X obj 1806 487 r \$0-wm_eg_depth;
#X obj 1328 455 r \$0-octave;
#X obj 1299 433 r \$0-pitch_coarse;
#X obj 1346 477 r \$0-pitch_fine;
#X obj 1834 509 r \$0-wm_osc;
#X obj 2480 491 r \$0-trisaw_vol;
#X obj 2456 466 r \$0-pulse_vol;
#X obj 1746 443 r \$0-wm_offset;
#X obj 1414 433 r \$0-porta;
#X obj 1536 428 r \$0-wm_pitch_coarse;
#X obj 1562 449 r \$0-wm_octave;
#X obj 1600 470 r \$0-wm_pitch_fine;
#X obj 1437 452 r \$0-main_phase;
#X obj 1464 473 r \$0-main_phase_reset;
#X obj 1663 401 r \$0-wm_phase;
#X obj 1707 421 r \$0-wm_phase_reset;
#X obj 1779 465 r \$0-wm_wave;
#X obj 2105 497 r \$0-pw_offset;
#X obj 1999 397 r \$0-pwm_depth;
#X obj 2016 417 r \$0-pwm_freq;
#X obj 2055 457 r \$0-pwm_phase;
#X obj 2076 477 r \$0-pwm_phase_reset;
#X obj 2034 437 r \$0-pwm_wave;
#X obj 2157 414 r \$0-q;
#X obj 2212 366 r \$0-fc_attack;
#X obj 2234 388 r \$0-fc_decay;
#X obj 2176 438 r \$0-fc_eg_depth;
#X obj 2132 393 r \$0-fc;
#X obj 1280 986 route pc octave pf porta phase preset wpc woctave wpf
wphase wpreset woffset wwave weg wosc wa wd ws wr;
#X obj 1649 967 route pwm pwmfreq pwmwave pwmphase pwmpreset pwoffset
;
#X obj 2328 558 r \$0-fc_vsens;
#X obj 2311 538 r \$0-wm_vsens;
#X obj 2346 578 r \$0-fc_fm;
#X obj 2359 598 r \$0-fm_source;
#X obj 2555 568 r \$0-fc_kf;
#X obj 2449 538 r \$0-amp_vsens;
#X obj 2632 593 r \$0-wm_retrig;
#X obj 2655 571 r \$0-fc_retrig;
#X obj 1963 929 route fc q fceg fca fcd fcdl fcsw fcs fce fcpol aa
ad as ar pvol tvol wmv fcv fcfm fmsource av kf wtrig ftrig;
#X connect 41 19 42 0;
#X connect 42 6 51 0;
#X restore 2045 863 pd auto_out;
#X obj 92 673 *~ 0.5;
#X obj 107 728 *~ 2;
#X obj 408 -79 poly 1 1;
#X obj 567 -68 change;
#X obj 608 -106 declare -lib moonlib -path ekext;
#X connect 0 0 3 0;
#X connect 1 0 218 0;
#X connect 2 0 188 0;
#X connect 3 0 17 0;
#X connect 3 1 20 0;
#X connect 6 0 3 1;
#X connect 7 0 6 0;
#X connect 8 0 7 1;
#X connect 9 0 8 0;
#X connect 12 0 13 0;
#X connect 13 0 3 2;
#X connect 14 0 13 1;
#X connect 15 0 14 0;
#X connect 16 0 299 0;
#X connect 17 0 529 0;
#X connect 17 0 628 0;
#X connect 18 0 17 1;
#X connect 19 0 18 0;
#X connect 20 0 529 0;
#X connect 20 0 628 0;
#X connect 21 0 20 1;
#X connect 22 0 21 0;
#X connect 23 0 213 0;
#X connect 23 0 581 0;
#X connect 24 0 629 0;
#X connect 25 0 135 0;
#X connect 26 0 136 0;
#X connect 27 0 137 0;
#X connect 28 0 138 0;
#X connect 29 0 25 0;
#X connect 29 0 26 0;
#X connect 29 0 27 0;
#X connect 29 0 28 0;
#X connect 30 0 24 2;
#X connect 31 0 30 0;
#X connect 32 0 58 0;
#X connect 33 0 32 0;
#X connect 34 0 71 1;
#X connect 35 0 534 1;
#X connect 35 0 618 0;
#X connect 36 0 35 1;
#X connect 37 0 36 0;
#X connect 38 0 578 0;
#X connect 39 0 168 0;
#X connect 40 0 169 0;
#X connect 41 0 170 0;
#X connect 42 0 171 0;
#X connect 43 0 172 0;
#X connect 44 0 173 0;
#X connect 46 0 166 0;
#X connect 47 0 167 0;
#X connect 48 0 588 0;
#X connect 48 0 46 0;
#X connect 48 0 47 0;
#X connect 48 0 39 0;
#X connect 48 0 40 0;
#X connect 48 0 41 0;
#X connect 48 0 42 0;
#X connect 48 0 43 0;
#X connect 48 0 44 0;
#X connect 48 0 175 0;
#X connect 48 0 178 0;
#X connect 48 0 197 0;
#X connect 49 0 0 1;
#X connect 50 0 51 1;
#X connect 50 0 291 0;
#X connect 51 0 276 0;
#X connect 52 0 292 0;
#X connect 53 0 24 0;
#X connect 54 0 53 0;
#X connect 55 0 49 0;
#X connect 56 0 59 0;
#X connect 57 0 62 0;
#X connect 57 0 63 0;
#X connect 58 0 68 0;
#X connect 59 0 58 0;
#X connect 60 0 67 1;
#X connect 61 0 58 0;
#X connect 62 0 61 0;
#X connect 63 0 67 0;
#X connect 64 0 62 1;
#X connect 65 0 58 0;
#X connect 66 0 63 0;
#X connect 66 0 57 0;
#X connect 67 0 65 0;
#X connect 68 0 71 0;
#X connect 69 0 68 1;
#X connect 70 0 68 1;
#X connect 71 0 35 0;
#X connect 72 0 57 1;
#X connect 72 0 59 1;
#X connect 73 0 61 1;
#X connect 73 0 63 1;
#X connect 87 0 64 0;
#X connect 88 0 65 1;
#X connect 89 0 60 0;
#X connect 90 0 33 1;
#X connect 94 0 609 0;
#X connect 95 0 38 0;
#X connect 96 0 31 0;
#X connect 97 0 610 0;
#X connect 98 0 107 0;
#X connect 99 0 97 0;
#X connect 100 0 99 0;
#X connect 101 0 99 1;
#X connect 101 0 98 1;
#X connect 102 0 105 1;
#X connect 103 0 106 0;
#X connect 104 0 110 1;
#X connect 105 0 97 0;
#X connect 106 0 107 1;
#X connect 107 0 105 0;
#X connect 108 0 97 0;
#X connect 109 0 98 0;
#X connect 110 0 108 0;
#X connect 111 0 112 0;
#X connect 112 0 69 0;
#X connect 112 1 70 0;
#X connect 113 0 128 0;
#X connect 114 0 119 0;
#X connect 115 0 113 0;
#X connect 116 0 115 0;
#X connect 117 0 113 0;
#X connect 118 0 119 1;
#X connect 119 0 117 0;
#X connect 120 0 113 0;
#X connect 121 0 114 0;
#X connect 122 0 120 0;
#X connect 123 0 122 0;
#X connect 123 0 121 0;
#X connect 124 0 115 1;
#X connect 124 0 114 1;
#X connect 125 0 117 1;
#X connect 126 0 118 0;
#X connect 127 0 122 1;
#X connect 128 0 215 1;
#X connect 129 0 513 0;
#X connect 129 0 516 1;
#X connect 139 0 145 0;
#X connect 140 0 149 0;
#X connect 141 0 149 0;
#X connect 142 0 149 0;
#X connect 143 0 149 0;
#X connect 144 0 149 0;
#X connect 145 0 140 0;
#X connect 145 1 146 0;
#X connect 146 0 141 0;
#X connect 146 1 147 0;
#X connect 147 0 142 0;
#X connect 147 1 148 0;
#X connect 148 0 143 0;
#X connect 148 1 144 0;
#X connect 149 0 150 0;
#X connect 149 1 150 1;
#X connect 150 0 152 0;
#X connect 151 0 150 0;
#X connect 152 0 194 0;
#X connect 153 0 154 0;
#X connect 154 0 150 0;
#X connect 154 1 152 1;
#X connect 175 0 174 0;
#X connect 175 0 176 0;
#X connect 175 0 177 0;
#X connect 178 0 179 0;
#X connect 178 0 180 0;
#X connect 178 0 181 0;
#X connect 178 0 199 0;
#X connect 184 0 191 0;
#X connect 184 0 533 0;
#X connect 188 0 3 0;
#X connect 190 0 215 0;
#X connect 191 0 215 0;
#X connect 192 0 191 1;
#X connect 193 0 192 0;
#X connect 193 0 190 0;
#X connect 194 0 196 0;
#X connect 194 1 196 1;
#X connect 195 0 196 0;
#X connect 196 0 1 0;
#X connect 197 0 198 0;
#X connect 201 0 200 0;
#X connect 202 0 205 0;
#X connect 203 0 206 0;
#X connect 204 0 207 0;
#X connect 208 0 204 0;
#X connect 208 0 203 0;
#X connect 208 0 202 0;
#X connect 208 0 201 0;
#X connect 208 0 210 0;
#X connect 210 0 209 0;
#X connect 211 0 607 0;
#X connect 212 0 608 0;
#X connect 213 0 214 0;
#X connect 215 0 7 0;
#X connect 216 0 9 0;
#X connect 217 0 0 0;
#X connect 218 0 217 0;
#X connect 219 0 218 1;
#X connect 220 0 229 0;
#X connect 221 0 229 0;
#X connect 222 0 229 0;
#X connect 223 0 229 0;
#X connect 224 0 229 0;
#X connect 225 0 220 0;
#X connect 225 1 226 0;
#X connect 226 0 221 0;
#X connect 226 1 227 0;
#X connect 227 0 222 0;
#X connect 227 1 228 0;
#X connect 228 0 223 0;
#X connect 228 1 224 0;
#X connect 229 0 230 0;
#X connect 229 1 230 1;
#X connect 230 0 231 0;
#X connect 231 0 236 0;
#X connect 232 0 230 0;
#X connect 232 1 231 1;
#X connect 233 0 230 0;
#X connect 234 0 225 0;
#X connect 235 0 232 0;
#X connect 236 0 238 0;
#X connect 236 1 238 1;
#X connect 237 0 238 0;
#X connect 238 0 240 0;
#X connect 239 0 590 0;
#X connect 240 0 241 0;
#X connect 241 0 243 0;
#X connect 242 0 241 1;
#X connect 243 0 184 0;
#X connect 244 0 55 0;
#X connect 245 0 55 1;
#X connect 246 0 49 1;
#X connect 247 0 184 1;
#X connect 248 0 247 0;
#X connect 249 0 248 0;
#X connect 250 0 248 1;
#X connect 251 0 247 1;
#X connect 254 0 12 0;
#X connect 255 0 184 2;
#X connect 256 0 257 0;
#X connect 257 0 254 0;
#X connect 258 0 15 0;
#X connect 263 0 12 1;
#X connect 264 0 256 0;
#X connect 265 0 254 1;
#X connect 266 0 265 0;
#X connect 267 0 266 0;
#X connect 268 0 266 1;
#X connect 269 0 265 1;
#X connect 270 0 254 2;
#X connect 271 0 100 0;
#X connect 271 0 98 0;
#X connect 272 0 110 0;
#X connect 272 0 109 0;
#X connect 273 0 33 0;
#X connect 273 0 66 0;
#X connect 274 0 596 0;
#X connect 275 0 630 0;
#X connect 293 0 38 1;
#X connect 293 0 624 1;
#X connect 294 0 34 1;
#X connect 295 0 296 0;
#X connect 296 0 297 0;
#X connect 297 0 298 0;
#X connect 305 0 301 0;
#X connect 305 0 302 0;
#X connect 305 0 303 0;
#X connect 305 0 304 0;
#X connect 305 0 307 0;
#X connect 305 0 308 0;
#X connect 305 0 311 0;
#X connect 305 0 312 0;
#X connect 305 0 313 0;
#X connect 306 0 305 0;
#X connect 306 0 310 0;
#X connect 310 0 309 0;
#X connect 317 0 602 30;
#X connect 318 0 602 31;
#X connect 319 0 602 32;
#X connect 320 0 602 33;
#X connect 321 0 602 35;
#X connect 322 0 602 36;
#X connect 323 0 602 37;
#X connect 324 0 602 38;
#X connect 325 0 602 34;
#X connect 326 0 602 15;
#X connect 327 0 602 16;
#X connect 328 0 602 17;
#X connect 329 0 602 18;
#X connect 330 0 602 13;
#X connect 331 0 602 1;
#X connect 332 0 354 1;
#X connect 333 0 602 2;
#X connect 334 0 602 14;
#X connect 335 0 602 40;
#X connect 336 0 602 39;
#X connect 337 0 602 11;
#X connect 338 0 602 3;
#X connect 339 0 602 6;
#X connect 340 0 602 7;
#X connect 341 0 602 8;
#X connect 342 0 602 4;
#X connect 343 0 602 5;
#X connect 344 0 602 9;
#X connect 345 0 602 10;
#X connect 346 0 602 12;
#X connect 347 0 602 24;
#X connect 348 0 602 19;
#X connect 349 0 602 20;
#X connect 350 0 602 22;
#X connect 351 0 602 23;
#X connect 352 0 602 21;
#X connect 353 0 602 26;
#X connect 354 0 602 0;
#X connect 355 0 409 0;
#X connect 356 0 357 0;
#X connect 357 0 369 0;
#X connect 357 1 358 0;
#X connect 358 0 382 0;
#X connect 359 0 360 0;
#X connect 359 0 615 0;
#X connect 359 0 621 0;
#X connect 360 0 359 1;
#X connect 361 0 359 1;
#X connect 362 0 358 0;
#X connect 363 0 362 0;
#X connect 364 0 359 0;
#X connect 364 0 402 1;
#X connect 364 0 403 0;
#X connect 364 0 428 1;
#X connect 364 0 431 1;
#X connect 364 1 605 0;
#X connect 365 0 358 0;
#X connect 366 0 367 0;
#X connect 366 0 402 1;
#X connect 366 0 428 1;
#X connect 366 0 616 0;
#X connect 366 0 621 0;
#X connect 367 0 358 0;
#X connect 368 0 358 0;
#X connect 369 0 366 0;
#X connect 369 1 368 0;
#X connect 369 2 365 0;
#X connect 370 0 372 0;
#X connect 370 1 371 0;
#X connect 370 1 391 1;
#X connect 371 0 358 0;
#X connect 372 0 358 0;
#X connect 373 0 374 0;
#X connect 374 0 383 0;
#X connect 374 0 397 0;
#X connect 375 0 358 0;
#X connect 376 0 358 0;
#X connect 377 0 358 0;
#X connect 378 0 379 0;
#X connect 379 0 397 0;
#X connect 379 0 399 0;
#X connect 379 0 407 0;
#X connect 380 0 358 0;
#X connect 381 0 358 0;
#X connect 382 0 364 0;
#X connect 383 0 377 0;
#X connect 383 1 376 0;
#X connect 383 1 361 0;
#X connect 383 2 375 0;
#X connect 383 2 387 0;
#X connect 383 2 418 0;
#X connect 383 2 617 0;
#X connect 383 3 384 0;
#X connect 384 0 358 0;
#X connect 385 0 386 0;
#X connect 386 0 362 0;
#X connect 386 1 384 0;
#X connect 389 0 388 0;
#X connect 390 0 391 0;
#X connect 390 0 397 0;
#X connect 390 1 377 0;
#X connect 390 2 376 0;
#X connect 390 3 398 0;
#X connect 390 3 375 0;
#X connect 391 0 370 0;
#X connect 392 0 390 0;
#X connect 393 0 392 1;
#X connect 394 0 395 0;
#X connect 395 0 396 0;
#X connect 396 0 484 0;
#X connect 397 0 396 1;
#X connect 398 0 396 1;
#X connect 399 0 400 0;
#X connect 400 0 395 0;
#X connect 401 0 383 0;
#X connect 402 0 433 0;
#X connect 403 0 366 1;
#X connect 405 0 406 0;
#X connect 405 0 422 1;
#X connect 405 0 423 1;
#X connect 406 1 370 0;
#X connect 407 0 380 0;
#X connect 407 0 418 0;
#X connect 407 0 617 0;
#X connect 408 0 356 0;
#X connect 409 0 354 0;
#X connect 409 1 410 0;
#X connect 409 1 416 0;
#X connect 410 0 408 1;
#X connect 411 0 412 0;
#X connect 412 0 358 0;
#X connect 413 0 414 0;
#X connect 414 0 354 0;
#X connect 414 1 415 0;
#X connect 414 1 417 0;
#X connect 415 0 411 1;
#X connect 416 0 411 1;
#X connect 417 0 408 1;
#X connect 418 0 419 0;
#X connect 419 0 380 0;
#X connect 420 0 419 0;
#X connect 421 0 422 0;
#X connect 422 0 424 0;
#X connect 423 0 425 0;
#X connect 424 0 406 0;
#X connect 424 0 428 0;
#X connect 425 0 427 0;
#X connect 426 0 423 0;
#X connect 427 0 432 0;
#X connect 427 1 406 0;
#X connect 428 0 406 0;
#X connect 428 1 429 0;
#X connect 429 0 406 0;
#X connect 431 0 406 0;
#X connect 432 0 431 0;
#X connect 434 0 433 0;
#X connect 434 1 401 0;
#X connect 434 2 480 0;
#X connect 435 0 602 28;
#X connect 436 0 602 29;
#X connect 437 0 602 27;
#X connect 438 0 602 25;
#X connect 480 0 454 0;
#X connect 480 1 453 0;
#X connect 480 2 455 0;
#X connect 480 3 460 0;
#X connect 480 4 464 0;
#X connect 480 5 465 0;
#X connect 480 6 461 0;
#X connect 480 7 462 0;
#X connect 480 8 463 0;
#X connect 480 9 466 0;
#X connect 480 10 467 0;
#X connect 480 11 459 0;
#X connect 480 12 468 0;
#X connect 480 13 452 0;
#X connect 480 14 456 0;
#X connect 480 15 448 0;
#X connect 480 16 449 0;
#X connect 480 17 450 0;
#X connect 480 18 451 0;
#X connect 480 19 481 0;
#X connect 481 0 470 0;
#X connect 481 1 471 0;
#X connect 481 2 474 0;
#X connect 481 3 472 0;
#X connect 481 4 473 0;
#X connect 481 5 469 0;
#X connect 481 6 606 0;
#X connect 482 0 434 0;
#X connect 483 0 392 0;
#X connect 496 1 52 0;
#X connect 496 1 631 0;
#X connect 500 0 502 0;
#X connect 502 0 503 0;
#X connect 502 1 504 0;
#X connect 503 0 501 0;
#X connect 504 0 501 0;
#X connect 507 0 509 0;
#X connect 507 0 517 1;
#X connect 508 0 512 0;
#X connect 509 0 510 0;
#X connect 509 1 511 1;
#X connect 510 0 511 0;
#X connect 511 0 513 1;
#X connect 512 0 513 0;
#X connect 512 1 515 0;
#X connect 513 0 514 0;
#X connect 514 0 128 1;
#X connect 515 0 516 0;
#X connect 516 0 517 0;
#X connect 517 0 514 1;
#X connect 518 0 522 0;
#X connect 519 0 520 0;
#X connect 519 1 521 1;
#X connect 520 0 521 0;
#X connect 521 0 523 1;
#X connect 522 0 523 0;
#X connect 522 1 619 0;
#X connect 523 0 524 0;
#X connect 524 0 34 0;
#X connect 525 0 526 0;
#X connect 526 0 524 1;
#X connect 527 0 519 0;
#X connect 527 0 526 1;
#X connect 528 0 529 1;
#X connect 529 0 530 0;
#X connect 530 0 534 0;
#X connect 531 0 530 1;
#X connect 532 0 533 1;
#X connect 532 0 528 0;
#X connect 533 0 530 0;
#X connect 534 0 618 0;
#X connect 535 0 602 42;
#X connect 536 0 602 41;
#X connect 537 0 602 43;
#X connect 538 0 602 44;
#X connect 543 0 358 0;
#X connect 565 0 570 0;
#X connect 566 0 567 0;
#X connect 566 1 568 1;
#X connect 567 0 568 0;
#X connect 568 0 569 1;
#X connect 569 0 573 0;
#X connect 570 0 571 0;
#X connect 571 0 569 0;
#X connect 572 0 566 0;
#X connect 572 0 571 1;
#X connect 573 0 574 0;
#X connect 574 0 610 1;
#X connect 576 0 623 0;
#X connect 577 0 579 0;
#X connect 578 0 579 0;
#X connect 578 1 579 1;
#X connect 579 0 37 0;
#X connect 580 0 577 1;
#X connect 581 0 544 0;
#X connect 581 0 545 0;
#X connect 581 0 546 0;
#X connect 581 0 547 0;
#X connect 581 0 582 0;
#X connect 581 0 585 0;
#X connect 583 0 602 46;
#X connect 584 0 602 45;
#X connect 588 0 165 0;
#X connect 589 0 113 0;
#X connect 590 0 114 0;
#X connect 590 0 116 0;
#X connect 590 1 591 0;
#X connect 591 0 589 0;
#X connect 592 0 591 1;
#X connect 596 0 56 0;
#X connect 596 0 57 0;
#X connect 596 1 597 0;
#X connect 597 0 598 0;
#X connect 598 0 58 0;
#X connect 599 0 597 1;
#X connect 600 0 602 47;
#X connect 601 0 602 48;
#X connect 602 0 408 0;
#X connect 602 0 411 0;
#X connect 605 0 454 0;
#X connect 605 1 453 0;
#X connect 605 2 455 0;
#X connect 605 3 460 0;
#X connect 605 4 464 0;
#X connect 605 5 465 0;
#X connect 605 6 461 0;
#X connect 605 7 462 0;
#X connect 605 8 463 0;
#X connect 605 9 466 0;
#X connect 605 10 467 0;
#X connect 605 11 459 0;
#X connect 605 12 468 0;
#X connect 605 13 452 0;
#X connect 605 14 456 0;
#X connect 605 15 448 0;
#X connect 605 16 449 0;
#X connect 605 17 450 0;
#X connect 605 18 451 0;
#X connect 605 19 470 0;
#X connect 605 20 471 0;
#X connect 605 21 474 0;
#X connect 605 22 472 0;
#X connect 605 23 473 0;
#X connect 605 24 469 0;
#X connect 605 25 479 0;
#X connect 605 26 475 0;
#X connect 605 27 478 0;
#X connect 605 28 476 0;
#X connect 605 29 477 0;
#X connect 605 30 439 0;
#X connect 605 31 440 0;
#X connect 605 32 441 0;
#X connect 605 33 442 0;
#X connect 605 34 447 0;
#X connect 605 35 443 0;
#X connect 605 36 444 0;
#X connect 605 37 445 0;
#X connect 605 38 446 0;
#X connect 605 39 458 0;
#X connect 605 40 457 0;
#X connect 605 41 539 0;
#X connect 605 42 540 0;
#X connect 605 43 541 0;
#X connect 605 44 542 0;
#X connect 605 45 586 0;
#X connect 605 46 587 0;
#X connect 605 47 603 0;
#X connect 605 48 604 0;
#X connect 606 0 479 0;
#X connect 606 1 475 0;
#X connect 606 2 478 0;
#X connect 606 3 476 0;
#X connect 606 4 477 0;
#X connect 606 5 439 0;
#X connect 606 6 440 0;
#X connect 606 7 441 0;
#X connect 606 8 442 0;
#X connect 606 9 447 0;
#X connect 606 10 443 0;
#X connect 606 11 444 0;
#X connect 606 12 445 0;
#X connect 606 13 446 0;
#X connect 606 14 458 0;
#X connect 606 15 457 0;
#X connect 606 16 539 0;
#X connect 606 17 540 0;
#X connect 606 18 541 0;
#X connect 606 19 542 0;
#X connect 606 20 586 0;
#X connect 606 21 587 0;
#X connect 606 22 603 0;
#X connect 606 23 604 0;
#X connect 607 0 19 0;
#X connect 608 0 22 0;
#X connect 609 0 525 1;
#X connect 609 0 523 0;
#X connect 610 0 16 1;
#X connect 611 0 613 0;
#X connect 612 0 611 0;
#X connect 613 0 525 0;
#X connect 613 0 620 0;
#X connect 614 0 525 0;
#X connect 615 0 404 0;
#X connect 616 0 615 0;
#X connect 617 0 394 0;
#X connect 618 0 24 1;
#X connect 619 0 612 0;
#X connect 621 0 622 0;
#X connect 621 0 626 0;
#X connect 623 0 624 0;
#X connect 624 0 577 0;
#X connect 626 0 625 0;
#X connect 628 0 24 0;
#X connect 629 0 16 0;
#X connect 630 1 51 0;
#X connect 630 2 50 0;
#X connect 630 2 496 0;
#X connect 631 0 497 0;
#X coords 0 -1 1 1 335 280 1 570 130;
