#N canvas 9 65 712 510 10;
#X obj 508 30 import moonlib;
#X obj 276 236 t b f;
#N canvas 5 57 450 300 wfold~ 0;
#X obj 105 149 phasor~;
#X obj 105 206 wfold~;
#X obj 110 100 inlet;
#X obj 281 99 inlet;
#X obj 281 119 switch~;
#X obj 105 236 outlet~;
#X obj 174 163 loadbang;
#X msg 155 185 0;
#X obj 190 75 inlet;
#X obj 237 66 inlet;
#X msg 34 175 bipolar 1;
#X connect 0 0 1 0;
#X connect 1 0 5 0;
#X connect 2 0 0 0;
#X connect 3 0 4 0;
#X connect 6 0 7 0;
#X connect 6 0 10 0;
#X connect 7 0 1 1;
#X connect 8 0 0 1;
#X connect 9 0 1 1;
#X connect 10 0 1 0;
#X restore -6 279 pd wfold~;
#X obj 92 393 *~;
#X obj 140 374 line~;
#X obj 142 303 pack f f;
#X obj 123 66 inlet;
#X obj 318 215 r \$0-vibrato_depth;
#X obj 187 283 r \$0-vibrato_attack;
#X obj 142 281 f;
#X msg 61 239 1;
#X msg 35 239 0;
#X obj 69 171 sel 0 1;
#X obj 70 151 r \$0-wave;
#X obj 140 216 s \$0-wave-lbl;
#X msg 133 190 set sin;
#X msg 187 189 set tri;
#N canvas 0 0 450 300 sine~ 0;
#X obj 78 53 inlet;
#X obj 89 131 osc~;
#X obj 156 54 inlet;
#X obj 256 52 inlet;
#X obj 250 94 switch~;
#X obj 88 178 outlet~;
#X connect 0 0 1 0;
#X connect 1 0 5 0;
#X connect 2 0 1 1;
#X connect 3 0 4 0;
#X restore 67 280 pd sine~;
#X obj 401 314 cnv 15 200 91 empty empty empty 20 12 0 14 -153983 -66577
0;
#X obj 405 321 mknob 32 513 0.001 1 1 0 empty \$0-vibrato_depth-set
empty -2 -6 0 8 -208063 -49983 -49983 51200 1;
#X floatatom 405 358 5 0 0 3 depth - #0-vibrato_depth;
#X obj 441 321 mknob 32 513 0.1 10000 1 0 empty \$0-vibrato_attack-set
empty -2 -6 0 8 -208063 -49983 -49983 12900 1;
#X floatatom 441 358 5 0 0 3 attack - #0-vibrato_attack;
#X obj 487 330 vradio 15 1 0 2 \$0-wave \$0-wave-set wave 0 -8 0 12
-208063 -49983 -49983 1;
#X symbolatom 487 364 3 0 0 0 - #0-wave-lbl -;
#X obj 517 321 mknob 32 513 0.001 1000 1 0 empty \$0-lfo_freq-set empty
-2 -6 0 8 -208063 -49983 -49983 40800 1;
#X floatatom 517 358 6 0 0 3 freq - #0-lfo_freq;
#X obj 560 337 mknob 16 513 0 1 0 0 empty \$0-phase-set empty -2 -6
0 8 -208063 -49983 -49983 0 1;
#X floatatom 560 358 5 0 0 3 phase - #0-phase;
#X obj 580 338 tgl 12 0 \$0-phasetrig \$0-phasetrig-set trig -6 -6
0 10 -208063 -49983 -49983 0 1;
#X msg 116 248 1;
#X msg 140 248 0;
#X obj -5 78 r \$0-phasetrig;
#X obj -17 115 spigot;
#X obj 36 118 r \$0-phase;
#X obj -20 139 f;
#X obj -54 241 r \$0-lfo_freq;
#X msg 278 401 0;
#X obj 278 421 s \$0-wave-set;
#X obj 270 373 loadbang;
#X obj 92 416 outlet~;
#X obj 140 326 t a b;
#X msg 166 348 0;
#X obj 123 87 sel 1;
#X obj -33 204 r \$0-waveshape;
#X obj 406 389 hsl 191 14 0.0001 0.9999 0 0 \$0-waveshape \$0-waveshape-set
shape 40 7 0 10 -208063 -49983 -49983 6700 1;
#X obj 258 76 route depth attack wave freq phase ptrig depth2;
#X obj 276 257 * 1;
#X obj 254 43 inlet;
#X obj 258 190 s \$0-vibrato_depth-set;
#X obj 304 170 s \$0-vibrato_attack-set;
#X obj 344 150 s \$0-wave-set;
#X obj 392 131 s \$0-lfo_freq-set;
#X obj 432 110 s \$0-phase-set;
#X obj 502 182 s \$0-phasetrig-set;
#X connect 1 0 47 0;
#X connect 1 1 47 1;
#X connect 2 0 3 0;
#X connect 3 0 40 0;
#X connect 4 0 3 1;
#X connect 5 0 41 0;
#X connect 6 0 43 0;
#X connect 7 0 47 0;
#X connect 8 0 5 1;
#X connect 9 0 5 0;
#X connect 10 0 2 3;
#X connect 11 0 2 3;
#X connect 12 0 11 0;
#X connect 12 0 15 0;
#X connect 12 0 30 0;
#X connect 12 1 10 0;
#X connect 12 1 16 0;
#X connect 12 1 31 0;
#X connect 13 0 12 0;
#X connect 15 0 14 0;
#X connect 16 0 14 0;
#X connect 17 0 3 0;
#X connect 19 0 20 0;
#X connect 21 0 22 0;
#X connect 25 0 26 0;
#X connect 27 0 28 0;
#X connect 30 0 17 2;
#X connect 31 0 17 2;
#X connect 32 0 33 1;
#X connect 33 0 35 0;
#X connect 34 0 35 1;
#X connect 35 0 2 1;
#X connect 35 0 17 1;
#X connect 36 0 2 0;
#X connect 36 0 17 0;
#X connect 37 0 38 0;
#X connect 39 0 37 0;
#X connect 41 0 4 0;
#X connect 41 1 42 0;
#X connect 42 0 4 0;
#X connect 43 0 9 0;
#X connect 43 0 33 0;
#X connect 44 0 2 2;
#X connect 46 0 49 0;
#X connect 46 1 50 0;
#X connect 46 2 51 0;
#X connect 46 3 52 0;
#X connect 46 4 53 0;
#X connect 46 5 54 0;
#X connect 46 6 1 0;
#X connect 47 0 9 1;
#X connect 48 0 46 0;
#X coords 0 -1 1 1 202 108 1 400 300;
