#N canvas 5 57 448 240 10;
#X obj 41 -1 loadbang;
#X obj 75 68 wavefolder~;
#X msg 41 20 bipolar 1;
#X obj 74 -54 inlet~;
#X obj 124 -54 inlet~;
#X obj 174 -54 inlet~;
#X obj 74 96 outlet~;
#X obj 134 96 outlet~;
#X obj 74 -24 phasor~ \$1;
#X obj 266 -42 inlet;
#X obj 266 -20 switch~;
#X connect 0 0 2 0;
#X connect 1 0 6 0;
#X connect 1 1 7 0;
#X connect 2 0 1 0;
#X connect 3 0 8 0;
#X connect 4 0 1 1;
#X connect 5 0 1 2;
#X connect 8 0 1 0;
#X connect 9 0 10 0;
