#N canvas 742 218 471 484 10;
#X obj 91 232 cnv 15 196 36 empty empty empty 20 12 0 14 -204786 -66577
0;
#X floatatom 98 248 5 0 0 2 pitch - -;
#X obj 148 240 tgl 15 0 empty empty reverse -11 21 0 10 -262144 -1
-1 0 1;
#X obj 184 250 nbx 5 14 1 21 0 0 empty empty wave 0 -7 0 10 -262144
-1 -1 2 256;
#X obj 282 107 inlet;
#X obj 282 133 route waves;
#X msg 284 159 range 1 \$1;
#X floatatom 246 248 5 0 120 2 volume - -;
#X obj 54 151 loadbang;
#X msg 55 175 60;
#X obj 182 309 i;
#X obj 241 313 dbtorms;
#X msg 122 172 100;
#X obj 77 319 f;
#X obj 30 264 inlet;
#X obj 74 435 outlet;
#X msg 144 331 direction \$1;
#X msg 197 369 wave \$1;
#X msg 265 361 level \$1;
#X obj 288 409 outlet;
#X obj 159 74 route pitch direction wave level;
#X obj 219 121 rmstodb;
#X msg 67 113 set \$1;
#X msg 117 113 set \$1;
#X msg 167 113 set \$1;
#X msg 227 143 set \$1;
#X obj 162 371 i;
#X obj 191 426 f;
#X obj 31 287 t b b;
#X msg 143 456 level \$1;
#X msg 141 402 wave \$1;
#X msg 25 401 direction \$1;
#X obj 114 373 i;
#X msg 340 360 pitch \$1;
#X connect 1 0 13 1;
#X connect 2 0 16 0;
#X connect 2 0 32 1;
#X connect 3 0 10 0;
#X connect 3 0 26 1;
#X connect 4 0 5 0;
#X connect 5 0 6 0;
#X connect 5 1 20 0;
#X connect 6 0 3 0;
#X connect 7 0 11 0;
#X connect 8 0 9 0;
#X connect 8 0 12 0;
#X connect 9 0 1 0;
#X connect 10 0 17 0;
#X connect 11 0 18 0;
#X connect 11 0 27 1;
#X connect 12 0 7 0;
#X connect 13 0 15 0;
#X connect 14 0 28 0;
#X connect 16 0 19 0;
#X connect 17 0 19 0;
#X connect 18 0 19 0;
#X connect 20 0 22 0;
#X connect 20 0 13 1;
#X connect 20 1 23 0;
#X connect 20 1 32 1;
#X connect 20 2 24 0;
#X connect 20 2 26 1;
#X connect 20 3 21 0;
#X connect 20 3 27 1;
#X connect 21 0 25 0;
#X connect 22 0 1 0;
#X connect 23 0 2 0;
#X connect 24 0 3 0;
#X connect 25 0 7 0;
#X connect 26 0 30 0;
#X connect 27 0 29 0;
#X connect 28 0 13 0;
#X connect 28 1 27 0;
#X connect 28 1 26 0;
#X connect 28 1 32 0;
#X connect 29 0 15 0;
#X connect 30 0 15 0;
#X connect 31 0 15 0;
#X connect 32 0 31 0;
#X connect 33 0 19 0;
#X coords 0 -1 1 1 198 51 1 90 220;
