#N canvas 240 211 984 554 10;
#X msg 154 211 set \$1;
#X obj 23 224 exp;
#X floatatom 23 244 0 0 0 0 - - -;
#X obj 23 204 * 0.057762;
#X obj 96 221 f;
#X obj 96 262 / 44.1;
#X obj 51 284 f;
#X obj 23 284 f;
#X obj 81 284 *;
#X floatatom 23 185 5 0 0 0 - - -;
#X obj 23 264 t b b f;
#X obj 23 305 pack f f f;
#X obj 23 345 line~;
#X obj 23 503 outlet~;
#X obj 23 165 - 60;
#X obj 23 125 t b f;
#X msg 23 145 60;
#N canvas 1 82 450 300 fwdrev 0;
#X obj 203 38 inlet;
#X obj 57 87 inlet;
#X msg 57 167 \$1 \, \$2 \$3;
#X msg 122 167 \$2 \, \$1 \$3;
#X obj 53 133 spigot;
#X obj 120 131 spigot;
#X obj 201 62 select 0 1;
#X msg 177 111 1;
#X msg 176 134 0;
#X msg 91 110 0;
#X msg 95 133 1;
#X obj 90 212 outlet;
#X connect 0 0 6 0;
#X connect 1 0 4 0;
#X connect 1 0 5 0;
#X connect 2 0 11 0;
#X connect 3 0 11 0;
#X connect 4 0 2 0;
#X connect 5 0 3 0;
#X connect 6 0 10 0;
#X connect 6 0 8 0;
#X connect 6 1 9 0;
#X connect 6 1 7 0;
#X connect 7 0 5 1;
#X connect 8 0 5 1;
#X connect 9 0 4 1;
#X connect 10 0 4 1;
#X restore 23 325 pd fwdrev;
#X obj 107 309 r \$0-direction;
#N canvas 3 89 740 415 format_numbers 0;
#X obj 87 86 moses 10;
#X obj 132 106 moses 100;
#X obj 211 125 moses 1000;
#X obj 169 244 outlet;
#X obj 87 37 inlet;
#X obj 212 192 makesymbol wave_%s;
#X obj 159 172 makesymbol wave_0%s;
#X obj 96 152 makesymbol wave_00%s;
#X obj 27 132 makesymbol wave_000%s;
#X obj 87 58 spigot 1;
#X obj 398 19 inlet;
#X obj 285 77 moses 1;
#X msg 285 98 1;
#X msg 285 118 0;
#X obj 356 72 spigot;
#X msg 316 98 0;
#X msg 316 118 1;
#X obj 391 278 makefilename not_set_yet;
#X obj 408 110 moses 10;
#X obj 453 130 moses 100;
#X obj 532 149 moses 1000;
#X obj 348 156 makefilename wave_000%d_%%d;
#X obj 417 176 makefilename wave_00%d_%%d;
#X obj 480 196 makefilename wave_0%d_%%d;
#X obj 533 216 makefilename wave_%d_%%d;
#X obj 398 40 t b f;
#X obj 356 52 f;
#X obj 356 93 t b f;
#X obj 355 214 f;
#X msg 432 249 set \$1;
#X obj 210 331 makefilename wavesizes%d;
#X msg 210 352 set \$1;
#X obj 210 373 outlet;
#X msg 118 353 set wavesizes;
#X connect 0 0 8 0;
#X connect 0 1 1 0;
#X connect 1 0 7 0;
#X connect 1 1 2 0;
#X connect 2 0 6 0;
#X connect 2 1 5 0;
#X connect 4 0 9 0;
#X connect 4 0 26 0;
#X connect 5 0 3 0;
#X connect 6 0 3 0;
#X connect 7 0 3 0;
#X connect 8 0 3 0;
#X connect 9 0 0 0;
#X connect 10 0 25 0;
#X connect 11 0 12 0;
#X connect 11 0 15 0;
#X connect 11 0 33 0;
#X connect 11 1 13 0;
#X connect 11 1 16 0;
#X connect 11 1 30 0;
#X connect 12 0 9 1;
#X connect 13 0 9 1;
#X connect 14 0 27 0;
#X connect 15 0 14 1;
#X connect 16 0 14 1;
#X connect 17 0 3 0;
#X connect 18 0 21 0;
#X connect 18 1 19 0;
#X connect 19 0 22 0;
#X connect 19 1 20 0;
#X connect 20 0 23 0;
#X connect 20 1 24 0;
#X connect 21 0 29 0;
#X connect 22 0 29 0;
#X connect 23 0 29 0;
#X connect 24 0 29 0;
#X connect 25 0 26 0;
#X connect 25 1 11 0;
#X connect 25 1 28 1;
#X connect 26 0 14 0;
#X connect 27 0 28 0;
#X connect 27 1 18 0;
#X connect 28 0 17 0;
#X connect 29 0 17 0;
#X connect 30 0 31 0;
#X connect 31 0 32 0;
#X connect 33 0 32 0;
#X restore 188 183 pd format_numbers;
#X obj 160 153 r \$0-samp_num;
#X obj 39 464 line~;
#X obj 177 11 inlet;
#X obj 23 40 r \$0-pitch;
#X obj 85 388 r \$0-level;
#X obj 177 71 moses 2;
#X obj 216 90 s \$0-pitch;
#X obj 177 110 sel 0 1;
#X obj 196 129 s \$0-pitch;
#X obj 23 59 60;
#X obj 23 105 +;
#X obj 376 112 s \$0-samp_num;
#X obj 329 131 s \$0-direction;
#X obj 282 150 s \$0-transpose;
#X obj 68 107 r \$0-transpose;
#X obj 424 93 s \$0-level;
#X obj 70 407 1;
#X msg 169 129 0;
#X obj 23 483 *~;
#X text 328 306 plays waves from the wavebank~ abstraction;
#X obj 427 189 > 0;
#X obj 465 275 outlet;
#X obj 205 228 samplerate~;
#X obj 205 209 loadbang;
#X obj 205 247 * 0.001;
#X obj 155 268 delay;
#X msg 155 287 0;
#X obj 75 183 tabread wavesizes;
#X msg 354 25 0;
#X obj 385 23 loadbang;
#X obj 23 365 tabread4~ wave_0000;
#X obj 39 445 pack f 5;
#X obj 70 426 change;
#X obj 170 371 r \$0-vol;
#X obj 170 390 dbtorms;
#X obj 471 74 s \$0-vol;
#X msg 543 75 0;
#X msg 554 95 set 0;
#X obj 245 110 t b;
#X obj 177 30 route float bang;
#X obj 206 276 - 5;
#X obj 206 310 delay;
#X obj 23 78 t f b b;
#X msg 128 129 stop;
#X obj 283 54 route transpose direction wave level vol stop fade;
#X obj 543 162 moses 0;
#X msg 427 168 1;
#X text 460 292 playing;
#X obj 177 51 t f f;
#X obj 223 51 t b b;
#X text 281 344 note the;
#X obj 348 343 t f f;
#X text 391 343 and;
#X obj 423 342 t b b;
#X text 469 342 after the;
#X obj 543 341 route float bang;
#X text 567 362 ...polyphony control must be activated before playback
\, otherwise it won't work properly!;
#X text 665 342 connected to the inlet:;
#X obj 465 236 pipe 0;
#X text 448 401 also the;
#X obj 515 401 pipe 0;
#X text 566 401 ...there is a way to avoid this \, if all messages
are sent through to a 2nd outlet - but this kludge works for most applications!
;
#X text 517 239 ...not actually 0!;
#X floatatom 268 301 0 0 0 0 - - -;
#X obj 619 122 route poly;
#X obj 465 256 spigot 1;
#X obj 676 170 unpack f f f;
#X text 704 128 pitch \, vol \, wave;
#X obj 678 248 s \$0-pitch;
#X obj 708 228 s \$0-vol;
#X obj 741 206 s \$0-wave;
#X obj 676 149 route pvoice;
#X obj 823 166 route bank;
#X obj 823 187 s \$0-bank;
#X obj 299 183 r \$0-bank;
#X text 321 318 or any of the wavebank_n~ abstractions (new in 2018)
;
#X obj 820 88 \$1;
#X obj 819 60 loadbang;
#X text 844 87 wavebank_n~;
#X text 830 106 0 for wavebank~;
#X floatatom 245 363 0 0 0 0 - - -;
#X obj 148 239 / 44.1;
#X obj 109 242 * 1;
#X floatatom 593 29 5 -1500 136 0 p - -;
#X floatatom 628 29 5 1 99999 2 wave - -;
#X obj 668 30 bng 15 250 50 0 empty empty empty 17 7 0 10 -262144 -1
-1;
#X msg 628 50 wave \$1;
#X msg 536 12 60;
#X obj 478 12 loadbang;
#X connect 0 0 50 0;
#X connect 1 0 2 0;
#X connect 2 0 10 0;
#X connect 3 0 1 0;
#X connect 4 0 5 0;
#X connect 4 0 102 0;
#X connect 5 0 8 1;
#X connect 5 0 60 0;
#X connect 6 0 11 1;
#X connect 7 0 11 0;
#X connect 8 0 11 2;
#X connect 9 0 3 0;
#X connect 10 0 7 0;
#X connect 10 0 45 0;
#X connect 10 1 6 0;
#X connect 10 1 4 0;
#X connect 10 2 8 0;
#X connect 10 2 102 1;
#X connect 11 0 17 0;
#X connect 12 0 50 0;
#X connect 14 0 9 0;
#X connect 15 0 16 0;
#X connect 15 1 14 1;
#X connect 16 0 14 0;
#X connect 17 0 12 0;
#X connect 18 0 17 1;
#X connect 19 0 0 0;
#X connect 19 1 47 0;
#X connect 20 0 19 0;
#X connect 20 0 47 0;
#X connect 21 0 38 1;
#X connect 22 0 59 0;
#X connect 23 0 29 0;
#X connect 24 0 36 1;
#X connect 25 0 27 0;
#X connect 25 1 26 0;
#X connect 25 1 58 0;
#X connect 27 0 37 0;
#X connect 27 1 28 0;
#X connect 27 1 36 0;
#X connect 29 0 62 0;
#X connect 30 0 15 0;
#X connect 34 0 30 1;
#X connect 36 0 52 0;
#X connect 37 0 51 0;
#X connect 38 0 13 0;
#X connect 40 0 78 0;
#X connect 42 0 44 0;
#X connect 43 0 42 0;
#X connect 44 0 5 1;
#X connect 44 0 101 1;
#X connect 45 0 46 0;
#X connect 46 0 85 0;
#X connect 47 0 6 1;
#X connect 47 0 4 0;
#X connect 48 0 32 0;
#X connect 49 0 48 0;
#X connect 50 0 38 0;
#X connect 51 0 21 0;
#X connect 52 0 51 0;
#X connect 53 0 54 0;
#X connect 54 0 36 1;
#X connect 56 0 51 0;
#X connect 57 0 52 0;
#X connect 58 0 36 0;
#X connect 59 0 68 0;
#X connect 59 1 69 0;
#X connect 59 2 64 0;
#X connect 60 0 61 1;
#X connect 60 0 83 0;
#X connect 61 0 56 0;
#X connect 61 0 57 0;
#X connect 62 0 30 0;
#X connect 62 1 36 0;
#X connect 62 1 61 0;
#X connect 62 2 63 0;
#X connect 63 0 45 0;
#X connect 63 0 61 0;
#X connect 64 0 33 0;
#X connect 64 1 32 0;
#X connect 64 2 31 0;
#X connect 64 3 35 0;
#X connect 64 4 55 0;
#X connect 64 5 56 0;
#X connect 64 5 57 0;
#X connect 64 6 65 0;
#X connect 64 7 84 0;
#X connect 65 1 60 1;
#X connect 66 0 40 0;
#X connect 68 0 25 0;
#X connect 68 1 40 0;
#X connect 69 0 29 0;
#X connect 69 1 66 0;
#X connect 78 0 85 0;
#X connect 84 0 85 1;
#X connect 84 1 91 0;
#X connect 85 0 41 0;
#X connect 86 0 88 0;
#X connect 86 1 89 0;
#X connect 86 2 90 0;
#X connect 91 0 86 0;
#X connect 91 1 92 0;
#X connect 92 0 93 0;
#X connect 94 0 19 1;
#X connect 96 0 93 0;
#X connect 97 0 96 0;
#X connect 101 0 45 1;
#X connect 101 0 100 0;
#X connect 102 0 101 0;
#X connect 103 0 29 1;
#X connect 104 0 106 0;
#X connect 105 0 29 0;
#X connect 106 0 64 0;
#X connect 107 0 103 0;
#X connect 108 0 107 0;
#X coords 0 -1 1 1 110 40 1 580 10;
