#N canvas -1495 126 1388 736 10;
#X declare -lib moonlib;
#X obj 13 340 route t1 t2 t3 t4 t5;
#X obj 310 564 r \$0-distortion_1;
#X msg 248 564 thresh \$1;
#X obj 833 339 r \$0-drums_1;
#X obj 1200 345 r \$0-clinoks;
#X msg 939 594 thresh \$1;
#X obj 540 824 dac~;
#X obj 646 308 s \$0-drums_1;
#X msg 646 221 randpat;
#X msg 665 248 randns;
#X msg 665 277 rspect;
#X obj 728 308 s \$0-clinoks;
#N canvas 15 94 629 300 load 0;
#X obj 118 92 loadbang;
#X obj 23 162 outlet;
#X obj 188 162 outlet;
#X obj 359 162 outlet;
#X msg 121 165 on 1;
#X msg 188 141 file datasets/chlick.pat;
#X msg 23 141 file datasets/click.pat;
#X msg 359 141 file datasets/clinok.pat;
#X text 252 47 The paths are relative to the object \, not the app
;
#X text 252 70 the objects all begin with ../ (up one level) and ../
is where the folder datasets/ is. Therefore \, the file command is
sent relative to each object as datasets/file.pat;
#X msg 548 143 randpat;
#X connect 0 0 7 0;
#X connect 0 0 5 0;
#X connect 0 0 6 0;
#X connect 0 0 4 0;
#X connect 4 0 1 0;
#X connect 4 0 2 0;
#X connect 4 0 3 0;
#X connect 5 0 2 0;
#X connect 6 0 1 0;
#X connect 7 0 3 0;
#X connect 10 0 3 0;
#X connect 10 0 2 0;
#X connect 10 0 1 0;
#X restore 607 339 pd load patches;
#X msg 73 174 denseall \$1;
#X msg 152 173 newpat;
#X obj 820 731 nbx 5 14 -100 100 0 0 \$0-dist_1-pc \$0-dist_1-pc-set
empty 0 -8 0 10 -262144 -1 -1 100 256;
#X obj 924 657 loadbang;
#X obj 819 731 nbx 5 14 -1 1 0 0 \$0-distortion_1 \$0-dist_1 distortion_1
0 -8 0 10 -262144 -1 -1 1 256;
#N canvas 52 92 554 480 distortion_numbers 0;
#X obj 44 105 / 100;
#X obj 44 84 r \$0-dist_1-pc;
#X obj 44 126 s \$0-dist_1;
#X obj 44 174 / 100;
#X obj 44 153 r \$0-dist_2-pc;
#X obj 44 195 s \$0-dist_2;
#X obj 221 80 nbx 5 14 -1e+037 1e+037 0 0 empty empty empty 0 -8 0
10 -262144 -1 -1 0 256;
#X obj 280 113 nbx 5 14 -1e+037 1e+037 0 0 empty empty empty 0 -8 0
10 -262144 -1 -1 0 256;
#X obj 203 109 / 100;
#X text 140 44 these are GUI numbers \, but the same trick works with
standard atoms;
#X text 139 130 if you put them on top of each other \, the one you
cannot see is the one that will be changed by the mouse. This is just
a fact of Tcl/Tk (the gui of PD is built using this interface language).
;
#X obj 231 182 nbx 5 14 -1e+037 1e+037 0 0 empty empty empty 0 -8 0
10 -262144 -1 -1 0 256;
#X obj 235 182 nbx 5 14 -1e+037 1e+037 0 0 empty empty empty 0 -8 0
10 -262144 -1 -1 0 256;
#X obj 213 211 / 100;
#X text 144 230 use the send and receive symbols of the gui objects
(right-click -> properties) to make this action remote - or the lines
between the objects are hidden if they are part of a graph-on-parent
object.;
#X obj 230 285 nbx 5 14 -1e+037 1e+037 0 0 \$0-demo empty empty 0 -8
0 10 -262144 -1 -1 0 256;
#X obj 229 317 nbx 5 14 -1e+037 1e+037 0 0 empty \$0-display empty
0 -8 0 10 -262144 -1 -1 0 256;
#X obj 148 304 / 100;
#X obj 148 327 s \$0-display;
#X obj 148 282 r \$0-demo;
#X text 289 283 <-- send \$0-demo;
#X text 287 314 <-- receive \$0-display;
#X text 147 347 then \, put the one you see on top of the one you can
change!;
#X obj 230 372 nbx 5 28 -1e+037 1e+037 0 0 \$0-demo2 empty empty 0
-8 0 36 -262144 -1 -1 0 256;
#X obj 230 379 nbx 5 14 -1e+037 1e+037 0 0 empty \$0-display2 empty
0 -8 0 10 -262144 -1 -1 0 256;
#X obj 148 391 / 100;
#X obj 148 369 r \$0-demo2;
#X obj 148 414 s \$0-display2;
#X text 250 405 (here \, the one below is much bigger);
#X text 233 418 (if the sizes are the same \, you won't see it);
#X text 167 19 The hidden \, and altered ranges of metastudio;
#X obj 230 442 nbx 5 14 -1e+037 1e+037 0 0 \$0-demo2 empty empty 0
-8 0 10 -262144 -1 -1 0 256;
#X obj 230 442 nbx 5 14 -1e+037 1e+037 0 0 empty \$0-display2 empty
0 -8 0 10 -262144 -1 -1 0 256;
#X connect 0 0 2 0;
#X connect 1 0 0 0;
#X connect 3 0 5 0;
#X connect 4 0 3 0;
#X connect 6 0 8 0;
#X connect 8 0 7 0;
#X connect 11 0 13 0;
#X connect 13 0 12 0;
#X connect 17 0 18 0;
#X connect 19 0 17 0;
#X connect 25 0 27 0;
#X connect 26 0 25 0;
#X restore 819 748 pd distortion_numbers;
#X obj 900 731 nbx 5 14 -100 100 0 0 \$0-dist_2-pc \$0-dist_2-pc-set
empty 0 -8 0 10 -262144 -1 -1 77 256;
#X obj 899 731 nbx 5 14 -1 1 0 0 \$0-distortion_2 \$0-dist_2 distortion_2
0 -8 0 10 -262144 -1 -1 0.77 256;
#X text 955 759 here's how it's done!;
#X text 955 747 hidden number ranges...;
#X msg 788 662 max;
#X msg 984 682 100;
#X obj 984 726 s \$0-dist_1-pc-set;
#X obj 1034 705 s \$0-dist_2-pc-set;
#X obj 939 575 r \$0-distortion_2;
#X msg 1023 683 77;
#X text 727 257 (White \, Pink \, FM);
#N canvas 0 0 450 300 battery 0;
#X obj 104 142 metro 200;
#X obj 103 108 t b b;
#X msg 199 162 0;
#X obj 104 196 cup;
#X obj 149 193 >= 4;
#X obj 149 217 sel 1;
#X obj 150 245 del 0;
#X msg 209 99 0;
#X obj 85 260 outlet;
#X obj 84 232 t b b;
#X obj 140 271 outlet;
#X obj 104 80 loadbang;
#X connect 0 0 3 0;
#X connect 1 0 0 0;
#X connect 1 1 2 0;
#X connect 2 0 3 0;
#X connect 3 0 4 0;
#X connect 3 0 9 0;
#X connect 4 0 5 0;
#X connect 5 0 6 0;
#X connect 6 0 7 0;
#X connect 7 0 0 0;
#X connect 9 0 8 0;
#X connect 9 1 10 0;
#X connect 11 0 1 0;
#X restore 151 152 pd battery;
#X msg 789 696 randpan 40;
#X obj 13 368 clicker~;
#X obj 215 367 chlicker~;
#X obj 454 577 sigsat~;
#X obj 215 584 sigsat~;
#X obj 13 585 sigsat~;
#X obj 755 578 sigsat~;
#X obj 1055 577 sigsat~;
#X obj 1191 650 dsp_meter;
#X obj 540 633 mix5++;
#X obj 540 755 record_s~;
#X obj 1134 177 stepkeys;
#X obj 454 368 clinoker~;
#X obj 13 2 seq_rhythm;
#X floatatom 833 272 5 0 0 0 - - -;
#X msg 833 291 dmodify \$1;
#X msg 1134 282 pitch \$1;
#X floatatom 1134 264 5 0 0 0 - - -;
#X obj 188 709 pitchshift~;
#X obj 1134 245 route pitch;
#X msg 997 291 vol \$1;
#X floatatom 997 237 5 0 0 0 - - -;
#X obj 696 191 t b;
#X msg 828 204 100;
#X obj 828 184 loadbang;
#X obj 755 367 clinoker~;
#X obj 1055 368 clinoker~;
#N canvas 0 0 450 300 init 0;
#X obj 111 97 delay 200;
#X obj 111 76 loadbang;
#X obj 175 97 delay 300;
#X obj 105 130 outlet;
#X obj 181 124 outlet;
#X connect 0 0 3 0;
#X connect 1 0 0 0;
#X connect 1 0 2 0;
#X connect 2 0 4 0;
#X restore 646 190 pd init;
#X obj 722 191 delay 10;
#X obj 1134 301 s \$0-drums_1;
#X text 721 281 of FM noise type;
#X text 712 270 ...random spectrum;
#X text 709 244 ...random noise type;
#X text 694 219 ...random patch;
#X text 868 265 ...alter decay;
#X text 871 275 times proportionally;
#X text 1035 234 -> boosting;
#X text 1035 246 vol above 100;
#X text 1033 258 overdrives the;
#X text 1030 270 distorion units;
#X text 1108 157 Use the QWERTY keyboard to play pitches;
#X obj 13 199 trigseq64;
#X obj 73 155 random 70;
#X text 690 775 Just a pitchshift~ here \, but you could have two auxilliary
effects!;
#X connect 0 0 32 0;
#X connect 0 1 33 0;
#X connect 0 2 43 0;
#X connect 0 3 56 0;
#X connect 0 4 57 0;
#X connect 1 0 2 0;
#X connect 2 0 35 1;
#X connect 2 0 36 1;
#X connect 3 0 32 1;
#X connect 3 0 33 1;
#X connect 3 0 43 1;
#X connect 3 0 56 1;
#X connect 3 0 57 1;
#X connect 4 0 43 1;
#X connect 4 0 56 1;
#X connect 4 0 57 1;
#X connect 5 0 34 1;
#X connect 5 0 37 1;
#X connect 5 0 38 1;
#X connect 8 0 7 0;
#X connect 8 0 53 0;
#X connect 9 0 7 0;
#X connect 10 0 11 0;
#X connect 12 0 32 1;
#X connect 12 1 33 1;
#X connect 12 2 43 1;
#X connect 12 2 56 1;
#X connect 12 2 57 1;
#X connect 13 0 72 0;
#X connect 14 0 72 0;
#X connect 16 0 23 0;
#X connect 16 0 24 0;
#X connect 16 0 28 0;
#X connect 16 0 31 0;
#X connect 23 0 40 5;
#X connect 24 0 25 0;
#X connect 27 0 5 0;
#X connect 28 0 26 0;
#X connect 30 0 14 0;
#X connect 30 1 73 0;
#X connect 31 0 40 5;
#X connect 32 0 36 0;
#X connect 33 0 35 0;
#X connect 34 0 40 2;
#X connect 35 0 40 1;
#X connect 36 0 40 0;
#X connect 37 0 40 3;
#X connect 38 0 40 4;
#X connect 40 0 41 0;
#X connect 40 1 41 1;
#X connect 40 2 49 0;
#X connect 41 0 6 0;
#X connect 41 1 6 1;
#X connect 42 0 50 0;
#X connect 43 0 34 0;
#X connect 44 0 72 0;
#X connect 45 0 46 0;
#X connect 46 0 7 0;
#X connect 47 0 60 0;
#X connect 48 0 47 0;
#X connect 49 0 41 0;
#X connect 49 0 41 1;
#X connect 50 0 48 0;
#X connect 51 0 7 0;
#X connect 52 0 51 0;
#X connect 53 0 59 0;
#X connect 54 0 52 0;
#X connect 55 0 54 0;
#X connect 56 0 37 0;
#X connect 57 0 38 0;
#X connect 58 0 8 0;
#X connect 58 1 9 0;
#X connect 59 0 52 0;
#X connect 72 0 0 0;
#X connect 72 1 44 0;
#X connect 73 0 13 0;
