#N canvas 1600 0 805 882 10;
#X obj 35 32 cnv 15 250 180 empty empty fm-modulator 114 14 0 18 -159719
-13330 0;
#X obj 289 32 cnv 15 250 180 empty empty pd-modulator 114 14 0 18 -159719
-13330 0;
#X obj 49 401 *~;
#X obj 308 400 *~;
#X obj 307 224 route freq;
#X obj 308 76 *;
#X obj 308 53 nbx 5 18 0.01 999 1 0 \$0-cmr_2-out \$0-cmr_2 CM-ratio
0 -8 0 16 -262144 -1 -1 2.002 256;
#X msg 308 97 freq \$1;
#X obj 49 77 *;
#X obj 49 54 nbx 5 18 0.036125 32 1 0 \$0-cmr_1-out \$0-cmr_1 CM-ratio
0 -8 0 16 -262144 -1 -1 1.5 256;
#X msg 49 98 freq \$1;
#X obj 30 213 cnv 4 512 4 empty empty empty 20 12 0 14 -33289 -66577
0;
#X obj 335 76 t b f;
#X obj 76 77 t b f;
#X obj 49 118 sinosc~;
#X obj 308 117 sinosc~;
#X obj 64 293 eadsr_mod~;
#X msg 159 471 pitch \$1;
#X obj 159 436 nbx 5 18 12 136 0 0 empty \$0-pitchit pitch 0 -8 0 14
-262144 -1 -1 64 256;
#X obj 32 492 trisaw~;
#N canvas 0 0 450 300 init 0;
#X obj 41 69 loadbang;
#X msg 169 131 48;
#X obj 41 133 outlet;
#X obj 169 155 outlet;
#X msg 41 106 all 130.813 48 0 0 40 1 0 30 200 1;
#X obj 95 232 s \$0-cmr_1;
#X obj 191 231 s \$0-cmr_2;
#X msg 83 209 1.5;
#X msg 191 206 2.002;
#X connect 0 0 4 0;
#X connect 0 0 1 0;
#X connect 0 0 7 0;
#X connect 0 0 8 0;
#X connect 1 0 3 0;
#X connect 4 0 2 0;
#X connect 7 0 5 0;
#X connect 8 0 6 0;
#X restore 105 416 pd init;
#N canvas 30 119 450 300 init 0;
#X obj 71 145 loadbang;
#X obj 72 213 outlet;
#X obj 190 29 r \$0-init;
#X msg 27 179 all 500 200 28 800 0 40 0 0 1;
#X connect 0 0 3 0;
#X connect 2 0 3 0;
#X connect 3 0 1 0;
#X restore 223 274 pd init;
#X msg 307 245 fcar \$1;
#X obj 35 -2 cnv 15 502 30 empty empty signal_FM_and_phase_distortion
40 18 0 24 -159719 -13381 0;
#X obj 30 28 cnv 4 512 4 empty empty empty 20 12 0 14 -33289 -66577
0;
#X obj 538 -2 cnv 4 4 214 empty empty empty 20 12 0 14 -33289 -66577
0;
#X obj 30 -2 cnv 4 4 214 empty empty empty 20 12 0 14 -33289 -66577
0;
#X obj 30 -2 cnv 4 512 4 empty empty empty 20 12 0 14 -33289 -66577
0;
#X obj 286 28 cnv 4 4 184 empty empty empty 20 12 0 14 -33289 -66577
0;
#X obj 153 773 *~;
#X obj 28 699 moog_fl~;
#X obj 334 478 adsr_mod~;
#X obj 500 235 sadsrr~;
#X obj 563 47 stepkeys;
#X obj 564 159 s \$0-pitchit;
#X obj 548 215 r \$0-trigit;
#X obj 668 127 s \$0-trigit;
#X obj 64 272 r \$0-trigit;
#X obj 432 587 r \$0-trigit;
#X obj 334 457 r \$0-trigit;
#X obj 432 608 adsr_mod~;
#X obj 135 70 nbx 5 14 0 99999 0 0 \$0-glide_1-out \$0-glide_1 glide
0 -8 0 10 -262144 -1 -1 0 256;
#X msg 104 98 glide \$1;
#X obj 395 70 nbx 5 14 0 99999 0 0 \$0-glide_2-out \$0-glide_2 glide
0 -8 0 10 -262144 -1 -1 23 256;
#X msg 364 98 glide \$1;
#X obj 203 610 sinosc~;
#N canvas 0 0 450 300 init 0;
#X obj 259 200 outlet;
#X obj 221 81 loadbang;
#X msg 259 152 bip 0 \, freq 4;
#X connect 1 0 2 0;
#X connect 2 0 0 0;
#X restore 203 590 pd init;
#N canvas 28 210 471 187 init 0;
#X msg 60 85 all 0 0.5 4 0.85 13 0.3 330 1 910 0 1520 1 20 4;
#X obj 82 119 outlet;
#X text 76 65 st lev1 tim1 l2 t2 l3 t3 l4 t4 l5 t5 sc ln sus;
#X obj 49 36 loadbang;
#X obj 190 29 r \$0-init;
#X connect 0 0 1 0;
#X connect 3 0 0 0;
#X connect 4 0 0 0;
#X restore 622 215 pd init;
#X obj 471 177 s \$0-sin2;
#X obj 213 178 s \$0-sin1;
#X obj 365 673 s \$0-sin3;
#X obj 148 679 *~;
#X obj 563 123 route pitch gate;
#X obj 199 686 nbx 5 14 0.04 4 1 0 \$0-qmod-out \$0-qmod qmod 0 -8
0 10 -262144 -1 -1 0.0437646 256;
#X obj 234 401 s \$0-eg1;
#X obj 689 450 s \$0-eg2;
#X obj 504 587 s \$0-eg3;
#X obj 602 717 s \$0-eg4;
#X obj 221 563 s \$0-ts1;
#X obj 168 740 s \$0-fl1;
#X obj 148 273 r \$0-eg1-in;
#X obj 441 458 r \$0-eg3-in;
#X obj 672 215 r \$0-eg2-in;
#X obj 561 587 r \$0-eg4-in;
#X obj 32 471 r \$0-ts1-in;
#X obj 272 590 r \$0-sin3-in;
#X obj 167 713 r \$0-fl1-in;
#X obj 162 98 r \$0-sin1-in;
#X obj 422 98 r \$0-sin2-in;
#N canvas 107 242 813 304 receives 0;
#X obj 14 160 s \$0-sin1-in;
#X obj 96 160 s \$0-sin2-in;
#X obj 259 159 s \$0-eg1-in;
#X obj 333 159 s \$0-eg2-in;
#X obj 556 155 s \$0-ts1-in;
#X obj 406 158 s \$0-eg3-in;
#X obj 177 160 s \$0-sin3-in;
#X obj 481 155 s \$0-eg4-in;
#X obj 631 156 s \$0-fl1-in;
#X obj 75 -44 r \$0-sin1;
#X obj 137 -44 r \$0-sin2;
#X obj 263 -42 r \$0-eg1;
#X obj 330 -41 r \$0-eg2;
#X obj 400 -43 r \$0-eg3;
#X obj 537 -42 r \$0-ts1;
#X obj 199 -44 r \$0-sin3;
#X obj 466 -42 r \$0-eg4;
#X obj 607 -43 r \$0-fl1;
#X obj 111 64 outlet;
#X obj 87 96 inlet;
#X obj 75 11 prepend 1;
#X obj 137 0 prepend 2;
#X obj 199 10 prepend 3;
#X obj 137 -22 route all;
#X obj 75 -16 route all;
#X obj 199 -17 route all;
#X obj 263 3 prepend 4;
#X obj 263 -20 route all;
#X obj 330 -19 route all;
#X obj 330 4 prepend 5;
#X obj 400 -19 route all;
#X obj 400 4 prepend 6;
#X obj 466 -20 route all;
#X obj 466 3 prepend 7;
#X obj 537 4 prepend 8;
#X obj 537 -19 route all;
#X obj 607 -19 route all;
#X obj 607 4 prepend 9;
#X obj 674 4 prepend 10;
#N canvas 0 0 450 300 packsingles 0;
#X obj 83 106 r \$0-cmr_1-out;
#X obj 100 126 r \$0-cmr_2-out;
#X obj 193 106 r \$0-glide_1-out;
#X obj 210 126 r \$0-glide_2-out;
#X obj 100 157 t b f;
#X obj 193 161 t b f;
#X obj 238 163 t b f;
#X obj 296 183 t b f;
#X obj 280 151 r \$0-qmod-out;
#X obj 76 236 pack f f f f f;
#X obj 76 267 outlet;
#X connect 0 0 9 0;
#X connect 1 0 4 0;
#X connect 2 0 5 0;
#X connect 3 0 6 0;
#X connect 4 0 9 0;
#X connect 4 1 9 1;
#X connect 5 0 9 0;
#X connect 5 1 9 2;
#X connect 6 0 9 0;
#X connect 6 1 9 3;
#X connect 7 0 9 0;
#X connect 7 1 9 4;
#X connect 8 0 7 0;
#X connect 9 0 10 0;
#X restore 674 -17 pd packsingles;
#N canvas 0 0 450 300 unpacksingles 0;
#X obj 95 76 unpack f f f f f;
#X obj 100 238 s \$0-cmr_1;
#X obj 122 192 s \$0-cmr_2;
#X obj 143 160 s \$0-glide_1;
#X obj 162 122 s \$0-glide_2;
#X obj 186 96 s \$0-qmod;
#X obj 91 26 inlet;
#X obj 91 54 route all;
#X connect 0 0 1 0;
#X connect 0 1 2 0;
#X connect 0 2 3 0;
#X connect 0 3 4 0;
#X connect 0 4 5 0;
#X connect 6 0 7 0;
#X connect 7 0 0 0;
#X restore 704 157 pd unpacksingles;
#X obj 88 117 route 1 2 3 4 5 6 7 8 9 10;
#X connect 9 0 24 0;
#X connect 10 0 23 0;
#X connect 11 0 27 0;
#X connect 12 0 28 0;
#X connect 13 0 30 0;
#X connect 14 0 35 0;
#X connect 15 0 25 0;
#X connect 16 0 32 0;
#X connect 17 0 36 0;
#X connect 19 0 41 0;
#X connect 20 0 18 0;
#X connect 21 0 18 0;
#X connect 22 0 18 0;
#X connect 23 0 21 0;
#X connect 24 0 20 0;
#X connect 25 0 22 0;
#X connect 26 0 18 0;
#X connect 27 0 26 0;
#X connect 28 0 29 0;
#X connect 29 0 18 0;
#X connect 30 0 31 0;
#X connect 31 0 18 0;
#X connect 32 0 33 0;
#X connect 33 0 18 0;
#X connect 34 0 18 0;
#X connect 35 0 34 0;
#X connect 36 0 37 0;
#X connect 37 0 18 0;
#X connect 38 0 18 0;
#X connect 39 0 38 0;
#X connect 41 0 0 0;
#X connect 41 1 1 0;
#X connect 41 2 6 0;
#X connect 41 3 2 0;
#X connect 41 4 3 0;
#X connect 41 5 5 0;
#X connect 41 6 7 0;
#X connect 41 7 4 0;
#X connect 41 8 8 0;
#X connect 41 9 40 0;
#X restore 348 763 pd receives;
#X msg 563 25 on 1 \, gate 1 \, gate_t 1200;
#X obj 563 4 loadbang;
#X msg 69 629 pitch \$1;
#N canvas 0 0 450 300 init 0;
#X obj 107 210 outlet;
#X msg 108 176 all 20 700 30 500 0 5000 0 0 2;
#X obj 117 139 loadbang;
#X obj 190 29 r \$0-init;
#X connect 1 0 0 0;
#X connect 2 0 1 0;
#X connect 3 0 1 0;
#X restore 515 457 pd init;
#N canvas 0 0 450 300 init 0;
#X obj 107 210 outlet;
#X obj 111 135 loadbang;
#X obj 190 29 r \$0-init;
#X msg 108 177 all 8 400 40 900 0 1 0 0 0;
#X connect 1 0 3 0;
#X connect 2 0 3 0;
#X connect 3 0 0 0;
#X restore 637 586 pd init;
#X obj 348 309 dsp_meter;
#X obj 634 496 bng 15 250 50 0 empty empty empty 17 7 0 10 -262144
-1 -1;
#X obj 634 516 s \$0-init;
#X obj 428 749 modpatch 10;
#X obj 153 801 mix~;
#X obj 144 843 dac~;
#X obj 592 459 envrms~;
#X floatatom 668 480 5 0 0 0 - - -;
#X obj 667 165 tgl 15 0 empty empty empty 17 7 0 10 -262144 -1 -1 0
1;
#X obj 269 713 vu~;
#X connect 2 0 19 1;
#X connect 3 0 19 2;
#X connect 4 0 12 0;
#X connect 4 0 13 0;
#X connect 4 0 22 0;
#X connect 5 0 7 0;
#X connect 6 0 5 0;
#X connect 7 0 15 0;
#X connect 8 0 10 0;
#X connect 9 0 8 0;
#X connect 10 0 14 0;
#X connect 12 0 5 0;
#X connect 12 1 5 1;
#X connect 13 0 8 0;
#X connect 13 1 8 1;
#X connect 14 0 2 0;
#X connect 14 2 49 0;
#X connect 15 0 3 0;
#X connect 15 2 48 0;
#X connect 16 0 2 1;
#X connect 16 1 54 0;
#X connect 17 0 19 0;
#X connect 18 0 17 0;
#X connect 18 0 72 0;
#X connect 19 0 30 0;
#X connect 19 2 4 0;
#X connect 19 2 58 0;
#X connect 20 0 19 0;
#X connect 20 1 18 0;
#X connect 21 0 16 1;
#X connect 22 0 16 1;
#X connect 29 0 79 0;
#X connect 29 0 84 0;
#X connect 30 0 29 0;
#X connect 30 1 59 0;
#X connect 31 0 30 1;
#X connect 31 1 56 0;
#X connect 32 0 3 1;
#X connect 32 0 81 0;
#X connect 32 1 55 0;
#X connect 33 0 52 0;
#X connect 35 0 32 0;
#X connect 37 0 16 0;
#X connect 38 0 40 0;
#X connect 39 0 31 0;
#X connect 40 0 29 1;
#X connect 40 1 57 0;
#X connect 41 0 42 0;
#X connect 42 0 14 0;
#X connect 43 0 44 0;
#X connect 44 0 15 0;
#X connect 45 0 51 0;
#X connect 45 2 50 0;
#X connect 46 0 45 0;
#X connect 47 0 32 1;
#X connect 51 0 30 2;
#X connect 52 0 34 0;
#X connect 52 1 36 0;
#X connect 52 1 83 0;
#X connect 53 0 51 1;
#X connect 60 0 16 1;
#X connect 61 0 31 1;
#X connect 62 0 32 1;
#X connect 63 0 40 1;
#X connect 64 0 19 0;
#X connect 65 0 45 0;
#X connect 66 0 30 3;
#X connect 67 0 14 0;
#X connect 68 0 15 0;
#X connect 69 0 78 0;
#X connect 70 0 33 0;
#X connect 71 0 70 0;
#X connect 72 0 30 3;
#X connect 73 0 31 1;
#X connect 74 0 40 1;
#X connect 76 0 77 0;
#X connect 78 0 69 0;
#X connect 79 0 80 0;
#X connect 79 0 80 1;
#X connect 81 0 82 0;
