#N canvas 0 0 651 401 10;
#X obj 64 143 trisaw~;
#X obj 314 33 adsr_mod~;
#X obj 47 222 mix~;
#X obj 42 265 dac~;
#X obj 314 14 tgl 15 0 empty empty empty 17 7 0 10 -262144 -1 -1 0
1;
#X msg 76 120 mod_in 1;
#X obj 219 225 miniscope~;
#N canvas 0 0 450 300 (subpatch) 0;
#X obj 125 139 outlet;
#X msg 120 100 on 1 \, size 4;
#X obj 123 72 loadbang;
#X connect 1 0 0 0;
#X connect 2 0 1 0;
#X restore 390 203 pd;
#X connect 0 0 2 0;
#X connect 0 0 6 0;
#X connect 1 0 0 2;
#X connect 2 0 3 0;
#X connect 2 0 3 1;
#X connect 4 0 1 0;
#X connect 5 0 0 0;
#X connect 7 0 6 1;
