#N canvas 0 48 1419 773 10;
#X declare -lib bsaylor;
#X declare -lib vasp;
#X obj 7 0 trigseq;
#X obj 7 231 clicker~;
#X obj 244 168 route pitch;
#X obj 203 209 *~;
#X obj 244 188 mtof;
#X obj 218 188 *;
#X obj 244 208 t b f;
#X obj 185 166 nbx 5 14 -1e+37 1e+37 0 0 empty empty xmod 0 -8 0 10
-262144 -1 -1 18 256;
#X obj 216 231 chlicker~;
#X obj 458 221 clinoker~;
#X obj 795 159 route pitch;
#X obj 754 210 *~;
#X obj 795 179 mtof;
#X obj 769 189 *;
#X obj 795 199 t b f;
#X obj 728 169 nbx 5 14 -1e+37 1e+37 0 0 empty empty xmod 0 -8 0 10
-262144 -1 -1 35 256;
#X obj 7 135 route t1 t2 t3 t4 t5;
#X obj 25 480 mix5++;
#X msg 1090 174 on 1;
#X obj 1090 154 loadbang;
#X obj 794 221 fmf_perc~;
#X obj 40 817 mix12~;
#X obj 336 478 delay_fbf~;
#X obj 572 560 pitchshift~;
#X obj 572 502 traveler~ h4 l6;
#X obj 566 0 seq_rhythm;
#X obj 991 697 trisaw~;
#X obj 954 492 adsr_mod~;
#X obj 1176 635 sinosc~;
#X obj 1065 674 *~;
#X obj 1092 674 *;
#X obj 1119 674 t b f;
#X obj 1092 651 nbx 5 18 0.001 10 1 0 empty \$0-index_2 index 0 -8
0 16 -262144 -1 -1 10 256;
#X obj 1211 563 route freq;
#X obj 1304 588 *;
#X obj 1304 565 nbx 5 18 0.125 8 1 0 empty \$0-cmr_1 CM-ratio 0 -8
0 16 -262144 -1 -1 2.96969 256;
#X msg 1304 609 freq \$1;
#X obj 1331 588 t b f;
#X obj 1262 188 isoseq;
#X obj 555 149 route pos;
#X msg 1262 166 bang;
#X obj 853 696 moog_fl~;
#X obj 643 676 miniscope~;
#N canvas 0 0 450 300 init 0;
#X msg 96 162 all 50 368 50 800 0 8198 1 0 2;
#X obj 96 128 loadbang;
#X obj 98 196 outlet;
#X connect 0 0 2 0;
#X connect 1 0 0 0;
#X restore 1061 472 pd init;
#X obj 1192 442 adsr_mod~;
#X obj 1071 439 > 0;
#X msg 1449 525 pitch \$1;
#N canvas 0 0 450 300 init 0;
#X obj 96 128 loadbang;
#X obj 98 196 outlet;
#X msg 96 162 all 10 1028 10 1000 0 1 1 0 0;
#X connect 0 0 2 0;
#X connect 2 0 1 0;
#X restore 1313 422 pd init;
#X obj 1048 222 clicker~;
#N canvas 0 0 450 300 patches 0;
#X obj 27 235 outlet;
#X obj 75 264 outlet;
#X obj 133 273 outlet;
#X obj 93 95 loadbang;
#X msg 130 240 file datasets/clinok.pat \, randpat;
#X msg 72 198 file datasets/chlick.pat \, randpat;
#X msg 38 164 file datasets/click.pat \, randpat;
#X connect 3 0 6 0;
#X connect 3 0 5 0;
#X connect 3 0 4 0;
#X connect 4 0 2 0;
#X connect 5 0 1 0;
#X connect 6 0 0 0;
#X restore 396 196 pd patches;
#X obj 437 656 freeverber~;
#X obj 1240 699 pwosc~;
#X obj 1424 596 sinosc~;
#X obj 1475 677 *~ 0;
#X obj 1509 677 nbx 5 18 0.01 1 1 0 empty \$0-cmr_1 PWM 0 -8 0 16 -262144
-1 -1 0.593523 256;
#X msg 1424 576 freq 4;
#X obj 1425 556 loadbang;
#X obj 276 434 tcalc;
#X obj 428 139 route tempo;
#X obj 428 161 s \$0-tempo;
#X obj 200 431 r \$0-tempo;
#X msg 201 454 tempo \$1;
#X msg 268 477 delay \$1;
#X obj 36 939 record_s~;
#X obj 43 1009 dac~;
#X obj 28 659 steq~;
#X obj 1 605 sigsat~;
#X obj 166 605 sigsat~;
#N canvas 0 0 450 300 init 0;
#X obj 112 156 outlet;
#X msg 112 118 thresh 0.7;
#X obj 107 80 loadbang;
#X connect 1 0 0 0;
#X connect 2 0 1 0;
#X restore 272 582 pd init;
#X obj 514 895 phasevocoder~ 1024 4;
#X obj 1190 784 samplebox_1~;
#X obj 514 804 stepkeys;
#X obj 514 874 route pitch;
#X msg 723 781 trans 1;
#X obj 778 782 loadbang;
#X msg 1492 764 loadbank snd/samples_1;
#X obj 1492 745 loadbang;
#X obj 1146 1037 dac~;
#X msg 519 433 num 6;
#X obj 566 433 loadbang;
#N canvas 5 48 450 300 init 0;
#X obj 85 66 loadbang;
#X obj 82 142 outlet;
#X msg 82 108 roomsize 1 \, damping 0.3 \, width 0.8 \, mono 1 \, on
1;
#X connect 0 0 2 0;
#X connect 2 0 1 0;
#X restore 643 657 pd init;
#X obj 1543 448 phasynth~;
#X floatatom 380 756 5 0 0 0 - - -;
#N canvas 5 48 450 300 init 0;
#X msg 97 153 pf -0.22 \, win 80 \, fb 80 \, lpf 15000;
#X obj 90 188 outlet;
#X obj 94 112 loadbang;
#X connect 0 0 1 0;
#X connect 2 0 0 0;
#X restore 908 627 pd init;
#X obj 1427 487 moses 0;
#X obj 952 795 sinosc~;
#X obj 894 867 *~ 0;
#X obj 943 867 nbx 5 14 0.001 1 1 0 empty empty timescratch 0 -8 0
10 -262144 -1 -1 0.245824 256;
#X obj 1504 422 moses 1;
#X msg 1566 424 1;
#X msg 1495 450 0;
#X obj 24 159 dsp_meter;
#N canvas 0 0 450 300 init 0;
#X obj 105 95 loadbang;
#X msg 103 142 max \, randpan 20 \, p1 -45 \, p2 45;
#X obj 106 187 outlet;
#X connect 0 0 1 0;
#X connect 1 0 2 0;
#X restore 449 793 pd init;
#N canvas 0 0 450 300 init 0;
#X msg 167 127 max \, randpan 20;
#X obj 166 98 loadbang;
#X obj 167 162 outlet;
#X connect 0 0 2 0;
#X connect 1 0 0 0;
#X restore 264 504 pd init;
#X msg 281 781 randpan \$1 \, p1 -45 \, p2 45;
#X obj 854 775 mix~;
#X obj 1044 769 loadbang;
#X msg 932 768 vol 80 \, limit 1;
#X text 408 997 This is a bit of everything!;
#X connect 0 0 16 0;
#X connect 0 1 25 0;
#X connect 0 1 39 0;
#X connect 0 1 58 0;
#X connect 1 0 17 0;
#X connect 1 1 2 0;
#X connect 2 0 4 0;
#X connect 3 0 1 2;
#X connect 4 0 6 0;
#X connect 5 0 3 1;
#X connect 6 0 5 0;
#X connect 6 1 5 1;
#X connect 7 0 5 0;
#X connect 8 0 3 0;
#X connect 8 0 17 1;
#X connect 9 0 17 2;
#X connect 9 1 10 0;
#X connect 10 0 12 0;
#X connect 11 0 9 2;
#X connect 12 0 14 0;
#X connect 13 0 11 1;
#X connect 14 0 13 0;
#X connect 14 1 13 1;
#X connect 15 0 13 0;
#X connect 16 0 1 0;
#X connect 16 1 8 0;
#X connect 16 2 9 0;
#X connect 16 3 20 0;
#X connect 16 4 48 0;
#X connect 17 0 66 0;
#X connect 17 1 67 0;
#X connect 17 2 22 0;
#X connect 17 3 24 0;
#X connect 18 0 1 1;
#X connect 18 0 8 1;
#X connect 18 0 9 1;
#X connect 18 0 20 1;
#X connect 19 0 18 0;
#X connect 20 0 11 0;
#X connect 20 0 17 3;
#X connect 21 0 63 0;
#X connect 21 1 63 1;
#X connect 22 0 21 2;
#X connect 23 0 21 3;
#X connect 23 0 50 0;
#X connect 24 0 23 0;
#X connect 25 0 0 0;
#X connect 26 0 41 0;
#X connect 26 2 33 0;
#X connect 27 0 41 1;
#X connect 28 0 29 0;
#X connect 29 0 26 1;
#X connect 30 0 29 1;
#X connect 31 0 30 0;
#X connect 31 1 30 1;
#X connect 32 0 30 0;
#X connect 33 0 31 0;
#X connect 33 0 37 0;
#X connect 34 0 36 0;
#X connect 35 0 34 0;
#X connect 36 0 28 0;
#X connect 37 0 34 0;
#X connect 37 1 34 1;
#X connect 38 0 45 0;
#X connect 38 0 84 0;
#X connect 38 0 88 0;
#X connect 39 0 40 0;
#X connect 40 0 38 0;
#X connect 41 0 42 0;
#X connect 41 0 95 0;
#X connect 43 0 27 1;
#X connect 44 0 26 2;
#X connect 45 0 44 0;
#X connect 45 0 27 0;
#X connect 46 0 26 0;
#X connect 46 0 51 0;
#X connect 47 0 44 1;
#X connect 48 0 17 4;
#X connect 49 0 1 1;
#X connect 49 0 48 1;
#X connect 49 1 8 1;
#X connect 49 2 9 1;
#X connect 50 0 21 5;
#X connect 50 1 21 6;
#X connect 51 0 41 0;
#X connect 52 0 53 0;
#X connect 53 0 51 2;
#X connect 54 0 53 1;
#X connect 55 0 52 0;
#X connect 56 0 55 0;
#X connect 57 0 62 0;
#X connect 58 0 59 0;
#X connect 60 0 61 0;
#X connect 61 0 57 0;
#X connect 62 0 22 1;
#X connect 63 0 64 0;
#X connect 63 1 64 1;
#X connect 65 0 21 0;
#X connect 65 1 21 1;
#X connect 66 0 65 0;
#X connect 67 0 65 1;
#X connect 68 0 67 1;
#X connect 68 0 66 1;
#X connect 69 0 21 7;
#X connect 70 0 77 1;
#X connect 70 0 77 0;
#X connect 71 0 72 0;
#X connect 72 0 69 0;
#X connect 73 0 71 0;
#X connect 74 0 73 0;
#X connect 75 0 70 0;
#X connect 76 0 75 0;
#X connect 78 0 57 0;
#X connect 79 0 78 0;
#X connect 80 0 50 2;
#X connect 81 0 21 8;
#X connect 82 0 94 0;
#X connect 83 0 23 1;
#X connect 84 1 46 0;
#X connect 85 0 86 0;
#X connect 86 0 69 2;
#X connect 87 0 86 1;
#X connect 88 0 90 0;
#X connect 88 1 89 0;
#X connect 88 1 81 0;
#X connect 89 0 81 0;
#X connect 90 0 81 0;
#X connect 92 0 21 12;
#X connect 93 0 17 5;
#X connect 94 0 21 12;
#X connect 95 0 21 4;
#X connect 96 0 97 0;
#X connect 97 0 95 1;
